G04*
G04 #@! TF.GenerationSoftware,Altium Limited,Altium Designer,19.1.8 (144)*
G04*
G04 Layer_Color=128*
%FSAX25Y25*%
%MOIN*%
G70*
G01*
G75*
%ADD19C,0.01181*%
%ADD21R,0.01968X0.02362*%
%ADD22R,0.15748X0.13780*%
%ADD23R,0.02520X0.02362*%
%ADD24R,0.06614X0.05984*%
%ADD25R,0.03937X0.03937*%
%ADD26R,0.02362X0.01968*%
%ADD27R,0.03150X0.03150*%
%ADD28R,0.06102X0.08268*%
%ADD29R,0.03740X0.01890*%
G04:AMPARAMS|DCode=30|XSize=39.37mil|YSize=23.62mil|CornerRadius=0mil|HoleSize=0mil|Usage=FLASHONLY|Rotation=315.000|XOffset=0mil|YOffset=0mil|HoleType=Round|Shape=Rectangle|*
%AMROTATEDRECTD30*
4,1,4,-0.02227,0.00557,-0.00557,0.02227,0.02227,-0.00557,0.00557,-0.02227,-0.02227,0.00557,0.0*
%
%ADD30ROTATEDRECTD30*%

%ADD31R,0.02362X0.02520*%
%ADD32R,0.03150X0.03150*%
%ADD38R,0.01575X0.01181*%
G04:AMPARAMS|DCode=41|XSize=24.41mil|YSize=22.44mil|CornerRadius=0mil|HoleSize=0mil|Usage=FLASHONLY|Rotation=225.000|XOffset=0mil|YOffset=0mil|HoleType=Round|Shape=Rectangle|*
%AMROTATEDRECTD41*
4,1,4,0.00070,0.01656,0.01656,0.00070,-0.00070,-0.01656,-0.01656,-0.00070,0.00070,0.01656,0.0*
%
%ADD41ROTATEDRECTD41*%

%ADD43R,0.02244X0.02441*%
%ADD44R,0.01181X0.01181*%
%ADD45R,0.01181X0.01181*%
%ADD46R,0.05906X0.06299*%
G04:AMPARAMS|DCode=47|XSize=9.84mil|YSize=33.47mil|CornerRadius=2.46mil|HoleSize=0mil|Usage=FLASHONLY|Rotation=180.000|XOffset=0mil|YOffset=0mil|HoleType=Round|Shape=RoundedRectangle|*
%AMROUNDEDRECTD47*
21,1,0.00984,0.02854,0,0,180.0*
21,1,0.00492,0.03347,0,0,180.0*
1,1,0.00492,-0.00246,0.01427*
1,1,0.00492,0.00246,0.01427*
1,1,0.00492,0.00246,-0.01427*
1,1,0.00492,-0.00246,-0.01427*
%
%ADD47ROUNDEDRECTD47*%
%ADD48R,0.05906X0.18504*%
%ADD50R,0.06299X0.03543*%
%ADD52R,0.01181X0.01575*%
%ADD54R,0.01181X0.01772*%
%ADD55R,0.01890X0.03740*%
%ADD56R,0.01968X0.01968*%
%ADD58R,0.02244X0.03937*%
%ADD59R,0.02362X0.03937*%
%ADD60R,0.01378X0.01968*%
%ADD61R,0.06693X0.02756*%
%ADD62R,0.03543X0.05118*%
%ADD124C,0.02165*%
G04:AMPARAMS|DCode=125|XSize=37.4mil|YSize=19.29mil|CornerRadius=0mil|HoleSize=0mil|Usage=FLASHONLY|Rotation=45.000|XOffset=0mil|YOffset=0mil|HoleType=Round|Shape=Rectangle|*
%AMROTATEDRECTD125*
4,1,4,-0.00640,-0.02004,-0.02004,-0.00640,0.00640,0.02004,0.02004,0.00640,-0.00640,-0.02004,0.0*
%
%ADD125ROTATEDRECTD125*%

G04:AMPARAMS|DCode=126|XSize=37.8mil|YSize=19.68mil|CornerRadius=0mil|HoleSize=0mil|Usage=FLASHONLY|Rotation=135.000|XOffset=0mil|YOffset=0mil|HoleType=Round|Shape=Rectangle|*
%AMROTATEDRECTD126*
4,1,4,0.02032,-0.00640,0.00640,-0.02032,-0.02032,0.00640,-0.00640,0.02032,0.02032,-0.00640,0.0*
%
%ADD126ROTATEDRECTD126*%

G04:AMPARAMS|DCode=127|XSize=37.4mil|YSize=19.29mil|CornerRadius=0mil|HoleSize=0mil|Usage=FLASHONLY|Rotation=135.000|XOffset=0mil|YOffset=0mil|HoleType=Round|Shape=Rectangle|*
%AMROTATEDRECTD127*
4,1,4,0.02004,-0.00640,0.00640,-0.02004,-0.02004,0.00640,-0.00640,0.02004,0.02004,-0.00640,0.0*
%
%ADD127ROTATEDRECTD127*%

G04:AMPARAMS|DCode=128|XSize=37.4mil|YSize=19.29mil|CornerRadius=0mil|HoleSize=0mil|Usage=FLASHONLY|Rotation=135.000|XOffset=0mil|YOffset=0mil|HoleType=Round|Shape=Rectangle|*
%AMROTATEDRECTD128*
4,1,4,0.02004,-0.00640,0.00640,-0.02004,-0.02004,0.00640,-0.00640,0.02004,0.02004,-0.00640,0.0*
%
%ADD128ROTATEDRECTD128*%

G04:AMPARAMS|DCode=129|XSize=43.31mil|YSize=43.31mil|CornerRadius=0mil|HoleSize=0mil|Usage=FLASHONLY|Rotation=135.000|XOffset=0mil|YOffset=0mil|HoleType=Round|Shape=RoundedRectangle|*
%AMROUNDEDRECTD129*
21,1,0.04331,0.04331,0,0,135.0*
21,1,0.04331,0.04331,0,0,135.0*
1,1,0.00000,0.00000,0.03062*
1,1,0.00000,0.03062,0.00000*
1,1,0.00000,0.00000,-0.03062*
1,1,0.00000,-0.03062,0.00000*
%
%ADD129ROUNDEDRECTD129*%
%ADD130P,0.06125X4X180.0*%
%ADD131R,0.01260X0.01654*%
%ADD132R,0.00984X0.01673*%
%ADD133R,0.01673X0.00984*%
%ADD134R,0.01772X0.00984*%
%ADD135R,0.00984X0.02953*%
%ADD136R,0.01654X0.01260*%
%ADD137R,0.01968X0.03937*%
%ADD138R,0.00984X0.02559*%
G36*
X0533406Y0399833D02*
X0533406Y0399193D01*
X0532323D01*
Y0400177D01*
X0533061Y0400177D01*
X0533406Y0399833D01*
D02*
G37*
G36*
X0449547D02*
X0449547Y0399193D01*
X0448465D01*
Y0400177D01*
X0449203Y0400177D01*
X0449547Y0399833D01*
D02*
G37*
G36*
X0365689D02*
X0365689Y0399193D01*
X0364606D01*
Y0400177D01*
X0365345Y0400177D01*
X0365689Y0399833D01*
D02*
G37*
G36*
X0281831D02*
X0281831Y0399193D01*
X0280748D01*
Y0400177D01*
X0281486Y0400177D01*
X0281831Y0399833D01*
D02*
G37*
G36*
X0197973D02*
X0197973Y0399193D01*
X0196890D01*
Y0400177D01*
X0197628Y0400177D01*
X0197973Y0399833D01*
D02*
G37*
G36*
X0547067Y0311339D02*
X0540217Y0311335D01*
X0540217Y0313819D01*
X0540808Y0314409D01*
X0547067Y0314410D01*
X0547067Y0311339D01*
D02*
G37*
G36*
X0463209D02*
X0456359Y0311335D01*
X0456358Y0313819D01*
X0456950Y0314409D01*
X0463209Y0314410D01*
X0463209Y0311339D01*
D02*
G37*
G36*
X0379350D02*
X0372501Y0311335D01*
X0372500Y0313819D01*
X0373091Y0314409D01*
X0379351Y0314410D01*
X0379350Y0311339D01*
D02*
G37*
G36*
X0295492D02*
X0288642Y0311335D01*
X0288642Y0313819D01*
X0289233Y0314409D01*
X0295492Y0314410D01*
X0295492Y0311339D01*
D02*
G37*
G36*
X0211634D02*
X0204784Y0311335D01*
X0204783Y0313819D01*
X0205375Y0314409D01*
X0211634Y0314410D01*
X0211634Y0311339D01*
D02*
G37*
D19*
X0153780Y0316339D02*
D03*
X0155748D02*
D03*
X0157717D02*
D03*
X0159685D02*
D03*
X0161654D02*
D03*
X0163622D02*
D03*
X0165591D02*
D03*
X0167559D02*
D03*
Y0318307D02*
D03*
X0155748Y0320276D02*
D03*
X0157717D02*
D03*
X0159685D02*
D03*
X0161654D02*
D03*
X0163622D02*
D03*
X0167559D02*
D03*
X0155748Y0322244D02*
D03*
X0157717D02*
D03*
X0161654D02*
D03*
X0167559D02*
D03*
X0155748Y0324213D02*
D03*
X0163622D02*
D03*
X0167559D02*
D03*
X0155748Y0326181D02*
D03*
X0157717D02*
D03*
X0161654D02*
D03*
X0163622D02*
D03*
X0167559D02*
D03*
X0155748Y0328150D02*
D03*
X0157717D02*
D03*
X0159685D02*
D03*
X0161654D02*
D03*
X0163622D02*
D03*
X0167559D02*
D03*
Y0330118D02*
D03*
X0153780Y0332087D02*
D03*
X0155748D02*
D03*
X0157717D02*
D03*
X0159685D02*
D03*
X0161654D02*
D03*
X0163622D02*
D03*
X0165591D02*
D03*
X0167559D02*
D03*
X0151811Y0316339D02*
D03*
Y0318307D02*
D03*
Y0320276D02*
D03*
Y0322244D02*
D03*
Y0324213D02*
D03*
Y0326181D02*
D03*
Y0328150D02*
D03*
Y0330118D02*
D03*
Y0332087D02*
D03*
X0146614Y0383917D02*
D03*
Y0382146D02*
D03*
X0148386Y0383917D02*
D03*
Y0382146D02*
D03*
X0150158Y0383917D02*
D03*
Y0382146D02*
D03*
X0154390Y0269213D02*
D03*
Y0267441D02*
D03*
Y0265669D02*
D03*
X0152618Y0269213D02*
D03*
Y0267441D02*
D03*
Y0265669D02*
D03*
X0237638Y0316339D02*
D03*
X0239606D02*
D03*
X0241575D02*
D03*
X0243543D02*
D03*
X0245512D02*
D03*
X0247481D02*
D03*
X0249449D02*
D03*
X0251417D02*
D03*
Y0318307D02*
D03*
X0239606Y0320276D02*
D03*
X0241575D02*
D03*
X0243543D02*
D03*
X0245512D02*
D03*
X0247481D02*
D03*
X0251417D02*
D03*
X0239606Y0322244D02*
D03*
X0241575D02*
D03*
X0245512D02*
D03*
X0251417D02*
D03*
X0239606Y0324213D02*
D03*
X0247481D02*
D03*
X0251417D02*
D03*
X0239606Y0326181D02*
D03*
X0241575D02*
D03*
X0245512D02*
D03*
X0247481D02*
D03*
X0251417D02*
D03*
X0239606Y0328150D02*
D03*
X0241575D02*
D03*
X0243543D02*
D03*
X0245512D02*
D03*
X0247481D02*
D03*
X0251417D02*
D03*
Y0330118D02*
D03*
X0237638Y0332087D02*
D03*
X0239606D02*
D03*
X0241575D02*
D03*
X0243543D02*
D03*
X0245512D02*
D03*
X0247481D02*
D03*
X0249449D02*
D03*
X0251417D02*
D03*
X0235669Y0316339D02*
D03*
Y0318307D02*
D03*
Y0320276D02*
D03*
Y0322244D02*
D03*
Y0324213D02*
D03*
Y0326181D02*
D03*
Y0328150D02*
D03*
Y0330118D02*
D03*
Y0332087D02*
D03*
X0230473Y0383917D02*
D03*
Y0382146D02*
D03*
X0232244Y0383917D02*
D03*
Y0382146D02*
D03*
X0234016Y0383917D02*
D03*
Y0382146D02*
D03*
X0238248Y0269213D02*
D03*
Y0267441D02*
D03*
Y0265669D02*
D03*
X0236476Y0269213D02*
D03*
Y0267441D02*
D03*
Y0265669D02*
D03*
X0321496Y0316339D02*
D03*
X0323465D02*
D03*
X0325433D02*
D03*
X0327402D02*
D03*
X0329370D02*
D03*
X0331339D02*
D03*
X0333307D02*
D03*
X0335276D02*
D03*
Y0318307D02*
D03*
X0323465Y0320276D02*
D03*
X0325433D02*
D03*
X0327402D02*
D03*
X0329370D02*
D03*
X0331339D02*
D03*
X0335276D02*
D03*
X0323465Y0322244D02*
D03*
X0325433D02*
D03*
X0329370D02*
D03*
X0335276D02*
D03*
X0323465Y0324213D02*
D03*
X0331339D02*
D03*
X0335276D02*
D03*
X0323465Y0326181D02*
D03*
X0325433D02*
D03*
X0329370D02*
D03*
X0331339D02*
D03*
X0335276D02*
D03*
X0323465Y0328150D02*
D03*
X0325433D02*
D03*
X0327402D02*
D03*
X0329370D02*
D03*
X0331339D02*
D03*
X0335276D02*
D03*
Y0330118D02*
D03*
X0321496Y0332087D02*
D03*
X0323465D02*
D03*
X0325433D02*
D03*
X0327402D02*
D03*
X0329370D02*
D03*
X0331339D02*
D03*
X0333307D02*
D03*
X0335276D02*
D03*
X0319528Y0316339D02*
D03*
Y0318307D02*
D03*
Y0320276D02*
D03*
Y0322244D02*
D03*
Y0324213D02*
D03*
Y0326181D02*
D03*
Y0328150D02*
D03*
Y0330118D02*
D03*
Y0332087D02*
D03*
X0314331Y0383917D02*
D03*
Y0382146D02*
D03*
X0316103Y0383917D02*
D03*
Y0382146D02*
D03*
X0317874Y0383917D02*
D03*
Y0382146D02*
D03*
X0322107Y0269213D02*
D03*
Y0267441D02*
D03*
Y0265669D02*
D03*
X0320335Y0269213D02*
D03*
Y0267441D02*
D03*
Y0265669D02*
D03*
X0405354Y0316339D02*
D03*
X0407323D02*
D03*
X0409292D02*
D03*
X0411260D02*
D03*
X0413229D02*
D03*
X0415197D02*
D03*
X0417166D02*
D03*
X0419134D02*
D03*
Y0318307D02*
D03*
X0407323Y0320276D02*
D03*
X0409292D02*
D03*
X0411260D02*
D03*
X0413229D02*
D03*
X0415197D02*
D03*
X0419134D02*
D03*
X0407323Y0322244D02*
D03*
X0409292D02*
D03*
X0413229D02*
D03*
X0419134D02*
D03*
X0407323Y0324213D02*
D03*
X0415197D02*
D03*
X0419134D02*
D03*
X0407323Y0326181D02*
D03*
X0409292D02*
D03*
X0413229D02*
D03*
X0415197D02*
D03*
X0419134D02*
D03*
X0407323Y0328150D02*
D03*
X0409292D02*
D03*
X0411260D02*
D03*
X0413229D02*
D03*
X0415197D02*
D03*
X0419134D02*
D03*
Y0330118D02*
D03*
X0405354Y0332087D02*
D03*
X0407323D02*
D03*
X0409292D02*
D03*
X0411260D02*
D03*
X0413229D02*
D03*
X0415197D02*
D03*
X0417166D02*
D03*
X0419134D02*
D03*
X0403386Y0316339D02*
D03*
Y0318307D02*
D03*
Y0320276D02*
D03*
Y0322244D02*
D03*
Y0324213D02*
D03*
Y0326181D02*
D03*
Y0328150D02*
D03*
Y0330118D02*
D03*
Y0332087D02*
D03*
X0398189Y0383917D02*
D03*
Y0382146D02*
D03*
X0399961Y0383917D02*
D03*
Y0382146D02*
D03*
X0401732Y0383917D02*
D03*
Y0382146D02*
D03*
X0405965Y0269213D02*
D03*
Y0267441D02*
D03*
Y0265669D02*
D03*
X0404193Y0269213D02*
D03*
Y0267441D02*
D03*
Y0265669D02*
D03*
X0489213Y0316339D02*
D03*
X0491181D02*
D03*
X0493150D02*
D03*
X0495118D02*
D03*
X0497087D02*
D03*
X0499055D02*
D03*
X0501024D02*
D03*
X0502992D02*
D03*
Y0318307D02*
D03*
X0491181Y0320276D02*
D03*
X0493150D02*
D03*
X0495118D02*
D03*
X0497087D02*
D03*
X0499055D02*
D03*
X0502992D02*
D03*
X0491181Y0322244D02*
D03*
X0493150D02*
D03*
X0497087D02*
D03*
X0502992D02*
D03*
X0491181Y0324213D02*
D03*
X0499055D02*
D03*
X0502992D02*
D03*
X0491181Y0326181D02*
D03*
X0493150D02*
D03*
X0497087D02*
D03*
X0499055D02*
D03*
X0502992D02*
D03*
X0491181Y0328150D02*
D03*
X0493150D02*
D03*
X0495118D02*
D03*
X0497087D02*
D03*
X0499055D02*
D03*
X0502992D02*
D03*
Y0330118D02*
D03*
X0489213Y0332087D02*
D03*
X0491181D02*
D03*
X0493150D02*
D03*
X0495118D02*
D03*
X0497087D02*
D03*
X0499055D02*
D03*
X0501024D02*
D03*
X0502992D02*
D03*
X0487244Y0316339D02*
D03*
Y0318307D02*
D03*
Y0320276D02*
D03*
Y0322244D02*
D03*
Y0324213D02*
D03*
Y0326181D02*
D03*
Y0328150D02*
D03*
Y0330118D02*
D03*
Y0332087D02*
D03*
X0482048Y0383917D02*
D03*
Y0382146D02*
D03*
X0483819Y0383917D02*
D03*
Y0382146D02*
D03*
X0485591Y0383917D02*
D03*
Y0382146D02*
D03*
X0489823Y0269213D02*
D03*
Y0267441D02*
D03*
Y0265669D02*
D03*
X0488051Y0269213D02*
D03*
Y0267441D02*
D03*
Y0265669D02*
D03*
D21*
X0155906Y0451929D02*
D03*
X0159843D02*
D03*
X0154725Y0391496D02*
D03*
X0150787D02*
D03*
X0210315Y0382598D02*
D03*
X0214252D02*
D03*
X0143307Y0447992D02*
D03*
X0147244D02*
D03*
X0179587Y0257248D02*
D03*
X0183524D02*
D03*
X0209803Y0226339D02*
D03*
X0205866D02*
D03*
X0209803Y0222008D02*
D03*
X0205866D02*
D03*
X0213937Y0239213D02*
D03*
X0217874D02*
D03*
X0151260Y0347520D02*
D03*
X0155197D02*
D03*
X0154410Y0311969D02*
D03*
X0150473D02*
D03*
X0156496Y0299646D02*
D03*
X0152559D02*
D03*
X0162402Y0286496D02*
D03*
X0166339D02*
D03*
X0149882Y0273504D02*
D03*
X0153819D02*
D03*
X0152559Y0261299D02*
D03*
X0148622D02*
D03*
X0239764Y0451929D02*
D03*
X0243701D02*
D03*
X0238583Y0391496D02*
D03*
X0234646D02*
D03*
X0294173Y0382598D02*
D03*
X0298110D02*
D03*
X0227166Y0447992D02*
D03*
X0231102D02*
D03*
X0263445Y0257248D02*
D03*
X0267382D02*
D03*
X0293661Y0226339D02*
D03*
X0289724D02*
D03*
X0293661Y0222008D02*
D03*
X0289724D02*
D03*
X0297796Y0239213D02*
D03*
X0301732D02*
D03*
X0235118Y0347520D02*
D03*
X0239055D02*
D03*
X0238268Y0311969D02*
D03*
X0234331D02*
D03*
X0240354Y0299646D02*
D03*
X0236418D02*
D03*
X0246260Y0286496D02*
D03*
X0250197D02*
D03*
X0233740Y0273504D02*
D03*
X0237677D02*
D03*
X0236418Y0261299D02*
D03*
X0232481D02*
D03*
X0323622Y0451929D02*
D03*
X0327559D02*
D03*
X0322441Y0391496D02*
D03*
X0318504D02*
D03*
X0378032Y0382598D02*
D03*
X0381969D02*
D03*
X0311024Y0447992D02*
D03*
X0314961D02*
D03*
X0347303Y0257248D02*
D03*
X0351240D02*
D03*
X0377520Y0226339D02*
D03*
X0373583D02*
D03*
X0377520Y0222008D02*
D03*
X0373583D02*
D03*
X0381654Y0239213D02*
D03*
X0385591D02*
D03*
X0318976Y0347520D02*
D03*
X0322914D02*
D03*
X0322126Y0311969D02*
D03*
X0318189D02*
D03*
X0324213Y0299646D02*
D03*
X0320276D02*
D03*
X0330118Y0286496D02*
D03*
X0334055D02*
D03*
X0317599Y0273504D02*
D03*
X0321536D02*
D03*
X0320276Y0261299D02*
D03*
X0316339D02*
D03*
X0407480Y0451929D02*
D03*
X0411417D02*
D03*
X0406299Y0391496D02*
D03*
X0402362D02*
D03*
X0461890Y0382598D02*
D03*
X0465827D02*
D03*
X0394882Y0447992D02*
D03*
X0398819D02*
D03*
X0431162Y0257248D02*
D03*
X0435099D02*
D03*
X0461378Y0226339D02*
D03*
X0457441D02*
D03*
X0461378Y0222008D02*
D03*
X0457441D02*
D03*
X0465512Y0239213D02*
D03*
X0469449D02*
D03*
X0402835Y0347520D02*
D03*
X0406772D02*
D03*
X0405984Y0311969D02*
D03*
X0402047D02*
D03*
X0408071Y0299646D02*
D03*
X0404134D02*
D03*
X0413977Y0286496D02*
D03*
X0417914D02*
D03*
X0401457Y0273504D02*
D03*
X0405394D02*
D03*
X0404134Y0261299D02*
D03*
X0400197D02*
D03*
X0491339Y0451929D02*
D03*
X0495276D02*
D03*
X0490158Y0391496D02*
D03*
X0486221D02*
D03*
X0545748Y0382598D02*
D03*
X0549685D02*
D03*
X0478740Y0447992D02*
D03*
X0482677D02*
D03*
X0515020Y0257248D02*
D03*
X0518957D02*
D03*
X0545236Y0226339D02*
D03*
X0541299D02*
D03*
X0545236Y0222008D02*
D03*
X0541299D02*
D03*
X0549370Y0239213D02*
D03*
X0553307D02*
D03*
X0486693Y0347520D02*
D03*
X0490630D02*
D03*
X0489843Y0311969D02*
D03*
X0485906D02*
D03*
X0491929Y0299646D02*
D03*
X0487992D02*
D03*
X0497835Y0286496D02*
D03*
X0501772D02*
D03*
X0485315Y0273504D02*
D03*
X0489252D02*
D03*
X0487992Y0261299D02*
D03*
X0484055D02*
D03*
D22*
X0160945Y0423189D02*
D03*
X0175394Y0146929D02*
D03*
X0244803Y0423189D02*
D03*
X0259252Y0146929D02*
D03*
X0328662Y0423189D02*
D03*
X0343110Y0146929D02*
D03*
X0412520Y0423189D02*
D03*
X0426969Y0146929D02*
D03*
X0496378Y0423189D02*
D03*
X0510827Y0146929D02*
D03*
D23*
X0175315Y0186851D02*
D03*
Y0190630D02*
D03*
X0181142Y0270039D02*
D03*
Y0273819D02*
D03*
X0146929Y0356378D02*
D03*
Y0360157D02*
D03*
X0210354Y0378268D02*
D03*
Y0374488D02*
D03*
X0214213Y0397913D02*
D03*
Y0401693D02*
D03*
X0158110Y0282717D02*
D03*
Y0286496D02*
D03*
X0212953Y0264213D02*
D03*
Y0260433D02*
D03*
X0205158Y0243150D02*
D03*
Y0239370D02*
D03*
X0172047Y0316220D02*
D03*
Y0320000D02*
D03*
X0147520Y0324410D02*
D03*
Y0328189D02*
D03*
X0157677Y0214921D02*
D03*
Y0211142D02*
D03*
X0152599Y0307677D02*
D03*
Y0303898D02*
D03*
X0259173Y0186851D02*
D03*
Y0190630D02*
D03*
X0265000Y0270039D02*
D03*
Y0273819D02*
D03*
X0230788Y0356378D02*
D03*
Y0360157D02*
D03*
X0294213Y0378268D02*
D03*
Y0374488D02*
D03*
X0298071Y0397913D02*
D03*
Y0401693D02*
D03*
X0241969Y0282717D02*
D03*
Y0286496D02*
D03*
X0296811Y0264213D02*
D03*
Y0260433D02*
D03*
X0289016Y0243150D02*
D03*
Y0239370D02*
D03*
X0255906Y0316220D02*
D03*
Y0320000D02*
D03*
X0231378Y0324410D02*
D03*
Y0328189D02*
D03*
X0241536Y0214921D02*
D03*
Y0211142D02*
D03*
X0236457Y0307677D02*
D03*
Y0303898D02*
D03*
X0343032Y0186851D02*
D03*
Y0190630D02*
D03*
X0348858Y0270039D02*
D03*
Y0273819D02*
D03*
X0314646Y0356378D02*
D03*
Y0360157D02*
D03*
X0378071Y0378268D02*
D03*
Y0374488D02*
D03*
X0381929Y0397913D02*
D03*
Y0401693D02*
D03*
X0325827Y0282717D02*
D03*
Y0286496D02*
D03*
X0380669Y0264213D02*
D03*
Y0260433D02*
D03*
X0372874Y0243150D02*
D03*
Y0239370D02*
D03*
X0339764Y0316220D02*
D03*
Y0320000D02*
D03*
X0315236Y0324410D02*
D03*
Y0328189D02*
D03*
X0325394Y0214921D02*
D03*
Y0211142D02*
D03*
X0320315Y0307677D02*
D03*
Y0303898D02*
D03*
X0426890Y0186851D02*
D03*
Y0190630D02*
D03*
X0432717Y0270039D02*
D03*
Y0273819D02*
D03*
X0398504Y0356378D02*
D03*
Y0360157D02*
D03*
X0461929Y0378268D02*
D03*
Y0374488D02*
D03*
X0465788Y0397913D02*
D03*
Y0401693D02*
D03*
X0409685Y0282717D02*
D03*
Y0286496D02*
D03*
X0464528Y0264213D02*
D03*
Y0260433D02*
D03*
X0456733Y0243150D02*
D03*
Y0239370D02*
D03*
X0423622Y0316220D02*
D03*
Y0320000D02*
D03*
X0399095Y0324410D02*
D03*
Y0328189D02*
D03*
X0409252Y0214921D02*
D03*
Y0211142D02*
D03*
X0404173Y0307677D02*
D03*
Y0303898D02*
D03*
X0510748Y0186851D02*
D03*
Y0190630D02*
D03*
X0516575Y0270039D02*
D03*
Y0273819D02*
D03*
X0482362Y0356378D02*
D03*
Y0360157D02*
D03*
X0545788Y0378268D02*
D03*
Y0374488D02*
D03*
X0549646Y0397913D02*
D03*
Y0401693D02*
D03*
X0493543Y0282717D02*
D03*
Y0286496D02*
D03*
X0548386Y0264213D02*
D03*
Y0260433D02*
D03*
X0540591Y0243150D02*
D03*
Y0239370D02*
D03*
X0507481Y0316220D02*
D03*
Y0320000D02*
D03*
X0482953Y0324410D02*
D03*
Y0328189D02*
D03*
X0493111Y0214921D02*
D03*
Y0211142D02*
D03*
X0488032Y0307677D02*
D03*
Y0303898D02*
D03*
D24*
X0188898Y0198839D02*
D03*
Y0183366D02*
D03*
X0272756Y0198839D02*
D03*
Y0183366D02*
D03*
X0356614Y0198839D02*
D03*
Y0183366D02*
D03*
X0440473Y0198839D02*
D03*
Y0183366D02*
D03*
X0524331Y0198839D02*
D03*
Y0183366D02*
D03*
D25*
X0195906Y0208543D02*
D03*
X0188819D02*
D03*
X0279764D02*
D03*
X0272677D02*
D03*
X0363622D02*
D03*
X0356536D02*
D03*
X0447480D02*
D03*
X0440394D02*
D03*
X0531339D02*
D03*
X0524252D02*
D03*
D26*
X0186063Y0273819D02*
D03*
Y0269882D02*
D03*
X0179725Y0198622D02*
D03*
Y0194685D02*
D03*
Y0190669D02*
D03*
Y0186732D02*
D03*
X0149370Y0208110D02*
D03*
Y0204173D02*
D03*
X0146536Y0389646D02*
D03*
Y0393583D02*
D03*
X0146142Y0375118D02*
D03*
Y0371181D02*
D03*
X0146536Y0401496D02*
D03*
Y0397559D02*
D03*
X0204213Y0388780D02*
D03*
Y0392717D02*
D03*
X0208622Y0388780D02*
D03*
Y0392717D02*
D03*
X0183425Y0261536D02*
D03*
Y0265473D02*
D03*
X0188543Y0229252D02*
D03*
Y0233189D02*
D03*
X0209607Y0230591D02*
D03*
Y0234528D02*
D03*
Y0239331D02*
D03*
Y0243268D02*
D03*
X0218701Y0227284D02*
D03*
Y0223346D02*
D03*
X0172047Y0328110D02*
D03*
Y0324173D02*
D03*
X0159134Y0341142D02*
D03*
Y0345079D02*
D03*
X0214370Y0227284D02*
D03*
Y0223346D02*
D03*
X0147402Y0347323D02*
D03*
Y0351260D02*
D03*
Y0341102D02*
D03*
Y0337165D02*
D03*
X0204646Y0380472D02*
D03*
Y0384409D02*
D03*
X0152520Y0257126D02*
D03*
Y0253189D02*
D03*
X0269921Y0273819D02*
D03*
Y0269882D02*
D03*
X0263583Y0198622D02*
D03*
Y0194685D02*
D03*
Y0190669D02*
D03*
Y0186732D02*
D03*
X0233228Y0208110D02*
D03*
Y0204173D02*
D03*
X0230394Y0389646D02*
D03*
Y0393583D02*
D03*
X0230000Y0375118D02*
D03*
Y0371181D02*
D03*
X0230394Y0401496D02*
D03*
Y0397559D02*
D03*
X0288071Y0388780D02*
D03*
Y0392717D02*
D03*
X0292480Y0388780D02*
D03*
Y0392717D02*
D03*
X0267284Y0261536D02*
D03*
Y0265473D02*
D03*
X0272402Y0229252D02*
D03*
Y0233189D02*
D03*
X0293465Y0230591D02*
D03*
Y0234528D02*
D03*
Y0239331D02*
D03*
Y0243268D02*
D03*
X0302559Y0227284D02*
D03*
Y0223346D02*
D03*
X0255906Y0328110D02*
D03*
Y0324173D02*
D03*
X0242992Y0341142D02*
D03*
Y0345079D02*
D03*
X0298229Y0227284D02*
D03*
Y0223346D02*
D03*
X0231260Y0347323D02*
D03*
Y0351260D02*
D03*
Y0341102D02*
D03*
Y0337165D02*
D03*
X0288504Y0380472D02*
D03*
Y0384409D02*
D03*
X0236378Y0257126D02*
D03*
Y0253189D02*
D03*
X0353780Y0273819D02*
D03*
Y0269882D02*
D03*
X0347441Y0198622D02*
D03*
Y0194685D02*
D03*
Y0190669D02*
D03*
Y0186732D02*
D03*
X0317087Y0208110D02*
D03*
Y0204173D02*
D03*
X0314252Y0389646D02*
D03*
Y0393583D02*
D03*
X0313858Y0375118D02*
D03*
Y0371181D02*
D03*
X0314252Y0401496D02*
D03*
Y0397559D02*
D03*
X0371929Y0388780D02*
D03*
Y0392717D02*
D03*
X0376339Y0388780D02*
D03*
Y0392717D02*
D03*
X0351142Y0261536D02*
D03*
Y0265473D02*
D03*
X0356260Y0229252D02*
D03*
Y0233189D02*
D03*
X0377323Y0230591D02*
D03*
Y0234528D02*
D03*
Y0239331D02*
D03*
Y0243268D02*
D03*
X0386418Y0227284D02*
D03*
Y0223346D02*
D03*
X0339764Y0328110D02*
D03*
Y0324173D02*
D03*
X0326851Y0341142D02*
D03*
Y0345079D02*
D03*
X0382087Y0227284D02*
D03*
Y0223346D02*
D03*
X0315118Y0347323D02*
D03*
Y0351260D02*
D03*
Y0341102D02*
D03*
Y0337165D02*
D03*
X0372362Y0380472D02*
D03*
Y0384409D02*
D03*
X0320236Y0257126D02*
D03*
Y0253189D02*
D03*
X0437638Y0273819D02*
D03*
Y0269882D02*
D03*
X0431299Y0198622D02*
D03*
Y0194685D02*
D03*
Y0190669D02*
D03*
Y0186732D02*
D03*
X0400945Y0208110D02*
D03*
Y0204173D02*
D03*
X0398110Y0389646D02*
D03*
Y0393583D02*
D03*
X0397717Y0375118D02*
D03*
Y0371181D02*
D03*
X0398110Y0401496D02*
D03*
Y0397559D02*
D03*
X0455788Y0388780D02*
D03*
Y0392717D02*
D03*
X0460197Y0388780D02*
D03*
Y0392717D02*
D03*
X0435000Y0261536D02*
D03*
Y0265473D02*
D03*
X0440118Y0229252D02*
D03*
Y0233189D02*
D03*
X0461181Y0230591D02*
D03*
Y0234528D02*
D03*
Y0239331D02*
D03*
Y0243268D02*
D03*
X0470276Y0227284D02*
D03*
Y0223346D02*
D03*
X0423622Y0328110D02*
D03*
Y0324173D02*
D03*
X0410709Y0341142D02*
D03*
Y0345079D02*
D03*
X0465945Y0227284D02*
D03*
Y0223346D02*
D03*
X0398977Y0347323D02*
D03*
Y0351260D02*
D03*
Y0341102D02*
D03*
Y0337165D02*
D03*
X0456221Y0380472D02*
D03*
Y0384409D02*
D03*
X0404095Y0257126D02*
D03*
Y0253189D02*
D03*
X0521496Y0273819D02*
D03*
Y0269882D02*
D03*
X0515158Y0198622D02*
D03*
Y0194685D02*
D03*
Y0190669D02*
D03*
Y0186732D02*
D03*
X0484803Y0208110D02*
D03*
Y0204173D02*
D03*
X0481969Y0389646D02*
D03*
Y0393583D02*
D03*
X0481575Y0375118D02*
D03*
Y0371181D02*
D03*
X0481969Y0401496D02*
D03*
Y0397559D02*
D03*
X0539646Y0388780D02*
D03*
Y0392717D02*
D03*
X0544055Y0388780D02*
D03*
Y0392717D02*
D03*
X0518858Y0261536D02*
D03*
Y0265473D02*
D03*
X0523977Y0229252D02*
D03*
Y0233189D02*
D03*
X0545040Y0230591D02*
D03*
Y0234528D02*
D03*
Y0239331D02*
D03*
Y0243268D02*
D03*
X0554134Y0227284D02*
D03*
Y0223346D02*
D03*
X0507481Y0328110D02*
D03*
Y0324173D02*
D03*
X0494567Y0341142D02*
D03*
Y0345079D02*
D03*
X0549803Y0227284D02*
D03*
Y0223346D02*
D03*
X0482835Y0347323D02*
D03*
Y0351260D02*
D03*
Y0341102D02*
D03*
Y0337165D02*
D03*
X0540079Y0380472D02*
D03*
Y0384409D02*
D03*
X0487953Y0257126D02*
D03*
Y0253189D02*
D03*
D27*
X0143701Y0210472D02*
D03*
Y0204173D02*
D03*
X0200532Y0309646D02*
D03*
Y0315551D02*
D03*
X0208622Y0403780D02*
D03*
Y0397874D02*
D03*
X0195471Y0264004D02*
D03*
Y0258099D02*
D03*
X0189251Y0264083D02*
D03*
Y0258178D02*
D03*
X0152638Y0280591D02*
D03*
Y0286496D02*
D03*
X0158937Y0270394D02*
D03*
Y0264488D02*
D03*
X0227559Y0210472D02*
D03*
Y0204173D02*
D03*
X0284390Y0309646D02*
D03*
Y0315551D02*
D03*
X0292480Y0403780D02*
D03*
Y0397874D02*
D03*
X0279329Y0264004D02*
D03*
Y0258099D02*
D03*
X0273109Y0264083D02*
D03*
Y0258178D02*
D03*
X0236496Y0280591D02*
D03*
Y0286496D02*
D03*
X0242795Y0270394D02*
D03*
Y0264488D02*
D03*
X0311418Y0210472D02*
D03*
Y0204173D02*
D03*
X0368248Y0309646D02*
D03*
Y0315551D02*
D03*
X0376339Y0403780D02*
D03*
Y0397874D02*
D03*
X0363188Y0264004D02*
D03*
Y0258099D02*
D03*
X0356967Y0264083D02*
D03*
Y0258178D02*
D03*
X0320355Y0280591D02*
D03*
Y0286496D02*
D03*
X0326654Y0270394D02*
D03*
Y0264488D02*
D03*
X0395276Y0210472D02*
D03*
Y0204173D02*
D03*
X0452107Y0309646D02*
D03*
Y0315551D02*
D03*
X0460197Y0403780D02*
D03*
Y0397874D02*
D03*
X0447046Y0264004D02*
D03*
Y0258099D02*
D03*
X0440825Y0264083D02*
D03*
Y0258178D02*
D03*
X0404213Y0280591D02*
D03*
Y0286496D02*
D03*
X0410512Y0270394D02*
D03*
Y0264488D02*
D03*
X0479134Y0210472D02*
D03*
Y0204173D02*
D03*
X0535965Y0309646D02*
D03*
Y0315551D02*
D03*
X0544055Y0403780D02*
D03*
Y0397874D02*
D03*
X0530904Y0264004D02*
D03*
Y0258099D02*
D03*
X0524684Y0264083D02*
D03*
Y0258178D02*
D03*
X0488071Y0280591D02*
D03*
Y0286496D02*
D03*
X0494370Y0270394D02*
D03*
Y0264488D02*
D03*
D28*
X0204252Y0208425D02*
D03*
X0214252Y0182835D02*
D03*
X0204252D02*
D03*
X0214252Y0208425D02*
D03*
X0288110D02*
D03*
X0298110Y0182835D02*
D03*
X0288110D02*
D03*
X0298110Y0208425D02*
D03*
X0371969D02*
D03*
X0381969Y0182835D02*
D03*
X0371969D02*
D03*
X0381969Y0208425D02*
D03*
X0455827D02*
D03*
X0465827Y0182835D02*
D03*
X0455827D02*
D03*
X0465827Y0208425D02*
D03*
X0539685D02*
D03*
X0549685Y0182835D02*
D03*
X0539685D02*
D03*
X0549685Y0208425D02*
D03*
D29*
X0175512Y0278504D02*
D03*
Y0285984D02*
D03*
X0186142D02*
D03*
Y0278504D02*
D03*
X0175512Y0282244D02*
D03*
X0149882Y0430945D02*
D03*
Y0423307D02*
D03*
X0142244Y0427126D02*
D03*
X0149882Y0443543D02*
D03*
Y0435906D02*
D03*
X0142244Y0439724D02*
D03*
X0200236Y0230315D02*
D03*
Y0222677D02*
D03*
X0192598Y0226496D02*
D03*
X0259370Y0278504D02*
D03*
Y0285984D02*
D03*
X0270000D02*
D03*
Y0278504D02*
D03*
X0259370Y0282244D02*
D03*
X0233740Y0430945D02*
D03*
Y0423307D02*
D03*
X0226102Y0427126D02*
D03*
X0233740Y0443543D02*
D03*
Y0435906D02*
D03*
X0226102Y0439724D02*
D03*
X0284095Y0230315D02*
D03*
Y0222677D02*
D03*
X0276457Y0226496D02*
D03*
X0343229Y0278504D02*
D03*
Y0285984D02*
D03*
X0353858D02*
D03*
Y0278504D02*
D03*
X0343229Y0282244D02*
D03*
X0317599Y0430945D02*
D03*
Y0423307D02*
D03*
X0309961Y0427126D02*
D03*
X0317599Y0443543D02*
D03*
Y0435906D02*
D03*
X0309961Y0439724D02*
D03*
X0367953Y0230315D02*
D03*
Y0222677D02*
D03*
X0360315Y0226496D02*
D03*
X0427087Y0278504D02*
D03*
Y0285984D02*
D03*
X0437717D02*
D03*
Y0278504D02*
D03*
X0427087Y0282244D02*
D03*
X0401457Y0430945D02*
D03*
Y0423307D02*
D03*
X0393819Y0427126D02*
D03*
X0401457Y0443543D02*
D03*
Y0435906D02*
D03*
X0393819Y0439724D02*
D03*
X0451811Y0230315D02*
D03*
Y0222677D02*
D03*
X0444173Y0226496D02*
D03*
X0510945Y0278504D02*
D03*
Y0285984D02*
D03*
X0521575D02*
D03*
Y0278504D02*
D03*
X0510945Y0282244D02*
D03*
X0485315Y0430945D02*
D03*
Y0423307D02*
D03*
X0477677Y0427126D02*
D03*
X0485315Y0443543D02*
D03*
Y0435906D02*
D03*
X0477677Y0439724D02*
D03*
X0535670Y0230315D02*
D03*
Y0222677D02*
D03*
X0528032Y0226496D02*
D03*
D30*
X0163384Y0386809D02*
D03*
X0160711Y0384136D02*
D03*
X0247242Y0386809D02*
D03*
X0244569Y0384136D02*
D03*
X0331100Y0386809D02*
D03*
X0328428Y0384136D02*
D03*
X0414958Y0386809D02*
D03*
X0412286Y0384136D02*
D03*
X0498817Y0386809D02*
D03*
X0496144Y0384136D02*
D03*
D31*
X0146536Y0405748D02*
D03*
X0150315D02*
D03*
X0165354Y0405748D02*
D03*
X0169134D02*
D03*
X0207224Y0330079D02*
D03*
X0203445D02*
D03*
X0158543Y0405748D02*
D03*
X0154764D02*
D03*
X0207264Y0325551D02*
D03*
X0203484D02*
D03*
X0159764Y0447599D02*
D03*
X0155984D02*
D03*
X0196536Y0217284D02*
D03*
X0200315D02*
D03*
X0203445Y0321024D02*
D03*
X0207224D02*
D03*
X0166339Y0282126D02*
D03*
X0162559D02*
D03*
X0162717Y0252835D02*
D03*
X0158937D02*
D03*
X0230394Y0405748D02*
D03*
X0234173D02*
D03*
X0249213Y0405748D02*
D03*
X0252992D02*
D03*
X0291083Y0330079D02*
D03*
X0287303D02*
D03*
X0242402Y0405748D02*
D03*
X0238622D02*
D03*
X0291122Y0325551D02*
D03*
X0287343D02*
D03*
X0243622Y0447599D02*
D03*
X0239843D02*
D03*
X0280394Y0217284D02*
D03*
X0284173D02*
D03*
X0287303Y0321024D02*
D03*
X0291083D02*
D03*
X0250197Y0282126D02*
D03*
X0246417D02*
D03*
X0246575Y0252835D02*
D03*
X0242795D02*
D03*
X0314252Y0405748D02*
D03*
X0318032D02*
D03*
X0333071Y0405748D02*
D03*
X0336851D02*
D03*
X0374941Y0330079D02*
D03*
X0371162D02*
D03*
X0326260Y0405748D02*
D03*
X0322481D02*
D03*
X0374980Y0325551D02*
D03*
X0371201D02*
D03*
X0327481Y0447599D02*
D03*
X0323701D02*
D03*
X0364252Y0217284D02*
D03*
X0368032D02*
D03*
X0371162Y0321024D02*
D03*
X0374941D02*
D03*
X0334055Y0282126D02*
D03*
X0330276D02*
D03*
X0330433Y0252835D02*
D03*
X0326654D02*
D03*
X0398110Y0405748D02*
D03*
X0401890D02*
D03*
X0416929Y0405748D02*
D03*
X0420709D02*
D03*
X0458799Y0330079D02*
D03*
X0455020D02*
D03*
X0410118Y0405748D02*
D03*
X0406339D02*
D03*
X0458839Y0325551D02*
D03*
X0455059D02*
D03*
X0411339Y0447599D02*
D03*
X0407559D02*
D03*
X0448110Y0217284D02*
D03*
X0451890D02*
D03*
X0455020Y0321024D02*
D03*
X0458799D02*
D03*
X0417914Y0282126D02*
D03*
X0414134D02*
D03*
X0414291Y0252835D02*
D03*
X0410512D02*
D03*
X0481969Y0405748D02*
D03*
X0485748D02*
D03*
X0500788Y0405748D02*
D03*
X0504567D02*
D03*
X0542658Y0330079D02*
D03*
X0538878D02*
D03*
X0493977Y0405748D02*
D03*
X0490197D02*
D03*
X0542697Y0325551D02*
D03*
X0538918D02*
D03*
X0495197Y0447599D02*
D03*
X0491418D02*
D03*
X0531969Y0217284D02*
D03*
X0535748D02*
D03*
X0538878Y0321024D02*
D03*
X0542658D02*
D03*
X0501772Y0282126D02*
D03*
X0497992D02*
D03*
X0498150Y0252835D02*
D03*
X0494370D02*
D03*
D32*
X0209410Y0335472D02*
D03*
X0203504D02*
D03*
X0163984Y0396417D02*
D03*
X0159016Y0276693D02*
D03*
X0164921D02*
D03*
X0164882Y0258189D02*
D03*
X0158976D02*
D03*
X0165906Y0246811D02*
D03*
X0160000D02*
D03*
X0293268Y0335472D02*
D03*
X0287362D02*
D03*
X0247843Y0396417D02*
D03*
X0242874Y0276693D02*
D03*
X0248780D02*
D03*
X0248740Y0258189D02*
D03*
X0242835D02*
D03*
X0249764Y0246811D02*
D03*
X0243858D02*
D03*
X0377126Y0335472D02*
D03*
X0371221D02*
D03*
X0331701Y0396417D02*
D03*
X0326732Y0276693D02*
D03*
X0332638D02*
D03*
X0332599Y0258189D02*
D03*
X0326693D02*
D03*
X0333622Y0246811D02*
D03*
X0327717D02*
D03*
X0460985Y0335472D02*
D03*
X0455079D02*
D03*
X0415559Y0396417D02*
D03*
X0410591Y0276693D02*
D03*
X0416496D02*
D03*
X0416457Y0258189D02*
D03*
X0410551D02*
D03*
X0417481Y0246811D02*
D03*
X0411575D02*
D03*
X0544843Y0335472D02*
D03*
X0538937D02*
D03*
X0499418Y0396417D02*
D03*
X0494449Y0276693D02*
D03*
X0500355D02*
D03*
X0500315Y0258189D02*
D03*
X0494410D02*
D03*
X0501339Y0246811D02*
D03*
X0495433D02*
D03*
D38*
X0154095Y0397520D02*
D03*
X0150158D02*
D03*
X0237953D02*
D03*
X0234016D02*
D03*
X0321811D02*
D03*
X0317874D02*
D03*
X0405669D02*
D03*
X0401732D02*
D03*
X0489528D02*
D03*
X0485591D02*
D03*
D41*
X0157568Y0381448D02*
D03*
X0154952Y0384064D02*
D03*
X0241427Y0381448D02*
D03*
X0238810Y0384064D02*
D03*
X0325285Y0381448D02*
D03*
X0322668Y0384064D02*
D03*
X0409143Y0381448D02*
D03*
X0406526Y0384064D02*
D03*
X0493002Y0381448D02*
D03*
X0490385Y0384064D02*
D03*
D43*
X0177323Y0405630D02*
D03*
X0173622D02*
D03*
X0261181D02*
D03*
X0257481D02*
D03*
X0345040D02*
D03*
X0341339D02*
D03*
X0428898D02*
D03*
X0425197D02*
D03*
X0512756D02*
D03*
X0509055D02*
D03*
D44*
X0197441Y0399685D02*
D03*
Y0401654D02*
D03*
Y0403622D02*
D03*
Y0405591D02*
D03*
X0203347D02*
D03*
Y0403622D02*
D03*
Y0401654D02*
D03*
Y0399685D02*
D03*
X0281299D02*
D03*
Y0401654D02*
D03*
Y0403622D02*
D03*
Y0405591D02*
D03*
X0287205D02*
D03*
Y0403622D02*
D03*
Y0401654D02*
D03*
Y0399685D02*
D03*
X0365158D02*
D03*
Y0401654D02*
D03*
Y0403622D02*
D03*
Y0405591D02*
D03*
X0371063D02*
D03*
Y0403622D02*
D03*
Y0401654D02*
D03*
Y0399685D02*
D03*
X0449016D02*
D03*
Y0401654D02*
D03*
Y0403622D02*
D03*
Y0405591D02*
D03*
X0454921D02*
D03*
Y0403622D02*
D03*
Y0401654D02*
D03*
Y0399685D02*
D03*
X0532874D02*
D03*
Y0401654D02*
D03*
Y0403622D02*
D03*
Y0405591D02*
D03*
X0538780D02*
D03*
Y0403622D02*
D03*
Y0401654D02*
D03*
Y0399685D02*
D03*
D45*
X0199410Y0405591D02*
D03*
X0201378Y0405591D02*
D03*
Y0399685D02*
D03*
X0199410D02*
D03*
X0160079Y0313347D02*
D03*
Y0311181D02*
D03*
Y0309016D02*
D03*
X0157717D02*
D03*
Y0311181D02*
D03*
Y0313347D02*
D03*
X0283268Y0405591D02*
D03*
X0285236Y0405591D02*
D03*
Y0399685D02*
D03*
X0283268D02*
D03*
X0243937Y0313347D02*
D03*
Y0311181D02*
D03*
Y0309016D02*
D03*
X0241575D02*
D03*
Y0311181D02*
D03*
Y0313347D02*
D03*
X0367126Y0405591D02*
D03*
X0369095Y0405591D02*
D03*
Y0399685D02*
D03*
X0367126D02*
D03*
X0327795Y0313347D02*
D03*
Y0311181D02*
D03*
Y0309016D02*
D03*
X0325433D02*
D03*
Y0311181D02*
D03*
Y0313347D02*
D03*
X0450984Y0405591D02*
D03*
X0452953Y0405591D02*
D03*
Y0399685D02*
D03*
X0450984D02*
D03*
X0411654Y0313347D02*
D03*
Y0311181D02*
D03*
Y0309016D02*
D03*
X0409292D02*
D03*
Y0311181D02*
D03*
Y0313347D02*
D03*
X0534843Y0405591D02*
D03*
X0536811Y0405591D02*
D03*
Y0399685D02*
D03*
X0534843D02*
D03*
X0495512Y0313347D02*
D03*
Y0311181D02*
D03*
Y0309016D02*
D03*
X0493150D02*
D03*
Y0311181D02*
D03*
Y0313347D02*
D03*
D46*
X0204408Y0254477D02*
D03*
X0288266D02*
D03*
X0372125D02*
D03*
X0455983D02*
D03*
X0539841D02*
D03*
D47*
X0207361Y0260186D02*
D03*
X0205392D02*
D03*
X0203424D02*
D03*
X0201455D02*
D03*
Y0248768D02*
D03*
X0203424D02*
D03*
X0205392D02*
D03*
X0207361D02*
D03*
X0291219Y0260186D02*
D03*
X0289251D02*
D03*
X0287282D02*
D03*
X0285314D02*
D03*
Y0248768D02*
D03*
X0287282D02*
D03*
X0289251D02*
D03*
X0291219D02*
D03*
X0375077Y0260186D02*
D03*
X0373109D02*
D03*
X0371140D02*
D03*
X0369172D02*
D03*
Y0248768D02*
D03*
X0371140D02*
D03*
X0373109D02*
D03*
X0375077D02*
D03*
X0458936Y0260186D02*
D03*
X0456967D02*
D03*
X0454999D02*
D03*
X0453030D02*
D03*
Y0248768D02*
D03*
X0454999D02*
D03*
X0456967D02*
D03*
X0458936D02*
D03*
X0542794Y0260186D02*
D03*
X0540826D02*
D03*
X0538857D02*
D03*
X0536889D02*
D03*
Y0248768D02*
D03*
X0538857D02*
D03*
X0540826D02*
D03*
X0542794D02*
D03*
D48*
X0193819Y0278622D02*
D03*
X0207992D02*
D03*
X0277677D02*
D03*
X0291850D02*
D03*
X0361536D02*
D03*
X0375709D02*
D03*
X0445394D02*
D03*
X0459567D02*
D03*
X0529252D02*
D03*
X0543425D02*
D03*
D50*
X0184526Y0251564D02*
D03*
Y0239359D02*
D03*
X0194132Y0251603D02*
D03*
Y0239398D02*
D03*
X0268384Y0251564D02*
D03*
Y0239359D02*
D03*
X0277991Y0251603D02*
D03*
Y0239398D02*
D03*
X0352243Y0251564D02*
D03*
Y0239359D02*
D03*
X0361849Y0251603D02*
D03*
Y0239398D02*
D03*
X0436101Y0251564D02*
D03*
Y0239359D02*
D03*
X0445707Y0251603D02*
D03*
Y0239398D02*
D03*
X0519959Y0251564D02*
D03*
Y0239359D02*
D03*
X0529566Y0251603D02*
D03*
Y0239398D02*
D03*
D52*
X0215945Y0230591D02*
D03*
Y0234528D02*
D03*
X0299803Y0230591D02*
D03*
Y0234528D02*
D03*
X0383662Y0230591D02*
D03*
Y0234528D02*
D03*
X0467520Y0230591D02*
D03*
Y0234528D02*
D03*
X0551378Y0230591D02*
D03*
Y0234528D02*
D03*
D54*
X0151299Y0338602D02*
D03*
X0153268D02*
D03*
X0155236D02*
D03*
X0151299Y0343917D02*
D03*
X0153268D02*
D03*
X0155236D02*
D03*
X0235158Y0338602D02*
D03*
X0237126D02*
D03*
X0239095D02*
D03*
X0235158Y0343917D02*
D03*
X0237126D02*
D03*
X0239095D02*
D03*
X0319016Y0338602D02*
D03*
X0320984D02*
D03*
X0322953D02*
D03*
X0319016Y0343917D02*
D03*
X0320984D02*
D03*
X0322953D02*
D03*
X0402874Y0338602D02*
D03*
X0404843D02*
D03*
X0406811D02*
D03*
X0402874Y0343917D02*
D03*
X0404843D02*
D03*
X0406811D02*
D03*
X0486732Y0338602D02*
D03*
X0488701D02*
D03*
X0490669D02*
D03*
X0486732Y0343917D02*
D03*
X0488701D02*
D03*
X0490669D02*
D03*
D55*
X0166378Y0207283D02*
D03*
X0170197Y0214921D02*
D03*
X0162559D02*
D03*
X0250236Y0207283D02*
D03*
X0254055Y0214921D02*
D03*
X0246417D02*
D03*
X0334095Y0207283D02*
D03*
X0337914Y0214921D02*
D03*
X0330276D02*
D03*
X0417953Y0207283D02*
D03*
X0421772Y0214921D02*
D03*
X0414134D02*
D03*
X0501811Y0207283D02*
D03*
X0505630Y0214921D02*
D03*
X0497992D02*
D03*
D56*
X0208209Y0312913D02*
D03*
X0292067D02*
D03*
X0375925D02*
D03*
X0459784D02*
D03*
X0543642D02*
D03*
D58*
X0160039Y0304882D02*
D03*
X0163740D02*
D03*
X0243898D02*
D03*
X0247599D02*
D03*
X0327756D02*
D03*
X0331457D02*
D03*
X0411614D02*
D03*
X0415315D02*
D03*
X0495473D02*
D03*
X0499173D02*
D03*
D59*
X0168110D02*
D03*
X0171890D02*
D03*
X0251969D02*
D03*
X0255748D02*
D03*
X0335827D02*
D03*
X0339606D02*
D03*
X0419685D02*
D03*
X0423465D02*
D03*
X0503544D02*
D03*
X0507323D02*
D03*
D60*
X0175945Y0303898D02*
D03*
Y0300354D02*
D03*
X0259803Y0303898D02*
D03*
Y0300354D02*
D03*
X0343662Y0303898D02*
D03*
Y0300354D02*
D03*
X0427520Y0303898D02*
D03*
Y0300354D02*
D03*
X0511378Y0303898D02*
D03*
Y0300354D02*
D03*
D61*
X0167008Y0270591D02*
D03*
Y0264291D02*
D03*
X0250866Y0270591D02*
D03*
Y0264291D02*
D03*
X0334725Y0270591D02*
D03*
Y0264291D02*
D03*
X0418583Y0270591D02*
D03*
Y0264291D02*
D03*
X0502441Y0270591D02*
D03*
Y0264291D02*
D03*
D62*
X0152992Y0246732D02*
D03*
X0145512D02*
D03*
X0152992Y0228773D02*
D03*
X0145512D02*
D03*
X0152992Y0237828D02*
D03*
X0145512D02*
D03*
X0236851Y0246732D02*
D03*
X0229370D02*
D03*
X0236851Y0228773D02*
D03*
X0229370D02*
D03*
X0236851Y0237828D02*
D03*
X0229370D02*
D03*
X0320709Y0246732D02*
D03*
X0313229D02*
D03*
X0320709Y0228773D02*
D03*
X0313229D02*
D03*
X0320709Y0237828D02*
D03*
X0313229D02*
D03*
X0404567Y0246732D02*
D03*
X0397087D02*
D03*
X0404567Y0228773D02*
D03*
X0397087D02*
D03*
X0404567Y0237828D02*
D03*
X0397087D02*
D03*
X0488425Y0246732D02*
D03*
X0480945D02*
D03*
X0488425Y0228773D02*
D03*
X0480945D02*
D03*
X0488425Y0237828D02*
D03*
X0480945D02*
D03*
D124*
X0141890Y0334449D02*
Y0341821D01*
X0141772Y0372756D02*
Y0380128D01*
X0164449Y0410630D02*
X0171821D01*
X0186890Y0410591D02*
X0194262D01*
X0219803Y0364754D02*
Y0372126D01*
X0154410Y0292638D02*
X0174095D01*
X0141811Y0402481D02*
Y0410630D01*
Y0292677D02*
Y0300118D01*
X0213504Y0410630D02*
X0219843D01*
X0141811D02*
X0150268D01*
X0219724Y0329095D02*
Y0336467D01*
X0219843Y0292677D02*
Y0300049D01*
Y0402520D02*
Y0410630D01*
X0214606Y0292677D02*
X0219843D01*
X0198898D02*
X0204134D01*
X0141811D02*
X0146614D01*
X0225748Y0334449D02*
Y0341821D01*
X0225630Y0372756D02*
Y0380128D01*
X0248307Y0410630D02*
X0255679D01*
X0270748Y0410591D02*
X0278120D01*
X0303662Y0364754D02*
Y0372126D01*
X0238268Y0292638D02*
X0257953D01*
X0225669Y0402481D02*
Y0410630D01*
Y0292677D02*
Y0300118D01*
X0297362Y0410630D02*
X0303701D01*
X0225669D02*
X0234126D01*
X0303583Y0329095D02*
Y0336467D01*
X0303701Y0292677D02*
Y0300049D01*
Y0402520D02*
Y0410630D01*
X0298465Y0292677D02*
X0303701D01*
X0282756D02*
X0287992D01*
X0225669D02*
X0230473D01*
X0309607Y0334449D02*
Y0341821D01*
X0309488Y0372756D02*
Y0380128D01*
X0332166Y0410630D02*
X0339538D01*
X0354607Y0410591D02*
X0361979D01*
X0387520Y0364754D02*
Y0372126D01*
X0322126Y0292638D02*
X0341811D01*
X0309528Y0402481D02*
Y0410630D01*
Y0292677D02*
Y0300118D01*
X0381221Y0410630D02*
X0387559D01*
X0309528D02*
X0317985D01*
X0387441Y0329095D02*
Y0336467D01*
X0387559Y0292677D02*
Y0300049D01*
Y0402520D02*
Y0410630D01*
X0382323Y0292677D02*
X0387559D01*
X0366614D02*
X0371851D01*
X0309528D02*
X0314331D01*
X0393465Y0334449D02*
Y0341821D01*
X0393347Y0372756D02*
Y0380128D01*
X0416024Y0410630D02*
X0423396D01*
X0438465Y0410591D02*
X0445837D01*
X0471378Y0364754D02*
Y0372126D01*
X0405984Y0292638D02*
X0425669D01*
X0393386Y0402481D02*
Y0410630D01*
Y0292677D02*
Y0300118D01*
X0465079Y0410630D02*
X0471418D01*
X0393386D02*
X0401843D01*
X0471299Y0329095D02*
Y0336467D01*
X0471418Y0292677D02*
Y0300049D01*
Y0402520D02*
Y0410630D01*
X0466181Y0292677D02*
X0471418D01*
X0450473D02*
X0455709D01*
X0393386D02*
X0398189D01*
X0477323Y0334449D02*
Y0341821D01*
X0477205Y0372756D02*
Y0380128D01*
X0499882Y0410630D02*
X0507254D01*
X0522323Y0410591D02*
X0529695D01*
X0555236Y0364754D02*
Y0372126D01*
X0489843Y0292638D02*
X0509528D01*
X0477244Y0402481D02*
Y0410630D01*
Y0292677D02*
Y0300118D01*
X0548937Y0410630D02*
X0555276D01*
X0477244D02*
X0485701D01*
X0555158Y0329095D02*
Y0336467D01*
X0555276Y0292677D02*
Y0300049D01*
Y0402520D02*
Y0410630D01*
X0550040Y0292677D02*
X0555276D01*
X0534331D02*
X0539567D01*
X0477244D02*
X0482048D01*
D125*
X0185566Y0387174D02*
D03*
X0187821Y0384919D02*
D03*
X0190048Y0382692D02*
D03*
X0192275Y0380466D02*
D03*
X0194503Y0378238D02*
D03*
X0196730Y0376011D02*
D03*
X0198957Y0373784D02*
D03*
X0201156Y0371585D02*
D03*
X0203383Y0369358D02*
D03*
X0205610Y0367130D02*
D03*
X0207837Y0364903D02*
D03*
X0210064Y0362621D02*
D03*
X0157143Y0358974D02*
D03*
X0159481Y0356635D02*
D03*
X0161736Y0354380D02*
D03*
X0163963Y0352154D02*
D03*
X0166190Y0349926D02*
D03*
X0168417Y0347699D02*
D03*
X0170645Y0345472D02*
D03*
X0172872Y0343245D02*
D03*
X0175071Y0341045D02*
D03*
X0177298Y0338819D02*
D03*
X0179553Y0336564D02*
D03*
X0181780Y0334337D02*
D03*
X0269425Y0387174D02*
D03*
X0271679Y0384919D02*
D03*
X0273907Y0382692D02*
D03*
X0276133Y0380466D02*
D03*
X0278361Y0378238D02*
D03*
X0280588Y0376011D02*
D03*
X0282815Y0373784D02*
D03*
X0285014Y0371585D02*
D03*
X0287241Y0369358D02*
D03*
X0289469Y0367130D02*
D03*
X0291696Y0364903D02*
D03*
X0293923Y0362621D02*
D03*
X0241001Y0358974D02*
D03*
X0243340Y0356635D02*
D03*
X0245595Y0354380D02*
D03*
X0247821Y0352154D02*
D03*
X0250049Y0349926D02*
D03*
X0252276Y0347699D02*
D03*
X0254503Y0345472D02*
D03*
X0256730Y0343245D02*
D03*
X0258929Y0341045D02*
D03*
X0261156Y0338819D02*
D03*
X0263411Y0336564D02*
D03*
X0265638Y0334337D02*
D03*
X0353283Y0387174D02*
D03*
X0355538Y0384919D02*
D03*
X0357765Y0382692D02*
D03*
X0359992Y0380466D02*
D03*
X0362219Y0378238D02*
D03*
X0364446Y0376011D02*
D03*
X0366673Y0373784D02*
D03*
X0368873Y0371585D02*
D03*
X0371099Y0369358D02*
D03*
X0373327Y0367130D02*
D03*
X0375554Y0364903D02*
D03*
X0377781Y0362621D02*
D03*
X0324859Y0358974D02*
D03*
X0327198Y0356635D02*
D03*
X0329453Y0354380D02*
D03*
X0331680Y0352154D02*
D03*
X0333907Y0349926D02*
D03*
X0336134Y0347699D02*
D03*
X0338361Y0345472D02*
D03*
X0340588Y0343245D02*
D03*
X0342788Y0341045D02*
D03*
X0345015Y0338819D02*
D03*
X0347270Y0336564D02*
D03*
X0349497Y0334337D02*
D03*
X0437141Y0387174D02*
D03*
X0439396Y0384919D02*
D03*
X0441623Y0382692D02*
D03*
X0443850Y0380466D02*
D03*
X0446077Y0378238D02*
D03*
X0448305Y0376011D02*
D03*
X0450531Y0373784D02*
D03*
X0452731Y0371585D02*
D03*
X0454958Y0369358D02*
D03*
X0457185Y0367130D02*
D03*
X0459412Y0364903D02*
D03*
X0461639Y0362621D02*
D03*
X0408717Y0358974D02*
D03*
X0411056Y0356635D02*
D03*
X0413311Y0354380D02*
D03*
X0415538Y0352154D02*
D03*
X0417765Y0349926D02*
D03*
X0419992Y0347699D02*
D03*
X0422220Y0345472D02*
D03*
X0424446Y0343245D02*
D03*
X0426646Y0341045D02*
D03*
X0428873Y0338819D02*
D03*
X0431128Y0336564D02*
D03*
X0433355Y0334337D02*
D03*
X0520999Y0387174D02*
D03*
X0523254Y0384919D02*
D03*
X0525482Y0382692D02*
D03*
X0527708Y0380466D02*
D03*
X0529936Y0378238D02*
D03*
X0532163Y0376011D02*
D03*
X0534390Y0373784D02*
D03*
X0536589Y0371585D02*
D03*
X0538816Y0369358D02*
D03*
X0541044Y0367130D02*
D03*
X0543271Y0364903D02*
D03*
X0545498Y0362621D02*
D03*
X0492576Y0358974D02*
D03*
X0494914Y0356635D02*
D03*
X0497169Y0354380D02*
D03*
X0499396Y0352154D02*
D03*
X0501623Y0349926D02*
D03*
X0503851Y0347699D02*
D03*
X0506078Y0345472D02*
D03*
X0508305Y0343245D02*
D03*
X0510504Y0341045D02*
D03*
X0512731Y0338819D02*
D03*
X0514986Y0336564D02*
D03*
X0517213Y0334337D02*
D03*
D126*
X0156001Y0363874D02*
D03*
X0158228Y0366101D02*
D03*
X0160456Y0368328D02*
D03*
X0162683Y0370555D02*
D03*
X0164910Y0372782D02*
D03*
X0167137Y0375009D02*
D03*
X0169364Y0377236D02*
D03*
X0171591Y0379463D02*
D03*
X0173818Y0381690D02*
D03*
X0176045Y0383917D02*
D03*
X0178272Y0386145D02*
D03*
X0180499Y0388372D02*
D03*
X0211317Y0357610D02*
D03*
X0239860Y0363874D02*
D03*
X0242087Y0366101D02*
D03*
X0244314Y0368328D02*
D03*
X0246541Y0370555D02*
D03*
X0248768Y0372782D02*
D03*
X0250995Y0375009D02*
D03*
X0253222Y0377236D02*
D03*
X0255449Y0379463D02*
D03*
X0257677Y0381690D02*
D03*
X0259904Y0383917D02*
D03*
X0262131Y0386145D02*
D03*
X0264358Y0388372D02*
D03*
X0295175Y0357610D02*
D03*
X0323718Y0363874D02*
D03*
X0325945Y0366101D02*
D03*
X0328172Y0368328D02*
D03*
X0330399Y0370555D02*
D03*
X0332626Y0372782D02*
D03*
X0334854Y0375009D02*
D03*
X0337081Y0377236D02*
D03*
X0339308Y0379463D02*
D03*
X0341535Y0381690D02*
D03*
X0343762Y0383917D02*
D03*
X0345989Y0386145D02*
D03*
X0348216Y0388372D02*
D03*
X0379034Y0357610D02*
D03*
X0407576Y0363874D02*
D03*
X0409803Y0366101D02*
D03*
X0412030Y0368328D02*
D03*
X0414258Y0370555D02*
D03*
X0416485Y0372782D02*
D03*
X0418712Y0375009D02*
D03*
X0420939Y0377236D02*
D03*
X0423166Y0379463D02*
D03*
X0425393Y0381690D02*
D03*
X0427620Y0383917D02*
D03*
X0429847Y0386145D02*
D03*
X0432074Y0388372D02*
D03*
X0462892Y0357610D02*
D03*
X0491434Y0363874D02*
D03*
X0493662Y0366101D02*
D03*
X0495889Y0368328D02*
D03*
X0498116Y0370555D02*
D03*
X0500343Y0372782D02*
D03*
X0502570Y0375009D02*
D03*
X0504797Y0377236D02*
D03*
X0507024Y0379463D02*
D03*
X0509251Y0381690D02*
D03*
X0511479Y0383917D02*
D03*
X0513706Y0386145D02*
D03*
X0515933Y0388372D02*
D03*
X0546750Y0357610D02*
D03*
D127*
X0186819Y0333083D02*
D03*
X0189046Y0335311D02*
D03*
X0191273Y0337538D02*
D03*
X0193500Y0339765D02*
D03*
X0195728Y0341992D02*
D03*
X0197954Y0344220D02*
D03*
X0200182Y0346446D02*
D03*
X0202409Y0348673D02*
D03*
X0206863Y0353128D02*
D03*
X0209118Y0355383D02*
D03*
X0270677Y0333083D02*
D03*
X0272904Y0335311D02*
D03*
X0275131Y0337538D02*
D03*
X0277359Y0339765D02*
D03*
X0279586Y0341992D02*
D03*
X0281813Y0344220D02*
D03*
X0284040Y0346446D02*
D03*
X0286267Y0348673D02*
D03*
X0290721Y0353128D02*
D03*
X0292976Y0355383D02*
D03*
X0354536Y0333083D02*
D03*
X0356763Y0335311D02*
D03*
X0358990Y0337538D02*
D03*
X0361217Y0339765D02*
D03*
X0363444Y0341992D02*
D03*
X0365671Y0344220D02*
D03*
X0367898Y0346446D02*
D03*
X0370125Y0348673D02*
D03*
X0374579Y0353128D02*
D03*
X0376834Y0355383D02*
D03*
X0438394Y0333083D02*
D03*
X0440621Y0335311D02*
D03*
X0442848Y0337538D02*
D03*
X0445075Y0339765D02*
D03*
X0447302Y0341992D02*
D03*
X0449529Y0344220D02*
D03*
X0451756Y0346446D02*
D03*
X0453984Y0348673D02*
D03*
X0458438Y0353128D02*
D03*
X0460693Y0355383D02*
D03*
X0522252Y0333083D02*
D03*
X0524479Y0335311D02*
D03*
X0526706Y0337538D02*
D03*
X0528934Y0339765D02*
D03*
X0531161Y0341992D02*
D03*
X0533388Y0344220D02*
D03*
X0535615Y0346446D02*
D03*
X0537842Y0348673D02*
D03*
X0542296Y0353128D02*
D03*
X0544551Y0355383D02*
D03*
D128*
X0204638Y0350899D02*
D03*
X0288496D02*
D03*
X0372354D02*
D03*
X0456212D02*
D03*
X0540071D02*
D03*
D129*
X0197573Y0360747D02*
D03*
X0281431D02*
D03*
X0365290D02*
D03*
X0449148D02*
D03*
X0533006D02*
D03*
D130*
X0190613Y0367707D02*
D03*
X0183654Y0374667D02*
D03*
X0190613Y0353787D02*
D03*
X0183654Y0360747D02*
D03*
X0176694Y0367707D02*
D03*
X0183723Y0346758D02*
D03*
X0176694Y0353787D02*
D03*
X0169734Y0360747D02*
D03*
X0274472Y0367707D02*
D03*
X0267512Y0374667D02*
D03*
X0274472Y0353787D02*
D03*
X0267512Y0360747D02*
D03*
X0260552Y0367707D02*
D03*
X0267582Y0346758D02*
D03*
X0260552Y0353787D02*
D03*
X0253592Y0360747D02*
D03*
X0358330Y0367707D02*
D03*
X0351370Y0374667D02*
D03*
X0358330Y0353787D02*
D03*
X0351370Y0360747D02*
D03*
X0344411Y0367707D02*
D03*
X0351440Y0346758D02*
D03*
X0344411Y0353787D02*
D03*
X0337451Y0360747D02*
D03*
X0442188Y0367707D02*
D03*
X0435229Y0374667D02*
D03*
X0442188Y0353787D02*
D03*
X0435229Y0360747D02*
D03*
X0428269Y0367707D02*
D03*
X0435298Y0346758D02*
D03*
X0428269Y0353787D02*
D03*
X0421309Y0360747D02*
D03*
X0526047Y0367707D02*
D03*
X0519087Y0374667D02*
D03*
X0526047Y0353787D02*
D03*
X0519087Y0360747D02*
D03*
X0512127Y0367707D02*
D03*
X0519157Y0346758D02*
D03*
X0512127Y0353787D02*
D03*
X0505167Y0360747D02*
D03*
D131*
X0154095Y0395433D02*
D03*
Y0399606D02*
D03*
X0150158Y0395433D02*
D03*
Y0399606D02*
D03*
X0237953Y0395433D02*
D03*
Y0399606D02*
D03*
X0234016Y0395433D02*
D03*
Y0399606D02*
D03*
X0321811Y0395433D02*
D03*
Y0399606D02*
D03*
X0317874Y0395433D02*
D03*
Y0399606D02*
D03*
X0405669Y0395433D02*
D03*
Y0399606D02*
D03*
X0401732Y0395433D02*
D03*
Y0399606D02*
D03*
X0489528Y0395433D02*
D03*
Y0399606D02*
D03*
X0485591Y0395433D02*
D03*
Y0399606D02*
D03*
D132*
X0162016Y0392492D02*
D03*
X0163984Y0392630D02*
D03*
X0165953Y0392492D02*
D03*
Y0400345D02*
D03*
X0163984Y0400207D02*
D03*
X0162016Y0400345D02*
D03*
X0245874Y0392492D02*
D03*
X0247843Y0392630D02*
D03*
X0249811Y0392492D02*
D03*
Y0400345D02*
D03*
X0247843Y0400207D02*
D03*
X0245874Y0400345D02*
D03*
X0329732Y0392492D02*
D03*
X0331701Y0392630D02*
D03*
X0333669Y0392492D02*
D03*
Y0400345D02*
D03*
X0331701Y0400207D02*
D03*
X0329732Y0400345D02*
D03*
X0413591Y0392492D02*
D03*
X0415559Y0392630D02*
D03*
X0417528Y0392492D02*
D03*
Y0400345D02*
D03*
X0415559Y0400207D02*
D03*
X0413591Y0400345D02*
D03*
X0497449Y0392492D02*
D03*
X0499418Y0392630D02*
D03*
X0501386Y0392492D02*
D03*
Y0400345D02*
D03*
X0499418Y0400207D02*
D03*
X0497449Y0400345D02*
D03*
D133*
X0167910Y0394449D02*
D03*
X0167772Y0396417D02*
D03*
X0167910Y0398386D02*
D03*
X0160059D02*
D03*
X0160197Y0396417D02*
D03*
X0160059Y0394449D02*
D03*
X0251768D02*
D03*
X0251630Y0396417D02*
D03*
X0251768Y0398386D02*
D03*
X0243917D02*
D03*
X0244055Y0396417D02*
D03*
X0243917Y0394449D02*
D03*
X0335626D02*
D03*
X0335488Y0396417D02*
D03*
X0335626Y0398386D02*
D03*
X0327776D02*
D03*
X0327914Y0396417D02*
D03*
X0327776Y0394449D02*
D03*
X0419485D02*
D03*
X0419347Y0396417D02*
D03*
X0419485Y0398386D02*
D03*
X0411634D02*
D03*
X0411772Y0396417D02*
D03*
X0411634Y0394449D02*
D03*
X0503343D02*
D03*
X0503205Y0396417D02*
D03*
X0503343Y0398386D02*
D03*
X0495492D02*
D03*
X0495630Y0396417D02*
D03*
X0495492Y0394449D02*
D03*
D134*
X0153858Y0372953D02*
D03*
X0153858Y0375118D02*
D03*
Y0377284D02*
D03*
X0149921Y0372953D02*
D03*
Y0375118D02*
D03*
X0149921Y0377284D02*
D03*
X0237717Y0372953D02*
D03*
X0237717Y0375118D02*
D03*
Y0377284D02*
D03*
X0233780Y0372953D02*
D03*
Y0375118D02*
D03*
X0233780Y0377284D02*
D03*
X0321575Y0372953D02*
D03*
X0321575Y0375118D02*
D03*
Y0377284D02*
D03*
X0317638Y0372953D02*
D03*
Y0375118D02*
D03*
X0317638Y0377284D02*
D03*
X0405433Y0372953D02*
D03*
X0405433Y0375118D02*
D03*
Y0377284D02*
D03*
X0401496Y0372953D02*
D03*
Y0375118D02*
D03*
X0401496Y0377284D02*
D03*
X0489292Y0372953D02*
D03*
X0489292Y0375118D02*
D03*
Y0377284D02*
D03*
X0485355Y0372953D02*
D03*
Y0375118D02*
D03*
X0485355Y0377284D02*
D03*
D135*
X0160236Y0440512D02*
D03*
X0158268D02*
D03*
X0156299D02*
D03*
Y0435000D02*
D03*
X0158268D02*
D03*
X0160236D02*
D03*
X0244095Y0440512D02*
D03*
X0242126D02*
D03*
X0240158D02*
D03*
Y0435000D02*
D03*
X0242126D02*
D03*
X0244095D02*
D03*
X0327953Y0440512D02*
D03*
X0325984D02*
D03*
X0324016D02*
D03*
Y0435000D02*
D03*
X0325984D02*
D03*
X0327953D02*
D03*
X0411811Y0440512D02*
D03*
X0409843D02*
D03*
X0407874D02*
D03*
Y0435000D02*
D03*
X0409843D02*
D03*
X0411811D02*
D03*
X0495670Y0440512D02*
D03*
X0493701D02*
D03*
X0491733D02*
D03*
Y0435000D02*
D03*
X0493701D02*
D03*
X0495670D02*
D03*
D136*
X0213859Y0230591D02*
D03*
X0218032D02*
D03*
X0213859Y0234528D02*
D03*
X0218032D02*
D03*
X0297717Y0230591D02*
D03*
X0301890D02*
D03*
X0297717Y0234528D02*
D03*
X0301890D02*
D03*
X0381575Y0230591D02*
D03*
X0385748D02*
D03*
X0381575Y0234528D02*
D03*
X0385748D02*
D03*
X0465433Y0230591D02*
D03*
X0469607D02*
D03*
X0465433Y0234528D02*
D03*
X0469607D02*
D03*
X0549292Y0230591D02*
D03*
X0553465D02*
D03*
X0549292Y0234528D02*
D03*
X0553465D02*
D03*
D137*
X0167349Y0336378D02*
D03*
X0161837D02*
D03*
X0251208D02*
D03*
X0245696D02*
D03*
X0335066D02*
D03*
X0329554D02*
D03*
X0418924D02*
D03*
X0413412D02*
D03*
X0502782D02*
D03*
X0497271D02*
D03*
D138*
X0205256Y0308780D02*
D03*
X0207224D02*
D03*
X0209193D02*
D03*
X0211161D02*
D03*
Y0317047D02*
D03*
X0209193D02*
D03*
X0207224D02*
D03*
X0205256D02*
D03*
X0289114Y0308780D02*
D03*
X0291083D02*
D03*
X0293051D02*
D03*
X0295020D02*
D03*
Y0317047D02*
D03*
X0293051D02*
D03*
X0291083D02*
D03*
X0289114D02*
D03*
X0372973Y0308780D02*
D03*
X0374941D02*
D03*
X0376910D02*
D03*
X0378878D02*
D03*
Y0317047D02*
D03*
X0376910D02*
D03*
X0374941D02*
D03*
X0372973D02*
D03*
X0456831Y0308780D02*
D03*
X0458799D02*
D03*
X0460768D02*
D03*
X0462736D02*
D03*
Y0317047D02*
D03*
X0460768D02*
D03*
X0458799D02*
D03*
X0456831D02*
D03*
X0540689Y0308780D02*
D03*
X0542658D02*
D03*
X0544626D02*
D03*
X0546595D02*
D03*
Y0317047D02*
D03*
X0544626D02*
D03*
X0542658D02*
D03*
X0540689D02*
D03*
M02*
