G04*
G04 #@! TF.GenerationSoftware,Altium Limited,Altium Designer,19.1.8 (144)*
G04*
G04 Layer_Color=65535*
%FSAX25Y25*%
%MOIN*%
G70*
G01*
G75*
%ADD10C,0.03937*%
%ADD14C,0.00787*%
%ADD16C,0.01181*%
%ADD65C,0.01968*%
%ADD70C,0.00400*%
%ADD71C,0.00402*%
%ADD72C,0.00591*%
D10*
X0145197Y0120669D02*
X0176654D01*
X0170354Y0114370D02*
X0176654Y0120669D01*
X0170354Y0126969D02*
X0176654Y0120669D01*
X0113819Y0170472D02*
X0120118Y0176772D01*
X0126417Y0170472D01*
X0120118Y0145315D02*
Y0176772D01*
D14*
X0144980Y0336378D02*
X0216634D01*
Y0264724D02*
Y0336378D01*
X0144980Y0267087D02*
Y0336378D01*
Y0267087D02*
X0147343Y0264724D01*
X0216634D01*
X0174449Y0418386D02*
Y0461693D01*
Y0418386D02*
X0221693D01*
X0174449Y0461693D02*
X0221693D01*
Y0418386D02*
Y0461693D01*
X0153736Y0405336D02*
Y0400613D01*
X0156884D01*
X0158459Y0405336D02*
X0160033D01*
X0159246D01*
Y0400613D01*
X0158459D01*
X0160033D01*
X0164756Y0405336D02*
X0163181D01*
X0162394Y0404549D01*
Y0401400D01*
X0163181Y0400613D01*
X0164756D01*
X0165543Y0401400D01*
Y0404549D01*
X0164756Y0405336D01*
X0167117Y0400613D02*
Y0405336D01*
X0170266Y0400613D01*
Y0405336D01*
X0176563D02*
X0179711D01*
X0178137D01*
Y0400613D01*
X0181286D02*
Y0405336D01*
X0183647D01*
X0184434Y0404549D01*
Y0402974D01*
X0183647Y0402187D01*
X0181286D01*
X0182860D02*
X0184434Y0400613D01*
X0186009D02*
Y0403762D01*
X0187583Y0405336D01*
X0189157Y0403762D01*
Y0400613D01*
Y0402974D01*
X0186009D01*
X0193880Y0404549D02*
X0193093Y0405336D01*
X0191519D01*
X0190732Y0404549D01*
Y0401400D01*
X0191519Y0400613D01*
X0193093D01*
X0193880Y0401400D01*
X0195455Y0405336D02*
Y0400613D01*
Y0402187D01*
X0198603Y0405336D01*
X0196242Y0402974D01*
X0198603Y0400613D01*
X0203326Y0405336D02*
X0200177D01*
Y0400613D01*
X0203326D01*
X0200177Y0402974D02*
X0201752D01*
X0204900Y0400613D02*
Y0405336D01*
X0207262D01*
X0208049Y0404549D01*
Y0402974D01*
X0207262Y0402187D01*
X0204900D01*
X0206474D02*
X0208049Y0400613D01*
X0173808Y0397779D02*
Y0394630D01*
X0175382Y0393056D01*
X0176956Y0394630D01*
Y0397779D01*
X0178531Y0393056D02*
X0180105D01*
X0179318D01*
Y0397779D01*
X0178531Y0396991D01*
X0182466Y0393056D02*
Y0393843D01*
X0183254D01*
Y0393056D01*
X0182466D01*
X0186402D02*
X0187977D01*
X0187189D01*
Y0397779D01*
X0186402Y0396991D01*
X0163575Y0385499D02*
X0165149D01*
X0164362D01*
Y0388647D01*
X0163575D01*
X0167511D02*
Y0385499D01*
Y0387073D01*
X0168298Y0387860D01*
X0169085Y0388647D01*
X0169872D01*
X0172234Y0385499D02*
Y0388647D01*
X0174595D01*
X0175382Y0387860D01*
Y0385499D01*
X0177744Y0388647D02*
X0179318D01*
X0180105Y0387860D01*
Y0385499D01*
X0177744D01*
X0176956Y0386286D01*
X0177744Y0387073D01*
X0180105D01*
X0181679Y0385499D02*
X0184041D01*
X0184828Y0386286D01*
X0184041Y0387073D01*
X0182466D01*
X0181679Y0387860D01*
X0182466Y0388647D01*
X0184828D01*
X0186402Y0385499D02*
Y0386286D01*
X0187189D01*
Y0385499D01*
X0186402D01*
X0192700D02*
X0191125D01*
X0190338Y0386286D01*
Y0387860D01*
X0191125Y0388647D01*
X0192700D01*
X0193487Y0387860D01*
Y0387073D01*
X0190338D01*
X0195061Y0388647D02*
Y0386286D01*
X0195848Y0385499D01*
X0198210D01*
Y0388647D01*
X0228839Y0336378D02*
X0300492D01*
Y0264724D02*
Y0336378D01*
X0228839Y0267087D02*
Y0336378D01*
Y0267087D02*
X0231201Y0264724D01*
X0300492D01*
X0258307Y0418386D02*
Y0461693D01*
Y0418386D02*
X0305551D01*
X0258307Y0461693D02*
X0305551D01*
Y0418386D02*
Y0461693D01*
X0237594Y0405336D02*
Y0400613D01*
X0240743D01*
X0242317Y0405336D02*
X0243891D01*
X0243104D01*
Y0400613D01*
X0242317D01*
X0243891D01*
X0248614Y0405336D02*
X0247040D01*
X0246253Y0404549D01*
Y0401400D01*
X0247040Y0400613D01*
X0248614D01*
X0249401Y0401400D01*
Y0404549D01*
X0248614Y0405336D01*
X0250975Y0400613D02*
Y0405336D01*
X0254124Y0400613D01*
Y0405336D01*
X0260421D02*
X0263570D01*
X0261996D01*
Y0400613D01*
X0265144D02*
Y0405336D01*
X0267506D01*
X0268293Y0404549D01*
Y0402974D01*
X0267506Y0402187D01*
X0265144D01*
X0266718D02*
X0268293Y0400613D01*
X0269867D02*
Y0403762D01*
X0271441Y0405336D01*
X0273016Y0403762D01*
Y0400613D01*
Y0402974D01*
X0269867D01*
X0277738Y0404549D02*
X0276951Y0405336D01*
X0275377D01*
X0274590Y0404549D01*
Y0401400D01*
X0275377Y0400613D01*
X0276951D01*
X0277738Y0401400D01*
X0279313Y0405336D02*
Y0400613D01*
Y0402187D01*
X0282461Y0405336D01*
X0280100Y0402974D01*
X0282461Y0400613D01*
X0287184Y0405336D02*
X0284036D01*
Y0400613D01*
X0287184D01*
X0284036Y0402974D02*
X0285610D01*
X0288758Y0400613D02*
Y0405336D01*
X0291120D01*
X0291907Y0404549D01*
Y0402974D01*
X0291120Y0402187D01*
X0288758D01*
X0290333D02*
X0291907Y0400613D01*
X0257666Y0397779D02*
Y0394630D01*
X0259241Y0393056D01*
X0260815Y0394630D01*
Y0397779D01*
X0262389Y0393056D02*
X0263963D01*
X0263176D01*
Y0397779D01*
X0262389Y0396991D01*
X0266325Y0393056D02*
Y0393843D01*
X0267112D01*
Y0393056D01*
X0266325D01*
X0270261D02*
X0271835D01*
X0271048D01*
Y0397779D01*
X0270261Y0396991D01*
X0247433Y0385499D02*
X0249008D01*
X0248220D01*
Y0388647D01*
X0247433D01*
X0251369D02*
Y0385499D01*
Y0387073D01*
X0252156Y0387860D01*
X0252943Y0388647D01*
X0253731D01*
X0256092Y0385499D02*
Y0388647D01*
X0258453D01*
X0259241Y0387860D01*
Y0385499D01*
X0261602Y0388647D02*
X0263176D01*
X0263963Y0387860D01*
Y0385499D01*
X0261602D01*
X0260815Y0386286D01*
X0261602Y0387073D01*
X0263963D01*
X0265538Y0385499D02*
X0267899D01*
X0268686Y0386286D01*
X0267899Y0387073D01*
X0266325D01*
X0265538Y0387860D01*
X0266325Y0388647D01*
X0268686D01*
X0270261Y0385499D02*
Y0386286D01*
X0271048D01*
Y0385499D01*
X0270261D01*
X0276558D02*
X0274984D01*
X0274196Y0386286D01*
Y0387860D01*
X0274984Y0388647D01*
X0276558D01*
X0277345Y0387860D01*
Y0387073D01*
X0274196D01*
X0278919Y0388647D02*
Y0386286D01*
X0279706Y0385499D01*
X0282068D01*
Y0388647D01*
X0312697Y0336378D02*
X0384351D01*
Y0264724D02*
Y0336378D01*
X0312697Y0267087D02*
Y0336378D01*
Y0267087D02*
X0315059Y0264724D01*
X0384351D01*
X0342165Y0418386D02*
Y0461693D01*
Y0418386D02*
X0389409D01*
X0342165Y0461693D02*
X0389409D01*
Y0418386D02*
Y0461693D01*
X0321452Y0405336D02*
Y0400613D01*
X0324601D01*
X0326175Y0405336D02*
X0327749D01*
X0326962D01*
Y0400613D01*
X0326175D01*
X0327749D01*
X0332472Y0405336D02*
X0330898D01*
X0330111Y0404549D01*
Y0401400D01*
X0330898Y0400613D01*
X0332472D01*
X0333260Y0401400D01*
Y0404549D01*
X0332472Y0405336D01*
X0334834Y0400613D02*
Y0405336D01*
X0337982Y0400613D01*
Y0405336D01*
X0344280D02*
X0347428D01*
X0345854D01*
Y0400613D01*
X0349002D02*
Y0405336D01*
X0351364D01*
X0352151Y0404549D01*
Y0402974D01*
X0351364Y0402187D01*
X0349002D01*
X0350577D02*
X0352151Y0400613D01*
X0353725D02*
Y0403762D01*
X0355300Y0405336D01*
X0356874Y0403762D01*
Y0400613D01*
Y0402974D01*
X0353725D01*
X0361597Y0404549D02*
X0360810Y0405336D01*
X0359235D01*
X0358448Y0404549D01*
Y0401400D01*
X0359235Y0400613D01*
X0360810D01*
X0361597Y0401400D01*
X0363171Y0405336D02*
Y0400613D01*
Y0402187D01*
X0366320Y0405336D01*
X0363958Y0402974D01*
X0366320Y0400613D01*
X0371042Y0405336D02*
X0367894D01*
Y0400613D01*
X0371042D01*
X0367894Y0402974D02*
X0369468D01*
X0372617Y0400613D02*
Y0405336D01*
X0374978D01*
X0375765Y0404549D01*
Y0402974D01*
X0374978Y0402187D01*
X0372617D01*
X0374191D02*
X0375765Y0400613D01*
X0341525Y0397779D02*
Y0394630D01*
X0343099Y0393056D01*
X0344673Y0394630D01*
Y0397779D01*
X0346247Y0393056D02*
X0347822D01*
X0347035D01*
Y0397779D01*
X0346247Y0396991D01*
X0350183Y0393056D02*
Y0393843D01*
X0350970D01*
Y0393056D01*
X0350183D01*
X0354119D02*
X0355693D01*
X0354906D01*
Y0397779D01*
X0354119Y0396991D01*
X0331292Y0385499D02*
X0332866D01*
X0332079D01*
Y0388647D01*
X0331292D01*
X0335227D02*
Y0385499D01*
Y0387073D01*
X0336015Y0387860D01*
X0336802Y0388647D01*
X0337589D01*
X0339950Y0385499D02*
Y0388647D01*
X0342312D01*
X0343099Y0387860D01*
Y0385499D01*
X0345460Y0388647D02*
X0347035D01*
X0347822Y0387860D01*
Y0385499D01*
X0345460D01*
X0344673Y0386286D01*
X0345460Y0387073D01*
X0347822D01*
X0349396Y0385499D02*
X0351757D01*
X0352545Y0386286D01*
X0351757Y0387073D01*
X0350183D01*
X0349396Y0387860D01*
X0350183Y0388647D01*
X0352545D01*
X0354119Y0385499D02*
Y0386286D01*
X0354906D01*
Y0385499D01*
X0354119D01*
X0360416D02*
X0358842D01*
X0358055Y0386286D01*
Y0387860D01*
X0358842Y0388647D01*
X0360416D01*
X0361203Y0387860D01*
Y0387073D01*
X0358055D01*
X0362777Y0388647D02*
Y0386286D01*
X0363565Y0385499D01*
X0365926D01*
Y0388647D01*
X0396555Y0336378D02*
X0468209D01*
Y0264724D02*
Y0336378D01*
X0396555Y0267087D02*
Y0336378D01*
Y0267087D02*
X0398918Y0264724D01*
X0468209D01*
X0426024Y0418386D02*
Y0461693D01*
Y0418386D02*
X0473268D01*
X0426024Y0461693D02*
X0473268D01*
Y0418386D02*
Y0461693D01*
X0405311Y0405336D02*
Y0400613D01*
X0408459D01*
X0410034Y0405336D02*
X0411608D01*
X0410821D01*
Y0400613D01*
X0410034D01*
X0411608D01*
X0416331Y0405336D02*
X0414756D01*
X0413969Y0404549D01*
Y0401400D01*
X0414756Y0400613D01*
X0416331D01*
X0417118Y0401400D01*
Y0404549D01*
X0416331Y0405336D01*
X0418692Y0400613D02*
Y0405336D01*
X0421841Y0400613D01*
Y0405336D01*
X0428138D02*
X0431286D01*
X0429712D01*
Y0400613D01*
X0432861D02*
Y0405336D01*
X0435222D01*
X0436009Y0404549D01*
Y0402974D01*
X0435222Y0402187D01*
X0432861D01*
X0434435D02*
X0436009Y0400613D01*
X0437584D02*
Y0403762D01*
X0439158Y0405336D01*
X0440732Y0403762D01*
Y0400613D01*
Y0402974D01*
X0437584D01*
X0445455Y0404549D02*
X0444668Y0405336D01*
X0443094D01*
X0442307Y0404549D01*
Y0401400D01*
X0443094Y0400613D01*
X0444668D01*
X0445455Y0401400D01*
X0447029Y0405336D02*
Y0400613D01*
Y0402187D01*
X0450178Y0405336D01*
X0447817Y0402974D01*
X0450178Y0400613D01*
X0454901Y0405336D02*
X0451752D01*
Y0400613D01*
X0454901D01*
X0451752Y0402974D02*
X0453327D01*
X0456475Y0400613D02*
Y0405336D01*
X0458837D01*
X0459624Y0404549D01*
Y0402974D01*
X0458837Y0402187D01*
X0456475D01*
X0458049D02*
X0459624Y0400613D01*
X0425383Y0397779D02*
Y0394630D01*
X0426957Y0393056D01*
X0428531Y0394630D01*
Y0397779D01*
X0430106Y0393056D02*
X0431680D01*
X0430893D01*
Y0397779D01*
X0430106Y0396991D01*
X0434041Y0393056D02*
Y0393843D01*
X0434829D01*
Y0393056D01*
X0434041D01*
X0437977D02*
X0439551D01*
X0438764D01*
Y0397779D01*
X0437977Y0396991D01*
X0415150Y0385499D02*
X0416724D01*
X0415937D01*
Y0388647D01*
X0415150D01*
X0419086D02*
Y0385499D01*
Y0387073D01*
X0419873Y0387860D01*
X0420660Y0388647D01*
X0421447D01*
X0423808Y0385499D02*
Y0388647D01*
X0426170D01*
X0426957Y0387860D01*
Y0385499D01*
X0429319Y0388647D02*
X0430893D01*
X0431680Y0387860D01*
Y0385499D01*
X0429319D01*
X0428531Y0386286D01*
X0429319Y0387073D01*
X0431680D01*
X0433254Y0385499D02*
X0435616D01*
X0436403Y0386286D01*
X0435616Y0387073D01*
X0434041D01*
X0433254Y0387860D01*
X0434041Y0388647D01*
X0436403D01*
X0437977Y0385499D02*
Y0386286D01*
X0438764D01*
Y0385499D01*
X0437977D01*
X0444274D02*
X0442700D01*
X0441913Y0386286D01*
Y0387860D01*
X0442700Y0388647D01*
X0444274D01*
X0445061Y0387860D01*
Y0387073D01*
X0441913D01*
X0446636Y0388647D02*
Y0386286D01*
X0447423Y0385499D01*
X0449784D01*
Y0388647D01*
X0480414Y0336378D02*
X0552067D01*
Y0264724D02*
Y0336378D01*
X0480414Y0267087D02*
Y0336378D01*
Y0267087D02*
X0482776Y0264724D01*
X0552067D01*
X0509882Y0418386D02*
Y0461693D01*
Y0418386D02*
X0557126D01*
X0509882Y0461693D02*
X0557126D01*
Y0418386D02*
Y0461693D01*
X0489169Y0405336D02*
Y0400613D01*
X0492317D01*
X0493892Y0405336D02*
X0495466D01*
X0494679D01*
Y0400613D01*
X0493892D01*
X0495466D01*
X0500189Y0405336D02*
X0498615D01*
X0497827Y0404549D01*
Y0401400D01*
X0498615Y0400613D01*
X0500189D01*
X0500976Y0401400D01*
Y0404549D01*
X0500189Y0405336D01*
X0502550Y0400613D02*
Y0405336D01*
X0505699Y0400613D01*
Y0405336D01*
X0511996D02*
X0515145D01*
X0513570D01*
Y0400613D01*
X0516719D02*
Y0405336D01*
X0519080D01*
X0519868Y0404549D01*
Y0402974D01*
X0519080Y0402187D01*
X0516719D01*
X0518293D02*
X0519868Y0400613D01*
X0521442D02*
Y0403762D01*
X0523016Y0405336D01*
X0524590Y0403762D01*
Y0400613D01*
Y0402974D01*
X0521442D01*
X0529313Y0404549D02*
X0528526Y0405336D01*
X0526952D01*
X0526165Y0404549D01*
Y0401400D01*
X0526952Y0400613D01*
X0528526D01*
X0529313Y0401400D01*
X0530888Y0405336D02*
Y0400613D01*
Y0402187D01*
X0534036Y0405336D01*
X0531675Y0402974D01*
X0534036Y0400613D01*
X0538759Y0405336D02*
X0535610D01*
Y0400613D01*
X0538759D01*
X0535610Y0402974D02*
X0537185D01*
X0540333Y0400613D02*
Y0405336D01*
X0542695D01*
X0543482Y0404549D01*
Y0402974D01*
X0542695Y0402187D01*
X0540333D01*
X0541908D02*
X0543482Y0400613D01*
X0509241Y0397779D02*
Y0394630D01*
X0510815Y0393056D01*
X0512390Y0394630D01*
Y0397779D01*
X0513964Y0393056D02*
X0515538D01*
X0514751D01*
Y0397779D01*
X0513964Y0396991D01*
X0517900Y0393056D02*
Y0393843D01*
X0518687D01*
Y0393056D01*
X0517900D01*
X0521836D02*
X0523410D01*
X0522623D01*
Y0397779D01*
X0521836Y0396991D01*
X0499008Y0385499D02*
X0500583D01*
X0499795D01*
Y0388647D01*
X0499008D01*
X0502944D02*
Y0385499D01*
Y0387073D01*
X0503731Y0387860D01*
X0504518Y0388647D01*
X0505305D01*
X0507667Y0385499D02*
Y0388647D01*
X0510028D01*
X0510815Y0387860D01*
Y0385499D01*
X0513177Y0388647D02*
X0514751D01*
X0515538Y0387860D01*
Y0385499D01*
X0513177D01*
X0512390Y0386286D01*
X0513177Y0387073D01*
X0515538D01*
X0517113Y0385499D02*
X0519474D01*
X0520261Y0386286D01*
X0519474Y0387073D01*
X0517900D01*
X0517113Y0387860D01*
X0517900Y0388647D01*
X0520261D01*
X0521836Y0385499D02*
Y0386286D01*
X0522623D01*
Y0385499D01*
X0521836D01*
X0528133D02*
X0526558D01*
X0525771Y0386286D01*
Y0387860D01*
X0526558Y0388647D01*
X0528133D01*
X0528920Y0387860D01*
Y0387073D01*
X0525771D01*
X0530494Y0388647D02*
Y0386286D01*
X0531281Y0385499D01*
X0533643D01*
Y0388647D01*
D16*
X0150747Y0198420D02*
X0148386D01*
X0147205Y0197239D01*
Y0192517D01*
X0148386Y0191336D01*
X0150747D01*
X0151928Y0192517D01*
Y0197239D01*
X0150747Y0198420D01*
X0154289Y0191336D02*
Y0198420D01*
X0157831D01*
X0159012Y0197239D01*
Y0194878D01*
X0157831Y0193697D01*
X0154289D01*
X0166096Y0198420D02*
X0161373D01*
Y0191336D01*
X0166096D01*
X0161373Y0194878D02*
X0163735D01*
X0168458Y0191336D02*
Y0198420D01*
X0173181Y0191336D01*
Y0198420D01*
X0180265Y0197239D02*
X0179084Y0198420D01*
X0176723D01*
X0175542Y0197239D01*
Y0192517D01*
X0176723Y0191336D01*
X0179084D01*
X0180265Y0192517D01*
X0186169Y0198420D02*
X0183807D01*
X0182626Y0197239D01*
Y0192517D01*
X0183807Y0191336D01*
X0186169D01*
X0187349Y0192517D01*
Y0197239D01*
X0186169Y0198420D01*
X0189711D02*
Y0191336D01*
X0194434D01*
X0196795Y0198420D02*
Y0191336D01*
X0201518D01*
X0203879D02*
Y0196059D01*
X0206241Y0198420D01*
X0208602Y0196059D01*
Y0191336D01*
Y0194878D01*
X0203879D01*
X0210964Y0191336D02*
Y0198420D01*
X0214506D01*
X0215687Y0197239D01*
Y0194878D01*
X0214506Y0193697D01*
X0210964D01*
X0213325D02*
X0215687Y0191336D01*
X0151928Y0185904D02*
X0150747Y0187084D01*
X0148386D01*
X0147205Y0185904D01*
Y0184723D01*
X0148386Y0183542D01*
X0150747D01*
X0151928Y0182361D01*
Y0181181D01*
X0150747Y0180000D01*
X0148386D01*
X0147205Y0181181D01*
X0154289Y0180000D02*
Y0187084D01*
X0156651Y0184723D01*
X0159012Y0187084D01*
Y0180000D01*
X0161373D02*
Y0184723D01*
X0163735Y0187084D01*
X0166096Y0184723D01*
Y0180000D01*
Y0183542D01*
X0161373D01*
X0168458Y0180000D02*
Y0187084D01*
X0172000D01*
X0173181Y0185904D01*
Y0183542D01*
X0172000Y0182361D01*
X0168458D01*
X0170819D02*
X0173181Y0180000D01*
X0175542Y0187084D02*
X0180265D01*
X0177904D01*
Y0180000D01*
X0182626D02*
Y0187084D01*
X0186169D01*
X0187349Y0185904D01*
Y0183542D01*
X0186169Y0182361D01*
X0182626D01*
X0189711Y0180000D02*
Y0184723D01*
X0192072Y0187084D01*
X0194434Y0184723D01*
Y0180000D01*
Y0183542D01*
X0189711D01*
X0196795Y0180000D02*
Y0187084D01*
X0200337D01*
X0201518Y0185904D01*
Y0183542D01*
X0200337Y0182361D01*
X0196795D01*
X0199156D02*
X0201518Y0180000D01*
X0203879Y0187084D02*
Y0180000D01*
Y0182361D01*
X0208602Y0187084D01*
X0205060Y0183542D01*
X0208602Y0180000D01*
X0215687Y0185904D02*
X0214506Y0187084D01*
X0212144D01*
X0210964Y0185904D01*
Y0184723D01*
X0212144Y0183542D01*
X0214506D01*
X0215687Y0182361D01*
Y0181181D01*
X0214506Y0180000D01*
X0212144D01*
X0210964Y0181181D01*
X0234605Y0198420D02*
X0232244D01*
X0231063Y0197239D01*
Y0192517D01*
X0232244Y0191336D01*
X0234605D01*
X0235786Y0192517D01*
Y0197239D01*
X0234605Y0198420D01*
X0238147Y0191336D02*
Y0198420D01*
X0241690D01*
X0242870Y0197239D01*
Y0194878D01*
X0241690Y0193697D01*
X0238147D01*
X0249955Y0198420D02*
X0245232D01*
Y0191336D01*
X0249955D01*
X0245232Y0194878D02*
X0247593D01*
X0252316Y0191336D02*
Y0198420D01*
X0257039Y0191336D01*
Y0198420D01*
X0264123Y0197239D02*
X0262943Y0198420D01*
X0260581D01*
X0259400Y0197239D01*
Y0192517D01*
X0260581Y0191336D01*
X0262943D01*
X0264123Y0192517D01*
X0270027Y0198420D02*
X0267666D01*
X0266485Y0197239D01*
Y0192517D01*
X0267666Y0191336D01*
X0270027D01*
X0271208Y0192517D01*
Y0197239D01*
X0270027Y0198420D01*
X0273569D02*
Y0191336D01*
X0278292D01*
X0280653Y0198420D02*
Y0191336D01*
X0285376D01*
X0287738D02*
Y0196059D01*
X0290099Y0198420D01*
X0292461Y0196059D01*
Y0191336D01*
Y0194878D01*
X0287738D01*
X0294822Y0191336D02*
Y0198420D01*
X0298364D01*
X0299545Y0197239D01*
Y0194878D01*
X0298364Y0193697D01*
X0294822D01*
X0297183D02*
X0299545Y0191336D01*
X0235786Y0185904D02*
X0234605Y0187084D01*
X0232244D01*
X0231063Y0185904D01*
Y0184723D01*
X0232244Y0183542D01*
X0234605D01*
X0235786Y0182361D01*
Y0181181D01*
X0234605Y0180000D01*
X0232244D01*
X0231063Y0181181D01*
X0238147Y0180000D02*
Y0187084D01*
X0240509Y0184723D01*
X0242870Y0187084D01*
Y0180000D01*
X0245232D02*
Y0184723D01*
X0247593Y0187084D01*
X0249955Y0184723D01*
Y0180000D01*
Y0183542D01*
X0245232D01*
X0252316Y0180000D02*
Y0187084D01*
X0255858D01*
X0257039Y0185904D01*
Y0183542D01*
X0255858Y0182361D01*
X0252316D01*
X0254678D02*
X0257039Y0180000D01*
X0259400Y0187084D02*
X0264123D01*
X0261762D01*
Y0180000D01*
X0266485D02*
Y0187084D01*
X0270027D01*
X0271208Y0185904D01*
Y0183542D01*
X0270027Y0182361D01*
X0266485D01*
X0273569Y0180000D02*
Y0184723D01*
X0275931Y0187084D01*
X0278292Y0184723D01*
Y0180000D01*
Y0183542D01*
X0273569D01*
X0280653Y0180000D02*
Y0187084D01*
X0284195D01*
X0285376Y0185904D01*
Y0183542D01*
X0284195Y0182361D01*
X0280653D01*
X0283015D02*
X0285376Y0180000D01*
X0287738Y0187084D02*
Y0180000D01*
Y0182361D01*
X0292461Y0187084D01*
X0288918Y0183542D01*
X0292461Y0180000D01*
X0299545Y0185904D02*
X0298364Y0187084D01*
X0296003D01*
X0294822Y0185904D01*
Y0184723D01*
X0296003Y0183542D01*
X0298364D01*
X0299545Y0182361D01*
Y0181181D01*
X0298364Y0180000D01*
X0296003D01*
X0294822Y0181181D01*
X0318464Y0198420D02*
X0316102D01*
X0314921Y0197239D01*
Y0192517D01*
X0316102Y0191336D01*
X0318464D01*
X0319644Y0192517D01*
Y0197239D01*
X0318464Y0198420D01*
X0322006Y0191336D02*
Y0198420D01*
X0325548D01*
X0326729Y0197239D01*
Y0194878D01*
X0325548Y0193697D01*
X0322006D01*
X0333813Y0198420D02*
X0329090D01*
Y0191336D01*
X0333813D01*
X0329090Y0194878D02*
X0331452D01*
X0336174Y0191336D02*
Y0198420D01*
X0340897Y0191336D01*
Y0198420D01*
X0347982Y0197239D02*
X0346801Y0198420D01*
X0344439D01*
X0343259Y0197239D01*
Y0192517D01*
X0344439Y0191336D01*
X0346801D01*
X0347982Y0192517D01*
X0353885Y0198420D02*
X0351524D01*
X0350343Y0197239D01*
Y0192517D01*
X0351524Y0191336D01*
X0353885D01*
X0355066Y0192517D01*
Y0197239D01*
X0353885Y0198420D01*
X0357427D02*
Y0191336D01*
X0362150D01*
X0364512Y0198420D02*
Y0191336D01*
X0369235D01*
X0371596D02*
Y0196059D01*
X0373957Y0198420D01*
X0376319Y0196059D01*
Y0191336D01*
Y0194878D01*
X0371596D01*
X0378680Y0191336D02*
Y0198420D01*
X0382223D01*
X0383403Y0197239D01*
Y0194878D01*
X0382223Y0193697D01*
X0378680D01*
X0381042D02*
X0383403Y0191336D01*
X0319644Y0185904D02*
X0318464Y0187084D01*
X0316102D01*
X0314921Y0185904D01*
Y0184723D01*
X0316102Y0183542D01*
X0318464D01*
X0319644Y0182361D01*
Y0181181D01*
X0318464Y0180000D01*
X0316102D01*
X0314921Y0181181D01*
X0322006Y0180000D02*
Y0187084D01*
X0324367Y0184723D01*
X0326729Y0187084D01*
Y0180000D01*
X0329090D02*
Y0184723D01*
X0331452Y0187084D01*
X0333813Y0184723D01*
Y0180000D01*
Y0183542D01*
X0329090D01*
X0336174Y0180000D02*
Y0187084D01*
X0339717D01*
X0340897Y0185904D01*
Y0183542D01*
X0339717Y0182361D01*
X0336174D01*
X0338536D02*
X0340897Y0180000D01*
X0343259Y0187084D02*
X0347982D01*
X0345620D01*
Y0180000D01*
X0350343D02*
Y0187084D01*
X0353885D01*
X0355066Y0185904D01*
Y0183542D01*
X0353885Y0182361D01*
X0350343D01*
X0357427Y0180000D02*
Y0184723D01*
X0359789Y0187084D01*
X0362150Y0184723D01*
Y0180000D01*
Y0183542D01*
X0357427D01*
X0364512Y0180000D02*
Y0187084D01*
X0368054D01*
X0369235Y0185904D01*
Y0183542D01*
X0368054Y0182361D01*
X0364512D01*
X0366873D02*
X0369235Y0180000D01*
X0371596Y0187084D02*
Y0180000D01*
Y0182361D01*
X0376319Y0187084D01*
X0372777Y0183542D01*
X0376319Y0180000D01*
X0383403Y0185904D02*
X0382223Y0187084D01*
X0379861D01*
X0378680Y0185904D01*
Y0184723D01*
X0379861Y0183542D01*
X0382223D01*
X0383403Y0182361D01*
Y0181181D01*
X0382223Y0180000D01*
X0379861D01*
X0378680Y0181181D01*
X0402322Y0198420D02*
X0399960D01*
X0398780Y0197239D01*
Y0192517D01*
X0399960Y0191336D01*
X0402322D01*
X0403503Y0192517D01*
Y0197239D01*
X0402322Y0198420D01*
X0405864Y0191336D02*
Y0198420D01*
X0409406D01*
X0410587Y0197239D01*
Y0194878D01*
X0409406Y0193697D01*
X0405864D01*
X0417671Y0198420D02*
X0412948D01*
Y0191336D01*
X0417671D01*
X0412948Y0194878D02*
X0415310D01*
X0420033Y0191336D02*
Y0198420D01*
X0424756Y0191336D01*
Y0198420D01*
X0431840Y0197239D02*
X0430659Y0198420D01*
X0428298D01*
X0427117Y0197239D01*
Y0192517D01*
X0428298Y0191336D01*
X0430659D01*
X0431840Y0192517D01*
X0437744Y0198420D02*
X0435382D01*
X0434201Y0197239D01*
Y0192517D01*
X0435382Y0191336D01*
X0437744D01*
X0438924Y0192517D01*
Y0197239D01*
X0437744Y0198420D01*
X0441286D02*
Y0191336D01*
X0446008D01*
X0448370Y0198420D02*
Y0191336D01*
X0453093D01*
X0455454D02*
Y0196059D01*
X0457816Y0198420D01*
X0460177Y0196059D01*
Y0191336D01*
Y0194878D01*
X0455454D01*
X0462539Y0191336D02*
Y0198420D01*
X0466081D01*
X0467262Y0197239D01*
Y0194878D01*
X0466081Y0193697D01*
X0462539D01*
X0464900D02*
X0467262Y0191336D01*
X0403503Y0185904D02*
X0402322Y0187084D01*
X0399960D01*
X0398780Y0185904D01*
Y0184723D01*
X0399960Y0183542D01*
X0402322D01*
X0403503Y0182361D01*
Y0181181D01*
X0402322Y0180000D01*
X0399960D01*
X0398780Y0181181D01*
X0405864Y0180000D02*
Y0187084D01*
X0408225Y0184723D01*
X0410587Y0187084D01*
Y0180000D01*
X0412948D02*
Y0184723D01*
X0415310Y0187084D01*
X0417671Y0184723D01*
Y0180000D01*
Y0183542D01*
X0412948D01*
X0420033Y0180000D02*
Y0187084D01*
X0423575D01*
X0424756Y0185904D01*
Y0183542D01*
X0423575Y0182361D01*
X0420033D01*
X0422394D02*
X0424756Y0180000D01*
X0427117Y0187084D02*
X0431840D01*
X0429479D01*
Y0180000D01*
X0434201D02*
Y0187084D01*
X0437744D01*
X0438924Y0185904D01*
Y0183542D01*
X0437744Y0182361D01*
X0434201D01*
X0441286Y0180000D02*
Y0184723D01*
X0443647Y0187084D01*
X0446008Y0184723D01*
Y0180000D01*
Y0183542D01*
X0441286D01*
X0448370Y0180000D02*
Y0187084D01*
X0451912D01*
X0453093Y0185904D01*
Y0183542D01*
X0451912Y0182361D01*
X0448370D01*
X0450731D02*
X0453093Y0180000D01*
X0455454Y0187084D02*
Y0180000D01*
Y0182361D01*
X0460177Y0187084D01*
X0456635Y0183542D01*
X0460177Y0180000D01*
X0467262Y0185904D02*
X0466081Y0187084D01*
X0463719D01*
X0462539Y0185904D01*
Y0184723D01*
X0463719Y0183542D01*
X0466081D01*
X0467262Y0182361D01*
Y0181181D01*
X0466081Y0180000D01*
X0463719D01*
X0462539Y0181181D01*
X0486180Y0198420D02*
X0483819D01*
X0482638Y0197239D01*
Y0192517D01*
X0483819Y0191336D01*
X0486180D01*
X0487361Y0192517D01*
Y0197239D01*
X0486180Y0198420D01*
X0489722Y0191336D02*
Y0198420D01*
X0493264D01*
X0494445Y0197239D01*
Y0194878D01*
X0493264Y0193697D01*
X0489722D01*
X0501530Y0198420D02*
X0496807D01*
Y0191336D01*
X0501530D01*
X0496807Y0194878D02*
X0499168D01*
X0503891Y0191336D02*
Y0198420D01*
X0508614Y0191336D01*
Y0198420D01*
X0515698Y0197239D02*
X0514517Y0198420D01*
X0512156D01*
X0510975Y0197239D01*
Y0192517D01*
X0512156Y0191336D01*
X0514517D01*
X0515698Y0192517D01*
X0521602Y0198420D02*
X0519240D01*
X0518060Y0197239D01*
Y0192517D01*
X0519240Y0191336D01*
X0521602D01*
X0522783Y0192517D01*
Y0197239D01*
X0521602Y0198420D01*
X0525144D02*
Y0191336D01*
X0529867D01*
X0532228Y0198420D02*
Y0191336D01*
X0536951D01*
X0539313D02*
Y0196059D01*
X0541674Y0198420D01*
X0544035Y0196059D01*
Y0191336D01*
Y0194878D01*
X0539313D01*
X0546397Y0191336D02*
Y0198420D01*
X0549939D01*
X0551120Y0197239D01*
Y0194878D01*
X0549939Y0193697D01*
X0546397D01*
X0548758D02*
X0551120Y0191336D01*
X0487361Y0185904D02*
X0486180Y0187084D01*
X0483819D01*
X0482638Y0185904D01*
Y0184723D01*
X0483819Y0183542D01*
X0486180D01*
X0487361Y0182361D01*
Y0181181D01*
X0486180Y0180000D01*
X0483819D01*
X0482638Y0181181D01*
X0489722Y0180000D02*
Y0187084D01*
X0492084Y0184723D01*
X0494445Y0187084D01*
Y0180000D01*
X0496807D02*
Y0184723D01*
X0499168Y0187084D01*
X0501530Y0184723D01*
Y0180000D01*
Y0183542D01*
X0496807D01*
X0503891Y0180000D02*
Y0187084D01*
X0507433D01*
X0508614Y0185904D01*
Y0183542D01*
X0507433Y0182361D01*
X0503891D01*
X0506252D02*
X0508614Y0180000D01*
X0510975Y0187084D02*
X0515698D01*
X0513337D01*
Y0180000D01*
X0518060D02*
Y0187084D01*
X0521602D01*
X0522783Y0185904D01*
Y0183542D01*
X0521602Y0182361D01*
X0518060D01*
X0525144Y0180000D02*
Y0184723D01*
X0527505Y0187084D01*
X0529867Y0184723D01*
Y0180000D01*
Y0183542D01*
X0525144D01*
X0532228Y0180000D02*
Y0187084D01*
X0535770D01*
X0536951Y0185904D01*
Y0183542D01*
X0535770Y0182361D01*
X0532228D01*
X0534590D02*
X0536951Y0180000D01*
X0539313Y0187084D02*
Y0180000D01*
Y0182361D01*
X0544035Y0187084D01*
X0540493Y0183542D01*
X0544035Y0180000D01*
X0551120Y0185904D02*
X0549939Y0187084D01*
X0547578D01*
X0546397Y0185904D01*
Y0184723D01*
X0547578Y0183542D01*
X0549939D01*
X0551120Y0182361D01*
Y0181181D01*
X0549939Y0180000D01*
X0547578D01*
X0546397Y0181181D01*
D65*
X0171392Y0421142D02*
G03*
X0171392Y0421142I-0000880J0000000D01*
G01*
X0255251D02*
G03*
X0255251Y0421142I-0000880J0000000D01*
G01*
X0339109D02*
G03*
X0339109Y0421142I-0000880J0000000D01*
G01*
X0422967D02*
G03*
X0422967Y0421142I-0000880J0000000D01*
G01*
X0506825D02*
G03*
X0506825Y0421142I-0000880J0000000D01*
G01*
D70*
X0157702Y0215159D02*
X0159302D01*
X0157702Y0214759D02*
X0159302D01*
X0158102Y0214359D02*
X0159702D01*
X0158102Y0213959D02*
X0160102D01*
X0158502Y0213559D02*
X0160102D01*
X0158902Y0213159D02*
X0160502D01*
X0154502Y0223159D02*
X0155702D01*
X0154502Y0222759D02*
X0155702D01*
X0154502Y0222359D02*
X0155702D01*
X0154502Y0221959D02*
X0156102D01*
X0154902Y0221559D02*
X0156102D01*
X0154902Y0221159D02*
X0156102D01*
X0154902Y0220759D02*
X0156502D01*
X0155302Y0220359D02*
X0156502D01*
X0155302Y0219959D02*
X0156902D01*
X0155302Y0219559D02*
X0156902D01*
X0155702Y0219159D02*
X0156902D01*
X0155702Y0218759D02*
X0157302D01*
X0155702Y0218359D02*
X0157302D01*
X0156102Y0217959D02*
X0157702D01*
X0156102Y0217559D02*
X0157702D01*
X0156502Y0217159D02*
X0158102D01*
X0156502Y0216759D02*
X0158102D01*
X0156902Y0216359D02*
X0158502D01*
X0156902Y0215959D02*
X0158502D01*
X0154502Y0227959D02*
X0154902D01*
X0153702Y0227559D02*
X0154902D01*
X0153702Y0227159D02*
X0154902D01*
X0153702Y0226759D02*
X0154902D01*
X0153702Y0226359D02*
X0154902D01*
X0153702Y0225959D02*
X0155302D01*
X0154102Y0225559D02*
X0155302D01*
X0154102Y0225159D02*
X0155302D01*
X0154102Y0224759D02*
X0155302D01*
X0154102Y0224359D02*
X0155302D01*
X0154102Y0223959D02*
X0155302D01*
X0164902Y0207159D02*
X0167302D01*
X0165302Y0206759D02*
X0168102D01*
X0164902Y0215159D02*
X0166902D01*
X0165302Y0214759D02*
X0167302D01*
X0165702Y0214359D02*
X0167702D01*
X0166102Y0213959D02*
X0168102D01*
X0166502Y0213559D02*
X0168502D01*
X0161302Y0210359D02*
X0163302D01*
X0161702Y0209959D02*
X0163702D01*
X0162102Y0209559D02*
X0164102D01*
X0162502Y0209159D02*
X0164502D01*
X0162902Y0208759D02*
X0164902D01*
X0163302Y0208359D02*
X0165702D01*
X0163702Y0207959D02*
X0166102D01*
X0165302Y0223159D02*
X0166502D01*
X0167302D02*
X0168102D01*
X0165702Y0222759D02*
X0166502D01*
X0167302D02*
X0168102D01*
X0165702Y0222359D02*
X0166902D01*
X0167702D02*
X0168502D01*
X0165702Y0221959D02*
X0166902D01*
X0166102Y0221559D02*
X0166902D01*
X0161302Y0221159D02*
X0162502D01*
X0166502D02*
X0167302D01*
X0161302Y0220759D02*
X0162902D01*
X0166502D02*
X0167302D01*
X0161702Y0220359D02*
X0162902D01*
X0166902D02*
X0167302D01*
X0161702Y0219959D02*
X0163302D01*
X0162102Y0219559D02*
X0163702D01*
X0162102Y0219159D02*
X0163702D01*
X0162502Y0218759D02*
X0164102D01*
X0162502Y0218359D02*
X0164102D01*
X0162902Y0217959D02*
X0164502D01*
X0162902Y0217559D02*
X0164902D01*
X0163302Y0217159D02*
X0164902D01*
X0163702Y0216759D02*
X0165302D01*
X0164102Y0216359D02*
X0165702D01*
X0164102Y0215959D02*
X0166102D01*
X0164102Y0231159D02*
X0166902D01*
X0164102Y0230759D02*
X0166902D01*
X0164102Y0230359D02*
X0166902D01*
X0164102Y0229959D02*
X0166902D01*
X0164102Y0229559D02*
X0166502D01*
X0164102Y0229159D02*
X0166502D01*
X0164102Y0228759D02*
X0166502D01*
X0164102Y0228359D02*
X0166502D01*
X0164102Y0227959D02*
X0166502D01*
X0164102Y0227559D02*
X0166502D01*
X0164502Y0227159D02*
X0166502D01*
X0164502Y0226759D02*
X0166102D01*
X0164502Y0226359D02*
X0166102D01*
X0164502Y0225959D02*
X0166102D01*
X0164502Y0225559D02*
X0166102D01*
X0164902Y0225159D02*
X0166502D01*
X0164902Y0224759D02*
X0166502D01*
X0164902Y0224359D02*
X0166502D01*
X0164902Y0223959D02*
X0166502D01*
X0164902Y0234359D02*
X0168502D01*
X0164902Y0233959D02*
X0168502D01*
X0164502Y0233559D02*
X0168102D01*
X0164502Y0233159D02*
X0168102D01*
X0164502Y0232759D02*
X0167702D01*
X0164502Y0232359D02*
X0167702D01*
X0164502Y0231959D02*
X0167302D01*
X0169702Y0204359D02*
X0170902D01*
X0169702Y0211159D02*
X0171702D01*
X0170502Y0210759D02*
X0171302D01*
X0169302Y0219559D02*
X0171302D01*
X0169302Y0219159D02*
X0172102D01*
X0169702Y0218759D02*
X0172502D01*
X0170102Y0218359D02*
X0173302D01*
X0170502Y0217959D02*
X0174102D01*
X0170902Y0217559D02*
X0174902D01*
X0171302Y0217159D02*
X0176102D01*
X0179302Y0213159D02*
X0184502D01*
X0189302Y0219959D02*
X0191702D01*
X0188902Y0219559D02*
X0191702D01*
X0186102Y0217959D02*
X0190102D01*
X0185302Y0217559D02*
X0190102D01*
X0188102Y0216759D02*
X0192102D01*
X0188502Y0216359D02*
X0191702D01*
X0188102Y0215959D02*
X0190902D01*
X0190102Y0239159D02*
X0192502D01*
X0190502Y0238759D02*
X0192502D01*
X0189302Y0247159D02*
X0192102D01*
X0186102Y0241159D02*
X0190502D01*
X0187302Y0240759D02*
X0190902D01*
X0188102Y0240359D02*
X0191302D01*
X0188902Y0239959D02*
X0191702D01*
X0190902Y0254359D02*
X0191302D01*
X0190902Y0253959D02*
X0192102D01*
X0189302Y0248359D02*
X0190102D01*
X0189302Y0247959D02*
X0190902D01*
X0195302Y0231159D02*
X0197302D01*
X0195302Y0230759D02*
X0197302D01*
X0195302Y0230359D02*
X0197302D01*
X0195302Y0229959D02*
X0197302D01*
X0195302Y0229559D02*
X0197302D01*
X0194902Y0229159D02*
X0197302D01*
X0194902Y0228759D02*
X0197302D01*
X0194902Y0228359D02*
X0197302D01*
X0194902Y0227959D02*
X0197302D01*
X0194502Y0227559D02*
X0197302D01*
X0194502Y0227159D02*
X0197302D01*
X0194502Y0226759D02*
X0197302D01*
X0194102Y0226359D02*
X0197302D01*
X0194102Y0225959D02*
X0197302D01*
X0193702Y0225559D02*
X0197302D01*
X0193702Y0225159D02*
X0196902D01*
X0193302Y0224759D02*
X0196902D01*
X0193302Y0224359D02*
X0196902D01*
X0198102Y0239159D02*
X0199702D01*
X0198102Y0238759D02*
X0199702D01*
X0194502Y0238359D02*
X0194902D01*
X0198502D02*
X0200102D01*
X0194502Y0237959D02*
X0194902D01*
X0198902D02*
X0200102D01*
X0194502Y0237559D02*
X0195302D01*
X0198902D02*
X0200502D01*
X0194502Y0237159D02*
X0195302D01*
X0198902D02*
X0200502D01*
X0194902Y0236759D02*
X0195702D01*
X0199302D02*
X0200502D01*
X0194902Y0236359D02*
X0196102D01*
X0193302Y0235959D02*
X0194102D01*
X0194902D02*
X0196102D01*
X0193702Y0235559D02*
X0194502D01*
X0194902D02*
X0196102D01*
X0194102Y0235159D02*
X0194502D01*
X0195302D02*
X0196502D01*
X0195302Y0234759D02*
X0196502D01*
X0195302Y0234359D02*
X0196502D01*
X0195302Y0233959D02*
X0196902D01*
X0195302Y0233559D02*
X0196902D01*
X0195302Y0233159D02*
X0196902D01*
X0195302Y0232759D02*
X0197302D01*
X0195302Y0232359D02*
X0197302D01*
X0195302Y0231959D02*
X0197302D01*
X0193302Y0244759D02*
X0195302D01*
X0193702Y0244359D02*
X0195702D01*
X0194102Y0243959D02*
X0196102D01*
X0194502Y0243559D02*
X0196502D01*
X0194902Y0243159D02*
X0196902D01*
X0195302Y0242759D02*
X0197302D01*
X0195702Y0242359D02*
X0197702D01*
X0196102Y0241959D02*
X0198102D01*
X0196502Y0241559D02*
X0198102D01*
X0196902Y0241159D02*
X0198502D01*
X0196902Y0240759D02*
X0198902D01*
X0197302Y0240359D02*
X0198902D01*
X0197702Y0239959D02*
X0199302D01*
X0193302Y0251959D02*
X0195702D01*
X0193702Y0251559D02*
X0196502D01*
X0194502Y0251159D02*
X0196902D01*
X0195302Y0250759D02*
X0197702D01*
X0195702Y0250359D02*
X0198102D01*
X0196102Y0249959D02*
X0198502D01*
X0196902Y0249559D02*
X0198902D01*
X0197302Y0249159D02*
X0199302D01*
X0197702Y0248759D02*
X0199702D01*
X0198102Y0248359D02*
X0200102D01*
X0198502Y0247959D02*
X0200502D01*
X0206902Y0231159D02*
X0208102D01*
X0204902Y0239159D02*
X0206102D01*
X0204902Y0238759D02*
X0206502D01*
X0204902Y0238359D02*
X0206502D01*
X0205302Y0237959D02*
X0206502D01*
X0205302Y0237559D02*
X0206902D01*
X0205302Y0237159D02*
X0206902D01*
X0205702Y0236759D02*
X0206902D01*
X0205702Y0236359D02*
X0207302D01*
X0205702Y0235959D02*
X0207302D01*
X0206102Y0235559D02*
X0207302D01*
X0206102Y0235159D02*
X0207302D01*
X0206102Y0234759D02*
X0207302D01*
X0206102Y0234359D02*
X0207702D01*
X0206502Y0233959D02*
X0207702D01*
X0206502Y0233559D02*
X0207702D01*
X0206502Y0233159D02*
X0207702D01*
X0206502Y0232759D02*
X0207702D01*
X0206502Y0232359D02*
X0207702D01*
X0206502Y0231959D02*
X0208102D01*
X0201302Y0245159D02*
X0202902D01*
X0201702Y0244759D02*
X0203302D01*
X0201702Y0244359D02*
X0203702D01*
X0202102Y0243959D02*
X0203702D01*
X0202502Y0243559D02*
X0204102D01*
X0202502Y0243159D02*
X0204102D01*
X0202902Y0242759D02*
X0204502D01*
X0203302Y0242359D02*
X0204902D01*
X0203302Y0241959D02*
X0204902D01*
X0203702Y0241559D02*
X0205302D01*
X0203702Y0241159D02*
X0205302D01*
X0204102Y0240759D02*
X0205702D01*
X0204102Y0240359D02*
X0205702D01*
X0204502Y0239959D02*
X0205702D01*
X0157302Y0215559D02*
X0158902D01*
X0154102Y0223559D02*
X0155702D01*
X0164502Y0215559D02*
X0166502D01*
X0164502Y0207559D02*
X0166902D01*
X0164502Y0231559D02*
X0167302D01*
X0165302Y0223559D02*
X0166502D01*
X0188902Y0247559D02*
X0191702D01*
X0189302Y0239559D02*
X0192102D01*
X0197702D02*
X0199302D01*
X0195302Y0231559D02*
X0197302D01*
X0204502Y0239559D02*
X0206102D01*
X0206502Y0231559D02*
X0208102D01*
X0166102Y0206359D02*
X0168902D01*
X0166502Y0205959D02*
X0169702D01*
X0167302Y0205559D02*
X0170502D01*
X0168102Y0205159D02*
X0170902D01*
X0168902Y0204759D02*
X0170902D01*
X0166902Y0213159D02*
X0169302D01*
X0159302Y0212759D02*
X0160902D01*
X0167302D02*
X0169702D01*
X0159302Y0212359D02*
X0161302D01*
X0168102D02*
X0170502D01*
X0159702Y0211959D02*
X0161702D01*
X0168502D02*
X0170902D01*
X0160102Y0211559D02*
X0162102D01*
X0168902D02*
X0171702D01*
X0160502Y0211159D02*
X0162502D01*
X0160902Y0210759D02*
X0162902D01*
X0160502Y0223159D02*
X0162102D01*
X0160502Y0222759D02*
X0162102D01*
X0160902Y0222359D02*
X0162102D01*
X0160902Y0221959D02*
X0162502D01*
X0167702D02*
X0168902D01*
X0160902Y0221559D02*
X0162502D01*
X0168102D02*
X0169302D01*
X0168102Y0221159D02*
X0169702D01*
X0168502Y0220759D02*
X0170102D01*
X0168502Y0220359D02*
X0170502D01*
X0168902Y0219959D02*
X0170902D01*
X0159702Y0227959D02*
X0160902D01*
X0159702Y0227559D02*
X0160902D01*
X0159702Y0227159D02*
X0160902D01*
X0159702Y0226759D02*
X0160902D01*
X0159702Y0226359D02*
X0161302D01*
X0160102Y0225959D02*
X0161302D01*
X0160102Y0225559D02*
X0161302D01*
X0160102Y0225159D02*
X0161302D01*
X0160102Y0224759D02*
X0161302D01*
X0160102Y0224359D02*
X0161702D01*
X0160502Y0223959D02*
X0161702D01*
X0166902Y0238759D02*
X0172502D01*
X0166902Y0238359D02*
X0172102D01*
X0166502Y0237959D02*
X0171302D01*
X0166102Y0237559D02*
X0170902D01*
X0166102Y0237159D02*
X0170502D01*
X0165702Y0236759D02*
X0170502D01*
X0165702Y0236359D02*
X0170102D01*
X0165302Y0235959D02*
X0169702D01*
X0165302Y0235559D02*
X0169302D01*
X0165302Y0235159D02*
X0168902D01*
X0164902Y0234759D02*
X0168902D01*
X0173702Y0215159D02*
X0189702D01*
X0174502Y0214759D02*
X0189302D01*
X0175302Y0214359D02*
X0188502D01*
X0176102Y0213959D02*
X0187302D01*
X0177302Y0213559D02*
X0186102D01*
X0192502Y0223159D02*
X0196502D01*
X0192102Y0222759D02*
X0196102D01*
X0191702Y0222359D02*
X0196102D01*
X0191702Y0221959D02*
X0196102D01*
X0191302Y0221559D02*
X0195702D01*
X0190902Y0221159D02*
X0195702D01*
X0190502Y0220759D02*
X0195302D01*
X0190102Y0220359D02*
X0194902D01*
X0192502Y0219959D02*
X0194902D01*
X0192502Y0219559D02*
X0194502D01*
X0188502Y0219159D02*
X0194102D01*
X0187702Y0218759D02*
X0194102D01*
X0186902Y0218359D02*
X0193702D01*
X0190902Y0217959D02*
X0193302D01*
X0190902Y0217559D02*
X0192902D01*
X0184102Y0217159D02*
X0192502D01*
X0182102Y0216759D02*
X0187702D01*
X0200502Y0231159D02*
X0202102D01*
X0200902Y0230759D02*
X0202102D01*
X0192902Y0223959D02*
X0196902D01*
X0190902Y0238359D02*
X0192902D01*
X0191702Y0237959D02*
X0193302D01*
X0192102Y0237559D02*
X0193302D01*
X0192502Y0237159D02*
X0193702D01*
X0192502Y0236759D02*
X0193702D01*
X0192902Y0236359D02*
X0194102D01*
X0199302D02*
X0200902D01*
X0199702Y0235959D02*
X0200902D01*
X0199702Y0235559D02*
X0200902D01*
X0199702Y0235159D02*
X0201302D01*
X0200102Y0234759D02*
X0201302D01*
X0200102Y0234359D02*
X0201302D01*
X0200102Y0233959D02*
X0201702D01*
X0200102Y0233559D02*
X0201702D01*
X0200502Y0233159D02*
X0201702D01*
X0200502Y0232759D02*
X0201702D01*
X0200502Y0232359D02*
X0201702D01*
X0200502Y0231959D02*
X0201702D01*
X0199302Y0247159D02*
X0201302D01*
X0190102Y0246759D02*
X0192902D01*
X0199702D02*
X0201702D01*
X0190902Y0246359D02*
X0193302D01*
X0200102D02*
X0202102D01*
X0191302Y0245959D02*
X0194102D01*
X0200502D02*
X0202502D01*
X0192102Y0245559D02*
X0194502D01*
X0200902D02*
X0202502D01*
X0176102Y0245159D02*
X0183702D01*
X0192502D02*
X0194902D01*
X0174902Y0244759D02*
X0184902D01*
X0173702Y0244359D02*
X0186102D01*
X0181702Y0241959D02*
X0189702D01*
X0184902Y0241559D02*
X0190102D01*
X0190502Y0253559D02*
X0193302D01*
X0190902Y0253159D02*
X0193702D01*
X0191702Y0252759D02*
X0194502D01*
X0192502Y0252359D02*
X0195302D01*
X0160502Y0223559D02*
X0161702D01*
X0173302Y0215559D02*
X0190502D01*
X0198902Y0247559D02*
X0200902D01*
X0200502Y0231559D02*
X0202102D01*
X0192902Y0223559D02*
X0196502D01*
X0171702Y0216759D02*
X0178102D01*
X0172102Y0216359D02*
X0187302D01*
X0172502Y0215959D02*
X0187702D01*
X0167302Y0239159D02*
X0172902D01*
Y0243959D02*
X0186902D01*
X0172102Y0243559D02*
X0187702D01*
X0171302Y0243159D02*
X0188102D01*
X0169702Y0241959D02*
X0181302D01*
X0169302Y0241559D02*
X0178102D01*
X0168902Y0241159D02*
X0176902D01*
X0168502Y0240759D02*
X0175702D01*
X0168102Y0240359D02*
X0174902D01*
X0167702Y0239959D02*
X0174102D01*
X0167702Y0239559D02*
X0173702D01*
X0170902Y0242759D02*
X0188902D01*
X0170502Y0242359D02*
X0189302D01*
X0241560Y0215159D02*
X0243160D01*
X0241560Y0214759D02*
X0243160D01*
X0241960Y0214359D02*
X0243560D01*
X0241960Y0213959D02*
X0243960D01*
X0242360Y0213559D02*
X0243960D01*
X0242760Y0213159D02*
X0244360D01*
X0238360Y0223159D02*
X0239560D01*
X0238360Y0222759D02*
X0239560D01*
X0238360Y0222359D02*
X0239560D01*
X0238360Y0221959D02*
X0239960D01*
X0238760Y0221559D02*
X0239960D01*
X0238760Y0221159D02*
X0239960D01*
X0238760Y0220759D02*
X0240360D01*
X0239160Y0220359D02*
X0240360D01*
X0239160Y0219959D02*
X0240760D01*
X0239160Y0219559D02*
X0240760D01*
X0239560Y0219159D02*
X0240760D01*
X0239560Y0218759D02*
X0241160D01*
X0239560Y0218359D02*
X0241160D01*
X0239960Y0217959D02*
X0241560D01*
X0239960Y0217559D02*
X0241560D01*
X0240360Y0217159D02*
X0241960D01*
X0240360Y0216759D02*
X0241960D01*
X0240760Y0216359D02*
X0242360D01*
X0240760Y0215959D02*
X0242360D01*
X0238360Y0227959D02*
X0238760D01*
X0237560Y0227559D02*
X0238760D01*
X0237560Y0227159D02*
X0238760D01*
X0237560Y0226759D02*
X0238760D01*
X0237560Y0226359D02*
X0238760D01*
X0237560Y0225959D02*
X0239160D01*
X0237960Y0225559D02*
X0239160D01*
X0237960Y0225159D02*
X0239160D01*
X0237960Y0224759D02*
X0239160D01*
X0237960Y0224359D02*
X0239160D01*
X0237960Y0223959D02*
X0239160D01*
X0248760Y0207159D02*
X0251160D01*
X0249160Y0206759D02*
X0251960D01*
X0248760Y0215159D02*
X0250760D01*
X0249160Y0214759D02*
X0251160D01*
X0249560Y0214359D02*
X0251560D01*
X0249960Y0213959D02*
X0251960D01*
X0250360Y0213559D02*
X0252360D01*
X0245160Y0210359D02*
X0247160D01*
X0245560Y0209959D02*
X0247560D01*
X0245960Y0209559D02*
X0247960D01*
X0246360Y0209159D02*
X0248360D01*
X0246760Y0208759D02*
X0248760D01*
X0247160Y0208359D02*
X0249560D01*
X0247560Y0207959D02*
X0249960D01*
X0249160Y0223159D02*
X0250360D01*
X0251160D02*
X0251960D01*
X0249560Y0222759D02*
X0250360D01*
X0251160D02*
X0251960D01*
X0249560Y0222359D02*
X0250760D01*
X0251560D02*
X0252360D01*
X0249560Y0221959D02*
X0250760D01*
X0249960Y0221559D02*
X0250760D01*
X0245160Y0221159D02*
X0246360D01*
X0250360D02*
X0251160D01*
X0245160Y0220759D02*
X0246760D01*
X0250360D02*
X0251160D01*
X0245560Y0220359D02*
X0246760D01*
X0250760D02*
X0251160D01*
X0245560Y0219959D02*
X0247160D01*
X0245960Y0219559D02*
X0247560D01*
X0245960Y0219159D02*
X0247560D01*
X0246360Y0218759D02*
X0247960D01*
X0246360Y0218359D02*
X0247960D01*
X0246760Y0217959D02*
X0248360D01*
X0246760Y0217559D02*
X0248760D01*
X0247160Y0217159D02*
X0248760D01*
X0247560Y0216759D02*
X0249160D01*
X0247960Y0216359D02*
X0249560D01*
X0247960Y0215959D02*
X0249960D01*
X0247960Y0231159D02*
X0250760D01*
X0247960Y0230759D02*
X0250760D01*
X0247960Y0230359D02*
X0250760D01*
X0247960Y0229959D02*
X0250760D01*
X0247960Y0229559D02*
X0250360D01*
X0247960Y0229159D02*
X0250360D01*
X0247960Y0228759D02*
X0250360D01*
X0247960Y0228359D02*
X0250360D01*
X0247960Y0227959D02*
X0250360D01*
X0247960Y0227559D02*
X0250360D01*
X0248360Y0227159D02*
X0250360D01*
X0248360Y0226759D02*
X0249960D01*
X0248360Y0226359D02*
X0249960D01*
X0248360Y0225959D02*
X0249960D01*
X0248360Y0225559D02*
X0249960D01*
X0248760Y0225159D02*
X0250360D01*
X0248760Y0224759D02*
X0250360D01*
X0248760Y0224359D02*
X0250360D01*
X0248760Y0223959D02*
X0250360D01*
X0248760Y0234359D02*
X0252360D01*
X0248760Y0233959D02*
X0252360D01*
X0248360Y0233559D02*
X0251960D01*
X0248360Y0233159D02*
X0251960D01*
X0248360Y0232759D02*
X0251560D01*
X0248360Y0232359D02*
X0251560D01*
X0248360Y0231959D02*
X0251160D01*
X0253560Y0204359D02*
X0254760D01*
X0253560Y0211159D02*
X0255560D01*
X0254360Y0210759D02*
X0255160D01*
X0253160Y0219559D02*
X0255160D01*
X0253160Y0219159D02*
X0255960D01*
X0253560Y0218759D02*
X0256360D01*
X0253960Y0218359D02*
X0257160D01*
X0254360Y0217959D02*
X0257960D01*
X0254760Y0217559D02*
X0258760D01*
X0255160Y0217159D02*
X0259960D01*
X0263160Y0213159D02*
X0268360D01*
X0273160Y0219959D02*
X0275560D01*
X0272760Y0219559D02*
X0275560D01*
X0269960Y0217959D02*
X0273960D01*
X0269160Y0217559D02*
X0273960D01*
X0271960Y0216759D02*
X0275960D01*
X0272360Y0216359D02*
X0275560D01*
X0271960Y0215959D02*
X0274760D01*
X0273960Y0239159D02*
X0276360D01*
X0274360Y0238759D02*
X0276360D01*
X0273160Y0247159D02*
X0275960D01*
X0269960Y0241159D02*
X0274360D01*
X0271160Y0240759D02*
X0274760D01*
X0271960Y0240359D02*
X0275160D01*
X0272760Y0239959D02*
X0275560D01*
X0274760Y0254359D02*
X0275160D01*
X0274760Y0253959D02*
X0275960D01*
X0273160Y0248359D02*
X0273960D01*
X0273160Y0247959D02*
X0274760D01*
X0279160Y0231159D02*
X0281160D01*
X0279160Y0230759D02*
X0281160D01*
X0279160Y0230359D02*
X0281160D01*
X0279160Y0229959D02*
X0281160D01*
X0279160Y0229559D02*
X0281160D01*
X0278760Y0229159D02*
X0281160D01*
X0278760Y0228759D02*
X0281160D01*
X0278760Y0228359D02*
X0281160D01*
X0278760Y0227959D02*
X0281160D01*
X0278360Y0227559D02*
X0281160D01*
X0278360Y0227159D02*
X0281160D01*
X0278360Y0226759D02*
X0281160D01*
X0277960Y0226359D02*
X0281160D01*
X0277960Y0225959D02*
X0281160D01*
X0277560Y0225559D02*
X0281160D01*
X0277560Y0225159D02*
X0280760D01*
X0277160Y0224759D02*
X0280760D01*
X0277160Y0224359D02*
X0280760D01*
X0281960Y0239159D02*
X0283560D01*
X0281960Y0238759D02*
X0283560D01*
X0278360Y0238359D02*
X0278760D01*
X0282360D02*
X0283960D01*
X0278360Y0237959D02*
X0278760D01*
X0282760D02*
X0283960D01*
X0278360Y0237559D02*
X0279160D01*
X0282760D02*
X0284360D01*
X0278360Y0237159D02*
X0279160D01*
X0282760D02*
X0284360D01*
X0278760Y0236759D02*
X0279560D01*
X0283160D02*
X0284360D01*
X0278760Y0236359D02*
X0279960D01*
X0277160Y0235959D02*
X0277960D01*
X0278760D02*
X0279960D01*
X0277560Y0235559D02*
X0278360D01*
X0278760D02*
X0279960D01*
X0277960Y0235159D02*
X0278360D01*
X0279160D02*
X0280360D01*
X0279160Y0234759D02*
X0280360D01*
X0279160Y0234359D02*
X0280360D01*
X0279160Y0233959D02*
X0280760D01*
X0279160Y0233559D02*
X0280760D01*
X0279160Y0233159D02*
X0280760D01*
X0279160Y0232759D02*
X0281160D01*
X0279160Y0232359D02*
X0281160D01*
X0279160Y0231959D02*
X0281160D01*
X0277160Y0244759D02*
X0279160D01*
X0277560Y0244359D02*
X0279560D01*
X0277960Y0243959D02*
X0279960D01*
X0278360Y0243559D02*
X0280360D01*
X0278760Y0243159D02*
X0280760D01*
X0279160Y0242759D02*
X0281160D01*
X0279560Y0242359D02*
X0281560D01*
X0279960Y0241959D02*
X0281960D01*
X0280360Y0241559D02*
X0281960D01*
X0280760Y0241159D02*
X0282360D01*
X0280760Y0240759D02*
X0282760D01*
X0281160Y0240359D02*
X0282760D01*
X0281560Y0239959D02*
X0283160D01*
X0277160Y0251959D02*
X0279560D01*
X0277560Y0251559D02*
X0280360D01*
X0278360Y0251159D02*
X0280760D01*
X0279160Y0250759D02*
X0281560D01*
X0279560Y0250359D02*
X0281960D01*
X0279960Y0249959D02*
X0282360D01*
X0280760Y0249559D02*
X0282760D01*
X0281160Y0249159D02*
X0283160D01*
X0281560Y0248759D02*
X0283560D01*
X0281960Y0248359D02*
X0283960D01*
X0282360Y0247959D02*
X0284360D01*
X0290760Y0231159D02*
X0291960D01*
X0288760Y0239159D02*
X0289960D01*
X0288760Y0238759D02*
X0290360D01*
X0288760Y0238359D02*
X0290360D01*
X0289160Y0237959D02*
X0290360D01*
X0289160Y0237559D02*
X0290760D01*
X0289160Y0237159D02*
X0290760D01*
X0289560Y0236759D02*
X0290760D01*
X0289560Y0236359D02*
X0291160D01*
X0289560Y0235959D02*
X0291160D01*
X0289960Y0235559D02*
X0291160D01*
X0289960Y0235159D02*
X0291160D01*
X0289960Y0234759D02*
X0291160D01*
X0289960Y0234359D02*
X0291560D01*
X0290360Y0233959D02*
X0291560D01*
X0290360Y0233559D02*
X0291560D01*
X0290360Y0233159D02*
X0291560D01*
X0290360Y0232759D02*
X0291560D01*
X0290360Y0232359D02*
X0291560D01*
X0290360Y0231959D02*
X0291960D01*
X0285160Y0245159D02*
X0286760D01*
X0285560Y0244759D02*
X0287160D01*
X0285560Y0244359D02*
X0287560D01*
X0285960Y0243959D02*
X0287560D01*
X0286360Y0243559D02*
X0287960D01*
X0286360Y0243159D02*
X0287960D01*
X0286760Y0242759D02*
X0288360D01*
X0287160Y0242359D02*
X0288760D01*
X0287160Y0241959D02*
X0288760D01*
X0287560Y0241559D02*
X0289160D01*
X0287560Y0241159D02*
X0289160D01*
X0287960Y0240759D02*
X0289560D01*
X0287960Y0240359D02*
X0289560D01*
X0288360Y0239959D02*
X0289560D01*
X0241160Y0215559D02*
X0242760D01*
X0237960Y0223559D02*
X0239560D01*
X0248360Y0215559D02*
X0250360D01*
X0248360Y0207559D02*
X0250760D01*
X0248360Y0231559D02*
X0251160D01*
X0249160Y0223559D02*
X0250360D01*
X0272760Y0247559D02*
X0275560D01*
X0273160Y0239559D02*
X0275960D01*
X0281560D02*
X0283160D01*
X0279160Y0231559D02*
X0281160D01*
X0288360Y0239559D02*
X0289960D01*
X0290360Y0231559D02*
X0291960D01*
X0249960Y0206359D02*
X0252760D01*
X0250360Y0205959D02*
X0253560D01*
X0251160Y0205559D02*
X0254360D01*
X0251960Y0205159D02*
X0254760D01*
X0252760Y0204759D02*
X0254760D01*
X0250760Y0213159D02*
X0253160D01*
X0243160Y0212759D02*
X0244760D01*
X0251160D02*
X0253560D01*
X0243160Y0212359D02*
X0245160D01*
X0251960D02*
X0254360D01*
X0243560Y0211959D02*
X0245560D01*
X0252360D02*
X0254760D01*
X0243960Y0211559D02*
X0245960D01*
X0252760D02*
X0255560D01*
X0244360Y0211159D02*
X0246360D01*
X0244760Y0210759D02*
X0246760D01*
X0244360Y0223159D02*
X0245960D01*
X0244360Y0222759D02*
X0245960D01*
X0244760Y0222359D02*
X0245960D01*
X0244760Y0221959D02*
X0246360D01*
X0251560D02*
X0252760D01*
X0244760Y0221559D02*
X0246360D01*
X0251960D02*
X0253160D01*
X0251960Y0221159D02*
X0253560D01*
X0252360Y0220759D02*
X0253960D01*
X0252360Y0220359D02*
X0254360D01*
X0252760Y0219959D02*
X0254760D01*
X0243560Y0227959D02*
X0244760D01*
X0243560Y0227559D02*
X0244760D01*
X0243560Y0227159D02*
X0244760D01*
X0243560Y0226759D02*
X0244760D01*
X0243560Y0226359D02*
X0245160D01*
X0243960Y0225959D02*
X0245160D01*
X0243960Y0225559D02*
X0245160D01*
X0243960Y0225159D02*
X0245160D01*
X0243960Y0224759D02*
X0245160D01*
X0243960Y0224359D02*
X0245560D01*
X0244360Y0223959D02*
X0245560D01*
X0250760Y0238759D02*
X0256360D01*
X0250760Y0238359D02*
X0255960D01*
X0250360Y0237959D02*
X0255160D01*
X0249960Y0237559D02*
X0254760D01*
X0249960Y0237159D02*
X0254360D01*
X0249560Y0236759D02*
X0254360D01*
X0249560Y0236359D02*
X0253960D01*
X0249160Y0235959D02*
X0253560D01*
X0249160Y0235559D02*
X0253160D01*
X0249160Y0235159D02*
X0252760D01*
X0248760Y0234759D02*
X0252760D01*
X0257560Y0215159D02*
X0273560D01*
X0258360Y0214759D02*
X0273160D01*
X0259160Y0214359D02*
X0272360D01*
X0259960Y0213959D02*
X0271160D01*
X0261160Y0213559D02*
X0269960D01*
X0276360Y0223159D02*
X0280360D01*
X0275960Y0222759D02*
X0279960D01*
X0275560Y0222359D02*
X0279960D01*
X0275560Y0221959D02*
X0279960D01*
X0275160Y0221559D02*
X0279560D01*
X0274760Y0221159D02*
X0279560D01*
X0274360Y0220759D02*
X0279160D01*
X0273960Y0220359D02*
X0278760D01*
X0276360Y0219959D02*
X0278760D01*
X0276360Y0219559D02*
X0278360D01*
X0272360Y0219159D02*
X0277960D01*
X0271560Y0218759D02*
X0277960D01*
X0270760Y0218359D02*
X0277560D01*
X0274760Y0217959D02*
X0277160D01*
X0274760Y0217559D02*
X0276760D01*
X0267960Y0217159D02*
X0276360D01*
X0265960Y0216759D02*
X0271560D01*
X0284360Y0231159D02*
X0285960D01*
X0284760Y0230759D02*
X0285960D01*
X0276760Y0223959D02*
X0280760D01*
X0274760Y0238359D02*
X0276760D01*
X0275560Y0237959D02*
X0277160D01*
X0275960Y0237559D02*
X0277160D01*
X0276360Y0237159D02*
X0277560D01*
X0276360Y0236759D02*
X0277560D01*
X0276760Y0236359D02*
X0277960D01*
X0283160D02*
X0284760D01*
X0283560Y0235959D02*
X0284760D01*
X0283560Y0235559D02*
X0284760D01*
X0283560Y0235159D02*
X0285160D01*
X0283960Y0234759D02*
X0285160D01*
X0283960Y0234359D02*
X0285160D01*
X0283960Y0233959D02*
X0285560D01*
X0283960Y0233559D02*
X0285560D01*
X0284360Y0233159D02*
X0285560D01*
X0284360Y0232759D02*
X0285560D01*
X0284360Y0232359D02*
X0285560D01*
X0284360Y0231959D02*
X0285560D01*
X0283160Y0247159D02*
X0285160D01*
X0273960Y0246759D02*
X0276760D01*
X0283560D02*
X0285560D01*
X0274760Y0246359D02*
X0277160D01*
X0283960D02*
X0285960D01*
X0275160Y0245959D02*
X0277960D01*
X0284360D02*
X0286360D01*
X0275960Y0245559D02*
X0278360D01*
X0284760D02*
X0286360D01*
X0259960Y0245159D02*
X0267560D01*
X0276360D02*
X0278760D01*
X0258760Y0244759D02*
X0268760D01*
X0257560Y0244359D02*
X0269960D01*
X0265560Y0241959D02*
X0273560D01*
X0268760Y0241559D02*
X0273960D01*
X0274360Y0253559D02*
X0277160D01*
X0274760Y0253159D02*
X0277560D01*
X0275560Y0252759D02*
X0278360D01*
X0276360Y0252359D02*
X0279160D01*
X0244360Y0223559D02*
X0245560D01*
X0257160Y0215559D02*
X0274360D01*
X0282760Y0247559D02*
X0284760D01*
X0284360Y0231559D02*
X0285960D01*
X0276760Y0223559D02*
X0280360D01*
X0255560Y0216759D02*
X0261960D01*
X0255960Y0216359D02*
X0271160D01*
X0256360Y0215959D02*
X0271560D01*
X0251160Y0239159D02*
X0256760D01*
Y0243959D02*
X0270760D01*
X0255960Y0243559D02*
X0271560D01*
X0255160Y0243159D02*
X0271960D01*
X0253560Y0241959D02*
X0265160D01*
X0253160Y0241559D02*
X0261960D01*
X0252760Y0241159D02*
X0260760D01*
X0252360Y0240759D02*
X0259560D01*
X0251960Y0240359D02*
X0258760D01*
X0251560Y0239959D02*
X0257960D01*
X0251560Y0239559D02*
X0257560D01*
X0254760Y0242759D02*
X0272760D01*
X0254360Y0242359D02*
X0273160D01*
X0325418Y0215159D02*
X0327018D01*
X0325418Y0214759D02*
X0327018D01*
X0325818Y0214359D02*
X0327418D01*
X0325818Y0213959D02*
X0327818D01*
X0326218Y0213559D02*
X0327818D01*
X0326618Y0213159D02*
X0328218D01*
X0322218Y0223159D02*
X0323418D01*
X0322218Y0222759D02*
X0323418D01*
X0322218Y0222359D02*
X0323418D01*
X0322218Y0221959D02*
X0323818D01*
X0322618Y0221559D02*
X0323818D01*
X0322618Y0221159D02*
X0323818D01*
X0322618Y0220759D02*
X0324218D01*
X0323018Y0220359D02*
X0324218D01*
X0323018Y0219959D02*
X0324618D01*
X0323018Y0219559D02*
X0324618D01*
X0323418Y0219159D02*
X0324618D01*
X0323418Y0218759D02*
X0325018D01*
X0323418Y0218359D02*
X0325018D01*
X0323818Y0217959D02*
X0325418D01*
X0323818Y0217559D02*
X0325418D01*
X0324218Y0217159D02*
X0325818D01*
X0324218Y0216759D02*
X0325818D01*
X0324618Y0216359D02*
X0326218D01*
X0324618Y0215959D02*
X0326218D01*
X0322218Y0227959D02*
X0322618D01*
X0321418Y0227559D02*
X0322618D01*
X0321418Y0227159D02*
X0322618D01*
X0321418Y0226759D02*
X0322618D01*
X0321418Y0226359D02*
X0322618D01*
X0321418Y0225959D02*
X0323018D01*
X0321818Y0225559D02*
X0323018D01*
X0321818Y0225159D02*
X0323018D01*
X0321818Y0224759D02*
X0323018D01*
X0321818Y0224359D02*
X0323018D01*
X0321818Y0223959D02*
X0323018D01*
X0332618Y0207159D02*
X0335018D01*
X0333018Y0206759D02*
X0335818D01*
X0332618Y0215159D02*
X0334618D01*
X0333018Y0214759D02*
X0335018D01*
X0333418Y0214359D02*
X0335418D01*
X0333818Y0213959D02*
X0335818D01*
X0334218Y0213559D02*
X0336218D01*
X0329018Y0210359D02*
X0331018D01*
X0329418Y0209959D02*
X0331418D01*
X0329818Y0209559D02*
X0331818D01*
X0330218Y0209159D02*
X0332218D01*
X0330618Y0208759D02*
X0332618D01*
X0331018Y0208359D02*
X0333418D01*
X0331418Y0207959D02*
X0333818D01*
X0333018Y0223159D02*
X0334218D01*
X0335018D02*
X0335818D01*
X0333418Y0222759D02*
X0334218D01*
X0335018D02*
X0335818D01*
X0333418Y0222359D02*
X0334618D01*
X0335418D02*
X0336218D01*
X0333418Y0221959D02*
X0334618D01*
X0333818Y0221559D02*
X0334618D01*
X0329018Y0221159D02*
X0330218D01*
X0334218D02*
X0335018D01*
X0329018Y0220759D02*
X0330618D01*
X0334218D02*
X0335018D01*
X0329418Y0220359D02*
X0330618D01*
X0334618D02*
X0335018D01*
X0329418Y0219959D02*
X0331018D01*
X0329818Y0219559D02*
X0331418D01*
X0329818Y0219159D02*
X0331418D01*
X0330218Y0218759D02*
X0331818D01*
X0330218Y0218359D02*
X0331818D01*
X0330618Y0217959D02*
X0332218D01*
X0330618Y0217559D02*
X0332618D01*
X0331018Y0217159D02*
X0332618D01*
X0331418Y0216759D02*
X0333018D01*
X0331818Y0216359D02*
X0333418D01*
X0331818Y0215959D02*
X0333818D01*
X0331818Y0231159D02*
X0334618D01*
X0331818Y0230759D02*
X0334618D01*
X0331818Y0230359D02*
X0334618D01*
X0331818Y0229959D02*
X0334618D01*
X0331818Y0229559D02*
X0334218D01*
X0331818Y0229159D02*
X0334218D01*
X0331818Y0228759D02*
X0334218D01*
X0331818Y0228359D02*
X0334218D01*
X0331818Y0227959D02*
X0334218D01*
X0331818Y0227559D02*
X0334218D01*
X0332218Y0227159D02*
X0334218D01*
X0332218Y0226759D02*
X0333818D01*
X0332218Y0226359D02*
X0333818D01*
X0332218Y0225959D02*
X0333818D01*
X0332218Y0225559D02*
X0333818D01*
X0332618Y0225159D02*
X0334218D01*
X0332618Y0224759D02*
X0334218D01*
X0332618Y0224359D02*
X0334218D01*
X0332618Y0223959D02*
X0334218D01*
X0332618Y0234359D02*
X0336218D01*
X0332618Y0233959D02*
X0336218D01*
X0332218Y0233559D02*
X0335818D01*
X0332218Y0233159D02*
X0335818D01*
X0332218Y0232759D02*
X0335418D01*
X0332218Y0232359D02*
X0335418D01*
X0332218Y0231959D02*
X0335018D01*
X0337418Y0204359D02*
X0338618D01*
X0337418Y0211159D02*
X0339418D01*
X0338218Y0210759D02*
X0339018D01*
X0337018Y0219559D02*
X0339018D01*
X0337018Y0219159D02*
X0339818D01*
X0337418Y0218759D02*
X0340218D01*
X0337818Y0218359D02*
X0341018D01*
X0338218Y0217959D02*
X0341818D01*
X0338618Y0217559D02*
X0342618D01*
X0339018Y0217159D02*
X0343818D01*
X0347018Y0213159D02*
X0352218D01*
X0357018Y0219959D02*
X0359418D01*
X0356618Y0219559D02*
X0359418D01*
X0353818Y0217959D02*
X0357818D01*
X0353018Y0217559D02*
X0357818D01*
X0355818Y0216759D02*
X0359818D01*
X0356218Y0216359D02*
X0359418D01*
X0355818Y0215959D02*
X0358618D01*
X0357818Y0239159D02*
X0360218D01*
X0358218Y0238759D02*
X0360218D01*
X0357018Y0247159D02*
X0359818D01*
X0353818Y0241159D02*
X0358218D01*
X0355018Y0240759D02*
X0358618D01*
X0355818Y0240359D02*
X0359018D01*
X0356618Y0239959D02*
X0359418D01*
X0358618Y0254359D02*
X0359018D01*
X0358618Y0253959D02*
X0359818D01*
X0357018Y0248359D02*
X0357818D01*
X0357018Y0247959D02*
X0358618D01*
X0363018Y0231159D02*
X0365018D01*
X0363018Y0230759D02*
X0365018D01*
X0363018Y0230359D02*
X0365018D01*
X0363018Y0229959D02*
X0365018D01*
X0363018Y0229559D02*
X0365018D01*
X0362618Y0229159D02*
X0365018D01*
X0362618Y0228759D02*
X0365018D01*
X0362618Y0228359D02*
X0365018D01*
X0362618Y0227959D02*
X0365018D01*
X0362218Y0227559D02*
X0365018D01*
X0362218Y0227159D02*
X0365018D01*
X0362218Y0226759D02*
X0365018D01*
X0361818Y0226359D02*
X0365018D01*
X0361818Y0225959D02*
X0365018D01*
X0361418Y0225559D02*
X0365018D01*
X0361418Y0225159D02*
X0364618D01*
X0361018Y0224759D02*
X0364618D01*
X0361018Y0224359D02*
X0364618D01*
X0365818Y0239159D02*
X0367418D01*
X0365818Y0238759D02*
X0367418D01*
X0362218Y0238359D02*
X0362618D01*
X0366218D02*
X0367818D01*
X0362218Y0237959D02*
X0362618D01*
X0366618D02*
X0367818D01*
X0362218Y0237559D02*
X0363018D01*
X0366618D02*
X0368218D01*
X0362218Y0237159D02*
X0363018D01*
X0366618D02*
X0368218D01*
X0362618Y0236759D02*
X0363418D01*
X0367018D02*
X0368218D01*
X0362618Y0236359D02*
X0363818D01*
X0361018Y0235959D02*
X0361818D01*
X0362618D02*
X0363818D01*
X0361418Y0235559D02*
X0362218D01*
X0362618D02*
X0363818D01*
X0361818Y0235159D02*
X0362218D01*
X0363018D02*
X0364218D01*
X0363018Y0234759D02*
X0364218D01*
X0363018Y0234359D02*
X0364218D01*
X0363018Y0233959D02*
X0364618D01*
X0363018Y0233559D02*
X0364618D01*
X0363018Y0233159D02*
X0364618D01*
X0363018Y0232759D02*
X0365018D01*
X0363018Y0232359D02*
X0365018D01*
X0363018Y0231959D02*
X0365018D01*
X0361018Y0244759D02*
X0363018D01*
X0361418Y0244359D02*
X0363418D01*
X0361818Y0243959D02*
X0363818D01*
X0362218Y0243559D02*
X0364218D01*
X0362618Y0243159D02*
X0364618D01*
X0363018Y0242759D02*
X0365018D01*
X0363418Y0242359D02*
X0365418D01*
X0363818Y0241959D02*
X0365818D01*
X0364218Y0241559D02*
X0365818D01*
X0364618Y0241159D02*
X0366218D01*
X0364618Y0240759D02*
X0366618D01*
X0365018Y0240359D02*
X0366618D01*
X0365418Y0239959D02*
X0367018D01*
X0361018Y0251959D02*
X0363418D01*
X0361418Y0251559D02*
X0364218D01*
X0362218Y0251159D02*
X0364618D01*
X0363018Y0250759D02*
X0365418D01*
X0363418Y0250359D02*
X0365818D01*
X0363818Y0249959D02*
X0366218D01*
X0364618Y0249559D02*
X0366618D01*
X0365018Y0249159D02*
X0367018D01*
X0365418Y0248759D02*
X0367418D01*
X0365818Y0248359D02*
X0367818D01*
X0366218Y0247959D02*
X0368218D01*
X0374618Y0231159D02*
X0375818D01*
X0372618Y0239159D02*
X0373818D01*
X0372618Y0238759D02*
X0374218D01*
X0372618Y0238359D02*
X0374218D01*
X0373018Y0237959D02*
X0374218D01*
X0373018Y0237559D02*
X0374618D01*
X0373018Y0237159D02*
X0374618D01*
X0373418Y0236759D02*
X0374618D01*
X0373418Y0236359D02*
X0375018D01*
X0373418Y0235959D02*
X0375018D01*
X0373818Y0235559D02*
X0375018D01*
X0373818Y0235159D02*
X0375018D01*
X0373818Y0234759D02*
X0375018D01*
X0373818Y0234359D02*
X0375418D01*
X0374218Y0233959D02*
X0375418D01*
X0374218Y0233559D02*
X0375418D01*
X0374218Y0233159D02*
X0375418D01*
X0374218Y0232759D02*
X0375418D01*
X0374218Y0232359D02*
X0375418D01*
X0374218Y0231959D02*
X0375818D01*
X0369018Y0245159D02*
X0370618D01*
X0369418Y0244759D02*
X0371018D01*
X0369418Y0244359D02*
X0371418D01*
X0369818Y0243959D02*
X0371418D01*
X0370218Y0243559D02*
X0371818D01*
X0370218Y0243159D02*
X0371818D01*
X0370618Y0242759D02*
X0372218D01*
X0371018Y0242359D02*
X0372618D01*
X0371018Y0241959D02*
X0372618D01*
X0371418Y0241559D02*
X0373018D01*
X0371418Y0241159D02*
X0373018D01*
X0371818Y0240759D02*
X0373418D01*
X0371818Y0240359D02*
X0373418D01*
X0372218Y0239959D02*
X0373418D01*
X0325018Y0215559D02*
X0326618D01*
X0321818Y0223559D02*
X0323418D01*
X0332218Y0215559D02*
X0334218D01*
X0332218Y0207559D02*
X0334618D01*
X0332218Y0231559D02*
X0335018D01*
X0333018Y0223559D02*
X0334218D01*
X0356618Y0247559D02*
X0359418D01*
X0357018Y0239559D02*
X0359818D01*
X0365418D02*
X0367018D01*
X0363018Y0231559D02*
X0365018D01*
X0372218Y0239559D02*
X0373818D01*
X0374218Y0231559D02*
X0375818D01*
X0333818Y0206359D02*
X0336618D01*
X0334218Y0205959D02*
X0337418D01*
X0335018Y0205559D02*
X0338218D01*
X0335818Y0205159D02*
X0338618D01*
X0336618Y0204759D02*
X0338618D01*
X0334618Y0213159D02*
X0337018D01*
X0327018Y0212759D02*
X0328618D01*
X0335018D02*
X0337418D01*
X0327018Y0212359D02*
X0329018D01*
X0335818D02*
X0338218D01*
X0327418Y0211959D02*
X0329418D01*
X0336218D02*
X0338618D01*
X0327818Y0211559D02*
X0329818D01*
X0336618D02*
X0339418D01*
X0328218Y0211159D02*
X0330218D01*
X0328618Y0210759D02*
X0330618D01*
X0328218Y0223159D02*
X0329818D01*
X0328218Y0222759D02*
X0329818D01*
X0328618Y0222359D02*
X0329818D01*
X0328618Y0221959D02*
X0330218D01*
X0335418D02*
X0336618D01*
X0328618Y0221559D02*
X0330218D01*
X0335818D02*
X0337018D01*
X0335818Y0221159D02*
X0337418D01*
X0336218Y0220759D02*
X0337818D01*
X0336218Y0220359D02*
X0338218D01*
X0336618Y0219959D02*
X0338618D01*
X0327418Y0227959D02*
X0328618D01*
X0327418Y0227559D02*
X0328618D01*
X0327418Y0227159D02*
X0328618D01*
X0327418Y0226759D02*
X0328618D01*
X0327418Y0226359D02*
X0329018D01*
X0327818Y0225959D02*
X0329018D01*
X0327818Y0225559D02*
X0329018D01*
X0327818Y0225159D02*
X0329018D01*
X0327818Y0224759D02*
X0329018D01*
X0327818Y0224359D02*
X0329418D01*
X0328218Y0223959D02*
X0329418D01*
X0334618Y0238759D02*
X0340218D01*
X0334618Y0238359D02*
X0339818D01*
X0334218Y0237959D02*
X0339018D01*
X0333818Y0237559D02*
X0338618D01*
X0333818Y0237159D02*
X0338218D01*
X0333418Y0236759D02*
X0338218D01*
X0333418Y0236359D02*
X0337818D01*
X0333018Y0235959D02*
X0337418D01*
X0333018Y0235559D02*
X0337018D01*
X0333018Y0235159D02*
X0336618D01*
X0332618Y0234759D02*
X0336618D01*
X0341418Y0215159D02*
X0357418D01*
X0342218Y0214759D02*
X0357018D01*
X0343018Y0214359D02*
X0356218D01*
X0343818Y0213959D02*
X0355018D01*
X0345018Y0213559D02*
X0353818D01*
X0360218Y0223159D02*
X0364218D01*
X0359818Y0222759D02*
X0363818D01*
X0359418Y0222359D02*
X0363818D01*
X0359418Y0221959D02*
X0363818D01*
X0359018Y0221559D02*
X0363418D01*
X0358618Y0221159D02*
X0363418D01*
X0358218Y0220759D02*
X0363018D01*
X0357818Y0220359D02*
X0362618D01*
X0360218Y0219959D02*
X0362618D01*
X0360218Y0219559D02*
X0362218D01*
X0356218Y0219159D02*
X0361818D01*
X0355418Y0218759D02*
X0361818D01*
X0354618Y0218359D02*
X0361418D01*
X0358618Y0217959D02*
X0361018D01*
X0358618Y0217559D02*
X0360618D01*
X0351818Y0217159D02*
X0360218D01*
X0349818Y0216759D02*
X0355418D01*
X0368218Y0231159D02*
X0369818D01*
X0368618Y0230759D02*
X0369818D01*
X0360618Y0223959D02*
X0364618D01*
X0358618Y0238359D02*
X0360618D01*
X0359418Y0237959D02*
X0361018D01*
X0359818Y0237559D02*
X0361018D01*
X0360218Y0237159D02*
X0361418D01*
X0360218Y0236759D02*
X0361418D01*
X0360618Y0236359D02*
X0361818D01*
X0367018D02*
X0368618D01*
X0367418Y0235959D02*
X0368618D01*
X0367418Y0235559D02*
X0368618D01*
X0367418Y0235159D02*
X0369018D01*
X0367818Y0234759D02*
X0369018D01*
X0367818Y0234359D02*
X0369018D01*
X0367818Y0233959D02*
X0369418D01*
X0367818Y0233559D02*
X0369418D01*
X0368218Y0233159D02*
X0369418D01*
X0368218Y0232759D02*
X0369418D01*
X0368218Y0232359D02*
X0369418D01*
X0368218Y0231959D02*
X0369418D01*
X0367018Y0247159D02*
X0369018D01*
X0357818Y0246759D02*
X0360618D01*
X0367418D02*
X0369418D01*
X0358618Y0246359D02*
X0361018D01*
X0367818D02*
X0369818D01*
X0359018Y0245959D02*
X0361818D01*
X0368218D02*
X0370218D01*
X0359818Y0245559D02*
X0362218D01*
X0368618D02*
X0370218D01*
X0343818Y0245159D02*
X0351418D01*
X0360218D02*
X0362618D01*
X0342618Y0244759D02*
X0352618D01*
X0341418Y0244359D02*
X0353818D01*
X0349418Y0241959D02*
X0357418D01*
X0352618Y0241559D02*
X0357818D01*
X0358218Y0253559D02*
X0361018D01*
X0358618Y0253159D02*
X0361418D01*
X0359418Y0252759D02*
X0362218D01*
X0360218Y0252359D02*
X0363018D01*
X0328218Y0223559D02*
X0329418D01*
X0341018Y0215559D02*
X0358218D01*
X0366618Y0247559D02*
X0368618D01*
X0368218Y0231559D02*
X0369818D01*
X0360618Y0223559D02*
X0364218D01*
X0339418Y0216759D02*
X0345818D01*
X0339818Y0216359D02*
X0355018D01*
X0340218Y0215959D02*
X0355418D01*
X0335018Y0239159D02*
X0340618D01*
Y0243959D02*
X0354618D01*
X0339818Y0243559D02*
X0355418D01*
X0339018Y0243159D02*
X0355818D01*
X0337418Y0241959D02*
X0349018D01*
X0337018Y0241559D02*
X0345818D01*
X0336618Y0241159D02*
X0344618D01*
X0336218Y0240759D02*
X0343418D01*
X0335818Y0240359D02*
X0342618D01*
X0335418Y0239959D02*
X0341818D01*
X0335418Y0239559D02*
X0341418D01*
X0338618Y0242759D02*
X0356618D01*
X0338218Y0242359D02*
X0357018D01*
X0409277Y0215159D02*
X0410877D01*
X0409277Y0214759D02*
X0410877D01*
X0409677Y0214359D02*
X0411277D01*
X0409677Y0213959D02*
X0411677D01*
X0410077Y0213559D02*
X0411677D01*
X0410477Y0213159D02*
X0412077D01*
X0406077Y0223159D02*
X0407277D01*
X0406077Y0222759D02*
X0407277D01*
X0406077Y0222359D02*
X0407277D01*
X0406077Y0221959D02*
X0407677D01*
X0406477Y0221559D02*
X0407677D01*
X0406477Y0221159D02*
X0407677D01*
X0406477Y0220759D02*
X0408077D01*
X0406877Y0220359D02*
X0408077D01*
X0406877Y0219959D02*
X0408477D01*
X0406877Y0219559D02*
X0408477D01*
X0407277Y0219159D02*
X0408477D01*
X0407277Y0218759D02*
X0408877D01*
X0407277Y0218359D02*
X0408877D01*
X0407677Y0217959D02*
X0409277D01*
X0407677Y0217559D02*
X0409277D01*
X0408077Y0217159D02*
X0409677D01*
X0408077Y0216759D02*
X0409677D01*
X0408477Y0216359D02*
X0410077D01*
X0408477Y0215959D02*
X0410077D01*
X0406077Y0227959D02*
X0406477D01*
X0405277Y0227559D02*
X0406477D01*
X0405277Y0227159D02*
X0406477D01*
X0405277Y0226759D02*
X0406477D01*
X0405277Y0226359D02*
X0406477D01*
X0405277Y0225959D02*
X0406877D01*
X0405677Y0225559D02*
X0406877D01*
X0405677Y0225159D02*
X0406877D01*
X0405677Y0224759D02*
X0406877D01*
X0405677Y0224359D02*
X0406877D01*
X0405677Y0223959D02*
X0406877D01*
X0416477Y0207159D02*
X0418877D01*
X0416877Y0206759D02*
X0419677D01*
X0416477Y0215159D02*
X0418477D01*
X0416877Y0214759D02*
X0418877D01*
X0417277Y0214359D02*
X0419277D01*
X0417677Y0213959D02*
X0419677D01*
X0418077Y0213559D02*
X0420077D01*
X0412877Y0210359D02*
X0414877D01*
X0413277Y0209959D02*
X0415277D01*
X0413677Y0209559D02*
X0415677D01*
X0414077Y0209159D02*
X0416077D01*
X0414477Y0208759D02*
X0416477D01*
X0414877Y0208359D02*
X0417277D01*
X0415277Y0207959D02*
X0417677D01*
X0416877Y0223159D02*
X0418077D01*
X0418877D02*
X0419677D01*
X0417277Y0222759D02*
X0418077D01*
X0418877D02*
X0419677D01*
X0417277Y0222359D02*
X0418477D01*
X0419277D02*
X0420077D01*
X0417277Y0221959D02*
X0418477D01*
X0417677Y0221559D02*
X0418477D01*
X0412877Y0221159D02*
X0414077D01*
X0418077D02*
X0418877D01*
X0412877Y0220759D02*
X0414477D01*
X0418077D02*
X0418877D01*
X0413277Y0220359D02*
X0414477D01*
X0418477D02*
X0418877D01*
X0413277Y0219959D02*
X0414877D01*
X0413677Y0219559D02*
X0415277D01*
X0413677Y0219159D02*
X0415277D01*
X0414077Y0218759D02*
X0415677D01*
X0414077Y0218359D02*
X0415677D01*
X0414477Y0217959D02*
X0416077D01*
X0414477Y0217559D02*
X0416477D01*
X0414877Y0217159D02*
X0416477D01*
X0415277Y0216759D02*
X0416877D01*
X0415677Y0216359D02*
X0417277D01*
X0415677Y0215959D02*
X0417677D01*
X0415677Y0231159D02*
X0418477D01*
X0415677Y0230759D02*
X0418477D01*
X0415677Y0230359D02*
X0418477D01*
X0415677Y0229959D02*
X0418477D01*
X0415677Y0229559D02*
X0418077D01*
X0415677Y0229159D02*
X0418077D01*
X0415677Y0228759D02*
X0418077D01*
X0415677Y0228359D02*
X0418077D01*
X0415677Y0227959D02*
X0418077D01*
X0415677Y0227559D02*
X0418077D01*
X0416077Y0227159D02*
X0418077D01*
X0416077Y0226759D02*
X0417677D01*
X0416077Y0226359D02*
X0417677D01*
X0416077Y0225959D02*
X0417677D01*
X0416077Y0225559D02*
X0417677D01*
X0416477Y0225159D02*
X0418077D01*
X0416477Y0224759D02*
X0418077D01*
X0416477Y0224359D02*
X0418077D01*
X0416477Y0223959D02*
X0418077D01*
X0416477Y0234359D02*
X0420077D01*
X0416477Y0233959D02*
X0420077D01*
X0416077Y0233559D02*
X0419677D01*
X0416077Y0233159D02*
X0419677D01*
X0416077Y0232759D02*
X0419277D01*
X0416077Y0232359D02*
X0419277D01*
X0416077Y0231959D02*
X0418877D01*
X0421277Y0204359D02*
X0422477D01*
X0421277Y0211159D02*
X0423277D01*
X0422077Y0210759D02*
X0422877D01*
X0420877Y0219559D02*
X0422877D01*
X0420877Y0219159D02*
X0423677D01*
X0421277Y0218759D02*
X0424077D01*
X0421677Y0218359D02*
X0424877D01*
X0422077Y0217959D02*
X0425677D01*
X0422477Y0217559D02*
X0426477D01*
X0422877Y0217159D02*
X0427677D01*
X0430877Y0213159D02*
X0436077D01*
X0440877Y0219959D02*
X0443277D01*
X0440477Y0219559D02*
X0443277D01*
X0437677Y0217959D02*
X0441677D01*
X0436877Y0217559D02*
X0441677D01*
X0439677Y0216759D02*
X0443677D01*
X0440077Y0216359D02*
X0443277D01*
X0439677Y0215959D02*
X0442477D01*
X0441677Y0239159D02*
X0444077D01*
X0442077Y0238759D02*
X0444077D01*
X0440877Y0247159D02*
X0443677D01*
X0437677Y0241159D02*
X0442077D01*
X0438877Y0240759D02*
X0442477D01*
X0439677Y0240359D02*
X0442877D01*
X0440477Y0239959D02*
X0443277D01*
X0442477Y0254359D02*
X0442877D01*
X0442477Y0253959D02*
X0443677D01*
X0440877Y0248359D02*
X0441677D01*
X0440877Y0247959D02*
X0442477D01*
X0446877Y0231159D02*
X0448877D01*
X0446877Y0230759D02*
X0448877D01*
X0446877Y0230359D02*
X0448877D01*
X0446877Y0229959D02*
X0448877D01*
X0446877Y0229559D02*
X0448877D01*
X0446477Y0229159D02*
X0448877D01*
X0446477Y0228759D02*
X0448877D01*
X0446477Y0228359D02*
X0448877D01*
X0446477Y0227959D02*
X0448877D01*
X0446077Y0227559D02*
X0448877D01*
X0446077Y0227159D02*
X0448877D01*
X0446077Y0226759D02*
X0448877D01*
X0445677Y0226359D02*
X0448877D01*
X0445677Y0225959D02*
X0448877D01*
X0445277Y0225559D02*
X0448877D01*
X0445277Y0225159D02*
X0448477D01*
X0444877Y0224759D02*
X0448477D01*
X0444877Y0224359D02*
X0448477D01*
X0449677Y0239159D02*
X0451277D01*
X0449677Y0238759D02*
X0451277D01*
X0446077Y0238359D02*
X0446477D01*
X0450077D02*
X0451677D01*
X0446077Y0237959D02*
X0446477D01*
X0450477D02*
X0451677D01*
X0446077Y0237559D02*
X0446877D01*
X0450477D02*
X0452077D01*
X0446077Y0237159D02*
X0446877D01*
X0450477D02*
X0452077D01*
X0446477Y0236759D02*
X0447277D01*
X0450877D02*
X0452077D01*
X0446477Y0236359D02*
X0447677D01*
X0444877Y0235959D02*
X0445677D01*
X0446477D02*
X0447677D01*
X0445277Y0235559D02*
X0446077D01*
X0446477D02*
X0447677D01*
X0445677Y0235159D02*
X0446077D01*
X0446877D02*
X0448077D01*
X0446877Y0234759D02*
X0448077D01*
X0446877Y0234359D02*
X0448077D01*
X0446877Y0233959D02*
X0448477D01*
X0446877Y0233559D02*
X0448477D01*
X0446877Y0233159D02*
X0448477D01*
X0446877Y0232759D02*
X0448877D01*
X0446877Y0232359D02*
X0448877D01*
X0446877Y0231959D02*
X0448877D01*
X0444877Y0244759D02*
X0446877D01*
X0445277Y0244359D02*
X0447277D01*
X0445677Y0243959D02*
X0447677D01*
X0446077Y0243559D02*
X0448077D01*
X0446477Y0243159D02*
X0448477D01*
X0446877Y0242759D02*
X0448877D01*
X0447277Y0242359D02*
X0449277D01*
X0447677Y0241959D02*
X0449677D01*
X0448077Y0241559D02*
X0449677D01*
X0448477Y0241159D02*
X0450077D01*
X0448477Y0240759D02*
X0450477D01*
X0448877Y0240359D02*
X0450477D01*
X0449277Y0239959D02*
X0450877D01*
X0444877Y0251959D02*
X0447277D01*
X0445277Y0251559D02*
X0448077D01*
X0446077Y0251159D02*
X0448477D01*
X0446877Y0250759D02*
X0449277D01*
X0447277Y0250359D02*
X0449677D01*
X0447677Y0249959D02*
X0450077D01*
X0448477Y0249559D02*
X0450477D01*
X0448877Y0249159D02*
X0450877D01*
X0449277Y0248759D02*
X0451277D01*
X0449677Y0248359D02*
X0451677D01*
X0450077Y0247959D02*
X0452077D01*
X0458477Y0231159D02*
X0459677D01*
X0456477Y0239159D02*
X0457677D01*
X0456477Y0238759D02*
X0458077D01*
X0456477Y0238359D02*
X0458077D01*
X0456877Y0237959D02*
X0458077D01*
X0456877Y0237559D02*
X0458477D01*
X0456877Y0237159D02*
X0458477D01*
X0457277Y0236759D02*
X0458477D01*
X0457277Y0236359D02*
X0458877D01*
X0457277Y0235959D02*
X0458877D01*
X0457677Y0235559D02*
X0458877D01*
X0457677Y0235159D02*
X0458877D01*
X0457677Y0234759D02*
X0458877D01*
X0457677Y0234359D02*
X0459277D01*
X0458077Y0233959D02*
X0459277D01*
X0458077Y0233559D02*
X0459277D01*
X0458077Y0233159D02*
X0459277D01*
X0458077Y0232759D02*
X0459277D01*
X0458077Y0232359D02*
X0459277D01*
X0458077Y0231959D02*
X0459677D01*
X0452877Y0245159D02*
X0454477D01*
X0453277Y0244759D02*
X0454877D01*
X0453277Y0244359D02*
X0455277D01*
X0453677Y0243959D02*
X0455277D01*
X0454077Y0243559D02*
X0455677D01*
X0454077Y0243159D02*
X0455677D01*
X0454477Y0242759D02*
X0456077D01*
X0454877Y0242359D02*
X0456477D01*
X0454877Y0241959D02*
X0456477D01*
X0455277Y0241559D02*
X0456877D01*
X0455277Y0241159D02*
X0456877D01*
X0455677Y0240759D02*
X0457277D01*
X0455677Y0240359D02*
X0457277D01*
X0456077Y0239959D02*
X0457277D01*
X0408877Y0215559D02*
X0410477D01*
X0405677Y0223559D02*
X0407277D01*
X0416077Y0215559D02*
X0418077D01*
X0416077Y0207559D02*
X0418477D01*
X0416077Y0231559D02*
X0418877D01*
X0416877Y0223559D02*
X0418077D01*
X0440477Y0247559D02*
X0443277D01*
X0440877Y0239559D02*
X0443677D01*
X0449277D02*
X0450877D01*
X0446877Y0231559D02*
X0448877D01*
X0456077Y0239559D02*
X0457677D01*
X0458077Y0231559D02*
X0459677D01*
X0417677Y0206359D02*
X0420477D01*
X0418077Y0205959D02*
X0421277D01*
X0418877Y0205559D02*
X0422077D01*
X0419677Y0205159D02*
X0422477D01*
X0420477Y0204759D02*
X0422477D01*
X0418477Y0213159D02*
X0420877D01*
X0410877Y0212759D02*
X0412477D01*
X0418877D02*
X0421277D01*
X0410877Y0212359D02*
X0412877D01*
X0419677D02*
X0422077D01*
X0411277Y0211959D02*
X0413277D01*
X0420077D02*
X0422477D01*
X0411677Y0211559D02*
X0413677D01*
X0420477D02*
X0423277D01*
X0412077Y0211159D02*
X0414077D01*
X0412477Y0210759D02*
X0414477D01*
X0412077Y0223159D02*
X0413677D01*
X0412077Y0222759D02*
X0413677D01*
X0412477Y0222359D02*
X0413677D01*
X0412477Y0221959D02*
X0414077D01*
X0419277D02*
X0420477D01*
X0412477Y0221559D02*
X0414077D01*
X0419677D02*
X0420877D01*
X0419677Y0221159D02*
X0421277D01*
X0420077Y0220759D02*
X0421677D01*
X0420077Y0220359D02*
X0422077D01*
X0420477Y0219959D02*
X0422477D01*
X0411277Y0227959D02*
X0412477D01*
X0411277Y0227559D02*
X0412477D01*
X0411277Y0227159D02*
X0412477D01*
X0411277Y0226759D02*
X0412477D01*
X0411277Y0226359D02*
X0412877D01*
X0411677Y0225959D02*
X0412877D01*
X0411677Y0225559D02*
X0412877D01*
X0411677Y0225159D02*
X0412877D01*
X0411677Y0224759D02*
X0412877D01*
X0411677Y0224359D02*
X0413277D01*
X0412077Y0223959D02*
X0413277D01*
X0418477Y0238759D02*
X0424077D01*
X0418477Y0238359D02*
X0423677D01*
X0418077Y0237959D02*
X0422877D01*
X0417677Y0237559D02*
X0422477D01*
X0417677Y0237159D02*
X0422077D01*
X0417277Y0236759D02*
X0422077D01*
X0417277Y0236359D02*
X0421677D01*
X0416877Y0235959D02*
X0421277D01*
X0416877Y0235559D02*
X0420877D01*
X0416877Y0235159D02*
X0420477D01*
X0416477Y0234759D02*
X0420477D01*
X0425277Y0215159D02*
X0441277D01*
X0426077Y0214759D02*
X0440877D01*
X0426877Y0214359D02*
X0440077D01*
X0427677Y0213959D02*
X0438877D01*
X0428877Y0213559D02*
X0437677D01*
X0444077Y0223159D02*
X0448077D01*
X0443677Y0222759D02*
X0447677D01*
X0443277Y0222359D02*
X0447677D01*
X0443277Y0221959D02*
X0447677D01*
X0442877Y0221559D02*
X0447277D01*
X0442477Y0221159D02*
X0447277D01*
X0442077Y0220759D02*
X0446877D01*
X0441677Y0220359D02*
X0446477D01*
X0444077Y0219959D02*
X0446477D01*
X0444077Y0219559D02*
X0446077D01*
X0440077Y0219159D02*
X0445677D01*
X0439277Y0218759D02*
X0445677D01*
X0438477Y0218359D02*
X0445277D01*
X0442477Y0217959D02*
X0444877D01*
X0442477Y0217559D02*
X0444477D01*
X0435677Y0217159D02*
X0444077D01*
X0433677Y0216759D02*
X0439277D01*
X0452077Y0231159D02*
X0453677D01*
X0452477Y0230759D02*
X0453677D01*
X0444477Y0223959D02*
X0448477D01*
X0442477Y0238359D02*
X0444477D01*
X0443277Y0237959D02*
X0444877D01*
X0443677Y0237559D02*
X0444877D01*
X0444077Y0237159D02*
X0445277D01*
X0444077Y0236759D02*
X0445277D01*
X0444477Y0236359D02*
X0445677D01*
X0450877D02*
X0452477D01*
X0451277Y0235959D02*
X0452477D01*
X0451277Y0235559D02*
X0452477D01*
X0451277Y0235159D02*
X0452877D01*
X0451677Y0234759D02*
X0452877D01*
X0451677Y0234359D02*
X0452877D01*
X0451677Y0233959D02*
X0453277D01*
X0451677Y0233559D02*
X0453277D01*
X0452077Y0233159D02*
X0453277D01*
X0452077Y0232759D02*
X0453277D01*
X0452077Y0232359D02*
X0453277D01*
X0452077Y0231959D02*
X0453277D01*
X0450877Y0247159D02*
X0452877D01*
X0441677Y0246759D02*
X0444477D01*
X0451277D02*
X0453277D01*
X0442477Y0246359D02*
X0444877D01*
X0451677D02*
X0453677D01*
X0442877Y0245959D02*
X0445677D01*
X0452077D02*
X0454077D01*
X0443677Y0245559D02*
X0446077D01*
X0452477D02*
X0454077D01*
X0427677Y0245159D02*
X0435277D01*
X0444077D02*
X0446477D01*
X0426477Y0244759D02*
X0436477D01*
X0425277Y0244359D02*
X0437677D01*
X0433277Y0241959D02*
X0441277D01*
X0436477Y0241559D02*
X0441677D01*
X0442077Y0253559D02*
X0444877D01*
X0442477Y0253159D02*
X0445277D01*
X0443277Y0252759D02*
X0446077D01*
X0444077Y0252359D02*
X0446877D01*
X0412077Y0223559D02*
X0413277D01*
X0424877Y0215559D02*
X0442077D01*
X0450477Y0247559D02*
X0452477D01*
X0452077Y0231559D02*
X0453677D01*
X0444477Y0223559D02*
X0448077D01*
X0423277Y0216759D02*
X0429677D01*
X0423677Y0216359D02*
X0438877D01*
X0424077Y0215959D02*
X0439277D01*
X0418877Y0239159D02*
X0424477D01*
Y0243959D02*
X0438477D01*
X0423677Y0243559D02*
X0439277D01*
X0422877Y0243159D02*
X0439677D01*
X0421277Y0241959D02*
X0432877D01*
X0420877Y0241559D02*
X0429677D01*
X0420477Y0241159D02*
X0428477D01*
X0420077Y0240759D02*
X0427277D01*
X0419677Y0240359D02*
X0426477D01*
X0419277Y0239959D02*
X0425677D01*
X0419277Y0239559D02*
X0425277D01*
X0422477Y0242759D02*
X0440477D01*
X0422077Y0242359D02*
X0440877D01*
X0493135Y0215159D02*
X0494735D01*
X0493135Y0214759D02*
X0494735D01*
X0493535Y0214359D02*
X0495135D01*
X0493535Y0213959D02*
X0495535D01*
X0493935Y0213559D02*
X0495535D01*
X0494335Y0213159D02*
X0495935D01*
X0489935Y0223159D02*
X0491135D01*
X0489935Y0222759D02*
X0491135D01*
X0489935Y0222359D02*
X0491135D01*
X0489935Y0221959D02*
X0491535D01*
X0490335Y0221559D02*
X0491535D01*
X0490335Y0221159D02*
X0491535D01*
X0490335Y0220759D02*
X0491935D01*
X0490735Y0220359D02*
X0491935D01*
X0490735Y0219959D02*
X0492335D01*
X0490735Y0219559D02*
X0492335D01*
X0491135Y0219159D02*
X0492335D01*
X0491135Y0218759D02*
X0492735D01*
X0491135Y0218359D02*
X0492735D01*
X0491535Y0217959D02*
X0493135D01*
X0491535Y0217559D02*
X0493135D01*
X0491935Y0217159D02*
X0493535D01*
X0491935Y0216759D02*
X0493535D01*
X0492335Y0216359D02*
X0493935D01*
X0492335Y0215959D02*
X0493935D01*
X0489935Y0227959D02*
X0490335D01*
X0489135Y0227559D02*
X0490335D01*
X0489135Y0227159D02*
X0490335D01*
X0489135Y0226759D02*
X0490335D01*
X0489135Y0226359D02*
X0490335D01*
X0489135Y0225959D02*
X0490735D01*
X0489535Y0225559D02*
X0490735D01*
X0489535Y0225159D02*
X0490735D01*
X0489535Y0224759D02*
X0490735D01*
X0489535Y0224359D02*
X0490735D01*
X0489535Y0223959D02*
X0490735D01*
X0500335Y0207159D02*
X0502735D01*
X0500735Y0206759D02*
X0503535D01*
X0500335Y0215159D02*
X0502335D01*
X0500735Y0214759D02*
X0502735D01*
X0501135Y0214359D02*
X0503135D01*
X0501535Y0213959D02*
X0503535D01*
X0501935Y0213559D02*
X0503935D01*
X0496735Y0210359D02*
X0498735D01*
X0497135Y0209959D02*
X0499135D01*
X0497535Y0209559D02*
X0499535D01*
X0497935Y0209159D02*
X0499935D01*
X0498335Y0208759D02*
X0500335D01*
X0498735Y0208359D02*
X0501135D01*
X0499135Y0207959D02*
X0501535D01*
X0500735Y0223159D02*
X0501935D01*
X0502735D02*
X0503535D01*
X0501135Y0222759D02*
X0501935D01*
X0502735D02*
X0503535D01*
X0501135Y0222359D02*
X0502335D01*
X0503135D02*
X0503935D01*
X0501135Y0221959D02*
X0502335D01*
X0501535Y0221559D02*
X0502335D01*
X0496735Y0221159D02*
X0497935D01*
X0501935D02*
X0502735D01*
X0496735Y0220759D02*
X0498335D01*
X0501935D02*
X0502735D01*
X0497135Y0220359D02*
X0498335D01*
X0502335D02*
X0502735D01*
X0497135Y0219959D02*
X0498735D01*
X0497535Y0219559D02*
X0499135D01*
X0497535Y0219159D02*
X0499135D01*
X0497935Y0218759D02*
X0499535D01*
X0497935Y0218359D02*
X0499535D01*
X0498335Y0217959D02*
X0499935D01*
X0498335Y0217559D02*
X0500335D01*
X0498735Y0217159D02*
X0500335D01*
X0499135Y0216759D02*
X0500735D01*
X0499535Y0216359D02*
X0501135D01*
X0499535Y0215959D02*
X0501535D01*
X0499535Y0231159D02*
X0502335D01*
X0499535Y0230759D02*
X0502335D01*
X0499535Y0230359D02*
X0502335D01*
X0499535Y0229959D02*
X0502335D01*
X0499535Y0229559D02*
X0501935D01*
X0499535Y0229159D02*
X0501935D01*
X0499535Y0228759D02*
X0501935D01*
X0499535Y0228359D02*
X0501935D01*
X0499535Y0227959D02*
X0501935D01*
X0499535Y0227559D02*
X0501935D01*
X0499935Y0227159D02*
X0501935D01*
X0499935Y0226759D02*
X0501535D01*
X0499935Y0226359D02*
X0501535D01*
X0499935Y0225959D02*
X0501535D01*
X0499935Y0225559D02*
X0501535D01*
X0500335Y0225159D02*
X0501935D01*
X0500335Y0224759D02*
X0501935D01*
X0500335Y0224359D02*
X0501935D01*
X0500335Y0223959D02*
X0501935D01*
X0500335Y0234359D02*
X0503935D01*
X0500335Y0233959D02*
X0503935D01*
X0499935Y0233559D02*
X0503535D01*
X0499935Y0233159D02*
X0503535D01*
X0499935Y0232759D02*
X0503135D01*
X0499935Y0232359D02*
X0503135D01*
X0499935Y0231959D02*
X0502735D01*
X0505135Y0204359D02*
X0506335D01*
X0505135Y0211159D02*
X0507135D01*
X0505935Y0210759D02*
X0506735D01*
X0504735Y0219559D02*
X0506735D01*
X0504735Y0219159D02*
X0507535D01*
X0505135Y0218759D02*
X0507935D01*
X0505535Y0218359D02*
X0508735D01*
X0505935Y0217959D02*
X0509535D01*
X0506335Y0217559D02*
X0510335D01*
X0506735Y0217159D02*
X0511535D01*
X0514735Y0213159D02*
X0519935D01*
X0524735Y0219959D02*
X0527135D01*
X0524335Y0219559D02*
X0527135D01*
X0521535Y0217959D02*
X0525535D01*
X0520735Y0217559D02*
X0525535D01*
X0523535Y0216759D02*
X0527535D01*
X0523935Y0216359D02*
X0527135D01*
X0523535Y0215959D02*
X0526335D01*
X0525535Y0239159D02*
X0527935D01*
X0525935Y0238759D02*
X0527935D01*
X0524735Y0247159D02*
X0527535D01*
X0521535Y0241159D02*
X0525935D01*
X0522735Y0240759D02*
X0526335D01*
X0523535Y0240359D02*
X0526735D01*
X0524335Y0239959D02*
X0527135D01*
X0526335Y0254359D02*
X0526735D01*
X0526335Y0253959D02*
X0527535D01*
X0524735Y0248359D02*
X0525535D01*
X0524735Y0247959D02*
X0526335D01*
X0530735Y0231159D02*
X0532735D01*
X0530735Y0230759D02*
X0532735D01*
X0530735Y0230359D02*
X0532735D01*
X0530735Y0229959D02*
X0532735D01*
X0530735Y0229559D02*
X0532735D01*
X0530335Y0229159D02*
X0532735D01*
X0530335Y0228759D02*
X0532735D01*
X0530335Y0228359D02*
X0532735D01*
X0530335Y0227959D02*
X0532735D01*
X0529935Y0227559D02*
X0532735D01*
X0529935Y0227159D02*
X0532735D01*
X0529935Y0226759D02*
X0532735D01*
X0529535Y0226359D02*
X0532735D01*
X0529535Y0225959D02*
X0532735D01*
X0529135Y0225559D02*
X0532735D01*
X0529135Y0225159D02*
X0532335D01*
X0528735Y0224759D02*
X0532335D01*
X0528735Y0224359D02*
X0532335D01*
X0533535Y0239159D02*
X0535135D01*
X0533535Y0238759D02*
X0535135D01*
X0529935Y0238359D02*
X0530335D01*
X0533935D02*
X0535535D01*
X0529935Y0237959D02*
X0530335D01*
X0534335D02*
X0535535D01*
X0529935Y0237559D02*
X0530735D01*
X0534335D02*
X0535935D01*
X0529935Y0237159D02*
X0530735D01*
X0534335D02*
X0535935D01*
X0530335Y0236759D02*
X0531135D01*
X0534735D02*
X0535935D01*
X0530335Y0236359D02*
X0531535D01*
X0528735Y0235959D02*
X0529535D01*
X0530335D02*
X0531535D01*
X0529135Y0235559D02*
X0529935D01*
X0530335D02*
X0531535D01*
X0529535Y0235159D02*
X0529935D01*
X0530735D02*
X0531935D01*
X0530735Y0234759D02*
X0531935D01*
X0530735Y0234359D02*
X0531935D01*
X0530735Y0233959D02*
X0532335D01*
X0530735Y0233559D02*
X0532335D01*
X0530735Y0233159D02*
X0532335D01*
X0530735Y0232759D02*
X0532735D01*
X0530735Y0232359D02*
X0532735D01*
X0530735Y0231959D02*
X0532735D01*
X0528735Y0244759D02*
X0530735D01*
X0529135Y0244359D02*
X0531135D01*
X0529535Y0243959D02*
X0531535D01*
X0529935Y0243559D02*
X0531935D01*
X0530335Y0243159D02*
X0532335D01*
X0530735Y0242759D02*
X0532735D01*
X0531135Y0242359D02*
X0533135D01*
X0531535Y0241959D02*
X0533535D01*
X0531935Y0241559D02*
X0533535D01*
X0532335Y0241159D02*
X0533935D01*
X0532335Y0240759D02*
X0534335D01*
X0532735Y0240359D02*
X0534335D01*
X0533135Y0239959D02*
X0534735D01*
X0528735Y0251959D02*
X0531135D01*
X0529135Y0251559D02*
X0531935D01*
X0529935Y0251159D02*
X0532335D01*
X0530735Y0250759D02*
X0533135D01*
X0531135Y0250359D02*
X0533535D01*
X0531535Y0249959D02*
X0533935D01*
X0532335Y0249559D02*
X0534335D01*
X0532735Y0249159D02*
X0534735D01*
X0533135Y0248759D02*
X0535135D01*
X0533535Y0248359D02*
X0535535D01*
X0533935Y0247959D02*
X0535935D01*
X0542335Y0231159D02*
X0543535D01*
X0540335Y0239159D02*
X0541535D01*
X0540335Y0238759D02*
X0541935D01*
X0540335Y0238359D02*
X0541935D01*
X0540735Y0237959D02*
X0541935D01*
X0540735Y0237559D02*
X0542335D01*
X0540735Y0237159D02*
X0542335D01*
X0541135Y0236759D02*
X0542335D01*
X0541135Y0236359D02*
X0542735D01*
X0541135Y0235959D02*
X0542735D01*
X0541535Y0235559D02*
X0542735D01*
X0541535Y0235159D02*
X0542735D01*
X0541535Y0234759D02*
X0542735D01*
X0541535Y0234359D02*
X0543135D01*
X0541935Y0233959D02*
X0543135D01*
X0541935Y0233559D02*
X0543135D01*
X0541935Y0233159D02*
X0543135D01*
X0541935Y0232759D02*
X0543135D01*
X0541935Y0232359D02*
X0543135D01*
X0541935Y0231959D02*
X0543535D01*
X0536735Y0245159D02*
X0538335D01*
X0537135Y0244759D02*
X0538735D01*
X0537135Y0244359D02*
X0539135D01*
X0537535Y0243959D02*
X0539135D01*
X0537935Y0243559D02*
X0539535D01*
X0537935Y0243159D02*
X0539535D01*
X0538335Y0242759D02*
X0539935D01*
X0538735Y0242359D02*
X0540335D01*
X0538735Y0241959D02*
X0540335D01*
X0539135Y0241559D02*
X0540735D01*
X0539135Y0241159D02*
X0540735D01*
X0539535Y0240759D02*
X0541135D01*
X0539535Y0240359D02*
X0541135D01*
X0539935Y0239959D02*
X0541135D01*
X0492735Y0215559D02*
X0494335D01*
X0489535Y0223559D02*
X0491135D01*
X0499935Y0215559D02*
X0501935D01*
X0499935Y0207559D02*
X0502335D01*
X0499935Y0231559D02*
X0502735D01*
X0500735Y0223559D02*
X0501935D01*
X0524335Y0247559D02*
X0527135D01*
X0524735Y0239559D02*
X0527535D01*
X0533135D02*
X0534735D01*
X0530735Y0231559D02*
X0532735D01*
X0539935Y0239559D02*
X0541535D01*
X0541935Y0231559D02*
X0543535D01*
X0501535Y0206359D02*
X0504335D01*
X0501935Y0205959D02*
X0505135D01*
X0502735Y0205559D02*
X0505935D01*
X0503535Y0205159D02*
X0506335D01*
X0504335Y0204759D02*
X0506335D01*
X0502335Y0213159D02*
X0504735D01*
X0494735Y0212759D02*
X0496335D01*
X0502735D02*
X0505135D01*
X0494735Y0212359D02*
X0496735D01*
X0503535D02*
X0505935D01*
X0495135Y0211959D02*
X0497135D01*
X0503935D02*
X0506335D01*
X0495535Y0211559D02*
X0497535D01*
X0504335D02*
X0507135D01*
X0495935Y0211159D02*
X0497935D01*
X0496335Y0210759D02*
X0498335D01*
X0495935Y0223159D02*
X0497535D01*
X0495935Y0222759D02*
X0497535D01*
X0496335Y0222359D02*
X0497535D01*
X0496335Y0221959D02*
X0497935D01*
X0503135D02*
X0504335D01*
X0496335Y0221559D02*
X0497935D01*
X0503535D02*
X0504735D01*
X0503535Y0221159D02*
X0505135D01*
X0503935Y0220759D02*
X0505535D01*
X0503935Y0220359D02*
X0505935D01*
X0504335Y0219959D02*
X0506335D01*
X0495135Y0227959D02*
X0496335D01*
X0495135Y0227559D02*
X0496335D01*
X0495135Y0227159D02*
X0496335D01*
X0495135Y0226759D02*
X0496335D01*
X0495135Y0226359D02*
X0496735D01*
X0495535Y0225959D02*
X0496735D01*
X0495535Y0225559D02*
X0496735D01*
X0495535Y0225159D02*
X0496735D01*
X0495535Y0224759D02*
X0496735D01*
X0495535Y0224359D02*
X0497135D01*
X0495935Y0223959D02*
X0497135D01*
X0502335Y0238759D02*
X0507935D01*
X0502335Y0238359D02*
X0507535D01*
X0501935Y0237959D02*
X0506735D01*
X0501535Y0237559D02*
X0506335D01*
X0501535Y0237159D02*
X0505935D01*
X0501135Y0236759D02*
X0505935D01*
X0501135Y0236359D02*
X0505535D01*
X0500735Y0235959D02*
X0505135D01*
X0500735Y0235559D02*
X0504735D01*
X0500735Y0235159D02*
X0504335D01*
X0500335Y0234759D02*
X0504335D01*
X0509135Y0215159D02*
X0525135D01*
X0509935Y0214759D02*
X0524735D01*
X0510735Y0214359D02*
X0523935D01*
X0511535Y0213959D02*
X0522735D01*
X0512735Y0213559D02*
X0521535D01*
X0527935Y0223159D02*
X0531935D01*
X0527535Y0222759D02*
X0531535D01*
X0527135Y0222359D02*
X0531535D01*
X0527135Y0221959D02*
X0531535D01*
X0526735Y0221559D02*
X0531135D01*
X0526335Y0221159D02*
X0531135D01*
X0525935Y0220759D02*
X0530735D01*
X0525535Y0220359D02*
X0530335D01*
X0527935Y0219959D02*
X0530335D01*
X0527935Y0219559D02*
X0529935D01*
X0523935Y0219159D02*
X0529535D01*
X0523135Y0218759D02*
X0529535D01*
X0522335Y0218359D02*
X0529135D01*
X0526335Y0217959D02*
X0528735D01*
X0526335Y0217559D02*
X0528335D01*
X0519535Y0217159D02*
X0527935D01*
X0517535Y0216759D02*
X0523135D01*
X0535935Y0231159D02*
X0537535D01*
X0536335Y0230759D02*
X0537535D01*
X0528335Y0223959D02*
X0532335D01*
X0526335Y0238359D02*
X0528335D01*
X0527135Y0237959D02*
X0528735D01*
X0527535Y0237559D02*
X0528735D01*
X0527935Y0237159D02*
X0529135D01*
X0527935Y0236759D02*
X0529135D01*
X0528335Y0236359D02*
X0529535D01*
X0534735D02*
X0536335D01*
X0535135Y0235959D02*
X0536335D01*
X0535135Y0235559D02*
X0536335D01*
X0535135Y0235159D02*
X0536735D01*
X0535535Y0234759D02*
X0536735D01*
X0535535Y0234359D02*
X0536735D01*
X0535535Y0233959D02*
X0537135D01*
X0535535Y0233559D02*
X0537135D01*
X0535935Y0233159D02*
X0537135D01*
X0535935Y0232759D02*
X0537135D01*
X0535935Y0232359D02*
X0537135D01*
X0535935Y0231959D02*
X0537135D01*
X0534735Y0247159D02*
X0536735D01*
X0525535Y0246759D02*
X0528335D01*
X0535135D02*
X0537135D01*
X0526335Y0246359D02*
X0528735D01*
X0535535D02*
X0537535D01*
X0526735Y0245959D02*
X0529535D01*
X0535935D02*
X0537935D01*
X0527535Y0245559D02*
X0529935D01*
X0536335D02*
X0537935D01*
X0511535Y0245159D02*
X0519135D01*
X0527935D02*
X0530335D01*
X0510335Y0244759D02*
X0520335D01*
X0509135Y0244359D02*
X0521535D01*
X0517135Y0241959D02*
X0525135D01*
X0520335Y0241559D02*
X0525535D01*
X0525935Y0253559D02*
X0528735D01*
X0526335Y0253159D02*
X0529135D01*
X0527135Y0252759D02*
X0529935D01*
X0527935Y0252359D02*
X0530735D01*
X0495935Y0223559D02*
X0497135D01*
X0508735Y0215559D02*
X0525935D01*
X0534335Y0247559D02*
X0536335D01*
X0535935Y0231559D02*
X0537535D01*
X0528335Y0223559D02*
X0531935D01*
X0507135Y0216759D02*
X0513535D01*
X0507535Y0216359D02*
X0522735D01*
X0507935Y0215959D02*
X0523135D01*
X0502735Y0239159D02*
X0508335D01*
Y0243959D02*
X0522335D01*
X0507535Y0243559D02*
X0523135D01*
X0506735Y0243159D02*
X0523535D01*
X0505135Y0241959D02*
X0516735D01*
X0504735Y0241559D02*
X0513535D01*
X0504335Y0241159D02*
X0512335D01*
X0503935Y0240759D02*
X0511135D01*
X0503535Y0240359D02*
X0510335D01*
X0503135Y0239959D02*
X0509535D01*
X0503135Y0239559D02*
X0509135D01*
X0506335Y0242759D02*
X0524335D01*
X0505935Y0242359D02*
X0524735D01*
D71*
X0178902Y0245559D02*
X0180902D01*
X0262760D02*
X0264760D01*
X0346618D02*
X0348618D01*
X0430477D02*
X0432477D01*
X0514335D02*
X0516335D01*
D72*
X0145925Y0337835D02*
Y0339934D01*
X0146975Y0340983D01*
X0148024Y0339934D01*
Y0337835D01*
Y0339409D01*
X0145925D01*
X0149074Y0337835D02*
X0150124D01*
X0149599D01*
Y0340983D01*
X0149074Y0340458D01*
X0173425Y0439291D02*
X0171326D01*
X0170277Y0440341D01*
X0171326Y0441390D01*
X0173425D01*
X0171851D01*
Y0439291D01*
X0173425Y0444539D02*
Y0442440D01*
X0171326Y0444539D01*
X0170801D01*
X0170277Y0444014D01*
Y0442965D01*
X0170801Y0442440D01*
X0229784Y0337835D02*
Y0339934D01*
X0230833Y0340983D01*
X0231883Y0339934D01*
Y0337835D01*
Y0339409D01*
X0229784D01*
X0232932Y0337835D02*
X0233982D01*
X0233457D01*
Y0340983D01*
X0232932Y0340458D01*
X0257284Y0439291D02*
X0255185D01*
X0254135Y0440341D01*
X0255185Y0441390D01*
X0257284D01*
X0255709D01*
Y0439291D01*
X0257284Y0444539D02*
Y0442440D01*
X0255185Y0444539D01*
X0254660D01*
X0254135Y0444014D01*
Y0442965D01*
X0254660Y0442440D01*
X0313642Y0337835D02*
Y0339934D01*
X0314691Y0340983D01*
X0315741Y0339934D01*
Y0337835D01*
Y0339409D01*
X0313642D01*
X0316791Y0337835D02*
X0317840D01*
X0317315D01*
Y0340983D01*
X0316791Y0340458D01*
X0341142Y0439291D02*
X0339043D01*
X0337993Y0440341D01*
X0339043Y0441390D01*
X0341142D01*
X0339568D01*
Y0439291D01*
X0341142Y0444539D02*
Y0442440D01*
X0339043Y0444539D01*
X0338518D01*
X0337993Y0444014D01*
Y0442965D01*
X0338518Y0442440D01*
X0397500Y0337835D02*
Y0339934D01*
X0398550Y0340983D01*
X0399599Y0339934D01*
Y0337835D01*
Y0339409D01*
X0397500D01*
X0400649Y0337835D02*
X0401698D01*
X0401174D01*
Y0340983D01*
X0400649Y0340458D01*
X0425000Y0439291D02*
X0422901D01*
X0421852Y0440341D01*
X0422901Y0441390D01*
X0425000D01*
X0423426D01*
Y0439291D01*
X0425000Y0444539D02*
Y0442440D01*
X0422901Y0444539D01*
X0422376D01*
X0421852Y0444014D01*
Y0442965D01*
X0422376Y0442440D01*
X0481358Y0337835D02*
Y0339934D01*
X0482408Y0340983D01*
X0483458Y0339934D01*
Y0337835D01*
Y0339409D01*
X0481358D01*
X0484507Y0337835D02*
X0485557D01*
X0485032D01*
Y0340983D01*
X0484507Y0340458D01*
X0508858Y0439291D02*
X0506759D01*
X0505710Y0440341D01*
X0506759Y0441390D01*
X0508858D01*
X0507284D01*
Y0439291D01*
X0508858Y0444539D02*
Y0442440D01*
X0506759Y0444539D01*
X0506235D01*
X0505710Y0444014D01*
Y0442965D01*
X0506235Y0442440D01*
M02*
