G04*
G04 #@! TF.GenerationSoftware,Altium Limited,Altium Designer,19.1.8 (144)*
G04*
G04 Layer_Color=8421504*
%FSAX25Y25*%
%MOIN*%
G70*
G01*
G75*
%ADD11R,0.07874X0.05906*%
%ADD12R,0.05118X0.07087*%
G36*
X0541582Y0174286D02*
X0543359Y0173774D01*
X0545064Y0173058D01*
X0546673Y0172147D01*
X0548165Y0171054D01*
X0549518Y0169793D01*
X0550715Y0168384D01*
X0551739Y0166843D01*
X0552575Y0165194D01*
X0553212Y0163458D01*
X0553642Y0161659D01*
X0553859Y0159822D01*
Y0158898D01*
X0553859Y0157973D01*
X0553642Y0156137D01*
X0553212Y0154338D01*
X0552575Y0152602D01*
X0551739Y0150952D01*
X0550715Y0149412D01*
X0549518Y0148002D01*
X0548165Y0146742D01*
X0546673Y0145649D01*
X0545064Y0144738D01*
X0543359Y0144021D01*
X0541582Y0143509D01*
X0540669Y0143359D01*
X0540669Y0143359D01*
Y0174436D01*
X0541582Y0174286D01*
D02*
G37*
G36*
X0457724D02*
X0459501Y0173774D01*
X0461206Y0173058D01*
X0462815Y0172147D01*
X0464307Y0171054D01*
X0465660Y0169793D01*
X0466857Y0168384D01*
X0467880Y0166843D01*
X0468717Y0165194D01*
X0469354Y0163458D01*
X0469784Y0161659D01*
X0470000Y0159822D01*
Y0158898D01*
X0470000Y0157973D01*
X0469784Y0156137D01*
X0469354Y0154338D01*
X0468717Y0152602D01*
X0467880Y0150952D01*
X0466857Y0149412D01*
X0465660Y0148002D01*
X0464307Y0146742D01*
X0462815Y0145649D01*
X0461206Y0144738D01*
X0459501Y0144021D01*
X0457724Y0143509D01*
X0456811Y0143359D01*
X0456811Y0143359D01*
Y0174436D01*
X0457724Y0174286D01*
D02*
G37*
G36*
X0373865D02*
X0375642Y0173774D01*
X0377347Y0173058D01*
X0378957Y0172147D01*
X0380448Y0171054D01*
X0381802Y0169793D01*
X0382999Y0168384D01*
X0384022Y0166843D01*
X0384858Y0165194D01*
X0385496Y0163458D01*
X0385926Y0161659D01*
X0386142Y0159822D01*
Y0158898D01*
X0386142Y0157973D01*
X0385926Y0156137D01*
X0385496Y0154338D01*
X0384858Y0152602D01*
X0384022Y0150952D01*
X0382999Y0149412D01*
X0381802Y0148002D01*
X0380448Y0146742D01*
X0378957Y0145649D01*
X0377347Y0144738D01*
X0375642Y0144021D01*
X0373865Y0143509D01*
X0372953Y0143359D01*
X0372953Y0143359D01*
Y0174436D01*
X0373865Y0174286D01*
D02*
G37*
G36*
X0290007D02*
X0291784Y0173774D01*
X0293489Y0173058D01*
X0295098Y0172147D01*
X0296590Y0171054D01*
X0297943Y0169793D01*
X0299140Y0168384D01*
X0300164Y0166843D01*
X0301000Y0165194D01*
X0301637Y0163458D01*
X0302067Y0161659D01*
X0302284Y0159822D01*
Y0158898D01*
X0302284Y0157973D01*
X0302067Y0156137D01*
X0301637Y0154338D01*
X0301000Y0152602D01*
X0300164Y0150952D01*
X0299140Y0149412D01*
X0297944Y0148002D01*
X0296590Y0146742D01*
X0295098Y0145649D01*
X0293489Y0144738D01*
X0291784Y0144021D01*
X0290007Y0143509D01*
X0289095Y0143359D01*
X0289095Y0143359D01*
Y0174436D01*
X0290007Y0174286D01*
D02*
G37*
G36*
X0206149D02*
X0207926Y0173774D01*
X0209631Y0173058D01*
X0211240Y0172147D01*
X0212732Y0171054D01*
X0214085Y0169793D01*
X0215282Y0168384D01*
X0216305Y0166843D01*
X0217142Y0165194D01*
X0217779Y0163458D01*
X0218209Y0161659D01*
X0218425Y0159822D01*
Y0158898D01*
X0218425Y0157973D01*
X0218209Y0156137D01*
X0217779Y0154338D01*
X0217142Y0152602D01*
X0216305Y0150952D01*
X0215282Y0149412D01*
X0214085Y0148002D01*
X0212732Y0146742D01*
X0211240Y0145649D01*
X0209631Y0144738D01*
X0207926Y0144021D01*
X0206149Y0143509D01*
X0205236Y0143359D01*
X0205236Y0143359D01*
Y0174436D01*
X0206149Y0174286D01*
D02*
G37*
G36*
X0535551Y0143359D02*
X0534639Y0143509D01*
X0532862Y0144021D01*
X0531157Y0144738D01*
X0529548Y0145649D01*
X0528056Y0146742D01*
X0526702Y0148002D01*
X0525506Y0149412D01*
X0524482Y0150952D01*
X0523646Y0152602D01*
X0523009Y0154338D01*
X0522579Y0156136D01*
X0522362Y0157973D01*
Y0158897D01*
Y0158898D01*
X0522362Y0159822D01*
X0522579Y0161659D01*
X0523009Y0163458D01*
X0523646Y0165194D01*
X0524482Y0166843D01*
X0525506Y0168383D01*
X0526702Y0169793D01*
X0528056Y0171054D01*
X0529548Y0172147D01*
X0531157Y0173058D01*
X0532862Y0173774D01*
X0534639Y0174286D01*
X0535551Y0174436D01*
X0535551Y0174436D01*
X0535551Y0143359D01*
D02*
G37*
G36*
X0451693D02*
X0450781Y0143509D01*
X0449004Y0144021D01*
X0447299Y0144738D01*
X0445689Y0145649D01*
X0444198Y0146742D01*
X0442844Y0148002D01*
X0441647Y0149412D01*
X0440624Y0150952D01*
X0439788Y0152602D01*
X0439150Y0154338D01*
X0438720Y0156136D01*
X0438504Y0157973D01*
Y0158897D01*
Y0158898D01*
X0438504Y0159822D01*
X0438720Y0161659D01*
X0439150Y0163458D01*
X0439788Y0165194D01*
X0440624Y0166843D01*
X0441647Y0168383D01*
X0442844Y0169793D01*
X0444198Y0171054D01*
X0445689Y0172147D01*
X0447299Y0173058D01*
X0449004Y0173774D01*
X0450781Y0174286D01*
X0451693Y0174436D01*
X0451693Y0174436D01*
X0451693Y0143359D01*
D02*
G37*
G36*
X0367835D02*
X0366922Y0143509D01*
X0365145Y0144021D01*
X0363440Y0144738D01*
X0361831Y0145649D01*
X0360339Y0146742D01*
X0358986Y0148002D01*
X0357789Y0149412D01*
X0356766Y0150952D01*
X0355929Y0152602D01*
X0355292Y0154338D01*
X0354862Y0156136D01*
X0354646Y0157973D01*
Y0158897D01*
Y0158898D01*
X0354646Y0159822D01*
X0354862Y0161659D01*
X0355292Y0163458D01*
X0355929Y0165194D01*
X0356766Y0166843D01*
X0357789Y0168383D01*
X0358986Y0169793D01*
X0360339Y0171054D01*
X0361831Y0172147D01*
X0363440Y0173058D01*
X0365145Y0173774D01*
X0366922Y0174286D01*
X0367835Y0174436D01*
X0367835Y0174436D01*
X0367835Y0143359D01*
D02*
G37*
G36*
X0283977D02*
X0283064Y0143509D01*
X0281287Y0144021D01*
X0279582Y0144738D01*
X0277973Y0145649D01*
X0276481Y0146742D01*
X0275128Y0148002D01*
X0273931Y0149412D01*
X0272907Y0150952D01*
X0272071Y0152602D01*
X0271434Y0154338D01*
X0271004Y0156136D01*
X0270787Y0157973D01*
Y0158897D01*
Y0158898D01*
X0270787Y0159822D01*
X0271004Y0161659D01*
X0271434Y0163458D01*
X0272071Y0165194D01*
X0272907Y0166843D01*
X0273931Y0168383D01*
X0275128Y0169793D01*
X0276481Y0171054D01*
X0277973Y0172147D01*
X0279582Y0173058D01*
X0281287Y0173774D01*
X0283064Y0174286D01*
X0283977Y0174436D01*
X0283977Y0174436D01*
X0283977Y0143359D01*
D02*
G37*
G36*
X0200118D02*
X0199206Y0143509D01*
X0197429Y0144021D01*
X0195724Y0144738D01*
X0194114Y0145649D01*
X0192623Y0146742D01*
X0191269Y0148002D01*
X0190073Y0149412D01*
X0189049Y0150952D01*
X0188213Y0152602D01*
X0187575Y0154338D01*
X0187146Y0156136D01*
X0186929Y0157973D01*
Y0158897D01*
Y0158898D01*
X0186929Y0159822D01*
X0187145Y0161659D01*
X0187575Y0163458D01*
X0188213Y0165194D01*
X0189049Y0166843D01*
X0190073Y0168383D01*
X0191269Y0169793D01*
X0192623Y0171054D01*
X0194114Y0172147D01*
X0195724Y0173058D01*
X0197429Y0173774D01*
X0199206Y0174286D01*
X0200118Y0174436D01*
X0200118Y0174436D01*
X0200118Y0143359D01*
D02*
G37*
G36*
X0498393Y0173420D02*
X0500170Y0172908D01*
X0501875Y0172192D01*
X0503484Y0171281D01*
X0504976Y0170187D01*
X0506329Y0168927D01*
X0507526Y0167517D01*
X0508550Y0165977D01*
X0509386Y0164328D01*
X0510023Y0162592D01*
X0510453Y0160793D01*
X0510670Y0158956D01*
Y0158032D01*
X0510670Y0157107D01*
X0510453Y0155270D01*
X0510023Y0153472D01*
X0509386Y0151736D01*
X0508550Y0150086D01*
X0507526Y0148546D01*
X0506329Y0147136D01*
X0504976Y0145876D01*
X0503484Y0144783D01*
X0501875Y0143871D01*
X0500170Y0143155D01*
X0498393Y0142643D01*
X0497481Y0142493D01*
X0497481Y0142493D01*
Y0173570D01*
X0498393Y0173420D01*
D02*
G37*
G36*
X0414535D02*
X0416312Y0172908D01*
X0418017Y0172192D01*
X0419626Y0171281D01*
X0421118Y0170187D01*
X0422471Y0168927D01*
X0423668Y0167517D01*
X0424691Y0165977D01*
X0425528Y0164328D01*
X0426165Y0162592D01*
X0426595Y0160793D01*
X0426811Y0158956D01*
Y0158032D01*
X0426811Y0157107D01*
X0426595Y0155270D01*
X0426165Y0153472D01*
X0425528Y0151736D01*
X0424691Y0150086D01*
X0423668Y0148546D01*
X0422471Y0147136D01*
X0421118Y0145876D01*
X0419626Y0144783D01*
X0418017Y0143871D01*
X0416312Y0143155D01*
X0414535Y0142643D01*
X0413622Y0142493D01*
X0413622Y0142493D01*
Y0173570D01*
X0414535Y0173420D01*
D02*
G37*
G36*
X0330676D02*
X0332453Y0172908D01*
X0334158Y0172192D01*
X0335768Y0171281D01*
X0337259Y0170187D01*
X0338613Y0168927D01*
X0339810Y0167517D01*
X0340833Y0165977D01*
X0341669Y0164328D01*
X0342307Y0162592D01*
X0342737Y0160793D01*
X0342953Y0158956D01*
Y0158032D01*
X0342953Y0157107D01*
X0342737Y0155270D01*
X0342307Y0153472D01*
X0341669Y0151736D01*
X0340833Y0150086D01*
X0339810Y0148546D01*
X0338613Y0147136D01*
X0337259Y0145876D01*
X0335768Y0144783D01*
X0334158Y0143871D01*
X0332453Y0143155D01*
X0330676Y0142643D01*
X0329764Y0142493D01*
X0329764Y0142493D01*
Y0173570D01*
X0330676Y0173420D01*
D02*
G37*
G36*
X0246818D02*
X0248595Y0172908D01*
X0250300Y0172192D01*
X0251909Y0171281D01*
X0253401Y0170187D01*
X0254755Y0168927D01*
X0255951Y0167517D01*
X0256975Y0165977D01*
X0257811Y0164328D01*
X0258448Y0162592D01*
X0258878Y0160793D01*
X0259095Y0158956D01*
Y0158032D01*
X0259095Y0157107D01*
X0258878Y0155270D01*
X0258449Y0153472D01*
X0257811Y0151736D01*
X0256975Y0150086D01*
X0255951Y0148546D01*
X0254755Y0147136D01*
X0253401Y0145876D01*
X0251909Y0144783D01*
X0250300Y0143871D01*
X0248595Y0143155D01*
X0246818Y0142643D01*
X0245906Y0142493D01*
X0245906Y0142493D01*
Y0173570D01*
X0246818Y0173420D01*
D02*
G37*
G36*
X0162960D02*
X0164737Y0172908D01*
X0166442Y0172192D01*
X0168051Y0171281D01*
X0169543Y0170187D01*
X0170896Y0168927D01*
X0172093Y0167517D01*
X0173117Y0165977D01*
X0173953Y0164328D01*
X0174590Y0162592D01*
X0175020Y0160793D01*
X0175236Y0158956D01*
Y0158032D01*
X0175236Y0157107D01*
X0175020Y0155270D01*
X0174590Y0153472D01*
X0173953Y0151736D01*
X0173117Y0150086D01*
X0172093Y0148546D01*
X0170896Y0147136D01*
X0169543Y0145876D01*
X0168051Y0144783D01*
X0166442Y0143871D01*
X0164737Y0143155D01*
X0162960Y0142643D01*
X0162047Y0142493D01*
X0162047Y0142493D01*
Y0173570D01*
X0162960Y0173420D01*
D02*
G37*
G36*
X0492362Y0142493D02*
X0491450Y0142643D01*
X0489673Y0143155D01*
X0487968Y0143871D01*
X0486359Y0144782D01*
X0484867Y0145876D01*
X0483513Y0147136D01*
X0482317Y0148546D01*
X0481293Y0150086D01*
X0480457Y0151735D01*
X0479820Y0153471D01*
X0479390Y0155270D01*
X0479173Y0157107D01*
Y0158031D01*
Y0158031D01*
X0479173Y0158956D01*
X0479390Y0160793D01*
X0479820Y0162591D01*
X0480457Y0164327D01*
X0481293Y0165977D01*
X0482317Y0167517D01*
X0483513Y0168927D01*
X0484867Y0170187D01*
X0486359Y0171281D01*
X0487968Y0172192D01*
X0489673Y0172908D01*
X0491450Y0173420D01*
X0492362Y0173570D01*
X0492362Y0173570D01*
X0492362Y0142493D01*
D02*
G37*
G36*
X0408504D02*
X0407592Y0142643D01*
X0405815Y0143155D01*
X0404110Y0143871D01*
X0402500Y0144782D01*
X0401009Y0145876D01*
X0399655Y0147136D01*
X0398459Y0148546D01*
X0397435Y0150086D01*
X0396599Y0151735D01*
X0395961Y0153471D01*
X0395532Y0155270D01*
X0395315Y0157107D01*
Y0158031D01*
Y0158031D01*
X0395315Y0158956D01*
X0395532Y0160793D01*
X0395961Y0162591D01*
X0396599Y0164327D01*
X0397435Y0165977D01*
X0398459Y0167517D01*
X0399655Y0168927D01*
X0401009Y0170187D01*
X0402500Y0171281D01*
X0404110Y0172192D01*
X0405815Y0172908D01*
X0407592Y0173420D01*
X0408504Y0173570D01*
X0408504Y0173570D01*
X0408504Y0142493D01*
D02*
G37*
G36*
X0324646D02*
X0323733Y0142643D01*
X0321956Y0143155D01*
X0320251Y0143871D01*
X0318642Y0144782D01*
X0317150Y0145876D01*
X0315797Y0147136D01*
X0314600Y0148546D01*
X0313577Y0150086D01*
X0312740Y0151735D01*
X0312103Y0153471D01*
X0311673Y0155270D01*
X0311457Y0157107D01*
Y0158031D01*
Y0158031D01*
X0311457Y0158956D01*
X0311673Y0160793D01*
X0312103Y0162591D01*
X0312740Y0164327D01*
X0313577Y0165977D01*
X0314600Y0167517D01*
X0315797Y0168927D01*
X0317150Y0170187D01*
X0318642Y0171281D01*
X0320251Y0172192D01*
X0321956Y0172908D01*
X0323733Y0173420D01*
X0324646Y0173570D01*
X0324646Y0173570D01*
X0324646Y0142493D01*
D02*
G37*
G36*
X0240788D02*
X0239875Y0142643D01*
X0238098Y0143155D01*
X0236393Y0143871D01*
X0234784Y0144782D01*
X0233292Y0145876D01*
X0231939Y0147136D01*
X0230742Y0148546D01*
X0229718Y0150086D01*
X0228882Y0151735D01*
X0228245Y0153471D01*
X0227815Y0155270D01*
X0227598Y0157107D01*
Y0158031D01*
Y0158031D01*
X0227598Y0158956D01*
X0227815Y0160793D01*
X0228245Y0162591D01*
X0228882Y0164327D01*
X0229718Y0165977D01*
X0230742Y0167517D01*
X0231939Y0168927D01*
X0233292Y0170187D01*
X0234784Y0171281D01*
X0236393Y0172192D01*
X0238098Y0172908D01*
X0239875Y0173420D01*
X0240788Y0173570D01*
X0240788Y0173570D01*
X0240788Y0142493D01*
D02*
G37*
G36*
X0156929D02*
X0156017Y0142643D01*
X0154240Y0143155D01*
X0152535Y0143871D01*
X0150926Y0144782D01*
X0149434Y0145876D01*
X0148080Y0147136D01*
X0146884Y0148546D01*
X0145860Y0150086D01*
X0145024Y0151735D01*
X0144386Y0153471D01*
X0143957Y0155270D01*
X0143740Y0157107D01*
Y0158031D01*
Y0158031D01*
X0143740Y0158956D01*
X0143957Y0160793D01*
X0144386Y0162591D01*
X0145024Y0164327D01*
X0145860Y0165977D01*
X0146884Y0167517D01*
X0148080Y0168927D01*
X0149434Y0170187D01*
X0150926Y0171281D01*
X0152535Y0172192D01*
X0154240Y0172908D01*
X0156017Y0173420D01*
X0156929Y0173570D01*
X0156929Y0173570D01*
X0156929Y0142493D01*
D02*
G37*
D11*
X0217492Y0259114D02*
D03*
Y0251240D02*
D03*
Y0243366D02*
D03*
Y0227618D02*
D03*
Y0235492D02*
D03*
X0217559Y0381654D02*
D03*
Y0365906D02*
D03*
Y0373780D02*
D03*
Y0389528D02*
D03*
Y0397402D02*
D03*
Y0405276D02*
D03*
X0301350Y0259114D02*
D03*
Y0251240D02*
D03*
Y0243366D02*
D03*
Y0227618D02*
D03*
Y0235492D02*
D03*
X0301417Y0381654D02*
D03*
Y0365906D02*
D03*
Y0373780D02*
D03*
Y0389528D02*
D03*
Y0397402D02*
D03*
Y0405276D02*
D03*
X0385208Y0259114D02*
D03*
Y0251240D02*
D03*
Y0243366D02*
D03*
Y0227618D02*
D03*
Y0235492D02*
D03*
X0385276Y0381654D02*
D03*
Y0365906D02*
D03*
Y0373780D02*
D03*
Y0389528D02*
D03*
Y0397402D02*
D03*
Y0405276D02*
D03*
X0469066Y0259114D02*
D03*
Y0251240D02*
D03*
Y0243366D02*
D03*
Y0227618D02*
D03*
Y0235492D02*
D03*
X0469134Y0381654D02*
D03*
Y0365906D02*
D03*
Y0373780D02*
D03*
Y0389528D02*
D03*
Y0397402D02*
D03*
Y0405276D02*
D03*
X0552925Y0259114D02*
D03*
Y0251240D02*
D03*
Y0243366D02*
D03*
Y0227618D02*
D03*
Y0235492D02*
D03*
X0552992Y0381654D02*
D03*
Y0365906D02*
D03*
Y0373780D02*
D03*
Y0389528D02*
D03*
Y0397402D02*
D03*
Y0405276D02*
D03*
D12*
X0178189Y0423110D02*
D03*
X0187638D02*
D03*
X0204961D02*
D03*
X0217953D02*
D03*
X0178189Y0456969D02*
D03*
X0217953D02*
D03*
X0204961D02*
D03*
X0262047Y0423110D02*
D03*
X0271496D02*
D03*
X0288819D02*
D03*
X0301811D02*
D03*
X0262047Y0456969D02*
D03*
X0301811D02*
D03*
X0288819D02*
D03*
X0345906Y0423110D02*
D03*
X0355354D02*
D03*
X0372677D02*
D03*
X0385669D02*
D03*
X0345906Y0456969D02*
D03*
X0385669D02*
D03*
X0372677D02*
D03*
X0429764Y0423110D02*
D03*
X0439213D02*
D03*
X0456536D02*
D03*
X0469528D02*
D03*
X0429764Y0456969D02*
D03*
X0469528D02*
D03*
X0456536D02*
D03*
X0513622Y0423110D02*
D03*
X0523071D02*
D03*
X0540394D02*
D03*
X0553386D02*
D03*
X0513622Y0456969D02*
D03*
X0553386D02*
D03*
X0540394D02*
D03*
M02*
