G04*
G04 #@! TF.GenerationSoftware,Altium Limited,Altium Designer,19.1.8 (144)*
G04*
G04 Layer_Color=16711935*
%FSAX25Y25*%
%MOIN*%
G70*
G01*
G75*
%ADD156C,0.01000*%
%ADD158C,0.00600*%
D156*
X0641653Y0402756D02*
X0643653Y0396756D01*
X0639653D02*
X0641653Y0402756D01*
X0639653Y0005606D02*
X0641653Y-0000394D01*
X0643653Y0005606D01*
X0641653Y0217676D02*
Y0402756D01*
Y-0000394D02*
Y0181486D01*
X0570685Y0402756D02*
X0642654D01*
X0570685Y-0000394D02*
X0642654D01*
X0563291Y0506937D02*
X0569291Y0508937D01*
X0563291Y0510937D02*
X0569291Y0508937D01*
X-0000394D02*
X0005606Y0510937D01*
X-0000394Y0508937D02*
X0005606Y0506937D01*
X0300943Y0508937D02*
X0569291D01*
X-0000394D02*
X0264754D01*
X0569291Y0404150D02*
Y0509937D01*
X-0000394Y0404150D02*
Y0509937D01*
D158*
X0646252Y0183086D02*
Y0185086D01*
Y0184086D01*
X0640254D01*
X0641254Y0183086D01*
Y0188085D02*
X0640254Y0189084D01*
Y0191084D01*
X0641254Y0192084D01*
X0645253D01*
X0646252Y0191084D01*
Y0189084D01*
X0645253Y0188085D01*
X0641254D01*
X0646252Y0198082D02*
Y0194083D01*
X0642253Y0198082D01*
X0641254D01*
X0640254Y0197082D01*
Y0195083D01*
X0641254Y0194083D01*
X0647252Y0201081D02*
X0646252Y0202080D01*
X0645253D01*
Y0201081D01*
X0646252D01*
Y0202080D01*
X0647252Y0201081D01*
X0648252Y0200081D01*
X0646252Y0209078D02*
X0640254D01*
X0643253Y0206079D01*
Y0210078D01*
X0641254Y0212077D02*
X0640254Y0213077D01*
Y0215076D01*
X0641254Y0216076D01*
X0645253D01*
X0646252Y0215076D01*
Y0213077D01*
X0645253Y0212077D01*
X0641254D01*
X0266354Y0504338D02*
X0268354D01*
X0267354D01*
Y0510336D01*
X0266354Y0509337D01*
X0274352Y0504338D02*
Y0510336D01*
X0271353Y0507337D01*
X0275351D01*
X0280350Y0504338D02*
Y0510336D01*
X0277351Y0507337D01*
X0281349D01*
X0284348Y0503339D02*
X0285348Y0504338D01*
Y0505338D01*
X0284348D01*
Y0504338D01*
X0285348D01*
X0284348Y0503339D01*
X0283349Y0502339D01*
X0289347Y0510336D02*
X0293345D01*
Y0509337D01*
X0289347Y0505338D01*
Y0504338D01*
X0295345Y0509337D02*
X0296344Y0510336D01*
X0298344D01*
X0299343Y0509337D01*
Y0505338D01*
X0298344Y0504338D01*
X0296344D01*
X0295345Y0505338D01*
Y0509337D01*
M02*
