M48
;Layer_Color=9474304
;FILE_FORMAT=2:5
INCH
;TYPE=PLATED
T1F00S00C0.01181
T2F00S00C0.02362
T3F00S00C0.02756
T4F00S00C0.03543
T5F00S00C0.03937
T6F00S00C0.04331
T7F00S00C0.04724
T8F00S00C0.09843
T9F00S00C0.11811
;TYPE=NON_PLATED
T10F00S00C0.03917
%
T01
X0036532Y0038172
X0033930Y0041723
X0032383Y0045672
X0031631Y0050924
X0031655Y0056023
X0039835Y0035158
X0043934Y0032818
X0049568Y0031928
X0053544Y0031771
X0058087Y0032019
X0081796Y0032519
X0084126Y0035158
X0079205
X0078792Y0039121
X0074450Y0040590
Y0043227
X0071182Y0054763
X0087095Y0032220
X0092147Y0031668
X0097836Y0031771
X0103351Y0032472
X0108732Y0035158
X0116206Y0055027
X0137168Y0056023
X0137144Y0050924
X0137896Y0045672
X0139443Y0041723
X0142046Y0038172
X0145348Y0035158
X0149447Y0032818
X0155081Y0031928
X0159057Y0031771
X0163601Y0032019
X0187309Y0032519
X0189639Y0035158
X0184718
X0184306Y0039121
X0179963Y0040590
Y0043227
X0176695Y0054763
X0192609Y0032220
X0197660Y0031668
X0203349Y0031771
X0208864Y0032472
X0214245Y0035158
X0221719Y0055027
X0242681Y0056023
X0242657Y0050924
X0243409Y0045672
X0244956Y0041723
X0247559Y0038172
X0250861Y0035158
X0254960Y0032818
X0260594Y0031928
X0264571Y0031771
X0269114Y0032019
X0292823Y0032519
X0295152Y0035158
X0290231
X0289819Y0039121
X0285476Y0040590
Y0043227
X0282208Y0054763
X0298122Y0032220
X0303173Y0031668
X0308862Y0031771
X0314378Y0032472
X0319759Y0035158
X0327232Y0055027
X0348194Y0056023
X0348170Y0050924
X0348922Y0045672
X0350470Y0041723
X0353072Y0038172
X0356374Y0035158
X0360474Y0032818
X0366108Y0031928
X0370084Y0031771
X0374627Y0032019
X0398336Y0032519
X0400666Y0035158
X0395744
X0395332Y0039121
X0390989Y0040590
Y0043227
X0387722Y0054763
X0403635Y0032220
X0408686Y0031668
X0414375Y0031771
X0419891Y0032472
X0425272Y0035158
X0432745Y0055027
X0453707Y0056023
X0453684Y0050924
X0454436Y0045672
X0455983Y0041723
X0458585Y0038172
X0461887Y0035158
X0465987Y0032818
X0471621Y0031928
X0475597Y0031771
X0480140Y0032019
X0503849Y0032519
X0506179Y0035158
X0501258
X0500845Y0039121
X0496503Y0040590
Y0043227
X0493235Y0054763
X0509148Y0032220
X0514199Y0031668
X0519888Y0031771
X0525404Y0032472
X0530785Y0035158
X0538259Y0055027
X0538167Y0059764
X0535706Y0064685
X0530785
X0533246Y0069607
X0538167
X0538983Y0074802
X0538167Y0079449
X0528747Y0078346
Y0074409
X0528325Y0069607
X0527959Y0094094
Y0097243
X0531109
Y0094094
X0534259
Y0097243
X0537408
Y0094094
X0536759Y0107002
X0536924Y0114880
X0533077Y0121653
X0530891Y0131866
X0528516Y0130074
X0529622Y0138040
X0531966Y0136952
X0536296Y0139321
X0533865Y0146456
X0533077Y0154724
X0527290Y0155826
X0527172Y0151180
X0526030Y0141574
X0539770Y0151968
Y0156692
Y0161416
Y0166141
Y0170865
Y0175590
Y0180314
Y0185038
Y0189763
Y0194487
Y0199212
Y0203936
Y0208661
X0527357Y0209841
X0528325Y0108977
X0528601Y0106483
X0524912
X0521227
X0517495
X0517425Y0114448
X0516021Y0123740
X0512661Y0123756
X0512664Y0120487
X0510223Y0118117
X0508967Y0126818
X0513577Y0126346
X0517329Y0126377
X0514534Y0133031
X0514287Y0136063
X0518798Y0136057
X0515361Y0142125
X0512605
X0510377Y0140749
X0507880Y0140708
X0505400
X0500991Y0141294
X0498274
X0495097
X0493121Y0135334
X0490776Y0137300
X0487961Y0134485
X0485442Y0131966
X0484892Y0128247
X0484947Y0121302
X0491294Y0120995
X0493668Y0123188
X0493432Y0127283
X0498511Y0134330
X0477172Y0133857
X0476963Y0123487
X0475991Y0120471
X0475841Y0118247
Y0115200
Y0112117
X0474877Y0106294
X0477538Y0106369
X0480081
X0480613Y0096960
X0484491Y0096877
X0487955Y0096920
X0488983Y0092913
X0487625Y0089094
X0477932Y0089369
X0475290
X0474022Y0085432
X0470336Y0088224
X0473235Y0093779
X0474219Y0101220
X0469101
X0468629Y0105983
X0465507
X0462420
X0459298
X0459613Y0096672
X0461887Y0094213
X0456966
X0454333Y0097003
X0454251Y0090897
X0455164Y0078818
X0459770Y0078857
X0463629
X0468337Y0078881
X0473290Y0078983
X0482731Y0080775
X0493558Y0080885
X0496227Y0078228
X0493235Y0071653
X0490676Y0073542
X0486699
X0490007Y0069665
X0483983Y0068916
X0480400Y0068976
X0476463
X0485361Y0066338
X0489957Y0062744
X0494219Y0065786
X0508668Y0066535
X0511424
Y0069291
X0508668
X0518482Y0069607
X0517723Y0076771
X0519298Y0085826
X0522447Y0084251
Y0087401
X0524810Y0081495
Y0097243
X0521341Y0097263
X0510192Y0097294
X0511100Y0094397
X0508436
X0501818Y0094999
X0499062
X0496306
X0495046Y0091771
X0504652Y0101062
X0509534Y0101102
X0512999Y0087007
X0510637Y0083857
X0467412Y0097334
X0469692Y0109645
X0466809Y0113898
X0465833Y0118228
X0462585Y0115708
X0457585
X0455259Y0118137
X0459975Y0118239
X0459810Y0123070
X0457585Y0125708
X0453944Y0126141
X0465597Y0125235
X0467217Y0127750
X0469495Y0126102
X0471463Y0127716
X0456181Y0136562
X0430783Y0139321
X0426453Y0136952
X0424109Y0138040
X0420517Y0141574
X0418115Y0148818
X0416147Y0151180
X0421659
X0421777Y0155826
X0427564Y0154724
X0434257Y0156692
Y0161416
Y0166141
Y0170865
Y0175590
Y0180314
Y0185038
Y0189763
Y0194487
Y0199212
Y0203936
Y0208661
X0421844Y0209841
X0412730Y0210109
X0410005Y0209763
X0414135Y0212243
X0404918Y0211314
X0402997Y0209487
X0400911Y0207519
X0399415Y0201220
X0394926Y0203227
X0389769Y0202204
X0385902Y0202481
X0386501Y0198542
X0385714Y0193660
X0387840Y0189566
X0383863Y0187519
X0378509
X0373155
Y0192873
X0376059Y0192638
X0374257Y0197243
X0378588Y0202165
X0381107Y0201692
X0378706Y0206338
X0374375Y0208582
X0369611Y0202756
X0369808Y0179763
X0375202
X0380556Y0179724
X0385792Y0179960
X0388362Y0177874
X0393284
X0395202Y0180314
X0398205Y0177874
X0403126
X0400666Y0182796
X0396777Y0184684
X0397879Y0187991
X0403126Y0187717
X0401423Y0191495
X0401856Y0196731
X0410209Y0194350
X0413076Y0199881
Y0202070
X0417800Y0190354
X0415332Y0185688
X0412499Y0168448
X0413769Y0163401
X0412054Y0161062
X0404398Y0158575
X0404598Y0151403
X0406344Y0153149
X0408746Y0153718
X0400753Y0149960
X0399887Y0140708
X0402367
X0404863Y0140749
X0407092Y0142125
X0409848
X0408774Y0136063
X0409021Y0133031
X0413284Y0136057
X0411816Y0126377
X0408064Y0126346
X0407148Y0123756
X0407151Y0120487
X0404710Y0118117
X0403454Y0126818
X0410508Y0123740
X0411912Y0114448
X0411981Y0106483
X0415714
X0419399
X0423088
X0422811Y0108977
X0431245Y0107002
X0431411Y0114880
X0427564Y0121653
X0425377Y0131866
X0423003Y0130074
X0428352Y0146456
X0434257Y0151968
X0466809Y0163110
X0469269Y0168032
X0474191
X0479112
X0484033
X0488954
X0493876
X0498797
X0501258Y0172953
X0506179
X0508504Y0168167
X0518012Y0168448
X0519282Y0163401
X0517567Y0161062
X0509911Y0158575
X0510112Y0151403
X0511857Y0153149
X0514259Y0153718
X0521660Y0151180
X0523629Y0148818
X0506266Y0149960
X0498704Y0158282
X0493876Y0158189
X0488954
X0491415Y0163110
X0496336
Y0172953
X0491415
X0486494
X0481572
X0476651
X0471730
X0466809
X0469269Y0177874
X0473038Y0180787
X0475321Y0179763
X0480715
X0486069Y0179724
X0491306Y0179960
X0493876Y0177874
X0498797
X0500715Y0180314
X0503718Y0177874
X0508639
X0506179Y0182796
X0502290Y0184684
X0503392Y0187991
X0508639Y0187717
X0506936Y0191495
X0507369Y0196731
X0504928Y0201220
X0500440Y0203227
X0495282Y0202204
X0491415Y0202481
X0492014Y0198542
X0491227Y0193660
X0493353Y0189566
X0489377Y0187519
X0484022
X0478668
Y0192873
X0481572Y0192638
X0479770Y0197243
X0484101Y0202165
X0486621Y0201692
X0484219Y0206338
X0479888Y0208582
X0475124Y0202756
X0472388Y0202736
X0468629Y0197361
X0463865Y0194290
X0463827Y0191535
X0462999Y0187243
X0469810Y0188424
X0472999Y0185668
X0461896Y0177934
X0462507Y0204609
X0459427Y0207402
X0468629Y0208582
X0506424Y0207519
X0508510Y0209487
X0510432Y0211314
X0515518Y0209763
X0518243Y0210109
X0519648Y0212243
X0518589Y0202070
Y0199881
X0515723Y0194350
X0523314Y0190354
X0520845Y0185688
X0496030Y0181692
X0400666Y0172953
X0395744
X0390823
X0385902
X0380980
X0376059
X0371138
X0373599Y0168032
X0378520
X0383441
X0388362
X0393284
X0390823Y0163110
X0385902
X0388362Y0158189
X0393191Y0158282
X0383441Y0158189
X0385263Y0137300
X0387608Y0135334
X0382448Y0134485
X0379928Y0131966
X0379379Y0128247
X0379434Y0121302
X0385781Y0120995
X0388155Y0123188
X0387918Y0127283
X0392997Y0134330
X0392761Y0141294
X0395478
X0389584
X0371659Y0133857
X0371450Y0123487
X0370478Y0120471
X0370328Y0118247
Y0115200
Y0112117
X0369363Y0106294
X0372025Y0106369
X0374568
X0375100Y0096960
X0378978Y0096877
X0382442Y0096920
X0383470Y0092913
X0382112Y0089094
X0372418Y0089369
X0369777
X0377218Y0080775
X0388045Y0080885
X0390714Y0078228
X0387722Y0071653
X0385163Y0073542
X0381186
X0384493Y0069665
X0378470Y0068916
X0374887Y0068976
X0370950
X0379848Y0066338
X0384443Y0062744
X0388706Y0065786
X0403155Y0066535
X0405911
Y0069291
X0403155
X0412969Y0069607
X0412210Y0076771
X0413785Y0085826
X0416934Y0084251
Y0087401
X0419297Y0081495
X0423234Y0078346
Y0074409
X0422811Y0069607
X0427733
X0432654
X0433470Y0074802
X0432654Y0079449
X0431895Y0094094
Y0097243
X0428745
Y0094094
X0425596
Y0097243
X0422446
Y0094094
X0419297Y0097243
X0415828Y0097263
X0404678Y0097294
X0405587Y0094397
X0402922
X0396304Y0094999
X0393548
X0390792
X0389533Y0091771
X0399139Y0101062
X0404021Y0101102
X0407485Y0087007
X0405123Y0083857
X0425272Y0064685
X0430193
X0432654Y0059764
X0453668Y0060983
X0455558Y0063542
X0458016Y0064526
X0457644Y0062086
X0460007Y0058464
X0464180Y0064094
X0402991Y0168167
X0390517Y0181692
X0367525Y0180787
X0367485Y0185668
X0364297Y0188424
X0357486Y0187243
X0358313Y0191535
X0358352Y0194290
X0363115Y0197361
X0366874Y0202736
X0363115Y0208582
X0356993Y0204609
X0353914Y0207402
X0328744Y0208661
Y0203936
Y0199212
Y0194487
Y0189763
Y0185038
Y0180314
Y0175590
Y0170865
Y0166141
Y0161416
Y0156692
Y0151968
X0322051Y0154724
X0316264Y0155826
X0316145Y0151180
X0310634
X0312602Y0148818
X0315004Y0141574
X0318595Y0138040
X0320940Y0136952
X0319864Y0131866
X0317490Y0130074
X0322051Y0121653
X0325897Y0114880
X0325732Y0107002
X0317575Y0106483
X0317298Y0108977
X0313886Y0106483
X0310201
X0306468
X0306399Y0114448
X0304995Y0123740
X0301635Y0123756
X0301638Y0120487
X0299197Y0118117
X0297941Y0126818
X0302551Y0126346
X0306303Y0126377
X0303508Y0133031
X0303261Y0136063
X0307771Y0136057
X0304334Y0142125
X0301578
X0299350Y0140749
X0296854Y0140708
X0294374
X0289964Y0141294
X0287248
X0284071
X0282094Y0135334
X0279750Y0137300
X0276935Y0134485
X0274415Y0131966
X0273866Y0128247
X0273921Y0121302
X0280268Y0120995
X0282642Y0123188
X0282405Y0127283
X0287484Y0134330
X0266145Y0133857
X0265937Y0123487
X0264964Y0120471
X0264815Y0118247
Y0115200
Y0112117
X0263850Y0106294
X0266512Y0106369
X0269055
X0269586Y0096960
X0273464Y0096877
X0276929Y0096920
X0277957Y0092913
X0276598Y0089094
X0266905Y0089369
X0264264
X0262996Y0085432
X0259310Y0088224
X0262209Y0093779
X0263193Y0101220
X0258075
X0257602Y0105983
X0254480
X0251394
X0248271
X0248586Y0096672
X0250861Y0094213
X0245940
X0243307Y0097003
X0243224Y0090897
X0244138Y0078818
X0248744Y0078857
X0252602
X0257311Y0078881
X0262264Y0078983
X0271705Y0080775
X0282531Y0080885
X0285201Y0078228
X0282208Y0071653
X0279649Y0073542
X0275673
X0278980Y0069665
X0272956Y0068916
X0269374Y0068976
X0265437
X0274334Y0066338
X0278930Y0062744
X0283193Y0065786
X0297641Y0066535
X0300397
Y0069291
X0297641
X0307455Y0069607
X0306697Y0076771
X0308272Y0085826
X0311421Y0084251
Y0087401
X0313783Y0081495
X0317720Y0078346
Y0074409
X0317298Y0069607
X0322219
X0327140
X0327957Y0074802
X0327140Y0079449
X0326382Y0094094
Y0097243
X0323232
Y0094094
X0320082
Y0097243
X0316933
Y0094094
X0313783Y0097243
X0310315Y0097263
X0299165Y0097294
X0300074Y0094397
X0297409
X0290791Y0094999
X0288035
X0285279
X0284019Y0091771
X0293626Y0101062
X0298508Y0101102
X0301972Y0087007
X0299610Y0083857
X0319759Y0064685
X0324680
X0327140Y0059764
X0348155Y0060983
X0350044Y0063542
X0352503Y0064526
X0352131Y0062086
X0354493Y0058464
X0358667Y0064094
X0358115Y0078857
X0354257
X0349651Y0078818
X0348737Y0090897
X0351453Y0094213
X0356374
X0354100Y0096672
X0348820Y0097003
X0361899Y0097334
X0363588Y0101220
X0368706
X0367722Y0093779
X0364823Y0088224
X0368509Y0085432
X0367777Y0078983
X0362824Y0078881
X0363115Y0105983
X0359993
X0356907
X0353785
X0352072Y0115708
X0349745Y0118137
X0354462Y0118239
X0354296Y0123070
X0352072Y0125708
X0348430Y0126141
X0360084Y0125235
X0361704Y0127750
X0363982Y0126102
X0365950Y0127716
X0360320Y0118228
X0361296Y0113898
X0357072Y0115708
X0364178Y0109645
X0350668Y0136562
X0325269Y0139321
X0322838Y0146456
X0303233Y0153718
X0300831Y0153149
X0299085Y0151403
X0295240Y0149960
X0298885Y0158575
X0306541Y0161062
X0308256Y0163401
X0306986Y0168448
X0297478Y0168167
X0295152Y0172953
X0290231
X0285310
X0280389
X0275467
X0270546
X0265625
X0260703
X0255782
X0258243Y0177874
X0262012Y0180787
X0264295Y0179763
X0269689
X0275043Y0179724
X0280279Y0179960
X0282849Y0177874
X0287771
X0289689Y0180314
X0292692Y0177874
X0297613
X0295152Y0182796
X0291264Y0184684
X0292366Y0187991
X0297613Y0187717
X0295909Y0191495
X0296342Y0196731
X0293901Y0201220
X0289413Y0203227
X0284256Y0202204
X0280389Y0202481
X0280988Y0198542
X0280201Y0193660
X0282327Y0189566
X0278350Y0187519
X0272996
X0267641
Y0192873
X0270546Y0192638
X0268744Y0197243
X0273075Y0202165
X0275594Y0201692
X0273193Y0206338
X0268862Y0208582
X0264097Y0202756
X0261361Y0202736
X0257602Y0197361
X0252838Y0194290
X0252800Y0191535
X0251972Y0187243
X0258783Y0188424
X0261972Y0185668
X0263164Y0168032
X0268085
X0273007
X0277928
X0282849
X0287771
X0285310Y0163110
X0280389
X0282849Y0158189
X0287677Y0158282
X0277928Y0158189
X0255782Y0163110
X0258243Y0168032
X0250870Y0177934
X0251480Y0204609
X0248400Y0207402
X0257602Y0208582
X0223231Y0208661
Y0203936
Y0199212
Y0194487
Y0189763
Y0185038
Y0180314
Y0175590
Y0170865
Y0166141
Y0161416
Y0156692
Y0151968
X0216538Y0154724
X0217325Y0146456
X0219756Y0139321
X0215427Y0136952
X0213082Y0138040
X0214351Y0131866
X0216538Y0121653
X0220384Y0114880
X0220219Y0107002
X0220868Y0097243
Y0094094
X0217719
X0214569
Y0097243
X0217719
X0221627Y0079449
X0222443Y0074802
X0221627Y0069607
X0216706
X0219167Y0064685
X0214245
X0221627Y0059764
X0242641Y0060983
X0244531Y0063542
X0246990Y0064526
X0246618Y0062086
X0248980Y0058464
X0253153Y0064094
X0256386Y0097334
X0258665Y0109645
X0255782Y0113898
X0254807Y0118228
X0251559Y0115708
X0246559
X0244232Y0118137
X0248949Y0118239
X0248783Y0123070
X0246559Y0125708
X0242917Y0126141
X0254571Y0125235
X0256190Y0127750
X0258468Y0126102
X0260437Y0127716
X0245155Y0136562
X0285004Y0181692
X0309819Y0185688
X0312287Y0190354
X0304696Y0194350
X0307563Y0199881
Y0202070
X0307216Y0210109
X0304492Y0209763
X0308622Y0212243
X0316331Y0209841
X0299405Y0211314
X0297484Y0209487
X0295397Y0207519
X0356383Y0177934
X0363756Y0177874
X0366217Y0172953
X0361296
X0363756Y0168032
X0368677
X0361296Y0163110
X0210750Y0155826
X0210632Y0151180
X0205120
X0207089Y0148818
X0209490Y0141574
X0198821Y0142125
X0196065
X0193837Y0140749
X0191341Y0140708
X0188860
X0184451Y0141294
X0181735
X0178558
X0176581Y0135334
X0174237Y0137300
X0171422Y0134485
X0168902Y0131966
X0168353Y0128247
X0168408Y0121302
X0174754Y0120995
X0177128Y0123188
X0176892Y0127283
X0181971Y0134330
X0197994Y0133031
X0197747Y0136063
X0202258Y0136057
X0200790Y0126377
X0197038Y0126346
X0196122Y0123756
X0196124Y0120487
X0193683Y0118117
X0192428Y0126818
X0199482Y0123740
X0200885Y0114448
X0200955Y0106483
X0204687
X0208372
X0212061
X0211785Y0108977
X0211420Y0097243
Y0094094
X0208270Y0097243
X0204802Y0097263
X0205908Y0087401
Y0084251
X0202758Y0085826
X0196459Y0087007
X0194097Y0083857
X0194560Y0094397
X0191896
X0193652Y0097294
X0192994Y0101102
X0188113Y0101062
X0185278Y0094999
X0182522
X0179766
X0178506Y0091771
X0172443Y0092913
X0171416Y0096920
X0167951Y0096877
X0164073Y0096960
X0163542Y0106369
X0160998
X0158337Y0106294
X0157679Y0101220
X0152561
X0152089Y0105983
X0148967
X0145880
X0142758
X0143073Y0096672
X0145348Y0094213
X0140427
X0137794Y0097003
X0137711Y0090897
X0138624Y0078818
X0143231Y0078857
X0147089
X0151798Y0078881
X0156750Y0078983
X0157483Y0085432
X0158750Y0089369
X0161392
X0153797Y0088224
X0156695Y0093779
X0150872Y0097334
X0153152Y0109645
X0150269Y0113898
X0149294Y0118228
X0146046Y0115708
X0141046
X0138719Y0118137
X0143435Y0118239
X0143270Y0123070
X0141046Y0125708
X0137404Y0126141
X0149057Y0125235
X0150677Y0127750
X0152955Y0126102
X0154924Y0127716
X0160424Y0123487
X0159451Y0120471
X0159301Y0118247
Y0115200
Y0112117
X0160632Y0133857
X0139642Y0136562
X0114243Y0139321
X0109914Y0136952
X0107569Y0138040
X0103977Y0141574
X0101576Y0148818
X0099607Y0151180
X0105119
X0105237Y0155826
X0111024Y0154724
X0117718Y0156692
Y0161416
Y0166141
Y0170865
Y0175590
Y0180314
Y0185038
Y0189763
Y0194487
Y0199212
Y0203936
Y0208661
X0105304Y0209841
X0096190Y0210109
X0093465Y0209763
X0097595Y0212243
X0088379Y0211314
X0086458Y0209487
X0084371Y0207519
X0082875Y0201220
X0078387Y0203227
X0073229Y0202204
X0069362Y0202481
X0069962Y0198542
X0069174Y0193660
X0071300Y0189566
X0067324Y0187519
X0061969
X0056615
Y0192873
X0059520Y0192638
X0057718Y0197243
X0062048Y0202165
X0064568Y0201692
X0062166Y0206338
X0057836Y0208582
X0058662Y0179763
X0064017Y0179724
X0069253Y0179960
X0071823Y0177874
X0076744
X0078662Y0180314
X0081665Y0177874
X0086586
X0084126Y0182796
X0080237Y0184684
X0081340Y0187991
X0086586Y0187717
X0084883Y0191495
X0085316Y0196731
X0093670Y0194350
X0096536Y0199881
Y0202070
X0101261Y0190354
X0098792Y0185688
X0095959Y0168448
X0097229Y0163401
X0095514Y0161062
X0087858Y0158575
X0088059Y0151403
X0089804Y0153149
X0092206Y0153718
X0084214Y0149960
X0083347Y0140708
X0085828
X0088324Y0140749
X0090552Y0142125
X0093308
X0092234Y0136063
X0092481Y0133031
X0096745Y0136057
X0095276Y0126377
X0091524Y0126346
X0090608Y0123756
X0090611Y0120487
X0088170Y0118117
X0086914Y0126818
X0093968Y0123740
X0095372Y0114448
X0095442Y0106483
X0099174
X0102859
X0106548
X0106272Y0108977
X0114706Y0107002
X0114871Y0114880
X0111024Y0121653
X0108838Y0131866
X0106464Y0130074
X0111812Y0146456
X0117718Y0151968
X0150269Y0163110
X0152730Y0168032
X0157651
X0162572
X0167493
X0172415
X0177336
X0182257
X0184718Y0172953
X0189639
X0191965Y0168167
X0201473Y0168448
X0202742Y0163401
X0201027Y0161062
X0193372Y0158575
X0193572Y0151403
X0195317Y0153149
X0197719Y0153718
X0189727Y0149960
X0182164Y0158282
X0177336Y0158189
X0172415
X0174875Y0163110
X0179797
Y0172953
X0174875
X0169954
X0165033
X0160112
X0155190
X0150269
X0152730Y0177874
X0156498Y0180787
X0158782Y0179763
X0164176
X0169530Y0179724
X0174766Y0179960
X0177336Y0177874
X0182257
X0184176Y0180314
X0187179Y0177874
X0192100
X0189639Y0182796
X0185750Y0184684
X0186853Y0187991
X0192100Y0187717
X0190396Y0191495
X0190829Y0196731
X0188388Y0201220
X0183900Y0203227
X0178743Y0202204
X0174875Y0202481
X0175475Y0198542
X0174687Y0193660
X0176813Y0189566
X0172837Y0187519
X0167483
X0162128
Y0192873
X0165033Y0192638
X0163231Y0197243
X0167561Y0202165
X0170081Y0201692
X0167680Y0206338
X0163349Y0208582
X0158584Y0202756
X0155848Y0202736
X0152089Y0197361
X0147325Y0194290
X0147287Y0191535
X0146459Y0187243
X0153270Y0188424
X0156459Y0185668
X0145357Y0177934
X0145967Y0204609
X0142887Y0207402
X0152089Y0208582
X0189884Y0207519
X0191971Y0209487
X0193892Y0211314
X0198979Y0209763
X0201703Y0210109
X0203109Y0212243
X0210817Y0209841
X0202050Y0202070
Y0199881
X0199183Y0194350
X0206774Y0190354
X0204306Y0185688
X0179490Y0181692
X0211977Y0130074
X0212207Y0078346
Y0074409
X0211785Y0069607
X0201942
X0194884Y0069291
Y0066535
X0192128
Y0069291
X0201183Y0076771
X0208270Y0081495
X0179687Y0078228
X0177018Y0080885
X0176695Y0071653
X0174136Y0073542
X0170160
X0173467Y0069665
X0167443Y0068916
X0163861Y0068976
X0159924
X0168821Y0066338
X0173417Y0062744
X0177680Y0065786
X0166191Y0080775
X0171085Y0089094
X0147640Y0064094
X0141476Y0064526
X0141105Y0062086
X0139018Y0063542
X0137128Y0060983
X0143467Y0058464
X0116114Y0059764
X0113654Y0064685
X0108732
X0111193Y0069607
X0116114
X0116930Y0074802
X0116114Y0079449
X0106694Y0078346
Y0074409
X0106272Y0069607
X0096429
X0089371Y0069291
Y0066535
X0086615
Y0069291
X0095670Y0076771
X0097245Y0085826
X0100395Y0084251
Y0087401
X0102757Y0081495
X0105906Y0094094
Y0097243
X0102757
X0099288Y0097263
X0109056Y0097243
Y0094094
X0112206
Y0097243
X0115355
Y0094094
X0089047Y0094397
X0086383
X0088139Y0097294
X0087481Y0101102
X0082599Y0101062
X0079765Y0094999
X0077009
X0074253
X0072993Y0091771
X0066930Y0092913
X0065903Y0096920
X0062438Y0096877
X0058560Y0096960
X0058029Y0106369
X0062895Y0121302
X0069241Y0120995
X0071615Y0123188
X0071379Y0127283
X0071068Y0135334
X0068723Y0137300
X0065908Y0134485
X0063389Y0131966
X0062840Y0128247
X0076458Y0134330
X0076221Y0141294
X0078938
X0073044
X0071823Y0158189
X0076651Y0158282
X0074283Y0163110
X0069362
X0071823Y0168032
X0076744
X0079205Y0172953
X0084126
X0086452Y0168167
X0074283Y0172953
X0069362
X0064441
X0059520
X0061980Y0168032
X0066901
Y0158189
X0057059Y0168032
X0073977Y0181692
X0065572Y0089094
X0060678Y0080775
X0071505Y0080885
X0074174Y0078228
X0071182Y0071653
X0068623Y0073542
X0064647
X0067954Y0069665
X0061930Y0068916
X0058347Y0068976
X0063308Y0066338
X0067904Y0062744
X0072166Y0065786
X0088584Y0083857
X0090946Y0087007
X0055879Y0089369
X0053237
X0051969Y0085432
X0048284Y0088224
X0051182Y0093779
X0052166Y0101220
X0047048
X0046576Y0105983
X0043454
X0040367
X0037245
X0037560Y0096672
X0039835Y0094213
X0034913
X0032280Y0097003
X0032198Y0090897
X0033111Y0078818
X0037718Y0078857
X0041576
X0046284Y0078881
X0051237Y0078983
X0054410Y0068976
X0042127Y0064094
X0035963Y0064526
X0035592Y0062086
X0033505Y0063542
X0031615Y0060983
X0037954Y0058464
X0045359Y0097334
X0047639Y0109645
X0044756Y0113898
X0043780Y0118228
X0040532Y0115708
X0035532
X0033206Y0118137
X0037922Y0118239
X0037757Y0123070
X0035532Y0125708
X0031891Y0126141
X0043544Y0125235
X0045164Y0127750
X0047442Y0126102
X0049410Y0127716
X0054910Y0123487
X0053938Y0120471
X0053788Y0118247
Y0115200
Y0112117
X0052824Y0106294
X0055485Y0106369
X0055119Y0133857
X0034128Y0136562
X0044756Y0163110
X0047216Y0168032
X0052138
X0054598Y0172953
X0049677
X0044756
X0047216Y0177874
X0050985Y0180787
X0053269Y0179763
X0050946Y0185668
X0047757Y0188424
X0040946Y0187243
X0041774Y0191535
X0041812Y0194290
X0046576Y0197361
X0050335Y0202736
X0053071Y0202756
X0046576Y0208582
X0040454Y0204609
X0037374Y0207402
X0039843Y0177934
X0043111Y0213582
X0042048Y0217479
X0040601Y0223612
X0035954Y0228188
X0034895Y0237275
X0034913Y0241851
X0039835
X0044756
X0043030Y0239194
X0041496Y0235550
X0046413Y0233263
X0047210Y0230794
X0050335Y0226555
X0053070Y0227519
X0055297Y0225292
X0054332Y0219213
X0050058Y0214940
X0054214Y0237676
X0054476Y0241466
X0049139Y0253298
X0043859Y0259606
X0040080Y0258424
X0041615Y0266022
X0037836Y0265589
X0034579Y0267785
X0034913Y0271378
X0035032Y0274672
X0035005Y0278287
X0034913Y0281221
X0034922Y0284208
X0034913Y0291063
X0039835
X0044756
X0049677
X0054598
X0051643Y0280235
X0049568Y0277991
X0049850Y0273622
X0053605Y0273975
X0055662Y0269019
X0049241Y0267964
X0049296Y0265562
X0045395Y0264842
X0044883Y0280865
X0041947Y0280169
X0042295Y0246772
X0037374
X0034913Y0251693
X0056308Y0259432
X0058635Y0261802
X0060635Y0274472
X0063359Y0276267
X0066028Y0277783
X0064603Y0282830
X0064441Y0291063
X0067914Y0292007
X0069068Y0289511
X0069269Y0294302
X0067166Y0297164
X0075824Y0292759
X0078682Y0293401
X0078525Y0289330
X0075710Y0289306
X0075619Y0283775
X0078135Y0283684
X0075391Y0281302
X0072820Y0279109
X0076158Y0271818
X0078619Y0272838
X0080733Y0274625
X0082883Y0276759
X0086024Y0273896
X0087612Y0278077
X0085650Y0281434
X0086143Y0283999
X0086387Y0289444
X0086548Y0293082
X0089047Y0291063
X0093968
X0096429Y0295984
X0098890Y0300906
X0103811
X0108732
X0109213Y0297322
X0106048Y0292853
X0106666Y0289696
X0106272Y0286142
X0103784Y0288231
X0103811Y0291063
X0101350Y0286142
X0098595Y0285834
X0098111Y0279566
X0101143Y0279684
X0104174Y0274369
X0108969Y0274125
X0108859Y0270235
X0109044Y0266224
X0108938Y0262361
X0108859Y0258227
X0108879Y0255113
X0113780Y0252007
X0117639Y0254291
X0117718Y0258267
X0117521Y0247991
X0117718Y0241731
Y0237007
Y0232283
Y0227558
Y0222834
Y0218109
Y0213385
X0103190Y0220153
X0101237Y0229022
X0093968Y0232008
X0093851Y0235672
X0097883Y0236149
X0096702Y0242509
X0094450Y0244763
X0100328Y0248161
X0099619Y0251597
X0089613Y0249587
X0087678Y0251455
X0085737Y0253436
X0079653Y0249927
X0071576Y0255196
X0073111Y0257192
X0075119Y0261810
X0087384Y0261901
X0088149Y0267361
X0092363Y0266731
X0092645Y0270769
X0098623Y0273208
X0099978Y0269588
X0099843Y0266999
X0099883Y0263424
X0094804Y0259841
X0086613Y0242967
X0079653Y0236007
X0076135Y0232456
X0072728Y0229013
X0071823Y0236929
X0066901
X0063934Y0239129
X0066036Y0242838
X0062879Y0245853
X0063249Y0233664
X0056694Y0235747
X0056851Y0219802
X0061930Y0218542
X0064095Y0216338
X0068111Y0224408
X0081918Y0222751
X0081665Y0227087
X0086586
X0089706Y0228283
X0089804Y0213389
X0080080Y0217440
X0079548Y0220042
X0072693Y0242967
X0067423Y0268309
X0059489Y0291062
X0064441Y0310748
X0069843Y0310590
X0069292Y0313385
Y0317322
Y0321259
Y0325196
Y0329133
Y0333070
X0069274Y0337007
X0069292Y0340944
Y0344881
Y0348818
X0061980Y0345197
X0057059
X0059520Y0340276
X0064441
X0066901Y0335354
X0061980
X0057059
X0064441Y0330433
X0061980Y0325512
X0064441Y0320591
X0066901Y0315669
X0078662Y0307912
X0089765Y0307479
X0092914
X0096851
X0100788
X0104725
X0108662
X0112599
X0116536
X0113654Y0300906
X0111969Y0287953
X0109383Y0282157
X0109371Y0278464
X0140518Y0278287
X0140427Y0281221
X0140435Y0284208
X0140427Y0291063
X0145348
X0150269
X0155190
X0160112
X0165002Y0291062
X0169954Y0291063
X0173427Y0292007
X0174581Y0289511
X0174782Y0294302
X0172679Y0297164
X0181337Y0292759
X0184195Y0293401
X0184038Y0289330
X0181223Y0289306
X0181132Y0283775
X0183648Y0283684
X0180904Y0281302
X0178333Y0279109
X0171542Y0277783
X0168872Y0276267
X0166148Y0274472
X0159119Y0273975
X0155363Y0273622
X0155081Y0277991
X0157156Y0280235
X0150396Y0280865
X0147460Y0280169
X0140546Y0274672
X0140427Y0271378
X0140093Y0267785
X0143349Y0265589
X0147128Y0266022
X0150908Y0264842
X0154809Y0265562
X0154754Y0267964
X0161176Y0269019
X0164148Y0261802
X0161821Y0259432
X0149372Y0259606
X0145593Y0258424
X0140427Y0251693
X0142887Y0246772
X0147808
X0150269Y0241851
X0148544Y0239194
X0147009Y0235550
X0151926Y0233263
X0152723Y0230794
X0155848Y0226555
X0158583Y0227519
X0160810Y0225292
X0162364Y0219802
X0159845Y0219213
X0167443Y0218542
X0169609Y0216338
X0173624Y0224408
X0178241Y0229013
X0181648Y0232456
X0185166Y0236007
X0177336Y0236929
X0172415
X0169447Y0239129
X0171550Y0242838
X0168392Y0245853
X0168762Y0233664
X0162207Y0235747
X0159727Y0237676
X0159989Y0241466
X0145348Y0241851
X0140427
X0140408Y0237275
X0141467Y0228188
X0146114Y0223612
X0147561Y0217479
X0148624Y0213582
X0155571Y0214940
X0185593Y0217440
X0185061Y0220042
X0187432Y0222751
X0187179Y0227087
X0192100
X0195219Y0228283
X0199482Y0232008
X0199364Y0235672
X0203396Y0236149
X0202216Y0242509
X0199963Y0244763
X0205841Y0248161
X0205132Y0251597
X0195126Y0249587
X0193191Y0251455
X0191250Y0253436
X0185166Y0249927
X0177089Y0255196
X0178624Y0257192
X0180632Y0261810
X0181672Y0271818
X0184132Y0272838
X0186246Y0274625
X0188396Y0276759
X0191538Y0273896
X0193125Y0278077
X0191163Y0281434
X0191656Y0283999
X0191900Y0289444
X0192061Y0293082
X0194560Y0291063
X0199482
X0201942Y0295984
X0204403Y0300906
X0209324
X0210239Y0307479
X0206301
X0202364
X0198427
X0195278
X0199482Y0300906
X0209324Y0291063
X0209298Y0288231
X0212179Y0289696
X0211561Y0292853
X0211785Y0286142
X0206863
X0204109Y0285834
X0203624Y0279566
X0206656Y0279684
X0209687Y0274369
X0204136Y0273208
X0205491Y0269588
X0205357Y0266999
X0205396Y0263424
X0200317Y0259841
X0197876Y0266731
X0198158Y0270769
X0193663Y0267361
X0192897Y0261901
X0192126Y0242967
X0178207Y0242967
X0172937Y0268309
X0170116Y0282830
X0169954Y0310748
X0175357Y0310590
X0174805Y0313385
Y0317322
Y0321259
Y0325196
Y0329133
Y0333070
X0174788Y0337007
X0174805Y0340944
Y0344881
Y0348818
X0167493Y0345197
X0162572
X0165033Y0340276
X0169954
X0172415Y0335354
X0167493
X0162572
X0169954Y0330433
X0167493Y0325512
X0169954Y0320591
X0172415Y0315669
X0184176Y0307912
X0154652Y0253298
X0104206Y0239520
X0093968Y0300906
X0209719Y0239520
X0206750Y0229022
X0208703Y0220153
X0195317Y0213389
X0223231Y0213385
Y0218109
Y0222834
Y0227558
Y0232283
Y0237007
Y0241731
X0223034Y0247991
X0223152Y0254291
X0223231Y0258267
X0214372Y0258227
X0214392Y0255113
X0214451Y0262361
X0214558Y0266224
X0214372Y0270235
X0214483Y0274125
X0214884Y0278464
X0214896Y0282157
X0217482Y0287953
X0214727Y0297322
X0214245Y0300906
X0219167
X0218113Y0307479
X0222050
X0214176
X0245940Y0291063
X0250861
X0255782
X0260703
X0265625
X0270515Y0291062
X0275467Y0291063
X0278941Y0292007
X0280094Y0289511
X0280295Y0294302
X0278193Y0297164
X0286850Y0292759
X0289708Y0293401
X0289551Y0289330
X0286736Y0289306
X0286646Y0283775
X0289161Y0283684
X0286417Y0281302
X0283846Y0279109
X0277055Y0277783
X0274386Y0276267
X0271661Y0274472
X0264632Y0273975
X0260876Y0273622
X0260594Y0277991
X0262669Y0280235
X0255909Y0280865
X0252973Y0280169
X0245940Y0281221
X0245949Y0284208
X0246031Y0278287
X0246059Y0274672
X0245940Y0271378
X0245606Y0267785
X0248862Y0265589
X0252642Y0266022
X0256421Y0264842
X0260323Y0265562
X0260267Y0267964
X0266689Y0269019
X0269661Y0261802
X0267335Y0259432
X0254886Y0259606
X0251106Y0258424
X0245940Y0251693
X0248400Y0246772
X0253322
X0255782Y0241851
X0254057Y0239194
X0252522Y0235550
X0257439Y0233263
X0258236Y0230794
X0261361Y0226555
X0264096Y0227519
X0266323Y0225292
X0267878Y0219802
X0265358Y0219213
X0272956Y0218542
X0275122Y0216338
X0279137Y0224408
X0283755Y0229013
X0287161Y0232456
X0290680Y0236007
X0282849Y0236929
X0277928
X0274960Y0239129
X0277063Y0242838
X0273905Y0245853
X0274275Y0233664
X0267720Y0235747
X0265240Y0237676
X0265503Y0241466
X0250861Y0241851
X0245940
X0245921Y0237275
X0246980Y0228188
X0251627Y0223612
X0253075Y0217479
X0254138Y0213582
X0261084Y0214940
X0291106Y0217440
X0290575Y0220042
X0292945Y0222751
X0292692Y0227087
X0297613
X0300732Y0228283
X0304995Y0232008
X0304878Y0235672
X0308909Y0236149
X0307729Y0242509
X0305476Y0244763
X0311354Y0248161
X0310646Y0251597
X0300640Y0249587
X0298704Y0251455
X0296763Y0253436
X0290680Y0249927
X0282602Y0255196
X0284138Y0257192
X0286145Y0261810
X0287185Y0271818
X0289646Y0272838
X0291760Y0274625
X0293909Y0276759
X0297051Y0273896
X0298638Y0278077
X0296676Y0281434
X0297169Y0283999
X0297413Y0289444
X0297575Y0293082
X0300074Y0291063
X0304995
X0307455Y0295984
X0309916Y0300906
X0314837
X0319759
X0320240Y0297322
X0317075Y0292853
X0317693Y0289696
X0317298Y0286142
X0314811Y0288231
X0314837Y0291063
X0312377Y0286142
X0309622Y0285834
X0309138Y0279566
X0312169Y0279684
X0315201Y0274369
X0319996Y0274125
X0319886Y0270235
X0320071Y0266224
X0319964Y0262361
X0319886Y0258227
X0319905Y0255113
X0324807Y0252007
X0328665Y0254291
X0328744Y0258267
X0328547Y0247991
X0328744Y0241731
Y0237007
Y0232283
Y0227558
Y0222834
Y0218109
Y0213385
X0314216Y0220153
X0312264Y0229022
X0315232Y0239520
X0297639Y0242967
X0283720Y0242967
X0278450Y0268309
X0275630Y0282830
X0275467Y0310748
X0280870Y0310590
X0280319Y0313385
Y0317322
Y0321259
Y0325196
Y0329133
Y0333070
X0280301Y0337007
X0280319Y0340944
Y0344881
Y0348818
X0273007Y0345197
X0268085
X0270546Y0340276
X0275467
X0277928Y0335354
X0273007
X0268085
X0275467Y0330433
X0273007Y0325512
X0275467Y0320591
X0277928Y0315669
X0289689Y0307912
X0300791Y0307479
X0303941
X0307878
X0311815
X0315752
X0319689
X0323626
X0327563
X0324680Y0300906
X0322995Y0287953
X0320409Y0282157
X0320397Y0278464
X0309649Y0273208
X0311005Y0269588
X0310870Y0266999
X0310909Y0263424
X0305830Y0259841
X0303390Y0266731
X0303672Y0270769
X0299176Y0267361
X0298411Y0261901
X0304995Y0300906
X0351453Y0291063
X0356374
X0361296
X0366217
X0368182Y0280235
X0366108Y0277991
X0366389Y0273622
X0365781Y0267964
X0365836Y0265562
X0361934Y0264842
X0358155Y0266022
X0354375Y0265589
X0351119Y0267785
X0351453Y0271378
X0351572Y0274672
X0351544Y0278287
X0351453Y0281221
X0351462Y0284208
X0358486Y0280169
X0361422Y0280865
X0360399Y0259606
X0356619Y0258424
X0351453Y0251693
X0353914Y0246772
X0358835
X0361296Y0241851
X0359570Y0239194
X0358036Y0235550
X0362953Y0233263
X0363749Y0230794
X0366874Y0226555
X0366597Y0214940
X0359651Y0213582
X0358588Y0217479
X0357140Y0223612
X0352493Y0228188
X0351434Y0237275
X0351453Y0241851
X0356374
X0365678Y0253298
X0300831Y0213389
X0260165Y0253298
X0219294Y0252007
X0372848Y0259432
X0375174Y0261802
X0372202Y0269019
X0370145Y0273975
X0377174Y0274472
X0379899Y0276267
X0382568Y0277783
X0381143Y0282830
X0380980Y0291063
X0384454Y0292007
X0385608Y0289511
X0385808Y0294302
X0383706Y0297164
X0392363Y0292759
X0395222Y0293401
X0395064Y0289330
X0392249Y0289306
X0392159Y0283775
X0394674Y0283684
X0391930Y0281302
X0389359Y0279109
X0392698Y0271818
X0395159Y0272838
X0397273Y0274625
X0399423Y0276759
X0402564Y0273896
X0404151Y0278077
X0402189Y0281434
X0402682Y0283999
X0402926Y0289444
X0403088Y0293082
X0405587Y0291063
X0410508
X0412969Y0295984
X0415429Y0300906
X0420351
X0425272
X0425753Y0297322
X0422588Y0292853
X0423206Y0289696
X0422811Y0286142
X0420324Y0288231
X0420351Y0291063
X0417890Y0286142
X0415135Y0285834
X0414651Y0279566
X0417682Y0279684
X0420714Y0274369
X0425509Y0274125
X0425399Y0270235
X0425584Y0266224
X0425478Y0262361
X0425399Y0258227
X0425419Y0255113
X0430320Y0252007
X0434178Y0254291
X0434257Y0258267
X0434060Y0247991
X0434257Y0241731
Y0237007
Y0232283
Y0227558
Y0222834
Y0218109
Y0213385
X0419730Y0220153
X0417777Y0229022
X0410508Y0232008
X0410391Y0235672
X0414423Y0236149
X0413242Y0242509
X0410989Y0244763
X0416867Y0248161
X0416159Y0251597
X0406153Y0249587
X0404218Y0251455
X0402276Y0253436
X0396193Y0249927
X0388115Y0255196
X0389651Y0257192
X0391659Y0261810
X0403924Y0261901
X0404689Y0267361
X0408903Y0266731
X0409185Y0270769
X0415163Y0273208
X0416518Y0269588
X0416383Y0266999
X0416422Y0263424
X0411344Y0259841
X0403153Y0242967
X0396193Y0236007
X0392674Y0232456
X0389268Y0229013
X0388362Y0236929
X0383441
X0380474Y0239129
X0382576Y0242838
X0379418Y0245853
X0379789Y0233664
X0373234Y0235747
X0370753Y0237676
X0371016Y0241466
X0369609Y0227519
X0371837Y0225292
X0373391Y0219802
X0370871Y0219213
X0378470Y0218542
X0380635Y0216338
X0384651Y0224408
X0398458Y0222751
X0398205Y0227087
X0403126
X0406245Y0228283
X0406344Y0213389
X0396619Y0217440
X0396088Y0220042
X0389233Y0242967
X0383963Y0268309
X0376029Y0291062
X0371138Y0291063
X0380980Y0310748
X0386383Y0310590
X0385832Y0313385
Y0317322
Y0321259
Y0325196
Y0329133
Y0333070
X0385814Y0337007
X0385832Y0340944
Y0344881
Y0348818
X0378520Y0345197
X0373599
X0376059Y0340276
X0380980
X0383441Y0335354
X0378520
X0373599
X0380980Y0330433
X0378520Y0325512
X0380980Y0320591
X0383441Y0315669
X0395202Y0307912
X0406304Y0307479
X0409454
X0413391
X0417328
X0421265
X0425202
X0429139
X0433076
X0430193Y0300906
X0428508Y0287953
X0425922Y0282157
X0425911Y0278464
X0457058Y0278287
X0456966Y0281221
X0456975Y0284208
X0456966Y0291063
X0461887
X0466809
X0471730
X0476651
X0481542Y0291062
X0486494Y0291063
X0489967Y0292007
X0491121Y0289511
X0491322Y0294302
X0489219Y0297164
X0497877Y0292759
X0500735Y0293401
X0500577Y0289330
X0497762Y0289306
X0497672Y0283775
X0500188Y0283684
X0497444Y0281302
X0494873Y0279109
X0488081Y0277783
X0485412Y0276267
X0482688Y0274472
X0475658Y0273975
X0471902Y0273622
X0471621Y0277991
X0473696Y0280235
X0466936Y0280865
X0464000Y0280169
X0457085Y0274672
X0456966Y0271378
X0456632Y0267785
X0459888Y0265589
X0463668Y0266022
X0467448Y0264842
X0471349Y0265562
X0471294Y0267964
X0477715Y0269019
X0480688Y0261802
X0478361Y0259432
X0465912Y0259606
X0462133Y0258424
X0456966Y0251693
X0459427Y0246772
X0464348
X0466809Y0241851
X0465083Y0239194
X0463549Y0235550
X0468466Y0233263
X0469263Y0230794
X0472388Y0226555
X0475123Y0227519
X0477350Y0225292
X0478904Y0219802
X0476384Y0219213
X0483983Y0218542
X0486148Y0216338
X0490164Y0224408
X0494781Y0229013
X0498188Y0232456
X0501706Y0236007
X0493876Y0236929
X0488954
X0485987Y0239129
X0488089Y0242838
X0484932Y0245853
X0485302Y0233664
X0478747Y0235747
X0476266Y0237676
X0476529Y0241466
X0461887Y0241851
X0456966
X0456948Y0237275
X0458006Y0228188
X0462654Y0223612
X0464101Y0217479
X0465164Y0213582
X0472111Y0214940
X0502133Y0217440
X0501601Y0220042
X0503971Y0222751
X0503718Y0227087
X0508639
X0511759Y0228283
X0516021Y0232008
X0515904Y0235672
X0519936Y0236149
X0518755Y0242509
X0516503Y0244763
X0522380Y0248161
X0521672Y0251597
X0511666Y0249587
X0509731Y0251455
X0507790Y0253436
X0501706Y0249927
X0493629Y0255196
X0495164Y0257192
X0497172Y0261810
X0498211Y0271818
X0500672Y0272838
X0502786Y0274625
X0504936Y0276759
X0508077Y0273896
X0509664Y0278077
X0507702Y0281434
X0508195Y0283999
X0508440Y0289444
X0508601Y0293082
X0511100Y0291063
X0516021
X0518482Y0295984
X0520943Y0300906
X0516021
X0514967Y0307479
X0511818
X0518904
X0522841
X0523403Y0286142
X0520648Y0285834
X0520164Y0279566
X0523196Y0279684
X0520676Y0273208
X0522031Y0269588
X0521896Y0266999
X0521936Y0263424
X0516857Y0259841
X0514416Y0266731
X0514698Y0270769
X0510202Y0267361
X0509437Y0261901
X0508666Y0242967
X0494746Y0242967
X0489476Y0268309
X0486656Y0282830
X0486494Y0310748
X0491896Y0310590
X0491345Y0313385
Y0317322
Y0321259
Y0325196
Y0329133
Y0333070
X0491327Y0337007
X0491345Y0340944
Y0344881
Y0348818
X0484033Y0345197
X0479112
X0481572Y0340276
X0486494
X0488954Y0335354
X0484033
X0479112
X0486494Y0330433
X0484033Y0325512
X0486494Y0320591
X0488954Y0315669
X0500715Y0307912
X0471192Y0253298
X0420745Y0239520
X0410508Y0300906
X0523290Y0229022
X0511857Y0213389
X0525243Y0220153
X0539770Y0218109
Y0222834
Y0227558
Y0232283
Y0237007
Y0241731
X0539573Y0247991
X0539692Y0254291
X0539770Y0258267
X0530912Y0258227
X0530932Y0255113
X0530991Y0262361
X0531097Y0266224
X0530912Y0270235
X0531022Y0274125
X0531424Y0278464
X0531436Y0282157
X0528325Y0286142
X0528719Y0289696
X0528101Y0292853
X0525864Y0291063
X0525837Y0288231
X0534022Y0287953
X0531266Y0297322
X0530785Y0300906
X0535706
X0534652Y0307479
X0538589
X0530715
X0526778
X0525864Y0300906
X0526227Y0274369
X0535833Y0252007
X0526259Y0239520
X0539770Y0213385
T02
X0528747Y0086220
X0533747
X0428233
X0423234
X0322720
X0317720
X0217207
X0212207
X0111694
X0106694
T03
X0085551Y0313780
X0191064
X0296578
X0402091
X0507604
T04
X0380989Y0150708
X0390832
X0486503
X0496345
X0285319
X0275476
X0179806
X0169963
X0074292
X0064450
T05
X0072442Y0036613
X0177955
X0283468
X0388982
X0494495
X0490164Y0111810
X0384651
X0279138
X0173624
X0068111
X0053150Y0313779
X0158664
X0264177
X0369690
X0475203
T06
X0393842Y0195131
X0499355
X0288328
X0182815
X0077302
T07
X0053544Y0049605
X0096064
X0159057
X0201577
X0264571
X0307090
X0370084
X0412604
X0475597
X0518117
T08
X0467802Y0142558
X0362289
X0256775
X0151262
X0045749
Y0335393
X0151262
X0256775
X0362289
X0467802
T09
X0014764Y0014764
X0556890
X0014764Y0367913
X0556890
T10
X0456085Y0110708
X0464085
X0460085Y0130708
X0354572
X0358572Y0110708
X0350572
X0253059
X0245059
X0249059Y0130708
X0143546
X0147546Y0110708
X0139546
X0042032
X0034032
X0038032Y0130708
M30
