G04*
G04 #@! TF.GenerationSoftware,Altium Limited,Altium Designer,20.1.14 (287)*
G04*
G04 Layer_Color=16711935*
%FSAX25Y25*%
%MOIN*%
G70*
G04*
G04 #@! TF.SameCoordinates,1811FDE6-F90D-4AF7-B065-783B26A83BD4*
G04*
G04*
G04 #@! TF.FilePolarity,Positive*
G04*
G01*
G75*
%ADD76C,0.01000*%
%ADD91C,0.00600*%
D76*
X0641653Y0382677D02*
X0643653Y0376677D01*
X0639653D02*
X0641653Y0382677D01*
X0639653Y0005606D02*
X0641653Y-0000394D01*
X0643653Y0005606D01*
X0641653Y0205137D02*
Y0382677D01*
Y-0000394D02*
Y0173946D01*
X0573047Y0382677D02*
X0642654D01*
X0573047Y-0000394D02*
X0642654D01*
X0565654Y0461937D02*
X0571654Y0463937D01*
X0565654Y0465937D02*
X0571654Y0463937D01*
X-0000394D02*
X0005606Y0465937D01*
X-0000394Y0463937D02*
X0005606Y0461937D01*
X0302125Y0463937D02*
X0571654D01*
X-0000394D02*
X0265935D01*
X0571654Y0384071D02*
Y0464937D01*
X-0000394Y0384071D02*
Y0464937D01*
D91*
X0645253Y0175546D02*
X0646252Y0176546D01*
Y0178545D01*
X0645253Y0179545D01*
X0641254D01*
X0640254Y0178545D01*
Y0176546D01*
X0641254Y0175546D01*
X0642253D01*
X0643253Y0176546D01*
Y0179545D01*
X0640254Y0181544D02*
Y0185543D01*
X0641254D01*
X0645253Y0181544D01*
X0646252D01*
X0647252Y0188542D02*
X0646252Y0189542D01*
X0645253D01*
Y0188542D01*
X0646252D01*
Y0189542D01*
X0647252Y0188542D01*
X0648252Y0187542D01*
X0641254Y0193540D02*
X0640254Y0194540D01*
Y0196539D01*
X0641254Y0197539D01*
X0642253D01*
X0643253Y0196539D01*
Y0195540D01*
Y0196539D01*
X0644253Y0197539D01*
X0645253D01*
X0646252Y0196539D01*
Y0194540D01*
X0645253Y0193540D01*
X0641254Y0199539D02*
X0640254Y0200538D01*
Y0202537D01*
X0641254Y0203537D01*
X0645253D01*
X0646252Y0202537D01*
Y0200538D01*
X0645253Y0199539D01*
X0641254D01*
X0267535Y0459338D02*
X0269535D01*
X0268535D01*
Y0465336D01*
X0267535Y0464337D01*
X0275533Y0459338D02*
Y0465336D01*
X0272534Y0462337D01*
X0276532D01*
X0282530Y0465336D02*
X0278532D01*
Y0462337D01*
X0280531Y0463337D01*
X0281531D01*
X0282530Y0462337D01*
Y0460338D01*
X0281531Y0459338D01*
X0279531D01*
X0278532Y0460338D01*
X0285529Y0458339D02*
X0286529Y0459338D01*
Y0460338D01*
X0285529D01*
Y0459338D01*
X0286529D01*
X0285529Y0458339D01*
X0284530Y0457339D01*
X0290528Y0464337D02*
X0291528Y0465336D01*
X0293527D01*
X0294527Y0464337D01*
Y0463337D01*
X0293527Y0462337D01*
X0292527D01*
X0293527D01*
X0294527Y0461338D01*
Y0460338D01*
X0293527Y0459338D01*
X0291528D01*
X0290528Y0460338D01*
X0296526Y0464337D02*
X0297526Y0465336D01*
X0299525D01*
X0300525Y0464337D01*
Y0460338D01*
X0299525Y0459338D01*
X0297526D01*
X0296526Y0460338D01*
Y0464337D01*
M02*
