G04*
G04 #@! TF.GenerationSoftware,Altium Limited,Altium Designer,20.1.14 (287)*
G04*
G04 Layer_Color=65535*
%FSAX25Y25*%
%MOIN*%
G70*
G04*
G04 #@! TF.SameCoordinates,1811FDE6-F90D-4AF7-B065-783B26A83BD4*
G04*
G04*
G04 #@! TF.FilePolarity,Positive*
G04*
G01*
G75*
%ADD21C,0.03937*%
D21*
X0119694Y0101180D02*
G03*
X0119686Y0101180I-0000008J-0001969D01*
G01*
X0121654Y0099212D02*
G03*
X0119694Y0101180I-0001969J0000000D01*
G01*
Y0101180D02*
G03*
X0121654Y0103149I-0000008J0001969D01*
G01*
X0119686Y0101180D02*
G03*
X0119694Y0101180I0000000J0001969D01*
G01*
D02*
G03*
X0121654Y0103149I-0000008J0001969D01*
G01*
X0119686Y0101180D02*
G03*
X0119694Y0101180I0000000J0001969D01*
G01*
X0119678D02*
G03*
X0119686Y0101180I0000008J0001969D01*
G01*
X0119675Y0101180D02*
G03*
X0119678Y0101180I0000011J0001969D01*
G01*
Y0101180D02*
G03*
X0119675Y0101180I0000008J-0001969D01*
G01*
X0119686Y0101180D02*
G03*
X0119678Y0101180I0000000J-0001969D01*
G01*
X0119694D02*
G03*
X0119686Y0101180I-0000008J-0001969D01*
G01*
X0121654Y0099212D02*
G03*
X0119694Y0101180I-0001969J0000000D01*
G01*
X0121654Y0049600D02*
G03*
X0121654Y0049606I-0001969J0000007D01*
G01*
X0121654Y0049605D02*
G03*
X0121654Y0049606I-0021652J0000000D01*
G01*
Y0049600D02*
G03*
X0121654Y0049605I-0021652J0000006D01*
G01*
X0100001Y0027953D02*
G03*
X0121654Y0049600I0000001J0021652D01*
G01*
X0045671Y0354725D02*
G03*
X0045654Y0354724I0000000J-0001969D01*
G01*
D02*
G03*
X0027953Y0337006I0000017J-0017718D01*
G01*
X0045671Y0354724D02*
G03*
X0045654Y0354724I-0000000J-0017718D01*
G01*
X0027953Y0103149D02*
G03*
X0029902Y0101180I0001969J0000000D01*
G01*
X0027953Y0103149D02*
G03*
X0029902Y0101180I0001969J0000000D01*
G01*
X0027953Y0049605D02*
G03*
X0049607Y0027953I0021652J0000000D01*
G01*
X0029902Y0101180D02*
G03*
X0027953Y0099212I0000019J-0001969D01*
G01*
X0029902Y0101180D02*
G03*
X0027953Y0099212I0000019J-0001969D01*
G01*
X0118505Y0120472D02*
Y0148031D01*
Y0120472D02*
X0119661D01*
X0118505Y0148031D02*
X0119661D01*
X0118505Y0289763D02*
X0119661D01*
X0118505Y0262204D02*
X0119661D01*
X0118505D02*
Y0289763D01*
X0055511Y0101180D02*
X0079130D01*
X0029921D02*
X0043693D01*
X0119675Y0101180D02*
X0119686D01*
X0090946Y0101180D02*
X0119675Y0101180D01*
Y0101180D02*
X0119686D01*
X0090946Y0101180D02*
X0119675Y0101180D01*
X0090946Y0101180D02*
X0090946Y0101180D01*
X0027953Y0049605D02*
Y0049605D01*
Y0049605D02*
Y0049605D01*
X0225207Y0101180D02*
G03*
X0225199Y0101180I-0000008J-0001969D01*
G01*
X0227168Y0099212D02*
G03*
X0225207Y0101180I-0001969J0000000D01*
G01*
Y0101180D02*
G03*
X0227168Y0103149I-0000008J0001969D01*
G01*
X0225199Y0101180D02*
G03*
X0225207Y0101180I0000000J0001969D01*
G01*
D02*
G03*
X0227168Y0103149I-0000008J0001969D01*
G01*
X0225199Y0101180D02*
G03*
X0225207Y0101180I0000000J0001969D01*
G01*
X0225191D02*
G03*
X0225199Y0101180I0000008J0001969D01*
G01*
X0225188Y0101180D02*
G03*
X0225191Y0101180I0000011J0001969D01*
G01*
Y0101180D02*
G03*
X0225188Y0101180I0000008J-0001969D01*
G01*
X0225199Y0101180D02*
G03*
X0225191Y0101180I0000000J-0001969D01*
G01*
X0225207D02*
G03*
X0225199Y0101180I-0000008J-0001969D01*
G01*
X0227168Y0099212D02*
G03*
X0225207Y0101180I-0001969J0000000D01*
G01*
X0227168Y0049600D02*
G03*
X0227168Y0049606I-0001969J0000007D01*
G01*
X0227168Y0049605D02*
G03*
X0227168Y0049606I-0021652J0000000D01*
G01*
Y0049600D02*
G03*
X0227168Y0049605I-0021652J0000006D01*
G01*
X0205514Y0027953D02*
G03*
X0227168Y0049600I0000001J0021652D01*
G01*
X0151184Y0354725D02*
G03*
X0151167Y0354724I0000000J-0001969D01*
G01*
D02*
G03*
X0133466Y0337006I0000017J-0017718D01*
G01*
X0151184Y0354724D02*
G03*
X0151167Y0354724I-0000000J-0017718D01*
G01*
X0133466Y0103149D02*
G03*
X0135416Y0101180I0001969J0000000D01*
G01*
X0133466Y0103149D02*
G03*
X0135416Y0101180I0001969J0000000D01*
G01*
X0133466Y0049605D02*
G03*
X0155120Y0027953I0021652J0000000D01*
G01*
X0135416Y0101180D02*
G03*
X0133466Y0099212I0000019J-0001969D01*
G01*
X0135416Y0101180D02*
G03*
X0133466Y0099212I0000019J-0001969D01*
G01*
X0224018Y0120472D02*
Y0148031D01*
Y0120472D02*
X0225174D01*
X0224018Y0148031D02*
X0225174D01*
X0224018Y0289763D02*
X0225174D01*
X0224018Y0262204D02*
X0225174D01*
X0224018D02*
Y0289763D01*
X0161024Y0101180D02*
X0184643D01*
X0135434D02*
X0149206D01*
X0225188Y0101180D02*
X0225199D01*
X0196459Y0101180D02*
X0225188Y0101180D01*
Y0101180D02*
X0225199D01*
X0196459Y0101180D02*
X0225188Y0101180D01*
X0196459Y0101180D02*
X0196459Y0101180D01*
X0133466Y0049605D02*
Y0049605D01*
Y0049605D02*
Y0049605D01*
X0330720Y0101180D02*
G03*
X0330712Y0101180I-0000008J-0001969D01*
G01*
X0332681Y0099212D02*
G03*
X0330720Y0101180I-0001969J0000000D01*
G01*
Y0101180D02*
G03*
X0332681Y0103149I-0000008J0001969D01*
G01*
X0330712Y0101180D02*
G03*
X0330720Y0101180I0000000J0001969D01*
G01*
D02*
G03*
X0332681Y0103149I-0000008J0001969D01*
G01*
X0330712Y0101180D02*
G03*
X0330720Y0101180I0000000J0001969D01*
G01*
X0330705D02*
G03*
X0330712Y0101180I0000008J0001969D01*
G01*
X0330701Y0101180D02*
G03*
X0330705Y0101180I0000011J0001969D01*
G01*
Y0101180D02*
G03*
X0330701Y0101180I0000008J-0001969D01*
G01*
X0330712Y0101180D02*
G03*
X0330705Y0101180I0000000J-0001969D01*
G01*
X0330720D02*
G03*
X0330712Y0101180I-0000008J-0001969D01*
G01*
X0332681Y0099212D02*
G03*
X0330720Y0101180I-0001969J0000000D01*
G01*
X0332681Y0049600D02*
G03*
X0332681Y0049606I-0001969J0000007D01*
G01*
X0332681Y0049605D02*
G03*
X0332681Y0049606I-0021652J0000000D01*
G01*
Y0049600D02*
G03*
X0332681Y0049605I-0021652J0000006D01*
G01*
X0311028Y0027953D02*
G03*
X0332681Y0049600I0000001J0021652D01*
G01*
X0256698Y0354725D02*
G03*
X0256680Y0354724I0000000J-0001969D01*
G01*
D02*
G03*
X0238979Y0337006I0000017J-0017718D01*
G01*
X0256698Y0354724D02*
G03*
X0256680Y0354724I-0000000J-0017718D01*
G01*
X0238979Y0103149D02*
G03*
X0240929Y0101180I0001969J0000000D01*
G01*
X0238979Y0103149D02*
G03*
X0240929Y0101180I0001969J0000000D01*
G01*
X0238979Y0049605D02*
G03*
X0260633Y0027953I0021652J0000000D01*
G01*
X0240929Y0101180D02*
G03*
X0238979Y0099212I0000019J-0001969D01*
G01*
X0240929Y0101180D02*
G03*
X0238979Y0099212I0000019J-0001969D01*
G01*
X0329531Y0120472D02*
Y0148031D01*
Y0120472D02*
X0330687D01*
X0329531Y0148031D02*
X0330687D01*
X0329531Y0289763D02*
X0330687D01*
X0329531Y0262204D02*
X0330687D01*
X0329531D02*
Y0289763D01*
X0266538Y0101180D02*
X0290156D01*
X0240948D02*
X0254719D01*
X0330701Y0101180D02*
X0330712D01*
X0301972Y0101180D02*
X0330701Y0101180D01*
Y0101180D02*
X0330712D01*
X0301972Y0101180D02*
X0330701Y0101180D01*
X0301972Y0101180D02*
X0301972Y0101180D01*
X0238979Y0049605D02*
Y0049605D01*
Y0049605D02*
Y0049605D01*
X0436233Y0101180D02*
G03*
X0436226Y0101180I-0000008J-0001969D01*
G01*
X0438194Y0099212D02*
G03*
X0436233Y0101180I-0001969J0000000D01*
G01*
Y0101180D02*
G03*
X0438194Y0103149I-0000008J0001969D01*
G01*
X0436226Y0101180D02*
G03*
X0436233Y0101180I0000000J0001969D01*
G01*
D02*
G03*
X0438194Y0103149I-0000008J0001969D01*
G01*
X0436226Y0101180D02*
G03*
X0436233Y0101180I0000000J0001969D01*
G01*
X0436218D02*
G03*
X0436226Y0101180I0000008J0001969D01*
G01*
X0436215Y0101180D02*
G03*
X0436218Y0101180I0000011J0001969D01*
G01*
Y0101180D02*
G03*
X0436215Y0101180I0000008J-0001969D01*
G01*
X0436226Y0101180D02*
G03*
X0436218Y0101180I0000000J-0001969D01*
G01*
X0436233D02*
G03*
X0436226Y0101180I-0000008J-0001969D01*
G01*
X0438194Y0099212D02*
G03*
X0436233Y0101180I-0001969J0000000D01*
G01*
X0438194Y0049600D02*
G03*
X0438194Y0049606I-0001969J0000007D01*
G01*
X0438194Y0049605D02*
G03*
X0438194Y0049606I-0021652J0000000D01*
G01*
Y0049600D02*
G03*
X0438194Y0049605I-0021652J0000006D01*
G01*
X0416541Y0027953D02*
G03*
X0438194Y0049600I0000001J0021652D01*
G01*
X0362211Y0354725D02*
G03*
X0362193Y0354724I0000000J-0001969D01*
G01*
D02*
G03*
X0344492Y0337006I0000017J-0017718D01*
G01*
X0362211Y0354724D02*
G03*
X0362193Y0354724I-0000000J-0017718D01*
G01*
X0344492Y0103149D02*
G03*
X0346442Y0101180I0001969J0000000D01*
G01*
X0344492Y0103149D02*
G03*
X0346442Y0101180I0001969J0000000D01*
G01*
X0344492Y0049605D02*
G03*
X0366146Y0027953I0021652J0000000D01*
G01*
X0346442Y0101180D02*
G03*
X0344492Y0099212I0000019J-0001969D01*
G01*
X0346442Y0101180D02*
G03*
X0344492Y0099212I0000019J-0001969D01*
G01*
X0435044Y0120472D02*
Y0148031D01*
Y0120472D02*
X0436201D01*
X0435044Y0148031D02*
X0436201D01*
X0435044Y0289763D02*
X0436201D01*
X0435044Y0262204D02*
X0436201D01*
X0435044D02*
Y0289763D01*
X0372051Y0101180D02*
X0395670D01*
X0346461D02*
X0360233D01*
X0436215Y0101180D02*
X0436226D01*
X0407486Y0101180D02*
X0436215Y0101180D01*
Y0101180D02*
X0436226D01*
X0407486Y0101180D02*
X0436215Y0101180D01*
X0407486Y0101180D02*
X0407486Y0101180D01*
X0344492Y0049605D02*
Y0049605D01*
Y0049605D02*
Y0049605D01*
X0541747Y0101180D02*
G03*
X0541739Y0101180I-0000008J-0001969D01*
G01*
X0543707Y0099212D02*
G03*
X0541747Y0101180I-0001969J0000000D01*
G01*
Y0101180D02*
G03*
X0543707Y0103149I-0000008J0001969D01*
G01*
X0541739Y0101180D02*
G03*
X0541747Y0101180I0000000J0001969D01*
G01*
D02*
G03*
X0543707Y0103149I-0000008J0001969D01*
G01*
X0541739Y0101180D02*
G03*
X0541747Y0101180I0000000J0001969D01*
G01*
X0541731D02*
G03*
X0541739Y0101180I0000008J0001969D01*
G01*
X0541728Y0101180D02*
G03*
X0541731Y0101180I0000011J0001969D01*
G01*
Y0101180D02*
G03*
X0541728Y0101180I0000008J-0001969D01*
G01*
X0541739Y0101180D02*
G03*
X0541731Y0101180I0000000J-0001969D01*
G01*
X0541747D02*
G03*
X0541739Y0101180I-0000008J-0001969D01*
G01*
X0543707Y0099212D02*
G03*
X0541747Y0101180I-0001969J0000000D01*
G01*
X0543707Y0049600D02*
G03*
X0543707Y0049606I-0001969J0000007D01*
G01*
X0543707Y0049605D02*
G03*
X0543707Y0049606I-0021652J0000000D01*
G01*
Y0049600D02*
G03*
X0543707Y0049605I-0021652J0000006D01*
G01*
X0522054Y0027953D02*
G03*
X0543707Y0049600I0000001J0021652D01*
G01*
X0467724Y0354725D02*
G03*
X0467706Y0354724I0000000J-0001969D01*
G01*
D02*
G03*
X0450006Y0337006I0000017J-0017718D01*
G01*
X0467724Y0354724D02*
G03*
X0467706Y0354724I-0000000J-0017718D01*
G01*
X0450006Y0103149D02*
G03*
X0451955Y0101180I0001969J0000000D01*
G01*
X0450006Y0103149D02*
G03*
X0451955Y0101180I0001969J0000000D01*
G01*
X0450006Y0049605D02*
G03*
X0471660Y0027953I0021652J0000000D01*
G01*
X0451955Y0101180D02*
G03*
X0450005Y0099212I0000019J-0001969D01*
G01*
X0451955Y0101180D02*
G03*
X0450005Y0099212I0000019J-0001969D01*
G01*
X0540558Y0120472D02*
Y0148031D01*
Y0120472D02*
X0541714D01*
X0540558Y0148031D02*
X0541714D01*
X0540558Y0289763D02*
X0541714D01*
X0540558Y0262204D02*
X0541714D01*
X0540558D02*
Y0289763D01*
X0477564Y0101180D02*
X0501183D01*
X0451974D02*
X0465746D01*
X0541728Y0101180D02*
X0541739D01*
X0512999Y0101180D02*
X0541728Y0101180D01*
Y0101180D02*
X0541739D01*
X0512999Y0101180D02*
X0541728Y0101180D01*
X0512999Y0101180D02*
X0512999Y0101180D01*
X0450006Y0049605D02*
Y0049605D01*
Y0049605D02*
Y0049605D01*
M02*
