G04*
G04 #@! TF.GenerationSoftware,Altium Limited,Altium Designer,20.1.14 (287)*
G04*
G04 Layer_Color=16711935*
%FSAX25Y25*%
%MOIN*%
G70*
G04*
G04 #@! TF.SameCoordinates,1811FDE6-F90D-4AF7-B065-783B26A83BD4*
G04*
G04*
G04 #@! TF.FilePolarity,Negative*
G04*
G01*
G75*
%ADD36R,0.01968X0.02362*%
%ADD76C,0.01000*%
%ADD79C,0.00591*%
%ADD81C,0.11811*%
%ADD85C,0.04737*%
%ADD86C,0.06706*%
%ADD87O,0.05131X0.07690*%
%ADD88C,0.20485*%
%ADD89C,0.04343*%
%ADD91C,0.00600*%
%ADD92R,0.39843X0.06102*%
%ADD93R,0.06417X1.23189*%
%ADD94R,0.44961X0.05669*%
%ADD95R,0.05668X1.16733*%
%ADD96R,0.31023X0.06024*%
%ADD97R,0.16548X0.14580*%
%ADD98R,0.03162X0.02769*%
%ADD99R,0.03950X0.04737*%
G04:AMPARAMS|DCode=100|XSize=49.34mil|YSize=94.61mil|CornerRadius=14.34mil|HoleSize=0mil|Usage=FLASHONLY|Rotation=0.000|XOffset=0mil|YOffset=0mil|HoleType=Round|Shape=RoundedRectangle|*
%AMROUNDEDRECTD100*
21,1,0.04934,0.06594,0,0,0.0*
21,1,0.02067,0.09461,0,0,0.0*
1,1,0.02867,0.01034,-0.03297*
1,1,0.02867,-0.01034,-0.03297*
1,1,0.02867,-0.01034,0.03297*
1,1,0.02867,0.01034,0.03297*
%
%ADD100ROUNDEDRECTD100*%
%ADD101R,0.04737X0.04737*%
%ADD102R,0.03162X0.04343*%
G04:AMPARAMS|DCode=103|XSize=32.41mil|YSize=30.44mil|CornerRadius=0mil|HoleSize=0mil|Usage=FLASHONLY|Rotation=315.000|XOffset=0mil|YOffset=0mil|HoleType=Round|Shape=Rectangle|*
%AMROTATEDRECTD103*
4,1,4,-0.02222,0.00070,-0.00070,0.02222,0.02222,-0.00070,0.00070,-0.02222,-0.02222,0.00070,0.0*
%
%ADD103ROTATEDRECTD103*%

%ADD104R,0.02769X0.03162*%
%ADD105R,0.01575X0.03150*%
%ADD106C,0.01575*%
G04:AMPARAMS|DCode=107|XSize=17.84mil|YSize=41.47mil|CornerRadius=6.46mil|HoleSize=0mil|Usage=FLASHONLY|Rotation=180.000|XOffset=0mil|YOffset=0mil|HoleType=Round|Shape=RoundedRectangle|*
%AMROUNDEDRECTD107*
21,1,0.01784,0.02854,0,0,180.0*
21,1,0.00492,0.04147,0,0,180.0*
1,1,0.01292,-0.00246,0.01427*
1,1,0.01292,0.00246,0.01427*
1,1,0.01292,0.00246,-0.01427*
1,1,0.01292,-0.00246,-0.01427*
%
%ADD107ROUNDEDRECTD107*%
%ADD108R,0.03162X0.03320*%
%ADD109R,0.01772X0.01772*%
%ADD110R,0.01772X0.01772*%
%ADD111R,0.03950X0.03950*%
%ADD112R,0.03320X0.03162*%
%ADD113R,0.05918X0.07887*%
%ADD114R,0.05918X0.04343*%
%ADD115R,0.07414X0.06784*%
%ADD116R,0.06902X0.09068*%
%ADD117R,0.04540X0.02690*%
%ADD118C,0.01378*%
%ADD119P,0.05586X4X270.0*%
G04:AMPARAMS|DCode=120|XSize=27.69mil|YSize=74.93mil|CornerRadius=0mil|HoleSize=0mil|Usage=FLASHONLY|Rotation=45.000|XOffset=0mil|YOffset=0mil|HoleType=Round|Shape=Rectangle|*
%AMROTATEDRECTD120*
4,1,4,0.01670,-0.03628,-0.03628,0.01670,-0.01670,0.03628,0.03628,-0.01670,0.01670,-0.03628,0.0*
%
%ADD120ROTATEDRECTD120*%

G04:AMPARAMS|DCode=121|XSize=27.69mil|YSize=74.93mil|CornerRadius=0mil|HoleSize=0mil|Usage=FLASHONLY|Rotation=135.000|XOffset=0mil|YOffset=0mil|HoleType=Round|Shape=Rectangle|*
%AMROTATEDRECTD121*
4,1,4,0.03628,0.01670,-0.01670,-0.03628,-0.03628,-0.01670,0.01670,0.03628,0.03628,0.01670,0.0*
%
%ADD121ROTATEDRECTD121*%

G04:AMPARAMS|DCode=122|XSize=67.06mil|YSize=67.06mil|CornerRadius=9.91mil|HoleSize=0mil|Usage=FLASHONLY|Rotation=135.000|XOffset=0mil|YOffset=0mil|HoleType=Round|Shape=RoundedRectangle|*
%AMROUNDEDRECTD122*
21,1,0.06706,0.04724,0,0,135.0*
21,1,0.04724,0.06706,0,0,135.0*
1,1,0.01981,0.00000,0.03341*
1,1,0.01981,0.03341,0.00000*
1,1,0.01981,0.00000,-0.03341*
1,1,0.01981,-0.03341,0.00000*
%
%ADD122ROUNDEDRECTD122*%
%ADD123P,0.09483X4X180.0*%
G04:AMPARAMS|DCode=124|XSize=33.2mil|YSize=31.62mil|CornerRadius=0mil|HoleSize=0mil|Usage=FLASHONLY|Rotation=135.000|XOffset=0mil|YOffset=0mil|HoleType=Round|Shape=Rectangle|*
%AMROTATEDRECTD124*
4,1,4,0.02292,-0.00056,0.00056,-0.02292,-0.02292,0.00056,-0.00056,0.02292,0.02292,-0.00056,0.0*
%
%ADD124ROTATEDRECTD124*%

%ADD125R,0.01968X0.01575*%
%ADD126R,0.04528X0.04528*%
%ADD127R,0.01772X0.02461*%
%ADD128R,0.02461X0.01772*%
G04:AMPARAMS|DCode=129|XSize=32.41mil|YSize=30.44mil|CornerRadius=0mil|HoleSize=0mil|Usage=FLASHONLY|Rotation=225.000|XOffset=0mil|YOffset=0mil|HoleType=Round|Shape=Rectangle|*
%AMROTATEDRECTD129*
4,1,4,0.00070,0.02222,0.02222,0.00070,-0.00070,-0.02222,-0.02222,-0.00070,0.00070,0.02222,0.0*
%
%ADD129ROTATEDRECTD129*%

%ADD130R,0.02769X0.01981*%
%ADD131R,0.02690X0.04540*%
%ADD132R,0.06706X0.07099*%
%ADD133R,0.19304X0.06706*%
%ADD134R,0.03740X0.01772*%
%ADD135R,0.03162X0.05131*%
%ADD136R,0.01981X0.02572*%
G04:AMPARAMS|DCode=137|XSize=31.62mil|YSize=27.69mil|CornerRadius=0mil|HoleSize=0mil|Usage=FLASHONLY|Rotation=225.000|XOffset=0mil|YOffset=0mil|HoleType=Round|Shape=Rectangle|*
%AMROTATEDRECTD137*
4,1,4,0.00139,0.02097,0.02097,0.00139,-0.00139,-0.02097,-0.02097,-0.00139,0.00139,0.02097,0.0*
%
%ADD137ROTATEDRECTD137*%

%ADD138R,0.02769X0.02769*%
%ADD139R,0.01575X0.01575*%
G04:AMPARAMS|DCode=140|XSize=21.78mil|YSize=27.69mil|CornerRadius=0mil|HoleSize=0mil|Usage=FLASHONLY|Rotation=225.000|XOffset=0mil|YOffset=0mil|HoleType=Round|Shape=Rectangle|*
%AMROTATEDRECTD140*
4,1,4,-0.00209,0.01749,0.01749,-0.00209,0.00209,-0.01749,-0.01749,0.00209,-0.00209,0.01749,0.0*
%
%ADD140ROTATEDRECTD140*%

%ADD141R,0.07493X0.03556*%
%ADD142R,0.03950X0.03950*%
%ADD143C,0.08674*%
G36*
X0512228Y0279317D02*
X0512253Y0279315D01*
X0512253Y0279315D01*
X0512253D01*
X0512278Y0279310D01*
X0512304Y0279305D01*
X0512304Y0279305D01*
X0512304Y0279305D01*
X0512332Y0279295D01*
X0512354Y0279288D01*
X0512354Y0279288D01*
X0512354Y0279288D01*
X0512384Y0279273D01*
X0512401Y0279265D01*
X0512401Y0279265D01*
X0512401Y0279265D01*
X0512418Y0279253D01*
X0512444Y0279236D01*
X0512444Y0279236D01*
X0512444Y0279236D01*
X0512456Y0279225D01*
X0512484Y0279201D01*
X0512484Y0279201D01*
X0512484Y0279201D01*
X0512828Y0278856D01*
X0512828Y0278856D01*
X0512828Y0278856D01*
X0512863Y0278817D01*
X0512882Y0278788D01*
X0512892Y0278773D01*
X0512892Y0278773D01*
D01*
X0512893Y0278772D01*
X0512915Y0278726D01*
X0512916Y0278724D01*
X0512932Y0278677D01*
X0512938Y0278646D01*
X0512943Y0278625D01*
X0512946Y0278573D01*
Y0278573D01*
Y0278573D01*
X0512946Y0277933D01*
X0512943Y0277881D01*
X0512938Y0277860D01*
X0512932Y0277829D01*
X0512915Y0277780D01*
X0512892Y0277733D01*
D01*
X0512892Y0277733D01*
X0512882Y0277718D01*
X0512863Y0277689D01*
X0512828Y0277650D01*
X0512828Y0277650D01*
X0512828Y0277650D01*
X0512789Y0277615D01*
X0512760Y0277596D01*
X0512745Y0277586D01*
X0512745Y0277586D01*
D01*
X0512698Y0277563D01*
X0512649Y0277546D01*
X0512618Y0277540D01*
X0512597Y0277536D01*
X0512545Y0277532D01*
X0511462D01*
X0511410Y0277536D01*
X0511359Y0277546D01*
X0511309Y0277563D01*
X0511262Y0277586D01*
X0511218Y0277615D01*
X0511179Y0277650D01*
X0511144Y0277689D01*
X0511115Y0277733D01*
X0511092Y0277780D01*
X0511075Y0277829D01*
X0511065Y0277881D01*
X0511061Y0277933D01*
Y0278917D01*
X0511063Y0278945D01*
X0511065Y0278970D01*
X0511065Y0278970D01*
Y0278970D01*
X0511070Y0278995D01*
X0511075Y0279021D01*
X0511075Y0279021D01*
X0511075Y0279021D01*
X0511082Y0279040D01*
X0511092Y0279071D01*
X0511092Y0279071D01*
X0511092Y0279071D01*
X0511102Y0279092D01*
X0511115Y0279118D01*
X0511115Y0279118D01*
X0511115Y0279118D01*
X0511127Y0279135D01*
X0511144Y0279161D01*
X0511144Y0279161D01*
X0511144Y0279161D01*
X0511155Y0279173D01*
X0511179Y0279201D01*
X0511179Y0279201D01*
X0511179Y0279201D01*
X0511206Y0279225D01*
X0511218Y0279235D01*
X0511218Y0279235D01*
X0511218Y0279235D01*
X0511244Y0279253D01*
X0511262Y0279264D01*
X0511262Y0279264D01*
X0511262Y0279265D01*
X0511288Y0279277D01*
X0511309Y0279288D01*
X0511309Y0279288D01*
X0511309Y0279288D01*
X0511340Y0279298D01*
X0511358Y0279305D01*
X0511359Y0279305D01*
X0511359Y0279305D01*
X0511385Y0279310D01*
X0511410Y0279315D01*
X0511410D01*
X0511410Y0279315D01*
X0511435Y0279316D01*
X0511462Y0279318D01*
X0512200Y0279318D01*
X0512200D01*
X0512200D01*
X0512228Y0279317D01*
D02*
G37*
G36*
X0406714D02*
X0406739Y0279315D01*
X0406739Y0279315D01*
X0406740D01*
X0406765Y0279310D01*
X0406791Y0279305D01*
X0406791Y0279305D01*
X0406791Y0279305D01*
X0406819Y0279295D01*
X0406841Y0279288D01*
X0406841Y0279288D01*
X0406841Y0279288D01*
X0406870Y0279273D01*
X0406887Y0279265D01*
X0406888Y0279265D01*
X0406888Y0279265D01*
X0406905Y0279253D01*
X0406931Y0279236D01*
X0406931Y0279236D01*
X0406931Y0279236D01*
X0406943Y0279225D01*
X0406971Y0279201D01*
X0406971Y0279201D01*
X0406971Y0279201D01*
X0407315Y0278856D01*
X0407315Y0278856D01*
X0407315Y0278856D01*
X0407350Y0278817D01*
X0407369Y0278788D01*
X0407379Y0278773D01*
X0407379Y0278773D01*
D01*
X0407380Y0278772D01*
X0407402Y0278726D01*
X0407403Y0278724D01*
X0407419Y0278677D01*
X0407425Y0278646D01*
X0407429Y0278625D01*
X0407433Y0278573D01*
Y0278573D01*
Y0278573D01*
X0407433Y0277933D01*
X0407429Y0277881D01*
X0407425Y0277860D01*
X0407419Y0277829D01*
X0407402Y0277780D01*
X0407379Y0277733D01*
D01*
X0407379Y0277733D01*
X0407369Y0277718D01*
X0407350Y0277689D01*
X0407315Y0277650D01*
X0407315Y0277650D01*
X0407315Y0277650D01*
X0407276Y0277615D01*
X0407247Y0277596D01*
X0407232Y0277586D01*
X0407232Y0277586D01*
D01*
X0407185Y0277563D01*
X0407135Y0277546D01*
X0407105Y0277540D01*
X0407084Y0277536D01*
X0407032Y0277532D01*
X0405949D01*
X0405897Y0277536D01*
X0405845Y0277546D01*
X0405796Y0277563D01*
X0405749Y0277586D01*
X0405705Y0277615D01*
X0405666Y0277650D01*
X0405631Y0277689D01*
X0405602Y0277733D01*
X0405579Y0277780D01*
X0405562Y0277829D01*
X0405552Y0277881D01*
X0405548Y0277933D01*
Y0278917D01*
X0405550Y0278945D01*
X0405552Y0278970D01*
X0405552Y0278970D01*
Y0278970D01*
X0405557Y0278995D01*
X0405562Y0279021D01*
X0405562Y0279021D01*
X0405562Y0279021D01*
X0405568Y0279040D01*
X0405579Y0279071D01*
X0405579Y0279071D01*
X0405579Y0279071D01*
X0405589Y0279092D01*
X0405602Y0279118D01*
X0405602Y0279118D01*
X0405602Y0279118D01*
X0405614Y0279135D01*
X0405631Y0279161D01*
X0405631Y0279161D01*
X0405631Y0279161D01*
X0405641Y0279173D01*
X0405666Y0279201D01*
X0405666Y0279201D01*
X0405666Y0279201D01*
X0405693Y0279225D01*
X0405705Y0279235D01*
X0405705Y0279235D01*
X0405705Y0279235D01*
X0405731Y0279253D01*
X0405749Y0279264D01*
X0405749Y0279264D01*
X0405749Y0279265D01*
X0405774Y0279277D01*
X0405796Y0279288D01*
X0405796Y0279288D01*
X0405796Y0279288D01*
X0405827Y0279298D01*
X0405845Y0279305D01*
X0405845Y0279305D01*
X0405845Y0279305D01*
X0405871Y0279310D01*
X0405897Y0279315D01*
X0405897D01*
X0405897Y0279315D01*
X0405922Y0279316D01*
X0405949Y0279318D01*
X0406687Y0279318D01*
X0406687D01*
X0406687D01*
X0406714Y0279317D01*
D02*
G37*
G36*
X0301201D02*
X0301226Y0279315D01*
X0301226Y0279315D01*
X0301226D01*
X0301252Y0279310D01*
X0301278Y0279305D01*
X0301278Y0279305D01*
X0301278Y0279305D01*
X0301306Y0279295D01*
X0301327Y0279288D01*
X0301327Y0279288D01*
X0301327Y0279288D01*
X0301357Y0279273D01*
X0301374Y0279265D01*
X0301374Y0279265D01*
X0301374Y0279265D01*
X0301392Y0279253D01*
X0301418Y0279236D01*
X0301418Y0279236D01*
X0301418Y0279236D01*
X0301430Y0279225D01*
X0301457Y0279201D01*
X0301457Y0279201D01*
X0301457Y0279201D01*
X0301802Y0278856D01*
X0301802Y0278856D01*
X0301802Y0278856D01*
X0301837Y0278817D01*
X0301856Y0278788D01*
X0301866Y0278773D01*
X0301866Y0278773D01*
D01*
X0301866Y0278772D01*
X0301889Y0278726D01*
X0301890Y0278724D01*
X0301906Y0278677D01*
X0301912Y0278646D01*
X0301916Y0278625D01*
X0301920Y0278573D01*
Y0278573D01*
Y0278573D01*
X0301919Y0277933D01*
X0301916Y0277881D01*
X0301912Y0277860D01*
X0301906Y0277829D01*
X0301889Y0277780D01*
X0301866Y0277733D01*
D01*
X0301866Y0277733D01*
X0301856Y0277718D01*
X0301837Y0277689D01*
X0301802Y0277650D01*
X0301802Y0277650D01*
X0301802Y0277650D01*
X0301763Y0277615D01*
X0301734Y0277596D01*
X0301719Y0277586D01*
X0301719Y0277586D01*
D01*
X0301672Y0277563D01*
X0301622Y0277546D01*
X0301591Y0277540D01*
X0301571Y0277536D01*
X0301519Y0277532D01*
X0300436D01*
X0300384Y0277536D01*
X0300332Y0277546D01*
X0300283Y0277563D01*
X0300236Y0277586D01*
X0300192Y0277615D01*
X0300152Y0277650D01*
X0300118Y0277689D01*
X0300089Y0277733D01*
X0300065Y0277780D01*
X0300049Y0277829D01*
X0300039Y0277881D01*
X0300035Y0277933D01*
Y0278917D01*
X0300037Y0278945D01*
X0300039Y0278970D01*
X0300039Y0278970D01*
Y0278970D01*
X0300044Y0278995D01*
X0300049Y0279021D01*
X0300049Y0279021D01*
X0300049Y0279021D01*
X0300055Y0279040D01*
X0300065Y0279071D01*
X0300065Y0279071D01*
X0300065Y0279071D01*
X0300076Y0279092D01*
X0300089Y0279118D01*
X0300089Y0279118D01*
X0300089Y0279118D01*
X0300100Y0279135D01*
X0300118Y0279161D01*
X0300118Y0279161D01*
X0300118Y0279161D01*
X0300128Y0279173D01*
X0300152Y0279201D01*
X0300152Y0279201D01*
X0300152Y0279201D01*
X0300180Y0279225D01*
X0300192Y0279235D01*
X0300192Y0279235D01*
X0300192Y0279235D01*
X0300218Y0279253D01*
X0300235Y0279264D01*
X0300235Y0279264D01*
X0300236Y0279265D01*
X0300261Y0279277D01*
X0300282Y0279288D01*
X0300283Y0279288D01*
X0300283Y0279288D01*
X0300313Y0279298D01*
X0300332Y0279305D01*
X0300332Y0279305D01*
X0300332Y0279305D01*
X0300358Y0279310D01*
X0300383Y0279315D01*
X0300383D01*
X0300384Y0279315D01*
X0300408Y0279316D01*
X0300436Y0279318D01*
X0301174Y0279318D01*
X0301174D01*
X0301174D01*
X0301201Y0279317D01*
D02*
G37*
G36*
X0195688D02*
X0195713Y0279315D01*
X0195713Y0279315D01*
X0195713D01*
X0195738Y0279310D01*
X0195764Y0279305D01*
X0195764Y0279305D01*
X0195765Y0279305D01*
X0195793Y0279295D01*
X0195814Y0279288D01*
X0195814Y0279288D01*
X0195814Y0279288D01*
X0195844Y0279273D01*
X0195861Y0279265D01*
X0195861Y0279265D01*
X0195861Y0279265D01*
X0195879Y0279253D01*
X0195905Y0279236D01*
X0195905Y0279236D01*
X0195905Y0279236D01*
X0195916Y0279225D01*
X0195944Y0279201D01*
X0195944Y0279201D01*
X0195944Y0279201D01*
X0196289Y0278856D01*
X0196289Y0278856D01*
X0196289Y0278856D01*
X0196323Y0278817D01*
X0196343Y0278788D01*
X0196353Y0278773D01*
X0196353Y0278773D01*
D01*
X0196353Y0278772D01*
X0196376Y0278726D01*
X0196377Y0278724D01*
X0196393Y0278677D01*
X0196399Y0278646D01*
X0196403Y0278625D01*
X0196406Y0278573D01*
Y0278573D01*
Y0278573D01*
X0196406Y0277933D01*
X0196403Y0277881D01*
X0196399Y0277860D01*
X0196393Y0277829D01*
X0196376Y0277780D01*
X0196353Y0277733D01*
D01*
X0196353Y0277733D01*
X0196343Y0277718D01*
X0196323Y0277689D01*
X0196289Y0277650D01*
X0196289Y0277650D01*
X0196289Y0277650D01*
X0196249Y0277615D01*
X0196220Y0277596D01*
X0196206Y0277586D01*
X0196206Y0277586D01*
D01*
X0196159Y0277563D01*
X0196109Y0277546D01*
X0196078Y0277540D01*
X0196058Y0277536D01*
X0196005Y0277532D01*
X0194923D01*
X0194870Y0277536D01*
X0194819Y0277546D01*
X0194769Y0277563D01*
X0194722Y0277586D01*
X0194679Y0277615D01*
X0194639Y0277650D01*
X0194605Y0277689D01*
X0194576Y0277733D01*
X0194552Y0277780D01*
X0194536Y0277829D01*
X0194525Y0277881D01*
X0194522Y0277933D01*
Y0278917D01*
X0194524Y0278945D01*
X0194525Y0278970D01*
X0194525Y0278970D01*
Y0278970D01*
X0194530Y0278995D01*
X0194536Y0279021D01*
X0194536Y0279021D01*
X0194536Y0279021D01*
X0194542Y0279040D01*
X0194552Y0279071D01*
X0194552Y0279071D01*
X0194552Y0279071D01*
X0194563Y0279092D01*
X0194576Y0279118D01*
X0194576Y0279118D01*
X0194576Y0279118D01*
X0194587Y0279135D01*
X0194605Y0279161D01*
X0194605Y0279161D01*
X0194605Y0279161D01*
X0194615Y0279173D01*
X0194639Y0279201D01*
X0194639Y0279201D01*
X0194639Y0279201D01*
X0194667Y0279225D01*
X0194679Y0279235D01*
X0194679Y0279235D01*
X0194679Y0279235D01*
X0194704Y0279253D01*
X0194722Y0279264D01*
X0194722Y0279264D01*
X0194722Y0279265D01*
X0194748Y0279277D01*
X0194769Y0279288D01*
X0194769Y0279288D01*
X0194769Y0279288D01*
X0194800Y0279298D01*
X0194819Y0279305D01*
X0194819Y0279305D01*
X0194819Y0279305D01*
X0194845Y0279310D01*
X0194870Y0279315D01*
X0194870D01*
X0194870Y0279315D01*
X0194895Y0279316D01*
X0194923Y0279318D01*
X0195661Y0279318D01*
X0195661D01*
X0195661D01*
X0195688Y0279317D01*
D02*
G37*
G36*
X0090175D02*
X0090200Y0279315D01*
X0090200Y0279315D01*
X0090200D01*
X0090225Y0279310D01*
X0090251Y0279305D01*
X0090251Y0279305D01*
X0090251Y0279305D01*
X0090279Y0279295D01*
X0090301Y0279288D01*
X0090301Y0279288D01*
X0090301Y0279288D01*
X0090331Y0279273D01*
X0090348Y0279265D01*
X0090348Y0279265D01*
X0090348Y0279265D01*
X0090365Y0279253D01*
X0090391Y0279236D01*
X0090391Y0279236D01*
X0090391Y0279236D01*
X0090403Y0279225D01*
X0090431Y0279201D01*
X0090431Y0279201D01*
X0090431Y0279201D01*
X0090776Y0278856D01*
X0090776Y0278856D01*
X0090776Y0278856D01*
X0090810Y0278817D01*
X0090829Y0278788D01*
X0090839Y0278773D01*
X0090839Y0278773D01*
D01*
X0090840Y0278772D01*
X0090863Y0278726D01*
X0090863Y0278724D01*
X0090879Y0278677D01*
X0090886Y0278646D01*
X0090890Y0278625D01*
X0090893Y0278573D01*
Y0278573D01*
Y0278573D01*
X0090893Y0277933D01*
X0090890Y0277881D01*
X0090886Y0277860D01*
X0090879Y0277829D01*
X0090863Y0277780D01*
X0090839Y0277733D01*
D01*
X0090839Y0277733D01*
X0090829Y0277718D01*
X0090810Y0277689D01*
X0090776Y0277650D01*
X0090776Y0277650D01*
X0090776Y0277650D01*
X0090736Y0277615D01*
X0090707Y0277596D01*
X0090693Y0277586D01*
X0090693Y0277586D01*
D01*
X0090645Y0277563D01*
X0090596Y0277546D01*
X0090565Y0277540D01*
X0090544Y0277536D01*
X0090492Y0277532D01*
X0089410D01*
X0089357Y0277536D01*
X0089306Y0277546D01*
X0089256Y0277563D01*
X0089209Y0277586D01*
X0089165Y0277615D01*
X0089126Y0277650D01*
X0089091Y0277689D01*
X0089062Y0277733D01*
X0089039Y0277780D01*
X0089022Y0277829D01*
X0089012Y0277881D01*
X0089009Y0277933D01*
Y0278917D01*
X0089010Y0278945D01*
X0089012Y0278970D01*
X0089012Y0278970D01*
Y0278970D01*
X0089017Y0278995D01*
X0089022Y0279021D01*
X0089022Y0279021D01*
X0089022Y0279021D01*
X0089029Y0279040D01*
X0089039Y0279071D01*
X0089039Y0279071D01*
X0089039Y0279071D01*
X0089050Y0279092D01*
X0089062Y0279118D01*
X0089062Y0279118D01*
X0089062Y0279118D01*
X0089074Y0279135D01*
X0089091Y0279161D01*
X0089091Y0279161D01*
X0089091Y0279161D01*
X0089102Y0279173D01*
X0089126Y0279201D01*
X0089126Y0279201D01*
X0089126Y0279201D01*
X0089154Y0279225D01*
X0089165Y0279235D01*
X0089165Y0279235D01*
X0089165Y0279235D01*
X0089191Y0279253D01*
X0089209Y0279264D01*
X0089209Y0279264D01*
X0089209Y0279265D01*
X0089235Y0279277D01*
X0089256Y0279288D01*
X0089256Y0279288D01*
X0089256Y0279288D01*
X0089287Y0279298D01*
X0089306Y0279305D01*
X0089306Y0279305D01*
X0089306Y0279305D01*
X0089332Y0279310D01*
X0089357Y0279315D01*
X0089357D01*
X0089357Y0279315D01*
X0089382Y0279316D01*
X0089409Y0279318D01*
X0090147Y0279318D01*
X0090148D01*
X0090148D01*
X0090175Y0279317D01*
D02*
G37*
G36*
X0526831Y0201775D02*
X0526861Y0201768D01*
X0526882Y0201764D01*
X0526882Y0201764D01*
D01*
X0526932Y0201747D01*
X0526979Y0201724D01*
X0527022Y0201695D01*
X0527059Y0201663D01*
X0527062Y0201661D01*
Y0201661D01*
X0527062D01*
X0527064Y0201658D01*
X0527096Y0201621D01*
X0527125Y0201578D01*
X0527149Y0201531D01*
X0527166Y0201481D01*
D01*
X0527166Y0201481D01*
X0527170Y0201460D01*
X0527176Y0201430D01*
X0527179Y0201377D01*
Y0201377D01*
Y0201377D01*
X0527179Y0198307D01*
X0527177Y0198282D01*
X0527176Y0198255D01*
X0527176Y0198255D01*
X0527176Y0198255D01*
X0527171Y0198231D01*
X0527165Y0198204D01*
X0527165Y0198203D01*
X0527165Y0198203D01*
X0527158Y0198182D01*
X0527149Y0198154D01*
X0527148Y0198154D01*
X0527148Y0198154D01*
X0527138Y0198133D01*
X0527125Y0198107D01*
X0527125Y0198107D01*
X0527125Y0198107D01*
X0527109Y0198083D01*
X0527096Y0198063D01*
X0527096Y0198063D01*
X0527096Y0198063D01*
X0527078Y0198042D01*
X0527062Y0198024D01*
X0527062Y0198024D01*
X0527062Y0198023D01*
X0527044Y0198008D01*
X0527022Y0197989D01*
X0527022Y0197989D01*
X0527022Y0197989D01*
X0527003Y0197976D01*
X0526979Y0197960D01*
X0526979Y0197960D01*
X0526978Y0197960D01*
X0526953Y0197947D01*
X0526932Y0197937D01*
X0526932Y0197937D01*
X0526931Y0197937D01*
X0526903Y0197927D01*
X0526882Y0197920D01*
X0526882Y0197920D01*
X0526882Y0197920D01*
X0526855Y0197914D01*
X0526831Y0197910D01*
X0526831Y0197910D01*
X0526830Y0197910D01*
X0526804Y0197908D01*
X0526778Y0197906D01*
X0519929Y0197901D01*
X0519929Y0197901D01*
X0519928Y0197901D01*
X0519908Y0197903D01*
X0519876Y0197905D01*
X0519876Y0197905D01*
X0519876D01*
X0519852Y0197910D01*
X0519825Y0197915D01*
X0519825Y0197915D01*
X0519825Y0197915D01*
X0519799Y0197924D01*
X0519775Y0197932D01*
X0519775Y0197932D01*
X0519775Y0197932D01*
X0519758Y0197940D01*
X0519728Y0197955D01*
X0519728Y0197955D01*
X0519728Y0197955D01*
X0519711Y0197966D01*
X0519685Y0197984D01*
X0519684Y0197984D01*
X0519684Y0197984D01*
X0519667Y0197999D01*
X0519645Y0198019D01*
X0519645Y0198019D01*
X0519645Y0198019D01*
X0519626Y0198040D01*
X0519611Y0198058D01*
X0519610Y0198058D01*
X0519610Y0198058D01*
X0519593Y0198085D01*
X0519581Y0198101D01*
X0519581Y0198102D01*
X0519581Y0198102D01*
X0519566Y0198132D01*
X0519558Y0198149D01*
X0519558Y0198149D01*
X0519558Y0198149D01*
X0519550Y0198172D01*
X0519541Y0198198D01*
X0519541Y0198198D01*
X0519541Y0198198D01*
X0519536Y0198224D01*
X0519531Y0198250D01*
Y0198250D01*
X0519531Y0198250D01*
X0519529Y0198281D01*
X0519527Y0198302D01*
X0519527Y0198302D01*
X0519527Y0198302D01*
X0519527Y0200786D01*
X0519527Y0200787D01*
X0519527Y0200787D01*
X0519529Y0200816D01*
X0519530Y0200839D01*
X0519530Y0200839D01*
X0519530Y0200839D01*
X0519535Y0200863D01*
X0519541Y0200890D01*
X0519541Y0200890D01*
X0519541Y0200891D01*
X0519547Y0200908D01*
X0519557Y0200940D01*
X0519557Y0200940D01*
X0519558Y0200940D01*
X0519569Y0200964D01*
X0519581Y0200987D01*
X0519581Y0200987D01*
X0519581Y0200987D01*
X0519599Y0201014D01*
X0519610Y0201030D01*
X0519610Y0201031D01*
X0519610Y0201031D01*
X0519629Y0201053D01*
X0519644Y0201070D01*
X0519644Y0201070D01*
X0519644Y0201070D01*
X0520236Y0201661D01*
X0520253Y0201676D01*
X0520275Y0201695D01*
X0520275Y0201695D01*
X0520275Y0201695D01*
X0520295Y0201708D01*
X0520319Y0201724D01*
X0520319Y0201724D01*
X0520319Y0201724D01*
X0520342Y0201736D01*
X0520366Y0201747D01*
X0520366Y0201747D01*
X0520366Y0201747D01*
X0520384Y0201754D01*
X0520415Y0201764D01*
X0520415Y0201764D01*
X0520416Y0201764D01*
X0520434Y0201768D01*
X0520467Y0201775D01*
X0520467Y0201775D01*
X0520467Y0201775D01*
X0520491Y0201776D01*
X0520519Y0201778D01*
X0526778Y0201778D01*
X0526778D01*
X0526778D01*
X0526831Y0201775D01*
D02*
G37*
G36*
X0421317D02*
X0421348Y0201768D01*
X0421369Y0201764D01*
X0421369Y0201764D01*
D01*
X0421419Y0201747D01*
X0421465Y0201724D01*
X0421509Y0201695D01*
X0421546Y0201663D01*
X0421549Y0201661D01*
Y0201661D01*
X0421549D01*
X0421551Y0201658D01*
X0421583Y0201621D01*
X0421612Y0201578D01*
X0421635Y0201531D01*
X0421652Y0201481D01*
D01*
X0421652Y0201481D01*
X0421656Y0201460D01*
X0421663Y0201430D01*
X0421666Y0201377D01*
Y0201377D01*
Y0201377D01*
X0421666Y0198307D01*
X0421664Y0198282D01*
X0421662Y0198255D01*
X0421662Y0198255D01*
X0421662Y0198255D01*
X0421658Y0198231D01*
X0421652Y0198204D01*
X0421652Y0198203D01*
X0421652Y0198203D01*
X0421645Y0198182D01*
X0421635Y0198154D01*
X0421635Y0198154D01*
X0421635Y0198154D01*
X0421625Y0198133D01*
X0421612Y0198107D01*
X0421612Y0198107D01*
X0421612Y0198107D01*
X0421596Y0198083D01*
X0421583Y0198063D01*
X0421583Y0198063D01*
X0421583Y0198063D01*
X0421564Y0198042D01*
X0421549Y0198024D01*
X0421548Y0198024D01*
X0421548Y0198023D01*
X0421530Y0198008D01*
X0421509Y0197989D01*
X0421509Y0197989D01*
X0421509Y0197989D01*
X0421489Y0197976D01*
X0421466Y0197960D01*
X0421465Y0197960D01*
X0421465Y0197960D01*
X0421440Y0197947D01*
X0421419Y0197937D01*
X0421419Y0197937D01*
X0421418Y0197937D01*
X0421390Y0197927D01*
X0421369Y0197920D01*
X0421369Y0197920D01*
X0421369Y0197920D01*
X0421342Y0197914D01*
X0421317Y0197910D01*
X0421317Y0197910D01*
X0421317Y0197910D01*
X0421291Y0197908D01*
X0421265Y0197906D01*
X0414415Y0197901D01*
X0414415Y0197901D01*
X0414415Y0197901D01*
X0414395Y0197903D01*
X0414363Y0197905D01*
X0414363Y0197905D01*
X0414363D01*
X0414338Y0197910D01*
X0414312Y0197915D01*
X0414312Y0197915D01*
X0414312Y0197915D01*
X0414285Y0197924D01*
X0414262Y0197932D01*
X0414262Y0197932D01*
X0414262Y0197932D01*
X0414245Y0197940D01*
X0414215Y0197955D01*
X0414215Y0197955D01*
X0414215Y0197955D01*
X0414198Y0197966D01*
X0414171Y0197984D01*
X0414171Y0197984D01*
X0414171Y0197984D01*
X0414154Y0197999D01*
X0414132Y0198019D01*
X0414132Y0198019D01*
X0414132Y0198019D01*
X0414113Y0198040D01*
X0414097Y0198058D01*
X0414097Y0198058D01*
X0414097Y0198058D01*
X0414079Y0198085D01*
X0414068Y0198101D01*
X0414068Y0198102D01*
X0414068Y0198102D01*
X0414053Y0198132D01*
X0414045Y0198149D01*
X0414045Y0198149D01*
X0414045Y0198149D01*
X0414037Y0198172D01*
X0414028Y0198198D01*
X0414028Y0198198D01*
X0414028Y0198198D01*
X0414023Y0198224D01*
X0414018Y0198250D01*
Y0198250D01*
X0414018Y0198250D01*
X0414016Y0198281D01*
X0414014Y0198302D01*
X0414014Y0198302D01*
X0414014Y0198302D01*
X0414014Y0200786D01*
X0414014Y0200787D01*
X0414014Y0200787D01*
X0414015Y0200816D01*
X0414017Y0200839D01*
X0414017Y0200839D01*
X0414017Y0200839D01*
X0414022Y0200863D01*
X0414027Y0200890D01*
X0414027Y0200890D01*
X0414027Y0200891D01*
X0414033Y0200908D01*
X0414044Y0200940D01*
X0414044Y0200940D01*
X0414044Y0200940D01*
X0414056Y0200964D01*
X0414067Y0200987D01*
X0414067Y0200987D01*
X0414068Y0200987D01*
X0414085Y0201014D01*
X0414096Y0201030D01*
X0414096Y0201031D01*
X0414097Y0201031D01*
X0414116Y0201053D01*
X0414131Y0201070D01*
X0414131Y0201070D01*
X0414131Y0201070D01*
X0414723Y0201661D01*
X0414740Y0201676D01*
X0414762Y0201695D01*
X0414762Y0201695D01*
X0414762Y0201695D01*
X0414782Y0201708D01*
X0414805Y0201724D01*
X0414806Y0201724D01*
X0414806Y0201724D01*
X0414829Y0201736D01*
X0414852Y0201747D01*
X0414853Y0201747D01*
X0414853Y0201747D01*
X0414871Y0201754D01*
X0414902Y0201764D01*
X0414902Y0201764D01*
X0414902Y0201764D01*
X0414921Y0201768D01*
X0414954Y0201775D01*
X0414954Y0201775D01*
X0414954Y0201775D01*
X0414978Y0201776D01*
X0415006Y0201778D01*
X0421265Y0201778D01*
X0421265D01*
X0421265D01*
X0421317Y0201775D01*
D02*
G37*
G36*
X0315804D02*
X0315835Y0201768D01*
X0315856Y0201764D01*
X0315856Y0201764D01*
D01*
X0315905Y0201747D01*
X0315952Y0201724D01*
X0315996Y0201695D01*
X0316033Y0201663D01*
X0316035Y0201661D01*
Y0201661D01*
X0316035D01*
X0316038Y0201658D01*
X0316070Y0201621D01*
X0316099Y0201578D01*
X0316122Y0201531D01*
X0316139Y0201481D01*
D01*
X0316139Y0201481D01*
X0316143Y0201460D01*
X0316149Y0201430D01*
X0316153Y0201377D01*
Y0201377D01*
Y0201377D01*
X0316153Y0198307D01*
X0316151Y0198282D01*
X0316149Y0198255D01*
X0316149Y0198255D01*
X0316149Y0198255D01*
X0316144Y0198231D01*
X0316139Y0198204D01*
X0316139Y0198203D01*
X0316139Y0198203D01*
X0316132Y0198182D01*
X0316122Y0198154D01*
X0316122Y0198154D01*
X0316122Y0198154D01*
X0316112Y0198133D01*
X0316099Y0198107D01*
X0316099Y0198107D01*
X0316099Y0198107D01*
X0316083Y0198083D01*
X0316070Y0198063D01*
X0316070Y0198063D01*
X0316070Y0198063D01*
X0316051Y0198042D01*
X0316035Y0198024D01*
X0316035Y0198024D01*
X0316035Y0198023D01*
X0316017Y0198008D01*
X0315996Y0197989D01*
X0315996Y0197989D01*
X0315996Y0197989D01*
X0315976Y0197976D01*
X0315952Y0197960D01*
X0315952Y0197960D01*
X0315952Y0197960D01*
X0315927Y0197947D01*
X0315905Y0197937D01*
X0315905Y0197937D01*
X0315905Y0197937D01*
X0315877Y0197927D01*
X0315856Y0197920D01*
X0315856Y0197920D01*
X0315855Y0197920D01*
X0315828Y0197914D01*
X0315804Y0197910D01*
X0315804Y0197910D01*
X0315804Y0197910D01*
X0315778Y0197908D01*
X0315752Y0197906D01*
X0308902Y0197901D01*
X0308902Y0197901D01*
X0308902Y0197901D01*
X0308882Y0197903D01*
X0308850Y0197905D01*
X0308850Y0197905D01*
X0308850D01*
X0308825Y0197910D01*
X0308798Y0197915D01*
X0308798Y0197915D01*
X0308798Y0197915D01*
X0308772Y0197924D01*
X0308749Y0197932D01*
X0308749Y0197932D01*
X0308749Y0197932D01*
X0308732Y0197940D01*
X0308702Y0197955D01*
X0308702Y0197955D01*
X0308701Y0197955D01*
X0308685Y0197966D01*
X0308658Y0197984D01*
X0308658Y0197984D01*
X0308658Y0197984D01*
X0308641Y0197999D01*
X0308619Y0198019D01*
X0308619Y0198019D01*
X0308618Y0198019D01*
X0308599Y0198040D01*
X0308584Y0198058D01*
X0308584Y0198058D01*
X0308584Y0198058D01*
X0308566Y0198085D01*
X0308555Y0198101D01*
X0308555Y0198102D01*
X0308555Y0198102D01*
X0308540Y0198132D01*
X0308532Y0198149D01*
X0308532Y0198149D01*
X0308532Y0198149D01*
X0308524Y0198172D01*
X0308515Y0198198D01*
X0308515Y0198198D01*
X0308515Y0198198D01*
X0308509Y0198224D01*
X0308505Y0198250D01*
Y0198250D01*
X0308505Y0198250D01*
X0308502Y0198281D01*
X0308501Y0198302D01*
X0308501Y0198302D01*
X0308501Y0198302D01*
X0308500Y0200786D01*
X0308500Y0200787D01*
X0308500Y0200787D01*
X0308502Y0200816D01*
X0308504Y0200839D01*
X0308504Y0200839D01*
X0308504Y0200839D01*
X0308509Y0200863D01*
X0308514Y0200890D01*
X0308514Y0200890D01*
X0308514Y0200891D01*
X0308520Y0200908D01*
X0308531Y0200940D01*
X0308531Y0200940D01*
X0308531Y0200940D01*
X0308543Y0200964D01*
X0308554Y0200987D01*
X0308554Y0200987D01*
X0308554Y0200987D01*
X0308572Y0201014D01*
X0308583Y0201030D01*
X0308583Y0201031D01*
X0308583Y0201031D01*
X0308603Y0201053D01*
X0308618Y0201070D01*
X0308618Y0201070D01*
X0308618Y0201070D01*
X0309209Y0201661D01*
X0309226Y0201676D01*
X0309249Y0201695D01*
X0309249Y0201695D01*
X0309249Y0201695D01*
X0309269Y0201708D01*
X0309292Y0201724D01*
X0309292Y0201724D01*
X0309293Y0201724D01*
X0309315Y0201736D01*
X0309339Y0201747D01*
X0309339Y0201747D01*
X0309339Y0201747D01*
X0309358Y0201754D01*
X0309389Y0201764D01*
X0309389Y0201764D01*
X0309389Y0201764D01*
X0309408Y0201768D01*
X0309440Y0201775D01*
X0309440Y0201775D01*
X0309441Y0201775D01*
X0309465Y0201776D01*
X0309493Y0201778D01*
X0315752Y0201778D01*
X0315752D01*
X0315752D01*
X0315804Y0201775D01*
D02*
G37*
G36*
X0210291D02*
X0210322Y0201768D01*
X0210342Y0201764D01*
X0210342Y0201764D01*
D01*
X0210392Y0201747D01*
X0210439Y0201724D01*
X0210483Y0201695D01*
X0210519Y0201663D01*
X0210522Y0201661D01*
Y0201661D01*
X0210522D01*
X0210525Y0201658D01*
X0210557Y0201621D01*
X0210586Y0201578D01*
X0210609Y0201531D01*
X0210626Y0201481D01*
D01*
X0210626Y0201481D01*
X0210630Y0201460D01*
X0210636Y0201430D01*
X0210640Y0201377D01*
Y0201377D01*
Y0201377D01*
X0210639Y0198307D01*
X0210638Y0198282D01*
X0210636Y0198255D01*
X0210636Y0198255D01*
X0210636Y0198255D01*
X0210631Y0198231D01*
X0210626Y0198204D01*
X0210626Y0198203D01*
X0210626Y0198203D01*
X0210619Y0198182D01*
X0210609Y0198154D01*
X0210609Y0198154D01*
X0210609Y0198154D01*
X0210598Y0198133D01*
X0210586Y0198107D01*
X0210586Y0198107D01*
X0210586Y0198107D01*
X0210570Y0198083D01*
X0210557Y0198063D01*
X0210557Y0198063D01*
X0210557Y0198063D01*
X0210538Y0198042D01*
X0210522Y0198024D01*
X0210522Y0198024D01*
X0210522Y0198023D01*
X0210504Y0198008D01*
X0210483Y0197989D01*
X0210483Y0197989D01*
X0210483Y0197989D01*
X0210463Y0197976D01*
X0210439Y0197960D01*
X0210439Y0197960D01*
X0210439Y0197960D01*
X0210414Y0197947D01*
X0210392Y0197937D01*
X0210392Y0197937D01*
X0210392Y0197937D01*
X0210364Y0197927D01*
X0210343Y0197920D01*
X0210342Y0197920D01*
X0210342Y0197920D01*
X0210315Y0197914D01*
X0210291Y0197910D01*
X0210291Y0197910D01*
X0210291Y0197910D01*
X0210264Y0197908D01*
X0210239Y0197906D01*
X0203389Y0197901D01*
X0203389Y0197901D01*
X0203389Y0197901D01*
X0203368Y0197903D01*
X0203337Y0197905D01*
X0203337Y0197905D01*
X0203336D01*
X0203312Y0197910D01*
X0203285Y0197915D01*
X0203285Y0197915D01*
X0203285Y0197915D01*
X0203259Y0197924D01*
X0203236Y0197932D01*
X0203235Y0197932D01*
X0203235Y0197932D01*
X0203219Y0197940D01*
X0203188Y0197955D01*
X0203188Y0197955D01*
X0203188Y0197955D01*
X0203172Y0197966D01*
X0203145Y0197984D01*
X0203145Y0197984D01*
X0203145Y0197984D01*
X0203127Y0197999D01*
X0203105Y0198019D01*
X0203105Y0198019D01*
X0203105Y0198019D01*
X0203086Y0198040D01*
X0203071Y0198058D01*
X0203071Y0198058D01*
X0203071Y0198058D01*
X0203053Y0198085D01*
X0203042Y0198101D01*
X0203042Y0198102D01*
X0203042Y0198102D01*
X0203027Y0198132D01*
X0203018Y0198149D01*
X0203018Y0198149D01*
X0203018Y0198149D01*
X0203011Y0198172D01*
X0203001Y0198198D01*
X0203001Y0198198D01*
X0203001Y0198198D01*
X0202996Y0198224D01*
X0202991Y0198250D01*
Y0198250D01*
X0202991Y0198250D01*
X0202989Y0198281D01*
X0202988Y0198302D01*
X0202988Y0198302D01*
X0202988Y0198302D01*
X0202987Y0200786D01*
X0202987Y0200787D01*
X0202987Y0200787D01*
X0202989Y0200816D01*
X0202991Y0200839D01*
X0202991Y0200839D01*
X0202991Y0200839D01*
X0202995Y0200863D01*
X0203001Y0200890D01*
X0203001Y0200890D01*
X0203001Y0200891D01*
X0203007Y0200908D01*
X0203018Y0200940D01*
X0203018Y0200940D01*
X0203018Y0200940D01*
X0203029Y0200964D01*
X0203041Y0200987D01*
X0203041Y0200987D01*
X0203041Y0200987D01*
X0203059Y0201014D01*
X0203070Y0201030D01*
X0203070Y0201031D01*
X0203070Y0201031D01*
X0203090Y0201053D01*
X0203104Y0201070D01*
X0203105Y0201070D01*
X0203105Y0201070D01*
X0203696Y0201661D01*
X0203713Y0201676D01*
X0203735Y0201695D01*
X0203735Y0201695D01*
X0203736Y0201695D01*
X0203755Y0201708D01*
X0203779Y0201724D01*
X0203779Y0201724D01*
X0203779Y0201724D01*
X0203802Y0201736D01*
X0203826Y0201747D01*
X0203826Y0201747D01*
X0203826Y0201747D01*
X0203844Y0201754D01*
X0203876Y0201764D01*
X0203876Y0201764D01*
X0203876Y0201764D01*
X0203894Y0201768D01*
X0203927Y0201775D01*
X0203927Y0201775D01*
X0203927Y0201775D01*
X0203951Y0201776D01*
X0203979Y0201778D01*
X0210239Y0201778D01*
X0210239D01*
X0210239D01*
X0210291Y0201775D01*
D02*
G37*
G36*
X0104778D02*
X0104808Y0201768D01*
X0104829Y0201764D01*
X0104829Y0201764D01*
D01*
X0104879Y0201747D01*
X0104926Y0201724D01*
X0104970Y0201695D01*
X0105006Y0201663D01*
X0105009Y0201661D01*
Y0201661D01*
X0105009D01*
X0105011Y0201658D01*
X0105043Y0201621D01*
X0105073Y0201578D01*
X0105096Y0201531D01*
X0105113Y0201481D01*
D01*
X0105113Y0201481D01*
X0105117Y0201460D01*
X0105123Y0201430D01*
X0105126Y0201377D01*
Y0201377D01*
Y0201377D01*
X0105126Y0198307D01*
X0105124Y0198282D01*
X0105123Y0198255D01*
X0105123Y0198255D01*
X0105123Y0198255D01*
X0105118Y0198231D01*
X0105113Y0198204D01*
X0105113Y0198203D01*
X0105112Y0198203D01*
X0105105Y0198182D01*
X0105096Y0198154D01*
X0105096Y0198154D01*
X0105096Y0198154D01*
X0105085Y0198133D01*
X0105072Y0198107D01*
X0105072Y0198107D01*
X0105072Y0198107D01*
X0105057Y0198083D01*
X0105043Y0198063D01*
X0105043Y0198063D01*
X0105043Y0198063D01*
X0105025Y0198042D01*
X0105009Y0198024D01*
X0105009Y0198024D01*
X0105009Y0198023D01*
X0104991Y0198008D01*
X0104970Y0197989D01*
X0104969Y0197989D01*
X0104969Y0197989D01*
X0104950Y0197976D01*
X0104926Y0197960D01*
X0104926Y0197960D01*
X0104926Y0197960D01*
X0104900Y0197947D01*
X0104879Y0197937D01*
X0104879Y0197937D01*
X0104879Y0197937D01*
X0104850Y0197927D01*
X0104829Y0197920D01*
X0104829Y0197920D01*
X0104829Y0197920D01*
X0104802Y0197914D01*
X0104778Y0197910D01*
X0104778Y0197910D01*
X0104778Y0197910D01*
X0104751Y0197908D01*
X0104726Y0197906D01*
X0097876Y0197901D01*
X0097876Y0197901D01*
X0097875Y0197901D01*
X0097855Y0197903D01*
X0097823Y0197905D01*
X0097823Y0197905D01*
X0097823D01*
X0097799Y0197910D01*
X0097772Y0197915D01*
X0097772Y0197915D01*
X0097772Y0197915D01*
X0097746Y0197924D01*
X0097722Y0197932D01*
X0097722Y0197932D01*
X0097722Y0197932D01*
X0097706Y0197940D01*
X0097675Y0197955D01*
X0097675Y0197955D01*
X0097675Y0197955D01*
X0097659Y0197966D01*
X0097632Y0197984D01*
X0097632Y0197984D01*
X0097632Y0197984D01*
X0097614Y0197999D01*
X0097592Y0198019D01*
X0097592Y0198019D01*
X0097592Y0198019D01*
X0097573Y0198040D01*
X0097558Y0198058D01*
X0097558Y0198058D01*
X0097557Y0198058D01*
X0097540Y0198085D01*
X0097528Y0198101D01*
X0097528Y0198102D01*
X0097528Y0198102D01*
X0097514Y0198132D01*
X0097505Y0198149D01*
X0097505Y0198149D01*
X0097505Y0198149D01*
X0097497Y0198172D01*
X0097488Y0198198D01*
X0097488Y0198198D01*
X0097488Y0198198D01*
X0097483Y0198224D01*
X0097478Y0198250D01*
Y0198250D01*
X0097478Y0198250D01*
X0097476Y0198281D01*
X0097475Y0198302D01*
X0097475Y0198302D01*
X0097475Y0198302D01*
X0097474Y0200786D01*
X0097474Y0200787D01*
X0097474Y0200787D01*
X0097476Y0200816D01*
X0097477Y0200839D01*
X0097477Y0200839D01*
X0097477Y0200839D01*
X0097482Y0200863D01*
X0097488Y0200890D01*
X0097488Y0200890D01*
X0097488Y0200891D01*
X0097494Y0200908D01*
X0097504Y0200940D01*
X0097505Y0200940D01*
X0097505Y0200940D01*
X0097516Y0200964D01*
X0097528Y0200987D01*
X0097528Y0200987D01*
X0097528Y0200987D01*
X0097546Y0201014D01*
X0097557Y0201030D01*
X0097557Y0201031D01*
X0097557Y0201031D01*
X0097576Y0201053D01*
X0097591Y0201070D01*
X0097591Y0201070D01*
X0097592Y0201070D01*
X0098183Y0201661D01*
X0098200Y0201676D01*
X0098222Y0201695D01*
X0098222Y0201695D01*
X0098222Y0201695D01*
X0098242Y0201708D01*
X0098266Y0201724D01*
X0098266Y0201724D01*
X0098266Y0201724D01*
X0098289Y0201736D01*
X0098313Y0201747D01*
X0098313Y0201747D01*
X0098313Y0201747D01*
X0098331Y0201754D01*
X0098362Y0201764D01*
X0098363Y0201764D01*
X0098363Y0201764D01*
X0098381Y0201768D01*
X0098414Y0201775D01*
X0098414Y0201775D01*
X0098414Y0201775D01*
X0098438Y0201776D01*
X0098466Y0201778D01*
X0104725Y0201778D01*
X0104725D01*
X0104725D01*
X0104778Y0201775D01*
D02*
G37*
D36*
X0042677Y0278346D02*
D03*
Y0274173D02*
D03*
X0046614Y0278346D02*
D03*
Y0274173D02*
D03*
X0101812Y0122991D02*
D03*
Y0118818D02*
D03*
X0105749Y0122991D02*
D03*
Y0118818D02*
D03*
X0148190Y0278346D02*
D03*
Y0274173D02*
D03*
X0152127Y0278346D02*
D03*
Y0274173D02*
D03*
X0207325Y0122991D02*
D03*
Y0118818D02*
D03*
X0211262Y0122991D02*
D03*
Y0118818D02*
D03*
X0253704Y0278346D02*
D03*
Y0274173D02*
D03*
X0257641Y0278346D02*
D03*
Y0274173D02*
D03*
X0312838Y0122991D02*
D03*
Y0118818D02*
D03*
X0316775Y0122991D02*
D03*
Y0118818D02*
D03*
X0359217Y0278346D02*
D03*
Y0274173D02*
D03*
X0363154Y0278346D02*
D03*
Y0274173D02*
D03*
X0418352Y0122991D02*
D03*
Y0118818D02*
D03*
X0422289Y0122991D02*
D03*
Y0118818D02*
D03*
X0464730Y0278346D02*
D03*
Y0274173D02*
D03*
X0468667Y0278346D02*
D03*
Y0274173D02*
D03*
X0523865Y0122991D02*
D03*
Y0118818D02*
D03*
X0527802Y0122991D02*
D03*
Y0118818D02*
D03*
D76*
X0137245Y0099212D02*
X0139245Y0093212D01*
X0135245D02*
X0137245Y0099212D01*
X0135245Y0109149D02*
X0137245Y0103149D01*
X0139245Y0109149D01*
X0137245Y0089212D02*
Y0099212D01*
Y0103149D02*
Y0113149D01*
X0120080Y0103149D02*
X0138245D01*
X0120080Y0099212D02*
X0138245D01*
X0137206Y0291731D02*
X0139206Y0285731D01*
X0135206D02*
X0137206Y0291731D01*
X0135206Y0266235D02*
X0137206Y0260235D01*
X0139206Y0266235D01*
X0137206Y0275983D02*
Y0291731D01*
Y0260235D02*
Y0275983D01*
X0120079Y0291731D02*
X0138206D01*
X0120683Y0260235D02*
X0138206D01*
X0040014Y0339835D02*
X0045671Y0337006D01*
X0042842Y0342663D02*
X0045671Y0337006D01*
X0018448Y0364229D02*
X0045671Y0337006D01*
X0018366Y0364311D02*
X0018448Y0364229D01*
X0137206Y0260235D02*
X0139206Y0254235D01*
X0135206D02*
X0137206Y0260235D01*
X0135206Y0155999D02*
X0137206Y0149999D01*
X0139206Y0155999D01*
X0137206Y0205117D02*
Y0260235D01*
Y0149999D02*
Y0205117D01*
X0120080Y0260235D02*
X0138206D01*
X0120080Y0149999D02*
X0138206D01*
X0137245Y0099212D02*
X0139245Y0093212D01*
X0135245D02*
X0137245Y0099212D01*
X0135245Y0035921D02*
X0137245Y0029921D01*
X0139245Y0035921D01*
X0137245Y0064566D02*
Y0099212D01*
Y0029921D02*
Y0064566D01*
X0120080Y0099212D02*
X0138245D01*
X0119685Y0029921D02*
X0138245D01*
X0242758Y0099212D02*
X0244758Y0093212D01*
X0240758D02*
X0242758Y0099212D01*
X0240758Y0109149D02*
X0242758Y0103149D01*
X0244758Y0109149D01*
X0242758Y0089212D02*
Y0099212D01*
Y0103149D02*
Y0113149D01*
X0225593Y0103149D02*
X0243758D01*
X0225593Y0099212D02*
X0243758D01*
X0242719Y0291731D02*
X0244719Y0285731D01*
X0240719D02*
X0242719Y0291731D01*
X0240719Y0266235D02*
X0242719Y0260235D01*
X0244719Y0266235D01*
X0242719Y0275983D02*
Y0291731D01*
Y0260235D02*
Y0275983D01*
X0225592Y0291731D02*
X0243719D01*
X0226196Y0260235D02*
X0243719D01*
X0145527Y0339835D02*
X0151184Y0337006D01*
X0148356Y0342663D02*
X0151184Y0337006D01*
X0123961Y0364229D02*
X0151184Y0337006D01*
X0123879Y0364311D02*
X0123961Y0364229D01*
X0242719Y0260235D02*
X0244719Y0254235D01*
X0240719D02*
X0242719Y0260235D01*
X0240719Y0155999D02*
X0242719Y0149999D01*
X0244719Y0155999D01*
X0242719Y0205117D02*
Y0260235D01*
Y0149999D02*
Y0205117D01*
X0225593Y0260235D02*
X0243719D01*
X0225593Y0149999D02*
X0243719D01*
X0242758Y0099212D02*
X0244758Y0093212D01*
X0240758D02*
X0242758Y0099212D01*
X0240758Y0035921D02*
X0242758Y0029921D01*
X0244758Y0035921D01*
X0242758Y0064566D02*
Y0099212D01*
Y0029921D02*
Y0064566D01*
X0225593Y0099212D02*
X0243758D01*
X0225199Y0029921D02*
X0243758D01*
X0348271Y0099212D02*
X0350272Y0093212D01*
X0346271D02*
X0348271Y0099212D01*
X0346271Y0109149D02*
X0348271Y0103149D01*
X0350272Y0109149D01*
X0348271Y0089212D02*
Y0099212D01*
Y0103149D02*
Y0113149D01*
X0331106Y0103149D02*
X0349271D01*
X0331106Y0099212D02*
X0349271D01*
X0348232Y0291731D02*
X0350232Y0285731D01*
X0346232D02*
X0348232Y0291731D01*
X0346232Y0266235D02*
X0348232Y0260235D01*
X0350232Y0266235D01*
X0348232Y0275983D02*
Y0291731D01*
Y0260235D02*
Y0275983D01*
X0331106Y0291731D02*
X0349232D01*
X0331710Y0260235D02*
X0349232D01*
X0251040Y0339835D02*
X0256697Y0337006D01*
X0253869Y0342663D02*
X0256697Y0337006D01*
X0229474Y0364229D02*
X0256697Y0337006D01*
X0229392Y0364311D02*
X0229474Y0364229D01*
X0348232Y0260235D02*
X0350232Y0254235D01*
X0346232D02*
X0348232Y0260235D01*
X0346232Y0155999D02*
X0348232Y0149999D01*
X0350232Y0155999D01*
X0348232Y0205117D02*
Y0260235D01*
Y0149999D02*
Y0205117D01*
X0331107Y0260235D02*
X0349232D01*
X0331106Y0149999D02*
X0349232D01*
X0348271Y0099212D02*
X0350272Y0093212D01*
X0346271D02*
X0348271Y0099212D01*
X0346271Y0035921D02*
X0348271Y0029921D01*
X0350272Y0035921D01*
X0348271Y0064566D02*
Y0099212D01*
Y0029921D02*
Y0064566D01*
X0331106Y0099212D02*
X0349271D01*
X0330712Y0029921D02*
X0349271D01*
X0453785Y0099212D02*
X0455785Y0093212D01*
X0451785D02*
X0453785Y0099212D01*
X0451785Y0109149D02*
X0453785Y0103149D01*
X0455785Y0109149D01*
X0453785Y0089212D02*
Y0099212D01*
Y0103149D02*
Y0113149D01*
X0436619Y0103149D02*
X0454785D01*
X0436619Y0099212D02*
X0454785D01*
X0453745Y0291731D02*
X0455745Y0285731D01*
X0451745D02*
X0453745Y0291731D01*
X0451745Y0266235D02*
X0453745Y0260235D01*
X0455745Y0266235D01*
X0453745Y0275983D02*
Y0291731D01*
Y0260235D02*
Y0275983D01*
X0436619Y0291731D02*
X0454745D01*
X0437223Y0260235D02*
X0454745D01*
X0356554Y0339835D02*
X0362210Y0337006D01*
X0359382Y0342663D02*
X0362210Y0337006D01*
X0334988Y0364229D02*
X0362210Y0337006D01*
X0334906Y0364311D02*
X0334988Y0364229D01*
X0453745Y0260235D02*
X0455745Y0254235D01*
X0451745D02*
X0453745Y0260235D01*
X0451745Y0155999D02*
X0453745Y0149999D01*
X0455745Y0155999D01*
X0453745Y0205117D02*
Y0260235D01*
Y0149999D02*
Y0205117D01*
X0436620Y0260235D02*
X0454745D01*
X0436620Y0149999D02*
X0454745D01*
X0453785Y0099212D02*
X0455785Y0093212D01*
X0451785D02*
X0453785Y0099212D01*
X0451785Y0035921D02*
X0453785Y0029921D01*
X0455785Y0035921D01*
X0453785Y0064566D02*
Y0099212D01*
Y0029921D02*
Y0064566D01*
X0436619Y0099212D02*
X0454785D01*
X0436225Y0029921D02*
X0454785D01*
X0559298Y0099212D02*
X0561298Y0093212D01*
X0557298D02*
X0559298Y0099212D01*
X0557298Y0109149D02*
X0559298Y0103149D01*
X0561298Y0109149D01*
X0559298Y0089212D02*
Y0099212D01*
Y0103149D02*
Y0113149D01*
X0542133Y0103149D02*
X0560298D01*
X0542133Y0099212D02*
X0560298D01*
X0559259Y0291731D02*
X0561259Y0285731D01*
X0557259D02*
X0559259Y0291731D01*
X0557259Y0266235D02*
X0559259Y0260235D01*
X0561259Y0266235D01*
X0559259Y0275983D02*
Y0291731D01*
Y0260235D02*
Y0275983D01*
X0542132Y0291731D02*
X0560258D01*
X0542736Y0260235D02*
X0560258D01*
X0462067Y0339835D02*
X0467724Y0337006D01*
X0464895Y0342663D02*
X0467724Y0337006D01*
X0440501Y0364229D02*
X0467724Y0337006D01*
X0440419Y0364311D02*
X0440501Y0364229D01*
X0559259Y0260235D02*
X0561259Y0254235D01*
X0557259D02*
X0559259Y0260235D01*
X0557259Y0155999D02*
X0559259Y0149999D01*
X0561259Y0155999D01*
X0559259Y0205117D02*
Y0260235D01*
Y0149999D02*
Y0205117D01*
X0542133Y0260235D02*
X0560258D01*
X0542133Y0149999D02*
X0560258D01*
X0559298Y0099212D02*
X0561298Y0093212D01*
X0557298D02*
X0559298Y0099212D01*
X0557298Y0035921D02*
X0559298Y0029921D01*
X0561298Y0035921D01*
X0559298Y0064566D02*
Y0099212D01*
Y0029921D02*
Y0064566D01*
X0542133Y0099212D02*
X0560298D01*
X0541738Y0029921D02*
X0560298D01*
D79*
X0141899Y0099837D02*
X0143211D01*
X0142555D01*
Y0103773D01*
X0141899Y0103117D01*
X0145835Y0099181D02*
X0146491Y0099837D01*
Y0100493D01*
X0145835D01*
Y0099837D01*
X0146491D01*
X0145835Y0099181D01*
X0145179Y0098525D01*
X0149115Y0103117D02*
X0149770Y0103773D01*
X0151082D01*
X0151738Y0103117D01*
Y0100493D01*
X0151082Y0099837D01*
X0149770D01*
X0149115Y0100493D01*
Y0103117D01*
X0153050D02*
X0153706Y0103773D01*
X0155018D01*
X0155674Y0103117D01*
Y0100493D01*
X0155018Y0099837D01*
X0153706D01*
X0153050Y0100493D01*
Y0103117D01*
X0140685Y0269212D02*
X0140029Y0269868D01*
Y0271180D01*
X0140685Y0271836D01*
X0141341D01*
X0141997Y0271180D01*
X0142653Y0271836D01*
X0143309D01*
X0143965Y0271180D01*
Y0269868D01*
X0143309Y0269212D01*
X0142653D01*
X0141997Y0269868D01*
X0141341Y0269212D01*
X0140685D01*
X0141997Y0269868D02*
Y0271180D01*
X0144621Y0273803D02*
X0143965Y0274459D01*
X0143309D01*
Y0273803D01*
X0143965D01*
Y0274459D01*
X0144621Y0273803D01*
X0145276Y0273148D01*
X0140685Y0277083D02*
X0140029Y0277739D01*
Y0279051D01*
X0140685Y0279707D01*
X0143309D01*
X0143965Y0279051D01*
Y0277739D01*
X0143309Y0277083D01*
X0140685D01*
Y0281019D02*
X0140029Y0281675D01*
Y0282987D01*
X0140685Y0283643D01*
X0143309D01*
X0143965Y0282987D01*
Y0281675D01*
X0143309Y0281019D01*
X0140685D01*
X0143492Y0197780D02*
Y0195157D01*
X0140868Y0197780D01*
X0140212D01*
X0139556Y0197125D01*
Y0195813D01*
X0140212Y0195157D01*
Y0199092D02*
X0139556Y0199748D01*
Y0201060D01*
X0140212Y0201716D01*
X0140868D01*
X0141524Y0201060D01*
X0142180Y0201716D01*
X0142836D01*
X0143492Y0201060D01*
Y0199748D01*
X0142836Y0199092D01*
X0142180D01*
X0141524Y0199748D01*
X0140868Y0199092D01*
X0140212D01*
X0141524Y0199748D02*
Y0201060D01*
X0144148Y0203684D02*
X0143492Y0204340D01*
X0142836D01*
Y0203684D01*
X0143492D01*
Y0204340D01*
X0144148Y0203684D01*
X0144804Y0203028D01*
X0140212Y0206964D02*
X0139556Y0207620D01*
Y0208932D01*
X0140212Y0209588D01*
X0142836D01*
X0143492Y0208932D01*
Y0207620D01*
X0142836Y0206964D01*
X0140212D01*
Y0210900D02*
X0139556Y0211556D01*
Y0212867D01*
X0140212Y0213523D01*
X0142836D01*
X0143492Y0212867D01*
Y0211556D01*
X0142836Y0210900D01*
X0140212D01*
X0144217Y0057631D02*
Y0058943D01*
Y0058287D01*
X0140281D01*
X0140937Y0057631D01*
X0140281Y0060910D02*
Y0063534D01*
X0140937D01*
X0143561Y0060910D01*
X0144217D01*
X0144873Y0065502D02*
X0144217Y0066158D01*
X0143561D01*
Y0065502D01*
X0144217D01*
Y0066158D01*
X0144873Y0065502D01*
X0145529Y0064846D01*
X0140281Y0071406D02*
X0140937Y0070094D01*
X0142249Y0068782D01*
X0143561D01*
X0144217Y0069438D01*
Y0070750D01*
X0143561Y0071406D01*
X0142905D01*
X0142249Y0070750D01*
Y0068782D01*
X0140937Y0072718D02*
X0140281Y0073374D01*
Y0074686D01*
X0140937Y0075341D01*
X0143561D01*
X0144217Y0074686D01*
Y0073374D01*
X0143561Y0072718D01*
X0140937D01*
X0247412Y0099837D02*
X0248724D01*
X0248068D01*
Y0103773D01*
X0247412Y0103117D01*
X0251348Y0099181D02*
X0252004Y0099837D01*
Y0100493D01*
X0251348D01*
Y0099837D01*
X0252004D01*
X0251348Y0099181D01*
X0250692Y0098525D01*
X0254628Y0103117D02*
X0255284Y0103773D01*
X0256595D01*
X0257252Y0103117D01*
Y0100493D01*
X0256595Y0099837D01*
X0255284D01*
X0254628Y0100493D01*
Y0103117D01*
X0258563D02*
X0259219Y0103773D01*
X0260531D01*
X0261187Y0103117D01*
Y0100493D01*
X0260531Y0099837D01*
X0259219D01*
X0258563Y0100493D01*
Y0103117D01*
X0246198Y0269212D02*
X0245542Y0269868D01*
Y0271180D01*
X0246198Y0271836D01*
X0246854D01*
X0247510Y0271180D01*
X0248166Y0271836D01*
X0248822D01*
X0249478Y0271180D01*
Y0269868D01*
X0248822Y0269212D01*
X0248166D01*
X0247510Y0269868D01*
X0246854Y0269212D01*
X0246198D01*
X0247510Y0269868D02*
Y0271180D01*
X0250134Y0273803D02*
X0249478Y0274459D01*
X0248822D01*
Y0273803D01*
X0249478D01*
Y0274459D01*
X0250134Y0273803D01*
X0250790Y0273148D01*
X0246198Y0277083D02*
X0245542Y0277739D01*
Y0279051D01*
X0246198Y0279707D01*
X0248822D01*
X0249478Y0279051D01*
Y0277739D01*
X0248822Y0277083D01*
X0246198D01*
Y0281019D02*
X0245542Y0281675D01*
Y0282987D01*
X0246198Y0283643D01*
X0248822D01*
X0249478Y0282987D01*
Y0281675D01*
X0248822Y0281019D01*
X0246198D01*
X0249005Y0197780D02*
Y0195157D01*
X0246382Y0197780D01*
X0245726D01*
X0245070Y0197125D01*
Y0195813D01*
X0245726Y0195157D01*
Y0199092D02*
X0245070Y0199748D01*
Y0201060D01*
X0245726Y0201716D01*
X0246382D01*
X0247038Y0201060D01*
X0247693Y0201716D01*
X0248349D01*
X0249005Y0201060D01*
Y0199748D01*
X0248349Y0199092D01*
X0247693D01*
X0247038Y0199748D01*
X0246382Y0199092D01*
X0245726D01*
X0247038Y0199748D02*
Y0201060D01*
X0249661Y0203684D02*
X0249005Y0204340D01*
X0248349D01*
Y0203684D01*
X0249005D01*
Y0204340D01*
X0249661Y0203684D01*
X0250317Y0203028D01*
X0245726Y0206964D02*
X0245070Y0207620D01*
Y0208932D01*
X0245726Y0209588D01*
X0248349D01*
X0249005Y0208932D01*
Y0207620D01*
X0248349Y0206964D01*
X0245726D01*
Y0210900D02*
X0245070Y0211556D01*
Y0212867D01*
X0245726Y0213523D01*
X0248349D01*
X0249005Y0212867D01*
Y0211556D01*
X0248349Y0210900D01*
X0245726D01*
X0249730Y0057631D02*
Y0058943D01*
Y0058287D01*
X0245795D01*
X0246450Y0057631D01*
X0245795Y0060910D02*
Y0063534D01*
X0246450D01*
X0249074Y0060910D01*
X0249730D01*
X0250386Y0065502D02*
X0249730Y0066158D01*
X0249074D01*
Y0065502D01*
X0249730D01*
Y0066158D01*
X0250386Y0065502D01*
X0251042Y0064846D01*
X0245795Y0071406D02*
X0246450Y0070094D01*
X0247762Y0068782D01*
X0249074D01*
X0249730Y0069438D01*
Y0070750D01*
X0249074Y0071406D01*
X0248418D01*
X0247762Y0070750D01*
Y0068782D01*
X0246450Y0072718D02*
X0245795Y0073374D01*
Y0074686D01*
X0246450Y0075341D01*
X0249074D01*
X0249730Y0074686D01*
Y0073374D01*
X0249074Y0072718D01*
X0246450D01*
X0352925Y0099837D02*
X0354237D01*
X0353581D01*
Y0103773D01*
X0352925Y0103117D01*
X0356861Y0099181D02*
X0357517Y0099837D01*
Y0100493D01*
X0356861D01*
Y0099837D01*
X0357517D01*
X0356861Y0099181D01*
X0356205Y0098525D01*
X0360141Y0103117D02*
X0360797Y0103773D01*
X0362109D01*
X0362765Y0103117D01*
Y0100493D01*
X0362109Y0099837D01*
X0360797D01*
X0360141Y0100493D01*
Y0103117D01*
X0364077D02*
X0364733Y0103773D01*
X0366044D01*
X0366701Y0103117D01*
Y0100493D01*
X0366044Y0099837D01*
X0364733D01*
X0364077Y0100493D01*
Y0103117D01*
X0351711Y0269212D02*
X0351055Y0269868D01*
Y0271180D01*
X0351711Y0271836D01*
X0352367D01*
X0353023Y0271180D01*
X0353679Y0271836D01*
X0354335D01*
X0354991Y0271180D01*
Y0269868D01*
X0354335Y0269212D01*
X0353679D01*
X0353023Y0269868D01*
X0352367Y0269212D01*
X0351711D01*
X0353023Y0269868D02*
Y0271180D01*
X0355647Y0273803D02*
X0354991Y0274459D01*
X0354335D01*
Y0273803D01*
X0354991D01*
Y0274459D01*
X0355647Y0273803D01*
X0356303Y0273148D01*
X0351711Y0277083D02*
X0351055Y0277739D01*
Y0279051D01*
X0351711Y0279707D01*
X0354335D01*
X0354991Y0279051D01*
Y0277739D01*
X0354335Y0277083D01*
X0351711D01*
Y0281019D02*
X0351055Y0281675D01*
Y0282987D01*
X0351711Y0283643D01*
X0354335D01*
X0354991Y0282987D01*
Y0281675D01*
X0354335Y0281019D01*
X0351711D01*
X0354519Y0197780D02*
Y0195157D01*
X0351895Y0197780D01*
X0351239D01*
X0350583Y0197125D01*
Y0195813D01*
X0351239Y0195157D01*
Y0199092D02*
X0350583Y0199748D01*
Y0201060D01*
X0351239Y0201716D01*
X0351895D01*
X0352551Y0201060D01*
X0353207Y0201716D01*
X0353863D01*
X0354519Y0201060D01*
Y0199748D01*
X0353863Y0199092D01*
X0353207D01*
X0352551Y0199748D01*
X0351895Y0199092D01*
X0351239D01*
X0352551Y0199748D02*
Y0201060D01*
X0355175Y0203684D02*
X0354519Y0204340D01*
X0353863D01*
Y0203684D01*
X0354519D01*
Y0204340D01*
X0355175Y0203684D01*
X0355831Y0203028D01*
X0351239Y0206964D02*
X0350583Y0207620D01*
Y0208932D01*
X0351239Y0209588D01*
X0353863D01*
X0354519Y0208932D01*
Y0207620D01*
X0353863Y0206964D01*
X0351239D01*
Y0210900D02*
X0350583Y0211556D01*
Y0212867D01*
X0351239Y0213523D01*
X0353863D01*
X0354519Y0212867D01*
Y0211556D01*
X0353863Y0210900D01*
X0351239D01*
X0355243Y0057631D02*
Y0058943D01*
Y0058287D01*
X0351308D01*
X0351964Y0057631D01*
X0351308Y0060910D02*
Y0063534D01*
X0351964D01*
X0354588Y0060910D01*
X0355243D01*
X0355899Y0065502D02*
X0355243Y0066158D01*
X0354588D01*
Y0065502D01*
X0355243D01*
Y0066158D01*
X0355899Y0065502D01*
X0356555Y0064846D01*
X0351308Y0071406D02*
X0351964Y0070094D01*
X0353276Y0068782D01*
X0354588D01*
X0355243Y0069438D01*
Y0070750D01*
X0354588Y0071406D01*
X0353932D01*
X0353276Y0070750D01*
Y0068782D01*
X0351964Y0072718D02*
X0351308Y0073374D01*
Y0074686D01*
X0351964Y0075341D01*
X0354588D01*
X0355243Y0074686D01*
Y0073374D01*
X0354588Y0072718D01*
X0351964D01*
X0458439Y0099837D02*
X0459751D01*
X0459094D01*
Y0103773D01*
X0458439Y0103117D01*
X0462374Y0099181D02*
X0463030Y0099837D01*
Y0100493D01*
X0462374D01*
Y0099837D01*
X0463030D01*
X0462374Y0099181D01*
X0461718Y0098525D01*
X0465654Y0103117D02*
X0466310Y0103773D01*
X0467622D01*
X0468278Y0103117D01*
Y0100493D01*
X0467622Y0099837D01*
X0466310D01*
X0465654Y0100493D01*
Y0103117D01*
X0469590D02*
X0470246Y0103773D01*
X0471558D01*
X0472214Y0103117D01*
Y0100493D01*
X0471558Y0099837D01*
X0470246D01*
X0469590Y0100493D01*
Y0103117D01*
X0457225Y0269212D02*
X0456568Y0269868D01*
Y0271180D01*
X0457225Y0271836D01*
X0457880D01*
X0458536Y0271180D01*
X0459192Y0271836D01*
X0459848D01*
X0460504Y0271180D01*
Y0269868D01*
X0459848Y0269212D01*
X0459192D01*
X0458536Y0269868D01*
X0457880Y0269212D01*
X0457225D01*
X0458536Y0269868D02*
Y0271180D01*
X0461160Y0273803D02*
X0460504Y0274459D01*
X0459848D01*
Y0273803D01*
X0460504D01*
Y0274459D01*
X0461160Y0273803D01*
X0461816Y0273148D01*
X0457225Y0277083D02*
X0456568Y0277739D01*
Y0279051D01*
X0457225Y0279707D01*
X0459848D01*
X0460504Y0279051D01*
Y0277739D01*
X0459848Y0277083D01*
X0457225D01*
Y0281019D02*
X0456568Y0281675D01*
Y0282987D01*
X0457225Y0283643D01*
X0459848D01*
X0460504Y0282987D01*
Y0281675D01*
X0459848Y0281019D01*
X0457225D01*
X0460032Y0197780D02*
Y0195157D01*
X0457408Y0197780D01*
X0456752D01*
X0456096Y0197125D01*
Y0195813D01*
X0456752Y0195157D01*
Y0199092D02*
X0456096Y0199748D01*
Y0201060D01*
X0456752Y0201716D01*
X0457408D01*
X0458064Y0201060D01*
X0458720Y0201716D01*
X0459376D01*
X0460032Y0201060D01*
Y0199748D01*
X0459376Y0199092D01*
X0458720D01*
X0458064Y0199748D01*
X0457408Y0199092D01*
X0456752D01*
X0458064Y0199748D02*
Y0201060D01*
X0460688Y0203684D02*
X0460032Y0204340D01*
X0459376D01*
Y0203684D01*
X0460032D01*
Y0204340D01*
X0460688Y0203684D01*
X0461344Y0203028D01*
X0456752Y0206964D02*
X0456096Y0207620D01*
Y0208932D01*
X0456752Y0209588D01*
X0459376D01*
X0460032Y0208932D01*
Y0207620D01*
X0459376Y0206964D01*
X0456752D01*
Y0210900D02*
X0456096Y0211556D01*
Y0212867D01*
X0456752Y0213523D01*
X0459376D01*
X0460032Y0212867D01*
Y0211556D01*
X0459376Y0210900D01*
X0456752D01*
X0460757Y0057631D02*
Y0058943D01*
Y0058287D01*
X0456821D01*
X0457477Y0057631D01*
X0456821Y0060910D02*
Y0063534D01*
X0457477D01*
X0460101Y0060910D01*
X0460757D01*
X0461413Y0065502D02*
X0460757Y0066158D01*
X0460101D01*
Y0065502D01*
X0460757D01*
Y0066158D01*
X0461413Y0065502D01*
X0462069Y0064846D01*
X0456821Y0071406D02*
X0457477Y0070094D01*
X0458789Y0068782D01*
X0460101D01*
X0460757Y0069438D01*
Y0070750D01*
X0460101Y0071406D01*
X0459445D01*
X0458789Y0070750D01*
Y0068782D01*
X0457477Y0072718D02*
X0456821Y0073374D01*
Y0074686D01*
X0457477Y0075341D01*
X0460101D01*
X0460757Y0074686D01*
Y0073374D01*
X0460101Y0072718D01*
X0457477D01*
X0563952Y0099837D02*
X0565264D01*
X0564608D01*
Y0103773D01*
X0563952Y0103117D01*
X0567888Y0099181D02*
X0568543Y0099837D01*
Y0100493D01*
X0567888D01*
Y0099837D01*
X0568543D01*
X0567888Y0099181D01*
X0567232Y0098525D01*
X0571167Y0103117D02*
X0571823Y0103773D01*
X0573135D01*
X0573791Y0103117D01*
Y0100493D01*
X0573135Y0099837D01*
X0571823D01*
X0571167Y0100493D01*
Y0103117D01*
X0575103D02*
X0575759Y0103773D01*
X0577071D01*
X0577727Y0103117D01*
Y0100493D01*
X0577071Y0099837D01*
X0575759D01*
X0575103Y0100493D01*
Y0103117D01*
X0562738Y0269212D02*
X0562082Y0269868D01*
Y0271180D01*
X0562738Y0271836D01*
X0563394D01*
X0564050Y0271180D01*
X0564706Y0271836D01*
X0565361D01*
X0566017Y0271180D01*
Y0269868D01*
X0565361Y0269212D01*
X0564706D01*
X0564050Y0269868D01*
X0563394Y0269212D01*
X0562738D01*
X0564050Y0269868D02*
Y0271180D01*
X0566673Y0273803D02*
X0566017Y0274459D01*
X0565361D01*
Y0273803D01*
X0566017D01*
Y0274459D01*
X0566673Y0273803D01*
X0567329Y0273148D01*
X0562738Y0277083D02*
X0562082Y0277739D01*
Y0279051D01*
X0562738Y0279707D01*
X0565361D01*
X0566017Y0279051D01*
Y0277739D01*
X0565361Y0277083D01*
X0562738D01*
Y0281019D02*
X0562082Y0281675D01*
Y0282987D01*
X0562738Y0283643D01*
X0565361D01*
X0566017Y0282987D01*
Y0281675D01*
X0565361Y0281019D01*
X0562738D01*
X0565545Y0197780D02*
Y0195157D01*
X0562921Y0197780D01*
X0562265D01*
X0561609Y0197125D01*
Y0195813D01*
X0562265Y0195157D01*
Y0199092D02*
X0561609Y0199748D01*
Y0201060D01*
X0562265Y0201716D01*
X0562921D01*
X0563577Y0201060D01*
X0564233Y0201716D01*
X0564889D01*
X0565545Y0201060D01*
Y0199748D01*
X0564889Y0199092D01*
X0564233D01*
X0563577Y0199748D01*
X0562921Y0199092D01*
X0562265D01*
X0563577Y0199748D02*
Y0201060D01*
X0566201Y0203684D02*
X0565545Y0204340D01*
X0564889D01*
Y0203684D01*
X0565545D01*
Y0204340D01*
X0566201Y0203684D01*
X0566857Y0203028D01*
X0562265Y0206964D02*
X0561609Y0207620D01*
Y0208932D01*
X0562265Y0209588D01*
X0564889D01*
X0565545Y0208932D01*
Y0207620D01*
X0564889Y0206964D01*
X0562265D01*
Y0210900D02*
X0561609Y0211556D01*
Y0212867D01*
X0562265Y0213523D01*
X0564889D01*
X0565545Y0212867D01*
Y0211556D01*
X0564889Y0210900D01*
X0562265D01*
X0566270Y0057631D02*
Y0058943D01*
Y0058287D01*
X0562334D01*
X0562990Y0057631D01*
X0562334Y0060910D02*
Y0063534D01*
X0562990D01*
X0565614Y0060910D01*
X0566270D01*
X0566926Y0065502D02*
X0566270Y0066158D01*
X0565614D01*
Y0065502D01*
X0566270D01*
Y0066158D01*
X0566926Y0065502D01*
X0567582Y0064846D01*
X0562334Y0071406D02*
X0562990Y0070094D01*
X0564302Y0068782D01*
X0565614D01*
X0566270Y0069438D01*
Y0070750D01*
X0565614Y0071406D01*
X0564958D01*
X0564302Y0070750D01*
Y0068782D01*
X0562990Y0072718D02*
X0562334Y0073374D01*
Y0074686D01*
X0562990Y0075341D01*
X0565614D01*
X0566270Y0074686D01*
Y0073374D01*
X0565614Y0072718D01*
X0562990D01*
D81*
X0533543Y0014764D02*
D03*
X0039567Y0367913D02*
D03*
Y0014764D02*
D03*
X0531772Y0367913D02*
D03*
D85*
X0014764Y0014764D02*
D03*
X0556890D02*
D03*
Y0367913D02*
D03*
X0014764D02*
D03*
X0085551Y0313780D02*
D03*
X0191064D02*
D03*
X0296578D02*
D03*
X0402091D02*
D03*
X0507604D02*
D03*
D86*
X0053150Y0313779D02*
D03*
X0068111Y0111810D02*
D03*
X0072442Y0036613D02*
D03*
X0074292Y0150708D02*
D03*
X0064450D02*
D03*
X0158664Y0313779D02*
D03*
X0173624Y0111810D02*
D03*
X0177955Y0036613D02*
D03*
X0179806Y0150708D02*
D03*
X0169963D02*
D03*
X0264177Y0313779D02*
D03*
X0279138Y0111810D02*
D03*
X0283468Y0036613D02*
D03*
X0285319Y0150708D02*
D03*
X0275476D02*
D03*
X0369690Y0313779D02*
D03*
X0384651Y0111810D02*
D03*
X0388982Y0036613D02*
D03*
X0390832Y0150708D02*
D03*
X0380989D02*
D03*
X0475203Y0313779D02*
D03*
X0490164Y0111810D02*
D03*
X0494495Y0036613D02*
D03*
X0496345Y0150708D02*
D03*
X0486503D02*
D03*
D87*
X0111694Y0084842D02*
D03*
X0106694D02*
D03*
X0217207D02*
D03*
X0212207D02*
D03*
X0322720D02*
D03*
X0317720D02*
D03*
X0428233D02*
D03*
X0423234D02*
D03*
X0533747D02*
D03*
X0528747D02*
D03*
D88*
X0045749Y0335393D02*
D03*
Y0142558D02*
D03*
X0151262Y0335393D02*
D03*
Y0142558D02*
D03*
X0256775Y0335393D02*
D03*
Y0142558D02*
D03*
X0362289Y0335393D02*
D03*
Y0142558D02*
D03*
X0467802Y0335393D02*
D03*
Y0142558D02*
D03*
D89*
X0038032Y0130708D02*
D03*
X0042032Y0110708D02*
D03*
X0034032D02*
D03*
X0143546Y0130708D02*
D03*
X0147546Y0110708D02*
D03*
X0139546D02*
D03*
X0249059Y0130708D02*
D03*
X0253059Y0110708D02*
D03*
X0245059D02*
D03*
X0354572Y0130708D02*
D03*
X0358572Y0110708D02*
D03*
X0350572D02*
D03*
X0460085Y0130708D02*
D03*
X0464085Y0110708D02*
D03*
X0456085D02*
D03*
D91*
X0001695Y0366175D02*
Y0370111D01*
X0003663D01*
X0004319Y0369455D01*
Y0368143D01*
X0003663Y0367487D01*
X0001695D01*
X0003007D02*
X0004319Y0366175D01*
X0009567Y0369455D02*
X0010223Y0370111D01*
X0011535D01*
X0012191Y0369455D01*
Y0366831D01*
X0011535Y0366175D01*
X0010223D01*
X0009567Y0366831D01*
Y0369455D01*
X0014159Y0365519D02*
X0014815Y0366175D01*
Y0366831D01*
X0014159D01*
Y0366175D01*
X0014815D01*
X0014159Y0365519D01*
X0013503Y0364863D01*
X0017438Y0369455D02*
X0018094Y0370111D01*
X0019406D01*
X0020062Y0369455D01*
Y0366831D01*
X0019406Y0366175D01*
X0018094D01*
X0017438Y0366831D01*
Y0369455D01*
X0021374D02*
X0022030Y0370111D01*
X0023342D01*
X0023998Y0369455D01*
Y0366831D01*
X0023342Y0366175D01*
X0022030D01*
X0021374Y0366831D01*
Y0369455D01*
X0107209Y0366175D02*
Y0370111D01*
X0109177D01*
X0109833Y0369455D01*
Y0368143D01*
X0109177Y0367487D01*
X0107209D01*
X0108521D02*
X0109833Y0366175D01*
X0115080Y0369455D02*
X0115736Y0370111D01*
X0117048D01*
X0117704Y0369455D01*
Y0366831D01*
X0117048Y0366175D01*
X0115736D01*
X0115080Y0366831D01*
Y0369455D01*
X0119672Y0365519D02*
X0120328Y0366175D01*
Y0366831D01*
X0119672D01*
Y0366175D01*
X0120328D01*
X0119672Y0365519D01*
X0119016Y0364863D01*
X0122952Y0369455D02*
X0123608Y0370111D01*
X0124920D01*
X0125575Y0369455D01*
Y0366831D01*
X0124920Y0366175D01*
X0123608D01*
X0122952Y0366831D01*
Y0369455D01*
X0126887D02*
X0127543Y0370111D01*
X0128855D01*
X0129511Y0369455D01*
Y0366831D01*
X0128855Y0366175D01*
X0127543D01*
X0126887Y0366831D01*
Y0369455D01*
X0212722Y0366175D02*
Y0370111D01*
X0214690D01*
X0215346Y0369455D01*
Y0368143D01*
X0214690Y0367487D01*
X0212722D01*
X0214034D02*
X0215346Y0366175D01*
X0220593Y0369455D02*
X0221249Y0370111D01*
X0222561D01*
X0223217Y0369455D01*
Y0366831D01*
X0222561Y0366175D01*
X0221249D01*
X0220593Y0366831D01*
Y0369455D01*
X0225185Y0365519D02*
X0225841Y0366175D01*
Y0366831D01*
X0225185D01*
Y0366175D01*
X0225841D01*
X0225185Y0365519D01*
X0224529Y0364863D01*
X0228465Y0369455D02*
X0229121Y0370111D01*
X0230433D01*
X0231089Y0369455D01*
Y0366831D01*
X0230433Y0366175D01*
X0229121D01*
X0228465Y0366831D01*
Y0369455D01*
X0232401D02*
X0233057Y0370111D01*
X0234368D01*
X0235024Y0369455D01*
Y0366831D01*
X0234368Y0366175D01*
X0233057D01*
X0232401Y0366831D01*
Y0369455D01*
X0318235Y0366175D02*
Y0370111D01*
X0320203D01*
X0320859Y0369455D01*
Y0368143D01*
X0320203Y0367487D01*
X0318235D01*
X0319547D02*
X0320859Y0366175D01*
X0326107Y0369455D02*
X0326763Y0370111D01*
X0328075D01*
X0328731Y0369455D01*
Y0366831D01*
X0328075Y0366175D01*
X0326763D01*
X0326107Y0366831D01*
Y0369455D01*
X0330698Y0365519D02*
X0331354Y0366175D01*
Y0366831D01*
X0330698D01*
Y0366175D01*
X0331354D01*
X0330698Y0365519D01*
X0330042Y0364863D01*
X0333978Y0369455D02*
X0334634Y0370111D01*
X0335946D01*
X0336602Y0369455D01*
Y0366831D01*
X0335946Y0366175D01*
X0334634D01*
X0333978Y0366831D01*
Y0369455D01*
X0337914D02*
X0338570Y0370111D01*
X0339882D01*
X0340538Y0369455D01*
Y0366831D01*
X0339882Y0366175D01*
X0338570D01*
X0337914Y0366831D01*
Y0369455D01*
X0423748Y0366175D02*
Y0370111D01*
X0425716D01*
X0426372Y0369455D01*
Y0368143D01*
X0425716Y0367487D01*
X0423748D01*
X0425060D02*
X0426372Y0366175D01*
X0431620Y0369455D02*
X0432276Y0370111D01*
X0433588D01*
X0434244Y0369455D01*
Y0366831D01*
X0433588Y0366175D01*
X0432276D01*
X0431620Y0366831D01*
Y0369455D01*
X0436212Y0365519D02*
X0436868Y0366175D01*
Y0366831D01*
X0436212D01*
Y0366175D01*
X0436868D01*
X0436212Y0365519D01*
X0435556Y0364863D01*
X0439491Y0369455D02*
X0440147Y0370111D01*
X0441459D01*
X0442115Y0369455D01*
Y0366831D01*
X0441459Y0366175D01*
X0440147D01*
X0439491Y0366831D01*
Y0369455D01*
X0443427D02*
X0444083Y0370111D01*
X0445395D01*
X0446051Y0369455D01*
Y0366831D01*
X0445395Y0366175D01*
X0444083D01*
X0443427Y0366831D01*
Y0369455D01*
D92*
X0049843Y0290532D02*
D03*
X0155356D02*
D03*
X0260869D02*
D03*
X0366383D02*
D03*
X0471896D02*
D03*
D93*
X0033130Y0229823D02*
D03*
X0138643D02*
D03*
X0244156D02*
D03*
X0349670D02*
D03*
X0455183D02*
D03*
D94*
X0064568Y0171063D02*
D03*
X0170081D02*
D03*
X0275594D02*
D03*
X0381107D02*
D03*
X0486621D02*
D03*
D95*
X0113701Y0230413D02*
D03*
X0219215D02*
D03*
X0324728D02*
D03*
X0430241D02*
D03*
X0535754D02*
D03*
D96*
X0101024Y0290571D02*
D03*
X0206537D02*
D03*
X0312051D02*
D03*
X0417564D02*
D03*
X0523077D02*
D03*
D97*
X0067914Y0037794D02*
D03*
X0053465Y0313740D02*
D03*
X0067914Y0111810D02*
D03*
X0173427Y0037794D02*
D03*
X0158978Y0313740D02*
D03*
X0173427Y0111810D02*
D03*
X0278941Y0037794D02*
D03*
X0264491Y0313740D02*
D03*
X0278941Y0111810D02*
D03*
X0384454Y0037794D02*
D03*
X0370004Y0313740D02*
D03*
X0384454Y0111810D02*
D03*
X0489967Y0037794D02*
D03*
X0475518Y0313740D02*
D03*
X0489967Y0111810D02*
D03*
D98*
X0070191Y0092467D02*
D03*
Y0096404D02*
D03*
X0099253Y0090590D02*
D03*
Y0094527D02*
D03*
X0078544Y0083346D02*
D03*
Y0079409D02*
D03*
Y0075511D02*
D03*
Y0071574D02*
D03*
X0102363Y0165354D02*
D03*
Y0161416D02*
D03*
X0039055Y0268386D02*
D03*
Y0272323D02*
D03*
X0038661Y0253858D02*
D03*
Y0249921D02*
D03*
X0039055Y0280236D02*
D03*
Y0276299D02*
D03*
X0094962Y0270550D02*
D03*
Y0274487D02*
D03*
X0047639Y0061653D02*
D03*
Y0057716D02*
D03*
X0097127Y0118897D02*
D03*
Y0122834D02*
D03*
X0097678Y0114448D02*
D03*
Y0110511D02*
D03*
X0064567Y0208268D02*
D03*
Y0204331D02*
D03*
X0051654Y0219882D02*
D03*
Y0223819D02*
D03*
X0039921Y0226063D02*
D03*
Y0230000D02*
D03*
Y0219843D02*
D03*
Y0215906D02*
D03*
X0039843Y0181653D02*
D03*
Y0185590D02*
D03*
X0075355Y0127283D02*
D03*
Y0123346D02*
D03*
X0175704Y0092467D02*
D03*
Y0096404D02*
D03*
X0204766Y0090590D02*
D03*
Y0094527D02*
D03*
X0184057Y0083346D02*
D03*
Y0079409D02*
D03*
Y0075511D02*
D03*
Y0071574D02*
D03*
X0207876Y0165354D02*
D03*
Y0161416D02*
D03*
X0144568Y0268386D02*
D03*
Y0272323D02*
D03*
X0144175Y0253858D02*
D03*
Y0249921D02*
D03*
X0144568Y0280236D02*
D03*
Y0276299D02*
D03*
X0200475Y0270550D02*
D03*
Y0274487D02*
D03*
X0153152Y0061653D02*
D03*
Y0057716D02*
D03*
X0202640Y0118897D02*
D03*
Y0122834D02*
D03*
X0203191Y0114448D02*
D03*
Y0110511D02*
D03*
X0170080Y0208268D02*
D03*
Y0204331D02*
D03*
X0157167Y0219882D02*
D03*
Y0223819D02*
D03*
X0145434Y0226063D02*
D03*
Y0230000D02*
D03*
Y0219843D02*
D03*
Y0215906D02*
D03*
X0145357Y0181653D02*
D03*
Y0185590D02*
D03*
X0180868Y0127283D02*
D03*
Y0123346D02*
D03*
X0281217Y0092467D02*
D03*
Y0096404D02*
D03*
X0310279Y0090590D02*
D03*
Y0094527D02*
D03*
X0289571Y0083346D02*
D03*
Y0079409D02*
D03*
Y0075511D02*
D03*
Y0071574D02*
D03*
X0313390Y0165354D02*
D03*
Y0161416D02*
D03*
X0250082Y0268386D02*
D03*
Y0272323D02*
D03*
X0249688Y0253858D02*
D03*
Y0249921D02*
D03*
X0250082Y0280236D02*
D03*
Y0276299D02*
D03*
X0305988Y0270550D02*
D03*
Y0274487D02*
D03*
X0258665Y0061653D02*
D03*
Y0057716D02*
D03*
X0308153Y0118897D02*
D03*
Y0122834D02*
D03*
X0308704Y0114448D02*
D03*
Y0110511D02*
D03*
X0275593Y0208268D02*
D03*
Y0204331D02*
D03*
X0262680Y0219882D02*
D03*
Y0223819D02*
D03*
X0250948Y0226063D02*
D03*
Y0230000D02*
D03*
Y0219843D02*
D03*
Y0215906D02*
D03*
X0250870Y0181653D02*
D03*
Y0185590D02*
D03*
X0286382Y0127283D02*
D03*
Y0123346D02*
D03*
X0386731Y0092467D02*
D03*
Y0096404D02*
D03*
X0415793Y0090590D02*
D03*
Y0094527D02*
D03*
X0395084Y0083346D02*
D03*
Y0079409D02*
D03*
Y0075511D02*
D03*
Y0071574D02*
D03*
X0418903Y0165354D02*
D03*
Y0161416D02*
D03*
X0355595Y0268386D02*
D03*
Y0272323D02*
D03*
X0355201Y0253858D02*
D03*
Y0249921D02*
D03*
X0355595Y0280236D02*
D03*
Y0276299D02*
D03*
X0411501Y0270550D02*
D03*
Y0274487D02*
D03*
X0364178Y0061653D02*
D03*
Y0057716D02*
D03*
X0413667Y0118897D02*
D03*
Y0122834D02*
D03*
X0414218Y0114448D02*
D03*
Y0110511D02*
D03*
X0381107Y0208268D02*
D03*
Y0204331D02*
D03*
X0368193Y0219882D02*
D03*
Y0223819D02*
D03*
X0356461Y0226063D02*
D03*
Y0230000D02*
D03*
Y0219843D02*
D03*
Y0215906D02*
D03*
X0356383Y0181653D02*
D03*
Y0185590D02*
D03*
X0391895Y0127283D02*
D03*
Y0123346D02*
D03*
X0492244Y0092467D02*
D03*
Y0096404D02*
D03*
X0521306Y0090590D02*
D03*
Y0094527D02*
D03*
X0500597Y0083346D02*
D03*
Y0079409D02*
D03*
Y0075511D02*
D03*
Y0071574D02*
D03*
X0524416Y0165354D02*
D03*
Y0161416D02*
D03*
X0461108Y0268386D02*
D03*
Y0272323D02*
D03*
X0460714Y0253858D02*
D03*
Y0249921D02*
D03*
X0461108Y0280236D02*
D03*
Y0276299D02*
D03*
X0517014Y0270550D02*
D03*
Y0274487D02*
D03*
X0469692Y0061653D02*
D03*
Y0057716D02*
D03*
X0519180Y0118897D02*
D03*
Y0122834D02*
D03*
X0519731Y0114448D02*
D03*
Y0110511D02*
D03*
X0486620Y0208268D02*
D03*
Y0204331D02*
D03*
X0473706Y0219882D02*
D03*
Y0223819D02*
D03*
X0461974Y0226063D02*
D03*
Y0230000D02*
D03*
Y0219843D02*
D03*
Y0215906D02*
D03*
X0461896Y0181653D02*
D03*
Y0185590D02*
D03*
X0497408Y0127283D02*
D03*
Y0123346D02*
D03*
D99*
X0100312Y0179898D02*
D03*
X0092832D02*
D03*
X0096572Y0189347D02*
D03*
X0205825Y0179898D02*
D03*
X0198345D02*
D03*
X0202085Y0189347D02*
D03*
X0311339Y0179898D02*
D03*
X0303858D02*
D03*
X0307598Y0189347D02*
D03*
X0416852Y0179898D02*
D03*
X0409372D02*
D03*
X0413112Y0189347D02*
D03*
X0522365Y0179898D02*
D03*
X0514885D02*
D03*
X0518625Y0189347D02*
D03*
D100*
X0088328Y0301493D02*
D03*
X0076714D02*
D03*
X0193841D02*
D03*
X0182227D02*
D03*
X0299354D02*
D03*
X0287740D02*
D03*
X0404867D02*
D03*
X0393253D02*
D03*
X0510381D02*
D03*
X0498766D02*
D03*
D101*
X0082521Y0295587D02*
D03*
X0092088Y0083267D02*
D03*
X0085001D02*
D03*
X0188034Y0295587D02*
D03*
X0197601Y0083267D02*
D03*
X0190514D02*
D03*
X0293547Y0295587D02*
D03*
X0303114Y0083267D02*
D03*
X0296027D02*
D03*
X0399060Y0295587D02*
D03*
X0408627Y0083267D02*
D03*
X0401541D02*
D03*
X0504573Y0295587D02*
D03*
X0514140Y0083267D02*
D03*
X0507054D02*
D03*
D102*
X0058702Y0324487D02*
D03*
X0064607D02*
D03*
X0164215D02*
D03*
X0170120D02*
D03*
X0269728D02*
D03*
X0275634D02*
D03*
X0375241D02*
D03*
X0381147D02*
D03*
X0480755D02*
D03*
X0486660D02*
D03*
D103*
X0056664Y0264733D02*
D03*
X0054047Y0262116D02*
D03*
X0162177Y0264733D02*
D03*
X0159560Y0262116D02*
D03*
X0267690Y0264733D02*
D03*
X0265073Y0262116D02*
D03*
X0373203Y0264733D02*
D03*
X0370586Y0262116D02*
D03*
X0478717Y0264733D02*
D03*
X0476100Y0262116D02*
D03*
D104*
X0047954Y0181220D02*
D03*
X0044017D02*
D03*
X0106261Y0267637D02*
D03*
X0102324D02*
D03*
X0068229Y0300511D02*
D03*
X0064292D02*
D03*
X0047244Y0270236D02*
D03*
X0043307D02*
D03*
X0102324Y0271889D02*
D03*
X0106261D02*
D03*
X0063859Y0296180D02*
D03*
X0059922D02*
D03*
X0068190Y0089094D02*
D03*
X0072127D02*
D03*
X0058977Y0089054D02*
D03*
X0062914D02*
D03*
X0036497Y0044940D02*
D03*
X0040434D02*
D03*
X0036497Y0049231D02*
D03*
X0040434D02*
D03*
X0110237Y0114566D02*
D03*
X0106300D02*
D03*
X0109056Y0124054D02*
D03*
X0112993D02*
D03*
X0043780Y0226260D02*
D03*
X0047717D02*
D03*
X0109056Y0119330D02*
D03*
X0112993D02*
D03*
X0047835Y0190709D02*
D03*
X0043898D02*
D03*
X0053465Y0183464D02*
D03*
X0057165D02*
D03*
X0061536D02*
D03*
X0065315D02*
D03*
X0076733Y0138542D02*
D03*
X0080670D02*
D03*
X0075434Y0131377D02*
D03*
X0071497D02*
D03*
X0153467Y0181220D02*
D03*
X0149530D02*
D03*
X0211774Y0267637D02*
D03*
X0207837D02*
D03*
X0173742Y0300511D02*
D03*
X0169806D02*
D03*
X0152757Y0270236D02*
D03*
X0148820D02*
D03*
X0207837Y0271889D02*
D03*
X0211774D02*
D03*
X0169372Y0296180D02*
D03*
X0165435D02*
D03*
X0173703Y0089094D02*
D03*
X0177640D02*
D03*
X0164490Y0089054D02*
D03*
X0168428D02*
D03*
X0142010Y0044940D02*
D03*
X0145947D02*
D03*
X0142010Y0049231D02*
D03*
X0145947D02*
D03*
X0215750Y0114566D02*
D03*
X0211813D02*
D03*
X0214569Y0124054D02*
D03*
X0218506D02*
D03*
X0149293Y0226260D02*
D03*
X0153230D02*
D03*
X0214569Y0119330D02*
D03*
X0218506D02*
D03*
X0153348Y0190709D02*
D03*
X0149411D02*
D03*
X0158978Y0183464D02*
D03*
X0162679D02*
D03*
X0167049D02*
D03*
X0170828D02*
D03*
X0182246Y0138542D02*
D03*
X0186183D02*
D03*
X0180947Y0131377D02*
D03*
X0177010D02*
D03*
X0258980Y0181220D02*
D03*
X0255043D02*
D03*
X0317287Y0267637D02*
D03*
X0313350D02*
D03*
X0279256Y0300511D02*
D03*
X0275319D02*
D03*
X0258271Y0270236D02*
D03*
X0254333D02*
D03*
X0313350Y0271889D02*
D03*
X0317287D02*
D03*
X0274886Y0296180D02*
D03*
X0270949D02*
D03*
X0279216Y0089094D02*
D03*
X0283153D02*
D03*
X0270004Y0089054D02*
D03*
X0273941D02*
D03*
X0247523Y0044940D02*
D03*
X0251460D02*
D03*
X0247523Y0049231D02*
D03*
X0251460D02*
D03*
X0321264Y0114566D02*
D03*
X0317327D02*
D03*
X0320082Y0124054D02*
D03*
X0324020D02*
D03*
X0254806Y0226260D02*
D03*
X0258743D02*
D03*
X0320082Y0119330D02*
D03*
X0324020D02*
D03*
X0258861Y0190709D02*
D03*
X0254924D02*
D03*
X0264491Y0183464D02*
D03*
X0268192D02*
D03*
X0272562D02*
D03*
X0276341D02*
D03*
X0287760Y0138542D02*
D03*
X0291697D02*
D03*
X0286460Y0131377D02*
D03*
X0282523D02*
D03*
X0364493Y0181220D02*
D03*
X0360556D02*
D03*
X0422800Y0267637D02*
D03*
X0418863D02*
D03*
X0384769Y0300511D02*
D03*
X0380832D02*
D03*
X0363784Y0270236D02*
D03*
X0359847D02*
D03*
X0418863Y0271889D02*
D03*
X0422800D02*
D03*
X0380399Y0296180D02*
D03*
X0376462D02*
D03*
X0384730Y0089094D02*
D03*
X0388667D02*
D03*
X0375517Y0089054D02*
D03*
X0379454D02*
D03*
X0353037Y0044940D02*
D03*
X0356974D02*
D03*
X0353037Y0049231D02*
D03*
X0356974D02*
D03*
X0426777Y0114566D02*
D03*
X0422840D02*
D03*
X0425596Y0124054D02*
D03*
X0429533D02*
D03*
X0360319Y0226260D02*
D03*
X0364256D02*
D03*
X0425596Y0119330D02*
D03*
X0429533D02*
D03*
X0364374Y0190709D02*
D03*
X0360437D02*
D03*
X0370004Y0183464D02*
D03*
X0373705D02*
D03*
X0378075D02*
D03*
X0381855D02*
D03*
X0393273Y0138542D02*
D03*
X0397210D02*
D03*
X0391974Y0131377D02*
D03*
X0388037D02*
D03*
X0470007Y0181220D02*
D03*
X0466070D02*
D03*
X0528314Y0267637D02*
D03*
X0524377D02*
D03*
X0490282Y0300511D02*
D03*
X0486345D02*
D03*
X0469297Y0270236D02*
D03*
X0465360D02*
D03*
X0524377Y0271889D02*
D03*
X0528314D02*
D03*
X0485912Y0296180D02*
D03*
X0481975D02*
D03*
X0490243Y0089094D02*
D03*
X0494180D02*
D03*
X0481030Y0089054D02*
D03*
X0484967D02*
D03*
X0458550Y0044940D02*
D03*
X0462487D02*
D03*
X0458550Y0049231D02*
D03*
X0462487D02*
D03*
X0532290Y0114566D02*
D03*
X0528353D02*
D03*
X0531109Y0124054D02*
D03*
X0535046D02*
D03*
X0465832Y0226260D02*
D03*
X0469769D02*
D03*
X0531109Y0119330D02*
D03*
X0535046D02*
D03*
X0469888Y0190709D02*
D03*
X0465950D02*
D03*
X0475518Y0183464D02*
D03*
X0479218D02*
D03*
X0483588D02*
D03*
X0487368D02*
D03*
X0498786Y0138542D02*
D03*
X0502723D02*
D03*
X0497487Y0131377D02*
D03*
X0493550D02*
D03*
D105*
X0102284Y0195747D02*
D03*
X0100316Y0204015D02*
D03*
X0098347Y0195747D02*
D03*
X0100316D02*
D03*
X0104253D02*
D03*
Y0204015D02*
D03*
X0102284D02*
D03*
X0098347D02*
D03*
X0207798Y0195747D02*
D03*
X0205829Y0204015D02*
D03*
X0203861Y0195747D02*
D03*
X0205829D02*
D03*
X0209766D02*
D03*
Y0204015D02*
D03*
X0207798D02*
D03*
X0203861D02*
D03*
X0313311Y0195747D02*
D03*
X0311342Y0204015D02*
D03*
X0309374Y0195747D02*
D03*
X0311342D02*
D03*
X0315279D02*
D03*
Y0204015D02*
D03*
X0313311D02*
D03*
X0309374D02*
D03*
X0418824Y0195747D02*
D03*
X0416855Y0204015D02*
D03*
X0414887Y0195747D02*
D03*
X0416855D02*
D03*
X0420793D02*
D03*
Y0204015D02*
D03*
X0418824D02*
D03*
X0414887D02*
D03*
X0524337Y0195747D02*
D03*
X0522369Y0204015D02*
D03*
X0520400Y0195747D02*
D03*
X0522369D02*
D03*
X0526306D02*
D03*
Y0204015D02*
D03*
X0524337D02*
D03*
X0520400D02*
D03*
D106*
X0079035Y0131142D02*
D03*
Y0132913D02*
D03*
Y0134685D02*
D03*
X0080807Y0131142D02*
D03*
Y0132913D02*
D03*
Y0134685D02*
D03*
X0039134Y0262657D02*
D03*
Y0260886D02*
D03*
X0040905Y0262658D02*
D03*
Y0260886D02*
D03*
X0042677Y0262657D02*
D03*
Y0260886D02*
D03*
X0184549Y0131142D02*
D03*
Y0132913D02*
D03*
Y0134685D02*
D03*
X0186320Y0131142D02*
D03*
Y0132913D02*
D03*
Y0134685D02*
D03*
X0144647Y0262657D02*
D03*
Y0260886D02*
D03*
X0146419Y0262658D02*
D03*
Y0260886D02*
D03*
X0148190Y0262657D02*
D03*
Y0260886D02*
D03*
X0290062Y0131142D02*
D03*
Y0132913D02*
D03*
Y0134685D02*
D03*
X0291833Y0131142D02*
D03*
Y0132913D02*
D03*
Y0134685D02*
D03*
X0250160Y0262657D02*
D03*
Y0260886D02*
D03*
X0251932Y0262658D02*
D03*
Y0260886D02*
D03*
X0253704Y0262657D02*
D03*
Y0260886D02*
D03*
X0395575Y0131142D02*
D03*
Y0132913D02*
D03*
Y0134685D02*
D03*
X0397347Y0131142D02*
D03*
Y0132913D02*
D03*
Y0134685D02*
D03*
X0355674Y0262657D02*
D03*
Y0260886D02*
D03*
X0357445Y0262658D02*
D03*
Y0260886D02*
D03*
X0359217Y0262657D02*
D03*
Y0260886D02*
D03*
X0501088Y0131142D02*
D03*
Y0132913D02*
D03*
Y0134685D02*
D03*
X0502860Y0131142D02*
D03*
Y0132913D02*
D03*
Y0134685D02*
D03*
X0461187Y0262657D02*
D03*
Y0260886D02*
D03*
X0462958Y0262658D02*
D03*
Y0260886D02*
D03*
X0464730Y0262657D02*
D03*
Y0260886D02*
D03*
D107*
X0057363Y0061298D02*
D03*
X0059332Y0072716D02*
D03*
X0057363D02*
D03*
X0055395D02*
D03*
X0053426D02*
D03*
Y0061298D02*
D03*
X0055395D02*
D03*
X0059332D02*
D03*
X0162876D02*
D03*
X0164845Y0072716D02*
D03*
X0162876D02*
D03*
X0160908D02*
D03*
X0158939D02*
D03*
Y0061298D02*
D03*
X0160908D02*
D03*
X0164845D02*
D03*
X0268390D02*
D03*
X0270358Y0072716D02*
D03*
X0268390D02*
D03*
X0266421D02*
D03*
X0264453D02*
D03*
Y0061298D02*
D03*
X0266421D02*
D03*
X0270358D02*
D03*
X0373903D02*
D03*
X0375871Y0072716D02*
D03*
X0373903D02*
D03*
X0371934D02*
D03*
X0369966D02*
D03*
Y0061298D02*
D03*
X0371934D02*
D03*
X0375871D02*
D03*
X0479416D02*
D03*
X0481385Y0072716D02*
D03*
X0479416D02*
D03*
X0477448D02*
D03*
X0475479D02*
D03*
Y0061298D02*
D03*
X0477448D02*
D03*
X0481385D02*
D03*
D108*
X0071733Y0284527D02*
D03*
X0067757D02*
D03*
X0039055Y0284488D02*
D03*
X0042835D02*
D03*
X0068229Y0304920D02*
D03*
X0064450D02*
D03*
X0058702Y0057283D02*
D03*
X0062481D02*
D03*
X0054214Y0079566D02*
D03*
X0057993D02*
D03*
X0096536Y0207991D02*
D03*
X0100316D02*
D03*
X0043938Y0185629D02*
D03*
X0047717D02*
D03*
X0084804Y0118188D02*
D03*
X0081024D02*
D03*
X0177246Y0284527D02*
D03*
X0173270D02*
D03*
X0144568Y0284488D02*
D03*
X0148348D02*
D03*
X0173742Y0304920D02*
D03*
X0169963D02*
D03*
X0164215Y0057283D02*
D03*
X0167994D02*
D03*
X0159727Y0079566D02*
D03*
X0163506D02*
D03*
X0202050Y0207991D02*
D03*
X0205829D02*
D03*
X0149451Y0185629D02*
D03*
X0153231D02*
D03*
X0190317Y0118188D02*
D03*
X0186538D02*
D03*
X0282760Y0284527D02*
D03*
X0278783D02*
D03*
X0250082Y0284488D02*
D03*
X0253861D02*
D03*
X0279256Y0304920D02*
D03*
X0275476D02*
D03*
X0269728Y0057283D02*
D03*
X0273508D02*
D03*
X0265240Y0079566D02*
D03*
X0269020D02*
D03*
X0307563Y0207991D02*
D03*
X0311342D02*
D03*
X0254964Y0185629D02*
D03*
X0258744D02*
D03*
X0295830Y0118188D02*
D03*
X0292051D02*
D03*
X0388273Y0284527D02*
D03*
X0384296D02*
D03*
X0355595Y0284488D02*
D03*
X0359374D02*
D03*
X0384769Y0304920D02*
D03*
X0380989D02*
D03*
X0375241Y0057283D02*
D03*
X0379021D02*
D03*
X0370753Y0079566D02*
D03*
X0374533D02*
D03*
X0413076Y0207991D02*
D03*
X0416856D02*
D03*
X0360478Y0185629D02*
D03*
X0364257D02*
D03*
X0401344Y0118188D02*
D03*
X0397564D02*
D03*
X0493786Y0284527D02*
D03*
X0489810D02*
D03*
X0461108Y0284488D02*
D03*
X0464888D02*
D03*
X0490282Y0304920D02*
D03*
X0486503D02*
D03*
X0480755Y0057283D02*
D03*
X0484534D02*
D03*
X0476266Y0079566D02*
D03*
X0480046D02*
D03*
X0518589Y0207991D02*
D03*
X0522369D02*
D03*
X0465991Y0185629D02*
D03*
X0469770D02*
D03*
X0506857Y0118188D02*
D03*
X0503077D02*
D03*
D109*
X0091929Y0278425D02*
D03*
X0093898D02*
D03*
Y0284331D02*
D03*
X0091929Y0284331D02*
D03*
X0197442Y0278425D02*
D03*
X0199411D02*
D03*
Y0284331D02*
D03*
X0197442Y0284331D02*
D03*
X0302956Y0278425D02*
D03*
X0304924D02*
D03*
Y0284331D02*
D03*
X0302956Y0284331D02*
D03*
X0408469Y0278425D02*
D03*
X0410437D02*
D03*
Y0284331D02*
D03*
X0408469Y0284331D02*
D03*
X0513982Y0278425D02*
D03*
X0515950D02*
D03*
Y0284331D02*
D03*
X0513982Y0284331D02*
D03*
D110*
X0095866Y0278425D02*
D03*
Y0280394D02*
D03*
Y0282362D02*
D03*
Y0284331D02*
D03*
X0089961D02*
D03*
Y0282362D02*
D03*
Y0280394D02*
D03*
Y0278425D02*
D03*
X0201379D02*
D03*
Y0280394D02*
D03*
Y0282362D02*
D03*
Y0284331D02*
D03*
X0195474D02*
D03*
Y0282362D02*
D03*
Y0280394D02*
D03*
Y0278425D02*
D03*
X0306893D02*
D03*
Y0280394D02*
D03*
Y0282362D02*
D03*
Y0284331D02*
D03*
X0300987D02*
D03*
Y0282362D02*
D03*
Y0280394D02*
D03*
Y0278425D02*
D03*
X0412406D02*
D03*
Y0280394D02*
D03*
Y0282362D02*
D03*
Y0284331D02*
D03*
X0406500D02*
D03*
Y0282362D02*
D03*
Y0280394D02*
D03*
Y0278425D02*
D03*
X0517919D02*
D03*
Y0280394D02*
D03*
Y0282362D02*
D03*
Y0284331D02*
D03*
X0512013D02*
D03*
Y0282362D02*
D03*
Y0280394D02*
D03*
Y0278425D02*
D03*
D111*
X0101142Y0276614D02*
D03*
Y0282520D02*
D03*
X0107875Y0158660D02*
D03*
Y0164960D02*
D03*
X0093623Y0196613D02*
D03*
Y0202519D02*
D03*
X0069292Y0083818D02*
D03*
Y0077912D02*
D03*
X0063308Y0083857D02*
D03*
Y0077952D02*
D03*
X0095355Y0129960D02*
D03*
Y0135865D02*
D03*
X0059607Y0131298D02*
D03*
Y0125393D02*
D03*
X0066221Y0131338D02*
D03*
Y0125432D02*
D03*
X0206655Y0276614D02*
D03*
Y0282520D02*
D03*
X0213388Y0158660D02*
D03*
Y0164960D02*
D03*
X0199136Y0196613D02*
D03*
Y0202519D02*
D03*
X0174805Y0083818D02*
D03*
Y0077912D02*
D03*
X0168821Y0083857D02*
D03*
Y0077952D02*
D03*
X0200869Y0129960D02*
D03*
Y0135865D02*
D03*
X0165120Y0131298D02*
D03*
Y0125393D02*
D03*
X0171735Y0131338D02*
D03*
Y0125432D02*
D03*
X0312168Y0276614D02*
D03*
Y0282520D02*
D03*
X0318901Y0158660D02*
D03*
Y0164960D02*
D03*
X0304649Y0196613D02*
D03*
Y0202519D02*
D03*
X0280319Y0083818D02*
D03*
Y0077912D02*
D03*
X0274335Y0083857D02*
D03*
Y0077952D02*
D03*
X0306382Y0129960D02*
D03*
Y0135865D02*
D03*
X0270634Y0131298D02*
D03*
Y0125393D02*
D03*
X0277248Y0131338D02*
D03*
Y0125432D02*
D03*
X0417681Y0276614D02*
D03*
Y0282520D02*
D03*
X0424415Y0158660D02*
D03*
Y0164960D02*
D03*
X0410163Y0196613D02*
D03*
Y0202519D02*
D03*
X0385832Y0083818D02*
D03*
Y0077912D02*
D03*
X0379848Y0083857D02*
D03*
Y0077952D02*
D03*
X0411895Y0129960D02*
D03*
Y0135865D02*
D03*
X0376147Y0131298D02*
D03*
Y0125393D02*
D03*
X0382761Y0131338D02*
D03*
Y0125432D02*
D03*
X0523195Y0276614D02*
D03*
Y0282520D02*
D03*
X0529928Y0158660D02*
D03*
Y0164960D02*
D03*
X0515676Y0196613D02*
D03*
Y0202519D02*
D03*
X0491345Y0083818D02*
D03*
Y0077912D02*
D03*
X0485361Y0083857D02*
D03*
Y0077952D02*
D03*
X0517408Y0129960D02*
D03*
Y0135865D02*
D03*
X0481660Y0131298D02*
D03*
Y0125393D02*
D03*
X0488274Y0131338D02*
D03*
Y0125432D02*
D03*
D112*
X0106732Y0280433D02*
D03*
Y0276654D02*
D03*
X0074135Y0071653D02*
D03*
Y0075432D02*
D03*
X0076379Y0091259D02*
D03*
Y0087479D02*
D03*
X0047639Y0281456D02*
D03*
Y0285235D02*
D03*
X0039449Y0235118D02*
D03*
Y0238898D02*
D03*
X0102639Y0263542D02*
D03*
Y0259763D02*
D03*
X0040458Y0211503D02*
D03*
Y0207723D02*
D03*
X0102048Y0110668D02*
D03*
Y0114448D02*
D03*
X0064567Y0194961D02*
D03*
Y0198740D02*
D03*
X0040454Y0197716D02*
D03*
Y0201495D02*
D03*
X0102363Y0153621D02*
D03*
Y0157401D02*
D03*
X0100670Y0130550D02*
D03*
Y0134330D02*
D03*
X0212245Y0280433D02*
D03*
Y0276654D02*
D03*
X0179648Y0071653D02*
D03*
Y0075432D02*
D03*
X0181892Y0091259D02*
D03*
Y0087479D02*
D03*
X0153152Y0281456D02*
D03*
Y0285235D02*
D03*
X0144962Y0235118D02*
D03*
Y0238898D02*
D03*
X0208152Y0263542D02*
D03*
Y0259763D02*
D03*
X0145971Y0211503D02*
D03*
Y0207723D02*
D03*
X0207561Y0110668D02*
D03*
Y0114448D02*
D03*
X0170080Y0194961D02*
D03*
Y0198740D02*
D03*
X0145967Y0197716D02*
D03*
Y0201495D02*
D03*
X0207876Y0153621D02*
D03*
Y0157401D02*
D03*
X0206183Y0130550D02*
D03*
Y0134330D02*
D03*
X0317759Y0280433D02*
D03*
Y0276654D02*
D03*
X0285161Y0071653D02*
D03*
Y0075432D02*
D03*
X0287405Y0091259D02*
D03*
Y0087479D02*
D03*
X0258665Y0281456D02*
D03*
Y0285235D02*
D03*
X0250475Y0235118D02*
D03*
Y0238898D02*
D03*
X0313665Y0263542D02*
D03*
Y0259763D02*
D03*
X0251484Y0211503D02*
D03*
Y0207723D02*
D03*
X0313075Y0110668D02*
D03*
Y0114448D02*
D03*
X0275593Y0194961D02*
D03*
Y0198740D02*
D03*
X0251480Y0197716D02*
D03*
Y0201495D02*
D03*
X0313390Y0153621D02*
D03*
Y0157401D02*
D03*
X0311697Y0130550D02*
D03*
Y0134330D02*
D03*
X0423272Y0280433D02*
D03*
Y0276654D02*
D03*
X0390674Y0071653D02*
D03*
Y0075432D02*
D03*
X0392918Y0091259D02*
D03*
Y0087479D02*
D03*
X0364178Y0281456D02*
D03*
Y0285235D02*
D03*
X0355989Y0235118D02*
D03*
Y0238898D02*
D03*
X0419178Y0263542D02*
D03*
Y0259763D02*
D03*
X0356997Y0211503D02*
D03*
Y0207723D02*
D03*
X0418588Y0110668D02*
D03*
Y0114448D02*
D03*
X0381107Y0194961D02*
D03*
Y0198740D02*
D03*
X0356993Y0197716D02*
D03*
Y0201495D02*
D03*
X0418903Y0153621D02*
D03*
Y0157401D02*
D03*
X0417210Y0130550D02*
D03*
Y0134330D02*
D03*
X0528785Y0280433D02*
D03*
Y0276654D02*
D03*
X0496188Y0071653D02*
D03*
Y0075432D02*
D03*
X0498432Y0091259D02*
D03*
Y0087479D02*
D03*
X0469692Y0281456D02*
D03*
Y0285235D02*
D03*
X0461502Y0235118D02*
D03*
Y0238898D02*
D03*
X0524692Y0263542D02*
D03*
Y0259763D02*
D03*
X0462510Y0211503D02*
D03*
Y0207723D02*
D03*
X0524101Y0110668D02*
D03*
Y0114448D02*
D03*
X0486620Y0194961D02*
D03*
Y0198740D02*
D03*
X0462507Y0197716D02*
D03*
Y0201495D02*
D03*
X0524416Y0153621D02*
D03*
Y0157401D02*
D03*
X0522723Y0130550D02*
D03*
Y0134330D02*
D03*
D113*
X0076102Y0313780D02*
D03*
X0085551D02*
D03*
X0102874D02*
D03*
X0115866D02*
D03*
X0076102Y0347638D02*
D03*
X0115866D02*
D03*
X0102874D02*
D03*
X0181616Y0313780D02*
D03*
X0191064D02*
D03*
X0208387D02*
D03*
X0221379D02*
D03*
X0181616Y0347638D02*
D03*
X0221379D02*
D03*
X0208387D02*
D03*
X0287129Y0313780D02*
D03*
X0296578D02*
D03*
X0313900D02*
D03*
X0326893D02*
D03*
X0287129Y0347638D02*
D03*
X0326893D02*
D03*
X0313900D02*
D03*
X0392642Y0313780D02*
D03*
X0402091D02*
D03*
X0419414D02*
D03*
X0432406D02*
D03*
X0392642Y0347638D02*
D03*
X0432406D02*
D03*
X0419414D02*
D03*
X0498155Y0313780D02*
D03*
X0507604D02*
D03*
X0524927D02*
D03*
X0537919D02*
D03*
X0498155Y0347638D02*
D03*
X0537919D02*
D03*
X0524927D02*
D03*
D114*
X0076418Y0065826D02*
D03*
Y0058346D02*
D03*
X0067954Y0065786D02*
D03*
Y0058306D02*
D03*
X0181931Y0065826D02*
D03*
Y0058346D02*
D03*
X0173467Y0065786D02*
D03*
Y0058306D02*
D03*
X0287445Y0065826D02*
D03*
Y0058346D02*
D03*
X0278980Y0065786D02*
D03*
Y0058306D02*
D03*
X0392958Y0065826D02*
D03*
Y0058346D02*
D03*
X0384493Y0065786D02*
D03*
Y0058306D02*
D03*
X0498471Y0065826D02*
D03*
Y0058346D02*
D03*
X0490007Y0065786D02*
D03*
Y0058306D02*
D03*
D115*
X0086969Y0058641D02*
D03*
Y0074113D02*
D03*
X0192483Y0058641D02*
D03*
Y0074113D02*
D03*
X0297996Y0058641D02*
D03*
Y0074113D02*
D03*
X0403509Y0058641D02*
D03*
Y0074113D02*
D03*
X0509022Y0058641D02*
D03*
Y0074113D02*
D03*
D116*
X0101694Y0074881D02*
D03*
X0111694Y0049290D02*
D03*
X0101694D02*
D03*
X0111694Y0074881D02*
D03*
X0207207D02*
D03*
X0217207Y0049290D02*
D03*
X0207207D02*
D03*
X0217207Y0074881D02*
D03*
X0312720D02*
D03*
X0322720Y0049290D02*
D03*
X0312720D02*
D03*
X0322720Y0074881D02*
D03*
X0418233D02*
D03*
X0428233Y0049290D02*
D03*
X0418233D02*
D03*
X0428233Y0074881D02*
D03*
X0523747D02*
D03*
X0533747Y0049290D02*
D03*
X0523747D02*
D03*
X0533747Y0074881D02*
D03*
D117*
X0083662Y0089172D02*
D03*
Y0096653D02*
D03*
X0094292D02*
D03*
Y0089172D02*
D03*
X0083662Y0092913D02*
D03*
X0105040Y0146535D02*
D03*
X0112678Y0142716D02*
D03*
Y0150354D02*
D03*
X0189176Y0089172D02*
D03*
Y0096653D02*
D03*
X0199805D02*
D03*
Y0089172D02*
D03*
X0189176Y0092913D02*
D03*
X0210554Y0146535D02*
D03*
X0218191Y0142716D02*
D03*
Y0150354D02*
D03*
X0294689Y0089172D02*
D03*
Y0096653D02*
D03*
X0305319D02*
D03*
Y0089172D02*
D03*
X0294689Y0092913D02*
D03*
X0316067Y0146535D02*
D03*
X0323705Y0142716D02*
D03*
Y0150354D02*
D03*
X0400202Y0089172D02*
D03*
Y0096653D02*
D03*
X0410832D02*
D03*
Y0089172D02*
D03*
X0400202Y0092913D02*
D03*
X0421580Y0146535D02*
D03*
X0429218Y0142716D02*
D03*
Y0150354D02*
D03*
X0505715Y0089172D02*
D03*
Y0096653D02*
D03*
X0516345D02*
D03*
Y0089172D02*
D03*
X0505715Y0092913D02*
D03*
X0527093Y0146535D02*
D03*
X0534731Y0142716D02*
D03*
Y0150354D02*
D03*
D118*
X0046299Y0195079D02*
D03*
X0048268D02*
D03*
X0050236D02*
D03*
X0052205D02*
D03*
X0054173D02*
D03*
X0056142D02*
D03*
X0058110D02*
D03*
X0060079D02*
D03*
Y0197047D02*
D03*
X0048268Y0199016D02*
D03*
X0050236D02*
D03*
X0052205D02*
D03*
X0054173D02*
D03*
X0056142D02*
D03*
X0060079D02*
D03*
X0048268Y0200984D02*
D03*
X0050236D02*
D03*
X0054173D02*
D03*
X0060079D02*
D03*
X0048268Y0202953D02*
D03*
X0056142D02*
D03*
X0060079D02*
D03*
X0048268Y0204921D02*
D03*
X0050236D02*
D03*
X0054173D02*
D03*
X0056142D02*
D03*
X0060079D02*
D03*
X0048268Y0206890D02*
D03*
X0050236D02*
D03*
X0052205D02*
D03*
X0054173D02*
D03*
X0056142D02*
D03*
X0060079D02*
D03*
Y0208858D02*
D03*
X0046299Y0210827D02*
D03*
X0048268D02*
D03*
X0050236D02*
D03*
X0052205D02*
D03*
X0054173D02*
D03*
X0056142D02*
D03*
X0058110D02*
D03*
X0060079D02*
D03*
X0044331Y0195079D02*
D03*
Y0197047D02*
D03*
Y0199016D02*
D03*
Y0200984D02*
D03*
Y0202953D02*
D03*
Y0204921D02*
D03*
Y0206890D02*
D03*
Y0208858D02*
D03*
Y0210827D02*
D03*
X0151812Y0195079D02*
D03*
X0153781D02*
D03*
X0155749D02*
D03*
X0157718D02*
D03*
X0159687D02*
D03*
X0161655D02*
D03*
X0163623D02*
D03*
X0165592D02*
D03*
Y0197047D02*
D03*
X0153781Y0199016D02*
D03*
X0155749D02*
D03*
X0157718D02*
D03*
X0159687D02*
D03*
X0161655D02*
D03*
X0165592D02*
D03*
X0153781Y0200984D02*
D03*
X0155749D02*
D03*
X0159687D02*
D03*
X0165592D02*
D03*
X0153781Y0202953D02*
D03*
X0161655D02*
D03*
X0165592D02*
D03*
X0153781Y0204921D02*
D03*
X0155749D02*
D03*
X0159687D02*
D03*
X0161655D02*
D03*
X0165592D02*
D03*
X0153781Y0206890D02*
D03*
X0155749D02*
D03*
X0157718D02*
D03*
X0159687D02*
D03*
X0161655D02*
D03*
X0165592D02*
D03*
Y0208858D02*
D03*
X0151812Y0210827D02*
D03*
X0153781D02*
D03*
X0155749D02*
D03*
X0157718D02*
D03*
X0159687D02*
D03*
X0161655D02*
D03*
X0163623D02*
D03*
X0165592D02*
D03*
X0149844Y0195079D02*
D03*
Y0197047D02*
D03*
Y0199016D02*
D03*
Y0200984D02*
D03*
Y0202953D02*
D03*
Y0204921D02*
D03*
Y0206890D02*
D03*
Y0208858D02*
D03*
Y0210827D02*
D03*
X0257326Y0195079D02*
D03*
X0259294D02*
D03*
X0261263D02*
D03*
X0263231D02*
D03*
X0265200D02*
D03*
X0267168D02*
D03*
X0269137D02*
D03*
X0271105D02*
D03*
Y0197047D02*
D03*
X0259294Y0199016D02*
D03*
X0261263D02*
D03*
X0263231D02*
D03*
X0265200D02*
D03*
X0267168D02*
D03*
X0271105D02*
D03*
X0259294Y0200984D02*
D03*
X0261263D02*
D03*
X0265200D02*
D03*
X0271105D02*
D03*
X0259294Y0202953D02*
D03*
X0267168D02*
D03*
X0271105D02*
D03*
X0259294Y0204921D02*
D03*
X0261263D02*
D03*
X0265200D02*
D03*
X0267168D02*
D03*
X0271105D02*
D03*
X0259294Y0206890D02*
D03*
X0261263D02*
D03*
X0263231D02*
D03*
X0265200D02*
D03*
X0267168D02*
D03*
X0271105D02*
D03*
Y0208858D02*
D03*
X0257326Y0210827D02*
D03*
X0259294D02*
D03*
X0261263D02*
D03*
X0263231D02*
D03*
X0265200D02*
D03*
X0267168D02*
D03*
X0269137D02*
D03*
X0271105D02*
D03*
X0255357Y0195079D02*
D03*
Y0197047D02*
D03*
Y0199016D02*
D03*
Y0200984D02*
D03*
Y0202953D02*
D03*
Y0204921D02*
D03*
Y0206890D02*
D03*
Y0208858D02*
D03*
Y0210827D02*
D03*
X0362839Y0195079D02*
D03*
X0364807D02*
D03*
X0366776D02*
D03*
X0368744D02*
D03*
X0370713D02*
D03*
X0372681D02*
D03*
X0374650D02*
D03*
X0376618D02*
D03*
Y0197047D02*
D03*
X0364807Y0199016D02*
D03*
X0366776D02*
D03*
X0368744D02*
D03*
X0370713D02*
D03*
X0372681D02*
D03*
X0376618D02*
D03*
X0364807Y0200984D02*
D03*
X0366776D02*
D03*
X0370713D02*
D03*
X0376618D02*
D03*
X0364807Y0202953D02*
D03*
X0372681D02*
D03*
X0376618D02*
D03*
X0364807Y0204921D02*
D03*
X0366776D02*
D03*
X0370713D02*
D03*
X0372681D02*
D03*
X0376618D02*
D03*
X0364807Y0206890D02*
D03*
X0366776D02*
D03*
X0368744D02*
D03*
X0370713D02*
D03*
X0372681D02*
D03*
X0376618D02*
D03*
Y0208858D02*
D03*
X0362839Y0210827D02*
D03*
X0364807D02*
D03*
X0366776D02*
D03*
X0368744D02*
D03*
X0370713D02*
D03*
X0372681D02*
D03*
X0374650D02*
D03*
X0376618D02*
D03*
X0360870Y0195079D02*
D03*
Y0197047D02*
D03*
Y0199016D02*
D03*
Y0200984D02*
D03*
Y0202953D02*
D03*
Y0204921D02*
D03*
Y0206890D02*
D03*
Y0208858D02*
D03*
Y0210827D02*
D03*
X0468352Y0195079D02*
D03*
X0470321D02*
D03*
X0472289D02*
D03*
X0474258D02*
D03*
X0476226D02*
D03*
X0478195D02*
D03*
X0480163D02*
D03*
X0482132D02*
D03*
Y0197047D02*
D03*
X0470321Y0199016D02*
D03*
X0472289D02*
D03*
X0474258D02*
D03*
X0476226D02*
D03*
X0478195D02*
D03*
X0482132D02*
D03*
X0470321Y0200984D02*
D03*
X0472289D02*
D03*
X0476226D02*
D03*
X0482132D02*
D03*
X0470321Y0202953D02*
D03*
X0478195D02*
D03*
X0482132D02*
D03*
X0470321Y0204921D02*
D03*
X0472289D02*
D03*
X0476226D02*
D03*
X0478195D02*
D03*
X0482132D02*
D03*
X0470321Y0206890D02*
D03*
X0472289D02*
D03*
X0474258D02*
D03*
X0476226D02*
D03*
X0478195D02*
D03*
X0482132D02*
D03*
Y0208858D02*
D03*
X0468352Y0210827D02*
D03*
X0470321D02*
D03*
X0472289D02*
D03*
X0474258D02*
D03*
X0476226D02*
D03*
X0478195D02*
D03*
X0480163D02*
D03*
X0482132D02*
D03*
X0466384Y0195079D02*
D03*
Y0197047D02*
D03*
Y0199016D02*
D03*
Y0200984D02*
D03*
Y0202953D02*
D03*
Y0204921D02*
D03*
Y0206890D02*
D03*
Y0208858D02*
D03*
Y0210827D02*
D03*
D119*
X0093425Y0213659D02*
D03*
X0097601Y0217835D02*
D03*
X0198938Y0213659D02*
D03*
X0203114Y0217835D02*
D03*
X0304451Y0213659D02*
D03*
X0308627Y0217835D02*
D03*
X0409965Y0213659D02*
D03*
X0414140Y0217835D02*
D03*
X0515478Y0213659D02*
D03*
X0519654Y0217835D02*
D03*
D120*
X0104867Y0235320D02*
D03*
X0102640Y0233093D02*
D03*
X0100385Y0230838D02*
D03*
X0098158Y0228611D02*
D03*
X0095930Y0226384D02*
D03*
X0093703Y0224156D02*
D03*
X0091504Y0221957D02*
D03*
X0089249Y0219702D02*
D03*
X0087022Y0217475D02*
D03*
X0084823Y0215276D02*
D03*
X0082568Y0213021D02*
D03*
X0080369Y0210822D02*
D03*
X0047499Y0243663D02*
D03*
X0049729Y0245893D02*
D03*
X0051962Y0248126D02*
D03*
X0054181Y0250344D02*
D03*
X0056408Y0252572D02*
D03*
X0058635Y0254799D02*
D03*
X0060853Y0257006D02*
D03*
X0063108Y0259261D02*
D03*
X0065336Y0261488D02*
D03*
X0067535Y0263688D02*
D03*
X0069790Y0265943D02*
D03*
X0072017Y0268170D02*
D03*
X0210380Y0235320D02*
D03*
X0208153Y0233093D02*
D03*
X0205898Y0230838D02*
D03*
X0203671Y0228611D02*
D03*
X0201444Y0226384D02*
D03*
X0199217Y0224156D02*
D03*
X0197017Y0221957D02*
D03*
X0194762Y0219702D02*
D03*
X0192535Y0217475D02*
D03*
X0190336Y0215276D02*
D03*
X0188081Y0213021D02*
D03*
X0185882Y0210822D02*
D03*
X0153013Y0243663D02*
D03*
X0155242Y0245893D02*
D03*
X0157475Y0248126D02*
D03*
X0159694Y0250344D02*
D03*
X0161921Y0252572D02*
D03*
X0164148Y0254799D02*
D03*
X0166367Y0257006D02*
D03*
X0168622Y0259261D02*
D03*
X0170849Y0261488D02*
D03*
X0173048Y0263688D02*
D03*
X0175303Y0265943D02*
D03*
X0177530Y0268170D02*
D03*
X0315893Y0235320D02*
D03*
X0313666Y0233093D02*
D03*
X0311411Y0230838D02*
D03*
X0309184Y0228611D02*
D03*
X0306957Y0226384D02*
D03*
X0304730Y0224156D02*
D03*
X0302531Y0221957D02*
D03*
X0300276Y0219702D02*
D03*
X0298048Y0217475D02*
D03*
X0295849Y0215276D02*
D03*
X0293594Y0213021D02*
D03*
X0291395Y0210822D02*
D03*
X0258526Y0243663D02*
D03*
X0260756Y0245893D02*
D03*
X0262988Y0248126D02*
D03*
X0265207Y0250344D02*
D03*
X0267434Y0252572D02*
D03*
X0269661Y0254799D02*
D03*
X0271880Y0257006D02*
D03*
X0274135Y0259261D02*
D03*
X0276362Y0261488D02*
D03*
X0278561Y0263688D02*
D03*
X0280816Y0265943D02*
D03*
X0283043Y0268170D02*
D03*
X0421406Y0235320D02*
D03*
X0419179Y0233093D02*
D03*
X0416924Y0230838D02*
D03*
X0414697Y0228611D02*
D03*
X0412470Y0226384D02*
D03*
X0410243Y0224156D02*
D03*
X0408044Y0221957D02*
D03*
X0405789Y0219702D02*
D03*
X0403562Y0217475D02*
D03*
X0401362Y0215276D02*
D03*
X0399108Y0213021D02*
D03*
X0396908Y0210822D02*
D03*
X0364039Y0243663D02*
D03*
X0366269Y0245893D02*
D03*
X0368501Y0248126D02*
D03*
X0370720Y0250344D02*
D03*
X0372947Y0252572D02*
D03*
X0375174Y0254799D02*
D03*
X0377393Y0257006D02*
D03*
X0379648Y0259261D02*
D03*
X0381875Y0261488D02*
D03*
X0384074Y0263688D02*
D03*
X0386330Y0265943D02*
D03*
X0388557Y0268170D02*
D03*
X0526920Y0235320D02*
D03*
X0524692Y0233093D02*
D03*
X0522438Y0230838D02*
D03*
X0520211Y0228611D02*
D03*
X0517983Y0226384D02*
D03*
X0515756Y0224156D02*
D03*
X0513557Y0221957D02*
D03*
X0511302Y0219702D02*
D03*
X0509075Y0217475D02*
D03*
X0506876Y0215276D02*
D03*
X0504621Y0213021D02*
D03*
X0502422Y0210822D02*
D03*
X0469552Y0243663D02*
D03*
X0471782Y0245893D02*
D03*
X0474015Y0248126D02*
D03*
X0476233Y0250344D02*
D03*
X0478461Y0252572D02*
D03*
X0480688Y0254799D02*
D03*
X0482906Y0257006D02*
D03*
X0485161Y0259261D02*
D03*
X0487389Y0261488D02*
D03*
X0489588Y0263688D02*
D03*
X0491843Y0265943D02*
D03*
X0494070Y0268170D02*
D03*
D121*
X0073256Y0212061D02*
D03*
X0071023Y0214293D02*
D03*
X0068796Y0216520D02*
D03*
X0066569Y0218747D02*
D03*
X0064342Y0220974D02*
D03*
X0062115Y0223202D02*
D03*
X0059887Y0225429D02*
D03*
X0057663Y0227659D02*
D03*
X0055436Y0229886D02*
D03*
X0053206Y0232110D02*
D03*
X0050960Y0234357D02*
D03*
X0048618Y0236698D02*
D03*
X0079088Y0266945D02*
D03*
X0081343Y0264690D02*
D03*
X0083542Y0262491D02*
D03*
X0085769Y0260263D02*
D03*
X0087996Y0258036D02*
D03*
X0090223Y0255809D02*
D03*
X0092451Y0253582D02*
D03*
X0094678Y0251355D02*
D03*
X0096905Y0249128D02*
D03*
X0099132Y0246901D02*
D03*
X0101359Y0244674D02*
D03*
X0103614Y0242419D02*
D03*
X0178769Y0212061D02*
D03*
X0176536Y0214293D02*
D03*
X0174309Y0216520D02*
D03*
X0172082Y0218747D02*
D03*
X0169855Y0220974D02*
D03*
X0167628Y0223202D02*
D03*
X0165401Y0225429D02*
D03*
X0163176Y0227659D02*
D03*
X0160949Y0229886D02*
D03*
X0158719Y0232110D02*
D03*
X0156473Y0234357D02*
D03*
X0154132Y0236698D02*
D03*
X0184601Y0266945D02*
D03*
X0186856Y0264690D02*
D03*
X0189055Y0262491D02*
D03*
X0191282Y0260263D02*
D03*
X0193510Y0258036D02*
D03*
X0195737Y0255809D02*
D03*
X0197964Y0253582D02*
D03*
X0200191Y0251355D02*
D03*
X0202418Y0249128D02*
D03*
X0204645Y0246901D02*
D03*
X0206872Y0244674D02*
D03*
X0209127Y0242419D02*
D03*
X0284282Y0212061D02*
D03*
X0282049Y0214293D02*
D03*
X0279822Y0216520D02*
D03*
X0277595Y0218747D02*
D03*
X0275368Y0220974D02*
D03*
X0273141Y0223202D02*
D03*
X0270914Y0225429D02*
D03*
X0268690Y0227659D02*
D03*
X0266462Y0229886D02*
D03*
X0264233Y0232110D02*
D03*
X0261986Y0234357D02*
D03*
X0259645Y0236698D02*
D03*
X0290114Y0266945D02*
D03*
X0292369Y0264690D02*
D03*
X0294569Y0262491D02*
D03*
X0296796Y0260263D02*
D03*
X0299023Y0258036D02*
D03*
X0301250Y0255809D02*
D03*
X0303477Y0253582D02*
D03*
X0305704Y0251355D02*
D03*
X0307931Y0249128D02*
D03*
X0310158Y0246901D02*
D03*
X0312386Y0244674D02*
D03*
X0314640Y0242419D02*
D03*
X0389795Y0212061D02*
D03*
X0387563Y0214293D02*
D03*
X0385336Y0216520D02*
D03*
X0383108Y0218747D02*
D03*
X0380881Y0220974D02*
D03*
X0378654Y0223202D02*
D03*
X0376427Y0225429D02*
D03*
X0374203Y0227659D02*
D03*
X0371976Y0229886D02*
D03*
X0369746Y0232110D02*
D03*
X0367499Y0234357D02*
D03*
X0365158Y0236698D02*
D03*
X0395628Y0266945D02*
D03*
X0397883Y0264690D02*
D03*
X0400082Y0262491D02*
D03*
X0402309Y0260263D02*
D03*
X0404536Y0258036D02*
D03*
X0406763Y0255809D02*
D03*
X0408990Y0253582D02*
D03*
X0411217Y0251355D02*
D03*
X0413445Y0249128D02*
D03*
X0415672Y0246901D02*
D03*
X0417899Y0244674D02*
D03*
X0420154Y0242419D02*
D03*
X0495309Y0212061D02*
D03*
X0493076Y0214293D02*
D03*
X0490849Y0216520D02*
D03*
X0488622Y0218747D02*
D03*
X0486395Y0220974D02*
D03*
X0484167Y0223202D02*
D03*
X0481940Y0225429D02*
D03*
X0479716Y0227659D02*
D03*
X0477489Y0229886D02*
D03*
X0475259Y0232110D02*
D03*
X0473012Y0234357D02*
D03*
X0470671Y0236698D02*
D03*
X0501141Y0266945D02*
D03*
X0503396Y0264690D02*
D03*
X0505595Y0262491D02*
D03*
X0507822Y0260263D02*
D03*
X0510049Y0258036D02*
D03*
X0512276Y0255809D02*
D03*
X0514503Y0253582D02*
D03*
X0516731Y0251355D02*
D03*
X0518958Y0249128D02*
D03*
X0521185Y0246901D02*
D03*
X0523412Y0244674D02*
D03*
X0525667Y0242419D02*
D03*
D122*
X0090093Y0239487D02*
D03*
X0195606D02*
D03*
X0301119D02*
D03*
X0406632D02*
D03*
X0512146D02*
D03*
D123*
X0083133Y0246447D02*
D03*
X0076173Y0253407D02*
D03*
X0083133Y0232528D02*
D03*
X0076173Y0239487D02*
D03*
X0069213Y0246447D02*
D03*
X0076243Y0225498D02*
D03*
X0069213Y0232528D02*
D03*
X0062254Y0239487D02*
D03*
X0188646Y0246447D02*
D03*
X0181686Y0253407D02*
D03*
X0188646Y0232528D02*
D03*
X0181686Y0239487D02*
D03*
X0174727Y0246447D02*
D03*
X0181756Y0225498D02*
D03*
X0174727Y0232528D02*
D03*
X0167767Y0239487D02*
D03*
X0294159Y0246447D02*
D03*
X0287200Y0253407D02*
D03*
X0294159Y0232528D02*
D03*
X0287200Y0239487D02*
D03*
X0280240Y0246447D02*
D03*
X0287269Y0225498D02*
D03*
X0280240Y0232528D02*
D03*
X0273280Y0239487D02*
D03*
X0399673Y0246447D02*
D03*
X0392713Y0253407D02*
D03*
X0399673Y0232528D02*
D03*
X0392713Y0239487D02*
D03*
X0385753Y0246447D02*
D03*
X0392782Y0225498D02*
D03*
X0385753Y0232528D02*
D03*
X0378794Y0239487D02*
D03*
X0505186Y0246447D02*
D03*
X0498226Y0253407D02*
D03*
X0505186Y0232528D02*
D03*
X0498226Y0239487D02*
D03*
X0491266Y0246447D02*
D03*
X0498296Y0225498D02*
D03*
X0491266Y0232528D02*
D03*
X0484307Y0239487D02*
D03*
D124*
X0101381Y0221616D02*
D03*
X0104054Y0224288D02*
D03*
X0103861Y0216576D02*
D03*
X0106534Y0219249D02*
D03*
X0206894Y0221616D02*
D03*
X0209567Y0224288D02*
D03*
X0209375Y0216576D02*
D03*
X0212047Y0219249D02*
D03*
X0312408Y0221616D02*
D03*
X0315080Y0224288D02*
D03*
X0314888Y0216576D02*
D03*
X0317561Y0219249D02*
D03*
X0417921Y0221616D02*
D03*
X0420593Y0224288D02*
D03*
X0420401Y0216576D02*
D03*
X0423074Y0219249D02*
D03*
X0523434Y0221616D02*
D03*
X0526107Y0224288D02*
D03*
X0525914Y0216576D02*
D03*
X0528587Y0219249D02*
D03*
D125*
X0042677Y0276260D02*
D03*
X0046614D02*
D03*
X0101812Y0120905D02*
D03*
X0105749D02*
D03*
X0148190Y0276260D02*
D03*
X0152127D02*
D03*
X0207325Y0120905D02*
D03*
X0211262D02*
D03*
X0253704Y0276260D02*
D03*
X0257641D02*
D03*
X0312838Y0120905D02*
D03*
X0316775D02*
D03*
X0359217Y0276260D02*
D03*
X0363154D02*
D03*
X0418352Y0120905D02*
D03*
X0422289D02*
D03*
X0464730Y0276260D02*
D03*
X0468667D02*
D03*
X0523865Y0120905D02*
D03*
X0527802D02*
D03*
D126*
X0058032Y0281731D02*
D03*
X0163546D02*
D03*
X0269059D02*
D03*
X0374572D02*
D03*
X0480085D02*
D03*
D127*
X0056064Y0277806D02*
D03*
X0058032Y0277944D02*
D03*
X0060001Y0277806D02*
D03*
Y0285659D02*
D03*
X0058032Y0285521D02*
D03*
X0056064Y0285659D02*
D03*
X0161577Y0277806D02*
D03*
X0163546Y0277944D02*
D03*
X0165514Y0277806D02*
D03*
Y0285659D02*
D03*
X0163546Y0285521D02*
D03*
X0161577Y0285659D02*
D03*
X0267090Y0277806D02*
D03*
X0269059Y0277944D02*
D03*
X0271027Y0277806D02*
D03*
Y0285659D02*
D03*
X0269059Y0285521D02*
D03*
X0267090Y0285659D02*
D03*
X0372604Y0277806D02*
D03*
X0374572Y0277944D02*
D03*
X0376541Y0277806D02*
D03*
Y0285659D02*
D03*
X0374572Y0285521D02*
D03*
X0372604Y0285659D02*
D03*
X0478117Y0277806D02*
D03*
X0480085Y0277944D02*
D03*
X0482054Y0277806D02*
D03*
Y0285659D02*
D03*
X0480085Y0285521D02*
D03*
X0478117Y0285659D02*
D03*
D128*
X0061958Y0279763D02*
D03*
X0061820Y0281731D02*
D03*
X0061958Y0283700D02*
D03*
X0054107D02*
D03*
X0054245Y0281731D02*
D03*
X0054107Y0279763D02*
D03*
X0167471D02*
D03*
X0167333Y0281731D02*
D03*
X0167471Y0283700D02*
D03*
X0159620D02*
D03*
X0159758Y0281731D02*
D03*
X0159620Y0279763D02*
D03*
X0272984D02*
D03*
X0272846Y0281731D02*
D03*
X0272984Y0283700D02*
D03*
X0265134D02*
D03*
X0265271Y0281731D02*
D03*
X0265134Y0279763D02*
D03*
X0378497D02*
D03*
X0378360Y0281731D02*
D03*
X0378497Y0283700D02*
D03*
X0370647D02*
D03*
X0370785Y0281731D02*
D03*
X0370647Y0279763D02*
D03*
X0484011D02*
D03*
X0483873Y0281731D02*
D03*
X0484011Y0283700D02*
D03*
X0476160D02*
D03*
X0476298Y0281731D02*
D03*
X0476160Y0279763D02*
D03*
D129*
X0050482Y0259833D02*
D03*
X0047865Y0262450D02*
D03*
X0155995Y0259833D02*
D03*
X0153378Y0262450D02*
D03*
X0261508Y0259833D02*
D03*
X0258891Y0262450D02*
D03*
X0367021Y0259833D02*
D03*
X0364405Y0262450D02*
D03*
X0472535Y0259833D02*
D03*
X0469918Y0262450D02*
D03*
D130*
X0046378Y0251693D02*
D03*
X0046378Y0253858D02*
D03*
Y0256024D02*
D03*
X0042441Y0251693D02*
D03*
Y0253858D02*
D03*
X0042441Y0256024D02*
D03*
X0151891Y0251693D02*
D03*
X0151891Y0253858D02*
D03*
Y0256024D02*
D03*
X0147954Y0251693D02*
D03*
Y0253858D02*
D03*
X0147954Y0256024D02*
D03*
X0257404Y0251693D02*
D03*
X0257404Y0253858D02*
D03*
Y0256024D02*
D03*
X0253467Y0251693D02*
D03*
Y0253858D02*
D03*
X0253467Y0256024D02*
D03*
X0362918Y0251693D02*
D03*
X0362918Y0253858D02*
D03*
Y0256024D02*
D03*
X0358981Y0251693D02*
D03*
Y0253858D02*
D03*
X0358981Y0256024D02*
D03*
X0468431Y0251693D02*
D03*
X0468431Y0253858D02*
D03*
Y0256024D02*
D03*
X0464494Y0251693D02*
D03*
Y0253858D02*
D03*
X0464494Y0256024D02*
D03*
D131*
X0035080Y0319251D02*
D03*
X0042717D02*
D03*
X0038899Y0311613D02*
D03*
X0042678Y0297598D02*
D03*
X0035040D02*
D03*
X0038859Y0305235D02*
D03*
X0042442Y0054192D02*
D03*
X0034804D02*
D03*
X0038623Y0061830D02*
D03*
X0140593Y0319251D02*
D03*
X0148231D02*
D03*
X0144412Y0311613D02*
D03*
X0148191Y0297598D02*
D03*
X0140553D02*
D03*
X0144372Y0305235D02*
D03*
X0147955Y0054192D02*
D03*
X0140317D02*
D03*
X0144136Y0061830D02*
D03*
X0246106Y0319251D02*
D03*
X0253744D02*
D03*
X0249925Y0311613D02*
D03*
X0253705Y0297598D02*
D03*
X0246067D02*
D03*
X0249886Y0305235D02*
D03*
X0253468Y0054192D02*
D03*
X0245830D02*
D03*
X0249649Y0061830D02*
D03*
X0351619Y0319251D02*
D03*
X0359257D02*
D03*
X0355438Y0311613D02*
D03*
X0359218Y0297598D02*
D03*
X0351580D02*
D03*
X0355399Y0305235D02*
D03*
X0358981Y0054192D02*
D03*
X0351344D02*
D03*
X0355163Y0061830D02*
D03*
X0457132Y0319251D02*
D03*
X0464770D02*
D03*
X0460951Y0311613D02*
D03*
X0464731Y0297598D02*
D03*
X0457093D02*
D03*
X0460912Y0305235D02*
D03*
X0464495Y0054192D02*
D03*
X0456857D02*
D03*
X0460676Y0061830D02*
D03*
D132*
X0056379Y0067007D02*
D03*
X0161892D02*
D03*
X0267405D02*
D03*
X0372919D02*
D03*
X0478432D02*
D03*
D133*
X0041339Y0083424D02*
D03*
Y0069251D02*
D03*
X0146853Y0083424D02*
D03*
Y0069251D02*
D03*
X0252366Y0083424D02*
D03*
Y0069251D02*
D03*
X0357879Y0083424D02*
D03*
Y0069251D02*
D03*
X0463392Y0083424D02*
D03*
Y0069251D02*
D03*
D134*
X0053190Y0297873D02*
D03*
Y0299842D02*
D03*
Y0301810D02*
D03*
X0047678D02*
D03*
Y0299842D02*
D03*
Y0297873D02*
D03*
X0158703D02*
D03*
Y0299842D02*
D03*
Y0301810D02*
D03*
X0153191D02*
D03*
Y0299842D02*
D03*
Y0297873D02*
D03*
X0264216D02*
D03*
Y0299842D02*
D03*
Y0301810D02*
D03*
X0258704D02*
D03*
Y0299842D02*
D03*
Y0297873D02*
D03*
X0369730D02*
D03*
Y0299842D02*
D03*
Y0301810D02*
D03*
X0364218D02*
D03*
Y0299842D02*
D03*
Y0297873D02*
D03*
X0475243D02*
D03*
Y0299842D02*
D03*
Y0301810D02*
D03*
X0469731D02*
D03*
Y0299842D02*
D03*
Y0297873D02*
D03*
D135*
X0059869Y0215118D02*
D03*
X0054357D02*
D03*
X0165382D02*
D03*
X0159870D02*
D03*
X0270895D02*
D03*
X0265384D02*
D03*
X0376409D02*
D03*
X0370897D02*
D03*
X0481922D02*
D03*
X0476410D02*
D03*
D136*
X0043819Y0217343D02*
D03*
X0045787D02*
D03*
X0047756D02*
D03*
X0043819Y0222658D02*
D03*
X0045787D02*
D03*
X0047756D02*
D03*
X0149332Y0217343D02*
D03*
X0151301D02*
D03*
X0153269D02*
D03*
X0149332Y0222658D02*
D03*
X0151301D02*
D03*
X0153269D02*
D03*
X0254845Y0217343D02*
D03*
X0256814D02*
D03*
X0258782D02*
D03*
X0254845Y0222658D02*
D03*
X0256814D02*
D03*
X0258782D02*
D03*
X0360359Y0217343D02*
D03*
X0362327D02*
D03*
X0364296D02*
D03*
X0360359Y0222658D02*
D03*
X0362327D02*
D03*
X0364296D02*
D03*
X0465872Y0217343D02*
D03*
X0467840D02*
D03*
X0469809D02*
D03*
X0465872Y0222658D02*
D03*
X0467840D02*
D03*
X0469809D02*
D03*
D137*
X0099857Y0255772D02*
D03*
X0097074Y0258556D02*
D03*
X0205371Y0255772D02*
D03*
X0202587Y0258556D02*
D03*
X0310884Y0255772D02*
D03*
X0308100Y0258556D02*
D03*
X0416397Y0255772D02*
D03*
X0413613Y0258556D02*
D03*
X0521910Y0255772D02*
D03*
X0519126Y0258556D02*
D03*
D138*
X0101300Y0199881D02*
D03*
X0206813D02*
D03*
X0312327D02*
D03*
X0417840D02*
D03*
X0523353D02*
D03*
D139*
X0053504Y0192087D02*
D03*
Y0189921D02*
D03*
Y0187756D02*
D03*
X0051142D02*
D03*
Y0189921D02*
D03*
Y0192087D02*
D03*
X0159017D02*
D03*
Y0189921D02*
D03*
Y0187756D02*
D03*
X0156655D02*
D03*
Y0189921D02*
D03*
Y0192087D02*
D03*
X0264530D02*
D03*
Y0189921D02*
D03*
Y0187756D02*
D03*
X0262168D02*
D03*
Y0189921D02*
D03*
Y0192087D02*
D03*
X0370044D02*
D03*
Y0189921D02*
D03*
Y0187756D02*
D03*
X0367681D02*
D03*
Y0189921D02*
D03*
Y0192087D02*
D03*
X0475557D02*
D03*
Y0189921D02*
D03*
Y0187756D02*
D03*
X0473195D02*
D03*
Y0189921D02*
D03*
Y0192087D02*
D03*
D140*
X0074811Y0185701D02*
D03*
X0077317Y0183195D02*
D03*
X0180324Y0185701D02*
D03*
X0182830Y0183195D02*
D03*
X0285838Y0185701D02*
D03*
X0288343Y0183195D02*
D03*
X0391351Y0185701D02*
D03*
X0393856Y0183195D02*
D03*
X0496864Y0185701D02*
D03*
X0499369Y0183195D02*
D03*
D141*
X0087520Y0136063D02*
D03*
Y0129764D02*
D03*
X0193033Y0136063D02*
D03*
Y0129764D02*
D03*
X0298546Y0136063D02*
D03*
Y0129764D02*
D03*
X0404059Y0136063D02*
D03*
Y0129764D02*
D03*
X0509573Y0136063D02*
D03*
Y0129764D02*
D03*
D142*
X0086930Y0123542D02*
D03*
X0081024D02*
D03*
X0192443D02*
D03*
X0186538D02*
D03*
X0297956D02*
D03*
X0292051D02*
D03*
X0403470D02*
D03*
X0397564D02*
D03*
X0508983D02*
D03*
X0503077D02*
D03*
D143*
X0077302Y0195131D02*
D03*
X0182815D02*
D03*
X0288328D02*
D03*
X0393842D02*
D03*
X0499355D02*
D03*
M02*
