G04*
G04 #@! TF.GenerationSoftware,Altium Limited,Altium Designer,19.1.8 (144)*
G04*
G04 Layer_Color=8421504*
%FSAX25Y25*%
%MOIN*%
G70*
G01*
G75*
%ADD11R,0.07874X0.05906*%
G36*
X0441582Y0074129D02*
X0443359Y0073617D01*
X0445064Y0072900D01*
X0446673Y0071989D01*
X0448165Y0070896D01*
X0449518Y0069636D01*
X0450715Y0068226D01*
X0451739Y0066686D01*
X0452575Y0065036D01*
X0453212Y0063300D01*
X0453642Y0061502D01*
X0453859Y0059665D01*
Y0058740D01*
X0453859Y0057816D01*
X0453642Y0055979D01*
X0453212Y0054180D01*
X0452575Y0052444D01*
X0451739Y0050795D01*
X0450715Y0049255D01*
X0449518Y0047845D01*
X0448165Y0046584D01*
X0446673Y0045491D01*
X0445064Y0044580D01*
X0443359Y0043864D01*
X0441582Y0043352D01*
X0440669Y0043202D01*
X0440669Y0043202D01*
Y0074279D01*
X0441582Y0074129D01*
D02*
G37*
G36*
X0357724D02*
X0359501Y0073617D01*
X0361206Y0072900D01*
X0362815Y0071989D01*
X0364307Y0070896D01*
X0365660Y0069636D01*
X0366857Y0068226D01*
X0367880Y0066686D01*
X0368717Y0065036D01*
X0369354Y0063300D01*
X0369784Y0061502D01*
X0370000Y0059665D01*
Y0058740D01*
X0370000Y0057816D01*
X0369784Y0055979D01*
X0369354Y0054180D01*
X0368717Y0052444D01*
X0367880Y0050795D01*
X0366857Y0049255D01*
X0365660Y0047845D01*
X0364307Y0046584D01*
X0362815Y0045491D01*
X0361206Y0044580D01*
X0359501Y0043864D01*
X0357724Y0043352D01*
X0356811Y0043202D01*
X0356811Y0043202D01*
Y0074279D01*
X0357724Y0074129D01*
D02*
G37*
G36*
X0273865D02*
X0275642Y0073617D01*
X0277347Y0072900D01*
X0278957Y0071989D01*
X0280448Y0070896D01*
X0281802Y0069636D01*
X0282999Y0068226D01*
X0284022Y0066686D01*
X0284858Y0065036D01*
X0285496Y0063300D01*
X0285926Y0061502D01*
X0286142Y0059665D01*
Y0058740D01*
X0286142Y0057816D01*
X0285926Y0055979D01*
X0285496Y0054180D01*
X0284858Y0052444D01*
X0284022Y0050795D01*
X0282999Y0049255D01*
X0281802Y0047845D01*
X0280448Y0046584D01*
X0278957Y0045491D01*
X0277347Y0044580D01*
X0275642Y0043864D01*
X0273865Y0043352D01*
X0272953Y0043202D01*
X0272953Y0043202D01*
Y0074279D01*
X0273865Y0074129D01*
D02*
G37*
G36*
X0190007D02*
X0191784Y0073617D01*
X0193489Y0072900D01*
X0195098Y0071989D01*
X0196590Y0070896D01*
X0197943Y0069636D01*
X0199140Y0068226D01*
X0200164Y0066686D01*
X0201000Y0065036D01*
X0201637Y0063300D01*
X0202067Y0061502D01*
X0202284Y0059665D01*
Y0058740D01*
X0202284Y0057816D01*
X0202067Y0055979D01*
X0201637Y0054180D01*
X0201000Y0052444D01*
X0200164Y0050795D01*
X0199140Y0049255D01*
X0197944Y0047845D01*
X0196590Y0046584D01*
X0195098Y0045491D01*
X0193489Y0044580D01*
X0191784Y0043864D01*
X0190007Y0043352D01*
X0189095Y0043202D01*
X0189095Y0043202D01*
Y0074279D01*
X0190007Y0074129D01*
D02*
G37*
G36*
X0106149D02*
X0107926Y0073617D01*
X0109631Y0072900D01*
X0111240Y0071989D01*
X0112732Y0070896D01*
X0114085Y0069636D01*
X0115282Y0068226D01*
X0116305Y0066686D01*
X0117142Y0065036D01*
X0117779Y0063300D01*
X0118209Y0061502D01*
X0118425Y0059665D01*
Y0058740D01*
X0118425Y0057816D01*
X0118209Y0055979D01*
X0117779Y0054180D01*
X0117142Y0052444D01*
X0116305Y0050795D01*
X0115282Y0049255D01*
X0114085Y0047845D01*
X0112732Y0046584D01*
X0111240Y0045491D01*
X0109631Y0044580D01*
X0107926Y0043864D01*
X0106149Y0043352D01*
X0105236Y0043202D01*
X0105236Y0043202D01*
Y0074279D01*
X0106149Y0074129D01*
D02*
G37*
G36*
X0435551Y0043201D02*
X0434639Y0043352D01*
X0432862Y0043864D01*
X0431157Y0044580D01*
X0429548Y0045491D01*
X0428056Y0046584D01*
X0426702Y0047844D01*
X0425506Y0049254D01*
X0424482Y0050795D01*
X0423646Y0052444D01*
X0423009Y0054180D01*
X0422579Y0055979D01*
X0422362Y0057815D01*
Y0058740D01*
Y0058740D01*
X0422362Y0059665D01*
X0422579Y0061501D01*
X0423009Y0063300D01*
X0423646Y0065036D01*
X0424482Y0066686D01*
X0425506Y0068226D01*
X0426702Y0069636D01*
X0428056Y0070896D01*
X0429548Y0071989D01*
X0431157Y0072900D01*
X0432862Y0073617D01*
X0434639Y0074129D01*
X0435551Y0074279D01*
X0435551Y0074279D01*
X0435551Y0043201D01*
D02*
G37*
G36*
X0351693D02*
X0350781Y0043352D01*
X0349004Y0043864D01*
X0347299Y0044580D01*
X0345689Y0045491D01*
X0344198Y0046584D01*
X0342844Y0047844D01*
X0341648Y0049254D01*
X0340624Y0050795D01*
X0339788Y0052444D01*
X0339150Y0054180D01*
X0338720Y0055979D01*
X0338504Y0057815D01*
Y0058740D01*
Y0058740D01*
X0338504Y0059665D01*
X0338720Y0061501D01*
X0339150Y0063300D01*
X0339788Y0065036D01*
X0340624Y0066686D01*
X0341647Y0068226D01*
X0342844Y0069636D01*
X0344198Y0070896D01*
X0345689Y0071989D01*
X0347299Y0072900D01*
X0349004Y0073617D01*
X0350781Y0074129D01*
X0351693Y0074279D01*
X0351693Y0074279D01*
X0351693Y0043201D01*
D02*
G37*
G36*
X0267835D02*
X0266922Y0043352D01*
X0265145Y0043864D01*
X0263440Y0044580D01*
X0261831Y0045491D01*
X0260339Y0046584D01*
X0258986Y0047844D01*
X0257789Y0049254D01*
X0256766Y0050795D01*
X0255929Y0052444D01*
X0255292Y0054180D01*
X0254862Y0055979D01*
X0254646Y0057815D01*
Y0058740D01*
Y0058740D01*
X0254646Y0059665D01*
X0254862Y0061501D01*
X0255292Y0063300D01*
X0255929Y0065036D01*
X0256766Y0066686D01*
X0257789Y0068226D01*
X0258986Y0069636D01*
X0260339Y0070896D01*
X0261831Y0071989D01*
X0263440Y0072900D01*
X0265145Y0073617D01*
X0266922Y0074129D01*
X0267835Y0074279D01*
X0267835Y0074279D01*
X0267835Y0043201D01*
D02*
G37*
G36*
X0183976D02*
X0183064Y0043352D01*
X0181287Y0043864D01*
X0179582Y0044580D01*
X0177973Y0045491D01*
X0176481Y0046584D01*
X0175128Y0047844D01*
X0173931Y0049254D01*
X0172907Y0050795D01*
X0172071Y0052444D01*
X0171434Y0054180D01*
X0171004Y0055979D01*
X0170787Y0057815D01*
Y0058740D01*
Y0058740D01*
X0170787Y0059665D01*
X0171004Y0061501D01*
X0171434Y0063300D01*
X0172071Y0065036D01*
X0172907Y0066686D01*
X0173931Y0068226D01*
X0175128Y0069636D01*
X0176481Y0070896D01*
X0177973Y0071989D01*
X0179582Y0072900D01*
X0181287Y0073617D01*
X0183064Y0074129D01*
X0183976Y0074279D01*
X0183976Y0074279D01*
X0183976Y0043201D01*
D02*
G37*
G36*
X0100118D02*
X0099206Y0043352D01*
X0097429Y0043864D01*
X0095724Y0044580D01*
X0094115Y0045491D01*
X0092623Y0046584D01*
X0091269Y0047844D01*
X0090073Y0049254D01*
X0089049Y0050795D01*
X0088213Y0052444D01*
X0087575Y0054180D01*
X0087146Y0055979D01*
X0086929Y0057815D01*
Y0058740D01*
Y0058740D01*
X0086929Y0059665D01*
X0087146Y0061501D01*
X0087575Y0063300D01*
X0088213Y0065036D01*
X0089049Y0066686D01*
X0090073Y0068226D01*
X0091269Y0069636D01*
X0092623Y0070896D01*
X0094115Y0071989D01*
X0095724Y0072900D01*
X0097429Y0073617D01*
X0099206Y0074129D01*
X0100118Y0074279D01*
X0100118Y0074279D01*
X0100118Y0043201D01*
D02*
G37*
G36*
X0398393Y0073263D02*
X0400170Y0072751D01*
X0401875Y0072034D01*
X0403484Y0071123D01*
X0404976Y0070030D01*
X0406329Y0068770D01*
X0407526Y0067360D01*
X0408550Y0065820D01*
X0409386Y0064170D01*
X0410023Y0062434D01*
X0410453Y0060636D01*
X0410670Y0058799D01*
Y0057874D01*
X0410670Y0056950D01*
X0410453Y0055113D01*
X0410023Y0053314D01*
X0409386Y0051578D01*
X0408550Y0049929D01*
X0407526Y0048388D01*
X0406329Y0046978D01*
X0404976Y0045718D01*
X0403484Y0044625D01*
X0401875Y0043714D01*
X0400170Y0042998D01*
X0398393Y0042486D01*
X0397481Y0042335D01*
X0397481Y0042335D01*
Y0073413D01*
X0398393Y0073263D01*
D02*
G37*
G36*
X0314535D02*
X0316312Y0072751D01*
X0318017Y0072034D01*
X0319626Y0071123D01*
X0321118Y0070030D01*
X0322471Y0068770D01*
X0323668Y0067360D01*
X0324691Y0065820D01*
X0325528Y0064170D01*
X0326165Y0062434D01*
X0326595Y0060636D01*
X0326811Y0058799D01*
Y0057874D01*
X0326811Y0056950D01*
X0326595Y0055113D01*
X0326165Y0053314D01*
X0325528Y0051578D01*
X0324691Y0049929D01*
X0323668Y0048388D01*
X0322471Y0046978D01*
X0321118Y0045718D01*
X0319626Y0044625D01*
X0318017Y0043714D01*
X0316312Y0042998D01*
X0314535Y0042486D01*
X0313622Y0042335D01*
X0313622Y0042335D01*
Y0073413D01*
X0314535Y0073263D01*
D02*
G37*
G36*
X0230676D02*
X0232453Y0072751D01*
X0234158Y0072034D01*
X0235768Y0071123D01*
X0237259Y0070030D01*
X0238613Y0068770D01*
X0239810Y0067360D01*
X0240833Y0065820D01*
X0241669Y0064170D01*
X0242307Y0062434D01*
X0242737Y0060636D01*
X0242953Y0058799D01*
Y0057874D01*
X0242953Y0056950D01*
X0242737Y0055113D01*
X0242307Y0053314D01*
X0241669Y0051578D01*
X0240833Y0049929D01*
X0239810Y0048388D01*
X0238613Y0046978D01*
X0237259Y0045718D01*
X0235768Y0044625D01*
X0234158Y0043714D01*
X0232453Y0042998D01*
X0230676Y0042486D01*
X0229764Y0042335D01*
X0229764Y0042335D01*
Y0073413D01*
X0230676Y0073263D01*
D02*
G37*
G36*
X0146818D02*
X0148595Y0072751D01*
X0150300Y0072034D01*
X0151909Y0071123D01*
X0153401Y0070030D01*
X0154754Y0068770D01*
X0155951Y0067360D01*
X0156975Y0065820D01*
X0157811Y0064170D01*
X0158448Y0062434D01*
X0158878Y0060636D01*
X0159095Y0058799D01*
Y0057874D01*
X0159095Y0056950D01*
X0158878Y0055113D01*
X0158449Y0053314D01*
X0157811Y0051578D01*
X0156975Y0049929D01*
X0155951Y0048388D01*
X0154755Y0046978D01*
X0153401Y0045718D01*
X0151909Y0044625D01*
X0150300Y0043714D01*
X0148595Y0042998D01*
X0146818Y0042486D01*
X0145906Y0042335D01*
X0145906Y0042335D01*
Y0073413D01*
X0146818Y0073263D01*
D02*
G37*
G36*
X0062960D02*
X0064737Y0072751D01*
X0066442Y0072034D01*
X0068051Y0071123D01*
X0069543Y0070030D01*
X0070896Y0068770D01*
X0072093Y0067360D01*
X0073116Y0065820D01*
X0073953Y0064170D01*
X0074590Y0062434D01*
X0075020Y0060636D01*
X0075236Y0058799D01*
Y0057874D01*
X0075236Y0056950D01*
X0075020Y0055113D01*
X0074590Y0053314D01*
X0073953Y0051578D01*
X0073116Y0049929D01*
X0072093Y0048388D01*
X0070896Y0046978D01*
X0069543Y0045718D01*
X0068051Y0044625D01*
X0066442Y0043714D01*
X0064737Y0042998D01*
X0062960Y0042486D01*
X0062047Y0042335D01*
X0062047Y0042335D01*
Y0073413D01*
X0062960Y0073263D01*
D02*
G37*
G36*
X0392362Y0042335D02*
X0391450Y0042486D01*
X0389673Y0042998D01*
X0387968Y0043714D01*
X0386359Y0044625D01*
X0384867Y0045718D01*
X0383513Y0046978D01*
X0382317Y0048388D01*
X0381293Y0049929D01*
X0380457Y0051578D01*
X0379820Y0053314D01*
X0379390Y0055113D01*
X0379173Y0056949D01*
Y0057874D01*
Y0057874D01*
X0379173Y0058799D01*
X0379390Y0060635D01*
X0379820Y0062434D01*
X0380457Y0064170D01*
X0381293Y0065819D01*
X0382317Y0067360D01*
X0383513Y0068770D01*
X0384867Y0070030D01*
X0386359Y0071123D01*
X0387968Y0072034D01*
X0389673Y0072751D01*
X0391450Y0073263D01*
X0392362Y0073413D01*
X0392362Y0073413D01*
X0392362Y0042335D01*
D02*
G37*
G36*
X0308504D02*
X0307592Y0042486D01*
X0305815Y0042998D01*
X0304110Y0043714D01*
X0302500Y0044625D01*
X0301009Y0045718D01*
X0299655Y0046978D01*
X0298459Y0048388D01*
X0297435Y0049929D01*
X0296599Y0051578D01*
X0295961Y0053314D01*
X0295532Y0055113D01*
X0295315Y0056949D01*
Y0057874D01*
Y0057874D01*
X0295315Y0058799D01*
X0295532Y0060635D01*
X0295961Y0062434D01*
X0296599Y0064170D01*
X0297435Y0065819D01*
X0298459Y0067360D01*
X0299655Y0068770D01*
X0301009Y0070030D01*
X0302500Y0071123D01*
X0304110Y0072034D01*
X0305815Y0072751D01*
X0307592Y0073263D01*
X0308504Y0073413D01*
X0308504Y0073413D01*
X0308504Y0042335D01*
D02*
G37*
G36*
X0224646D02*
X0223733Y0042486D01*
X0221956Y0042998D01*
X0220251Y0043714D01*
X0218642Y0044625D01*
X0217150Y0045718D01*
X0215797Y0046978D01*
X0214600Y0048388D01*
X0213577Y0049929D01*
X0212740Y0051578D01*
X0212103Y0053314D01*
X0211673Y0055113D01*
X0211457Y0056949D01*
Y0057874D01*
Y0057874D01*
X0211457Y0058799D01*
X0211673Y0060635D01*
X0212103Y0062434D01*
X0212740Y0064170D01*
X0213577Y0065819D01*
X0214600Y0067360D01*
X0215797Y0068770D01*
X0217150Y0070030D01*
X0218642Y0071123D01*
X0220251Y0072034D01*
X0221956Y0072751D01*
X0223733Y0073263D01*
X0224646Y0073413D01*
X0224646Y0073413D01*
X0224646Y0042335D01*
D02*
G37*
G36*
X0140787D02*
X0139875Y0042486D01*
X0138098Y0042998D01*
X0136393Y0043714D01*
X0134784Y0044625D01*
X0133292Y0045718D01*
X0131939Y0046978D01*
X0130742Y0048388D01*
X0129718Y0049929D01*
X0128882Y0051578D01*
X0128245Y0053314D01*
X0127815Y0055113D01*
X0127598Y0056949D01*
Y0057874D01*
Y0057874D01*
X0127598Y0058799D01*
X0127815Y0060635D01*
X0128245Y0062434D01*
X0128882Y0064170D01*
X0129718Y0065819D01*
X0130742Y0067360D01*
X0131939Y0068770D01*
X0133292Y0070030D01*
X0134784Y0071123D01*
X0136393Y0072034D01*
X0138098Y0072751D01*
X0139875Y0073263D01*
X0140787Y0073413D01*
X0140787Y0073413D01*
X0140787Y0042335D01*
D02*
G37*
G36*
X0056929D02*
X0056017Y0042486D01*
X0054240Y0042998D01*
X0052535Y0043714D01*
X0050925Y0044625D01*
X0049434Y0045718D01*
X0048080Y0046978D01*
X0046884Y0048388D01*
X0045860Y0049929D01*
X0045024Y0051578D01*
X0044387Y0053314D01*
X0043957Y0055113D01*
X0043740Y0056949D01*
Y0057874D01*
Y0057874D01*
X0043740Y0058799D01*
X0043957Y0060635D01*
X0044386Y0062434D01*
X0045024Y0064170D01*
X0045860Y0065819D01*
X0046884Y0067360D01*
X0048080Y0068770D01*
X0049434Y0070030D01*
X0050925Y0071123D01*
X0052535Y0072034D01*
X0054240Y0072751D01*
X0056017Y0073263D01*
X0056929Y0073413D01*
X0056929Y0073413D01*
X0056929Y0042335D01*
D02*
G37*
D11*
X0117492Y0158957D02*
D03*
Y0151083D02*
D03*
Y0143209D02*
D03*
Y0127461D02*
D03*
Y0135335D02*
D03*
X0117559Y0281496D02*
D03*
Y0265748D02*
D03*
Y0273622D02*
D03*
Y0289370D02*
D03*
Y0297244D02*
D03*
Y0305118D02*
D03*
X0201350Y0158957D02*
D03*
Y0151083D02*
D03*
Y0143209D02*
D03*
Y0127461D02*
D03*
Y0135335D02*
D03*
X0201417Y0281496D02*
D03*
Y0265748D02*
D03*
Y0273622D02*
D03*
Y0289370D02*
D03*
Y0297244D02*
D03*
Y0305118D02*
D03*
X0285208Y0158957D02*
D03*
Y0151083D02*
D03*
Y0143209D02*
D03*
Y0127461D02*
D03*
Y0135335D02*
D03*
X0285276Y0281496D02*
D03*
Y0265748D02*
D03*
Y0273622D02*
D03*
Y0289370D02*
D03*
Y0297244D02*
D03*
Y0305118D02*
D03*
X0369067Y0158957D02*
D03*
Y0151083D02*
D03*
Y0143209D02*
D03*
Y0127461D02*
D03*
Y0135335D02*
D03*
X0369134Y0281496D02*
D03*
Y0265748D02*
D03*
Y0273622D02*
D03*
Y0289370D02*
D03*
Y0297244D02*
D03*
Y0305118D02*
D03*
X0452925Y0158957D02*
D03*
Y0151083D02*
D03*
Y0143209D02*
D03*
Y0127461D02*
D03*
Y0135335D02*
D03*
X0452992Y0281496D02*
D03*
Y0265748D02*
D03*
Y0273622D02*
D03*
Y0289370D02*
D03*
Y0297244D02*
D03*
Y0305118D02*
D03*
M02*
