G04*
G04 #@! TF.GenerationSoftware,Altium Limited,Altium Designer,19.1.8 (144)*
G04*
G04 Layer_Color=16711935*
%FSAX25Y25*%
%MOIN*%
G70*
G01*
G75*
%ADD19C,0.03937*%
%ADD28R,0.01968X0.02362*%
%ADD32R,0.02362X0.01968*%
%ADD78C,0.04737*%
%ADD80R,0.01784X0.01883*%
%ADD81R,0.01883X0.01784*%
%ADD82R,0.01194X0.01194*%
%ADD83R,0.03950X0.03950*%
%ADD84R,0.03320X0.03162*%
%ADD85R,0.05918X0.07887*%
%ADD86R,0.03044X0.03241*%
%ADD87R,0.05918X0.04343*%
%ADD88R,0.02769X0.03162*%
%ADD89R,0.16548X0.14580*%
%ADD90R,0.07414X0.06784*%
%ADD91R,0.04737X0.04737*%
%ADD92R,0.03162X0.02769*%
%ADD93R,0.06902X0.09068*%
%ADD94R,0.04540X0.02690*%
%ADD95C,0.01378*%
G04:AMPARAMS|DCode=96|XSize=47.37mil|YSize=31.62mil|CornerRadius=0mil|HoleSize=0mil|Usage=FLASHONLY|Rotation=315.000|XOffset=0mil|YOffset=0mil|HoleType=Round|Shape=Rectangle|*
%AMROTATEDRECTD96*
4,1,4,-0.02793,0.00557,-0.00557,0.02793,0.02793,-0.00557,0.00557,-0.02793,-0.02793,0.00557,0.0*
%
%ADD96ROTATEDRECTD96*%

%ADD97R,0.03162X0.03320*%
%ADD98R,0.03950X0.03950*%
G04:AMPARAMS|DCode=99|XSize=27.69mil|YSize=74.93mil|CornerRadius=0mil|HoleSize=0mil|Usage=FLASHONLY|Rotation=45.000|XOffset=0mil|YOffset=0mil|HoleType=Round|Shape=Rectangle|*
%AMROTATEDRECTD99*
4,1,4,0.01670,-0.03628,-0.03628,0.01670,-0.01670,0.03628,0.03628,-0.01670,0.01670,-0.03628,0.0*
%
%ADD99ROTATEDRECTD99*%

G04:AMPARAMS|DCode=100|XSize=27.69mil|YSize=74.93mil|CornerRadius=0mil|HoleSize=0mil|Usage=FLASHONLY|Rotation=135.000|XOffset=0mil|YOffset=0mil|HoleType=Round|Shape=Rectangle|*
%AMROTATEDRECTD100*
4,1,4,0.03628,0.01670,-0.01670,-0.03628,-0.03628,-0.01670,0.01670,0.03628,0.03628,0.01670,0.0*
%
%ADD100ROTATEDRECTD100*%

G04:AMPARAMS|DCode=101|XSize=67.06mil|YSize=67.06mil|CornerRadius=9.91mil|HoleSize=0mil|Usage=FLASHONLY|Rotation=135.000|XOffset=0mil|YOffset=0mil|HoleType=Round|Shape=RoundedRectangle|*
%AMROUNDEDRECTD101*
21,1,0.06706,0.04724,0,0,135.0*
21,1,0.04724,0.06706,0,0,135.0*
1,1,0.01981,0.00000,0.03341*
1,1,0.01981,0.03341,0.00000*
1,1,0.01981,0.00000,-0.03341*
1,1,0.01981,-0.03341,0.00000*
%
%ADD101ROUNDEDRECTD101*%
%ADD102P,0.09483X4X180.0*%
%ADD103R,0.01968X0.01575*%
%ADD104C,0.01417*%
%ADD105R,0.04528X0.04528*%
%ADD106R,0.01772X0.02461*%
%ADD107R,0.02461X0.01772*%
G04:AMPARAMS|DCode=108|XSize=32.41mil|YSize=30.44mil|CornerRadius=0mil|HoleSize=0mil|Usage=FLASHONLY|Rotation=225.000|XOffset=0mil|YOffset=0mil|HoleType=Round|Shape=Rectangle|*
%AMROTATEDRECTD108*
4,1,4,0.00070,0.02222,0.02222,0.00070,-0.00070,-0.02222,-0.02222,-0.00070,0.00070,0.02222,0.0*
%
%ADD108ROTATEDRECTD108*%

%ADD109R,0.02769X0.01981*%
%ADD110R,0.06706X0.07099*%
G04:AMPARAMS|DCode=111|XSize=17.84mil|YSize=41.47mil|CornerRadius=6.46mil|HoleSize=0mil|Usage=FLASHONLY|Rotation=180.000|XOffset=0mil|YOffset=0mil|HoleType=Round|Shape=RoundedRectangle|*
%AMROUNDEDRECTD111*
21,1,0.01784,0.02854,0,0,180.0*
21,1,0.00492,0.04147,0,0,180.0*
1,1,0.01292,-0.00246,0.01427*
1,1,0.01292,0.00246,0.01427*
1,1,0.01292,0.00246,-0.01427*
1,1,0.01292,-0.00246,-0.01427*
%
%ADD111ROUNDEDRECTD111*%
%ADD112R,0.06706X0.19304*%
%ADD113R,0.01772X0.03740*%
%ADD114R,0.01575X0.01968*%
%ADD115R,0.03162X0.05131*%
%ADD116R,0.01981X0.02572*%
%ADD117R,0.02690X0.04540*%
%ADD118R,0.02769X0.02769*%
%ADD119R,0.01575X0.03150*%
%ADD120R,0.01575X0.01575*%
%ADD121R,0.03044X0.04737*%
%ADD122R,0.03162X0.04737*%
%ADD123R,0.02178X0.02769*%
%ADD124R,0.07493X0.03556*%
%ADD125C,0.01260*%
%ADD126R,0.04343X0.05918*%
%ADD127C,0.08674*%
G36*
X0433088Y0300419D02*
X0433113Y0300417D01*
X0433113Y0300417D01*
X0433113D01*
X0433139Y0300412D01*
X0433165Y0300407D01*
X0433165Y0300407D01*
X0433165Y0300407D01*
X0433193Y0300397D01*
X0433214Y0300390D01*
X0433215Y0300390D01*
X0433215Y0300390D01*
X0433244Y0300376D01*
X0433261Y0300367D01*
X0433261Y0300367D01*
X0433261Y0300367D01*
X0433279Y0300355D01*
X0433305Y0300338D01*
X0433305Y0300338D01*
X0433305Y0300338D01*
X0433317Y0300328D01*
X0433345Y0300303D01*
X0433345Y0300303D01*
X0433345Y0300303D01*
X0433689Y0299959D01*
X0433689Y0299959D01*
X0433689Y0299959D01*
X0433724Y0299919D01*
X0433743Y0299890D01*
X0433753Y0299876D01*
X0433753Y0299876D01*
D01*
X0433754Y0299874D01*
X0433776Y0299829D01*
X0433777Y0299826D01*
X0433793Y0299779D01*
X0433799Y0299748D01*
X0433803Y0299728D01*
X0433807Y0299675D01*
Y0299675D01*
Y0299675D01*
X0433807Y0299036D01*
X0433803Y0298983D01*
X0433799Y0298963D01*
X0433793Y0298932D01*
X0433776Y0298882D01*
X0433753Y0298835D01*
D01*
X0433753Y0298835D01*
X0433743Y0298820D01*
X0433724Y0298792D01*
X0433689Y0298752D01*
X0433689Y0298752D01*
X0433689Y0298752D01*
X0433650Y0298717D01*
X0433621Y0298698D01*
X0433606Y0298688D01*
X0433606Y0298688D01*
D01*
X0433559Y0298665D01*
X0433509Y0298648D01*
X0433478Y0298642D01*
X0433458Y0298638D01*
X0433406Y0298635D01*
X0432323D01*
X0432271Y0298638D01*
X0432219Y0298648D01*
X0432170Y0298665D01*
X0432123Y0298688D01*
X0432079Y0298717D01*
X0432040Y0298752D01*
X0432005Y0298792D01*
X0431976Y0298835D01*
X0431953Y0298882D01*
X0431936Y0298932D01*
X0431926Y0298983D01*
X0431922Y0299036D01*
Y0300020D01*
X0431924Y0300047D01*
X0431926Y0300072D01*
X0431926Y0300072D01*
Y0300072D01*
X0431931Y0300097D01*
X0431936Y0300123D01*
X0431936Y0300124D01*
X0431936Y0300124D01*
X0431942Y0300142D01*
X0431953Y0300173D01*
X0431953Y0300173D01*
X0431953Y0300173D01*
X0431963Y0300194D01*
X0431976Y0300220D01*
X0431976Y0300220D01*
X0431976Y0300220D01*
X0431988Y0300238D01*
X0432005Y0300264D01*
X0432005Y0300264D01*
X0432005Y0300264D01*
X0432015Y0300275D01*
X0432040Y0300303D01*
X0432040Y0300303D01*
X0432040Y0300303D01*
X0432067Y0300327D01*
X0432079Y0300338D01*
X0432079Y0300338D01*
X0432079Y0300338D01*
X0432105Y0300355D01*
X0432123Y0300367D01*
X0432123Y0300367D01*
X0432123Y0300367D01*
X0432148Y0300379D01*
X0432170Y0300390D01*
X0432170Y0300390D01*
X0432170Y0300390D01*
X0432201Y0300401D01*
X0432219Y0300407D01*
X0432219Y0300407D01*
X0432219Y0300407D01*
X0432245Y0300412D01*
X0432271Y0300417D01*
X0432271D01*
X0432271Y0300417D01*
X0432296Y0300419D01*
X0432323Y0300421D01*
X0433061Y0300421D01*
X0433061D01*
X0433061D01*
X0433088Y0300419D01*
D02*
G37*
G36*
X0349230D02*
X0349255Y0300417D01*
X0349255Y0300417D01*
X0349255D01*
X0349280Y0300412D01*
X0349307Y0300407D01*
X0349307Y0300407D01*
X0349307Y0300407D01*
X0349335Y0300397D01*
X0349356Y0300390D01*
X0349356Y0300390D01*
X0349356Y0300390D01*
X0349386Y0300376D01*
X0349403Y0300367D01*
X0349403Y0300367D01*
X0349403Y0300367D01*
X0349421Y0300355D01*
X0349447Y0300338D01*
X0349447Y0300338D01*
X0349447Y0300338D01*
X0349459Y0300328D01*
X0349486Y0300303D01*
X0349486Y0300303D01*
X0349486Y0300303D01*
X0349831Y0299959D01*
X0349831Y0299959D01*
X0349831Y0299959D01*
X0349866Y0299919D01*
X0349885Y0299890D01*
X0349895Y0299876D01*
X0349895Y0299876D01*
D01*
X0349895Y0299874D01*
X0349918Y0299829D01*
X0349919Y0299826D01*
X0349935Y0299779D01*
X0349941Y0299748D01*
X0349945Y0299728D01*
X0349948Y0299675D01*
Y0299675D01*
Y0299675D01*
X0349948Y0299036D01*
X0349945Y0298983D01*
X0349941Y0298963D01*
X0349935Y0298932D01*
X0349918Y0298882D01*
X0349895Y0298835D01*
D01*
X0349895Y0298835D01*
X0349885Y0298820D01*
X0349866Y0298792D01*
X0349831Y0298752D01*
X0349831Y0298752D01*
X0349831Y0298752D01*
X0349792Y0298717D01*
X0349763Y0298698D01*
X0349748Y0298688D01*
X0349748Y0298688D01*
D01*
X0349701Y0298665D01*
X0349651Y0298648D01*
X0349620Y0298642D01*
X0349600Y0298638D01*
X0349547Y0298635D01*
X0348465D01*
X0348412Y0298638D01*
X0348361Y0298648D01*
X0348311Y0298665D01*
X0348264Y0298688D01*
X0348221Y0298717D01*
X0348181Y0298752D01*
X0348147Y0298792D01*
X0348118Y0298835D01*
X0348094Y0298882D01*
X0348078Y0298932D01*
X0348067Y0298983D01*
X0348064Y0299036D01*
Y0300020D01*
X0348066Y0300047D01*
X0348067Y0300072D01*
X0348067Y0300072D01*
Y0300072D01*
X0348072Y0300097D01*
X0348078Y0300123D01*
X0348078Y0300124D01*
X0348078Y0300124D01*
X0348084Y0300142D01*
X0348094Y0300173D01*
X0348094Y0300173D01*
X0348094Y0300173D01*
X0348105Y0300194D01*
X0348118Y0300220D01*
X0348118Y0300220D01*
X0348118Y0300220D01*
X0348129Y0300238D01*
X0348147Y0300264D01*
X0348147Y0300264D01*
X0348147Y0300264D01*
X0348157Y0300275D01*
X0348181Y0300303D01*
X0348181Y0300303D01*
X0348181Y0300303D01*
X0348209Y0300327D01*
X0348221Y0300338D01*
X0348221Y0300338D01*
X0348221Y0300338D01*
X0348247Y0300355D01*
X0348264Y0300367D01*
X0348264Y0300367D01*
X0348264Y0300367D01*
X0348290Y0300379D01*
X0348311Y0300390D01*
X0348311Y0300390D01*
X0348311Y0300390D01*
X0348342Y0300401D01*
X0348361Y0300407D01*
X0348361Y0300407D01*
X0348361Y0300407D01*
X0348387Y0300412D01*
X0348412Y0300417D01*
X0348412D01*
X0348412Y0300417D01*
X0348437Y0300419D01*
X0348465Y0300421D01*
X0349203Y0300421D01*
X0349203D01*
X0349203D01*
X0349230Y0300419D01*
D02*
G37*
G36*
X0265372D02*
X0265397Y0300417D01*
X0265397Y0300417D01*
X0265397D01*
X0265422Y0300412D01*
X0265448Y0300407D01*
X0265448Y0300407D01*
X0265448Y0300407D01*
X0265476Y0300397D01*
X0265498Y0300390D01*
X0265498Y0300390D01*
X0265498Y0300390D01*
X0265528Y0300376D01*
X0265545Y0300367D01*
X0265545Y0300367D01*
X0265545Y0300367D01*
X0265563Y0300355D01*
X0265588Y0300338D01*
X0265588Y0300338D01*
X0265588Y0300338D01*
X0265600Y0300328D01*
X0265628Y0300303D01*
X0265628Y0300303D01*
X0265628Y0300303D01*
X0265973Y0299959D01*
X0265973Y0299959D01*
X0265973Y0299959D01*
X0266007Y0299919D01*
X0266027Y0299890D01*
X0266036Y0299876D01*
X0266036Y0299876D01*
D01*
X0266037Y0299874D01*
X0266059Y0299829D01*
X0266060Y0299826D01*
X0266076Y0299779D01*
X0266083Y0299748D01*
X0266087Y0299728D01*
X0266090Y0299675D01*
Y0299675D01*
Y0299675D01*
X0266090Y0299036D01*
X0266087Y0298983D01*
X0266083Y0298963D01*
X0266076Y0298932D01*
X0266059Y0298882D01*
X0266036Y0298835D01*
D01*
X0266036Y0298835D01*
X0266026Y0298820D01*
X0266007Y0298792D01*
X0265973Y0298752D01*
X0265973Y0298752D01*
X0265973Y0298752D01*
X0265933Y0298717D01*
X0265904Y0298698D01*
X0265890Y0298688D01*
X0265890Y0298688D01*
D01*
X0265843Y0298665D01*
X0265793Y0298648D01*
X0265762Y0298642D01*
X0265741Y0298638D01*
X0265689Y0298635D01*
X0264606D01*
X0264554Y0298638D01*
X0264503Y0298648D01*
X0264453Y0298665D01*
X0264406Y0298688D01*
X0264362Y0298717D01*
X0264323Y0298752D01*
X0264288Y0298792D01*
X0264259Y0298835D01*
X0264236Y0298882D01*
X0264219Y0298932D01*
X0264209Y0298983D01*
X0264206Y0299036D01*
Y0300020D01*
X0264207Y0300047D01*
X0264209Y0300072D01*
X0264209Y0300072D01*
Y0300072D01*
X0264214Y0300097D01*
X0264219Y0300123D01*
X0264219Y0300124D01*
X0264219Y0300124D01*
X0264226Y0300142D01*
X0264236Y0300173D01*
X0264236Y0300173D01*
X0264236Y0300173D01*
X0264247Y0300194D01*
X0264259Y0300220D01*
X0264259Y0300220D01*
X0264259Y0300220D01*
X0264271Y0300238D01*
X0264288Y0300264D01*
X0264288Y0300264D01*
X0264288Y0300264D01*
X0264299Y0300275D01*
X0264323Y0300303D01*
X0264323Y0300303D01*
X0264323Y0300303D01*
X0264351Y0300327D01*
X0264362Y0300338D01*
X0264362Y0300338D01*
X0264362Y0300338D01*
X0264388Y0300355D01*
X0264406Y0300367D01*
X0264406Y0300367D01*
X0264406Y0300367D01*
X0264432Y0300379D01*
X0264453Y0300390D01*
X0264453Y0300390D01*
X0264453Y0300390D01*
X0264484Y0300401D01*
X0264503Y0300407D01*
X0264503Y0300407D01*
X0264503Y0300407D01*
X0264529Y0300412D01*
X0264554Y0300417D01*
X0264554D01*
X0264554Y0300417D01*
X0264579Y0300419D01*
X0264606Y0300421D01*
X0265344Y0300421D01*
X0265345D01*
X0265345D01*
X0265372Y0300419D01*
D02*
G37*
G36*
X0181514D02*
X0181538Y0300417D01*
X0181538Y0300417D01*
X0181538D01*
X0181564Y0300412D01*
X0181590Y0300407D01*
X0181590Y0300407D01*
X0181590Y0300407D01*
X0181618Y0300397D01*
X0181640Y0300390D01*
X0181640Y0300390D01*
X0181640Y0300390D01*
X0181669Y0300376D01*
X0181687Y0300367D01*
X0181687Y0300367D01*
X0181687Y0300367D01*
X0181704Y0300355D01*
X0181730Y0300338D01*
X0181730Y0300338D01*
X0181730Y0300338D01*
X0181742Y0300328D01*
X0181770Y0300303D01*
X0181770Y0300303D01*
X0181770Y0300303D01*
X0182114Y0299959D01*
X0182114Y0299959D01*
X0182114Y0299959D01*
X0182149Y0299919D01*
X0182168Y0299890D01*
X0182178Y0299876D01*
X0182178Y0299876D01*
D01*
X0182179Y0299874D01*
X0182201Y0299829D01*
X0182202Y0299826D01*
X0182218Y0299779D01*
X0182224Y0299748D01*
X0182228Y0299728D01*
X0182232Y0299675D01*
Y0299675D01*
Y0299675D01*
X0182232Y0299036D01*
X0182228Y0298983D01*
X0182224Y0298963D01*
X0182218Y0298932D01*
X0182201Y0298882D01*
X0182178Y0298835D01*
D01*
X0182178Y0298835D01*
X0182168Y0298820D01*
X0182149Y0298792D01*
X0182114Y0298752D01*
X0182114Y0298752D01*
X0182114Y0298752D01*
X0182075Y0298717D01*
X0182046Y0298698D01*
X0182031Y0298688D01*
X0182031Y0298688D01*
D01*
X0181984Y0298665D01*
X0181935Y0298648D01*
X0181904Y0298642D01*
X0181883Y0298638D01*
X0181831Y0298635D01*
X0180748D01*
X0180696Y0298638D01*
X0180644Y0298648D01*
X0180595Y0298665D01*
X0180548Y0298688D01*
X0180504Y0298717D01*
X0180465Y0298752D01*
X0180430Y0298792D01*
X0180401Y0298835D01*
X0180378Y0298882D01*
X0180361Y0298932D01*
X0180351Y0298983D01*
X0180347Y0299036D01*
Y0300020D01*
X0180349Y0300047D01*
X0180351Y0300072D01*
X0180351Y0300072D01*
Y0300072D01*
X0180356Y0300097D01*
X0180361Y0300123D01*
X0180361Y0300124D01*
X0180361Y0300124D01*
X0180367Y0300142D01*
X0180378Y0300173D01*
X0180378Y0300173D01*
X0180378Y0300173D01*
X0180388Y0300194D01*
X0180401Y0300220D01*
X0180401Y0300220D01*
X0180401Y0300220D01*
X0180413Y0300238D01*
X0180430Y0300264D01*
X0180430Y0300264D01*
X0180430Y0300264D01*
X0180440Y0300275D01*
X0180465Y0300303D01*
X0180465Y0300303D01*
X0180465Y0300303D01*
X0180492Y0300327D01*
X0180504Y0300338D01*
X0180504Y0300338D01*
X0180504Y0300338D01*
X0180530Y0300355D01*
X0180548Y0300367D01*
X0180548Y0300367D01*
X0180548Y0300367D01*
X0180573Y0300379D01*
X0180595Y0300390D01*
X0180595Y0300390D01*
X0180595Y0300390D01*
X0180626Y0300401D01*
X0180644Y0300407D01*
X0180644Y0300407D01*
X0180644Y0300407D01*
X0180670Y0300412D01*
X0180696Y0300417D01*
X0180696D01*
X0180696Y0300417D01*
X0180721Y0300419D01*
X0180748Y0300421D01*
X0181486Y0300421D01*
X0181486D01*
X0181486D01*
X0181514Y0300419D01*
D02*
G37*
G36*
X0097655D02*
X0097680Y0300417D01*
X0097680Y0300417D01*
X0097680D01*
X0097706Y0300412D01*
X0097732Y0300407D01*
X0097732Y0300407D01*
X0097732Y0300407D01*
X0097760Y0300397D01*
X0097781Y0300390D01*
X0097781Y0300390D01*
X0097781Y0300390D01*
X0097811Y0300376D01*
X0097828Y0300367D01*
X0097828Y0300367D01*
X0097828Y0300367D01*
X0097846Y0300355D01*
X0097872Y0300338D01*
X0097872Y0300338D01*
X0097872Y0300338D01*
X0097884Y0300328D01*
X0097911Y0300303D01*
X0097911Y0300303D01*
X0097911Y0300303D01*
X0098256Y0299959D01*
X0098256Y0299959D01*
X0098256Y0299959D01*
X0098291Y0299919D01*
X0098310Y0299890D01*
X0098320Y0299876D01*
X0098320Y0299876D01*
D01*
X0098320Y0299874D01*
X0098343Y0299829D01*
X0098344Y0299826D01*
X0098360Y0299779D01*
X0098366Y0299748D01*
X0098370Y0299728D01*
X0098374Y0299675D01*
Y0299675D01*
Y0299675D01*
X0098373Y0299036D01*
X0098370Y0298983D01*
X0098366Y0298963D01*
X0098360Y0298932D01*
X0098343Y0298882D01*
X0098320Y0298835D01*
D01*
X0098320Y0298835D01*
X0098310Y0298820D01*
X0098291Y0298792D01*
X0098256Y0298752D01*
X0098256Y0298752D01*
X0098256Y0298752D01*
X0098217Y0298717D01*
X0098188Y0298698D01*
X0098173Y0298688D01*
X0098173Y0298688D01*
D01*
X0098126Y0298665D01*
X0098076Y0298648D01*
X0098045Y0298642D01*
X0098025Y0298638D01*
X0097973Y0298635D01*
X0096890D01*
X0096838Y0298638D01*
X0096786Y0298648D01*
X0096737Y0298665D01*
X0096689Y0298688D01*
X0096646Y0298717D01*
X0096606Y0298752D01*
X0096572Y0298792D01*
X0096543Y0298835D01*
X0096520Y0298882D01*
X0096503Y0298932D01*
X0096492Y0298983D01*
X0096489Y0299036D01*
Y0300020D01*
X0096491Y0300047D01*
X0096492Y0300072D01*
X0096492Y0300072D01*
Y0300072D01*
X0096497Y0300097D01*
X0096503Y0300123D01*
X0096503Y0300124D01*
X0096503Y0300124D01*
X0096509Y0300142D01*
X0096520Y0300173D01*
X0096520Y0300173D01*
X0096520Y0300173D01*
X0096530Y0300194D01*
X0096543Y0300220D01*
X0096543Y0300220D01*
X0096543Y0300220D01*
X0096554Y0300238D01*
X0096572Y0300264D01*
X0096572Y0300264D01*
X0096572Y0300264D01*
X0096582Y0300275D01*
X0096606Y0300303D01*
X0096606Y0300303D01*
X0096606Y0300303D01*
X0096634Y0300327D01*
X0096646Y0300338D01*
X0096646Y0300338D01*
X0096646Y0300338D01*
X0096672Y0300355D01*
X0096689Y0300367D01*
X0096689Y0300367D01*
X0096689Y0300367D01*
X0096715Y0300379D01*
X0096736Y0300390D01*
X0096736Y0300390D01*
X0096737Y0300390D01*
X0096767Y0300401D01*
X0096786Y0300407D01*
X0096786Y0300407D01*
X0096786Y0300407D01*
X0096812Y0300412D01*
X0096838Y0300417D01*
X0096838D01*
X0096838Y0300417D01*
X0096862Y0300419D01*
X0096890Y0300421D01*
X0097628Y0300421D01*
X0097628D01*
X0097628D01*
X0097655Y0300419D01*
D02*
G37*
G36*
X0447120Y0214650D02*
X0447150Y0214643D01*
X0447171Y0214639D01*
X0447171Y0214639D01*
D01*
X0447221Y0214622D01*
X0447268Y0214599D01*
X0447311Y0214570D01*
X0447348Y0214538D01*
X0447351Y0214535D01*
Y0214535D01*
X0447351D01*
X0447353Y0214533D01*
X0447385Y0214496D01*
X0447414Y0214453D01*
X0447438Y0214405D01*
X0447454Y0214356D01*
D01*
X0447454Y0214356D01*
X0447459Y0214335D01*
X0447465Y0214304D01*
X0447468Y0214252D01*
Y0214252D01*
Y0214252D01*
X0447468Y0211182D01*
X0447466Y0211157D01*
X0447465Y0211130D01*
X0447465Y0211130D01*
X0447465Y0211130D01*
X0447460Y0211106D01*
X0447454Y0211079D01*
X0447454Y0211078D01*
X0447454Y0211078D01*
X0447447Y0211057D01*
X0447437Y0211029D01*
X0447437Y0211029D01*
X0447437Y0211029D01*
X0447427Y0211007D01*
X0447414Y0210982D01*
X0447414Y0210982D01*
X0447414Y0210981D01*
X0447399Y0210958D01*
X0447385Y0210938D01*
X0447385Y0210938D01*
X0447385Y0210938D01*
X0447367Y0210917D01*
X0447351Y0210899D01*
X0447351Y0210899D01*
X0447351Y0210898D01*
X0447333Y0210883D01*
X0447311Y0210864D01*
X0447311Y0210864D01*
X0447311Y0210864D01*
X0447292Y0210851D01*
X0447268Y0210835D01*
X0447268Y0210835D01*
X0447267Y0210835D01*
X0447242Y0210822D01*
X0447221Y0210812D01*
X0447221Y0210812D01*
X0447221Y0210812D01*
X0447192Y0210802D01*
X0447171Y0210795D01*
X0447171Y0210795D01*
X0447171Y0210795D01*
X0447144Y0210789D01*
X0447120Y0210785D01*
X0447120Y0210785D01*
X0447119Y0210785D01*
X0447093Y0210783D01*
X0447067Y0210781D01*
X0440218Y0210776D01*
X0440217Y0210776D01*
X0440217Y0210776D01*
X0440197Y0210778D01*
X0440165Y0210780D01*
X0440165Y0210780D01*
X0440165D01*
X0440141Y0210785D01*
X0440114Y0210790D01*
X0440114Y0210790D01*
X0440114Y0210790D01*
X0440088Y0210799D01*
X0440064Y0210807D01*
X0440064Y0210807D01*
X0440064Y0210807D01*
X0440047Y0210815D01*
X0440017Y0210830D01*
X0440017Y0210830D01*
X0440017Y0210830D01*
X0440000Y0210841D01*
X0439973Y0210859D01*
X0439973Y0210859D01*
X0439973Y0210859D01*
X0439956Y0210874D01*
X0439934Y0210894D01*
X0439934Y0210894D01*
X0439934Y0210894D01*
X0439915Y0210915D01*
X0439899Y0210933D01*
X0439899Y0210933D01*
X0439899Y0210933D01*
X0439882Y0210960D01*
X0439870Y0210977D01*
X0439870Y0210977D01*
X0439870Y0210977D01*
X0439855Y0211007D01*
X0439847Y0211023D01*
X0439847Y0211023D01*
X0439847Y0211024D01*
X0439839Y0211047D01*
X0439830Y0211073D01*
X0439830Y0211073D01*
X0439830Y0211073D01*
X0439825Y0211099D01*
X0439820Y0211124D01*
Y0211125D01*
X0439820Y0211125D01*
X0439818Y0211156D01*
X0439816Y0211177D01*
X0439816Y0211177D01*
X0439816Y0211177D01*
X0439816Y0213661D01*
X0439816Y0213662D01*
X0439816Y0213662D01*
X0439818Y0213691D01*
X0439819Y0213714D01*
X0439819Y0213714D01*
X0439819Y0213714D01*
X0439824Y0213738D01*
X0439829Y0213765D01*
X0439829Y0213766D01*
X0439829Y0213766D01*
X0439836Y0213783D01*
X0439846Y0213815D01*
X0439846Y0213815D01*
X0439846Y0213815D01*
X0439858Y0213839D01*
X0439869Y0213862D01*
X0439869Y0213862D01*
X0439870Y0213862D01*
X0439888Y0213889D01*
X0439899Y0213906D01*
X0439899Y0213906D01*
X0439899Y0213906D01*
X0439918Y0213928D01*
X0439933Y0213945D01*
X0439933Y0213945D01*
X0439933Y0213945D01*
X0440525Y0214536D01*
X0440542Y0214551D01*
X0440564Y0214570D01*
X0440564Y0214570D01*
X0440564Y0214570D01*
X0440584Y0214583D01*
X0440608Y0214599D01*
X0440608Y0214599D01*
X0440608Y0214599D01*
X0440631Y0214611D01*
X0440655Y0214622D01*
X0440655Y0214622D01*
X0440655Y0214622D01*
X0440673Y0214629D01*
X0440704Y0214639D01*
X0440704Y0214639D01*
X0440705Y0214639D01*
X0440723Y0214643D01*
X0440756Y0214649D01*
X0440756Y0214649D01*
X0440756Y0214649D01*
X0440780Y0214651D01*
X0440808Y0214653D01*
X0447067Y0214653D01*
X0447067D01*
X0447067D01*
X0447120Y0214650D01*
D02*
G37*
G36*
X0363261D02*
X0363292Y0214643D01*
X0363313Y0214639D01*
X0363313Y0214639D01*
D01*
X0363362Y0214622D01*
X0363409Y0214599D01*
X0363453Y0214570D01*
X0363490Y0214538D01*
X0363492Y0214535D01*
Y0214535D01*
X0363492D01*
X0363495Y0214533D01*
X0363527Y0214496D01*
X0363556Y0214453D01*
X0363579Y0214405D01*
X0363596Y0214356D01*
D01*
X0363596Y0214356D01*
X0363600Y0214335D01*
X0363606Y0214304D01*
X0363610Y0214252D01*
Y0214252D01*
Y0214252D01*
X0363610Y0211182D01*
X0363608Y0211157D01*
X0363606Y0211130D01*
X0363606Y0211130D01*
X0363606Y0211130D01*
X0363601Y0211106D01*
X0363596Y0211079D01*
X0363596Y0211078D01*
X0363596Y0211078D01*
X0363589Y0211057D01*
X0363579Y0211029D01*
X0363579Y0211029D01*
X0363579Y0211029D01*
X0363569Y0211007D01*
X0363556Y0210982D01*
X0363556Y0210982D01*
X0363556Y0210981D01*
X0363540Y0210958D01*
X0363527Y0210938D01*
X0363527Y0210938D01*
X0363527Y0210938D01*
X0363508Y0210917D01*
X0363492Y0210899D01*
X0363492Y0210899D01*
X0363492Y0210898D01*
X0363474Y0210883D01*
X0363453Y0210864D01*
X0363453Y0210864D01*
X0363453Y0210864D01*
X0363433Y0210851D01*
X0363409Y0210835D01*
X0363409Y0210835D01*
X0363409Y0210835D01*
X0363384Y0210822D01*
X0363362Y0210812D01*
X0363362Y0210812D01*
X0363362Y0210812D01*
X0363334Y0210802D01*
X0363313Y0210795D01*
X0363313Y0210795D01*
X0363313Y0210795D01*
X0363285Y0210789D01*
X0363261Y0210785D01*
X0363261Y0210785D01*
X0363261Y0210785D01*
X0363235Y0210783D01*
X0363209Y0210781D01*
X0356359Y0210776D01*
X0356359Y0210776D01*
X0356359Y0210776D01*
X0356339Y0210778D01*
X0356307Y0210780D01*
X0356307Y0210780D01*
X0356307D01*
X0356282Y0210785D01*
X0356256Y0210790D01*
X0356256Y0210790D01*
X0356255Y0210790D01*
X0356229Y0210799D01*
X0356206Y0210807D01*
X0356206Y0210807D01*
X0356206Y0210807D01*
X0356189Y0210815D01*
X0356159Y0210830D01*
X0356159Y0210830D01*
X0356159Y0210830D01*
X0356142Y0210841D01*
X0356115Y0210859D01*
X0356115Y0210859D01*
X0356115Y0210859D01*
X0356098Y0210874D01*
X0356076Y0210894D01*
X0356076Y0210894D01*
X0356076Y0210894D01*
X0356057Y0210915D01*
X0356041Y0210933D01*
X0356041Y0210933D01*
X0356041Y0210933D01*
X0356023Y0210960D01*
X0356012Y0210977D01*
X0356012Y0210977D01*
X0356012Y0210977D01*
X0355997Y0211007D01*
X0355989Y0211023D01*
X0355989Y0211023D01*
X0355989Y0211024D01*
X0355981Y0211047D01*
X0355972Y0211073D01*
X0355972Y0211073D01*
X0355972Y0211073D01*
X0355967Y0211099D01*
X0355962Y0211124D01*
Y0211125D01*
X0355962Y0211125D01*
X0355960Y0211156D01*
X0355958Y0211177D01*
X0355958Y0211177D01*
X0355958Y0211177D01*
X0355958Y0213661D01*
X0355958Y0213662D01*
X0355958Y0213662D01*
X0355959Y0213691D01*
X0355961Y0213714D01*
X0355961Y0213714D01*
X0355961Y0213714D01*
X0355966Y0213738D01*
X0355971Y0213765D01*
X0355971Y0213766D01*
X0355971Y0213766D01*
X0355977Y0213783D01*
X0355988Y0213815D01*
X0355988Y0213815D01*
X0355988Y0213815D01*
X0356000Y0213839D01*
X0356011Y0213862D01*
X0356011Y0213862D01*
X0356011Y0213862D01*
X0356029Y0213889D01*
X0356040Y0213906D01*
X0356040Y0213906D01*
X0356041Y0213906D01*
X0356060Y0213928D01*
X0356075Y0213945D01*
X0356075Y0213945D01*
X0356075Y0213945D01*
X0356666Y0214536D01*
X0356684Y0214551D01*
X0356706Y0214570D01*
X0356706Y0214570D01*
X0356706Y0214570D01*
X0356726Y0214583D01*
X0356749Y0214599D01*
X0356749Y0214599D01*
X0356750Y0214599D01*
X0356773Y0214611D01*
X0356796Y0214622D01*
X0356797Y0214622D01*
X0356797Y0214622D01*
X0356815Y0214629D01*
X0356846Y0214639D01*
X0356846Y0214639D01*
X0356846Y0214639D01*
X0356865Y0214643D01*
X0356897Y0214649D01*
X0356898Y0214649D01*
X0356898Y0214649D01*
X0356922Y0214651D01*
X0356950Y0214653D01*
X0363209Y0214653D01*
X0363209D01*
X0363209D01*
X0363261Y0214650D01*
D02*
G37*
G36*
X0279403D02*
X0279434Y0214643D01*
X0279454Y0214639D01*
X0279454Y0214639D01*
D01*
X0279504Y0214622D01*
X0279551Y0214599D01*
X0279595Y0214570D01*
X0279631Y0214538D01*
X0279634Y0214535D01*
Y0214535D01*
X0279634D01*
X0279637Y0214533D01*
X0279669Y0214496D01*
X0279698Y0214453D01*
X0279721Y0214405D01*
X0279738Y0214356D01*
D01*
X0279738Y0214356D01*
X0279742Y0214335D01*
X0279748Y0214304D01*
X0279751Y0214252D01*
Y0214252D01*
Y0214252D01*
X0279751Y0211182D01*
X0279750Y0211157D01*
X0279748Y0211130D01*
X0279748Y0211130D01*
X0279748Y0211130D01*
X0279743Y0211106D01*
X0279738Y0211079D01*
X0279738Y0211078D01*
X0279738Y0211078D01*
X0279731Y0211057D01*
X0279721Y0211029D01*
X0279721Y0211029D01*
X0279721Y0211029D01*
X0279710Y0211007D01*
X0279698Y0210982D01*
X0279698Y0210982D01*
X0279698Y0210981D01*
X0279682Y0210958D01*
X0279669Y0210938D01*
X0279669Y0210938D01*
X0279668Y0210938D01*
X0279650Y0210917D01*
X0279634Y0210899D01*
X0279634Y0210899D01*
X0279634Y0210898D01*
X0279616Y0210883D01*
X0279595Y0210864D01*
X0279595Y0210864D01*
X0279594Y0210864D01*
X0279575Y0210851D01*
X0279551Y0210835D01*
X0279551Y0210835D01*
X0279551Y0210835D01*
X0279525Y0210822D01*
X0279504Y0210812D01*
X0279504Y0210812D01*
X0279504Y0210812D01*
X0279476Y0210802D01*
X0279454Y0210795D01*
X0279454Y0210795D01*
X0279454Y0210795D01*
X0279427Y0210789D01*
X0279403Y0210785D01*
X0279403Y0210785D01*
X0279403Y0210785D01*
X0279377Y0210783D01*
X0279351Y0210781D01*
X0272501Y0210776D01*
X0272501Y0210776D01*
X0272501Y0210776D01*
X0272480Y0210778D01*
X0272449Y0210780D01*
X0272448Y0210780D01*
X0272448D01*
X0272424Y0210785D01*
X0272397Y0210790D01*
X0272397Y0210790D01*
X0272397Y0210790D01*
X0272371Y0210799D01*
X0272347Y0210807D01*
X0272347Y0210807D01*
X0272347Y0210807D01*
X0272331Y0210815D01*
X0272301Y0210830D01*
X0272300Y0210830D01*
X0272300Y0210830D01*
X0272284Y0210841D01*
X0272257Y0210859D01*
X0272257Y0210859D01*
X0272257Y0210859D01*
X0272239Y0210874D01*
X0272217Y0210894D01*
X0272217Y0210894D01*
X0272217Y0210894D01*
X0272198Y0210915D01*
X0272183Y0210933D01*
X0272183Y0210933D01*
X0272183Y0210933D01*
X0272165Y0210960D01*
X0272154Y0210977D01*
X0272154Y0210977D01*
X0272154Y0210977D01*
X0272139Y0211007D01*
X0272130Y0211023D01*
X0272130Y0211023D01*
X0272130Y0211024D01*
X0272123Y0211047D01*
X0272113Y0211073D01*
X0272113Y0211073D01*
X0272113Y0211073D01*
X0272108Y0211099D01*
X0272103Y0211124D01*
Y0211125D01*
X0272103Y0211125D01*
X0272101Y0211156D01*
X0272100Y0211177D01*
X0272100Y0211177D01*
X0272100Y0211177D01*
X0272099Y0213661D01*
X0272099Y0213662D01*
X0272099Y0213662D01*
X0272101Y0213691D01*
X0272103Y0213714D01*
X0272103Y0213714D01*
X0272103Y0213714D01*
X0272107Y0213738D01*
X0272113Y0213765D01*
X0272113Y0213766D01*
X0272113Y0213766D01*
X0272119Y0213783D01*
X0272130Y0213815D01*
X0272130Y0213815D01*
X0272130Y0213815D01*
X0272141Y0213839D01*
X0272153Y0213862D01*
X0272153Y0213862D01*
X0272153Y0213862D01*
X0272171Y0213889D01*
X0272182Y0213906D01*
X0272182Y0213906D01*
X0272182Y0213906D01*
X0272202Y0213928D01*
X0272217Y0213945D01*
X0272217Y0213945D01*
X0272217Y0213945D01*
X0272808Y0214536D01*
X0272825Y0214551D01*
X0272847Y0214570D01*
X0272848Y0214570D01*
X0272848Y0214570D01*
X0272867Y0214583D01*
X0272891Y0214599D01*
X0272891Y0214599D01*
X0272891Y0214599D01*
X0272914Y0214611D01*
X0272938Y0214622D01*
X0272938Y0214622D01*
X0272938Y0214622D01*
X0272956Y0214629D01*
X0272988Y0214639D01*
X0272988Y0214639D01*
X0272988Y0214639D01*
X0273006Y0214643D01*
X0273039Y0214649D01*
X0273039Y0214649D01*
X0273039Y0214649D01*
X0273063Y0214651D01*
X0273091Y0214653D01*
X0279351Y0214653D01*
X0279351D01*
X0279351D01*
X0279403Y0214650D01*
D02*
G37*
G36*
X0195545D02*
X0195575Y0214643D01*
X0195596Y0214639D01*
X0195596Y0214639D01*
D01*
X0195646Y0214622D01*
X0195693Y0214599D01*
X0195736Y0214570D01*
X0195773Y0214538D01*
X0195776Y0214535D01*
Y0214535D01*
X0195776D01*
X0195778Y0214533D01*
X0195810Y0214496D01*
X0195840Y0214453D01*
X0195863Y0214405D01*
X0195879Y0214356D01*
D01*
X0195879Y0214356D01*
X0195884Y0214335D01*
X0195890Y0214304D01*
X0195893Y0214252D01*
Y0214252D01*
Y0214252D01*
X0195893Y0211182D01*
X0195891Y0211157D01*
X0195890Y0211130D01*
X0195890Y0211130D01*
X0195890Y0211130D01*
X0195885Y0211106D01*
X0195879Y0211079D01*
X0195879Y0211078D01*
X0195879Y0211078D01*
X0195872Y0211057D01*
X0195863Y0211029D01*
X0195863Y0211029D01*
X0195862Y0211029D01*
X0195852Y0211007D01*
X0195840Y0210982D01*
X0195839Y0210982D01*
X0195839Y0210981D01*
X0195824Y0210958D01*
X0195810Y0210938D01*
X0195810Y0210938D01*
X0195810Y0210938D01*
X0195792Y0210917D01*
X0195776Y0210899D01*
X0195776Y0210899D01*
X0195776Y0210898D01*
X0195758Y0210883D01*
X0195736Y0210864D01*
X0195736Y0210864D01*
X0195736Y0210864D01*
X0195717Y0210851D01*
X0195693Y0210835D01*
X0195693Y0210835D01*
X0195693Y0210835D01*
X0195667Y0210822D01*
X0195646Y0210812D01*
X0195646Y0210812D01*
X0195646Y0210812D01*
X0195617Y0210802D01*
X0195596Y0210795D01*
X0195596Y0210795D01*
X0195596Y0210795D01*
X0195569Y0210789D01*
X0195545Y0210785D01*
X0195545Y0210785D01*
X0195545Y0210785D01*
X0195518Y0210783D01*
X0195492Y0210781D01*
X0188643Y0210776D01*
X0188643Y0210776D01*
X0188643Y0210776D01*
X0188622Y0210778D01*
X0188590Y0210780D01*
X0188590Y0210780D01*
X0188590D01*
X0188566Y0210785D01*
X0188539Y0210790D01*
X0188539Y0210790D01*
X0188539Y0210790D01*
X0188513Y0210799D01*
X0188489Y0210807D01*
X0188489Y0210807D01*
X0188489Y0210807D01*
X0188472Y0210815D01*
X0188442Y0210830D01*
X0188442Y0210830D01*
X0188442Y0210830D01*
X0188426Y0210841D01*
X0188399Y0210859D01*
X0188399Y0210859D01*
X0188398Y0210859D01*
X0188381Y0210874D01*
X0188359Y0210894D01*
X0188359Y0210894D01*
X0188359Y0210894D01*
X0188340Y0210915D01*
X0188324Y0210933D01*
X0188324Y0210933D01*
X0188324Y0210933D01*
X0188307Y0210960D01*
X0188295Y0210977D01*
X0188295Y0210977D01*
X0188295Y0210977D01*
X0188280Y0211007D01*
X0188272Y0211023D01*
X0188272Y0211023D01*
X0188272Y0211024D01*
X0188264Y0211047D01*
X0188255Y0211073D01*
X0188255Y0211073D01*
X0188255Y0211073D01*
X0188250Y0211099D01*
X0188245Y0211124D01*
Y0211125D01*
X0188245Y0211125D01*
X0188243Y0211156D01*
X0188242Y0211177D01*
X0188242Y0211177D01*
X0188242Y0211177D01*
X0188241Y0213661D01*
X0188241Y0213662D01*
X0188241Y0213662D01*
X0188243Y0213691D01*
X0188244Y0213714D01*
X0188244Y0213714D01*
X0188244Y0213714D01*
X0188249Y0213738D01*
X0188254Y0213765D01*
X0188255Y0213766D01*
X0188255Y0213766D01*
X0188261Y0213783D01*
X0188271Y0213815D01*
X0188271Y0213815D01*
X0188271Y0213815D01*
X0188283Y0213839D01*
X0188294Y0213862D01*
X0188295Y0213862D01*
X0188295Y0213862D01*
X0188313Y0213889D01*
X0188324Y0213906D01*
X0188324Y0213906D01*
X0188324Y0213906D01*
X0188343Y0213928D01*
X0188358Y0213945D01*
X0188358Y0213945D01*
X0188358Y0213945D01*
X0188950Y0214536D01*
X0188967Y0214551D01*
X0188989Y0214570D01*
X0188989Y0214570D01*
X0188989Y0214570D01*
X0189009Y0214583D01*
X0189033Y0214599D01*
X0189033Y0214599D01*
X0189033Y0214599D01*
X0189056Y0214611D01*
X0189080Y0214622D01*
X0189080Y0214622D01*
X0189080Y0214622D01*
X0189098Y0214629D01*
X0189129Y0214639D01*
X0189130Y0214639D01*
X0189130Y0214639D01*
X0189148Y0214643D01*
X0189181Y0214649D01*
X0189181Y0214649D01*
X0189181Y0214649D01*
X0189205Y0214651D01*
X0189233Y0214653D01*
X0195492Y0214653D01*
X0195492D01*
X0195492D01*
X0195545Y0214650D01*
D02*
G37*
G36*
X0111686D02*
X0111717Y0214643D01*
X0111738Y0214639D01*
X0111738Y0214639D01*
D01*
X0111787Y0214622D01*
X0111835Y0214599D01*
X0111878Y0214570D01*
X0111915Y0214538D01*
X0111917Y0214535D01*
Y0214535D01*
X0111917D01*
X0111920Y0214533D01*
X0111952Y0214496D01*
X0111981Y0214453D01*
X0112004Y0214405D01*
X0112021Y0214356D01*
D01*
X0112021Y0214356D01*
X0112025Y0214335D01*
X0112031Y0214304D01*
X0112035Y0214252D01*
Y0214252D01*
Y0214252D01*
X0112035Y0211182D01*
X0112033Y0211157D01*
X0112031Y0211130D01*
X0112031Y0211130D01*
X0112031Y0211130D01*
X0112027Y0211106D01*
X0112021Y0211079D01*
X0112021Y0211078D01*
X0112021Y0211078D01*
X0112014Y0211057D01*
X0112004Y0211029D01*
X0112004Y0211029D01*
X0112004Y0211029D01*
X0111994Y0211007D01*
X0111981Y0210982D01*
X0111981Y0210982D01*
X0111981Y0210981D01*
X0111965Y0210958D01*
X0111952Y0210938D01*
X0111952Y0210938D01*
X0111952Y0210938D01*
X0111933Y0210917D01*
X0111917Y0210899D01*
X0111917Y0210899D01*
X0111917Y0210898D01*
X0111899Y0210883D01*
X0111878Y0210864D01*
X0111878Y0210864D01*
X0111878Y0210864D01*
X0111858Y0210851D01*
X0111835Y0210835D01*
X0111834Y0210835D01*
X0111834Y0210835D01*
X0111809Y0210822D01*
X0111787Y0210812D01*
X0111787Y0210812D01*
X0111787Y0210812D01*
X0111759Y0210802D01*
X0111738Y0210795D01*
X0111738Y0210795D01*
X0111738Y0210795D01*
X0111711Y0210789D01*
X0111687Y0210785D01*
X0111686Y0210785D01*
X0111686Y0210785D01*
X0111660Y0210783D01*
X0111634Y0210781D01*
X0104784Y0210776D01*
X0104784Y0210776D01*
X0104784Y0210776D01*
X0104764Y0210778D01*
X0104732Y0210780D01*
X0104732Y0210780D01*
X0104732D01*
X0104707Y0210785D01*
X0104681Y0210790D01*
X0104681Y0210790D01*
X0104680Y0210790D01*
X0104654Y0210799D01*
X0104631Y0210807D01*
X0104631Y0210807D01*
X0104631Y0210807D01*
X0104614Y0210815D01*
X0104584Y0210830D01*
X0104584Y0210830D01*
X0104584Y0210830D01*
X0104567Y0210841D01*
X0104540Y0210859D01*
X0104540Y0210859D01*
X0104540Y0210859D01*
X0104523Y0210874D01*
X0104501Y0210894D01*
X0104501Y0210894D01*
X0104501Y0210894D01*
X0104482Y0210915D01*
X0104466Y0210933D01*
X0104466Y0210933D01*
X0104466Y0210933D01*
X0104448Y0210960D01*
X0104437Y0210977D01*
X0104437Y0210977D01*
X0104437Y0210977D01*
X0104422Y0211007D01*
X0104414Y0211023D01*
X0104414Y0211023D01*
X0104414Y0211024D01*
X0104406Y0211047D01*
X0104397Y0211073D01*
X0104397Y0211073D01*
X0104397Y0211073D01*
X0104392Y0211099D01*
X0104387Y0211124D01*
Y0211125D01*
X0104387Y0211125D01*
X0104385Y0211156D01*
X0104383Y0211177D01*
X0104383Y0211177D01*
X0104383Y0211177D01*
X0104383Y0213661D01*
X0104383Y0213662D01*
X0104383Y0213662D01*
X0104385Y0213691D01*
X0104386Y0213714D01*
X0104386Y0213714D01*
X0104386Y0213714D01*
X0104391Y0213738D01*
X0104396Y0213765D01*
X0104396Y0213766D01*
X0104396Y0213766D01*
X0104402Y0213783D01*
X0104413Y0213815D01*
X0104413Y0213815D01*
X0104413Y0213815D01*
X0104425Y0213839D01*
X0104436Y0213862D01*
X0104436Y0213862D01*
X0104436Y0213862D01*
X0104454Y0213889D01*
X0104465Y0213906D01*
X0104465Y0213906D01*
X0104466Y0213906D01*
X0104485Y0213928D01*
X0104500Y0213945D01*
X0104500Y0213945D01*
X0104500Y0213945D01*
X0105092Y0214536D01*
X0105109Y0214551D01*
X0105131Y0214570D01*
X0105131Y0214570D01*
X0105131Y0214570D01*
X0105151Y0214583D01*
X0105174Y0214599D01*
X0105175Y0214599D01*
X0105175Y0214599D01*
X0105198Y0214611D01*
X0105221Y0214622D01*
X0105222Y0214622D01*
X0105222Y0214622D01*
X0105240Y0214629D01*
X0105271Y0214639D01*
X0105271Y0214639D01*
X0105271Y0214639D01*
X0105290Y0214643D01*
X0105323Y0214649D01*
X0105323Y0214649D01*
X0105323Y0214649D01*
X0105347Y0214651D01*
X0105375Y0214653D01*
X0111634Y0214653D01*
X0111634D01*
X0111634D01*
X0111686Y0214650D01*
D02*
G37*
D19*
X0082953Y0310512D02*
X0083268D01*
X0041850Y0310512D02*
X0054144D01*
Y0310512D02*
X0073890D01*
X0053032Y0192441D02*
X0075197D01*
X0041850Y0192441D02*
X0046732D01*
X0084685Y0192441D02*
X0116398D01*
X0119803Y0303858D02*
Y0310512D01*
X0092441D02*
X0119803D01*
X0116398Y0192441D02*
X0119803D01*
X0041850Y0310512D02*
X0041850Y0192441D01*
X0119803Y0192441D02*
Y0303858D01*
X0166811Y0310512D02*
X0167126D01*
X0125709Y0310512D02*
X0138002D01*
Y0310512D02*
X0157748D01*
X0136890Y0192441D02*
X0159055D01*
X0125709Y0192441D02*
X0130591D01*
X0168544Y0192441D02*
X0200256D01*
X0203661Y0303858D02*
Y0310512D01*
X0176299D02*
X0203661D01*
X0200256Y0192441D02*
X0203661D01*
X0125709Y0310512D02*
X0125709Y0192441D01*
X0203661Y0192441D02*
Y0303858D01*
X0250670Y0310512D02*
X0250984D01*
X0209567Y0310512D02*
X0221860D01*
Y0310512D02*
X0241607D01*
X0220748Y0192441D02*
X0242914D01*
X0209567Y0192441D02*
X0214449D01*
X0252402Y0192441D02*
X0284114D01*
X0287520Y0303858D02*
Y0310512D01*
X0260158D02*
X0287520D01*
X0284114Y0192441D02*
X0287520D01*
X0209567Y0310512D02*
X0209567Y0192441D01*
X0287520Y0192441D02*
Y0303858D01*
X0334528Y0310512D02*
X0334843D01*
X0293425Y0310512D02*
X0305719D01*
Y0310512D02*
X0325465D01*
X0304607Y0192441D02*
X0326772D01*
X0293425Y0192441D02*
X0298307D01*
X0336260Y0192441D02*
X0367973D01*
X0371378Y0303858D02*
Y0310512D01*
X0344016D02*
X0371378D01*
X0367973Y0192441D02*
X0371378D01*
X0293425Y0310512D02*
X0293425Y0192441D01*
X0371378Y0192441D02*
Y0303858D01*
X0418386Y0310512D02*
X0418701D01*
X0377284Y0310512D02*
X0389577D01*
Y0310512D02*
X0409323D01*
X0388465Y0192441D02*
X0410630D01*
X0377284Y0192441D02*
X0382166D01*
X0420118Y0192441D02*
X0451831D01*
X0455236Y0303858D02*
Y0310512D01*
X0427874D02*
X0455236D01*
X0451831Y0192441D02*
X0455236D01*
X0377284Y0310512D02*
X0377284Y0192441D01*
X0455236Y0192441D02*
Y0303858D01*
D28*
X0050158Y0299449D02*
D03*
Y0295276D02*
D03*
X0054095Y0299449D02*
D03*
Y0295276D02*
D03*
X0134016Y0299449D02*
D03*
Y0295276D02*
D03*
X0137953Y0299449D02*
D03*
Y0295276D02*
D03*
X0217874Y0299449D02*
D03*
Y0295276D02*
D03*
X0221811Y0299449D02*
D03*
Y0295276D02*
D03*
X0301732Y0299449D02*
D03*
Y0295276D02*
D03*
X0305669Y0299449D02*
D03*
Y0295276D02*
D03*
X0385591Y0299449D02*
D03*
Y0295276D02*
D03*
X0389528Y0299449D02*
D03*
Y0295276D02*
D03*
D32*
X0118032Y0134370D02*
D03*
X0113858D02*
D03*
X0118032Y0130433D02*
D03*
X0113858D02*
D03*
X0201890Y0134370D02*
D03*
X0197717D02*
D03*
X0201890Y0130433D02*
D03*
X0197717D02*
D03*
X0285748Y0134370D02*
D03*
X0281575D02*
D03*
X0285748Y0130433D02*
D03*
X0281575D02*
D03*
X0369607Y0134370D02*
D03*
X0365433D02*
D03*
X0369607Y0130433D02*
D03*
X0365433D02*
D03*
X0453465Y0134370D02*
D03*
X0449292D02*
D03*
X0453465Y0130433D02*
D03*
X0449292D02*
D03*
D78*
X0020276Y0020394D02*
D03*
X0475984D02*
D03*
X0476299Y0382835D02*
D03*
X0020118Y0382323D02*
D03*
D80*
X0099410Y0299528D02*
D03*
X0101378D02*
D03*
Y0305433D02*
D03*
X0099410Y0305433D02*
D03*
X0183268Y0299528D02*
D03*
X0185236D02*
D03*
Y0305433D02*
D03*
X0183268Y0305433D02*
D03*
X0267126Y0299528D02*
D03*
X0269095D02*
D03*
Y0305433D02*
D03*
X0267126Y0305433D02*
D03*
X0350985Y0299528D02*
D03*
X0352953D02*
D03*
Y0305433D02*
D03*
X0350985Y0305433D02*
D03*
X0434843Y0299528D02*
D03*
X0436811D02*
D03*
Y0305433D02*
D03*
X0434843Y0305433D02*
D03*
D81*
X0103347Y0299528D02*
D03*
Y0301496D02*
D03*
Y0303465D02*
D03*
Y0305433D02*
D03*
X0097441D02*
D03*
Y0303465D02*
D03*
Y0301496D02*
D03*
X0187205Y0299528D02*
D03*
Y0301496D02*
D03*
Y0303465D02*
D03*
Y0305433D02*
D03*
X0181299D02*
D03*
Y0303465D02*
D03*
Y0301496D02*
D03*
X0271063Y0299528D02*
D03*
Y0301496D02*
D03*
Y0303465D02*
D03*
Y0305433D02*
D03*
X0265158D02*
D03*
Y0303465D02*
D03*
Y0301496D02*
D03*
X0354922Y0299528D02*
D03*
Y0301496D02*
D03*
Y0303465D02*
D03*
Y0305433D02*
D03*
X0349016D02*
D03*
Y0303465D02*
D03*
Y0301496D02*
D03*
X0438780Y0299528D02*
D03*
Y0301496D02*
D03*
Y0303465D02*
D03*
Y0305433D02*
D03*
X0432874D02*
D03*
Y0303465D02*
D03*
Y0301496D02*
D03*
D82*
X0097441Y0299528D02*
D03*
X0181299D02*
D03*
X0265158D02*
D03*
X0349016D02*
D03*
X0432874D02*
D03*
D83*
X0108622Y0297717D02*
D03*
Y0303622D02*
D03*
X0043701Y0110315D02*
D03*
Y0104016D02*
D03*
X0100532Y0209488D02*
D03*
Y0215394D02*
D03*
X0095471Y0163847D02*
D03*
Y0157941D02*
D03*
X0089250Y0163926D02*
D03*
Y0158020D02*
D03*
X0052638Y0180433D02*
D03*
Y0186339D02*
D03*
X0058937Y0170236D02*
D03*
Y0164331D02*
D03*
X0192481Y0297717D02*
D03*
Y0303622D02*
D03*
X0127559Y0110315D02*
D03*
Y0104016D02*
D03*
X0184390Y0209488D02*
D03*
Y0215394D02*
D03*
X0179329Y0163847D02*
D03*
Y0157941D02*
D03*
X0173109Y0163926D02*
D03*
Y0158020D02*
D03*
X0136496Y0180433D02*
D03*
Y0186339D02*
D03*
X0142795Y0170236D02*
D03*
Y0164331D02*
D03*
X0276339Y0297717D02*
D03*
Y0303622D02*
D03*
X0211418Y0110315D02*
D03*
Y0104016D02*
D03*
X0268248Y0209488D02*
D03*
Y0215394D02*
D03*
X0263188Y0163847D02*
D03*
Y0157941D02*
D03*
X0256967Y0163926D02*
D03*
Y0158020D02*
D03*
X0220355Y0180433D02*
D03*
Y0186339D02*
D03*
X0226654Y0170236D02*
D03*
Y0164331D02*
D03*
X0360197Y0297717D02*
D03*
Y0303622D02*
D03*
X0295276Y0110315D02*
D03*
Y0104016D02*
D03*
X0352106Y0209488D02*
D03*
Y0215394D02*
D03*
X0347046Y0163847D02*
D03*
Y0157941D02*
D03*
X0340825Y0163926D02*
D03*
Y0158020D02*
D03*
X0304213Y0180433D02*
D03*
Y0186339D02*
D03*
X0310512Y0170236D02*
D03*
Y0164331D02*
D03*
X0444055Y0297717D02*
D03*
Y0303622D02*
D03*
X0379134Y0110315D02*
D03*
Y0104016D02*
D03*
X0435965Y0209488D02*
D03*
Y0215394D02*
D03*
X0430904Y0163847D02*
D03*
Y0157941D02*
D03*
X0424684Y0163926D02*
D03*
Y0158020D02*
D03*
X0388071Y0180433D02*
D03*
Y0186339D02*
D03*
X0394370Y0170236D02*
D03*
Y0164331D02*
D03*
D84*
X0114213Y0301536D02*
D03*
Y0297756D02*
D03*
X0075315Y0086693D02*
D03*
Y0090473D02*
D03*
X0081142Y0169882D02*
D03*
Y0173661D02*
D03*
X0046929Y0256221D02*
D03*
Y0260000D02*
D03*
X0110354Y0278110D02*
D03*
Y0274331D02*
D03*
X0058110Y0182559D02*
D03*
Y0186339D02*
D03*
X0112953Y0164055D02*
D03*
Y0160276D02*
D03*
X0105158Y0142992D02*
D03*
Y0139213D02*
D03*
X0072047Y0216063D02*
D03*
Y0219843D02*
D03*
X0047520Y0224252D02*
D03*
Y0228032D02*
D03*
X0057677Y0114764D02*
D03*
Y0110984D02*
D03*
X0052599Y0207520D02*
D03*
Y0203740D02*
D03*
X0198071Y0301536D02*
D03*
Y0297756D02*
D03*
X0159173Y0086693D02*
D03*
Y0090473D02*
D03*
X0165000Y0169882D02*
D03*
Y0173661D02*
D03*
X0130788Y0256221D02*
D03*
Y0260000D02*
D03*
X0194213Y0278110D02*
D03*
Y0274331D02*
D03*
X0141969Y0182559D02*
D03*
Y0186339D02*
D03*
X0196811Y0164055D02*
D03*
Y0160276D02*
D03*
X0189016Y0142992D02*
D03*
Y0139213D02*
D03*
X0155906Y0216063D02*
D03*
Y0219843D02*
D03*
X0131378Y0224252D02*
D03*
Y0228032D02*
D03*
X0141536Y0114764D02*
D03*
Y0110984D02*
D03*
X0136457Y0207520D02*
D03*
Y0203740D02*
D03*
X0281929Y0301536D02*
D03*
Y0297756D02*
D03*
X0243032Y0086693D02*
D03*
Y0090473D02*
D03*
X0248858Y0169882D02*
D03*
Y0173661D02*
D03*
X0214646Y0256221D02*
D03*
Y0260000D02*
D03*
X0278071Y0278110D02*
D03*
Y0274331D02*
D03*
X0225827Y0182559D02*
D03*
Y0186339D02*
D03*
X0280669Y0164055D02*
D03*
Y0160276D02*
D03*
X0272874Y0142992D02*
D03*
Y0139213D02*
D03*
X0239764Y0216063D02*
D03*
Y0219843D02*
D03*
X0215236Y0224252D02*
D03*
Y0228032D02*
D03*
X0225394Y0114764D02*
D03*
Y0110984D02*
D03*
X0220315Y0207520D02*
D03*
Y0203740D02*
D03*
X0365788Y0301536D02*
D03*
Y0297756D02*
D03*
X0326890Y0086693D02*
D03*
Y0090473D02*
D03*
X0332717Y0169882D02*
D03*
Y0173661D02*
D03*
X0298504Y0256221D02*
D03*
Y0260000D02*
D03*
X0361929Y0278110D02*
D03*
Y0274331D02*
D03*
X0309685Y0182559D02*
D03*
Y0186339D02*
D03*
X0364528Y0164055D02*
D03*
Y0160276D02*
D03*
X0356733Y0142992D02*
D03*
Y0139213D02*
D03*
X0323622Y0216063D02*
D03*
Y0219843D02*
D03*
X0299095Y0224252D02*
D03*
Y0228032D02*
D03*
X0309252Y0114764D02*
D03*
Y0110984D02*
D03*
X0304173Y0207520D02*
D03*
Y0203740D02*
D03*
X0449646Y0301536D02*
D03*
Y0297756D02*
D03*
X0410748Y0086693D02*
D03*
Y0090473D02*
D03*
X0416575Y0169882D02*
D03*
Y0173661D02*
D03*
X0382362Y0256221D02*
D03*
Y0260000D02*
D03*
X0445788Y0278110D02*
D03*
Y0274331D02*
D03*
X0393544Y0182559D02*
D03*
Y0186339D02*
D03*
X0448386Y0164055D02*
D03*
Y0160276D02*
D03*
X0440591Y0142992D02*
D03*
Y0139213D02*
D03*
X0407481Y0216063D02*
D03*
Y0219843D02*
D03*
X0382953Y0224252D02*
D03*
Y0228032D02*
D03*
X0393110Y0114764D02*
D03*
Y0110984D02*
D03*
X0388032Y0207520D02*
D03*
Y0203740D02*
D03*
D85*
X0078465Y0323071D02*
D03*
X0087914D02*
D03*
X0105236D02*
D03*
X0118228D02*
D03*
X0078465Y0356929D02*
D03*
X0118228D02*
D03*
X0105236D02*
D03*
X0162323Y0323071D02*
D03*
X0171772D02*
D03*
X0189095D02*
D03*
X0202087D02*
D03*
X0162323Y0356929D02*
D03*
X0202087D02*
D03*
X0189095D02*
D03*
X0246181Y0323071D02*
D03*
X0255630D02*
D03*
X0272953D02*
D03*
X0285945D02*
D03*
X0246181Y0356929D02*
D03*
X0285945D02*
D03*
X0272953D02*
D03*
X0330040Y0323071D02*
D03*
X0339488D02*
D03*
X0356811D02*
D03*
X0369803D02*
D03*
X0330040Y0356929D02*
D03*
X0369803D02*
D03*
X0356811D02*
D03*
X0413898Y0323071D02*
D03*
X0423347D02*
D03*
X0440669D02*
D03*
X0453662D02*
D03*
X0413898Y0356929D02*
D03*
X0453662D02*
D03*
X0440669D02*
D03*
D86*
X0073878Y0305472D02*
D03*
X0077579D02*
D03*
X0157736D02*
D03*
X0161437D02*
D03*
X0241595D02*
D03*
X0245296D02*
D03*
X0325453D02*
D03*
X0329154D02*
D03*
X0409311D02*
D03*
X0413012D02*
D03*
D87*
X0094132Y0149083D02*
D03*
Y0141603D02*
D03*
X0085353Y0149044D02*
D03*
Y0141563D02*
D03*
X0177991Y0149083D02*
D03*
Y0141603D02*
D03*
X0169211Y0149044D02*
D03*
Y0141563D02*
D03*
X0261849Y0149083D02*
D03*
Y0141603D02*
D03*
X0253069Y0149044D02*
D03*
Y0141563D02*
D03*
X0345707Y0149083D02*
D03*
Y0141603D02*
D03*
X0336928Y0149044D02*
D03*
Y0141563D02*
D03*
X0429566Y0149083D02*
D03*
Y0141603D02*
D03*
X0420786Y0149044D02*
D03*
Y0141563D02*
D03*
D88*
X0055906Y0351772D02*
D03*
X0059843D02*
D03*
X0054725Y0291339D02*
D03*
X0050788D02*
D03*
X0110315Y0282441D02*
D03*
X0114252D02*
D03*
X0043307Y0347835D02*
D03*
X0047244D02*
D03*
X0079587Y0157091D02*
D03*
X0083524D02*
D03*
X0109803Y0126181D02*
D03*
X0105866D02*
D03*
X0109803Y0121850D02*
D03*
X0105866D02*
D03*
X0113937Y0139055D02*
D03*
X0117874D02*
D03*
X0051260Y0247362D02*
D03*
X0055197D02*
D03*
X0054410Y0211811D02*
D03*
X0050473D02*
D03*
X0056496Y0199488D02*
D03*
X0052559D02*
D03*
X0062402Y0186339D02*
D03*
X0066339D02*
D03*
X0049882Y0173346D02*
D03*
X0053819D02*
D03*
X0052559Y0161142D02*
D03*
X0048622D02*
D03*
X0139764Y0351772D02*
D03*
X0143701D02*
D03*
X0138583Y0291339D02*
D03*
X0134646D02*
D03*
X0194173Y0282441D02*
D03*
X0198110D02*
D03*
X0127165Y0347835D02*
D03*
X0131103D02*
D03*
X0163445Y0157091D02*
D03*
X0167382D02*
D03*
X0193661Y0126181D02*
D03*
X0189725D02*
D03*
X0193661Y0121850D02*
D03*
X0189725D02*
D03*
X0197795Y0139055D02*
D03*
X0201732D02*
D03*
X0135118Y0247362D02*
D03*
X0139055D02*
D03*
X0138268Y0211811D02*
D03*
X0134331D02*
D03*
X0140355Y0199488D02*
D03*
X0136417D02*
D03*
X0146260Y0186339D02*
D03*
X0150197D02*
D03*
X0133740Y0173346D02*
D03*
X0137677D02*
D03*
X0136417Y0161142D02*
D03*
X0132481D02*
D03*
X0223622Y0351772D02*
D03*
X0227559D02*
D03*
X0222441Y0291339D02*
D03*
X0218504D02*
D03*
X0278032Y0282441D02*
D03*
X0281969D02*
D03*
X0211024Y0347835D02*
D03*
X0214961D02*
D03*
X0247303Y0157091D02*
D03*
X0251240D02*
D03*
X0277520Y0126181D02*
D03*
X0273583D02*
D03*
X0277520Y0121850D02*
D03*
X0273583D02*
D03*
X0281654Y0139055D02*
D03*
X0285591D02*
D03*
X0218976Y0247362D02*
D03*
X0222914D02*
D03*
X0222126Y0211811D02*
D03*
X0218189D02*
D03*
X0224213Y0199488D02*
D03*
X0220276D02*
D03*
X0230118Y0186339D02*
D03*
X0234055D02*
D03*
X0217599Y0173346D02*
D03*
X0221536D02*
D03*
X0220276Y0161142D02*
D03*
X0216339D02*
D03*
X0307481Y0351772D02*
D03*
X0311418D02*
D03*
X0306299Y0291339D02*
D03*
X0302362D02*
D03*
X0361890Y0282441D02*
D03*
X0365827D02*
D03*
X0294882Y0347835D02*
D03*
X0298819D02*
D03*
X0331162Y0157091D02*
D03*
X0335099D02*
D03*
X0361378Y0126181D02*
D03*
X0357441D02*
D03*
X0361378Y0121850D02*
D03*
X0357441D02*
D03*
X0365512Y0139055D02*
D03*
X0369449D02*
D03*
X0302835Y0247362D02*
D03*
X0306772D02*
D03*
X0305984Y0211811D02*
D03*
X0302047D02*
D03*
X0308071Y0199488D02*
D03*
X0304134D02*
D03*
X0313977Y0186339D02*
D03*
X0317914D02*
D03*
X0301457Y0173346D02*
D03*
X0305394D02*
D03*
X0304134Y0161142D02*
D03*
X0300197D02*
D03*
X0391339Y0351772D02*
D03*
X0395276D02*
D03*
X0390158Y0291339D02*
D03*
X0386221D02*
D03*
X0445748Y0282441D02*
D03*
X0449685D02*
D03*
X0378740Y0347835D02*
D03*
X0382677D02*
D03*
X0415020Y0157091D02*
D03*
X0418957D02*
D03*
X0445236Y0126181D02*
D03*
X0441299D02*
D03*
X0445236Y0121850D02*
D03*
X0441299D02*
D03*
X0449370Y0139055D02*
D03*
X0453307D02*
D03*
X0386693Y0247362D02*
D03*
X0390630D02*
D03*
X0389843Y0211811D02*
D03*
X0385906D02*
D03*
X0391929Y0199488D02*
D03*
X0387992D02*
D03*
X0397835Y0186339D02*
D03*
X0401772D02*
D03*
X0385315Y0173346D02*
D03*
X0389252D02*
D03*
X0387992Y0161142D02*
D03*
X0384055D02*
D03*
D89*
X0060945Y0323032D02*
D03*
X0075394Y0046772D02*
D03*
X0144803Y0323032D02*
D03*
X0159252Y0046772D02*
D03*
X0228662Y0323032D02*
D03*
X0243110Y0046772D02*
D03*
X0312520Y0323032D02*
D03*
X0326969Y0046772D02*
D03*
X0396378Y0323032D02*
D03*
X0410827Y0046772D02*
D03*
D90*
X0088898Y0098681D02*
D03*
Y0083209D02*
D03*
X0172756Y0098681D02*
D03*
Y0083209D02*
D03*
X0256614Y0098681D02*
D03*
Y0083209D02*
D03*
X0340473Y0098681D02*
D03*
Y0083209D02*
D03*
X0424331Y0098681D02*
D03*
Y0083209D02*
D03*
D91*
X0095906Y0108386D02*
D03*
X0088819D02*
D03*
X0179764D02*
D03*
X0172677D02*
D03*
X0263622D02*
D03*
X0256536D02*
D03*
X0347481D02*
D03*
X0340394D02*
D03*
X0431339D02*
D03*
X0424252D02*
D03*
D92*
X0086063Y0173661D02*
D03*
Y0169725D02*
D03*
X0079725Y0098465D02*
D03*
Y0094528D02*
D03*
Y0090512D02*
D03*
Y0086575D02*
D03*
X0049370Y0107953D02*
D03*
Y0104016D02*
D03*
X0046536Y0289488D02*
D03*
Y0293425D02*
D03*
X0046142Y0274961D02*
D03*
Y0271024D02*
D03*
X0046536Y0301339D02*
D03*
Y0297402D02*
D03*
X0104213Y0288622D02*
D03*
Y0292559D02*
D03*
X0108622Y0288622D02*
D03*
Y0292559D02*
D03*
X0083425Y0161378D02*
D03*
Y0165315D02*
D03*
X0088543Y0129095D02*
D03*
Y0133031D02*
D03*
X0109607Y0130433D02*
D03*
Y0134370D02*
D03*
Y0139173D02*
D03*
Y0143110D02*
D03*
X0118701Y0127126D02*
D03*
Y0123189D02*
D03*
X0072047Y0227953D02*
D03*
Y0224016D02*
D03*
X0059134Y0240984D02*
D03*
Y0244921D02*
D03*
X0114370Y0127126D02*
D03*
Y0123189D02*
D03*
X0047402Y0247165D02*
D03*
Y0251102D02*
D03*
Y0240945D02*
D03*
Y0237008D02*
D03*
X0104646Y0280315D02*
D03*
Y0284252D02*
D03*
X0052520Y0156969D02*
D03*
Y0153032D02*
D03*
X0169921Y0173661D02*
D03*
Y0169725D02*
D03*
X0163583Y0098465D02*
D03*
Y0094528D02*
D03*
Y0090512D02*
D03*
Y0086575D02*
D03*
X0133229Y0107953D02*
D03*
Y0104016D02*
D03*
X0130394Y0289488D02*
D03*
Y0293425D02*
D03*
X0130000Y0274961D02*
D03*
Y0271024D02*
D03*
X0130394Y0301339D02*
D03*
Y0297402D02*
D03*
X0188071Y0288622D02*
D03*
Y0292559D02*
D03*
X0192481Y0288622D02*
D03*
Y0292559D02*
D03*
X0167284Y0161378D02*
D03*
Y0165315D02*
D03*
X0172402Y0129095D02*
D03*
Y0133031D02*
D03*
X0193465Y0130433D02*
D03*
Y0134370D02*
D03*
Y0139173D02*
D03*
Y0143110D02*
D03*
X0202559Y0127126D02*
D03*
Y0123189D02*
D03*
X0155906Y0227953D02*
D03*
Y0224016D02*
D03*
X0142992Y0240984D02*
D03*
Y0244921D02*
D03*
X0198229Y0127126D02*
D03*
Y0123189D02*
D03*
X0131260Y0247165D02*
D03*
Y0251102D02*
D03*
Y0240945D02*
D03*
Y0237008D02*
D03*
X0188504Y0280315D02*
D03*
Y0284252D02*
D03*
X0136378Y0156969D02*
D03*
Y0153032D02*
D03*
X0253780Y0173661D02*
D03*
Y0169725D02*
D03*
X0247441Y0098465D02*
D03*
Y0094528D02*
D03*
Y0090512D02*
D03*
Y0086575D02*
D03*
X0217087Y0107953D02*
D03*
Y0104016D02*
D03*
X0214252Y0289488D02*
D03*
Y0293425D02*
D03*
X0213858Y0274961D02*
D03*
Y0271024D02*
D03*
X0214252Y0301339D02*
D03*
Y0297402D02*
D03*
X0271929Y0288622D02*
D03*
Y0292559D02*
D03*
X0276339Y0288622D02*
D03*
Y0292559D02*
D03*
X0251142Y0161378D02*
D03*
Y0165315D02*
D03*
X0256260Y0129095D02*
D03*
Y0133031D02*
D03*
X0277323Y0130433D02*
D03*
Y0134370D02*
D03*
Y0139173D02*
D03*
Y0143110D02*
D03*
X0286418Y0127126D02*
D03*
Y0123189D02*
D03*
X0239764Y0227953D02*
D03*
Y0224016D02*
D03*
X0226851Y0240984D02*
D03*
Y0244921D02*
D03*
X0282087Y0127126D02*
D03*
Y0123189D02*
D03*
X0215118Y0247165D02*
D03*
Y0251102D02*
D03*
Y0240945D02*
D03*
Y0237008D02*
D03*
X0272362Y0280315D02*
D03*
Y0284252D02*
D03*
X0220236Y0156969D02*
D03*
Y0153032D02*
D03*
X0337638Y0173661D02*
D03*
Y0169725D02*
D03*
X0331299Y0098465D02*
D03*
Y0094528D02*
D03*
Y0090512D02*
D03*
Y0086575D02*
D03*
X0300945Y0107953D02*
D03*
Y0104016D02*
D03*
X0298110Y0289488D02*
D03*
Y0293425D02*
D03*
X0297717Y0274961D02*
D03*
Y0271024D02*
D03*
X0298110Y0301339D02*
D03*
Y0297402D02*
D03*
X0355788Y0288622D02*
D03*
Y0292559D02*
D03*
X0360197Y0288622D02*
D03*
Y0292559D02*
D03*
X0335000Y0161378D02*
D03*
Y0165315D02*
D03*
X0340118Y0129095D02*
D03*
Y0133031D02*
D03*
X0361181Y0130433D02*
D03*
Y0134370D02*
D03*
Y0139173D02*
D03*
Y0143110D02*
D03*
X0370276Y0127126D02*
D03*
Y0123189D02*
D03*
X0323622Y0227953D02*
D03*
Y0224016D02*
D03*
X0310709Y0240984D02*
D03*
Y0244921D02*
D03*
X0365945Y0127126D02*
D03*
Y0123189D02*
D03*
X0298977Y0247165D02*
D03*
Y0251102D02*
D03*
Y0240945D02*
D03*
Y0237008D02*
D03*
X0356221Y0280315D02*
D03*
Y0284252D02*
D03*
X0304095Y0156969D02*
D03*
Y0153032D02*
D03*
X0421496Y0173661D02*
D03*
Y0169725D02*
D03*
X0415158Y0098465D02*
D03*
Y0094528D02*
D03*
Y0090512D02*
D03*
Y0086575D02*
D03*
X0384803Y0107953D02*
D03*
Y0104016D02*
D03*
X0381969Y0289488D02*
D03*
Y0293425D02*
D03*
X0381575Y0274961D02*
D03*
Y0271024D02*
D03*
X0381969Y0301339D02*
D03*
Y0297402D02*
D03*
X0439646Y0288622D02*
D03*
Y0292559D02*
D03*
X0444055Y0288622D02*
D03*
Y0292559D02*
D03*
X0418858Y0161378D02*
D03*
Y0165315D02*
D03*
X0423977Y0129095D02*
D03*
Y0133031D02*
D03*
X0445040Y0130433D02*
D03*
Y0134370D02*
D03*
Y0139173D02*
D03*
Y0143110D02*
D03*
X0454134Y0127126D02*
D03*
Y0123189D02*
D03*
X0407481Y0227953D02*
D03*
Y0224016D02*
D03*
X0394567Y0240984D02*
D03*
Y0244921D02*
D03*
X0449803Y0127126D02*
D03*
Y0123189D02*
D03*
X0382835Y0247165D02*
D03*
Y0251102D02*
D03*
Y0240945D02*
D03*
Y0237008D02*
D03*
X0440079Y0280315D02*
D03*
Y0284252D02*
D03*
X0387953Y0156969D02*
D03*
Y0153032D02*
D03*
D93*
X0104252Y0108268D02*
D03*
X0114252Y0082677D02*
D03*
X0104252D02*
D03*
X0114252Y0108268D02*
D03*
X0188110D02*
D03*
X0198110Y0082677D02*
D03*
X0188110D02*
D03*
X0198110Y0108268D02*
D03*
X0271969D02*
D03*
X0281969Y0082677D02*
D03*
X0271969D02*
D03*
X0281969Y0108268D02*
D03*
X0355827D02*
D03*
X0365827Y0082677D02*
D03*
X0355827D02*
D03*
X0365827Y0108268D02*
D03*
X0439685D02*
D03*
X0449685Y0082677D02*
D03*
X0439685D02*
D03*
X0449685Y0108268D02*
D03*
D94*
X0075512Y0178347D02*
D03*
Y0185827D02*
D03*
X0086142D02*
D03*
Y0178347D02*
D03*
X0075512Y0182087D02*
D03*
X0049882Y0330787D02*
D03*
Y0323150D02*
D03*
X0042244Y0326969D02*
D03*
X0049882Y0343386D02*
D03*
Y0335748D02*
D03*
X0042244Y0339567D02*
D03*
X0100236Y0130157D02*
D03*
Y0122520D02*
D03*
X0092598Y0126339D02*
D03*
X0159370Y0178347D02*
D03*
Y0185827D02*
D03*
X0170000D02*
D03*
Y0178347D02*
D03*
X0159370Y0182087D02*
D03*
X0133740Y0330787D02*
D03*
Y0323150D02*
D03*
X0126102Y0326969D02*
D03*
X0133740Y0343386D02*
D03*
Y0335748D02*
D03*
X0126102Y0339567D02*
D03*
X0184095Y0130157D02*
D03*
Y0122520D02*
D03*
X0176457Y0126339D02*
D03*
X0243229Y0178347D02*
D03*
Y0185827D02*
D03*
X0253858D02*
D03*
Y0178347D02*
D03*
X0243229Y0182087D02*
D03*
X0217599Y0330787D02*
D03*
Y0323150D02*
D03*
X0209961Y0326969D02*
D03*
X0217599Y0343386D02*
D03*
Y0335748D02*
D03*
X0209961Y0339567D02*
D03*
X0267953Y0130157D02*
D03*
Y0122520D02*
D03*
X0260315Y0126339D02*
D03*
X0327087Y0178347D02*
D03*
Y0185827D02*
D03*
X0337717D02*
D03*
Y0178347D02*
D03*
X0327087Y0182087D02*
D03*
X0301457Y0330787D02*
D03*
Y0323150D02*
D03*
X0293819Y0326969D02*
D03*
X0301457Y0343386D02*
D03*
Y0335748D02*
D03*
X0293819Y0339567D02*
D03*
X0351811Y0130157D02*
D03*
Y0122520D02*
D03*
X0344173Y0126339D02*
D03*
X0410945Y0178347D02*
D03*
Y0185827D02*
D03*
X0421575D02*
D03*
Y0178347D02*
D03*
X0410945Y0182087D02*
D03*
X0385315Y0330787D02*
D03*
Y0323150D02*
D03*
X0377677Y0326969D02*
D03*
X0385315Y0343386D02*
D03*
Y0335748D02*
D03*
X0377677Y0339567D02*
D03*
X0435670Y0130157D02*
D03*
Y0122520D02*
D03*
X0428032Y0126339D02*
D03*
D95*
X0053780Y0216181D02*
D03*
X0055748D02*
D03*
X0057717D02*
D03*
X0059685D02*
D03*
X0061654D02*
D03*
X0063622D02*
D03*
X0065591D02*
D03*
X0067559D02*
D03*
Y0218150D02*
D03*
X0055748Y0220118D02*
D03*
X0057717D02*
D03*
X0059685D02*
D03*
X0061654D02*
D03*
X0063622D02*
D03*
X0067559D02*
D03*
X0055748Y0222087D02*
D03*
X0057717D02*
D03*
X0061654D02*
D03*
X0067559D02*
D03*
X0055748Y0224055D02*
D03*
X0063622D02*
D03*
X0067559D02*
D03*
X0055748Y0226024D02*
D03*
X0057717D02*
D03*
X0061654D02*
D03*
X0063622D02*
D03*
X0067559D02*
D03*
X0055748Y0227992D02*
D03*
X0057717D02*
D03*
X0059685D02*
D03*
X0061654D02*
D03*
X0063622D02*
D03*
X0067559D02*
D03*
Y0229961D02*
D03*
X0053780Y0231929D02*
D03*
X0055748D02*
D03*
X0057717D02*
D03*
X0059685D02*
D03*
X0061654D02*
D03*
X0063622D02*
D03*
X0065591D02*
D03*
X0067559D02*
D03*
X0051811Y0216181D02*
D03*
Y0218150D02*
D03*
Y0220118D02*
D03*
Y0222087D02*
D03*
Y0224055D02*
D03*
Y0226024D02*
D03*
Y0227992D02*
D03*
Y0229961D02*
D03*
Y0231929D02*
D03*
X0137638Y0216181D02*
D03*
X0139606D02*
D03*
X0141575D02*
D03*
X0143544D02*
D03*
X0145512D02*
D03*
X0147480D02*
D03*
X0149449D02*
D03*
X0151418D02*
D03*
Y0218150D02*
D03*
X0139606Y0220118D02*
D03*
X0141575D02*
D03*
X0143544D02*
D03*
X0145512D02*
D03*
X0147480D02*
D03*
X0151418D02*
D03*
X0139606Y0222087D02*
D03*
X0141575D02*
D03*
X0145512D02*
D03*
X0151418D02*
D03*
X0139606Y0224055D02*
D03*
X0147480D02*
D03*
X0151418D02*
D03*
X0139606Y0226024D02*
D03*
X0141575D02*
D03*
X0145512D02*
D03*
X0147480D02*
D03*
X0151418D02*
D03*
X0139606Y0227992D02*
D03*
X0141575D02*
D03*
X0143544D02*
D03*
X0145512D02*
D03*
X0147480D02*
D03*
X0151418D02*
D03*
Y0229961D02*
D03*
X0137638Y0231929D02*
D03*
X0139606D02*
D03*
X0141575D02*
D03*
X0143544D02*
D03*
X0145512D02*
D03*
X0147480D02*
D03*
X0149449D02*
D03*
X0151418D02*
D03*
X0135669Y0216181D02*
D03*
Y0218150D02*
D03*
Y0220118D02*
D03*
Y0222087D02*
D03*
Y0224055D02*
D03*
Y0226024D02*
D03*
Y0227992D02*
D03*
Y0229961D02*
D03*
Y0231929D02*
D03*
X0221496Y0216181D02*
D03*
X0223465D02*
D03*
X0225433D02*
D03*
X0227402D02*
D03*
X0229370D02*
D03*
X0231339D02*
D03*
X0233307D02*
D03*
X0235276D02*
D03*
Y0218150D02*
D03*
X0223465Y0220118D02*
D03*
X0225433D02*
D03*
X0227402D02*
D03*
X0229370D02*
D03*
X0231339D02*
D03*
X0235276D02*
D03*
X0223465Y0222087D02*
D03*
X0225433D02*
D03*
X0229370D02*
D03*
X0235276D02*
D03*
X0223465Y0224055D02*
D03*
X0231339D02*
D03*
X0235276D02*
D03*
X0223465Y0226024D02*
D03*
X0225433D02*
D03*
X0229370D02*
D03*
X0231339D02*
D03*
X0235276D02*
D03*
X0223465Y0227992D02*
D03*
X0225433D02*
D03*
X0227402D02*
D03*
X0229370D02*
D03*
X0231339D02*
D03*
X0235276D02*
D03*
Y0229961D02*
D03*
X0221496Y0231929D02*
D03*
X0223465D02*
D03*
X0225433D02*
D03*
X0227402D02*
D03*
X0229370D02*
D03*
X0231339D02*
D03*
X0233307D02*
D03*
X0235276D02*
D03*
X0219528Y0216181D02*
D03*
Y0218150D02*
D03*
Y0220118D02*
D03*
Y0222087D02*
D03*
Y0224055D02*
D03*
Y0226024D02*
D03*
Y0227992D02*
D03*
Y0229961D02*
D03*
Y0231929D02*
D03*
X0305354Y0216181D02*
D03*
X0307323D02*
D03*
X0309292D02*
D03*
X0311260D02*
D03*
X0313229D02*
D03*
X0315197D02*
D03*
X0317166D02*
D03*
X0319134D02*
D03*
Y0218150D02*
D03*
X0307323Y0220118D02*
D03*
X0309292D02*
D03*
X0311260D02*
D03*
X0313229D02*
D03*
X0315197D02*
D03*
X0319134D02*
D03*
X0307323Y0222087D02*
D03*
X0309292D02*
D03*
X0313229D02*
D03*
X0319134D02*
D03*
X0307323Y0224055D02*
D03*
X0315197D02*
D03*
X0319134D02*
D03*
X0307323Y0226024D02*
D03*
X0309292D02*
D03*
X0313229D02*
D03*
X0315197D02*
D03*
X0319134D02*
D03*
X0307323Y0227992D02*
D03*
X0309292D02*
D03*
X0311260D02*
D03*
X0313229D02*
D03*
X0315197D02*
D03*
X0319134D02*
D03*
Y0229961D02*
D03*
X0305354Y0231929D02*
D03*
X0307323D02*
D03*
X0309292D02*
D03*
X0311260D02*
D03*
X0313229D02*
D03*
X0315197D02*
D03*
X0317166D02*
D03*
X0319134D02*
D03*
X0303386Y0216181D02*
D03*
Y0218150D02*
D03*
Y0220118D02*
D03*
Y0222087D02*
D03*
Y0224055D02*
D03*
Y0226024D02*
D03*
Y0227992D02*
D03*
Y0229961D02*
D03*
Y0231929D02*
D03*
X0389213Y0216181D02*
D03*
X0391181D02*
D03*
X0393150D02*
D03*
X0395118D02*
D03*
X0397087D02*
D03*
X0399055D02*
D03*
X0401024D02*
D03*
X0402992D02*
D03*
Y0218150D02*
D03*
X0391181Y0220118D02*
D03*
X0393150D02*
D03*
X0395118D02*
D03*
X0397087D02*
D03*
X0399055D02*
D03*
X0402992D02*
D03*
X0391181Y0222087D02*
D03*
X0393150D02*
D03*
X0397087D02*
D03*
X0402992D02*
D03*
X0391181Y0224055D02*
D03*
X0399055D02*
D03*
X0402992D02*
D03*
X0391181Y0226024D02*
D03*
X0393150D02*
D03*
X0397087D02*
D03*
X0399055D02*
D03*
X0402992D02*
D03*
X0391181Y0227992D02*
D03*
X0393150D02*
D03*
X0395118D02*
D03*
X0397087D02*
D03*
X0399055D02*
D03*
X0402992D02*
D03*
Y0229961D02*
D03*
X0389213Y0231929D02*
D03*
X0391181D02*
D03*
X0393150D02*
D03*
X0395118D02*
D03*
X0397087D02*
D03*
X0399055D02*
D03*
X0401024D02*
D03*
X0402992D02*
D03*
X0387244Y0216181D02*
D03*
Y0218150D02*
D03*
Y0220118D02*
D03*
Y0222087D02*
D03*
Y0224055D02*
D03*
Y0226024D02*
D03*
Y0227992D02*
D03*
Y0229961D02*
D03*
Y0231929D02*
D03*
D96*
X0063384Y0286651D02*
D03*
X0060711Y0283979D02*
D03*
X0147242Y0286651D02*
D03*
X0144569Y0283979D02*
D03*
X0231100Y0286651D02*
D03*
X0228428Y0283979D02*
D03*
X0314959Y0286651D02*
D03*
X0312286Y0283979D02*
D03*
X0398817Y0286651D02*
D03*
X0396144Y0283979D02*
D03*
D97*
X0046536Y0305591D02*
D03*
X0050315D02*
D03*
X0065354Y0305591D02*
D03*
X0069134D02*
D03*
X0107225Y0229921D02*
D03*
X0103445D02*
D03*
X0058543Y0305591D02*
D03*
X0054764D02*
D03*
X0107264Y0225394D02*
D03*
X0103484D02*
D03*
X0059764Y0347441D02*
D03*
X0055984D02*
D03*
X0096535Y0117126D02*
D03*
X0100315D02*
D03*
X0103445Y0220866D02*
D03*
X0107225D02*
D03*
X0066339Y0181969D02*
D03*
X0062559D02*
D03*
X0062717Y0152677D02*
D03*
X0058937D02*
D03*
X0130394Y0305591D02*
D03*
X0134173D02*
D03*
X0149213Y0305591D02*
D03*
X0152992D02*
D03*
X0191083Y0229921D02*
D03*
X0187303D02*
D03*
X0142402Y0305591D02*
D03*
X0138622D02*
D03*
X0191122Y0225394D02*
D03*
X0187343D02*
D03*
X0143622Y0347441D02*
D03*
X0139843D02*
D03*
X0180394Y0117126D02*
D03*
X0184173D02*
D03*
X0187303Y0220866D02*
D03*
X0191083D02*
D03*
X0150197Y0181969D02*
D03*
X0146417D02*
D03*
X0146575Y0152677D02*
D03*
X0142795D02*
D03*
X0214252Y0305591D02*
D03*
X0218032D02*
D03*
X0233071Y0305591D02*
D03*
X0236851D02*
D03*
X0274941Y0229921D02*
D03*
X0271162D02*
D03*
X0226260Y0305591D02*
D03*
X0222481D02*
D03*
X0274980Y0225394D02*
D03*
X0271201D02*
D03*
X0227481Y0347441D02*
D03*
X0223701D02*
D03*
X0264252Y0117126D02*
D03*
X0268032D02*
D03*
X0271162Y0220866D02*
D03*
X0274941D02*
D03*
X0234055Y0181969D02*
D03*
X0230276D02*
D03*
X0230433Y0152677D02*
D03*
X0226654D02*
D03*
X0298110Y0305591D02*
D03*
X0301890D02*
D03*
X0316929Y0305591D02*
D03*
X0320709D02*
D03*
X0358799Y0229921D02*
D03*
X0355020D02*
D03*
X0310118Y0305591D02*
D03*
X0306339D02*
D03*
X0358839Y0225394D02*
D03*
X0355059D02*
D03*
X0311339Y0347441D02*
D03*
X0307559D02*
D03*
X0348110Y0117126D02*
D03*
X0351890D02*
D03*
X0355020Y0220866D02*
D03*
X0358799D02*
D03*
X0317914Y0181969D02*
D03*
X0314134D02*
D03*
X0314292Y0152677D02*
D03*
X0310512D02*
D03*
X0381969Y0305591D02*
D03*
X0385748D02*
D03*
X0400788Y0305591D02*
D03*
X0404567D02*
D03*
X0442658Y0229921D02*
D03*
X0438878D02*
D03*
X0393977Y0305591D02*
D03*
X0390197D02*
D03*
X0442697Y0225394D02*
D03*
X0438918D02*
D03*
X0395197Y0347441D02*
D03*
X0391418D02*
D03*
X0431969Y0117126D02*
D03*
X0435748D02*
D03*
X0438878Y0220866D02*
D03*
X0442658D02*
D03*
X0401772Y0181969D02*
D03*
X0397992D02*
D03*
X0398150Y0152677D02*
D03*
X0394370D02*
D03*
D98*
X0109410Y0235315D02*
D03*
X0103504D02*
D03*
X0059016Y0176535D02*
D03*
X0064921D02*
D03*
X0064882Y0158031D02*
D03*
X0058977D02*
D03*
X0065906Y0146654D02*
D03*
X0060000D02*
D03*
X0193268Y0235315D02*
D03*
X0187362D02*
D03*
X0142874Y0176535D02*
D03*
X0148780D02*
D03*
X0148740Y0158031D02*
D03*
X0142835D02*
D03*
X0149764Y0146654D02*
D03*
X0143858D02*
D03*
X0277126Y0235315D02*
D03*
X0271221D02*
D03*
X0226732Y0176535D02*
D03*
X0232638D02*
D03*
X0232599Y0158031D02*
D03*
X0226693D02*
D03*
X0233622Y0146654D02*
D03*
X0227717D02*
D03*
X0360984Y0235315D02*
D03*
X0355079D02*
D03*
X0310591Y0176535D02*
D03*
X0316496D02*
D03*
X0316457Y0158031D02*
D03*
X0310551D02*
D03*
X0317480Y0146654D02*
D03*
X0311575D02*
D03*
X0444843Y0235315D02*
D03*
X0438937D02*
D03*
X0394449Y0176535D02*
D03*
X0400355D02*
D03*
X0400315Y0158031D02*
D03*
X0394410D02*
D03*
X0401339Y0146654D02*
D03*
X0395433D02*
D03*
D99*
X0112347Y0256422D02*
D03*
X0110120Y0254195D02*
D03*
X0107865Y0251940D02*
D03*
X0105638Y0249713D02*
D03*
X0103411Y0247486D02*
D03*
X0101184Y0245259D02*
D03*
X0098984Y0243060D02*
D03*
X0096730Y0240805D02*
D03*
X0094503Y0238578D02*
D03*
X0092303Y0236378D02*
D03*
X0090048Y0234123D02*
D03*
X0087849Y0231924D02*
D03*
X0054980Y0264766D02*
D03*
X0057209Y0266995D02*
D03*
X0059442Y0269228D02*
D03*
X0061661Y0271447D02*
D03*
X0063888Y0273674D02*
D03*
X0066115Y0275901D02*
D03*
X0068334Y0278109D02*
D03*
X0070589Y0280364D02*
D03*
X0072816Y0282591D02*
D03*
X0075015Y0284790D02*
D03*
X0077270Y0287045D02*
D03*
X0079497Y0289272D02*
D03*
X0196205Y0256422D02*
D03*
X0193978Y0254195D02*
D03*
X0191723Y0251940D02*
D03*
X0189496Y0249713D02*
D03*
X0187269Y0247486D02*
D03*
X0185042Y0245259D02*
D03*
X0182843Y0243060D02*
D03*
X0180588Y0240805D02*
D03*
X0178361Y0238578D02*
D03*
X0176162Y0236378D02*
D03*
X0173907Y0234123D02*
D03*
X0171707Y0231924D02*
D03*
X0138838Y0264766D02*
D03*
X0141068Y0266995D02*
D03*
X0143300Y0269228D02*
D03*
X0145519Y0271447D02*
D03*
X0147746Y0273674D02*
D03*
X0149973Y0275901D02*
D03*
X0152192Y0278109D02*
D03*
X0154447Y0280364D02*
D03*
X0156674Y0282591D02*
D03*
X0158874Y0284790D02*
D03*
X0161128Y0287045D02*
D03*
X0163356Y0289272D02*
D03*
X0280064Y0256422D02*
D03*
X0277837Y0254195D02*
D03*
X0275582Y0251940D02*
D03*
X0273355Y0249713D02*
D03*
X0271128Y0247486D02*
D03*
X0268900Y0245259D02*
D03*
X0266701Y0243060D02*
D03*
X0264446Y0240805D02*
D03*
X0262219Y0238578D02*
D03*
X0260020Y0236378D02*
D03*
X0257765Y0234123D02*
D03*
X0255566Y0231924D02*
D03*
X0222696Y0264766D02*
D03*
X0224926Y0266995D02*
D03*
X0227159Y0269228D02*
D03*
X0229378Y0271447D02*
D03*
X0231605Y0273674D02*
D03*
X0233832Y0275901D02*
D03*
X0236051Y0278109D02*
D03*
X0238305Y0280364D02*
D03*
X0240533Y0282591D02*
D03*
X0242732Y0284790D02*
D03*
X0244987Y0287045D02*
D03*
X0247214Y0289272D02*
D03*
X0363922Y0256422D02*
D03*
X0361695Y0254195D02*
D03*
X0359440Y0251940D02*
D03*
X0357213Y0249713D02*
D03*
X0354986Y0247486D02*
D03*
X0352759Y0245259D02*
D03*
X0350559Y0243060D02*
D03*
X0348305Y0240805D02*
D03*
X0346077Y0238578D02*
D03*
X0343878Y0236378D02*
D03*
X0341623Y0234123D02*
D03*
X0339424Y0231924D02*
D03*
X0306555Y0264766D02*
D03*
X0308784Y0266995D02*
D03*
X0311017Y0269228D02*
D03*
X0313236Y0271447D02*
D03*
X0315463Y0273674D02*
D03*
X0317690Y0275901D02*
D03*
X0319909Y0278109D02*
D03*
X0322164Y0280364D02*
D03*
X0324391Y0282591D02*
D03*
X0326590Y0284790D02*
D03*
X0328845Y0287045D02*
D03*
X0331072Y0289272D02*
D03*
X0447780Y0256422D02*
D03*
X0445553Y0254195D02*
D03*
X0443298Y0251940D02*
D03*
X0441071Y0249713D02*
D03*
X0438844Y0247486D02*
D03*
X0436617Y0245259D02*
D03*
X0434418Y0243060D02*
D03*
X0432163Y0240805D02*
D03*
X0429936Y0238578D02*
D03*
X0427736Y0236378D02*
D03*
X0425482Y0234123D02*
D03*
X0423282Y0231924D02*
D03*
X0390413Y0264766D02*
D03*
X0392643Y0266995D02*
D03*
X0394875Y0269228D02*
D03*
X0397094Y0271447D02*
D03*
X0399321Y0273674D02*
D03*
X0401548Y0275901D02*
D03*
X0403767Y0278109D02*
D03*
X0406022Y0280364D02*
D03*
X0408249Y0282591D02*
D03*
X0410449Y0284790D02*
D03*
X0412703Y0287045D02*
D03*
X0414930Y0289272D02*
D03*
D100*
X0080736Y0233163D02*
D03*
X0078504Y0235396D02*
D03*
X0076276Y0237623D02*
D03*
X0074049Y0239850D02*
D03*
X0071822Y0242077D02*
D03*
X0069595Y0244304D02*
D03*
X0067368Y0246531D02*
D03*
X0065144Y0248761D02*
D03*
X0062916Y0250988D02*
D03*
X0060687Y0253212D02*
D03*
X0058440Y0255459D02*
D03*
X0056099Y0257800D02*
D03*
X0086568Y0288047D02*
D03*
X0088823Y0285792D02*
D03*
X0091023Y0283593D02*
D03*
X0093250Y0281366D02*
D03*
X0095477Y0279139D02*
D03*
X0097704Y0276912D02*
D03*
X0099931Y0274685D02*
D03*
X0102158Y0272457D02*
D03*
X0104385Y0270230D02*
D03*
X0106612Y0268003D02*
D03*
X0108839Y0265776D02*
D03*
X0111094Y0263521D02*
D03*
X0164594Y0233163D02*
D03*
X0162362Y0235396D02*
D03*
X0160135Y0237623D02*
D03*
X0157908Y0239850D02*
D03*
X0155680Y0242077D02*
D03*
X0153453Y0244304D02*
D03*
X0151226Y0246531D02*
D03*
X0149002Y0248761D02*
D03*
X0146775Y0250988D02*
D03*
X0144545Y0253212D02*
D03*
X0142298Y0255459D02*
D03*
X0139957Y0257800D02*
D03*
X0170427Y0288047D02*
D03*
X0172682Y0285792D02*
D03*
X0174881Y0283593D02*
D03*
X0177108Y0281366D02*
D03*
X0179335Y0279139D02*
D03*
X0181562Y0276912D02*
D03*
X0183789Y0274685D02*
D03*
X0186016Y0272457D02*
D03*
X0188244Y0270230D02*
D03*
X0190471Y0268003D02*
D03*
X0192698Y0265776D02*
D03*
X0194953Y0263521D02*
D03*
X0248453Y0233163D02*
D03*
X0246220Y0235396D02*
D03*
X0243993Y0237623D02*
D03*
X0241766Y0239850D02*
D03*
X0239539Y0242077D02*
D03*
X0237312Y0244304D02*
D03*
X0235085Y0246531D02*
D03*
X0232860Y0248761D02*
D03*
X0230633Y0250988D02*
D03*
X0228403Y0253212D02*
D03*
X0226157Y0255459D02*
D03*
X0223815Y0257800D02*
D03*
X0254285Y0288047D02*
D03*
X0256540Y0285792D02*
D03*
X0258739Y0283593D02*
D03*
X0260966Y0281366D02*
D03*
X0263193Y0279139D02*
D03*
X0265421Y0276912D02*
D03*
X0267648Y0274685D02*
D03*
X0269875Y0272457D02*
D03*
X0272102Y0270230D02*
D03*
X0274329Y0268003D02*
D03*
X0276556Y0265776D02*
D03*
X0278811Y0263521D02*
D03*
X0332311Y0233163D02*
D03*
X0330078Y0235396D02*
D03*
X0327851Y0237623D02*
D03*
X0325624Y0239850D02*
D03*
X0323397Y0242077D02*
D03*
X0321170Y0244304D02*
D03*
X0318943Y0246531D02*
D03*
X0316719Y0248761D02*
D03*
X0314491Y0250988D02*
D03*
X0312262Y0253212D02*
D03*
X0310015Y0255459D02*
D03*
X0307674Y0257800D02*
D03*
X0338143Y0288047D02*
D03*
X0340398Y0285792D02*
D03*
X0342598Y0283593D02*
D03*
X0344825Y0281366D02*
D03*
X0347052Y0279139D02*
D03*
X0349279Y0276912D02*
D03*
X0351506Y0274685D02*
D03*
X0353733Y0272457D02*
D03*
X0355960Y0270230D02*
D03*
X0358187Y0268003D02*
D03*
X0360414Y0265776D02*
D03*
X0362669Y0263521D02*
D03*
X0416169Y0233163D02*
D03*
X0413937Y0235396D02*
D03*
X0411710Y0237623D02*
D03*
X0409482Y0239850D02*
D03*
X0407255Y0242077D02*
D03*
X0405028Y0244304D02*
D03*
X0402801Y0246531D02*
D03*
X0400577Y0248761D02*
D03*
X0398350Y0250988D02*
D03*
X0396120Y0253212D02*
D03*
X0393873Y0255459D02*
D03*
X0391532Y0257800D02*
D03*
X0422002Y0288047D02*
D03*
X0424257Y0285792D02*
D03*
X0426456Y0283593D02*
D03*
X0428683Y0281366D02*
D03*
X0430910Y0279139D02*
D03*
X0433137Y0276912D02*
D03*
X0435364Y0274685D02*
D03*
X0437591Y0272457D02*
D03*
X0439818Y0270230D02*
D03*
X0442046Y0268003D02*
D03*
X0444273Y0265776D02*
D03*
X0446528Y0263521D02*
D03*
D101*
X0097573Y0260590D02*
D03*
X0181431D02*
D03*
X0265290D02*
D03*
X0349148D02*
D03*
X0433006D02*
D03*
D102*
X0090613Y0267549D02*
D03*
X0083654Y0274509D02*
D03*
X0090613Y0253630D02*
D03*
X0083654Y0260590D02*
D03*
X0076694Y0267549D02*
D03*
X0083723Y0246601D02*
D03*
X0076694Y0253630D02*
D03*
X0069734Y0260590D02*
D03*
X0174472Y0267549D02*
D03*
X0167512Y0274509D02*
D03*
X0174472Y0253630D02*
D03*
X0167512Y0260590D02*
D03*
X0160552Y0267549D02*
D03*
X0167582Y0246601D02*
D03*
X0160552Y0253630D02*
D03*
X0153593Y0260590D02*
D03*
X0258330Y0267549D02*
D03*
X0251370Y0274509D02*
D03*
X0258330Y0253630D02*
D03*
X0251370Y0260590D02*
D03*
X0244411Y0267549D02*
D03*
X0251440Y0246601D02*
D03*
X0244411Y0253630D02*
D03*
X0237451Y0260590D02*
D03*
X0342188Y0267549D02*
D03*
X0335229Y0274509D02*
D03*
X0342188Y0253630D02*
D03*
X0335229Y0260590D02*
D03*
X0328269Y0267549D02*
D03*
X0335298Y0246601D02*
D03*
X0328269Y0253630D02*
D03*
X0321309Y0260590D02*
D03*
X0426047Y0267549D02*
D03*
X0419087Y0274509D02*
D03*
X0426047Y0253630D02*
D03*
X0419087Y0260590D02*
D03*
X0412127Y0267549D02*
D03*
X0419157Y0246601D02*
D03*
X0412127Y0253630D02*
D03*
X0405167Y0260590D02*
D03*
D103*
X0050158Y0297362D02*
D03*
X0054095D02*
D03*
X0134016D02*
D03*
X0137953D02*
D03*
X0217874D02*
D03*
X0221811D02*
D03*
X0301732D02*
D03*
X0305669D02*
D03*
X0385591D02*
D03*
X0389528D02*
D03*
D104*
X0046614Y0283760D02*
D03*
Y0281988D02*
D03*
X0048386Y0283760D02*
D03*
Y0281988D02*
D03*
X0050158Y0283760D02*
D03*
Y0281988D02*
D03*
X0130473Y0283760D02*
D03*
Y0281988D02*
D03*
X0132244Y0283760D02*
D03*
Y0281988D02*
D03*
X0134016Y0283760D02*
D03*
Y0281988D02*
D03*
X0214331Y0283760D02*
D03*
Y0281988D02*
D03*
X0216103Y0283760D02*
D03*
Y0281988D02*
D03*
X0217874Y0283760D02*
D03*
Y0281988D02*
D03*
X0298189Y0283760D02*
D03*
Y0281988D02*
D03*
X0299961Y0283760D02*
D03*
Y0281988D02*
D03*
X0301732Y0283760D02*
D03*
Y0281988D02*
D03*
X0382048Y0283760D02*
D03*
Y0281988D02*
D03*
X0383819Y0283760D02*
D03*
Y0281988D02*
D03*
X0385591Y0283760D02*
D03*
Y0281988D02*
D03*
D105*
X0063984Y0296260D02*
D03*
X0147843D02*
D03*
X0231701D02*
D03*
X0315559D02*
D03*
X0399418D02*
D03*
D106*
X0062016Y0292335D02*
D03*
X0063984Y0292473D02*
D03*
X0065953Y0292335D02*
D03*
Y0300187D02*
D03*
X0063984Y0300049D02*
D03*
X0062016Y0300187D02*
D03*
X0145874Y0292335D02*
D03*
X0147843Y0292473D02*
D03*
X0149811Y0292335D02*
D03*
Y0300187D02*
D03*
X0147843Y0300049D02*
D03*
X0145874Y0300187D02*
D03*
X0229732Y0292335D02*
D03*
X0231701Y0292473D02*
D03*
X0233669Y0292335D02*
D03*
Y0300187D02*
D03*
X0231701Y0300049D02*
D03*
X0229732Y0300187D02*
D03*
X0313591Y0292335D02*
D03*
X0315559Y0292473D02*
D03*
X0317528Y0292335D02*
D03*
Y0300187D02*
D03*
X0315559Y0300049D02*
D03*
X0313591Y0300187D02*
D03*
X0397449Y0292335D02*
D03*
X0399418Y0292473D02*
D03*
X0401386Y0292335D02*
D03*
Y0300187D02*
D03*
X0399418Y0300049D02*
D03*
X0397449Y0300187D02*
D03*
D107*
X0067910Y0294291D02*
D03*
X0067772Y0296260D02*
D03*
X0067910Y0298228D02*
D03*
X0060059D02*
D03*
X0060197Y0296260D02*
D03*
X0060059Y0294291D02*
D03*
X0151768D02*
D03*
X0151630Y0296260D02*
D03*
X0151768Y0298228D02*
D03*
X0143918D02*
D03*
X0144055Y0296260D02*
D03*
X0143918Y0294291D02*
D03*
X0235626D02*
D03*
X0235488Y0296260D02*
D03*
X0235626Y0298228D02*
D03*
X0227776D02*
D03*
X0227914Y0296260D02*
D03*
X0227776Y0294291D02*
D03*
X0319484D02*
D03*
X0319347Y0296260D02*
D03*
X0319484Y0298228D02*
D03*
X0311634D02*
D03*
X0311772Y0296260D02*
D03*
X0311634Y0294291D02*
D03*
X0403343D02*
D03*
X0403205Y0296260D02*
D03*
X0403343Y0298228D02*
D03*
X0395492D02*
D03*
X0395630Y0296260D02*
D03*
X0395492Y0294291D02*
D03*
D108*
X0057568Y0281290D02*
D03*
X0054952Y0283907D02*
D03*
X0141427Y0281290D02*
D03*
X0138810Y0283907D02*
D03*
X0225285Y0281290D02*
D03*
X0222668Y0283907D02*
D03*
X0309143Y0281290D02*
D03*
X0306526Y0283907D02*
D03*
X0393002Y0281290D02*
D03*
X0390385Y0283907D02*
D03*
D109*
X0053858Y0272795D02*
D03*
X0053858Y0274961D02*
D03*
Y0277126D02*
D03*
X0049921Y0272795D02*
D03*
Y0274961D02*
D03*
X0049921Y0277126D02*
D03*
X0137717Y0272795D02*
D03*
X0137717Y0274961D02*
D03*
Y0277126D02*
D03*
X0133780Y0272795D02*
D03*
Y0274961D02*
D03*
X0133780Y0277126D02*
D03*
X0221575Y0272795D02*
D03*
X0221575Y0274961D02*
D03*
Y0277126D02*
D03*
X0217638Y0272795D02*
D03*
Y0274961D02*
D03*
X0217638Y0277126D02*
D03*
X0305433Y0272795D02*
D03*
X0305433Y0274961D02*
D03*
Y0277126D02*
D03*
X0301496Y0272795D02*
D03*
Y0274961D02*
D03*
X0301496Y0277126D02*
D03*
X0389292Y0272795D02*
D03*
X0389292Y0274961D02*
D03*
Y0277126D02*
D03*
X0385355Y0272795D02*
D03*
Y0274961D02*
D03*
X0385355Y0277126D02*
D03*
D110*
X0104408Y0154319D02*
D03*
X0188266D02*
D03*
X0272125D02*
D03*
X0355983D02*
D03*
X0439841D02*
D03*
D111*
X0107361Y0160028D02*
D03*
X0105392D02*
D03*
X0103424D02*
D03*
X0101455D02*
D03*
Y0148611D02*
D03*
X0103424D02*
D03*
X0105392D02*
D03*
X0107361D02*
D03*
X0191219Y0160028D02*
D03*
X0189251D02*
D03*
X0187282D02*
D03*
X0185314D02*
D03*
Y0148611D02*
D03*
X0187282D02*
D03*
X0189251D02*
D03*
X0191219D02*
D03*
X0275077Y0160028D02*
D03*
X0273109D02*
D03*
X0271140D02*
D03*
X0269172D02*
D03*
Y0148611D02*
D03*
X0271140D02*
D03*
X0273109D02*
D03*
X0275077D02*
D03*
X0358936Y0160028D02*
D03*
X0356967D02*
D03*
X0354999D02*
D03*
X0353030D02*
D03*
Y0148611D02*
D03*
X0354999D02*
D03*
X0356967D02*
D03*
X0358936D02*
D03*
X0442794Y0160028D02*
D03*
X0440826D02*
D03*
X0438857D02*
D03*
X0436889D02*
D03*
Y0148611D02*
D03*
X0438857D02*
D03*
X0440826D02*
D03*
X0442794D02*
D03*
D112*
X0093819Y0178465D02*
D03*
X0107992D02*
D03*
X0177677D02*
D03*
X0191850D02*
D03*
X0261536D02*
D03*
X0275709D02*
D03*
X0345394D02*
D03*
X0359567D02*
D03*
X0429252D02*
D03*
X0443425D02*
D03*
D113*
X0060236Y0340354D02*
D03*
X0058268D02*
D03*
X0056299D02*
D03*
Y0334843D02*
D03*
X0058268D02*
D03*
X0060236D02*
D03*
X0144095Y0340354D02*
D03*
X0142126D02*
D03*
X0140158D02*
D03*
Y0334843D02*
D03*
X0142126D02*
D03*
X0144095D02*
D03*
X0227953Y0340354D02*
D03*
X0225984D02*
D03*
X0224016D02*
D03*
Y0334843D02*
D03*
X0225984D02*
D03*
X0227953D02*
D03*
X0311811Y0340354D02*
D03*
X0309843D02*
D03*
X0307874D02*
D03*
Y0334843D02*
D03*
X0309843D02*
D03*
X0311811D02*
D03*
X0395670Y0340354D02*
D03*
X0393701D02*
D03*
X0391733D02*
D03*
Y0334843D02*
D03*
X0393701D02*
D03*
X0395670D02*
D03*
D114*
X0115945Y0134370D02*
D03*
Y0130433D02*
D03*
X0199803Y0134370D02*
D03*
Y0130433D02*
D03*
X0283662Y0134370D02*
D03*
Y0130433D02*
D03*
X0367520Y0134370D02*
D03*
Y0130433D02*
D03*
X0451378Y0134370D02*
D03*
Y0130433D02*
D03*
D115*
X0067349Y0236221D02*
D03*
X0061838D02*
D03*
X0151208D02*
D03*
X0145696D02*
D03*
X0235066D02*
D03*
X0229554D02*
D03*
X0318924D02*
D03*
X0313412D02*
D03*
X0402782D02*
D03*
X0397271D02*
D03*
D116*
X0051299Y0238445D02*
D03*
X0053268D02*
D03*
X0055236D02*
D03*
X0051299Y0243760D02*
D03*
X0053268D02*
D03*
X0055236D02*
D03*
X0135158Y0238445D02*
D03*
X0137126D02*
D03*
X0139095D02*
D03*
X0135158Y0243760D02*
D03*
X0137126D02*
D03*
X0139095D02*
D03*
X0219016Y0238445D02*
D03*
X0220984D02*
D03*
X0222953D02*
D03*
X0219016Y0243760D02*
D03*
X0220984D02*
D03*
X0222953D02*
D03*
X0302874Y0238445D02*
D03*
X0304843D02*
D03*
X0306811D02*
D03*
X0302874Y0243760D02*
D03*
X0304843D02*
D03*
X0306811D02*
D03*
X0386733Y0238445D02*
D03*
X0388701D02*
D03*
X0390669D02*
D03*
X0386733Y0243760D02*
D03*
X0388701D02*
D03*
X0390669D02*
D03*
D117*
X0066378Y0107126D02*
D03*
X0070197Y0114764D02*
D03*
X0062559D02*
D03*
X0150236Y0107126D02*
D03*
X0154055Y0114764D02*
D03*
X0146417D02*
D03*
X0234095Y0107126D02*
D03*
X0237914Y0114764D02*
D03*
X0230276D02*
D03*
X0317953Y0107126D02*
D03*
X0321772Y0114764D02*
D03*
X0314134D02*
D03*
X0401811Y0107126D02*
D03*
X0405630Y0114764D02*
D03*
X0397992D02*
D03*
D118*
X0108209Y0212756D02*
D03*
X0192067D02*
D03*
X0275925D02*
D03*
X0359784D02*
D03*
X0443642D02*
D03*
D119*
X0105256Y0208622D02*
D03*
X0107225D02*
D03*
X0109193D02*
D03*
X0111161D02*
D03*
Y0216890D02*
D03*
X0109193D02*
D03*
X0107225D02*
D03*
X0105256D02*
D03*
X0189114Y0208622D02*
D03*
X0191083D02*
D03*
X0193051D02*
D03*
X0195020D02*
D03*
Y0216890D02*
D03*
X0193051D02*
D03*
X0191083D02*
D03*
X0189114D02*
D03*
X0272973Y0208622D02*
D03*
X0274941D02*
D03*
X0276910D02*
D03*
X0278878D02*
D03*
Y0216890D02*
D03*
X0276910D02*
D03*
X0274941D02*
D03*
X0272973D02*
D03*
X0356831Y0208622D02*
D03*
X0358799D02*
D03*
X0360768D02*
D03*
X0362736D02*
D03*
Y0216890D02*
D03*
X0360768D02*
D03*
X0358799D02*
D03*
X0356831D02*
D03*
X0440689Y0208622D02*
D03*
X0442658D02*
D03*
X0444626D02*
D03*
X0446595D02*
D03*
Y0216890D02*
D03*
X0444626D02*
D03*
X0442658D02*
D03*
X0440689D02*
D03*
D120*
X0060079Y0213189D02*
D03*
Y0211024D02*
D03*
Y0208858D02*
D03*
X0057717D02*
D03*
Y0211024D02*
D03*
Y0213189D02*
D03*
X0143937D02*
D03*
Y0211024D02*
D03*
Y0208858D02*
D03*
X0141575D02*
D03*
Y0211024D02*
D03*
Y0213189D02*
D03*
X0227795D02*
D03*
Y0211024D02*
D03*
Y0208858D02*
D03*
X0225433D02*
D03*
Y0211024D02*
D03*
Y0213189D02*
D03*
X0311654D02*
D03*
Y0211024D02*
D03*
Y0208858D02*
D03*
X0309292D02*
D03*
Y0211024D02*
D03*
Y0213189D02*
D03*
X0395512D02*
D03*
Y0211024D02*
D03*
Y0208858D02*
D03*
X0393150D02*
D03*
Y0211024D02*
D03*
Y0213189D02*
D03*
D121*
X0060040Y0204725D02*
D03*
X0063740D02*
D03*
X0143898D02*
D03*
X0147599D02*
D03*
X0227756D02*
D03*
X0231457D02*
D03*
X0311614D02*
D03*
X0315315D02*
D03*
X0395473D02*
D03*
X0399173D02*
D03*
D122*
X0068110D02*
D03*
X0071890D02*
D03*
X0151969D02*
D03*
X0155748D02*
D03*
X0235827D02*
D03*
X0239606D02*
D03*
X0319685D02*
D03*
X0323465D02*
D03*
X0403544D02*
D03*
X0407323D02*
D03*
D123*
X0075945Y0203740D02*
D03*
Y0200197D02*
D03*
X0159803Y0203740D02*
D03*
Y0200197D02*
D03*
X0243662Y0203740D02*
D03*
Y0200197D02*
D03*
X0327520Y0203740D02*
D03*
Y0200197D02*
D03*
X0411378Y0203740D02*
D03*
Y0200197D02*
D03*
D124*
X0067008Y0170433D02*
D03*
Y0164134D02*
D03*
X0150866Y0170433D02*
D03*
Y0164134D02*
D03*
X0234725Y0170433D02*
D03*
Y0164134D02*
D03*
X0318583Y0170433D02*
D03*
Y0164134D02*
D03*
X0402441Y0170433D02*
D03*
Y0164134D02*
D03*
D125*
X0054390Y0169055D02*
D03*
Y0167283D02*
D03*
Y0165512D02*
D03*
X0052618Y0169055D02*
D03*
Y0167283D02*
D03*
Y0165512D02*
D03*
X0138248Y0169055D02*
D03*
Y0167283D02*
D03*
Y0165512D02*
D03*
X0136477Y0169055D02*
D03*
Y0167283D02*
D03*
Y0165512D02*
D03*
X0222107Y0169055D02*
D03*
Y0167283D02*
D03*
Y0165512D02*
D03*
X0220335Y0169055D02*
D03*
Y0167283D02*
D03*
Y0165512D02*
D03*
X0305965Y0169055D02*
D03*
Y0167283D02*
D03*
Y0165512D02*
D03*
X0304193Y0169055D02*
D03*
Y0167283D02*
D03*
Y0165512D02*
D03*
X0389823Y0169055D02*
D03*
Y0167283D02*
D03*
Y0165512D02*
D03*
X0388051Y0169055D02*
D03*
Y0167283D02*
D03*
Y0165512D02*
D03*
D126*
X0052992Y0146575D02*
D03*
X0045512D02*
D03*
X0052992Y0128616D02*
D03*
X0045512D02*
D03*
X0052992Y0137671D02*
D03*
X0045512D02*
D03*
X0136851Y0146575D02*
D03*
X0129370D02*
D03*
X0136851Y0128616D02*
D03*
X0129370D02*
D03*
X0136851Y0137671D02*
D03*
X0129370D02*
D03*
X0220709Y0146575D02*
D03*
X0213229D02*
D03*
X0220709Y0128616D02*
D03*
X0213229D02*
D03*
X0220709Y0137671D02*
D03*
X0213229D02*
D03*
X0304567Y0146575D02*
D03*
X0297087D02*
D03*
X0304567Y0128616D02*
D03*
X0297087D02*
D03*
X0304567Y0137671D02*
D03*
X0297087D02*
D03*
X0388425Y0146575D02*
D03*
X0380945D02*
D03*
X0388425Y0128616D02*
D03*
X0380945D02*
D03*
X0388425Y0137671D02*
D03*
X0380945D02*
D03*
D127*
X0084782Y0204422D02*
D03*
X0168641D02*
D03*
X0252499D02*
D03*
X0336357D02*
D03*
X0420216D02*
D03*
M02*
