G04*
G04 #@! TF.GenerationSoftware,Altium Limited,Altium Designer,19.1.8 (144)*
G04*
G04 Layer_Color=16711935*
%FSAX25Y25*%
%MOIN*%
G70*
G01*
G75*
%ADD13C,0.00787*%
%ADD146C,0.00787*%
G36*
X0000787Y0402756D02*
D01*
D02*
G37*
D13*
X0004252D02*
X0496063D01*
X0496063Y-0000394D01*
X-0000394D02*
X0496063D01*
X-0000394D02*
Y0402756D01*
X0000787D01*
X0004252D01*
X0122441Y0362047D02*
G03*
X0122047Y0362441I-0000394J0000000D01*
G01*
X0122441Y0362047D02*
G03*
X0122047Y0362441I-0000394J0000000D01*
G01*
X0122441Y0042713D02*
G03*
X0122441Y0042717I-0000394J0000003D01*
G01*
X0122441Y0042713D02*
G03*
X0122441Y0042717I-0003898J0000003D01*
G01*
X0041772Y0362441D02*
G03*
X0041768Y0362441I0000000J-0000394D01*
G01*
X0041772D02*
G03*
X0041768Y0362441I-0000000J-0002795D01*
G01*
X0038976Y0042717D02*
G03*
X0038976Y0042714I0003898J-0000000D01*
G01*
X0038976Y0042717D02*
G03*
X0038976Y0042714I0000394J0000000D01*
G01*
X0042874Y0038819D02*
X0122441D01*
Y0041929D01*
X0122441Y0362047D01*
X0042874Y0038819D02*
X0042874D01*
X0038976D02*
X0042874D01*
X0038976Y0362441D02*
X0122047Y0362441D01*
X0038976Y0359646D02*
Y0362441D01*
Y0359646D02*
X0038976Y0038819D01*
X0206299Y0362047D02*
G03*
X0205906Y0362441I-0000394J0000000D01*
G01*
X0206299Y0362047D02*
G03*
X0205906Y0362441I-0000394J0000000D01*
G01*
X0206299Y0042713D02*
G03*
X0206299Y0042717I-0000394J0000003D01*
G01*
X0206299Y0042713D02*
G03*
X0206299Y0042717I-0003898J0000003D01*
G01*
X0125630Y0362441D02*
G03*
X0125626Y0362441I0000000J-0000394D01*
G01*
X0125630D02*
G03*
X0125626Y0362441I-0000000J-0002795D01*
G01*
X0122835Y0042717D02*
G03*
X0122835Y0042714I0003898J-0000000D01*
G01*
X0122835Y0042717D02*
G03*
X0122835Y0042714I0000394J0000000D01*
G01*
X0126732Y0038819D02*
X0206299D01*
Y0041929D01*
X0206299Y0362047D01*
X0126732Y0038819D02*
X0126732D01*
X0122835D02*
X0126732D01*
X0122835Y0362441D02*
X0205906Y0362441D01*
X0122835Y0359646D02*
Y0362441D01*
Y0359646D02*
X0122835Y0038819D01*
X0290158Y0362047D02*
G03*
X0289764Y0362441I-0000394J0000000D01*
G01*
X0290158Y0362047D02*
G03*
X0289764Y0362441I-0000394J0000000D01*
G01*
X0290158Y0042713D02*
G03*
X0290158Y0042717I-0000394J0000003D01*
G01*
X0290158Y0042713D02*
G03*
X0290158Y0042717I-0003898J0000003D01*
G01*
X0209488Y0362441D02*
G03*
X0209484Y0362441I0000000J-0000394D01*
G01*
X0209488D02*
G03*
X0209484Y0362441I-0000000J-0002795D01*
G01*
X0206693Y0042717D02*
G03*
X0206693Y0042714I0003898J-0000000D01*
G01*
X0206693Y0042717D02*
G03*
X0206693Y0042714I0000394J0000000D01*
G01*
X0210591Y0038819D02*
X0290158D01*
Y0041929D01*
X0290158Y0362047D01*
X0210591Y0038819D02*
X0210591D01*
X0206693D02*
X0210591D01*
X0206693Y0362441D02*
X0289764Y0362441D01*
X0206693Y0359646D02*
Y0362441D01*
Y0359646D02*
X0206693Y0038819D01*
X0374016Y0362047D02*
G03*
X0373622Y0362441I-0000394J0000000D01*
G01*
X0374016Y0362047D02*
G03*
X0373622Y0362441I-0000394J0000000D01*
G01*
X0374016Y0042713D02*
G03*
X0374016Y0042717I-0000394J0000003D01*
G01*
X0374016Y0042713D02*
G03*
X0374016Y0042717I-0003898J0000003D01*
G01*
X0293347Y0362441D02*
G03*
X0293342Y0362441I0000000J-0000394D01*
G01*
X0293347D02*
G03*
X0293342Y0362441I-0000000J-0002795D01*
G01*
X0290551Y0042717D02*
G03*
X0290551Y0042714I0003898J-0000000D01*
G01*
X0290551Y0042717D02*
G03*
X0290551Y0042714I0000394J0000000D01*
G01*
X0294449Y0038819D02*
X0374016D01*
Y0041929D01*
X0374016Y0362047D01*
X0294449Y0038819D02*
X0294449D01*
X0290551D02*
X0294449D01*
X0290551Y0362441D02*
X0373622Y0362441D01*
X0290551Y0359646D02*
Y0362441D01*
Y0359646D02*
X0290551Y0038819D01*
X0457874Y0362047D02*
G03*
X0457480Y0362441I-0000394J0000000D01*
G01*
X0457874Y0362047D02*
G03*
X0457480Y0362441I-0000394J0000000D01*
G01*
X0457874Y0042713D02*
G03*
X0457874Y0042717I-0000394J0000003D01*
G01*
X0457874Y0042713D02*
G03*
X0457874Y0042717I-0003898J0000003D01*
G01*
X0377205Y0362441D02*
G03*
X0377201Y0362441I0000000J-0000394D01*
G01*
X0377205D02*
G03*
X0377201Y0362441I-0000000J-0002795D01*
G01*
X0374410Y0042717D02*
G03*
X0374410Y0042714I0003898J-0000000D01*
G01*
X0374410Y0042717D02*
G03*
X0374410Y0042714I0000394J0000000D01*
G01*
X0378307Y0038819D02*
X0457874D01*
Y0041929D01*
X0457874Y0362047D01*
X0378307Y0038819D02*
X0378307D01*
X0374410D02*
X0378307D01*
X0374410Y0362441D02*
X0457480Y0362441D01*
X0374410Y0359646D02*
Y0362441D01*
Y0359646D02*
X0374410Y0038819D01*
D146*
X0122441Y0042717D02*
D03*
X0038976Y0042717D02*
D03*
X0206299Y0042717D02*
D03*
X0122835Y0042717D02*
D03*
X0290158Y0042717D02*
D03*
X0206693Y0042717D02*
D03*
X0374016Y0042717D02*
D03*
X0290551Y0042717D02*
D03*
X0457874Y0042717D02*
D03*
X0374410Y0042717D02*
D03*
M02*
