G04*
G04 #@! TF.GenerationSoftware,Altium Limited,Altium Designer,19.1.8 (144)*
G04*
G04 Layer_Color=8388736*
%FSAX25Y25*%
%MOIN*%
G70*
G01*
G75*
%ADD13C,0.00787*%
%ADD14C,0.01181*%
D13*
X-0039370Y0362638D02*
X0535039D01*
X-0039370Y0038780D02*
X0535039D01*
X0457992Y-0039370D02*
Y0441732D01*
X0374213Y-0039370D02*
Y0441732D01*
X0290354Y-0039370D02*
Y0441732D01*
X0206496Y-0039370D02*
Y0441732D01*
X0122677Y-0039370D02*
Y0441732D01*
X0038937Y-0039370D02*
Y0441732D01*
D14*
X0035160Y0443347D02*
X0040408D01*
X0043031Y0445970D01*
X0040408Y0448594D01*
X0035160D01*
X0039096Y0451218D02*
Y0456466D01*
X0036472Y0464337D02*
X0035160Y0463025D01*
Y0460401D01*
X0036472Y0459089D01*
X0041720D01*
X0043031Y0460401D01*
Y0463025D01*
X0041720Y0464337D01*
X0035160Y0466961D02*
X0041720D01*
X0043031Y0468273D01*
Y0470897D01*
X0041720Y0472209D01*
X0035160D01*
Y0474832D02*
Y0480080D01*
Y0477456D01*
X0043031D01*
X0118546Y0443307D02*
X0123793D01*
X0126417Y0445931D01*
X0123793Y0448555D01*
X0118546D01*
X0122482Y0451179D02*
Y0456426D01*
X0119858Y0464298D02*
X0118546Y0462986D01*
Y0460362D01*
X0119858Y0459050D01*
X0125105D01*
X0126417Y0460362D01*
Y0462986D01*
X0125105Y0464298D01*
X0118546Y0466922D02*
X0125105D01*
X0126417Y0468233D01*
Y0470857D01*
X0125105Y0472169D01*
X0118546D01*
Y0474793D02*
Y0480041D01*
Y0477417D01*
X0126417D01*
X0202089Y0443347D02*
X0207337D01*
X0209961Y0445970D01*
X0207337Y0448594D01*
X0202089D01*
X0206025Y0451218D02*
Y0456466D01*
X0203401Y0464337D02*
X0202089Y0463025D01*
Y0460401D01*
X0203401Y0459089D01*
X0208649D01*
X0209961Y0460401D01*
Y0463025D01*
X0208649Y0464337D01*
X0202089Y0466961D02*
X0208649D01*
X0209961Y0468273D01*
Y0470897D01*
X0208649Y0472209D01*
X0202089D01*
Y0474832D02*
Y0480080D01*
Y0477456D01*
X0209961D01*
X0285396Y0443307D02*
X0290644D01*
X0293268Y0445931D01*
X0290644Y0448555D01*
X0285396D01*
X0289332Y0451179D02*
Y0456426D01*
X0286708Y0464298D02*
X0285396Y0462986D01*
Y0460362D01*
X0286708Y0459050D01*
X0291956D01*
X0293268Y0460362D01*
Y0462986D01*
X0291956Y0464298D01*
X0285396Y0466922D02*
X0291956D01*
X0293268Y0468233D01*
Y0470857D01*
X0291956Y0472169D01*
X0285396D01*
Y0474793D02*
Y0480041D01*
Y0477417D01*
X0293268D01*
X0369058Y0443228D02*
X0374305D01*
X0376929Y0445852D01*
X0374305Y0448476D01*
X0369058D01*
X0372993Y0451100D02*
Y0456348D01*
X0370370Y0464219D02*
X0369058Y0462907D01*
Y0460283D01*
X0370370Y0458971D01*
X0375617D01*
X0376929Y0460283D01*
Y0462907D01*
X0375617Y0464219D01*
X0369058Y0466843D02*
X0375617D01*
X0376929Y0468155D01*
Y0470779D01*
X0375617Y0472090D01*
X0369058D01*
Y0474714D02*
Y0479962D01*
Y0477338D01*
X0376929D01*
X0452404Y0443228D02*
X0457652D01*
X0460276Y0445852D01*
X0457652Y0448476D01*
X0452404D01*
X0456340Y0451100D02*
Y0456348D01*
X0453716Y0464219D02*
X0452404Y0462907D01*
Y0460283D01*
X0453716Y0458971D01*
X0458964D01*
X0460276Y0460283D01*
Y0462907D01*
X0458964Y0464219D01*
X0452404Y0466843D02*
X0458964D01*
X0460276Y0468155D01*
Y0470779D01*
X0458964Y0472090D01*
X0452404D01*
Y0474714D02*
Y0479962D01*
Y0477338D01*
X0460276D01*
X0536732Y0366927D02*
Y0361679D01*
X0539356Y0359055D01*
X0541980Y0361679D01*
Y0366927D01*
X0544604Y0362991D02*
X0549851D01*
X0557723Y0365615D02*
X0556411Y0366927D01*
X0553787D01*
X0552475Y0365615D01*
Y0360367D01*
X0553787Y0359055D01*
X0556411D01*
X0557723Y0360367D01*
X0560347Y0366927D02*
Y0360367D01*
X0561659Y0359055D01*
X0564283D01*
X0565594Y0360367D01*
Y0366927D01*
X0568218D02*
X0573466D01*
X0570842D01*
Y0359055D01*
X0536575Y0042990D02*
Y0037742D01*
X0539199Y0035118D01*
X0541822Y0037742D01*
Y0042990D01*
X0544446Y0039054D02*
X0549694D01*
X0557565Y0041678D02*
X0556253Y0042990D01*
X0553630D01*
X0552318Y0041678D01*
Y0036430D01*
X0553630Y0035118D01*
X0556253D01*
X0557565Y0036430D01*
X0560189Y0042990D02*
Y0036430D01*
X0561501Y0035118D01*
X0564125D01*
X0565437Y0036430D01*
Y0042990D01*
X0568061D02*
X0573308D01*
X0570684D01*
Y0035118D01*
X0452404Y-0077559D02*
X0457652D01*
X0460276Y-0074935D01*
X0457652Y-0072311D01*
X0452404D01*
X0456340Y-0069688D02*
Y-0064440D01*
X0453716Y-0056568D02*
X0452404Y-0057880D01*
Y-0060504D01*
X0453716Y-0061816D01*
X0458964D01*
X0460276Y-0060504D01*
Y-0057880D01*
X0458964Y-0056568D01*
X0452404Y-0053945D02*
X0458964D01*
X0460276Y-0052633D01*
Y-0050009D01*
X0458964Y-0048697D01*
X0452404D01*
Y-0046073D02*
Y-0040826D01*
Y-0043449D01*
X0460276D01*
X0368939Y-0077205D02*
X0374187D01*
X0376811Y-0074581D01*
X0374187Y-0071957D01*
X0368939D01*
X0372875Y-0069333D02*
Y-0064086D01*
X0370251Y-0056214D02*
X0368939Y-0057526D01*
Y-0060150D01*
X0370251Y-0061462D01*
X0375499D01*
X0376811Y-0060150D01*
Y-0057526D01*
X0375499Y-0056214D01*
X0368939Y-0053590D02*
X0375499D01*
X0376811Y-0052278D01*
Y-0049655D01*
X0375499Y-0048343D01*
X0368939D01*
Y-0045719D02*
Y-0040471D01*
Y-0043095D01*
X0376811D01*
X0285514Y-0077441D02*
X0290762D01*
X0293386Y-0074817D01*
X0290762Y-0072193D01*
X0285514D01*
X0289450Y-0069569D02*
Y-0064322D01*
X0286826Y-0056450D02*
X0285514Y-0057762D01*
Y-0060386D01*
X0286826Y-0061698D01*
X0292074D01*
X0293386Y-0060386D01*
Y-0057762D01*
X0292074Y-0056450D01*
X0285514Y-0053826D02*
X0292074D01*
X0293386Y-0052515D01*
Y-0049891D01*
X0292074Y-0048579D01*
X0285514D01*
Y-0045955D02*
Y-0040707D01*
Y-0043331D01*
X0293386D01*
X0202010Y-0077284D02*
X0207258D01*
X0209882Y-0074660D01*
X0207258Y-0072036D01*
X0202010D01*
X0205946Y-0069412D02*
Y-0064164D01*
X0203322Y-0056293D02*
X0202010Y-0057605D01*
Y-0060229D01*
X0203322Y-0061541D01*
X0208570D01*
X0209882Y-0060229D01*
Y-0057605D01*
X0208570Y-0056293D01*
X0202010Y-0053669D02*
X0208570D01*
X0209882Y-0052357D01*
Y-0049733D01*
X0208570Y-0048421D01*
X0202010D01*
Y-0045798D02*
Y-0040550D01*
Y-0043174D01*
X0209882D01*
X0118585Y-0077323D02*
X0123833D01*
X0126457Y-0074699D01*
X0123833Y-0072075D01*
X0118585D01*
X0122521Y-0069451D02*
Y-0064204D01*
X0119897Y-0056332D02*
X0118585Y-0057644D01*
Y-0060268D01*
X0119897Y-0061580D01*
X0125145D01*
X0126457Y-0060268D01*
Y-0057644D01*
X0125145Y-0056332D01*
X0118585Y-0053708D02*
X0125145D01*
X0126457Y-0052397D01*
Y-0049773D01*
X0125145Y-0048461D01*
X0118585D01*
Y-0045837D02*
Y-0040589D01*
Y-0043213D01*
X0126457D01*
X0035042Y-0077402D02*
X0040290D01*
X0042913Y-0074778D01*
X0040290Y-0072154D01*
X0035042D01*
X0038978Y-0069530D02*
Y-0064282D01*
X0036354Y-0056411D02*
X0035042Y-0057723D01*
Y-0060347D01*
X0036354Y-0061659D01*
X0041601D01*
X0042913Y-0060347D01*
Y-0057723D01*
X0041601Y-0056411D01*
X0035042Y-0053787D02*
X0041601D01*
X0042913Y-0052475D01*
Y-0049851D01*
X0041601Y-0048540D01*
X0035042D01*
Y-0045916D02*
Y-0040668D01*
Y-0043292D01*
X0042913D01*
X-0077284Y0042871D02*
Y0037624D01*
X-0074660Y0035000D01*
X-0072036Y0037624D01*
Y0042871D01*
X-0069412Y0038936D02*
X-0064164D01*
X-0056293Y0041560D02*
X-0057605Y0042871D01*
X-0060229D01*
X-0061541Y0041560D01*
Y0036312D01*
X-0060229Y0035000D01*
X-0057605D01*
X-0056293Y0036312D01*
X-0053669Y0042871D02*
Y0036312D01*
X-0052357Y0035000D01*
X-0049733D01*
X-0048421Y0036312D01*
Y0042871D01*
X-0045798D02*
X-0040550D01*
X-0043174D01*
Y0035000D01*
X-0078071Y0367005D02*
Y0361758D01*
X-0075447Y0359134D01*
X-0072823Y0361758D01*
Y0367005D01*
X-0070199Y0363070D02*
X-0064952D01*
X-0057080Y0365693D02*
X-0058392Y0367005D01*
X-0061016D01*
X-0062328Y0365693D01*
Y0360446D01*
X-0061016Y0359134D01*
X-0058392D01*
X-0057080Y0360446D01*
X-0054456Y0367005D02*
Y0360446D01*
X-0053145Y0359134D01*
X-0050521D01*
X-0049209Y0360446D01*
Y0367005D01*
X-0046585D02*
X-0041337D01*
X-0043961D01*
Y0359134D01*
M02*
