M48
;Layer_Color=9474304
;FILE_FORMAT=2:5
INCH
;TYPE=PLATED
T1F00S00C0.01181
T2F00S00C0.04331
T3F00S00C0.04724
T4F00S00C0.11811
%
T01
X0042394Y0042481
X0046331
X0050268
X0044362Y0046418
X0042394Y0050355
X0085701
X0087669Y0046418
X0085701Y0042481
X0089638
X0093575
X0113260
X0117197
X0120000Y0045079
Y0052087
X0126252Y0050355
X0128221Y0046418
X0126252Y0042481
X0130189
X0134126
X0169559
X0173496
X0177433
X0171528Y0046418
X0169559Y0050355
X0197118Y0042481
X0201055
X0203858Y0045079
Y0052087
X0210110Y0050355
X0212079Y0046418
X0210110Y0042481
X0214048
X0217985
X0253418
X0257355
X0261292
X0255386Y0046418
X0253418Y0050355
X0280977Y0042481
X0284914
X0287717Y0045079
Y0052087
X0293969Y0050355
X0295937Y0046418
X0293969Y0042481
X0297906
X0301843
X0337276
X0341213
X0345150
X0339244Y0046418
X0337276Y0050355
X0364835Y0042481
X0368772
X0371575Y0045079
Y0052087
X0377827Y0050355
X0379796Y0046418
X0377827Y0042481
X0381764
X0385701
X0421134
X0425071
X0429008
X0423103Y0046418
X0421134Y0050355
X0448693Y0042481
X0452630
X0455433Y0045079
Y0052087
Y0069685
Y0076732
Y0083780
Y0090827
X0454599Y0093662
X0450662
X0446725
X0442788
X0438851
X0434914
X0430977
X0427040
X0423103
X0418386Y0092520
X0421134Y0089725
X0425071
X0429008
X0432945
X0436882
X0440819
X0444756
X0448693
X0452630
Y0097599
X0455433Y0097874
X0454599Y0101536
X0450662
X0446725
X0442788
X0438851
X0434914
X0430977
X0432945Y0097599
X0436882
X0440819
X0444756
X0448693
X0444756Y0105473
Y0113347
X0445236Y0115866
X0448721Y0116339
X0448701Y0119016
X0455433Y0118898
Y0111890
X0454599Y0109410
X0455433Y0104882
X0438851Y0117284
X0432945Y0113347
X0429008
Y0121221
X0425071
X0427008Y0123780
X0423103Y0125158
X0415229
X0411292
X0409323Y0129095
X0413260
Y0121221
X0409323
X0411292Y0117284
X0415229
X0413260Y0113347
X0417197
X0421134
X0419166Y0109410
X0415229
X0411292
X0407355
X0405386Y0105473
X0409323
X0413260
X0417197
X0419166Y0101536
X0415229
X0411292
X0407355
X0403418
X0399481
X0395544
X0393575Y0105473
X0397512
Y0097599
X0401449
X0405386
X0409323
X0411292Y0093662
X0407355
X0403418
X0399481
X0395544
X0393575Y0097599
Y0089725
X0397512
X0401449
X0405386
X0407355Y0085788
X0403418
X0399481
X0395544
X0393575Y0081851
X0397512
X0401449
X0405386
X0409323
X0413260
X0417197
X0419166Y0085788
X0430977
X0434914
X0432945Y0081851
X0444756
X0445743Y0066373
X0442821Y0063451
X0421134Y0066103
X0417197
X0413260
X0415229Y0070040
X0419166
X0423103
X0419166Y0062166
X0415229
X0413260Y0058229
X0417197
X0411292Y0070040
X0394921Y0066138
Y0062871
X0395544Y0077914
X0383733
X0379796
X0378642Y0081299
X0381764Y0081851
X0385701
X0383465Y0087205
X0381764Y0089725
X0385701
X0383733Y0093662
X0378150Y0093504
X0377827Y0089725
X0379796Y0085788
X0371575Y0083780
Y0076732
Y0069685
X0379796Y0070040
X0377827Y0073977
X0381764
X0385701
X0377827Y0066103
X0371575Y0090827
X0370741Y0093662
X0371575Y0097874
X0368772Y0097599
X0370741Y0101536
X0371575Y0104882
X0370741Y0109410
X0371575Y0111890
Y0118898
X0377126Y0119449
X0379796Y0117284
X0381792Y0114173
X0388288Y0114665
X0388681Y0111417
X0389272Y0120669
X0384547Y0121949
X0382579Y0133169
X0376851Y0136102
X0376929Y0128740
X0376772Y0143543
X0382579Y0142225
Y0151378
X0376772Y0150906
X0369067Y0151083
X0368898Y0143307
X0377827Y0160591
X0382579Y0158169
X0385984Y0155512
X0390827Y0153071
X0401449Y0152717
X0405386
X0405315Y0149213
Y0145768
X0402559Y0141929
X0399481Y0140906
X0395544
X0393491Y0137671
X0397512Y0129095
X0401449
X0403418Y0125158
X0399481
X0397512Y0121221
X0401449
Y0113347
X0409323
X0408858Y0138662
X0406792Y0136614
X0415945Y0143110
X0414961Y0147165
X0420433Y0145354
X0421890Y0155236
X0429488Y0152638
X0434773Y0151445
X0434646Y0155118
X0437873Y0156288
X0441810
Y0152351
X0437873
X0441993Y0145658
X0437795Y0140906
X0440630Y0136732
X0438977Y0133071
X0436713Y0126476
X0433150Y0127441
X0434016Y0160630
X0435138Y0164567
X0436882Y0168465
X0438851Y0172402
X0437126Y0179213
X0434914Y0180276
X0434055Y0176614
X0436882Y0184213
X0435729Y0186516
X0432559Y0191850
X0428268Y0191890
X0423701Y0191929
X0420079Y0191890
X0415229Y0188150
X0415197Y0183992
X0406318Y0184055
X0403544Y0178937
X0400492Y0173622
X0397441Y0170276
X0403150Y0167421
X0405386Y0160591
X0404449Y0158110
X0397638Y0161319
X0386122Y0167323
X0382579Y0164665
X0377827Y0168465
X0371457Y0169134
X0377827Y0176339
Y0184213
X0382874Y0185669
X0382835Y0189409
X0382776Y0193504
Y0196555
X0380630Y0198110
X0377827Y0199961
X0376772Y0202441
Y0209803
X0390591Y0209567
X0392717Y0205610
X0392028Y0202461
X0391969Y0196299
X0389638Y0192087
X0399060Y0191969
X0401851Y0188622
X0401772Y0196378
X0401457Y0199921
X0396024Y0199961
X0385276Y0200079
X0371654Y0199921
X0371536Y0191575
X0377827Y0192087
X0382914Y0181575
X0388091Y0176969
X0413386Y0173527
X0412205Y0168071
X0415516Y0162112
X0427559Y0166890
X0424410Y0173858
X0423229Y0182126
X0424764Y0198583
X0427126Y0200000
X0429725Y0199134
X0432945Y0199961
X0432677Y0204725
X0427835Y0206614
X0427992Y0202638
X0426103Y0210236
X0423110Y0212165
X0419488Y0212480
X0416496Y0211496
X0413681Y0212106
X0414213Y0209331
X0411616Y0208375
X0401890Y0208425
X0399055Y0208465
X0403544Y0211516
X0414134Y0200079
X0416418Y0198031
X0438288Y0203150
X0440059Y0205413
X0446559Y0197449
X0451144Y0195768
X0449843Y0193110
X0449803Y0189606
X0455394Y0191575
X0455512Y0199921
X0449508Y0210433
X0450295Y0174705
X0450079Y0171772
Y0168543
X0455315Y0169134
X0452925Y0151083
X0452756Y0143307
X0384154Y0099410
X0381764Y0097599
X0377827
X0368772Y0089725
X0364835
X0360898
X0356961
X0353024
X0349087
X0345150
X0341213
X0337276
X0334528Y0092520
X0339244Y0093662
X0343181
X0347118
X0351055
X0354993
X0358929
X0362866
X0366804
X0364835Y0097599
X0360898
X0356961
X0353024
X0349087
X0351055Y0101536
X0354993
X0358929
X0362866
X0366804
X0360898Y0105473
Y0113347
X0361378Y0115866
X0364862Y0116339
X0364843Y0119016
X0354993Y0117284
X0349087Y0113347
X0345150
Y0121221
X0341213
X0343150Y0123780
X0339244Y0125158
X0331370
X0327433
X0325465Y0129095
X0329402
Y0121221
X0325465
X0327433Y0117284
X0331370
X0329402Y0113347
X0333339
X0337276
X0335307Y0109410
X0331370
X0327433
X0323496
X0321528Y0105473
X0325465
X0329402
X0333339
X0335307Y0101536
X0331370
X0327433
X0323496
X0319559
X0315622
X0311685
X0309717Y0105473
X0313654
Y0097599
X0317591
X0321528
X0325465
X0327433Y0093662
X0323496
X0319559
X0315622
X0311685
X0309717Y0097599
Y0089725
X0313654
X0317591
X0321528
X0323496Y0085788
X0319559
X0315622
X0311685
X0309717Y0081851
X0313654
X0317591
X0321528
X0325465
X0329402
X0333339
X0335307Y0085788
X0347118
X0351055
X0349087Y0081851
X0360898
X0361884Y0066373
X0358963Y0063451
X0337276Y0066103
X0333339
X0329402
X0331370Y0070040
X0335307
X0339244
X0335307Y0062166
X0331370
X0329402Y0058229
X0333339
X0327433Y0070040
X0311063Y0066138
Y0062871
X0311685Y0077914
X0299874
X0295937
X0294784Y0081299
X0297906Y0081851
X0301843
X0299606Y0087205
X0297906Y0089725
X0301843
X0299874Y0093662
X0294292Y0093504
X0293969Y0089725
X0295937Y0085788
X0287717Y0083780
Y0076732
Y0069685
X0295937Y0070040
X0293969Y0073977
X0297906
X0301843
X0293969Y0066103
X0278026Y0066373
X0275104Y0063451
X0277040Y0081851
Y0089725
X0280977
X0284914
X0287717Y0090827
X0286882Y0093662
X0282945
X0279008
X0275071
X0271134
X0267197
X0263260
X0259323
X0255386
X0250670Y0092520
X0253418Y0089725
X0257355
X0261292
X0265229
X0269166
X0273103
Y0097599
X0277040
X0280977
X0284914
X0287717Y0097874
X0286882Y0101536
X0282945
X0279008
X0275071
X0271134
X0267197
X0263260
X0265229Y0097599
X0269166
X0267197Y0085788
X0263260
X0265229Y0081851
X0249481
X0245544
X0241607
X0237670
X0233733
X0229796
X0225858
X0227827Y0085788
X0231764
X0235701
X0239638
X0237670Y0089725
X0233733
X0229796
X0225858
X0227827Y0093662
X0231764
X0235701
X0239638
X0243575
X0241607Y0097599
X0237670
X0233733
X0229796
X0225858
X0227827Y0101536
X0231764
X0235701
X0239638
X0243575
X0247512
X0251449
X0249481Y0105473
X0245544
X0241607
X0237670
X0239638Y0109410
X0243575
X0247512
X0251449
X0249481Y0113347
X0253418
X0261292
X0265229
X0271134Y0117284
X0277520Y0115866
X0277040Y0113347
X0281004Y0116339
X0280984Y0119016
X0287717Y0118898
X0293268Y0119449
X0295937Y0117284
X0297933Y0114173
X0304429Y0114665
X0304823Y0111417
X0305414Y0120669
X0300689Y0121949
X0298721Y0133169
X0292992Y0136102
X0293071Y0128740
X0292914Y0143543
X0298721Y0142225
Y0151378
X0292914Y0150906
X0285208Y0151083
X0285040Y0143307
X0274276Y0145658
X0274093Y0152351
Y0156288
X0270156
Y0152351
X0267056Y0151445
X0266929Y0155118
X0266299Y0160630
X0267421Y0164567
X0269166Y0168465
X0271134Y0172402
X0269410Y0179213
X0267197Y0180276
X0266339Y0176614
X0269166Y0184213
X0268012Y0186516
X0264843Y0191850
X0260551Y0191890
X0255984Y0191929
X0252362Y0191890
X0247512Y0188150
X0247481Y0183992
X0238601Y0184055
X0235827Y0178937
X0232776Y0173622
X0229725Y0170276
X0235433Y0167421
X0237670Y0160591
X0236733Y0158110
X0237670Y0152717
X0237599Y0149213
Y0145768
X0234843Y0141929
X0231764Y0140906
X0227827
X0225775Y0137671
X0229796Y0129095
X0233733
X0235701Y0125158
X0231764
X0229796Y0121221
X0233733
X0241607
X0245544
X0247512Y0125158
X0243575
X0241607Y0129095
X0245544
X0255386Y0125158
X0259292Y0123780
X0257355Y0121221
X0261292
X0265433Y0127441
X0268996Y0126476
X0271260Y0133071
X0272914Y0136732
X0270079Y0140906
X0261772Y0152638
X0254173Y0155236
X0252717Y0145354
X0248229Y0143110
X0247244Y0147165
X0241142Y0138662
X0239075Y0136614
X0233733Y0152717
X0223110Y0153071
X0218268Y0155512
X0214862Y0158169
Y0164665
X0218406Y0167323
X0220374Y0176969
X0215197Y0181575
X0215158Y0185669
X0215118Y0189409
X0215059Y0193504
Y0196555
X0212914Y0198110
X0217559Y0200079
X0224311Y0202461
X0225000Y0205610
X0222874Y0209567
X0231339Y0208465
X0234173Y0208425
X0235827Y0211516
X0245965Y0212106
X0246496Y0209331
X0243900Y0208375
X0248780Y0211496
X0251772Y0212480
X0255394Y0212165
X0258386Y0210236
X0260118Y0206614
X0260276Y0202638
X0259410Y0200000
X0262008Y0199134
X0265229Y0199961
X0264961Y0204725
X0270571Y0203150
X0272343Y0205413
X0278842Y0197449
X0283428Y0195768
X0282126Y0193110
X0282087Y0189606
X0287677Y0191575
X0293969Y0192087
X0298918Y0193504
Y0196555
X0296772Y0198110
X0293969Y0199961
X0292914Y0202441
Y0209803
X0281791Y0210433
X0287795Y0199921
X0301417Y0200079
X0308170Y0202461
X0308858Y0205610
X0306733Y0209567
X0315197Y0208465
X0318032Y0208425
X0319685Y0211516
X0329823Y0212106
X0330354Y0209331
X0327758Y0208375
X0332638Y0211496
X0335630Y0212480
X0339252Y0212165
X0342244Y0210236
X0343977Y0206614
X0344134Y0202638
X0343268Y0200000
X0345866Y0199134
X0349087Y0199961
X0348819Y0204725
X0354429Y0203150
X0356201Y0205413
X0362701Y0197449
X0367286Y0195768
X0365985Y0193110
X0365945Y0189606
X0366437Y0174705
X0366221Y0171772
Y0168543
X0353024Y0168465
X0351280Y0164567
X0350158Y0160630
X0350788Y0155118
X0350914Y0151445
X0354014Y0152351
X0357951
Y0156288
X0354014
X0345630Y0152638
X0338032Y0155236
X0336575Y0145354
X0332087Y0143110
X0331103Y0147165
X0321457Y0145768
Y0149213
X0321528Y0152717
X0317591
X0320591Y0158110
X0321528Y0160591
X0313780Y0161319
X0313583Y0170276
X0316634Y0173622
X0319685Y0178937
X0322460Y0184055
X0331339Y0183992
X0331370Y0188150
X0336221Y0191890
X0339843Y0191929
X0344410Y0191890
X0348701Y0191850
X0351870Y0186516
X0353024Y0184213
X0353268Y0179213
X0351055Y0180276
X0350197Y0176614
X0354993Y0172402
X0340551Y0173858
X0339370Y0182126
X0340906Y0198583
X0332559Y0198031
X0330276Y0200079
X0317599Y0199921
X0317914Y0196378
X0315202Y0191969
X0317992Y0188622
X0305780Y0192087
X0308110Y0196299
X0312166Y0199961
X0298977Y0189409
X0299016Y0185669
X0299055Y0181575
X0293969Y0184213
Y0176339
Y0168465
X0287599Y0169134
X0282362Y0168543
Y0171772
X0282579Y0174705
X0304233Y0176969
X0302264Y0167323
X0298721Y0164665
Y0158169
X0302126Y0155512
X0306969Y0153071
X0311685Y0140906
X0315622
X0318701Y0141929
X0322933Y0136614
X0325000Y0138662
X0309633Y0137671
X0313654Y0129095
X0317591
X0319559Y0125158
X0315622
X0313654Y0121221
X0317591
Y0113347
X0325465
X0347118Y0101536
X0349292Y0127441
X0352854Y0126476
X0355118Y0133071
X0356772Y0136732
X0353937Y0140906
X0358134Y0145658
X0343701Y0166890
X0328347Y0168071
X0329528Y0173527
X0331658Y0162112
X0319292Y0167421
X0293969Y0160591
X0259843Y0166890
X0256693Y0173858
X0255512Y0182126
X0257047Y0198583
X0248701Y0198031
X0246417Y0200079
X0233740Y0199921
X0234055Y0196378
X0231344Y0191969
X0234134Y0188622
X0221921Y0192087
X0224252Y0196299
X0228307Y0199961
X0229921Y0161319
X0247799Y0162112
X0244488Y0168071
X0245670Y0173527
X0214862Y0151378
Y0142225
Y0133169
X0216831Y0121949
X0221555Y0120669
X0220571Y0114665
X0220965Y0111417
X0214075Y0114173
X0214048Y0097599
X0216437Y0099410
X0216016Y0093662
X0214048Y0089725
X0217985
X0215748Y0087205
X0214048Y0081851
X0217985
X0216016Y0077914
X0214048Y0073977
X0217985
X0227827Y0077914
X0227205Y0066138
Y0062871
X0247512Y0062166
X0251449
X0249481Y0066103
X0253418
X0255386Y0070040
X0251449
X0247512
X0243575
X0245544Y0066103
Y0058229
X0249481
X0251449Y0085788
X0245544Y0113347
X0241607
X0243575Y0117284
X0247512
X0233733Y0113347
X0229796Y0105473
X0225858
X0277040
X0287717Y0104882
X0286882Y0109410
X0287717Y0111890
X0293969Y0097599
X0297906
X0300295Y0099410
X0365650Y0210433
X0209055Y0209803
Y0202441
X0210110Y0199961
X0203937Y0199921
X0203819Y0191575
X0210110Y0192087
Y0184213
Y0176339
Y0168465
X0203740Y0169134
X0198504Y0168543
Y0171772
X0198721Y0174705
X0187276Y0172402
X0185307Y0168465
X0183563Y0164567
X0182441Y0160630
X0183071Y0155118
X0183198Y0151445
X0186298Y0152351
X0190235
Y0156288
X0186298
X0177913Y0152638
X0170315Y0155236
X0168858Y0145354
X0164370Y0143110
X0163386Y0147165
X0153740Y0145768
Y0149213
X0153811Y0152717
X0149874
X0152874Y0158110
X0153811Y0160591
X0146063Y0161319
X0145866Y0170276
X0148917Y0173622
X0151969Y0178937
X0154743Y0184055
X0163622Y0183992
X0163654Y0188150
X0168504Y0191890
X0172126Y0191929
X0176693Y0191890
X0180984Y0191850
X0181370Y0199961
X0178150Y0199134
X0175551Y0200000
X0176418Y0202638
X0176260Y0206614
X0174528Y0210236
X0171536Y0212165
X0167913Y0212480
X0164921Y0211496
X0162106Y0212106
X0162638Y0209331
X0160041Y0208375
X0150315Y0208425
X0147480Y0208465
X0151969Y0211516
X0149882Y0199921
X0150197Y0196378
X0147485Y0191969
X0150276Y0188622
X0138063Y0192087
X0140394Y0196299
X0140453Y0202461
X0141142Y0205610
X0139016Y0209567
X0125197Y0209803
Y0202441
X0126252Y0199961
X0129055Y0198110
X0131201Y0196555
Y0193504
X0131260Y0189409
X0131299Y0185669
X0131339Y0181575
X0126252Y0184213
Y0192087
X0119961Y0191575
X0114410Y0193110
X0114370Y0189606
X0115711Y0195768
X0111126Y0197449
X0120079Y0199921
X0133701Y0200079
X0144449Y0199961
X0162559Y0200079
X0164843Y0198031
X0173189Y0198583
X0181103Y0204725
X0186713Y0203150
X0188484Y0205413
X0194984Y0197449
X0199569Y0195768
X0198268Y0193110
X0198229Y0189606
X0184154Y0186516
X0185307Y0184213
X0185551Y0179213
X0183339Y0180276
X0182481Y0176614
X0172835Y0173858
X0171654Y0182126
X0161811Y0173527
X0160630Y0168071
X0163941Y0162112
X0175984Y0166890
X0151575Y0167421
X0134547Y0167323
X0131004Y0164665
Y0158169
X0134410Y0155512
X0139252Y0153071
X0131004Y0151378
X0125197Y0150906
Y0143543
X0131004Y0142225
Y0133169
X0125276Y0136102
X0125355Y0128740
X0125551Y0119449
X0128221Y0117284
X0130217Y0114173
X0136713Y0114665
X0137106Y0111417
X0137697Y0120669
X0132973Y0121949
X0145937Y0121221
X0149874
X0151843Y0125158
X0147906
X0145937Y0129095
X0149874
X0157748
X0161685
X0163654Y0125158
X0159717
X0157748Y0121221
X0161685
X0163654Y0117284
X0159717
X0157748Y0113347
X0161685
X0165622
X0169559
X0167591Y0109410
X0163654
X0159717
X0155780
X0153811Y0105473
X0157748
X0161685
X0165622
X0167591Y0101536
X0163654
X0159717
X0155780
X0151843
X0147906
X0143969
X0142000Y0105473
X0145937
Y0097599
X0149874
X0153811
X0157748
X0159717Y0093662
X0155780
X0151843
X0147906
X0143969
X0142000Y0097599
Y0089725
X0145937
X0149874
X0153811
X0155780Y0085788
X0151843
X0147906
X0143969
X0142000Y0081851
X0145937
X0149874
X0153811
X0157748
X0161685
X0165622
X0167591Y0085788
X0169559Y0089725
X0173496
X0177433
X0181370
X0185307
X0189244
X0193181
X0197118
X0201055
X0203858Y0090827
X0203024Y0093662
X0199087
X0195150
X0191213
X0187276
X0183339
X0179402
X0175465
X0171528
X0166811Y0092520
X0179402Y0085788
X0183339
X0181370Y0081851
X0193181
X0203858Y0083780
Y0076732
Y0069685
X0212079Y0070040
X0210110Y0073977
X0212079Y0077914
X0210925Y0081299
X0212079Y0085788
X0210110Y0089725
X0210433Y0093504
X0210110Y0097599
X0203858Y0097874
X0201055Y0097599
X0197118
X0193181
X0189244
X0185307
X0181370
X0183339Y0101536
X0187276
X0191213
X0195150
X0199087
X0203024
X0203858Y0104882
X0203024Y0109410
X0203858Y0111890
Y0118898
X0209410Y0119449
X0212079Y0117284
X0209213Y0128740
X0209134Y0136102
X0209055Y0143543
Y0150906
X0201350Y0151083
X0201181Y0143307
X0190418Y0145658
X0186221Y0140906
X0189055Y0136732
X0187402Y0133071
X0185138Y0126476
X0181575Y0127441
X0175433Y0123780
X0173496Y0121221
X0177433
Y0113347
X0181370
X0187276Y0117284
X0193662Y0115866
X0193181Y0113347
X0197146Y0116339
X0197126Y0119016
X0193181Y0105473
X0179402Y0101536
X0171528Y0125158
X0157284Y0138662
X0155217Y0136614
X0150984Y0141929
X0147906Y0140906
X0143969
X0141917Y0137671
X0117323Y0143307
X0117492Y0151083
X0106377Y0152351
Y0156288
X0102439
Y0152351
X0099339Y0151445
X0099213Y0155118
X0098583Y0160630
X0099705Y0164567
X0101449Y0168465
X0103418Y0172402
X0101693Y0179213
X0099480Y0180276
X0098622Y0176614
X0101449Y0184213
X0100295Y0186516
X0097126Y0191850
X0092835Y0191890
X0088268Y0191929
X0084646Y0191890
X0079795Y0188150
X0079764Y0183992
X0070885Y0184055
X0068110Y0178937
X0065059Y0173622
X0062008Y0170276
X0067717Y0167421
X0069953Y0160591
X0069016Y0158110
X0069953Y0152717
X0069882Y0149213
Y0145768
X0067126Y0141929
X0064047Y0140906
X0060110
X0058058Y0137671
X0062079Y0129095
X0066016
X0067984Y0125158
X0064047
X0062079Y0121221
X0066016
X0073890
X0077827
X0079795Y0125158
X0075858
X0073890Y0129095
X0077827
X0087669Y0125158
X0091575Y0123780
X0089638Y0121221
X0093575
Y0113347
X0097512
X0103418Y0117284
X0109803Y0115866
X0109323Y0113347
X0113287Y0116339
X0113268Y0119016
X0120000Y0118898
Y0111890
X0119166Y0109410
X0120000Y0104882
X0119166Y0101536
X0115229
X0111292
X0107355
X0103418
X0099480
X0095543
X0097512Y0097599
X0101449
X0105386
X0109323
X0113260
X0117197
X0120000Y0097874
X0119166Y0093662
X0120000Y0090827
X0117197Y0089725
X0113260
X0109323
X0105386
X0101449
X0097512
X0093575
X0089638
X0085701
X0082953Y0092520
X0087669Y0093662
X0091606
X0095543
X0099480
X0103418
X0107355
X0111292
X0115229
X0126575Y0093504
X0126252Y0089725
X0130189
X0134126
X0131890Y0087205
X0128221Y0085788
X0127067Y0081299
X0130189Y0081851
X0134126
X0132158Y0077914
X0128221
X0126252Y0073977
X0130189
X0134126
X0128221Y0070040
X0126252Y0066103
X0120000Y0069685
Y0076732
Y0083780
X0109323Y0081851
X0097512
X0099480Y0085788
X0095543
X0083732
X0081764Y0081851
X0077827
X0073890
X0069953
X0066016
X0062079
X0058142
X0060110Y0085788
X0064047
X0067984
X0071921
X0069953Y0089725
X0066016
X0062079
X0058142
X0060110Y0093662
X0064047
X0067984
X0071921
X0075858
X0073890Y0097599
X0069953
X0066016
X0062079
X0058142
X0060110Y0101536
X0064047
X0067984
X0071921
X0075858
X0079795
X0083732
X0081764Y0105473
X0077827
X0073890
X0069953
X0071921Y0109410
X0075858
X0079795
X0083732
X0081764Y0113347
X0085701
X0077827
X0073890
X0075858Y0117284
X0079795
X0066016Y0113347
X0062079Y0105473
X0058142
X0060110Y0077914
X0059488Y0066138
Y0062871
X0079795Y0062166
X0083732
X0081764Y0066103
X0085701
X0087669Y0070040
X0083732
X0079795
X0075858
X0077827Y0066103
Y0058229
X0081764
X0107388Y0063451
X0110310Y0066373
X0143347Y0066138
Y0062871
X0143969Y0077914
X0159717Y0070040
X0163654
X0167591
X0171528
X0169559Y0066103
X0165622
X0161685
X0163654Y0062166
X0167591
X0165622Y0058229
X0161685
X0191246Y0063451
X0194168Y0066373
X0210110Y0066103
Y0160591
X0197933Y0210433
X0114075
X0104626Y0205413
X0102854Y0203150
X0097244Y0204725
X0097512Y0199961
X0094291Y0199134
X0091693Y0200000
X0092559Y0202638
X0092402Y0206614
X0090669Y0210236
X0087677Y0212165
X0084055Y0212480
X0081063Y0211496
X0078248Y0212106
X0078780Y0209331
X0076183Y0208375
X0066457Y0208425
X0063622Y0208465
X0068110Y0211516
X0066024Y0199921
X0066339Y0196378
X0063627Y0191969
X0066417Y0188622
X0060591Y0199961
X0056595Y0202461
X0057284Y0205610
X0056536Y0196299
X0078701Y0200079
X0080984Y0198031
X0089331Y0198583
X0087795Y0182126
X0088977Y0173858
X0092126Y0166890
X0094055Y0152638
X0086457Y0155236
X0085000Y0145354
X0080512Y0143110
X0079528Y0147165
X0073425Y0138662
X0071358Y0136614
X0066016Y0152717
X0062205Y0161319
X0080083Y0162112
X0076772Y0168071
X0077953Y0173527
X0114862Y0174705
X0114646Y0171772
Y0168543
X0119882Y0169134
X0126252Y0168465
Y0176339
X0136516Y0176969
X0126252Y0160591
X0106559Y0145658
X0102362Y0140906
X0105197Y0136732
X0103543Y0133071
X0101280Y0126476
X0097717Y0127441
X0109323Y0105473
X0126252Y0097599
X0130189
X0132579Y0099410
X0132158Y0093662
X0149874Y0113347
X0052854Y0114665
X0053248Y0111417
X0046358Y0114173
X0044362Y0117284
X0041693Y0119449
X0041496Y0128740
X0041417Y0136102
X0041339Y0143543
X0047146Y0142225
Y0133169
X0049114Y0121949
X0053839Y0120669
X0048721Y0099410
X0046331Y0097599
X0042394
X0042717Y0093504
X0042394Y0089725
X0046331
X0050268
X0048032Y0087205
X0044362Y0085788
X0043209Y0081299
X0046331Y0081851
X0050268
X0048299Y0077914
X0044362
X0042394Y0073977
X0046331
X0050268
X0044362Y0070040
X0042394Y0066103
X0048299Y0093662
X0047146Y0151378
X0041339Y0150906
X0042394Y0160591
X0047146Y0158169
X0050551Y0155512
X0055394Y0153071
X0050689Y0167323
X0047146Y0164665
X0042394Y0168465
Y0176339
Y0184213
X0047441Y0185669
X0047402Y0189409
X0047343Y0193504
Y0196555
X0045197Y0198110
X0042394Y0199961
X0041339Y0202441
Y0209803
X0055158Y0209567
X0049843Y0200079
X0054205Y0192087
X0042394
X0047480Y0181575
X0052658Y0176969
X0053780Y0225055
X0054134Y0229725
X0053268Y0234960
X0047559Y0231732
X0041339Y0232126
Y0224685
Y0217244
X0042394Y0239331
Y0247205
Y0255079
Y0262953
X0044362Y0266890
X0042394Y0270827
Y0278701
X0046331
X0050512Y0279606
X0051671Y0285792
X0053189Y0288307
X0052126Y0292677
X0051693Y0302559
X0049313Y0301439
X0056103Y0301654
X0050268Y0310197
X0046331
X0042394
X0041339Y0305748
X0042394Y0302323
Y0294449
X0041339Y0290945
X0042394Y0286575
X0041339Y0283583
X0046654Y0286851
X0048299Y0314134
X0052236
X0044362
X0042394Y0318071
X0046331
X0044362Y0322008
X0046331Y0325945
X0046457Y0333386
X0048780
X0051181
X0053543
Y0335748
X0051969Y0338228
X0048701
X0046457
Y0335748
X0046331Y0341693
X0041339Y0342599
X0050000Y0347835
X0052756Y0345866
X0052236Y0353504
X0048299
X0044362
X0041339Y0357362
X0045748Y0359764
X0050268Y0357441
X0054205
X0053110Y0359843
X0052597Y0262383
X0052638Y0259252
X0052461Y0254440
X0049803Y0256221
X0048761Y0244035
X0058110Y0247953
X0062284Y0242992
X0062402Y0239881
X0066496Y0240193
X0070571Y0236221
X0070473Y0233071
X0069646Y0226102
X0075984Y0227362
X0075985Y0223752
X0078839Y0223622
X0075984Y0220374
X0083732Y0219646
X0081764Y0215709
X0085701
X0091606Y0219646
X0095543
X0095591Y0216850
X0096851Y0213622
X0099480Y0219646
X0097512Y0223583
X0099213Y0225689
X0097512Y0231457
X0099480Y0235394
X0105386Y0239331
X0112303Y0244587
X0116339Y0243996
X0116240Y0249114
X0126252Y0247205
Y0255079
Y0262953
X0128221Y0266890
X0126252Y0270827
Y0278701
X0130189
X0134370Y0279606
X0135529Y0285792
X0137047Y0288307
X0141299Y0288042
X0145276Y0290000
X0147843Y0296260
X0143780Y0300216
X0142224Y0302668
X0139961Y0301654
X0135551Y0302559
X0133171Y0301439
X0126252Y0302323
X0125197Y0305748
X0126252Y0310197
X0130189
X0134126
X0136095Y0314134
X0132158
X0128221
X0126252Y0318071
X0130189
X0128221Y0322008
X0130189Y0325945
X0130315Y0333386
X0132638
X0135039
X0137402
Y0335748
X0135827Y0338228
X0132559
X0130315
Y0335748
X0130189Y0341693
X0125197Y0342599
X0133858Y0347835
X0136614Y0345866
X0140158Y0343695
X0145669Y0343504
X0147906Y0345630
X0151843
X0156339Y0345394
Y0340394
X0153811Y0341693
X0149874
X0151843Y0337756
X0147906
X0149874Y0333819
X0153811
X0156339Y0332874
Y0335394
Y0327835
Y0322835
Y0317835
X0155780Y0314134
X0151843
X0147906
X0143969
X0142000Y0310197
X0145937
X0149874
X0153811
X0157748
X0167008Y0309843
X0166929Y0313228
X0166969Y0316732
X0175906Y0315787
X0175945Y0312520
Y0309449
X0175984Y0306339
X0175788Y0303307
X0174882Y0300748
X0173307Y0298307
X0176044Y0297461
X0176479Y0294894
X0171299Y0296063
X0169016Y0294213
X0166496Y0293465
X0163465Y0293228
X0159331Y0292795
X0157087Y0290866
X0155158Y0288937
X0149764Y0283386
X0144606Y0278189
X0142717Y0276496
X0150473Y0268661
X0153977Y0268937
X0152677Y0266693
X0147126Y0263347
X0144587Y0261024
X0147914Y0256536
X0150040Y0254370
X0136320Y0254440
X0133662Y0256221
X0136496Y0259252
X0136455Y0262383
X0141969Y0247953
X0146142Y0242992
X0146260Y0239881
X0150354Y0240193
X0154429Y0236221
X0154331Y0233071
X0153504Y0226102
X0159843Y0227362
X0159844Y0223752
X0162697Y0223622
X0159843Y0220374
X0167591Y0219646
X0165622Y0215709
X0169559
X0175465Y0219646
X0179402
X0179449Y0216850
X0180709Y0213622
X0183339Y0219646
X0181370Y0223583
X0183071Y0225689
X0181370Y0231457
X0183339Y0235394
X0189244Y0239331
X0196162Y0244587
X0200197Y0243996
X0200099Y0249114
X0210110Y0247205
Y0255079
Y0262953
X0212079Y0266890
X0210110Y0270827
Y0278701
X0209055Y0283583
X0210110Y0286575
X0209055Y0290945
X0210110Y0294449
X0203738Y0294291
X0203740Y0299291
X0210110Y0302323
X0209055Y0305748
X0210110Y0310197
X0212079Y0314134
X0210110Y0318071
X0212079Y0322008
X0203024Y0314134
X0200236Y0315512
X0195197
X0190158
X0187276Y0314134
X0185118Y0315512
X0180118
X0181370Y0310197
X0185307
X0189244
X0193181
X0197118
X0201055
X0189370Y0305610
X0189567Y0300787
X0195295Y0297756
X0195551Y0294488
X0195630Y0290984
X0194193Y0284339
X0184744Y0285630
X0184449Y0282283
X0179474Y0283732
X0177247Y0285959
X0166193Y0285076
X0164075Y0282973
X0163288Y0277067
X0159449Y0278070
X0161575Y0262244
Y0258976
X0170992Y0257110
X0169559Y0255079
X0173496Y0247205
X0177433
X0179402Y0251142
X0185788Y0254055
X0184055Y0256024
X0187559Y0258582
X0191890Y0260276
X0200594Y0261231
X0194000Y0271468
X0184606Y0266654
X0179646Y0266063
X0177952Y0264070
X0180276Y0270984
X0176221Y0273583
X0172008Y0272008
Y0241181
X0167795Y0240473
X0165748Y0238740
X0167913Y0236772
X0167559Y0231417
X0165059Y0229134
X0173496Y0223583
X0177433
X0193297Y0220866
X0197244Y0227953
X0198032Y0233169
X0209055Y0232126
Y0224685
Y0217244
X0210110Y0239331
X0175465Y0243268
X0163819Y0241929
X0161260Y0243189
X0159016Y0245433
X0163032Y0249016
X0141218Y0236221
X0137126Y0234960
X0137992Y0229725
X0137638Y0225055
X0141772Y0223937
X0144410Y0223937
X0149134Y0218425
X0125197Y0217244
Y0224685
Y0232126
X0131418Y0231732
X0126252Y0239331
X0132619Y0244035
X0114173Y0233169
X0113386Y0227953
X0109439Y0220866
X0093575Y0223583
X0089638
X0083701Y0231417
X0081201Y0229134
X0081890Y0238740
X0083937Y0240473
X0084055Y0236772
X0088150Y0241181
X0091606Y0243268
X0089638Y0247205
X0093575
X0095543Y0251142
X0101929Y0254055
X0100197Y0256024
X0103701Y0258582
X0108032Y0260276
X0116736Y0261231
X0110141Y0271468
X0110335Y0284339
X0111772Y0290984
X0111693Y0294488
X0111437Y0297756
X0105709Y0300787
X0105512Y0305610
X0105386Y0310197
X0109323
X0113260
X0117197
X0119166Y0314134
X0116378Y0315512
X0111339
X0106299
X0103418Y0314134
X0101260Y0315512
X0096260
X0092047Y0315787
X0092087Y0312520
Y0309449
X0092126Y0306339
X0091929Y0303307
X0091024Y0300748
X0089449Y0298307
X0092185Y0297461
X0092620Y0294894
X0087441Y0296063
X0085158Y0294213
X0082638Y0293465
X0079606Y0293228
X0075473Y0292795
X0073229Y0290866
X0071299Y0288937
X0065906Y0283386
X0060748Y0278189
X0058858Y0276496
X0057441Y0288042
X0061417Y0290000
X0063984Y0296260
X0059921Y0300216
X0058366Y0302668
X0062008Y0303858
X0062079Y0310197
X0066016
X0069953
X0073890
X0071921Y0314134
X0067984
X0064047
X0060110
X0058142Y0310197
X0069953Y0302323
X0074685Y0300866
X0077795Y0301102
X0080551Y0301142
X0082914Y0302795
X0082992Y0306339
X0083150Y0309843
X0083071Y0313228
X0083110Y0316732
X0072480Y0317835
Y0322835
Y0327835
Y0332874
Y0335394
X0069953Y0333819
X0066016
X0067984Y0337756
X0064047
X0066016Y0341693
X0069953
X0072480Y0340394
Y0345394
X0067984Y0345630
X0064047
X0061811Y0343504
X0056299Y0343695
X0056299Y0328937
X0066016Y0349567
X0069953
X0072480Y0350433
Y0355433
X0069953Y0357441
X0066016
X0062079
X0058142
X0060433Y0359843
X0067717
X0072480Y0360472
X0067984Y0353504
X0064047
X0128221
X0132158
X0136095
X0134126Y0357441
X0138063
X0136969Y0359843
X0144291
X0145937Y0357441
X0149874
X0153811
X0156339Y0355433
Y0350433
X0153811Y0349567
X0149874
X0151843Y0353504
X0147906
X0142000Y0357441
X0151575Y0359843
X0156339Y0360472
X0129606Y0359764
X0125197Y0357362
X0140158Y0328937
X0145866Y0303858
X0153811Y0302323
X0158544Y0300866
X0161654Y0301102
X0164410Y0301142
X0166772Y0302795
X0166850Y0306339
X0182874Y0292717
X0185138Y0294858
X0135984Y0292677
X0130512Y0286851
X0126252Y0286575
X0125197Y0283583
Y0290945
X0126252Y0294449
X0119880Y0294291
X0119882Y0299291
X0101280Y0294858
X0099016Y0292717
X0100886Y0285630
X0100591Y0282283
X0095616Y0283732
X0093389Y0285959
X0082334Y0285076
X0080217Y0282973
X0079429Y0277067
X0075591Y0278070
X0070118Y0268937
X0068819Y0266693
X0066614Y0268661
X0063268Y0263347
X0060729Y0261024
X0064055Y0256536
X0066181Y0254370
X0077717Y0258976
Y0262244
X0087134Y0257110
X0085701Y0255079
X0079173Y0249016
X0077402Y0243189
X0079961Y0241929
X0075158Y0245433
X0057359Y0236221
X0057914Y0223937
X0060551Y0223937
X0065276Y0218425
X0094093Y0264070
X0095788Y0266063
X0096417Y0270984
X0092362Y0273583
X0088150Y0272008
X0100748Y0266654
X0101449Y0310197
X0097512
X0209055Y0342599
X0212079Y0353504
X0209055Y0357362
X0213465Y0359764
X0217985Y0357441
X0221921
X0220827Y0359843
X0219953Y0353504
X0216016
X0217717Y0347835
X0220473Y0345866
X0224016Y0343695
X0229528Y0343504
X0231764Y0345630
X0235701
X0240197Y0345394
Y0340394
X0237670Y0341693
X0233733
X0235701Y0337756
X0231764
X0233733Y0333819
X0237670
X0240197Y0332874
Y0335394
Y0327835
Y0322835
Y0317835
X0239638Y0314134
X0235701
X0231764
X0227827
X0225858Y0310197
X0229796
X0233733
X0237670
X0241607
X0250866Y0309843
X0250788Y0313228
X0250827Y0316732
X0259764Y0315787
X0259803Y0312520
Y0309449
X0259843Y0306339
X0259646Y0303307
X0258740Y0300748
X0257166Y0298307
X0259902Y0297461
X0260337Y0294894
X0255158Y0296063
X0252874Y0294213
X0250355Y0293465
X0247323Y0293228
X0243189Y0292795
X0240945Y0290866
X0239016Y0288937
X0233622Y0283386
X0228465Y0278189
X0226575Y0276496
X0218229Y0279606
X0214048Y0278701
X0214370Y0286851
X0219388Y0285792
X0220906Y0288307
X0225158Y0288042
X0229134Y0290000
X0231701Y0296260
X0227638Y0300216
X0226082Y0302668
X0223819Y0301654
X0219410Y0302559
X0217030Y0301439
X0217985Y0310197
X0214048
X0216016Y0314134
X0219953
X0214048Y0318071
Y0325945
X0214173Y0333386
X0216496
X0218898
X0221260
Y0335748
X0219685Y0338228
X0216418
X0214173
Y0335748
X0214048Y0341693
X0224016Y0328937
X0233733Y0349567
X0237670
X0240197Y0350433
Y0355433
X0237670Y0357441
X0233733
X0229796
X0225858
X0228150Y0359843
X0235433
X0240197Y0360472
X0235701Y0353504
X0231764
X0229725Y0303858
X0237670Y0302323
X0242402Y0300866
X0245512Y0301102
X0248268Y0301142
X0250630Y0302795
X0250709Y0306339
X0265229Y0310197
X0269166
X0273103
X0277040
X0280977
X0284914
X0286882Y0314134
X0284095Y0315512
X0279055
X0274016
X0271134Y0314134
X0268976Y0315512
X0263977
X0273229Y0305610
X0273425Y0300787
X0279154Y0297756
X0279410Y0294488
X0279488Y0290984
X0278051Y0284339
X0268602Y0285630
X0268307Y0282283
X0263333Y0283732
X0261105Y0285959
X0250051Y0285076
X0247933Y0282973
X0247146Y0277067
X0243307Y0278070
X0237835Y0268937
X0236536Y0266693
X0234331Y0268661
X0230984Y0263347
X0228445Y0261024
X0231772Y0256536
X0233898Y0254370
X0220178Y0254440
X0217520Y0256221
X0220355Y0259252
X0220314Y0262383
X0225827Y0247953
X0230000Y0242992
X0230118Y0239881
X0234213Y0240193
X0238288Y0236221
X0238189Y0233071
X0237362Y0226102
X0243701Y0227362
X0243702Y0223752
X0246555Y0223622
X0243701Y0220374
X0251449Y0219646
X0249481Y0215709
X0253418
X0259323Y0219646
X0263260
X0263307Y0216850
X0264567Y0213622
X0267197Y0219646
X0265229Y0223583
X0266929Y0225689
X0265229Y0231457
X0267197Y0235394
X0273103Y0239331
X0280020Y0244587
X0284055Y0243996
X0283957Y0249114
X0293969Y0247205
Y0255079
Y0262953
X0295937Y0266890
X0293969Y0270827
Y0278701
X0297906
X0302087Y0279606
X0303246Y0285792
X0304764Y0288307
X0309016Y0288042
X0312992Y0290000
X0315559Y0296260
X0311496Y0300216
X0309941Y0302668
X0307677Y0301654
X0303268Y0302559
X0300888Y0301439
X0293969Y0302323
X0292914Y0305748
X0293969Y0310197
X0297906
X0301843
X0303811Y0314134
X0299874
X0295937
X0293969Y0318071
X0297906
X0295937Y0322008
X0297906Y0325945
X0298032Y0333386
X0300355
X0302756
X0305118
Y0335748
X0303543Y0338228
X0300276
X0298032
Y0335748
X0297906Y0341693
X0292914Y0342599
X0301575Y0347835
X0304331Y0345866
X0307874Y0343695
X0313386Y0343504
X0315622Y0345630
X0319559
X0324055Y0345394
Y0340394
X0321528Y0341693
X0317591
X0319559Y0337756
X0315622
X0317591Y0333819
X0321528
X0324055Y0332874
Y0335394
Y0327835
Y0322835
Y0317835
X0323496Y0314134
X0319559
X0315622
X0311685
X0309717Y0310197
X0313654
X0317591
X0321528
X0325465
X0334725Y0309843
X0334646Y0313228
X0334685Y0316732
X0343622Y0315787
X0343662Y0312520
Y0309449
X0343701Y0306339
X0343504Y0303307
X0342599Y0300748
X0341024Y0298307
X0343760Y0297461
X0344195Y0294894
X0339016Y0296063
X0336733Y0294213
X0334213Y0293465
X0331181Y0293228
X0327047Y0292795
X0324803Y0290866
X0322874Y0288937
X0317480Y0283386
X0312323Y0278189
X0310433Y0276496
X0318189Y0268661
X0321693Y0268937
X0320394Y0266693
X0314843Y0263347
X0312303Y0261024
X0315630Y0256536
X0317756Y0254370
X0304036Y0254440
X0301378Y0256221
X0304213Y0259252
X0304172Y0262383
X0309685Y0247953
X0313859Y0242992
X0313977Y0239881
X0318071Y0240193
X0322146Y0236221
X0322047Y0233071
X0321221Y0226102
X0327559Y0227362
X0327560Y0223752
X0330414Y0223622
X0327559Y0220374
X0335307Y0219646
X0333339Y0215709
X0337276
X0343181Y0219646
X0347118
X0347166Y0216850
X0348425Y0213622
X0351055Y0219646
X0349087Y0223583
X0350788Y0225689
X0349087Y0231457
X0351055Y0235394
X0356961Y0239331
X0363878Y0244587
X0367914Y0243996
X0367815Y0249114
X0368311Y0261231
X0359607Y0260276
X0355276Y0258582
X0351772Y0256024
X0353504Y0254055
X0347118Y0251142
X0345150Y0247205
X0341213
X0343181Y0243268
X0339725Y0241181
X0335512Y0240473
X0333465Y0238740
X0335630Y0236772
X0335276Y0231417
X0332776Y0229134
X0341213Y0223583
X0345150
X0361014Y0220866
X0364961Y0227953
X0365748Y0233169
X0361716Y0271468
X0361910Y0284339
X0363347Y0290984
X0363268Y0294488
X0363012Y0297756
X0357284Y0300787
X0357087Y0305610
X0356961Y0310197
X0360898
X0364835
X0362914Y0315512
X0367953
X0357874
X0354993Y0314134
X0352835Y0315512
X0347835
X0349087Y0310197
X0353024
X0352854Y0294858
X0350591Y0292717
X0352461Y0285630
X0352166Y0282283
X0347191Y0283732
X0344964Y0285959
X0333909Y0285076
X0331791Y0282973
X0331004Y0277067
X0327166Y0278070
X0329292Y0262244
Y0258976
X0338708Y0257110
X0337276Y0255079
X0330748Y0249016
X0328977Y0243189
X0331536Y0241929
X0326732Y0245433
X0308934Y0236221
X0304843Y0234960
X0305709Y0229725
X0305354Y0225055
X0309488Y0223937
X0312126Y0223937
X0316851Y0218425
X0292914Y0217244
Y0224685
Y0232126
X0299134Y0231732
X0293969Y0239331
X0300336Y0244035
X0281890Y0233169
X0281102Y0227953
X0277156Y0220866
X0261292Y0223583
X0257355
X0251417Y0231417
X0248918Y0229134
X0249606Y0238740
X0251654Y0240473
X0251772Y0236772
X0255866Y0241181
X0259323Y0243268
X0257355Y0247205
X0261292
X0263260Y0251142
X0269646Y0254055
X0267914Y0256024
X0271417Y0258582
X0275748Y0260276
X0284453Y0261231
X0277858Y0271468
X0268465Y0266654
X0263504Y0266063
X0261810Y0264070
X0264134Y0270984
X0260079Y0273583
X0255866Y0272008
X0254850Y0257110
X0253418Y0255079
X0245433Y0258976
Y0262244
X0246890Y0249016
X0245118Y0243189
X0247677Y0241929
X0242874Y0245433
X0225076Y0236221
X0220984Y0234960
X0221851Y0229725
X0221496Y0225055
X0225630Y0223937
X0228268Y0223937
X0232992Y0218425
X0215276Y0231732
X0216477Y0244035
X0219843Y0292677
X0266733Y0292717
X0268996Y0294858
X0287596Y0294291
X0287599Y0299291
X0293969Y0294449
X0292914Y0290945
X0293969Y0286575
X0292914Y0283583
X0298229Y0286851
X0303701Y0292677
X0313583Y0303858
X0321528Y0302323
X0326260Y0300866
X0329370Y0301102
X0332126Y0301142
X0334488Y0302795
X0334567Y0306339
X0339725Y0272008
X0343937Y0273583
X0347992Y0270984
X0347362Y0266063
X0345668Y0264070
X0352323Y0266654
X0307874Y0328937
X0303811Y0353504
X0299874
X0295937
X0292914Y0357362
X0297323Y0359764
X0301843Y0357441
X0305780
X0304685Y0359843
X0312008
X0313654Y0357441
X0317591
X0321528
X0324055Y0355433
Y0350433
X0321528Y0349567
X0317591
X0319559Y0353504
X0315622
X0309717Y0357441
X0319292Y0359843
X0324055Y0360472
X0376772Y0357362
X0381181Y0359764
X0385701Y0357441
X0389638
X0388544Y0359843
X0387670Y0353504
X0383733
X0379796
X0385433Y0347835
X0388189Y0345866
X0391733Y0343695
X0397244Y0343504
X0399481Y0345630
X0403418
X0407914Y0345394
Y0340394
X0405386Y0341693
X0401449
X0403418Y0337756
X0399481
X0401449Y0333819
X0405386
X0407914Y0332874
Y0335394
Y0327835
Y0322835
Y0317835
X0407355Y0314134
X0403418
X0399481
X0395544
X0393575Y0310197
X0397512
X0401449
X0405386
X0409323
X0418583Y0309843
X0418504Y0313228
X0418543Y0316732
X0427481Y0315787
X0427520Y0312520
Y0309449
X0427559Y0306339
X0427362Y0303307
X0426457Y0300748
X0424882Y0298307
X0427619Y0297461
X0428054Y0294894
X0422874Y0296063
X0420591Y0294213
X0418071Y0293465
X0415040Y0293228
X0410906Y0292795
X0408662Y0290866
X0406733Y0288937
X0401339Y0283386
X0396181Y0278189
X0394292Y0276496
X0385945Y0279606
X0381764Y0278701
X0377827
X0376772Y0283583
X0377827Y0286575
X0382087Y0286851
X0387104Y0285792
X0388622Y0288307
X0392874Y0288042
X0396851Y0290000
X0399418Y0296260
X0395355Y0300216
X0393799Y0302668
X0391536Y0301654
X0387126Y0302559
X0384746Y0301439
X0377827Y0302323
X0376772Y0305748
X0377827Y0310197
X0381764
X0385701
X0387670Y0314134
X0383733
X0379796
X0377827Y0318071
X0381764
X0379796Y0322008
X0381764Y0325945
X0381890Y0333386
X0384213
X0386614
X0388977
Y0335748
X0387402Y0338228
X0384134
X0381890
Y0335748
X0381764Y0341693
X0376772Y0342599
X0391733Y0328937
X0401449Y0349567
X0405386
X0407914Y0350433
Y0355433
X0405386Y0357441
X0401449
X0397512
X0393575
X0395866Y0359843
X0403150
X0407914Y0360472
X0403418Y0353504
X0399481
X0397441Y0303858
X0405386Y0302323
X0410118Y0300866
X0413229Y0301102
X0415984Y0301142
X0418347Y0302795
X0418425Y0306339
X0432945Y0310197
X0436882
X0440819
X0444756
X0448693
X0452630
X0454599Y0314134
X0451811Y0315512
X0446772
X0441733
X0438851Y0314134
X0436693Y0315512
X0431693
X0440945Y0305610
X0441142Y0300787
X0446870Y0297756
X0447126Y0294488
X0447205Y0290984
X0445768Y0284339
X0436319Y0285630
X0436024Y0282283
X0431049Y0283732
X0428822Y0285959
X0417768Y0285076
X0415650Y0282973
X0414862Y0277067
X0411024Y0278070
X0405551Y0268937
X0404252Y0266693
X0402047Y0268661
X0398701Y0263347
X0396162Y0261024
X0399488Y0256536
X0401614Y0254370
X0387895Y0254440
X0385237Y0256221
X0388071Y0259252
X0388030Y0262383
X0377827Y0262953
X0379796Y0266890
X0377827Y0270827
Y0255079
Y0247205
Y0239331
X0376772Y0232126
X0382992Y0231732
X0389567Y0229725
X0389213Y0225055
X0393347Y0223937
X0395985Y0223937
X0400709Y0218425
X0405079Y0226102
X0411418Y0227362
X0411418Y0223752
X0414272Y0223622
X0411418Y0220374
X0419166Y0219646
X0417197Y0215709
X0421134
X0427040Y0219646
X0430977
X0431024Y0216850
X0432284Y0213622
X0434914Y0219646
X0432945Y0223583
X0434646Y0225689
X0432945Y0231457
X0434914Y0235394
X0440819Y0239331
X0447737Y0244587
X0451772Y0243996
X0451674Y0249114
X0452169Y0261231
X0443465Y0260276
X0439134Y0258582
X0435630Y0256024
X0437362Y0254055
X0430977Y0251142
X0429008Y0247205
X0425071
X0427040Y0243268
X0423583Y0241181
X0419370Y0240473
X0417323Y0238740
X0419488Y0236772
X0419134Y0231417
X0416634Y0229134
X0425071Y0223583
X0429008
X0444872Y0220866
X0448819Y0227953
X0449607Y0233169
X0445575Y0271468
X0436181Y0266654
X0431221Y0266063
X0429526Y0264070
X0431851Y0270984
X0427796Y0273583
X0423583Y0272008
X0422567Y0257110
X0421134Y0255079
X0413150Y0258976
Y0262244
X0414607Y0249016
X0412835Y0243189
X0415394Y0241929
X0410591Y0245433
X0406004Y0236221
X0405906Y0233071
X0401929Y0240193
X0397835Y0239881
X0397717Y0242992
X0393544Y0247953
X0392793Y0236221
X0388701Y0234960
X0384194Y0244035
X0376772Y0224685
Y0217244
Y0290945
X0377827Y0294449
X0371455Y0294291
X0371457Y0299291
X0368772Y0310197
X0370741Y0314134
X0387559Y0292677
X0434449Y0292717
X0436713Y0294858
X0455313Y0294291
X0455315Y0299291
T02
X0420216Y0204422
X0336357
X0252499
X0168641
X0084782
T03
X0394921Y0057874
X0438110Y0058740
X0354252
X0311063Y0057874
X0270394Y0058740
X0227205Y0057874
X0186536Y0058740
X0143347Y0057874
X0102677Y0058740
X0059488Y0057874
T04
X0020276Y0020394
X0475984
X0476299Y0382835
X0020118Y0382323
M30
