G04*
G04 #@! TF.GenerationSoftware,Altium Limited,Altium Designer,19.1.7 (138)*
G04*
G04 Layer_Color=128*
%FSAX25Y25*%
%MOIN*%
G70*
G01*
G75*
%ADD11R,0.02362X0.01968*%
%ADD12R,0.03740X0.01890*%
%ADD14R,0.02362X0.02520*%
%ADD15R,0.01968X0.02362*%
%ADD18R,0.02520X0.02362*%
%ADD20R,0.03150X0.03150*%
%ADD22R,0.03150X0.03150*%
%ADD24R,0.03937X0.02244*%
%ADD31R,0.01181X0.01181*%
%ADD35C,0.01181*%
%ADD42C,0.01968*%
%ADD43C,0.02953*%
%ADD46C,0.01575*%
%ADD55R,0.05906X0.06299*%
G04:AMPARAMS|DCode=56|XSize=9.84mil|YSize=33.47mil|CornerRadius=2.46mil|HoleSize=0mil|Usage=FLASHONLY|Rotation=360.000|XOffset=0mil|YOffset=0mil|HoleType=Round|Shape=RoundedRectangle|*
%AMROUNDEDRECTD56*
21,1,0.00984,0.02854,0,0,360.0*
21,1,0.00492,0.03347,0,0,360.0*
1,1,0.00492,0.00246,-0.01427*
1,1,0.00492,-0.00246,-0.01427*
1,1,0.00492,-0.00246,0.01427*
1,1,0.00492,0.00246,0.01427*
%
%ADD56ROUNDEDRECTD56*%
%ADD57R,0.05906X0.18504*%
%ADD58R,0.01181X0.03150*%
%ADD59R,0.06299X0.03543*%
%ADD60R,0.01968X0.01575*%
%ADD61R,0.01181X0.01575*%
%ADD62R,0.02362X0.04331*%
%ADD63R,0.01181X0.01772*%
%ADD64R,0.01890X0.03740*%
%ADD65R,0.01968X0.01968*%
%ADD66R,0.02756X0.01181*%
%ADD67R,0.02244X0.03937*%
%ADD68R,0.02362X0.03937*%
%ADD69R,0.01968X0.01378*%
%ADD70R,0.02756X0.06693*%
%ADD71R,0.03543X0.05118*%
G36*
X0536159Y0315236D02*
X0536163Y0308386D01*
X0533679Y0308386D01*
X0533089Y0308977D01*
X0533088Y0315236D01*
X0536159Y0315236D01*
D02*
G37*
G36*
X0452694D02*
X0452699Y0308386D01*
X0450214Y0308386D01*
X0449624Y0308977D01*
X0449624Y0315236D01*
X0452694Y0315236D01*
D02*
G37*
G36*
X0369230D02*
X0369234Y0308386D01*
X0366750Y0308386D01*
X0366160Y0308977D01*
X0366159Y0315236D01*
X0369230Y0315236D01*
D02*
G37*
G36*
X0285765D02*
X0285770Y0308386D01*
X0283285Y0308386D01*
X0282695Y0308977D01*
X0282695Y0315236D01*
X0285765Y0315236D01*
D02*
G37*
G36*
X0202300D02*
X0202305Y0308386D01*
X0199821Y0308386D01*
X0199230Y0308977D01*
X0199230Y0315236D01*
X0202300Y0315236D01*
D02*
G37*
D11*
X0216535Y0177559D02*
D03*
Y0181496D02*
D03*
X0195276Y0179134D02*
D03*
Y0175197D02*
D03*
X0190158Y0211417D02*
D03*
Y0207480D02*
D03*
X0207480Y0177559D02*
D03*
Y0181496D02*
D03*
X0209742Y0312795D02*
D03*
Y0316732D02*
D03*
X0169095Y0210079D02*
D03*
Y0206142D02*
D03*
Y0201339D02*
D03*
Y0197402D02*
D03*
X0156575Y0213976D02*
D03*
Y0210039D02*
D03*
X0149370Y0240906D02*
D03*
Y0236969D02*
D03*
X0154724Y0237500D02*
D03*
Y0233563D02*
D03*
X0162795Y0214094D02*
D03*
Y0218032D02*
D03*
X0166969Y0232146D02*
D03*
Y0236083D02*
D03*
X0171417Y0232126D02*
D03*
Y0236063D02*
D03*
X0166102Y0333386D02*
D03*
Y0337323D02*
D03*
X0160197Y0283858D02*
D03*
Y0279921D02*
D03*
X0171457Y0257598D02*
D03*
Y0261536D02*
D03*
X0192953Y0235906D02*
D03*
Y0239843D02*
D03*
X0300000Y0177559D02*
D03*
Y0181496D02*
D03*
X0278740Y0179134D02*
D03*
Y0175197D02*
D03*
X0273622Y0211417D02*
D03*
Y0207480D02*
D03*
X0290945Y0177559D02*
D03*
Y0181496D02*
D03*
X0293207Y0312795D02*
D03*
Y0316732D02*
D03*
X0252559Y0210079D02*
D03*
Y0206142D02*
D03*
Y0201339D02*
D03*
Y0197402D02*
D03*
X0240039Y0213976D02*
D03*
Y0210039D02*
D03*
X0232835Y0240906D02*
D03*
Y0236969D02*
D03*
X0238189Y0237500D02*
D03*
Y0233563D02*
D03*
X0246260Y0214094D02*
D03*
Y0218032D02*
D03*
X0250433Y0232146D02*
D03*
Y0236083D02*
D03*
X0254882Y0232126D02*
D03*
Y0236063D02*
D03*
X0249567Y0333386D02*
D03*
Y0337323D02*
D03*
X0243661Y0283858D02*
D03*
Y0279921D02*
D03*
X0254921Y0257598D02*
D03*
Y0261536D02*
D03*
X0276417Y0235906D02*
D03*
Y0239843D02*
D03*
X0383465Y0177559D02*
D03*
Y0181496D02*
D03*
X0362205Y0179134D02*
D03*
Y0175197D02*
D03*
X0357087Y0211417D02*
D03*
Y0207480D02*
D03*
X0374410Y0177559D02*
D03*
Y0181496D02*
D03*
X0376671Y0312795D02*
D03*
Y0316732D02*
D03*
X0336024Y0210079D02*
D03*
Y0206142D02*
D03*
Y0201339D02*
D03*
Y0197402D02*
D03*
X0323504Y0213976D02*
D03*
Y0210039D02*
D03*
X0316299Y0240906D02*
D03*
Y0236969D02*
D03*
X0321654Y0237500D02*
D03*
Y0233563D02*
D03*
X0329724Y0214094D02*
D03*
Y0218032D02*
D03*
X0333898Y0232146D02*
D03*
Y0236083D02*
D03*
X0338346Y0232126D02*
D03*
Y0236063D02*
D03*
X0333032Y0333386D02*
D03*
Y0337323D02*
D03*
X0327126Y0283858D02*
D03*
Y0279921D02*
D03*
X0338386Y0257598D02*
D03*
Y0261536D02*
D03*
X0359882Y0235906D02*
D03*
Y0239843D02*
D03*
X0466929Y0177559D02*
D03*
Y0181496D02*
D03*
X0445669Y0179134D02*
D03*
Y0175197D02*
D03*
X0440551Y0211417D02*
D03*
Y0207480D02*
D03*
X0457874Y0177559D02*
D03*
Y0181496D02*
D03*
X0460136Y0312795D02*
D03*
Y0316732D02*
D03*
X0419488Y0210079D02*
D03*
Y0206142D02*
D03*
Y0201339D02*
D03*
Y0197402D02*
D03*
X0406968Y0213976D02*
D03*
Y0210039D02*
D03*
X0399764Y0240906D02*
D03*
Y0236969D02*
D03*
X0405118Y0237500D02*
D03*
Y0233563D02*
D03*
X0413189Y0214094D02*
D03*
Y0218032D02*
D03*
X0417362Y0232146D02*
D03*
Y0236083D02*
D03*
X0421811Y0232126D02*
D03*
Y0236063D02*
D03*
X0416496Y0333386D02*
D03*
Y0337323D02*
D03*
X0410591Y0283858D02*
D03*
Y0279921D02*
D03*
X0421850Y0257598D02*
D03*
Y0261536D02*
D03*
X0443347Y0235906D02*
D03*
Y0239843D02*
D03*
X0550394Y0177559D02*
D03*
Y0181496D02*
D03*
X0529134Y0179134D02*
D03*
Y0175197D02*
D03*
X0524016Y0211417D02*
D03*
Y0207480D02*
D03*
X0541339Y0177559D02*
D03*
Y0181496D02*
D03*
X0543600Y0312795D02*
D03*
Y0316732D02*
D03*
X0502953Y0210079D02*
D03*
Y0206142D02*
D03*
Y0201339D02*
D03*
Y0197402D02*
D03*
X0490433Y0213976D02*
D03*
Y0210039D02*
D03*
X0483228Y0240906D02*
D03*
Y0236969D02*
D03*
X0488583Y0237500D02*
D03*
Y0233563D02*
D03*
X0496654Y0214094D02*
D03*
Y0218032D02*
D03*
X0500827Y0232146D02*
D03*
Y0236083D02*
D03*
X0505276Y0232126D02*
D03*
Y0236063D02*
D03*
X0499961Y0333386D02*
D03*
Y0337323D02*
D03*
X0494055Y0283858D02*
D03*
Y0279921D02*
D03*
X0505315Y0257598D02*
D03*
Y0261536D02*
D03*
X0526811Y0235906D02*
D03*
Y0239843D02*
D03*
D12*
X0210354Y0153268D02*
D03*
Y0160906D02*
D03*
X0217992Y0157087D02*
D03*
X0210354Y0166260D02*
D03*
Y0173898D02*
D03*
X0217992Y0170079D02*
D03*
X0178465Y0210354D02*
D03*
Y0217992D02*
D03*
X0186102Y0214173D02*
D03*
X0293819Y0153268D02*
D03*
Y0160906D02*
D03*
X0301457Y0157087D02*
D03*
X0293819Y0166260D02*
D03*
Y0173898D02*
D03*
X0301457Y0170079D02*
D03*
X0261929Y0210354D02*
D03*
Y0217992D02*
D03*
X0269567Y0214173D02*
D03*
X0377284Y0153268D02*
D03*
Y0160906D02*
D03*
X0384921Y0157087D02*
D03*
X0377284Y0166260D02*
D03*
Y0173898D02*
D03*
X0384921Y0170079D02*
D03*
X0345394Y0210354D02*
D03*
Y0217992D02*
D03*
X0353032Y0214173D02*
D03*
X0460748Y0153268D02*
D03*
Y0160906D02*
D03*
X0468386Y0157087D02*
D03*
X0460748Y0166260D02*
D03*
Y0173898D02*
D03*
X0468386Y0170079D02*
D03*
X0428858Y0210354D02*
D03*
Y0217992D02*
D03*
X0436496Y0214173D02*
D03*
X0544213Y0153268D02*
D03*
Y0160906D02*
D03*
X0551851Y0157087D02*
D03*
X0544213Y0166260D02*
D03*
Y0173898D02*
D03*
X0551851Y0170079D02*
D03*
X0512323Y0210354D02*
D03*
Y0217992D02*
D03*
X0519961Y0214173D02*
D03*
D14*
X0194978Y0304724D02*
D03*
X0191199D02*
D03*
X0189646Y0288110D02*
D03*
X0185866D02*
D03*
X0189646Y0275551D02*
D03*
X0185866D02*
D03*
X0210551Y0240591D02*
D03*
X0206772D02*
D03*
X0278443Y0304724D02*
D03*
X0274663D02*
D03*
X0273110Y0288110D02*
D03*
X0269331D02*
D03*
X0273110Y0275551D02*
D03*
X0269331D02*
D03*
X0294016Y0240591D02*
D03*
X0290236D02*
D03*
X0361908Y0304724D02*
D03*
X0358128D02*
D03*
X0356575Y0288110D02*
D03*
X0352795D02*
D03*
X0356575Y0275551D02*
D03*
X0352795D02*
D03*
X0377480Y0240591D02*
D03*
X0373701D02*
D03*
X0445372Y0304724D02*
D03*
X0441593D02*
D03*
X0440039Y0288110D02*
D03*
X0436260D02*
D03*
X0440039Y0275551D02*
D03*
X0436260D02*
D03*
X0460945Y0240591D02*
D03*
X0457165D02*
D03*
X0528837Y0304724D02*
D03*
X0525057D02*
D03*
X0523504Y0288110D02*
D03*
X0519724D02*
D03*
X0523504Y0275551D02*
D03*
X0519724D02*
D03*
X0544409Y0240591D02*
D03*
X0540630D02*
D03*
D15*
X0199114Y0183421D02*
D03*
X0195177D02*
D03*
X0196693Y0218977D02*
D03*
X0192756D02*
D03*
X0173228Y0218110D02*
D03*
X0169291D02*
D03*
X0164764Y0201457D02*
D03*
X0160827D02*
D03*
X0162756Y0228268D02*
D03*
X0158819D02*
D03*
X0172795Y0287008D02*
D03*
X0168858D02*
D03*
X0201102Y0233465D02*
D03*
X0197165D02*
D03*
X0201102Y0229134D02*
D03*
X0197165D02*
D03*
X0282579Y0183421D02*
D03*
X0278642D02*
D03*
X0280158Y0218977D02*
D03*
X0276221D02*
D03*
X0256693Y0218110D02*
D03*
X0252756D02*
D03*
X0248228Y0201457D02*
D03*
X0244291D02*
D03*
X0246220Y0228268D02*
D03*
X0242283D02*
D03*
X0256260Y0287008D02*
D03*
X0252323D02*
D03*
X0284567Y0233465D02*
D03*
X0280630D02*
D03*
X0284567Y0229134D02*
D03*
X0280630D02*
D03*
X0366043Y0183421D02*
D03*
X0362106D02*
D03*
X0363622Y0218977D02*
D03*
X0359685D02*
D03*
X0340158Y0218110D02*
D03*
X0336221D02*
D03*
X0331693Y0201457D02*
D03*
X0327756D02*
D03*
X0329685Y0228268D02*
D03*
X0325748D02*
D03*
X0339724Y0287008D02*
D03*
X0335787D02*
D03*
X0368032Y0233465D02*
D03*
X0364094D02*
D03*
X0368032Y0229134D02*
D03*
X0364094D02*
D03*
X0449508Y0183421D02*
D03*
X0445571D02*
D03*
X0447087Y0218977D02*
D03*
X0443150D02*
D03*
X0423622Y0218110D02*
D03*
X0419685D02*
D03*
X0415158Y0201457D02*
D03*
X0411221D02*
D03*
X0413150Y0228268D02*
D03*
X0409213D02*
D03*
X0423189Y0287008D02*
D03*
X0419252D02*
D03*
X0451496Y0233465D02*
D03*
X0447559D02*
D03*
X0451496Y0229134D02*
D03*
X0447559D02*
D03*
X0532972Y0183421D02*
D03*
X0529036D02*
D03*
X0530551Y0218977D02*
D03*
X0526614D02*
D03*
X0507087Y0218110D02*
D03*
X0503150D02*
D03*
X0498622Y0201457D02*
D03*
X0494685D02*
D03*
X0496614Y0228268D02*
D03*
X0492677D02*
D03*
X0506653Y0287008D02*
D03*
X0502716D02*
D03*
X0534961Y0233465D02*
D03*
X0531024D02*
D03*
X0534961Y0229134D02*
D03*
X0531024D02*
D03*
D18*
X0166181Y0243032D02*
D03*
Y0246811D02*
D03*
X0212008Y0177638D02*
D03*
Y0181417D02*
D03*
X0164961Y0192047D02*
D03*
Y0188268D02*
D03*
X0165748Y0176457D02*
D03*
Y0180236D02*
D03*
X0173543Y0197520D02*
D03*
Y0201299D02*
D03*
X0149370Y0228543D02*
D03*
Y0232323D02*
D03*
X0170827Y0243032D02*
D03*
Y0246811D02*
D03*
X0151575Y0370827D02*
D03*
Y0367047D02*
D03*
X0168858Y0278858D02*
D03*
Y0282638D02*
D03*
X0188386Y0250551D02*
D03*
Y0246772D02*
D03*
X0249646Y0243032D02*
D03*
Y0246811D02*
D03*
X0295473Y0177638D02*
D03*
Y0181417D02*
D03*
X0248425Y0192047D02*
D03*
Y0188268D02*
D03*
X0249213Y0176457D02*
D03*
Y0180236D02*
D03*
X0257008Y0197520D02*
D03*
Y0201299D02*
D03*
X0232835Y0228543D02*
D03*
Y0232323D02*
D03*
X0254291Y0243032D02*
D03*
Y0246811D02*
D03*
X0235039Y0370827D02*
D03*
Y0367047D02*
D03*
X0252323Y0278858D02*
D03*
Y0282638D02*
D03*
X0271850Y0250551D02*
D03*
Y0246772D02*
D03*
X0333110Y0243032D02*
D03*
Y0246811D02*
D03*
X0378937Y0177638D02*
D03*
Y0181417D02*
D03*
X0331890Y0192047D02*
D03*
Y0188268D02*
D03*
X0332677Y0176457D02*
D03*
Y0180236D02*
D03*
X0340472Y0197520D02*
D03*
Y0201299D02*
D03*
X0316299Y0228543D02*
D03*
Y0232323D02*
D03*
X0337756Y0243032D02*
D03*
Y0246811D02*
D03*
X0318504Y0370827D02*
D03*
Y0367047D02*
D03*
X0335787Y0278858D02*
D03*
Y0282638D02*
D03*
X0355315Y0250551D02*
D03*
Y0246772D02*
D03*
X0416575Y0243032D02*
D03*
Y0246811D02*
D03*
X0462402Y0177638D02*
D03*
Y0181417D02*
D03*
X0415354Y0192047D02*
D03*
Y0188268D02*
D03*
X0416142Y0176457D02*
D03*
Y0180236D02*
D03*
X0423937Y0197520D02*
D03*
Y0201299D02*
D03*
X0399764Y0228543D02*
D03*
Y0232323D02*
D03*
X0421220Y0243032D02*
D03*
Y0246811D02*
D03*
X0401968Y0370827D02*
D03*
Y0367047D02*
D03*
X0419252Y0278858D02*
D03*
Y0282638D02*
D03*
X0438779Y0250551D02*
D03*
Y0246772D02*
D03*
X0500039Y0243032D02*
D03*
Y0246811D02*
D03*
X0545866Y0177638D02*
D03*
Y0181417D02*
D03*
X0498819Y0192047D02*
D03*
Y0188268D02*
D03*
X0499606Y0176457D02*
D03*
Y0180236D02*
D03*
X0507402Y0197520D02*
D03*
Y0201299D02*
D03*
X0483228Y0228543D02*
D03*
Y0232323D02*
D03*
X0504685Y0243032D02*
D03*
Y0246811D02*
D03*
X0485433Y0370827D02*
D03*
Y0367047D02*
D03*
X0502716Y0278858D02*
D03*
Y0282638D02*
D03*
X0522244Y0250551D02*
D03*
Y0246772D02*
D03*
D20*
X0183230Y0176665D02*
D03*
Y0182570D02*
D03*
X0189450Y0176586D02*
D03*
Y0182492D02*
D03*
X0176417Y0252638D02*
D03*
Y0246732D02*
D03*
X0182835Y0252599D02*
D03*
Y0246693D02*
D03*
X0266694Y0176665D02*
D03*
Y0182570D02*
D03*
X0272915Y0176586D02*
D03*
Y0182492D02*
D03*
X0259882Y0252638D02*
D03*
Y0246732D02*
D03*
X0266299Y0252599D02*
D03*
Y0246693D02*
D03*
X0350159Y0176665D02*
D03*
Y0182570D02*
D03*
X0356380Y0176586D02*
D03*
Y0182492D02*
D03*
X0343346Y0252638D02*
D03*
Y0246732D02*
D03*
X0349764Y0252599D02*
D03*
Y0246693D02*
D03*
X0433624Y0176665D02*
D03*
Y0182570D02*
D03*
X0439844Y0176586D02*
D03*
Y0182492D02*
D03*
X0426811Y0252638D02*
D03*
Y0246732D02*
D03*
X0433228Y0252599D02*
D03*
Y0246693D02*
D03*
X0517088Y0176665D02*
D03*
Y0182570D02*
D03*
X0523309Y0176586D02*
D03*
Y0182492D02*
D03*
X0510276Y0252638D02*
D03*
Y0246732D02*
D03*
X0516693Y0252599D02*
D03*
Y0246693D02*
D03*
D22*
X0200648Y0303543D02*
D03*
X0206553D02*
D03*
X0212677Y0235000D02*
D03*
X0206772D02*
D03*
X0212756Y0228661D02*
D03*
X0206850D02*
D03*
X0214685Y0214370D02*
D03*
X0208780D02*
D03*
X0284112Y0303543D02*
D03*
X0290018D02*
D03*
X0296142Y0235000D02*
D03*
X0290236D02*
D03*
X0296220Y0228661D02*
D03*
X0290315D02*
D03*
X0298150Y0214370D02*
D03*
X0292244D02*
D03*
X0367577Y0303543D02*
D03*
X0373482D02*
D03*
X0379606Y0235000D02*
D03*
X0373701D02*
D03*
X0379685Y0228661D02*
D03*
X0373780D02*
D03*
X0381614Y0214370D02*
D03*
X0375709D02*
D03*
X0451041Y0303543D02*
D03*
X0456947D02*
D03*
X0463071Y0235000D02*
D03*
X0457165D02*
D03*
X0463150Y0228661D02*
D03*
X0457244D02*
D03*
X0465079Y0214370D02*
D03*
X0459173D02*
D03*
X0534506Y0303543D02*
D03*
X0540411D02*
D03*
X0546535Y0235000D02*
D03*
X0540630D02*
D03*
X0546614Y0228661D02*
D03*
X0540709D02*
D03*
X0548543Y0214370D02*
D03*
X0542638D02*
D03*
D24*
X0185079Y0283701D02*
D03*
Y0280000D02*
D03*
X0268543Y0283701D02*
D03*
Y0280000D02*
D03*
X0352008Y0283701D02*
D03*
Y0280000D02*
D03*
X0435472Y0283701D02*
D03*
Y0280000D02*
D03*
X0518937Y0283701D02*
D03*
Y0280000D02*
D03*
D31*
X0152598Y0282677D02*
D03*
Y0284843D02*
D03*
Y0287008D02*
D03*
X0154961D02*
D03*
Y0284843D02*
D03*
Y0282677D02*
D03*
X0236063D02*
D03*
Y0284843D02*
D03*
Y0287008D02*
D03*
X0238425D02*
D03*
Y0284843D02*
D03*
Y0282677D02*
D03*
X0319528D02*
D03*
Y0284843D02*
D03*
Y0287008D02*
D03*
X0321890D02*
D03*
Y0284843D02*
D03*
Y0282677D02*
D03*
X0402992D02*
D03*
Y0284843D02*
D03*
Y0287008D02*
D03*
X0405354D02*
D03*
Y0284843D02*
D03*
Y0282677D02*
D03*
X0486457D02*
D03*
Y0284843D02*
D03*
Y0287008D02*
D03*
X0488819D02*
D03*
Y0284843D02*
D03*
Y0282677D02*
D03*
D35*
X0166181Y0251024D02*
D03*
Y0252992D02*
D03*
Y0254961D02*
D03*
Y0256929D02*
D03*
Y0258898D02*
D03*
Y0260866D02*
D03*
Y0262835D02*
D03*
Y0264803D02*
D03*
Y0266772D02*
D03*
X0150433Y0251024D02*
D03*
X0152401D02*
D03*
X0154370D02*
D03*
X0156339D02*
D03*
X0158307D02*
D03*
X0160276D02*
D03*
X0162244D02*
D03*
X0164213D02*
D03*
X0150433Y0252992D02*
D03*
Y0254961D02*
D03*
X0154370D02*
D03*
X0156339D02*
D03*
X0158307D02*
D03*
X0160276D02*
D03*
X0162244D02*
D03*
X0150433Y0256929D02*
D03*
X0154370D02*
D03*
X0156339D02*
D03*
X0160276D02*
D03*
X0162244D02*
D03*
X0150433Y0258898D02*
D03*
X0154370D02*
D03*
X0162244D02*
D03*
X0150433Y0260866D02*
D03*
X0156339D02*
D03*
X0160276D02*
D03*
X0162244D02*
D03*
X0150433Y0262835D02*
D03*
X0154370D02*
D03*
X0156339D02*
D03*
X0158307D02*
D03*
X0160276D02*
D03*
X0162244D02*
D03*
X0150433Y0264803D02*
D03*
Y0266772D02*
D03*
X0152401D02*
D03*
X0154370D02*
D03*
X0156339D02*
D03*
X0158307D02*
D03*
X0160276D02*
D03*
X0162244D02*
D03*
X0164213D02*
D03*
X0198701Y0240689D02*
D03*
X0200472D02*
D03*
X0202244D02*
D03*
X0198701Y0238917D02*
D03*
X0200472D02*
D03*
X0202244D02*
D03*
X0249646Y0251024D02*
D03*
Y0252992D02*
D03*
Y0254961D02*
D03*
Y0256929D02*
D03*
Y0258898D02*
D03*
Y0260866D02*
D03*
Y0262835D02*
D03*
Y0264803D02*
D03*
Y0266772D02*
D03*
X0233898Y0251024D02*
D03*
X0235866D02*
D03*
X0237835D02*
D03*
X0239803D02*
D03*
X0241772D02*
D03*
X0243740D02*
D03*
X0245709D02*
D03*
X0247677D02*
D03*
X0233898Y0252992D02*
D03*
Y0254961D02*
D03*
X0237835D02*
D03*
X0239803D02*
D03*
X0241772D02*
D03*
X0243740D02*
D03*
X0245709D02*
D03*
X0233898Y0256929D02*
D03*
X0237835D02*
D03*
X0239803D02*
D03*
X0243740D02*
D03*
X0245709D02*
D03*
X0233898Y0258898D02*
D03*
X0237835D02*
D03*
X0245709D02*
D03*
X0233898Y0260866D02*
D03*
X0239803D02*
D03*
X0243740D02*
D03*
X0245709D02*
D03*
X0233898Y0262835D02*
D03*
X0237835D02*
D03*
X0239803D02*
D03*
X0241772D02*
D03*
X0243740D02*
D03*
X0245709D02*
D03*
X0233898Y0264803D02*
D03*
Y0266772D02*
D03*
X0235866D02*
D03*
X0237835D02*
D03*
X0239803D02*
D03*
X0241772D02*
D03*
X0243740D02*
D03*
X0245709D02*
D03*
X0247677D02*
D03*
X0282165Y0240689D02*
D03*
X0283937D02*
D03*
X0285709D02*
D03*
X0282165Y0238917D02*
D03*
X0283937D02*
D03*
X0285709D02*
D03*
X0333110Y0251024D02*
D03*
Y0252992D02*
D03*
Y0254961D02*
D03*
Y0256929D02*
D03*
Y0258898D02*
D03*
Y0260866D02*
D03*
Y0262835D02*
D03*
Y0264803D02*
D03*
Y0266772D02*
D03*
X0317362Y0251024D02*
D03*
X0319331D02*
D03*
X0321299D02*
D03*
X0323268D02*
D03*
X0325236D02*
D03*
X0327205D02*
D03*
X0329173D02*
D03*
X0331142D02*
D03*
X0317362Y0252992D02*
D03*
Y0254961D02*
D03*
X0321299D02*
D03*
X0323268D02*
D03*
X0325236D02*
D03*
X0327205D02*
D03*
X0329173D02*
D03*
X0317362Y0256929D02*
D03*
X0321299D02*
D03*
X0323268D02*
D03*
X0327205D02*
D03*
X0329173D02*
D03*
X0317362Y0258898D02*
D03*
X0321299D02*
D03*
X0329173D02*
D03*
X0317362Y0260866D02*
D03*
X0323268D02*
D03*
X0327205D02*
D03*
X0329173D02*
D03*
X0317362Y0262835D02*
D03*
X0321299D02*
D03*
X0323268D02*
D03*
X0325236D02*
D03*
X0327205D02*
D03*
X0329173D02*
D03*
X0317362Y0264803D02*
D03*
Y0266772D02*
D03*
X0319331D02*
D03*
X0321299D02*
D03*
X0323268D02*
D03*
X0325236D02*
D03*
X0327205D02*
D03*
X0329173D02*
D03*
X0331142D02*
D03*
X0365630Y0240689D02*
D03*
X0367402D02*
D03*
X0369173D02*
D03*
X0365630Y0238917D02*
D03*
X0367402D02*
D03*
X0369173D02*
D03*
X0416575Y0251024D02*
D03*
Y0252992D02*
D03*
Y0254961D02*
D03*
Y0256929D02*
D03*
Y0258898D02*
D03*
Y0260866D02*
D03*
Y0262835D02*
D03*
Y0264803D02*
D03*
Y0266772D02*
D03*
X0400827Y0251024D02*
D03*
X0402795D02*
D03*
X0404764D02*
D03*
X0406732D02*
D03*
X0408701D02*
D03*
X0410669D02*
D03*
X0412638D02*
D03*
X0414606D02*
D03*
X0400827Y0252992D02*
D03*
Y0254961D02*
D03*
X0404764D02*
D03*
X0406732D02*
D03*
X0408701D02*
D03*
X0410669D02*
D03*
X0412638D02*
D03*
X0400827Y0256929D02*
D03*
X0404764D02*
D03*
X0406732D02*
D03*
X0410669D02*
D03*
X0412638D02*
D03*
X0400827Y0258898D02*
D03*
X0404764D02*
D03*
X0412638D02*
D03*
X0400827Y0260866D02*
D03*
X0406732D02*
D03*
X0410669D02*
D03*
X0412638D02*
D03*
X0400827Y0262835D02*
D03*
X0404764D02*
D03*
X0406732D02*
D03*
X0408701D02*
D03*
X0410669D02*
D03*
X0412638D02*
D03*
X0400827Y0264803D02*
D03*
Y0266772D02*
D03*
X0402795D02*
D03*
X0404764D02*
D03*
X0406732D02*
D03*
X0408701D02*
D03*
X0410669D02*
D03*
X0412638D02*
D03*
X0414606D02*
D03*
X0449094Y0240689D02*
D03*
X0450866D02*
D03*
X0452638D02*
D03*
X0449094Y0238917D02*
D03*
X0450866D02*
D03*
X0452638D02*
D03*
X0500039Y0251024D02*
D03*
Y0252992D02*
D03*
Y0254961D02*
D03*
Y0256929D02*
D03*
Y0258898D02*
D03*
Y0260866D02*
D03*
Y0262835D02*
D03*
Y0264803D02*
D03*
Y0266772D02*
D03*
X0484291Y0251024D02*
D03*
X0486260D02*
D03*
X0488228D02*
D03*
X0490197D02*
D03*
X0492165D02*
D03*
X0494134D02*
D03*
X0496102D02*
D03*
X0498071D02*
D03*
X0484291Y0252992D02*
D03*
Y0254961D02*
D03*
X0488228D02*
D03*
X0490197D02*
D03*
X0492165D02*
D03*
X0494134D02*
D03*
X0496102D02*
D03*
X0484291Y0256929D02*
D03*
X0488228D02*
D03*
X0490197D02*
D03*
X0494134D02*
D03*
X0496102D02*
D03*
X0484291Y0258898D02*
D03*
X0488228D02*
D03*
X0496102D02*
D03*
X0484291Y0260866D02*
D03*
X0490197D02*
D03*
X0494134D02*
D03*
X0496102D02*
D03*
X0484291Y0262835D02*
D03*
X0488228D02*
D03*
X0490197D02*
D03*
X0492165D02*
D03*
X0494134D02*
D03*
X0496102D02*
D03*
X0484291Y0264803D02*
D03*
Y0266772D02*
D03*
X0486260D02*
D03*
X0488228D02*
D03*
X0490197D02*
D03*
X0492165D02*
D03*
X0494134D02*
D03*
X0496102D02*
D03*
X0498071D02*
D03*
X0532559Y0240689D02*
D03*
X0534331D02*
D03*
X0536102D02*
D03*
X0532559Y0238917D02*
D03*
X0534331D02*
D03*
X0536102D02*
D03*
D42*
X0141260Y0341378D02*
X0148750D01*
X0224724D02*
X0232215D01*
X0308189D02*
X0315679D01*
X0391654D02*
X0399144D01*
X0475118D02*
X0482609D01*
D43*
X0176811Y0341457D02*
X0191821Y0341417D01*
X0216688Y0341428D02*
X0219843D01*
Y0333631D02*
Y0341428D01*
X0219803Y0247350D02*
Y0271084D01*
X0260276Y0341457D02*
X0275285Y0341417D01*
X0300153Y0341428D02*
X0303307D01*
Y0333631D02*
Y0341428D01*
X0303268Y0247350D02*
Y0271084D01*
X0343740Y0341457D02*
X0358750Y0341417D01*
X0383618Y0341428D02*
X0386772D01*
Y0333631D02*
Y0341428D01*
X0386732Y0247350D02*
Y0271084D01*
X0427205Y0341457D02*
X0442214Y0341417D01*
X0467082Y0341428D02*
X0470236D01*
Y0333631D02*
Y0341428D01*
X0470197Y0247350D02*
Y0271084D01*
X0510669Y0341457D02*
X0525679Y0341417D01*
X0550547Y0341428D02*
X0553701D01*
Y0333631D02*
Y0341428D01*
X0553661Y0247350D02*
Y0271084D01*
D46*
X0141063Y0331869D02*
Y0341378D01*
X0141063Y0299507D02*
Y0321081D01*
Y0256239D02*
Y0277892D01*
X0141063Y0223877D02*
Y0235719D01*
X0224528Y0331869D02*
Y0341378D01*
X0224528Y0299507D02*
Y0321081D01*
Y0256239D02*
Y0277892D01*
X0224528Y0223877D02*
Y0235719D01*
X0307992Y0331869D02*
Y0341378D01*
X0307992Y0299507D02*
Y0321081D01*
Y0256239D02*
Y0277892D01*
X0307992Y0223877D02*
Y0235719D01*
X0391457Y0331869D02*
Y0341378D01*
X0391457Y0299507D02*
Y0321081D01*
Y0256239D02*
Y0277892D01*
X0391457Y0223877D02*
Y0235719D01*
X0474921Y0331869D02*
Y0341378D01*
X0474921Y0299507D02*
Y0321081D01*
Y0256239D02*
Y0277892D01*
X0474921Y0223877D02*
Y0235719D01*
D55*
X0174293Y0186193D02*
D03*
X0257757D02*
D03*
X0341222D02*
D03*
X0424687D02*
D03*
X0508151D02*
D03*
D56*
X0171340Y0180484D02*
D03*
X0173309D02*
D03*
X0175277D02*
D03*
X0177246D02*
D03*
Y0191901D02*
D03*
X0175277D02*
D03*
X0173309D02*
D03*
X0171340D02*
D03*
X0254805Y0180484D02*
D03*
X0256773D02*
D03*
X0258742D02*
D03*
X0260710D02*
D03*
Y0191901D02*
D03*
X0258742D02*
D03*
X0256773D02*
D03*
X0254805D02*
D03*
X0338269Y0180484D02*
D03*
X0340238D02*
D03*
X0342206D02*
D03*
X0344175D02*
D03*
Y0191901D02*
D03*
X0342206D02*
D03*
X0340238D02*
D03*
X0338269D02*
D03*
X0421734Y0180484D02*
D03*
X0423702D02*
D03*
X0425671D02*
D03*
X0427639D02*
D03*
Y0191901D02*
D03*
X0425671D02*
D03*
X0423702D02*
D03*
X0421734D02*
D03*
X0505198Y0180484D02*
D03*
X0507167D02*
D03*
X0509135D02*
D03*
X0511104D02*
D03*
Y0191901D02*
D03*
X0509135D02*
D03*
X0507167D02*
D03*
X0505198D02*
D03*
D57*
X0184883Y0162846D02*
D03*
X0170710D02*
D03*
X0268348D02*
D03*
X0254175D02*
D03*
X0351813D02*
D03*
X0337639D02*
D03*
X0435277D02*
D03*
X0421104D02*
D03*
X0518742D02*
D03*
X0504569D02*
D03*
D58*
X0205512Y0172047D02*
D03*
X0203543D02*
D03*
X0201575D02*
D03*
Y0166535D02*
D03*
X0203543D02*
D03*
X0205512D02*
D03*
X0288977Y0172047D02*
D03*
X0287008D02*
D03*
X0285039D02*
D03*
Y0166535D02*
D03*
X0287008D02*
D03*
X0288977D02*
D03*
X0372441Y0172047D02*
D03*
X0370473D02*
D03*
X0368504D02*
D03*
Y0166535D02*
D03*
X0370473D02*
D03*
X0372441D02*
D03*
X0455906Y0172047D02*
D03*
X0453937D02*
D03*
X0451969D02*
D03*
Y0166535D02*
D03*
X0453937D02*
D03*
X0455906D02*
D03*
X0539370Y0172047D02*
D03*
X0537402D02*
D03*
X0535433D02*
D03*
Y0166535D02*
D03*
X0537402D02*
D03*
X0539370D02*
D03*
D59*
X0194175Y0189106D02*
D03*
Y0201311D02*
D03*
X0184569Y0189067D02*
D03*
Y0201271D02*
D03*
X0277639Y0189106D02*
D03*
Y0201311D02*
D03*
X0268033Y0189067D02*
D03*
Y0201271D02*
D03*
X0361104Y0189106D02*
D03*
Y0201311D02*
D03*
X0351498Y0189067D02*
D03*
Y0201271D02*
D03*
X0444568Y0189106D02*
D03*
Y0201311D02*
D03*
X0434962Y0189067D02*
D03*
Y0201271D02*
D03*
X0528033Y0189106D02*
D03*
Y0201311D02*
D03*
X0518427Y0189067D02*
D03*
Y0201271D02*
D03*
D60*
X0164842Y0210079D02*
D03*
X0160669D02*
D03*
X0164842Y0206142D02*
D03*
X0160669D02*
D03*
X0248307Y0210079D02*
D03*
X0244134D02*
D03*
X0248307Y0206142D02*
D03*
X0244134D02*
D03*
X0331772Y0210079D02*
D03*
X0327598D02*
D03*
X0331772Y0206142D02*
D03*
X0327598D02*
D03*
X0415236Y0210079D02*
D03*
X0411063D02*
D03*
X0415236Y0206142D02*
D03*
X0411063D02*
D03*
X0498701Y0210079D02*
D03*
X0494528D02*
D03*
X0498701Y0206142D02*
D03*
X0494528D02*
D03*
D61*
X0162756Y0210079D02*
D03*
Y0206142D02*
D03*
X0246220Y0210079D02*
D03*
Y0206142D02*
D03*
X0329685Y0210079D02*
D03*
Y0206142D02*
D03*
X0413150Y0210079D02*
D03*
Y0206142D02*
D03*
X0496614Y0210079D02*
D03*
Y0206142D02*
D03*
D62*
X0150039Y0245984D02*
D03*
X0155551D02*
D03*
X0233504D02*
D03*
X0239016D02*
D03*
X0316968D02*
D03*
X0322480D02*
D03*
X0400433D02*
D03*
X0405945D02*
D03*
X0483898D02*
D03*
X0489409D02*
D03*
D63*
X0162795Y0237500D02*
D03*
X0160827D02*
D03*
X0158858D02*
D03*
X0162795Y0232185D02*
D03*
X0160827D02*
D03*
X0158858D02*
D03*
X0246260Y0237500D02*
D03*
X0244291D02*
D03*
X0242323D02*
D03*
X0246260Y0232185D02*
D03*
X0244291D02*
D03*
X0242323D02*
D03*
X0329724Y0237500D02*
D03*
X0327756D02*
D03*
X0325787D02*
D03*
X0329724Y0232185D02*
D03*
X0327756D02*
D03*
X0325787D02*
D03*
X0413189Y0237500D02*
D03*
X0411220D02*
D03*
X0409252D02*
D03*
X0413189Y0232185D02*
D03*
X0411220D02*
D03*
X0409252D02*
D03*
X0496654Y0237500D02*
D03*
X0494685D02*
D03*
X0492717D02*
D03*
X0496654Y0232185D02*
D03*
X0494685D02*
D03*
X0492717D02*
D03*
D64*
X0155512Y0376457D02*
D03*
X0159331Y0384095D02*
D03*
X0151693D02*
D03*
X0238976Y0376457D02*
D03*
X0242795Y0384095D02*
D03*
X0235157D02*
D03*
X0322441Y0376457D02*
D03*
X0326260Y0384095D02*
D03*
X0318622D02*
D03*
X0405905Y0376457D02*
D03*
X0409724Y0384095D02*
D03*
X0402087D02*
D03*
X0489370Y0376457D02*
D03*
X0493189Y0384095D02*
D03*
X0485551D02*
D03*
D65*
X0200726Y0311811D02*
D03*
X0284191D02*
D03*
X0367655D02*
D03*
X0451120D02*
D03*
X0534585D02*
D03*
D66*
X0204860Y0308858D02*
D03*
Y0310827D02*
D03*
Y0312795D02*
D03*
Y0314764D02*
D03*
X0196592D02*
D03*
Y0312795D02*
D03*
Y0310827D02*
D03*
Y0308858D02*
D03*
X0288325D02*
D03*
Y0310827D02*
D03*
Y0312795D02*
D03*
Y0314764D02*
D03*
X0280057D02*
D03*
Y0312795D02*
D03*
Y0310827D02*
D03*
Y0308858D02*
D03*
X0371789D02*
D03*
Y0310827D02*
D03*
Y0312795D02*
D03*
Y0314764D02*
D03*
X0363522D02*
D03*
Y0312795D02*
D03*
Y0310827D02*
D03*
Y0308858D02*
D03*
X0455254D02*
D03*
Y0310827D02*
D03*
Y0312795D02*
D03*
Y0314764D02*
D03*
X0446986D02*
D03*
Y0312795D02*
D03*
Y0310827D02*
D03*
Y0308858D02*
D03*
X0538719D02*
D03*
Y0310827D02*
D03*
Y0312795D02*
D03*
Y0314764D02*
D03*
X0530451D02*
D03*
Y0312795D02*
D03*
Y0310827D02*
D03*
Y0308858D02*
D03*
D67*
X0161457Y0294488D02*
D03*
X0165157D02*
D03*
X0244921D02*
D03*
X0248622D02*
D03*
X0328386D02*
D03*
X0332087D02*
D03*
X0411850D02*
D03*
X0415551D02*
D03*
X0495315D02*
D03*
X0499016D02*
D03*
D68*
X0169724D02*
D03*
X0173504D02*
D03*
X0253189D02*
D03*
X0256968D02*
D03*
X0336653D02*
D03*
X0340433D02*
D03*
X0420118D02*
D03*
X0423898D02*
D03*
X0503583D02*
D03*
X0507362D02*
D03*
D69*
X0186063Y0271102D02*
D03*
X0189606D02*
D03*
X0269528D02*
D03*
X0273071D02*
D03*
X0352992D02*
D03*
X0356535D02*
D03*
X0436457D02*
D03*
X0440000D02*
D03*
X0519921D02*
D03*
X0523465D02*
D03*
D70*
X0194173Y0246732D02*
D03*
X0200472D02*
D03*
X0277638D02*
D03*
X0283937D02*
D03*
X0361102D02*
D03*
X0367402D02*
D03*
X0444567D02*
D03*
X0450866D02*
D03*
X0528031D02*
D03*
X0534331D02*
D03*
D71*
X0208622Y0206811D02*
D03*
X0216102D02*
D03*
X0208622Y0197520D02*
D03*
X0216102D02*
D03*
X0208622Y0188465D02*
D03*
X0216102D02*
D03*
X0292087Y0206811D02*
D03*
X0299567D02*
D03*
X0292087Y0197520D02*
D03*
X0299567D02*
D03*
X0292087Y0188465D02*
D03*
X0299567D02*
D03*
X0375551Y0206811D02*
D03*
X0383032D02*
D03*
X0375551Y0197520D02*
D03*
X0383032D02*
D03*
X0375551Y0188465D02*
D03*
X0383032D02*
D03*
X0459016Y0206811D02*
D03*
X0466496D02*
D03*
X0459016Y0197520D02*
D03*
X0466496D02*
D03*
X0459016Y0188465D02*
D03*
X0466496D02*
D03*
X0542480Y0206811D02*
D03*
X0549961D02*
D03*
X0542480Y0197520D02*
D03*
X0549961D02*
D03*
X0542480Y0188465D02*
D03*
X0549961D02*
D03*
M02*
