G04*
G04 #@! TF.GenerationSoftware,Altium Limited,Altium Designer,19.1.7 (138)*
G04*
G04 Layer_Color=8388736*
%FSAX25Y25*%
%MOIN*%
G70*
G01*
G75*
%ADD10C,0.03937*%
%ADD15R,0.01968X0.02362*%
%ADD88R,0.03162X0.02769*%
%ADD89R,0.04540X0.02690*%
%ADD90R,0.03165X0.03559*%
%ADD91R,0.03162X0.03320*%
%ADD92R,0.02769X0.03162*%
%ADD93R,0.04737X0.04737*%
%ADD94R,0.06902X0.09068*%
%ADD95R,0.03320X0.03162*%
%ADD96C,0.33084*%
%ADD97R,0.03950X0.03950*%
%ADD98C,0.03910*%
%ADD99R,0.03950X0.03950*%
%ADD100R,0.03241X0.03044*%
%ADD101R,0.04737X0.03044*%
%ADD102R,0.02375X0.04343*%
%ADD103R,0.06706X0.06706*%
G04:AMPARAMS|DCode=104|XSize=67.06mil|YSize=67.06mil|CornerRadius=9.91mil|HoleSize=0mil|Usage=FLASHONLY|Rotation=90.000|XOffset=0mil|YOffset=0mil|HoleType=Round|Shape=RoundedRectangle|*
%AMROUNDEDRECTD104*
21,1,0.06706,0.04724,0,0,90.0*
21,1,0.04724,0.06706,0,0,90.0*
1,1,0.01981,0.02362,0.02362*
1,1,0.01981,0.02362,-0.02362*
1,1,0.01981,-0.02362,-0.02362*
1,1,0.01981,-0.02362,0.02362*
%
%ADD104ROUNDEDRECTD104*%
%ADD105R,0.07493X0.02769*%
%ADD106R,0.02769X0.07493*%
%ADD107R,0.01981X0.01981*%
%ADD108R,0.01981X0.01981*%
%ADD109R,0.04737X0.03162*%
%ADD110R,0.01968X0.01575*%
%ADD111C,0.01417*%
%ADD112R,0.02769X0.01981*%
%ADD113R,0.03044X0.03241*%
G04:AMPARAMS|DCode=114|XSize=17.72mil|YSize=24.61mil|CornerRadius=0mil|HoleSize=0mil|Usage=FLASHONLY|Rotation=45.000|XOffset=0mil|YOffset=0mil|HoleType=Round|Shape=Rectangle|*
%AMROTATEDRECTD114*
4,1,4,0.00244,-0.01496,-0.01496,0.00244,-0.00244,0.01496,0.01496,-0.00244,0.00244,-0.01496,0.0*
%
%ADD114ROTATEDRECTD114*%

G04:AMPARAMS|DCode=115|XSize=17.72mil|YSize=24.61mil|CornerRadius=0mil|HoleSize=0mil|Usage=FLASHONLY|Rotation=135.000|XOffset=0mil|YOffset=0mil|HoleType=Round|Shape=Rectangle|*
%AMROTATEDRECTD115*
4,1,4,0.01496,0.00244,-0.00244,-0.01496,-0.01496,-0.00244,0.00244,0.01496,0.01496,0.00244,0.0*
%
%ADD115ROTATEDRECTD115*%

%ADD116P,0.06403X4X360.0*%
%ADD117R,0.05918X0.07887*%
%ADD118C,0.04737*%
%ADD119C,0.04343*%
%ADD120C,0.02769*%
G36*
X0491027Y0378764D02*
X0491047Y0378760D01*
X0491078Y0378753D01*
X0491125Y0378737D01*
X0491128Y0378737D01*
X0491174Y0378714D01*
X0491175Y0378713D01*
X0491175Y0378713D01*
X0491189Y0378704D01*
X0491218Y0378684D01*
X0491258Y0378650D01*
X0491258Y0378650D01*
X0491258Y0378650D01*
X0491603Y0378305D01*
X0491603Y0378305D01*
X0491603Y0378305D01*
X0491627Y0378277D01*
X0491637Y0378266D01*
X0491637Y0378266D01*
X0491637Y0378266D01*
X0491654Y0378240D01*
X0491666Y0378222D01*
X0491666Y0378222D01*
X0491666Y0378222D01*
X0491675Y0378205D01*
X0491689Y0378175D01*
X0491689Y0378175D01*
X0491689Y0378175D01*
X0491697Y0378153D01*
X0491706Y0378125D01*
X0491706Y0378125D01*
X0491706Y0378125D01*
X0491711Y0378099D01*
X0491716Y0378074D01*
Y0378074D01*
X0491716Y0378074D01*
X0491718Y0378049D01*
X0491720Y0378022D01*
Y0378022D01*
Y0378022D01*
X0491720Y0377283D01*
X0491718Y0377256D01*
X0491716Y0377231D01*
X0491716Y0377231D01*
Y0377231D01*
X0491711Y0377206D01*
X0491706Y0377180D01*
X0491706Y0377180D01*
X0491706Y0377180D01*
X0491700Y0377161D01*
X0491689Y0377130D01*
X0491689Y0377130D01*
X0491689Y0377130D01*
X0491679Y0377109D01*
X0491666Y0377083D01*
X0491666Y0377083D01*
X0491666Y0377083D01*
X0491654Y0377065D01*
X0491637Y0377040D01*
X0491637Y0377039D01*
X0491637Y0377039D01*
X0491627Y0377028D01*
X0491602Y0377000D01*
X0491602Y0377000D01*
X0491602Y0377000D01*
X0491575Y0376976D01*
X0491563Y0376965D01*
X0491563Y0376965D01*
X0491563Y0376965D01*
X0491537Y0376948D01*
X0491519Y0376936D01*
X0491519Y0376936D01*
X0491519Y0376936D01*
X0491494Y0376924D01*
X0491472Y0376913D01*
X0491472Y0376913D01*
X0491472Y0376913D01*
X0491441Y0376903D01*
X0491423Y0376896D01*
X0491423Y0376896D01*
X0491423Y0376896D01*
X0491397Y0376891D01*
X0491371Y0376886D01*
X0491371D01*
X0491371Y0376886D01*
X0491346Y0376884D01*
X0491319Y0376883D01*
X0490335D01*
X0490282Y0376886D01*
X0490231Y0376896D01*
X0490181Y0376913D01*
X0490134Y0376936D01*
X0490091Y0376965D01*
X0490051Y0377000D01*
X0490017Y0377040D01*
X0489988Y0377083D01*
X0489964Y0377130D01*
X0489947Y0377180D01*
X0489937Y0377231D01*
X0489934Y0377284D01*
Y0378366D01*
X0489937Y0378418D01*
X0489941Y0378439D01*
X0489947Y0378470D01*
X0489964Y0378520D01*
X0489988Y0378567D01*
X0489988Y0378567D01*
X0489997Y0378581D01*
X0490017Y0378610D01*
X0490051Y0378650D01*
X0490051Y0378650D01*
X0490051Y0378650D01*
X0490091Y0378684D01*
X0490120Y0378703D01*
X0490134Y0378713D01*
X0490134Y0378713D01*
X0490181Y0378736D01*
X0490231Y0378753D01*
X0490262Y0378760D01*
X0490282Y0378764D01*
X0490335Y0378767D01*
X0490974Y0378767D01*
X0490974D01*
X0491027Y0378764D01*
D02*
G37*
G36*
X0407562D02*
X0407583Y0378760D01*
X0407614Y0378753D01*
X0407660Y0378737D01*
X0407663Y0378737D01*
X0407709Y0378714D01*
X0407710Y0378713D01*
X0407710Y0378713D01*
X0407725Y0378704D01*
X0407754Y0378684D01*
X0407793Y0378650D01*
X0407793Y0378650D01*
X0407793Y0378650D01*
X0408138Y0378305D01*
X0408138Y0378305D01*
X0408138Y0378305D01*
X0408162Y0378277D01*
X0408173Y0378266D01*
X0408173Y0378266D01*
X0408173Y0378266D01*
X0408190Y0378240D01*
X0408202Y0378222D01*
X0408202Y0378222D01*
X0408202Y0378222D01*
X0408210Y0378205D01*
X0408225Y0378175D01*
X0408225Y0378175D01*
X0408225Y0378175D01*
X0408232Y0378153D01*
X0408242Y0378125D01*
X0408242Y0378125D01*
X0408242Y0378125D01*
X0408247Y0378099D01*
X0408252Y0378074D01*
Y0378074D01*
X0408252Y0378074D01*
X0408253Y0378049D01*
X0408255Y0378022D01*
Y0378022D01*
Y0378022D01*
X0408255Y0377283D01*
X0408253Y0377256D01*
X0408252Y0377231D01*
X0408252Y0377231D01*
Y0377231D01*
X0408247Y0377206D01*
X0408242Y0377180D01*
X0408242Y0377180D01*
X0408242Y0377180D01*
X0408235Y0377161D01*
X0408225Y0377130D01*
X0408225Y0377130D01*
X0408225Y0377130D01*
X0408214Y0377109D01*
X0408202Y0377083D01*
X0408201Y0377083D01*
X0408201Y0377083D01*
X0408190Y0377065D01*
X0408172Y0377040D01*
X0408172Y0377039D01*
X0408172Y0377039D01*
X0408162Y0377028D01*
X0408138Y0377000D01*
X0408138Y0377000D01*
X0408138Y0377000D01*
X0408110Y0376976D01*
X0408098Y0376965D01*
X0408098Y0376965D01*
X0408098Y0376965D01*
X0408072Y0376948D01*
X0408055Y0376936D01*
X0408055Y0376936D01*
X0408055Y0376936D01*
X0408029Y0376924D01*
X0408008Y0376913D01*
X0408008Y0376913D01*
X0408008Y0376913D01*
X0407977Y0376903D01*
X0407958Y0376896D01*
X0407958Y0376896D01*
X0407958Y0376896D01*
X0407932Y0376891D01*
X0407907Y0376886D01*
X0407907D01*
X0407907Y0376886D01*
X0407882Y0376884D01*
X0407854Y0376883D01*
X0406870D01*
X0406818Y0376886D01*
X0406766Y0376896D01*
X0406717Y0376913D01*
X0406670Y0376936D01*
X0406626Y0376965D01*
X0406587Y0377000D01*
X0406552Y0377040D01*
X0406523Y0377083D01*
X0406500Y0377130D01*
X0406483Y0377180D01*
X0406473Y0377231D01*
X0406469Y0377284D01*
Y0378366D01*
X0406473Y0378418D01*
X0406477Y0378439D01*
X0406483Y0378470D01*
X0406500Y0378520D01*
X0406523Y0378567D01*
X0406523Y0378567D01*
X0406533Y0378581D01*
X0406552Y0378610D01*
X0406587Y0378650D01*
X0406587Y0378650D01*
X0406587Y0378650D01*
X0406626Y0378684D01*
X0406655Y0378703D01*
X0406670Y0378713D01*
X0406670Y0378713D01*
X0406717Y0378736D01*
X0406766Y0378753D01*
X0406797Y0378760D01*
X0406818Y0378764D01*
X0406870Y0378767D01*
X0407510Y0378767D01*
X0407510D01*
X0407562Y0378764D01*
D02*
G37*
G36*
X0324097D02*
X0324118Y0378760D01*
X0324149Y0378753D01*
X0324196Y0378737D01*
X0324199Y0378737D01*
X0324244Y0378714D01*
X0324246Y0378713D01*
X0324246Y0378713D01*
X0324260Y0378704D01*
X0324289Y0378684D01*
X0324329Y0378650D01*
X0324329Y0378650D01*
X0324329Y0378650D01*
X0324673Y0378305D01*
X0324673Y0378305D01*
X0324673Y0378305D01*
X0324698Y0378277D01*
X0324708Y0378266D01*
X0324708Y0378266D01*
X0324708Y0378266D01*
X0324725Y0378240D01*
X0324737Y0378222D01*
X0324737Y0378222D01*
X0324737Y0378222D01*
X0324746Y0378205D01*
X0324760Y0378175D01*
X0324760Y0378175D01*
X0324760Y0378175D01*
X0324767Y0378153D01*
X0324777Y0378125D01*
X0324777Y0378125D01*
X0324777Y0378125D01*
X0324782Y0378099D01*
X0324787Y0378074D01*
Y0378074D01*
X0324787Y0378074D01*
X0324789Y0378049D01*
X0324791Y0378022D01*
Y0378022D01*
Y0378022D01*
X0324791Y0377283D01*
X0324789Y0377256D01*
X0324787Y0377231D01*
X0324787Y0377231D01*
Y0377231D01*
X0324782Y0377206D01*
X0324777Y0377180D01*
X0324777Y0377180D01*
X0324777Y0377180D01*
X0324771Y0377161D01*
X0324760Y0377130D01*
X0324760Y0377130D01*
X0324760Y0377130D01*
X0324749Y0377109D01*
X0324737Y0377083D01*
X0324737Y0377083D01*
X0324737Y0377083D01*
X0324725Y0377065D01*
X0324708Y0377040D01*
X0324708Y0377039D01*
X0324708Y0377039D01*
X0324697Y0377028D01*
X0324673Y0377000D01*
X0324673Y0377000D01*
X0324673Y0377000D01*
X0324645Y0376976D01*
X0324634Y0376965D01*
X0324634Y0376965D01*
X0324634Y0376965D01*
X0324608Y0376948D01*
X0324590Y0376936D01*
X0324590Y0376936D01*
X0324590Y0376936D01*
X0324564Y0376924D01*
X0324543Y0376913D01*
X0324543Y0376913D01*
X0324543Y0376913D01*
X0324512Y0376903D01*
X0324494Y0376896D01*
X0324494Y0376896D01*
X0324493Y0376896D01*
X0324467Y0376891D01*
X0324442Y0376886D01*
X0324442D01*
X0324442Y0376886D01*
X0324417Y0376884D01*
X0324390Y0376883D01*
X0323406D01*
X0323353Y0376886D01*
X0323302Y0376896D01*
X0323252Y0376913D01*
X0323205Y0376936D01*
X0323162Y0376965D01*
X0323122Y0377000D01*
X0323088Y0377040D01*
X0323058Y0377083D01*
X0323035Y0377130D01*
X0323018Y0377180D01*
X0323008Y0377231D01*
X0323005Y0377284D01*
Y0378366D01*
X0323008Y0378418D01*
X0323012Y0378439D01*
X0323018Y0378470D01*
X0323035Y0378520D01*
X0323058Y0378567D01*
X0323058Y0378567D01*
X0323068Y0378581D01*
X0323087Y0378610D01*
X0323122Y0378650D01*
X0323122Y0378650D01*
X0323122Y0378650D01*
X0323162Y0378684D01*
X0323190Y0378703D01*
X0323205Y0378713D01*
X0323205Y0378713D01*
X0323252Y0378736D01*
X0323302Y0378753D01*
X0323333Y0378760D01*
X0323353Y0378764D01*
X0323406Y0378767D01*
X0324045Y0378767D01*
X0324045D01*
X0324097Y0378764D01*
D02*
G37*
G36*
X0240633D02*
X0240653Y0378760D01*
X0240684Y0378753D01*
X0240731Y0378737D01*
X0240734Y0378737D01*
X0240780Y0378714D01*
X0240781Y0378713D01*
X0240781Y0378713D01*
X0240796Y0378704D01*
X0240825Y0378684D01*
X0240864Y0378650D01*
X0240864Y0378650D01*
X0240864Y0378650D01*
X0241209Y0378305D01*
X0241209Y0378305D01*
X0241209Y0378305D01*
X0241233Y0378277D01*
X0241243Y0378266D01*
X0241243Y0378266D01*
X0241243Y0378266D01*
X0241261Y0378240D01*
X0241272Y0378222D01*
X0241272Y0378222D01*
X0241272Y0378222D01*
X0241281Y0378205D01*
X0241296Y0378175D01*
X0241296Y0378175D01*
X0241296Y0378175D01*
X0241303Y0378153D01*
X0241313Y0378125D01*
X0241313Y0378125D01*
X0241313Y0378125D01*
X0241318Y0378099D01*
X0241323Y0378074D01*
Y0378074D01*
X0241323Y0378074D01*
X0241324Y0378049D01*
X0241326Y0378022D01*
Y0378022D01*
Y0378022D01*
X0241326Y0377283D01*
X0241324Y0377256D01*
X0241323Y0377231D01*
X0241323Y0377231D01*
Y0377231D01*
X0241318Y0377206D01*
X0241312Y0377180D01*
X0241312Y0377180D01*
X0241312Y0377180D01*
X0241306Y0377161D01*
X0241296Y0377130D01*
X0241296Y0377130D01*
X0241296Y0377130D01*
X0241285Y0377109D01*
X0241272Y0377083D01*
X0241272Y0377083D01*
X0241272Y0377083D01*
X0241261Y0377065D01*
X0241243Y0377040D01*
X0241243Y0377039D01*
X0241243Y0377039D01*
X0241233Y0377028D01*
X0241209Y0377000D01*
X0241209Y0377000D01*
X0241209Y0377000D01*
X0241181Y0376976D01*
X0241169Y0376965D01*
X0241169Y0376965D01*
X0241169Y0376965D01*
X0241143Y0376948D01*
X0241126Y0376936D01*
X0241126Y0376936D01*
X0241125Y0376936D01*
X0241100Y0376924D01*
X0241079Y0376913D01*
X0241078Y0376913D01*
X0241078Y0376913D01*
X0241048Y0376903D01*
X0241029Y0376896D01*
X0241029Y0376896D01*
X0241029Y0376896D01*
X0241003Y0376891D01*
X0240978Y0376886D01*
X0240977D01*
X0240977Y0376886D01*
X0240952Y0376884D01*
X0240925Y0376883D01*
X0239941D01*
X0239889Y0376886D01*
X0239837Y0376896D01*
X0239788Y0376913D01*
X0239740Y0376936D01*
X0239697Y0376965D01*
X0239657Y0377000D01*
X0239623Y0377040D01*
X0239594Y0377083D01*
X0239571Y0377130D01*
X0239554Y0377180D01*
X0239544Y0377231D01*
X0239540Y0377284D01*
Y0378366D01*
X0239544Y0378418D01*
X0239548Y0378439D01*
X0239554Y0378470D01*
X0239571Y0378520D01*
X0239594Y0378567D01*
X0239594Y0378567D01*
X0239603Y0378581D01*
X0239623Y0378610D01*
X0239657Y0378650D01*
X0239657Y0378650D01*
X0239657Y0378650D01*
X0239697Y0378684D01*
X0239726Y0378703D01*
X0239740Y0378713D01*
X0239740Y0378713D01*
X0239788Y0378736D01*
X0239837Y0378753D01*
X0239868Y0378760D01*
X0239889Y0378764D01*
X0239941Y0378767D01*
X0240581Y0378767D01*
X0240581D01*
X0240633Y0378764D01*
D02*
G37*
G36*
X0157168D02*
X0157189Y0378760D01*
X0157220Y0378753D01*
X0157267Y0378737D01*
X0157270Y0378737D01*
X0157315Y0378714D01*
X0157317Y0378713D01*
X0157317Y0378713D01*
X0157331Y0378704D01*
X0157360Y0378684D01*
X0157399Y0378650D01*
X0157399Y0378650D01*
X0157399Y0378650D01*
X0157744Y0378305D01*
X0157744Y0378305D01*
X0157744Y0378305D01*
X0157768Y0378277D01*
X0157779Y0378266D01*
X0157779Y0378266D01*
X0157779Y0378266D01*
X0157796Y0378240D01*
X0157808Y0378222D01*
X0157808Y0378222D01*
X0157808Y0378222D01*
X0157816Y0378205D01*
X0157831Y0378175D01*
X0157831Y0378175D01*
X0157831Y0378175D01*
X0157838Y0378153D01*
X0157848Y0378125D01*
X0157848Y0378125D01*
X0157848Y0378125D01*
X0157853Y0378099D01*
X0157858Y0378074D01*
Y0378074D01*
X0157858Y0378074D01*
X0157860Y0378049D01*
X0157862Y0378022D01*
Y0378022D01*
Y0378022D01*
X0157861Y0377283D01*
X0157860Y0377256D01*
X0157858Y0377231D01*
X0157858Y0377231D01*
Y0377231D01*
X0157853Y0377206D01*
X0157848Y0377180D01*
X0157848Y0377180D01*
X0157848Y0377180D01*
X0157842Y0377161D01*
X0157831Y0377130D01*
X0157831Y0377130D01*
X0157831Y0377130D01*
X0157820Y0377109D01*
X0157808Y0377083D01*
X0157808Y0377083D01*
X0157808Y0377083D01*
X0157796Y0377065D01*
X0157779Y0377040D01*
X0157779Y0377039D01*
X0157779Y0377039D01*
X0157768Y0377028D01*
X0157744Y0377000D01*
X0157744Y0377000D01*
X0157744Y0377000D01*
X0157716Y0376976D01*
X0157705Y0376965D01*
X0157705Y0376965D01*
X0157705Y0376965D01*
X0157679Y0376948D01*
X0157661Y0376936D01*
X0157661Y0376936D01*
X0157661Y0376936D01*
X0157635Y0376924D01*
X0157614Y0376913D01*
X0157614Y0376913D01*
X0157614Y0376913D01*
X0157583Y0376903D01*
X0157564Y0376896D01*
X0157564Y0376896D01*
X0157564Y0376896D01*
X0157538Y0376891D01*
X0157513Y0376886D01*
X0157513D01*
X0157513Y0376886D01*
X0157488Y0376884D01*
X0157461Y0376883D01*
X0156476D01*
X0156424Y0376886D01*
X0156373Y0376896D01*
X0156323Y0376913D01*
X0156276Y0376936D01*
X0156232Y0376965D01*
X0156193Y0377000D01*
X0156158Y0377040D01*
X0156129Y0377083D01*
X0156106Y0377130D01*
X0156089Y0377180D01*
X0156079Y0377231D01*
X0156076Y0377284D01*
Y0378366D01*
X0156079Y0378418D01*
X0156083Y0378439D01*
X0156089Y0378470D01*
X0156106Y0378520D01*
X0156129Y0378567D01*
X0156129Y0378567D01*
X0156139Y0378581D01*
X0156158Y0378610D01*
X0156193Y0378650D01*
X0156193Y0378650D01*
X0156193Y0378650D01*
X0156232Y0378684D01*
X0156261Y0378703D01*
X0156276Y0378713D01*
X0156276Y0378713D01*
X0156323Y0378736D01*
X0156373Y0378753D01*
X0156404Y0378760D01*
X0156424Y0378764D01*
X0156476Y0378767D01*
X0157116Y0378767D01*
X0157116D01*
X0157168Y0378764D01*
D02*
G37*
D10*
X0165039Y0298543D02*
X0202362D01*
X0216398D02*
X0219803D01*
Y0409961D01*
Y0416614D01*
X0191850D02*
X0218779D01*
X0182087D02*
X0183056D01*
X0141850D02*
X0172047D01*
X0141850D02*
X0141850Y0304348D01*
X0248504Y0298543D02*
X0285827D01*
X0299862D02*
X0303268D01*
Y0409961D01*
Y0416614D01*
X0275315D02*
X0302244D01*
X0265551D02*
X0266521D01*
X0225315D02*
X0255512D01*
X0225315D02*
X0225315Y0304348D01*
X0331968Y0298543D02*
X0369291D01*
X0383327D02*
X0386732D01*
Y0409961D01*
Y0416614D01*
X0358780D02*
X0385709D01*
X0349016D02*
X0349986D01*
X0308780D02*
X0338976D01*
X0308780D02*
X0308780Y0304348D01*
X0415433Y0298543D02*
X0452756D01*
X0466791D02*
X0470197D01*
Y0409961D01*
Y0416614D01*
X0442244D02*
X0469173D01*
X0432480D02*
X0433450D01*
X0392244D02*
X0422441D01*
X0392244D02*
X0392244Y0304348D01*
X0498898Y0298543D02*
X0536221D01*
X0550256D02*
X0553661D01*
Y0409961D01*
Y0416614D01*
X0525709D02*
X0552638D01*
X0515945D02*
X0516915D01*
X0475709D02*
X0505905D01*
X0475709D02*
X0475709Y0304348D01*
D15*
X0200709Y0395945D02*
D03*
Y0400118D02*
D03*
X0204646Y0395945D02*
D03*
Y0400118D02*
D03*
X0284173Y0395945D02*
D03*
Y0400118D02*
D03*
X0288110Y0395945D02*
D03*
Y0400118D02*
D03*
X0367638Y0395945D02*
D03*
Y0400118D02*
D03*
X0371575Y0395945D02*
D03*
Y0400118D02*
D03*
X0451102Y0395945D02*
D03*
Y0400118D02*
D03*
X0455039Y0395945D02*
D03*
Y0400118D02*
D03*
X0534567Y0395945D02*
D03*
Y0400118D02*
D03*
X0538504Y0395945D02*
D03*
Y0400118D02*
D03*
D88*
X0174151Y0199343D02*
D03*
Y0195405D02*
D03*
X0169213Y0405788D02*
D03*
Y0401851D02*
D03*
X0150945Y0406220D02*
D03*
Y0402283D02*
D03*
X0208937Y0395906D02*
D03*
Y0399843D02*
D03*
X0203661Y0391654D02*
D03*
Y0387717D02*
D03*
X0208150Y0391654D02*
D03*
Y0387717D02*
D03*
X0257615Y0199343D02*
D03*
Y0195405D02*
D03*
X0252677Y0405788D02*
D03*
Y0401851D02*
D03*
X0234409Y0406220D02*
D03*
Y0402283D02*
D03*
X0292402Y0395906D02*
D03*
Y0399843D02*
D03*
X0287126Y0391654D02*
D03*
Y0387717D02*
D03*
X0291614Y0391654D02*
D03*
Y0387717D02*
D03*
X0341080Y0199343D02*
D03*
Y0195405D02*
D03*
X0336142Y0405788D02*
D03*
Y0401851D02*
D03*
X0317874Y0406220D02*
D03*
Y0402283D02*
D03*
X0375866Y0395906D02*
D03*
Y0399843D02*
D03*
X0370590Y0391654D02*
D03*
Y0387717D02*
D03*
X0375079Y0391654D02*
D03*
Y0387717D02*
D03*
X0424544Y0199343D02*
D03*
Y0195405D02*
D03*
X0419606Y0405788D02*
D03*
Y0401851D02*
D03*
X0401339Y0406220D02*
D03*
Y0402283D02*
D03*
X0459331Y0395906D02*
D03*
Y0399843D02*
D03*
X0454055Y0391654D02*
D03*
Y0387717D02*
D03*
X0458543Y0391654D02*
D03*
Y0387717D02*
D03*
X0508009Y0199343D02*
D03*
Y0195405D02*
D03*
X0503071Y0405788D02*
D03*
Y0401851D02*
D03*
X0484803Y0406220D02*
D03*
Y0402283D02*
D03*
X0542795Y0395906D02*
D03*
Y0399843D02*
D03*
X0537520Y0391654D02*
D03*
Y0387717D02*
D03*
X0542008Y0391654D02*
D03*
Y0387717D02*
D03*
D89*
X0190371Y0199240D02*
D03*
X0179741Y0195499D02*
D03*
Y0202980D02*
D03*
X0190371D02*
D03*
Y0195499D02*
D03*
X0273835Y0199240D02*
D03*
X0263206Y0195499D02*
D03*
Y0202980D02*
D03*
X0273835D02*
D03*
Y0195499D02*
D03*
X0357300Y0199240D02*
D03*
X0346670Y0195499D02*
D03*
Y0202980D02*
D03*
X0357300D02*
D03*
Y0195499D02*
D03*
X0440765Y0199240D02*
D03*
X0430135Y0195499D02*
D03*
Y0202980D02*
D03*
X0440765D02*
D03*
Y0195499D02*
D03*
X0524229Y0199240D02*
D03*
X0513599Y0195499D02*
D03*
Y0202980D02*
D03*
X0524229D02*
D03*
Y0195499D02*
D03*
D90*
X0185748Y0208858D02*
D03*
X0180236D02*
D03*
X0269213D02*
D03*
X0263701D02*
D03*
X0352677D02*
D03*
X0347165D02*
D03*
X0436142D02*
D03*
X0430630D02*
D03*
X0519606D02*
D03*
X0514095D02*
D03*
D91*
X0185709Y0213976D02*
D03*
X0181929D02*
D03*
X0168543Y0303307D02*
D03*
X0172323D02*
D03*
X0168583Y0307992D02*
D03*
X0172362D02*
D03*
X0160472Y0394488D02*
D03*
X0156693D02*
D03*
X0181142Y0370827D02*
D03*
X0177362D02*
D03*
X0208189Y0412992D02*
D03*
X0204409D02*
D03*
X0208189Y0408268D02*
D03*
X0204409D02*
D03*
X0269173Y0213976D02*
D03*
X0265394D02*
D03*
X0252008Y0303307D02*
D03*
X0255787D02*
D03*
X0252047Y0307992D02*
D03*
X0255827D02*
D03*
X0243937Y0394488D02*
D03*
X0240157D02*
D03*
X0264606Y0370827D02*
D03*
X0260827D02*
D03*
X0291653Y0412992D02*
D03*
X0287874D02*
D03*
X0291653Y0408268D02*
D03*
X0287874D02*
D03*
X0352638Y0213976D02*
D03*
X0348858D02*
D03*
X0335472Y0303307D02*
D03*
X0339252D02*
D03*
X0335512Y0307992D02*
D03*
X0339291D02*
D03*
X0327401Y0394488D02*
D03*
X0323622D02*
D03*
X0348071Y0370827D02*
D03*
X0344291D02*
D03*
X0375118Y0412992D02*
D03*
X0371339D02*
D03*
X0375118Y0408268D02*
D03*
X0371339D02*
D03*
X0436102Y0213976D02*
D03*
X0432323D02*
D03*
X0418937Y0303307D02*
D03*
X0422717D02*
D03*
X0418976Y0307992D02*
D03*
X0422756D02*
D03*
X0410866Y0394488D02*
D03*
X0407087D02*
D03*
X0431535Y0370827D02*
D03*
X0427756D02*
D03*
X0458583Y0412992D02*
D03*
X0454803D02*
D03*
X0458583Y0408268D02*
D03*
X0454803D02*
D03*
X0519567Y0213976D02*
D03*
X0515788D02*
D03*
X0502402Y0303307D02*
D03*
X0506181D02*
D03*
X0502441Y0307992D02*
D03*
X0506220D02*
D03*
X0494331Y0394488D02*
D03*
X0490551D02*
D03*
X0515000Y0370827D02*
D03*
X0511221D02*
D03*
X0542047Y0412992D02*
D03*
X0538268D02*
D03*
X0542047Y0408268D02*
D03*
X0538268D02*
D03*
D92*
X0181772Y0218425D02*
D03*
X0185709D02*
D03*
X0189803D02*
D03*
X0193740D02*
D03*
X0152835Y0178228D02*
D03*
X0148898D02*
D03*
X0173189Y0370827D02*
D03*
X0169252D02*
D03*
X0195590Y0381851D02*
D03*
X0199528D02*
D03*
X0265236Y0218425D02*
D03*
X0269173D02*
D03*
X0273268D02*
D03*
X0277205D02*
D03*
X0236299Y0178228D02*
D03*
X0232362D02*
D03*
X0256653Y0370827D02*
D03*
X0252716D02*
D03*
X0279055Y0381851D02*
D03*
X0282992D02*
D03*
X0348701Y0218425D02*
D03*
X0352638D02*
D03*
X0356732D02*
D03*
X0360669D02*
D03*
X0319764Y0178228D02*
D03*
X0315827D02*
D03*
X0340118Y0370827D02*
D03*
X0336181D02*
D03*
X0362520Y0381851D02*
D03*
X0366457D02*
D03*
X0432165Y0218425D02*
D03*
X0436102D02*
D03*
X0440197D02*
D03*
X0444134D02*
D03*
X0403228Y0178228D02*
D03*
X0399291D02*
D03*
X0423583Y0370827D02*
D03*
X0419646D02*
D03*
X0445984Y0381851D02*
D03*
X0449921D02*
D03*
X0515630Y0218425D02*
D03*
X0519567D02*
D03*
X0523662D02*
D03*
X0527598D02*
D03*
X0486693Y0178228D02*
D03*
X0482756D02*
D03*
X0507047Y0370827D02*
D03*
X0503110D02*
D03*
X0529449Y0381851D02*
D03*
X0533386D02*
D03*
D93*
X0205297Y0218622D02*
D03*
X0212384D02*
D03*
X0288762D02*
D03*
X0295848D02*
D03*
X0372226D02*
D03*
X0379313D02*
D03*
X0455691D02*
D03*
X0462777D02*
D03*
X0539155D02*
D03*
X0546242D02*
D03*
D94*
X0202559Y0208819D02*
D03*
X0212559Y0183228D02*
D03*
X0202559D02*
D03*
X0212559Y0208819D02*
D03*
X0286024D02*
D03*
X0296024Y0183228D02*
D03*
X0286024D02*
D03*
X0296024Y0208819D02*
D03*
X0369488D02*
D03*
X0379488Y0183228D02*
D03*
X0369488D02*
D03*
X0379488Y0208819D02*
D03*
X0452953D02*
D03*
X0462953Y0183228D02*
D03*
X0452953D02*
D03*
X0462953Y0208819D02*
D03*
X0536417D02*
D03*
X0546417Y0183228D02*
D03*
X0536417D02*
D03*
X0546417Y0208819D02*
D03*
D95*
X0195410Y0195484D02*
D03*
Y0199264D02*
D03*
X0164488Y0401929D02*
D03*
Y0405709D02*
D03*
X0169252Y0379055D02*
D03*
Y0375276D02*
D03*
X0196693Y0395079D02*
D03*
Y0398858D02*
D03*
X0278875Y0195484D02*
D03*
Y0199264D02*
D03*
X0247953Y0401929D02*
D03*
Y0405709D02*
D03*
X0252716Y0379055D02*
D03*
Y0375276D02*
D03*
X0280157Y0395079D02*
D03*
Y0398858D02*
D03*
X0362339Y0195484D02*
D03*
Y0199264D02*
D03*
X0331417Y0401929D02*
D03*
Y0405709D02*
D03*
X0336181Y0379055D02*
D03*
Y0375276D02*
D03*
X0363622Y0395079D02*
D03*
Y0398858D02*
D03*
X0445804Y0195484D02*
D03*
Y0199264D02*
D03*
X0414882Y0401929D02*
D03*
Y0405709D02*
D03*
X0419646Y0379055D02*
D03*
Y0375276D02*
D03*
X0447087Y0395079D02*
D03*
Y0398858D02*
D03*
X0529269Y0195484D02*
D03*
Y0199264D02*
D03*
X0498347Y0401929D02*
D03*
Y0405709D02*
D03*
X0503110Y0379055D02*
D03*
Y0375276D02*
D03*
X0530551Y0395079D02*
D03*
Y0398858D02*
D03*
D96*
X0203150Y0159055D02*
D03*
X0159055D02*
D03*
X0286614D02*
D03*
X0242520D02*
D03*
X0370079D02*
D03*
X0325984D02*
D03*
X0453543D02*
D03*
X0409449D02*
D03*
X0537008D02*
D03*
X0492913D02*
D03*
D97*
X0164961Y0183169D02*
D03*
Y0189469D02*
D03*
X0248425Y0183169D02*
D03*
Y0189469D02*
D03*
X0331890Y0183169D02*
D03*
Y0189469D02*
D03*
X0415354Y0183169D02*
D03*
Y0189469D02*
D03*
X0498819Y0183169D02*
D03*
Y0189469D02*
D03*
D98*
X0153760Y0188740D02*
D03*
X0148760D02*
D03*
X0153760Y0193740D02*
D03*
X0148760D02*
D03*
X0153760Y0198740D02*
D03*
X0148760D02*
D03*
X0237224Y0188740D02*
D03*
X0232224D02*
D03*
X0237224Y0193740D02*
D03*
X0232224D02*
D03*
X0237224Y0198740D02*
D03*
X0232224D02*
D03*
X0320689Y0188740D02*
D03*
X0315689D02*
D03*
X0320689Y0193740D02*
D03*
X0315689D02*
D03*
X0320689Y0198740D02*
D03*
X0315689D02*
D03*
X0404154Y0188740D02*
D03*
X0399154D02*
D03*
X0404154Y0193740D02*
D03*
X0399154D02*
D03*
X0404154Y0198740D02*
D03*
X0399154D02*
D03*
X0487618Y0188740D02*
D03*
X0482618D02*
D03*
X0487618Y0193740D02*
D03*
X0482618D02*
D03*
X0487618Y0198740D02*
D03*
X0482618D02*
D03*
D99*
X0184685Y0308032D02*
D03*
X0178779D02*
D03*
X0156968Y0389055D02*
D03*
X0162874D02*
D03*
X0268150Y0308032D02*
D03*
X0262244D02*
D03*
X0240433Y0389055D02*
D03*
X0246339D02*
D03*
X0351614Y0308032D02*
D03*
X0345709D02*
D03*
X0323898Y0389055D02*
D03*
X0329803D02*
D03*
X0435079Y0308032D02*
D03*
X0429173D02*
D03*
X0407362Y0389055D02*
D03*
X0413268D02*
D03*
X0518543Y0308032D02*
D03*
X0512638D02*
D03*
X0490827Y0389055D02*
D03*
X0496732D02*
D03*
D100*
X0177874Y0406693D02*
D03*
X0261338D02*
D03*
X0344803D02*
D03*
X0428268D02*
D03*
X0511732D02*
D03*
D101*
X0177874Y0410394D02*
D03*
X0261338D02*
D03*
X0344803D02*
D03*
X0428268D02*
D03*
X0511732D02*
D03*
D102*
X0155157Y0401654D02*
D03*
X0157717D02*
D03*
X0160276D02*
D03*
Y0406772D02*
D03*
X0157717D02*
D03*
X0155157D02*
D03*
X0238622Y0401654D02*
D03*
X0241181D02*
D03*
X0243740D02*
D03*
Y0406772D02*
D03*
X0241181D02*
D03*
X0238622D02*
D03*
X0322087Y0401654D02*
D03*
X0324646D02*
D03*
X0327205D02*
D03*
Y0406772D02*
D03*
X0324646D02*
D03*
X0322087D02*
D03*
X0405551Y0401654D02*
D03*
X0408110D02*
D03*
X0410669D02*
D03*
Y0406772D02*
D03*
X0408110D02*
D03*
X0405551D02*
D03*
X0489016Y0401654D02*
D03*
X0491575D02*
D03*
X0494134D02*
D03*
Y0406772D02*
D03*
X0491575D02*
D03*
X0489016D02*
D03*
D103*
X0190118Y0348748D02*
D03*
Y0338906D02*
D03*
Y0328965D02*
D03*
X0180276Y0348748D02*
D03*
Y0338906D02*
D03*
Y0329063D02*
D03*
X0170433Y0348748D02*
D03*
X0170433Y0338906D02*
D03*
X0273583Y0348748D02*
D03*
Y0338906D02*
D03*
Y0328965D02*
D03*
X0263740Y0348748D02*
D03*
Y0338906D02*
D03*
Y0329063D02*
D03*
X0253898Y0348748D02*
D03*
X0253898Y0338906D02*
D03*
X0357047Y0348748D02*
D03*
Y0338906D02*
D03*
Y0328965D02*
D03*
X0347205Y0348748D02*
D03*
Y0338906D02*
D03*
Y0329063D02*
D03*
X0337362Y0348748D02*
D03*
X0337362Y0338906D02*
D03*
X0440512Y0348748D02*
D03*
Y0338906D02*
D03*
Y0328965D02*
D03*
X0430669Y0348748D02*
D03*
Y0338906D02*
D03*
Y0329063D02*
D03*
X0420827Y0348748D02*
D03*
X0420827Y0338906D02*
D03*
X0523976Y0348748D02*
D03*
Y0338906D02*
D03*
Y0328965D02*
D03*
X0514134Y0348748D02*
D03*
Y0338906D02*
D03*
Y0329063D02*
D03*
X0504291Y0348748D02*
D03*
X0504291Y0338906D02*
D03*
D104*
X0170433Y0329063D02*
D03*
X0253898D02*
D03*
X0337362D02*
D03*
X0420827D02*
D03*
X0504291D02*
D03*
D105*
X0158799Y0321575D02*
D03*
Y0324764D02*
D03*
Y0327913D02*
D03*
Y0331063D02*
D03*
Y0334213D02*
D03*
Y0337362D02*
D03*
Y0340512D02*
D03*
Y0343661D02*
D03*
Y0346811D02*
D03*
Y0349961D02*
D03*
Y0353071D02*
D03*
Y0356260D02*
D03*
X0201732Y0356417D02*
D03*
X0201732Y0353106D02*
D03*
Y0349929D02*
D03*
X0201728Y0346780D02*
D03*
X0201728Y0343630D02*
D03*
X0201732Y0340480D02*
D03*
Y0337331D02*
D03*
X0201732Y0334181D02*
D03*
X0201732Y0331032D02*
D03*
X0201732Y0327882D02*
D03*
Y0324732D02*
D03*
Y0321575D02*
D03*
X0242264D02*
D03*
Y0324764D02*
D03*
Y0327913D02*
D03*
Y0331063D02*
D03*
Y0334213D02*
D03*
Y0337362D02*
D03*
Y0340512D02*
D03*
Y0343661D02*
D03*
Y0346811D02*
D03*
Y0349961D02*
D03*
Y0353071D02*
D03*
Y0356260D02*
D03*
X0285197Y0356417D02*
D03*
X0285197Y0353106D02*
D03*
Y0349929D02*
D03*
X0285193Y0346780D02*
D03*
X0285193Y0343630D02*
D03*
X0285197Y0340480D02*
D03*
Y0337331D02*
D03*
X0285197Y0334181D02*
D03*
X0285197Y0331032D02*
D03*
X0285197Y0327882D02*
D03*
Y0324732D02*
D03*
Y0321575D02*
D03*
X0325728D02*
D03*
Y0324764D02*
D03*
Y0327913D02*
D03*
Y0331063D02*
D03*
Y0334213D02*
D03*
Y0337362D02*
D03*
Y0340512D02*
D03*
Y0343661D02*
D03*
Y0346811D02*
D03*
Y0349961D02*
D03*
Y0353071D02*
D03*
Y0356260D02*
D03*
X0368661Y0356417D02*
D03*
X0368661Y0353106D02*
D03*
Y0349929D02*
D03*
X0368657Y0346780D02*
D03*
X0368657Y0343630D02*
D03*
X0368661Y0340480D02*
D03*
Y0337331D02*
D03*
X0368661Y0334181D02*
D03*
X0368661Y0331032D02*
D03*
X0368661Y0327882D02*
D03*
Y0324732D02*
D03*
Y0321575D02*
D03*
X0409193D02*
D03*
Y0324764D02*
D03*
Y0327913D02*
D03*
Y0331063D02*
D03*
Y0334213D02*
D03*
Y0337362D02*
D03*
Y0340512D02*
D03*
Y0343661D02*
D03*
Y0346811D02*
D03*
Y0349961D02*
D03*
Y0353071D02*
D03*
Y0356260D02*
D03*
X0452126Y0356417D02*
D03*
X0452126Y0353106D02*
D03*
Y0349929D02*
D03*
X0452122Y0346780D02*
D03*
X0452122Y0343630D02*
D03*
X0452126Y0340480D02*
D03*
Y0337331D02*
D03*
X0452126Y0334181D02*
D03*
X0452126Y0331032D02*
D03*
X0452126Y0327882D02*
D03*
Y0324732D02*
D03*
Y0321575D02*
D03*
X0492658D02*
D03*
Y0324764D02*
D03*
Y0327913D02*
D03*
Y0331063D02*
D03*
Y0334213D02*
D03*
Y0337362D02*
D03*
Y0340512D02*
D03*
Y0343661D02*
D03*
Y0346811D02*
D03*
Y0349961D02*
D03*
Y0353071D02*
D03*
Y0356260D02*
D03*
X0535591Y0356417D02*
D03*
X0535591Y0353106D02*
D03*
Y0349929D02*
D03*
X0535587Y0346780D02*
D03*
X0535587Y0343630D02*
D03*
X0535591Y0340480D02*
D03*
Y0337331D02*
D03*
X0535591Y0334181D02*
D03*
X0535591Y0331032D02*
D03*
X0535591Y0327882D02*
D03*
Y0324732D02*
D03*
Y0321575D02*
D03*
D106*
X0162933Y0362126D02*
D03*
X0166083D02*
D03*
X0169272D02*
D03*
X0172382D02*
D03*
X0175531D02*
D03*
X0178720D02*
D03*
X0181850Y0362134D02*
D03*
X0185000Y0362134D02*
D03*
X0188150Y0362134D02*
D03*
X0191287Y0362134D02*
D03*
X0194445Y0362134D02*
D03*
X0197598D02*
D03*
X0197579Y0315669D02*
D03*
X0194468D02*
D03*
X0191279D02*
D03*
X0188169D02*
D03*
X0185020D02*
D03*
X0181831D02*
D03*
X0178720D02*
D03*
X0175571D02*
D03*
X0172421D02*
D03*
X0169272D02*
D03*
X0166083D02*
D03*
X0162933D02*
D03*
X0246398Y0362126D02*
D03*
X0249547D02*
D03*
X0252736D02*
D03*
X0255846D02*
D03*
X0258996D02*
D03*
X0262185D02*
D03*
X0265315Y0362134D02*
D03*
X0268464Y0362134D02*
D03*
X0271614Y0362134D02*
D03*
X0274752Y0362134D02*
D03*
X0277909Y0362134D02*
D03*
X0281063D02*
D03*
X0281043Y0315669D02*
D03*
X0277933D02*
D03*
X0274744D02*
D03*
X0271634D02*
D03*
X0268484D02*
D03*
X0265295D02*
D03*
X0262185D02*
D03*
X0259035D02*
D03*
X0255886D02*
D03*
X0252736D02*
D03*
X0249547D02*
D03*
X0246398D02*
D03*
X0329862Y0362126D02*
D03*
X0333012D02*
D03*
X0336201D02*
D03*
X0339311D02*
D03*
X0342461D02*
D03*
X0345650D02*
D03*
X0348780Y0362134D02*
D03*
X0351929Y0362134D02*
D03*
X0355079Y0362134D02*
D03*
X0358217Y0362134D02*
D03*
X0361374Y0362134D02*
D03*
X0364528D02*
D03*
X0364508Y0315669D02*
D03*
X0361398D02*
D03*
X0358209D02*
D03*
X0355098D02*
D03*
X0351949D02*
D03*
X0348760D02*
D03*
X0345650D02*
D03*
X0342500D02*
D03*
X0339350D02*
D03*
X0336201D02*
D03*
X0333012D02*
D03*
X0329862D02*
D03*
X0413327Y0362126D02*
D03*
X0416476D02*
D03*
X0419665D02*
D03*
X0422776D02*
D03*
X0425925D02*
D03*
X0429114D02*
D03*
X0432244Y0362134D02*
D03*
X0435394Y0362134D02*
D03*
X0438543Y0362134D02*
D03*
X0441681Y0362134D02*
D03*
X0444839Y0362134D02*
D03*
X0447992D02*
D03*
X0447972Y0315669D02*
D03*
X0444862D02*
D03*
X0441673D02*
D03*
X0438563D02*
D03*
X0435413D02*
D03*
X0432224D02*
D03*
X0429114D02*
D03*
X0425964D02*
D03*
X0422815D02*
D03*
X0419665D02*
D03*
X0416476D02*
D03*
X0413327D02*
D03*
X0496791Y0362126D02*
D03*
X0499941D02*
D03*
X0503130D02*
D03*
X0506240D02*
D03*
X0509390D02*
D03*
X0512579D02*
D03*
X0515709Y0362134D02*
D03*
X0518858Y0362134D02*
D03*
X0522008Y0362134D02*
D03*
X0525146Y0362134D02*
D03*
X0528303Y0362134D02*
D03*
X0531457D02*
D03*
X0531437Y0315669D02*
D03*
X0528327D02*
D03*
X0525138D02*
D03*
X0522027D02*
D03*
X0518878D02*
D03*
X0515689D02*
D03*
X0512579D02*
D03*
X0509429D02*
D03*
X0506280D02*
D03*
X0503130D02*
D03*
X0499941D02*
D03*
X0496791D02*
D03*
D107*
X0156968Y0379803D02*
D03*
Y0381772D02*
D03*
X0162874D02*
D03*
X0162874Y0379803D02*
D03*
X0240433D02*
D03*
Y0381772D02*
D03*
X0246339D02*
D03*
X0246339Y0379803D02*
D03*
X0323898D02*
D03*
Y0381772D02*
D03*
X0329803D02*
D03*
X0329803Y0379803D02*
D03*
X0407362D02*
D03*
Y0381772D02*
D03*
X0413268D02*
D03*
X0413268Y0379803D02*
D03*
X0490827D02*
D03*
Y0381772D02*
D03*
X0496732D02*
D03*
X0496732Y0379803D02*
D03*
D108*
X0156968Y0383740D02*
D03*
X0158937D02*
D03*
X0160906D02*
D03*
X0162874D02*
D03*
Y0377835D02*
D03*
X0160906D02*
D03*
X0158937D02*
D03*
X0156968D02*
D03*
X0240433Y0383740D02*
D03*
X0242402D02*
D03*
X0244370D02*
D03*
X0246339D02*
D03*
Y0377835D02*
D03*
X0244370D02*
D03*
X0242402D02*
D03*
X0240433D02*
D03*
X0323898Y0383740D02*
D03*
X0325866D02*
D03*
X0327835D02*
D03*
X0329803D02*
D03*
Y0377835D02*
D03*
X0327835D02*
D03*
X0325866D02*
D03*
X0323898D02*
D03*
X0407362Y0383740D02*
D03*
X0409331D02*
D03*
X0411299D02*
D03*
X0413268D02*
D03*
Y0377835D02*
D03*
X0411299D02*
D03*
X0409331D02*
D03*
X0407362D02*
D03*
X0490827Y0383740D02*
D03*
X0492795D02*
D03*
X0494764D02*
D03*
X0496732D02*
D03*
Y0377835D02*
D03*
X0494764D02*
D03*
X0492795D02*
D03*
X0490827D02*
D03*
D109*
X0187323Y0398386D02*
D03*
Y0402166D02*
D03*
X0270787Y0398386D02*
D03*
Y0402166D02*
D03*
X0354252Y0398386D02*
D03*
Y0402166D02*
D03*
X0437716Y0398386D02*
D03*
Y0402166D02*
D03*
X0521181Y0398386D02*
D03*
Y0402166D02*
D03*
D110*
X0200709Y0398032D02*
D03*
X0204646D02*
D03*
X0284173D02*
D03*
X0288110D02*
D03*
X0367638D02*
D03*
X0371575D02*
D03*
X0451102D02*
D03*
X0455039D02*
D03*
X0534567D02*
D03*
X0538504D02*
D03*
D111*
X0196634Y0391102D02*
D03*
X0198406D02*
D03*
X0196634Y0389331D02*
D03*
X0198406D02*
D03*
X0196634Y0387559D02*
D03*
X0198406D02*
D03*
X0280098Y0391102D02*
D03*
X0281870D02*
D03*
X0280098Y0389331D02*
D03*
X0281870D02*
D03*
X0280098Y0387559D02*
D03*
X0281870D02*
D03*
X0363563Y0391102D02*
D03*
X0365335D02*
D03*
X0363563Y0389331D02*
D03*
X0365335D02*
D03*
X0363563Y0387559D02*
D03*
X0365335D02*
D03*
X0447027Y0391102D02*
D03*
X0448799D02*
D03*
X0447027Y0389331D02*
D03*
X0448799D02*
D03*
X0447027Y0387559D02*
D03*
X0448799D02*
D03*
X0530492Y0391102D02*
D03*
X0532264D02*
D03*
X0530492Y0389331D02*
D03*
X0532264D02*
D03*
X0530492Y0387559D02*
D03*
X0532264D02*
D03*
D112*
X0192244Y0389331D02*
D03*
Y0387165D02*
D03*
Y0385000D02*
D03*
X0188307Y0389331D02*
D03*
Y0387165D02*
D03*
Y0385000D02*
D03*
X0275709Y0389331D02*
D03*
Y0387165D02*
D03*
Y0385000D02*
D03*
X0271772Y0389331D02*
D03*
Y0387165D02*
D03*
Y0385000D02*
D03*
X0359173Y0389331D02*
D03*
Y0387165D02*
D03*
Y0385000D02*
D03*
X0355236Y0389331D02*
D03*
Y0387165D02*
D03*
Y0385000D02*
D03*
X0442638Y0389331D02*
D03*
Y0387165D02*
D03*
Y0385000D02*
D03*
X0438701Y0389331D02*
D03*
Y0387165D02*
D03*
Y0385000D02*
D03*
X0526102Y0389331D02*
D03*
Y0387165D02*
D03*
Y0385000D02*
D03*
X0522165Y0389331D02*
D03*
Y0387165D02*
D03*
Y0385000D02*
D03*
D113*
X0191850Y0394016D02*
D03*
X0188150D02*
D03*
X0275315D02*
D03*
X0271614D02*
D03*
X0358780D02*
D03*
X0355079D02*
D03*
X0442244D02*
D03*
X0438543D02*
D03*
X0525709D02*
D03*
X0522008D02*
D03*
D114*
X0194966Y0404179D02*
D03*
X0196261Y0405668D02*
D03*
X0197750Y0406963D02*
D03*
X0192199Y0412514D02*
D03*
X0190904Y0411025D02*
D03*
X0189415Y0409730D02*
D03*
X0278431Y0404179D02*
D03*
X0279725Y0405668D02*
D03*
X0281215Y0406963D02*
D03*
X0275664Y0412514D02*
D03*
X0274369Y0411025D02*
D03*
X0272880Y0409730D02*
D03*
X0361895Y0404179D02*
D03*
X0363190Y0405668D02*
D03*
X0364679Y0406963D02*
D03*
X0359128Y0412514D02*
D03*
X0357834Y0411025D02*
D03*
X0356344Y0409730D02*
D03*
X0445360Y0404179D02*
D03*
X0446655Y0405668D02*
D03*
X0448144Y0406963D02*
D03*
X0442593Y0412514D02*
D03*
X0441298Y0411025D02*
D03*
X0439809Y0409730D02*
D03*
X0528825Y0404179D02*
D03*
X0530119Y0405668D02*
D03*
X0531608Y0406963D02*
D03*
X0526057Y0412514D02*
D03*
X0524763Y0411025D02*
D03*
X0523273Y0409730D02*
D03*
D115*
X0197751Y0409731D02*
D03*
X0196262Y0411026D02*
D03*
X0194968Y0412515D02*
D03*
X0189415Y0406963D02*
D03*
X0190904Y0405668D02*
D03*
X0192199Y0404179D02*
D03*
X0281216Y0409731D02*
D03*
X0279727Y0411026D02*
D03*
X0278432Y0412515D02*
D03*
X0272880Y0406963D02*
D03*
X0274369Y0405668D02*
D03*
X0275664Y0404179D02*
D03*
X0364681Y0409731D02*
D03*
X0363191Y0411026D02*
D03*
X0361897Y0412515D02*
D03*
X0356344Y0406963D02*
D03*
X0357834Y0405668D02*
D03*
X0359128Y0404179D02*
D03*
X0448145Y0409731D02*
D03*
X0446656Y0411026D02*
D03*
X0445361Y0412515D02*
D03*
X0439809Y0406963D02*
D03*
X0441298Y0405668D02*
D03*
X0442593Y0404179D02*
D03*
X0531610Y0409731D02*
D03*
X0530120Y0411026D02*
D03*
X0528826Y0412515D02*
D03*
X0523273Y0406963D02*
D03*
X0524763Y0405668D02*
D03*
X0526057Y0404179D02*
D03*
D116*
X0193583Y0408347D02*
D03*
X0277047D02*
D03*
X0360512D02*
D03*
X0443976D02*
D03*
X0527441D02*
D03*
D117*
X0204646Y0457323D02*
D03*
X0217638D02*
D03*
X0177874D02*
D03*
X0217638Y0423465D02*
D03*
X0204646D02*
D03*
X0187323D02*
D03*
X0177874D02*
D03*
X0288110Y0457323D02*
D03*
X0301102D02*
D03*
X0261338D02*
D03*
X0301102Y0423465D02*
D03*
X0288110D02*
D03*
X0270787D02*
D03*
X0261338D02*
D03*
X0371575Y0457323D02*
D03*
X0384567D02*
D03*
X0344803D02*
D03*
X0384567Y0423465D02*
D03*
X0371575D02*
D03*
X0354252D02*
D03*
X0344803D02*
D03*
X0455039Y0457323D02*
D03*
X0468032D02*
D03*
X0428268D02*
D03*
X0468032Y0423465D02*
D03*
X0455039D02*
D03*
X0437716D02*
D03*
X0428268D02*
D03*
X0538504Y0457323D02*
D03*
X0551496D02*
D03*
X0511732D02*
D03*
X0551496Y0423465D02*
D03*
X0538504D02*
D03*
X0521181D02*
D03*
X0511732D02*
D03*
D118*
X0120276Y0120394D02*
D03*
X0575984D02*
D03*
X0576299Y0482835D02*
D03*
X0120118Y0482323D02*
D03*
D119*
X0147260Y0183740D02*
D03*
X0155260D02*
D03*
X0151260Y0203740D02*
D03*
X0230724Y0183740D02*
D03*
X0238724D02*
D03*
X0234724Y0203740D02*
D03*
X0314189Y0183740D02*
D03*
X0322189D02*
D03*
X0318189Y0203740D02*
D03*
X0397654Y0183740D02*
D03*
X0405654D02*
D03*
X0401654Y0203740D02*
D03*
X0481118Y0183740D02*
D03*
X0489118D02*
D03*
X0485118Y0203740D02*
D03*
D120*
X0185079Y0263819D02*
D03*
X0268543D02*
D03*
X0352008D02*
D03*
X0435472D02*
D03*
X0518937D02*
D03*
M02*
