G04*
G04 #@! TF.GenerationSoftware,Altium Limited,Altium Designer,19.1.8 (144)*
G04*
G04 Layer_Color=16711935*
%FSAX25Y25*%
%MOIN*%
G70*
G01*
G75*
%ADD16C,0.01181*%
%ADD139C,0.01000*%
%ADD140C,0.00394*%
%ADD142C,0.00600*%
%ADD143C,0.03150*%
%ADD144C,0.00472*%
D16*
X0188631Y0163109D02*
X0193879D01*
X0191255D01*
Y0155237D01*
X0196502D02*
Y0160485D01*
X0199126Y0163109D01*
X0201750Y0160485D01*
Y0155237D01*
Y0159173D01*
X0196502D01*
X0204374Y0163109D02*
Y0155237D01*
X0208310D01*
X0209622Y0156549D01*
Y0157861D01*
X0208310Y0159173D01*
X0204374D01*
X0208310D01*
X0209622Y0160485D01*
Y0161797D01*
X0208310Y0163109D01*
X0204374D01*
X0212245Y0155237D02*
X0214869D01*
X0213557D01*
Y0163109D01*
X0212245Y0161797D01*
X0145442Y0162242D02*
X0150690D01*
X0148066D01*
Y0154371D01*
X0153314D02*
Y0159619D01*
X0155937Y0162242D01*
X0158561Y0159619D01*
Y0154371D01*
Y0158307D01*
X0153314D01*
X0161185Y0162242D02*
Y0154371D01*
X0165121D01*
X0166433Y0155683D01*
Y0156995D01*
X0165121Y0158307D01*
X0161185D01*
X0165121D01*
X0166433Y0159619D01*
Y0160931D01*
X0165121Y0162242D01*
X0161185D01*
X0169056Y0160931D02*
X0170368Y0162242D01*
X0172992D01*
X0174304Y0160931D01*
Y0159619D01*
X0172992Y0158307D01*
X0171680D01*
X0172992D01*
X0174304Y0156995D01*
Y0155683D01*
X0172992Y0154371D01*
X0170368D01*
X0169056Y0155683D01*
X0272489Y0163109D02*
X0277737D01*
X0275113D01*
Y0155237D01*
X0280361D02*
Y0160485D01*
X0282985Y0163109D01*
X0285608Y0160485D01*
Y0155237D01*
Y0159173D01*
X0280361D01*
X0288232Y0163109D02*
Y0155237D01*
X0292168D01*
X0293480Y0156549D01*
Y0157861D01*
X0292168Y0159173D01*
X0288232D01*
X0292168D01*
X0293480Y0160485D01*
Y0161797D01*
X0292168Y0163109D01*
X0288232D01*
X0296104Y0155237D02*
X0298727D01*
X0297416D01*
Y0163109D01*
X0296104Y0161797D01*
X0229300Y0162242D02*
X0234548D01*
X0231924D01*
Y0154371D01*
X0237172D02*
Y0159619D01*
X0239796Y0162242D01*
X0242419Y0159619D01*
Y0154371D01*
Y0158307D01*
X0237172D01*
X0245043Y0162242D02*
Y0154371D01*
X0248979D01*
X0250291Y0155683D01*
Y0156995D01*
X0248979Y0158307D01*
X0245043D01*
X0248979D01*
X0250291Y0159619D01*
Y0160931D01*
X0248979Y0162242D01*
X0245043D01*
X0252915Y0160931D02*
X0254227Y0162242D01*
X0256851D01*
X0258162Y0160931D01*
Y0159619D01*
X0256851Y0158307D01*
X0255539D01*
X0256851D01*
X0258162Y0156995D01*
Y0155683D01*
X0256851Y0154371D01*
X0254227D01*
X0252915Y0155683D01*
X0356348Y0163109D02*
X0361595D01*
X0358971D01*
Y0155237D01*
X0364219D02*
Y0160485D01*
X0366843Y0163109D01*
X0369467Y0160485D01*
Y0155237D01*
Y0159173D01*
X0364219D01*
X0372091Y0163109D02*
Y0155237D01*
X0376026D01*
X0377338Y0156549D01*
Y0157861D01*
X0376026Y0159173D01*
X0372091D01*
X0376026D01*
X0377338Y0160485D01*
Y0161797D01*
X0376026Y0163109D01*
X0372091D01*
X0379962Y0155237D02*
X0382586D01*
X0381274D01*
Y0163109D01*
X0379962Y0161797D01*
X0313159Y0162242D02*
X0318406D01*
X0315782D01*
Y0154371D01*
X0321030D02*
Y0159619D01*
X0323654Y0162242D01*
X0326278Y0159619D01*
Y0154371D01*
Y0158307D01*
X0321030D01*
X0328902Y0162242D02*
Y0154371D01*
X0332837D01*
X0334149Y0155683D01*
Y0156995D01*
X0332837Y0158307D01*
X0328902D01*
X0332837D01*
X0334149Y0159619D01*
Y0160931D01*
X0332837Y0162242D01*
X0328902D01*
X0336773Y0160931D02*
X0338085Y0162242D01*
X0340709D01*
X0342021Y0160931D01*
Y0159619D01*
X0340709Y0158307D01*
X0339397D01*
X0340709D01*
X0342021Y0156995D01*
Y0155683D01*
X0340709Y0154371D01*
X0338085D01*
X0336773Y0155683D01*
X0440206Y0163109D02*
X0445454D01*
X0442830D01*
Y0155237D01*
X0448077D02*
Y0160485D01*
X0450701Y0163109D01*
X0453325Y0160485D01*
Y0155237D01*
Y0159173D01*
X0448077D01*
X0455949Y0163109D02*
Y0155237D01*
X0459885D01*
X0461197Y0156549D01*
Y0157861D01*
X0459885Y0159173D01*
X0455949D01*
X0459885D01*
X0461197Y0160485D01*
Y0161797D01*
X0459885Y0163109D01*
X0455949D01*
X0463820Y0155237D02*
X0466444D01*
X0465132D01*
Y0163109D01*
X0463820Y0161797D01*
X0397017Y0162242D02*
X0402265D01*
X0399641D01*
Y0154371D01*
X0404888D02*
Y0159619D01*
X0407512Y0162242D01*
X0410136Y0159619D01*
Y0154371D01*
Y0158307D01*
X0404888D01*
X0412760Y0162242D02*
Y0154371D01*
X0416696D01*
X0418008Y0155683D01*
Y0156995D01*
X0416696Y0158307D01*
X0412760D01*
X0416696D01*
X0418008Y0159619D01*
Y0160931D01*
X0416696Y0162242D01*
X0412760D01*
X0420631Y0160931D02*
X0421943Y0162242D01*
X0424567D01*
X0425879Y0160931D01*
Y0159619D01*
X0424567Y0158307D01*
X0423255D01*
X0424567D01*
X0425879Y0156995D01*
Y0155683D01*
X0424567Y0154371D01*
X0421943D01*
X0420631Y0155683D01*
X0524064Y0163109D02*
X0529312D01*
X0526688D01*
Y0155237D01*
X0531936D02*
Y0160485D01*
X0534559Y0163109D01*
X0537183Y0160485D01*
Y0155237D01*
Y0159173D01*
X0531936D01*
X0539807Y0163109D02*
Y0155237D01*
X0543743D01*
X0545055Y0156549D01*
Y0157861D01*
X0543743Y0159173D01*
X0539807D01*
X0543743D01*
X0545055Y0160485D01*
Y0161797D01*
X0543743Y0163109D01*
X0539807D01*
X0547679Y0155237D02*
X0550302D01*
X0548990D01*
Y0163109D01*
X0547679Y0161797D01*
X0480875Y0162242D02*
X0486123D01*
X0483499D01*
Y0154371D01*
X0488747D02*
Y0159619D01*
X0491370Y0162242D01*
X0493994Y0159619D01*
Y0154371D01*
Y0158307D01*
X0488747D01*
X0496618Y0162242D02*
Y0154371D01*
X0500554D01*
X0501866Y0155683D01*
Y0156995D01*
X0500554Y0158307D01*
X0496618D01*
X0500554D01*
X0501866Y0159619D01*
Y0160931D01*
X0500554Y0162242D01*
X0496618D01*
X0504490Y0160931D02*
X0505802Y0162242D01*
X0508425D01*
X0509737Y0160931D01*
Y0159619D01*
X0508425Y0158307D01*
X0507114D01*
X0508425D01*
X0509737Y0156995D01*
Y0155683D01*
X0508425Y0154371D01*
X0505802D01*
X0504490Y0155683D01*
D139*
X0218432Y0158898D02*
G03*
X0218432Y0158898I-0015755J0000000D01*
G01*
X0175243Y0158031D02*
G03*
X0175243Y0158031I-0015755J0000000D01*
G01*
X0245551Y0462205D02*
X0247551Y0456205D01*
X0243551D02*
X0245551Y0462205D01*
X0243551Y0145370D02*
X0245551Y0139370D01*
X0247551Y0145370D01*
X0245551Y0314783D02*
Y0462205D01*
Y0139370D02*
Y0283592D01*
X0222047Y0462205D02*
X0246551D01*
X0223047Y0139370D02*
X0246551D01*
X0139370Y0482756D02*
X0145370Y0484756D01*
X0139370Y0482756D02*
X0145370Y0480756D01*
X0216047D02*
X0222047Y0482756D01*
X0216047Y0484756D02*
X0222047Y0482756D01*
X0139370D02*
X0164013D01*
X0194204D02*
X0222047D01*
X0139370Y0463205D02*
Y0483756D01*
X0222047Y0462205D02*
Y0483756D01*
X0302291Y0158898D02*
G03*
X0302291Y0158898I-0015755J0000000D01*
G01*
X0259102Y0158031D02*
G03*
X0259102Y0158031I-0015755J0000000D01*
G01*
X0329410Y0462205D02*
X0331410Y0456205D01*
X0327410D02*
X0329410Y0462205D01*
X0327410Y0145370D02*
X0329410Y0139370D01*
X0331410Y0145370D01*
X0329410Y0314783D02*
Y0462205D01*
Y0139370D02*
Y0283592D01*
X0305906Y0462205D02*
X0330410D01*
X0306906Y0139370D02*
X0330410D01*
X0223228Y0482756D02*
X0229228Y0484756D01*
X0223228Y0482756D02*
X0229228Y0480756D01*
X0299906D02*
X0305906Y0482756D01*
X0299906Y0484756D02*
X0305906Y0482756D01*
X0223228D02*
X0247871D01*
X0278063D02*
X0305906D01*
X0223228Y0463205D02*
Y0483756D01*
X0305906Y0462205D02*
Y0483756D01*
X0386149Y0158898D02*
G03*
X0386149Y0158898I-0015755J0000000D01*
G01*
X0342960Y0158031D02*
G03*
X0342960Y0158031I-0015755J0000000D01*
G01*
X0413268Y0462205D02*
X0415268Y0456205D01*
X0411268D02*
X0413268Y0462205D01*
X0411268Y0145370D02*
X0413268Y0139370D01*
X0415268Y0145370D01*
X0413268Y0314783D02*
Y0462205D01*
Y0139370D02*
Y0283592D01*
X0389764Y0462205D02*
X0414268D01*
X0390764Y0139370D02*
X0414268D01*
X0307087Y0482756D02*
X0313087Y0484756D01*
X0307087Y0482756D02*
X0313087Y0480756D01*
X0383764D02*
X0389764Y0482756D01*
X0383764Y0484756D02*
X0389764Y0482756D01*
X0307087D02*
X0331730D01*
X0361921D02*
X0389764D01*
X0307087Y0463205D02*
Y0483756D01*
X0389764Y0462205D02*
Y0483756D01*
X0470007Y0158898D02*
G03*
X0470007Y0158898I-0015755J0000000D01*
G01*
X0426818Y0158031D02*
G03*
X0426818Y0158031I-0015755J0000000D01*
G01*
X0497126Y0462205D02*
X0499126Y0456205D01*
X0495126D02*
X0497126Y0462205D01*
X0495126Y0145370D02*
X0497126Y0139370D01*
X0499126Y0145370D01*
X0497126Y0314783D02*
Y0462205D01*
Y0139370D02*
Y0283592D01*
X0473622Y0462205D02*
X0498126D01*
X0474622Y0139370D02*
X0498126D01*
X0390945Y0482756D02*
X0396945Y0484756D01*
X0390945Y0482756D02*
X0396945Y0480756D01*
X0467622D02*
X0473622Y0482756D01*
X0467622Y0484756D02*
X0473622Y0482756D01*
X0390945D02*
X0415588D01*
X0445779D02*
X0473622D01*
X0390945Y0463205D02*
Y0483756D01*
X0473622Y0462205D02*
Y0483756D01*
X0553865Y0158898D02*
G03*
X0553865Y0158898I-0015755J0000000D01*
G01*
X0510676Y0158031D02*
G03*
X0510676Y0158031I-0015755J0000000D01*
G01*
X0580984Y0462205D02*
X0582984Y0456205D01*
X0578984D02*
X0580984Y0462205D01*
X0578984Y0145370D02*
X0580984Y0139370D01*
X0582984Y0145370D01*
X0580984Y0314783D02*
Y0462205D01*
Y0139370D02*
Y0283592D01*
X0557480Y0462205D02*
X0581984D01*
X0558481Y0139370D02*
X0581984D01*
X0474803Y0482756D02*
X0480803Y0484756D01*
X0474803Y0482756D02*
X0480803Y0480756D01*
X0551480D02*
X0557480Y0482756D01*
X0551480Y0484756D02*
X0557480Y0482756D01*
X0474803D02*
X0499446D01*
X0529637D02*
X0557480D01*
X0474803Y0463205D02*
Y0483756D01*
X0557480Y0462205D02*
Y0483756D01*
D140*
X0174449Y0418386D02*
X0221693D01*
Y0461693D01*
X0174449D02*
X0221693D01*
X0174449Y0418386D02*
Y0461693D01*
X0258307Y0418386D02*
X0305551D01*
Y0461693D01*
X0258307D02*
X0305551D01*
X0258307Y0418386D02*
Y0461693D01*
X0342165Y0418386D02*
X0389410D01*
Y0461693D01*
X0342165D02*
X0389410D01*
X0342165Y0418386D02*
Y0461693D01*
X0426024Y0418386D02*
X0473268D01*
Y0461693D01*
X0426024D02*
X0473268D01*
X0426024Y0418386D02*
Y0461693D01*
X0509882Y0418386D02*
X0557126D01*
Y0461693D01*
X0509882D02*
X0557126D01*
X0509882Y0418386D02*
Y0461693D01*
D142*
X0245151Y0285192D02*
X0244152Y0286192D01*
Y0288191D01*
X0245151Y0289191D01*
X0246151D01*
X0247151Y0288191D01*
X0248151Y0289191D01*
X0249150D01*
X0250150Y0288191D01*
Y0286192D01*
X0249150Y0285192D01*
X0248151D01*
X0247151Y0286192D01*
X0246151Y0285192D01*
X0245151D01*
X0247151Y0286192D02*
Y0288191D01*
X0250150Y0295189D02*
Y0291190D01*
X0246151Y0295189D01*
X0245151D01*
X0244152Y0294189D01*
Y0292190D01*
X0245151Y0291190D01*
X0251150Y0298188D02*
X0250150Y0299187D01*
X0249150D01*
Y0298188D01*
X0250150D01*
Y0299187D01*
X0251150Y0298188D01*
X0252149Y0297188D01*
X0245151Y0303186D02*
X0244152Y0304186D01*
Y0306185D01*
X0245151Y0307185D01*
X0249150D01*
X0250150Y0306185D01*
Y0304186D01*
X0249150Y0303186D01*
X0245151D01*
Y0309184D02*
X0244152Y0310184D01*
Y0312183D01*
X0245151Y0313183D01*
X0249150D01*
X0250150Y0312183D01*
Y0310184D01*
X0249150Y0309184D01*
X0245151D01*
X0169612Y0478157D02*
X0165613D01*
X0169612Y0482156D01*
Y0483156D01*
X0168612Y0484155D01*
X0166613D01*
X0165613Y0483156D01*
X0171611Y0478157D02*
X0173610D01*
X0172611D01*
Y0484155D01*
X0171611Y0483156D01*
X0177609Y0477158D02*
X0178609Y0478157D01*
Y0479157D01*
X0177609D01*
Y0478157D01*
X0178609D01*
X0177609Y0477158D01*
X0176610Y0476158D01*
X0182607Y0483156D02*
X0183607Y0484155D01*
X0185607D01*
X0186606Y0483156D01*
Y0479157D01*
X0185607Y0478157D01*
X0183607D01*
X0182607Y0479157D01*
Y0483156D01*
X0188606D02*
X0189605Y0484155D01*
X0191605D01*
X0192604Y0483156D01*
Y0479157D01*
X0191605Y0478157D01*
X0189605D01*
X0188606Y0479157D01*
Y0483156D01*
X0329010Y0285192D02*
X0328010Y0286192D01*
Y0288191D01*
X0329010Y0289191D01*
X0330010D01*
X0331009Y0288191D01*
X0332009Y0289191D01*
X0333009D01*
X0334008Y0288191D01*
Y0286192D01*
X0333009Y0285192D01*
X0332009D01*
X0331009Y0286192D01*
X0330010Y0285192D01*
X0329010D01*
X0331009Y0286192D02*
Y0288191D01*
X0334008Y0295189D02*
Y0291190D01*
X0330010Y0295189D01*
X0329010D01*
X0328010Y0294189D01*
Y0292190D01*
X0329010Y0291190D01*
X0335008Y0298188D02*
X0334008Y0299187D01*
X0333009D01*
Y0298188D01*
X0334008D01*
Y0299187D01*
X0335008Y0298188D01*
X0336008Y0297188D01*
X0329010Y0303186D02*
X0328010Y0304186D01*
Y0306185D01*
X0329010Y0307185D01*
X0333009D01*
X0334008Y0306185D01*
Y0304186D01*
X0333009Y0303186D01*
X0329010D01*
Y0309184D02*
X0328010Y0310184D01*
Y0312183D01*
X0329010Y0313183D01*
X0333009D01*
X0334008Y0312183D01*
Y0310184D01*
X0333009Y0309184D01*
X0329010D01*
X0253470Y0478157D02*
X0249471D01*
X0253470Y0482156D01*
Y0483156D01*
X0252470Y0484155D01*
X0250471D01*
X0249471Y0483156D01*
X0255469Y0478157D02*
X0257469D01*
X0256469D01*
Y0484155D01*
X0255469Y0483156D01*
X0261468Y0477158D02*
X0262467Y0478157D01*
Y0479157D01*
X0261468D01*
Y0478157D01*
X0262467D01*
X0261468Y0477158D01*
X0260468Y0476158D01*
X0266466Y0483156D02*
X0267465Y0484155D01*
X0269465D01*
X0270465Y0483156D01*
Y0479157D01*
X0269465Y0478157D01*
X0267465D01*
X0266466Y0479157D01*
Y0483156D01*
X0272464D02*
X0273464Y0484155D01*
X0275463D01*
X0276463Y0483156D01*
Y0479157D01*
X0275463Y0478157D01*
X0273464D01*
X0272464Y0479157D01*
Y0483156D01*
X0412868Y0285192D02*
X0411868Y0286192D01*
Y0288191D01*
X0412868Y0289191D01*
X0413868D01*
X0414867Y0288191D01*
X0415867Y0289191D01*
X0416867D01*
X0417867Y0288191D01*
Y0286192D01*
X0416867Y0285192D01*
X0415867D01*
X0414867Y0286192D01*
X0413868Y0285192D01*
X0412868D01*
X0414867Y0286192D02*
Y0288191D01*
X0417867Y0295189D02*
Y0291190D01*
X0413868Y0295189D01*
X0412868D01*
X0411868Y0294189D01*
Y0292190D01*
X0412868Y0291190D01*
X0418866Y0298188D02*
X0417867Y0299187D01*
X0416867D01*
Y0298188D01*
X0417867D01*
Y0299187D01*
X0418866Y0298188D01*
X0419866Y0297188D01*
X0412868Y0303186D02*
X0411868Y0304186D01*
Y0306185D01*
X0412868Y0307185D01*
X0416867D01*
X0417867Y0306185D01*
Y0304186D01*
X0416867Y0303186D01*
X0412868D01*
Y0309184D02*
X0411868Y0310184D01*
Y0312183D01*
X0412868Y0313183D01*
X0416867D01*
X0417867Y0312183D01*
Y0310184D01*
X0416867Y0309184D01*
X0412868D01*
X0337328Y0478157D02*
X0333330D01*
X0337328Y0482156D01*
Y0483156D01*
X0336329Y0484155D01*
X0334329D01*
X0333330Y0483156D01*
X0339328Y0478157D02*
X0341327D01*
X0340327D01*
Y0484155D01*
X0339328Y0483156D01*
X0345326Y0477158D02*
X0346325Y0478157D01*
Y0479157D01*
X0345326D01*
Y0478157D01*
X0346325D01*
X0345326Y0477158D01*
X0344326Y0476158D01*
X0350324Y0483156D02*
X0351324Y0484155D01*
X0353323D01*
X0354323Y0483156D01*
Y0479157D01*
X0353323Y0478157D01*
X0351324D01*
X0350324Y0479157D01*
Y0483156D01*
X0356322D02*
X0357322Y0484155D01*
X0359321D01*
X0360321Y0483156D01*
Y0479157D01*
X0359321Y0478157D01*
X0357322D01*
X0356322Y0479157D01*
Y0483156D01*
X0496726Y0285192D02*
X0495727Y0286192D01*
Y0288191D01*
X0496726Y0289191D01*
X0497726D01*
X0498726Y0288191D01*
X0499725Y0289191D01*
X0500725D01*
X0501725Y0288191D01*
Y0286192D01*
X0500725Y0285192D01*
X0499725D01*
X0498726Y0286192D01*
X0497726Y0285192D01*
X0496726D01*
X0498726Y0286192D02*
Y0288191D01*
X0501725Y0295189D02*
Y0291190D01*
X0497726Y0295189D01*
X0496726D01*
X0495727Y0294189D01*
Y0292190D01*
X0496726Y0291190D01*
X0502725Y0298188D02*
X0501725Y0299187D01*
X0500725D01*
Y0298188D01*
X0501725D01*
Y0299187D01*
X0502725Y0298188D01*
X0503724Y0297188D01*
X0496726Y0303186D02*
X0495727Y0304186D01*
Y0306185D01*
X0496726Y0307185D01*
X0500725D01*
X0501725Y0306185D01*
Y0304186D01*
X0500725Y0303186D01*
X0496726D01*
Y0309184D02*
X0495727Y0310184D01*
Y0312183D01*
X0496726Y0313183D01*
X0500725D01*
X0501725Y0312183D01*
Y0310184D01*
X0500725Y0309184D01*
X0496726D01*
X0421187Y0478157D02*
X0417188D01*
X0421187Y0482156D01*
Y0483156D01*
X0420187Y0484155D01*
X0418188D01*
X0417188Y0483156D01*
X0423186Y0478157D02*
X0425185D01*
X0424186D01*
Y0484155D01*
X0423186Y0483156D01*
X0429184Y0477158D02*
X0430184Y0478157D01*
Y0479157D01*
X0429184D01*
Y0478157D01*
X0430184D01*
X0429184Y0477158D01*
X0428184Y0476158D01*
X0434182Y0483156D02*
X0435182Y0484155D01*
X0437182D01*
X0438181Y0483156D01*
Y0479157D01*
X0437182Y0478157D01*
X0435182D01*
X0434182Y0479157D01*
Y0483156D01*
X0440180D02*
X0441180Y0484155D01*
X0443180D01*
X0444179Y0483156D01*
Y0479157D01*
X0443180Y0478157D01*
X0441180D01*
X0440180Y0479157D01*
Y0483156D01*
X0580585Y0285192D02*
X0579585Y0286192D01*
Y0288191D01*
X0580585Y0289191D01*
X0581584D01*
X0582584Y0288191D01*
X0583584Y0289191D01*
X0584583D01*
X0585583Y0288191D01*
Y0286192D01*
X0584583Y0285192D01*
X0583584D01*
X0582584Y0286192D01*
X0581584Y0285192D01*
X0580585D01*
X0582584Y0286192D02*
Y0288191D01*
X0585583Y0295189D02*
Y0291190D01*
X0581584Y0295189D01*
X0580585D01*
X0579585Y0294189D01*
Y0292190D01*
X0580585Y0291190D01*
X0586583Y0298188D02*
X0585583Y0299187D01*
X0584583D01*
Y0298188D01*
X0585583D01*
Y0299187D01*
X0586583Y0298188D01*
X0587582Y0297188D01*
X0580585Y0303186D02*
X0579585Y0304186D01*
Y0306185D01*
X0580585Y0307185D01*
X0584583D01*
X0585583Y0306185D01*
Y0304186D01*
X0584583Y0303186D01*
X0580585D01*
Y0309184D02*
X0579585Y0310184D01*
Y0312183D01*
X0580585Y0313183D01*
X0584583D01*
X0585583Y0312183D01*
Y0310184D01*
X0584583Y0309184D01*
X0580585D01*
X0505045Y0478157D02*
X0501046D01*
X0505045Y0482156D01*
Y0483156D01*
X0504045Y0484155D01*
X0502046D01*
X0501046Y0483156D01*
X0507044Y0478157D02*
X0509044D01*
X0508044D01*
Y0484155D01*
X0507044Y0483156D01*
X0513042Y0477158D02*
X0514042Y0478157D01*
Y0479157D01*
X0513042D01*
Y0478157D01*
X0514042D01*
X0513042Y0477158D01*
X0512043Y0476158D01*
X0518041Y0483156D02*
X0519040Y0484155D01*
X0521040D01*
X0522040Y0483156D01*
Y0479157D01*
X0521040Y0478157D01*
X0519040D01*
X0518041Y0479157D01*
Y0483156D01*
X0524039D02*
X0525038Y0484155D01*
X0527038D01*
X0528038Y0483156D01*
Y0479157D01*
X0527038Y0478157D01*
X0525038D01*
X0524039Y0479157D01*
Y0483156D01*
D143*
X0179631Y0430591D02*
G03*
X0179631Y0430591I-0001245J0000000D01*
G01*
X0263489D02*
G03*
X0263489Y0430591I-0001245J0000000D01*
G01*
X0347347D02*
G03*
X0347347Y0430591I-0001245J0000000D01*
G01*
X0431206D02*
G03*
X0431206Y0430591I-0001245J0000000D01*
G01*
X0515064D02*
G03*
X0515064Y0430591I-0001245J0000000D01*
G01*
D144*
X0193445Y0438169D02*
Y0439744D01*
X0194232Y0440531D01*
X0195019Y0439744D01*
Y0438169D01*
Y0439350D01*
X0193445D01*
X0197381Y0438169D02*
X0195806D01*
X0197381Y0439744D01*
Y0440137D01*
X0196987Y0440531D01*
X0196200D01*
X0195806Y0440137D01*
X0277303Y0438169D02*
Y0439744D01*
X0278090Y0440531D01*
X0278877Y0439744D01*
Y0438169D01*
Y0439350D01*
X0277303D01*
X0281239Y0438169D02*
X0279665D01*
X0281239Y0439744D01*
Y0440137D01*
X0280845Y0440531D01*
X0280058D01*
X0279665Y0440137D01*
X0361161Y0438169D02*
Y0439744D01*
X0361949Y0440531D01*
X0362736Y0439744D01*
Y0438169D01*
Y0439350D01*
X0361161D01*
X0365097Y0438169D02*
X0363523D01*
X0365097Y0439744D01*
Y0440137D01*
X0364704Y0440531D01*
X0363916D01*
X0363523Y0440137D01*
X0445020Y0438169D02*
Y0439744D01*
X0445807Y0440531D01*
X0446594Y0439744D01*
Y0438169D01*
Y0439350D01*
X0445020D01*
X0448956Y0438169D02*
X0447381D01*
X0448956Y0439744D01*
Y0440137D01*
X0448562Y0440531D01*
X0447775D01*
X0447381Y0440137D01*
X0528878Y0438169D02*
Y0439744D01*
X0529665Y0440531D01*
X0530452Y0439744D01*
Y0438169D01*
Y0439350D01*
X0528878D01*
X0532814Y0438169D02*
X0531240D01*
X0532814Y0439744D01*
Y0440137D01*
X0532420Y0440531D01*
X0531633D01*
X0531240Y0440137D01*
M02*
