G04*
G04 #@! TF.GenerationSoftware,Altium Limited,Altium Designer,19.1.8 (144)*
G04*
G04 Layer_Color=16711935*
%FSAX25Y25*%
%MOIN*%
G70*
G01*
G75*
%ADD14C,0.00787*%
%ADD145C,0.00787*%
G36*
X0100787Y0502756D02*
D01*
D02*
G37*
D14*
X0104252D02*
X0596063D01*
X0596063Y0099606D01*
X0099606D02*
X0596063D01*
X0099606D02*
Y0502756D01*
X0100787D01*
X0104252D01*
X0222441Y0462205D02*
G03*
X0222047Y0462599I-0000394J0000000D01*
G01*
X0222441Y0462205D02*
G03*
X0222047Y0462599I-0000394J0000000D01*
G01*
X0222441Y0142871D02*
G03*
X0222441Y0142874I-0000394J0000003D01*
G01*
X0222441Y0142871D02*
G03*
X0222441Y0142874I-0003898J0000003D01*
G01*
X0141772Y0462599D02*
G03*
X0141768Y0462599I0000000J-0000394D01*
G01*
X0141772D02*
G03*
X0141768Y0462599I-0000000J-0002795D01*
G01*
X0138976Y0142874D02*
G03*
X0138976Y0142871I0003898J-0000000D01*
G01*
X0138976Y0142874D02*
G03*
X0138976Y0142871I0000394J0000000D01*
G01*
X0142874Y0138976D02*
X0222441D01*
Y0142087D01*
X0222441Y0462205D01*
X0142874Y0138976D02*
X0142874D01*
X0138976D02*
X0142874D01*
X0138976Y0462599D02*
X0222047Y0462599D01*
X0138976Y0459803D02*
Y0462599D01*
Y0459803D02*
X0138976Y0138976D01*
X0306299Y0462205D02*
G03*
X0305906Y0462599I-0000394J0000000D01*
G01*
X0306299Y0462205D02*
G03*
X0305906Y0462599I-0000394J0000000D01*
G01*
X0306299Y0142871D02*
G03*
X0306299Y0142874I-0000394J0000003D01*
G01*
X0306299Y0142871D02*
G03*
X0306299Y0142874I-0003898J0000003D01*
G01*
X0225630Y0462599D02*
G03*
X0225626Y0462599I0000000J-0000394D01*
G01*
X0225630D02*
G03*
X0225626Y0462599I-0000000J-0002795D01*
G01*
X0222835Y0142874D02*
G03*
X0222835Y0142871I0003898J-0000000D01*
G01*
X0222835Y0142874D02*
G03*
X0222835Y0142871I0000394J0000000D01*
G01*
X0226732Y0138976D02*
X0306299D01*
Y0142087D01*
X0306299Y0462205D01*
X0226732Y0138976D02*
X0226732D01*
X0222835D02*
X0226732D01*
X0222835Y0462599D02*
X0305906Y0462599D01*
X0222835Y0459803D02*
Y0462599D01*
Y0459803D02*
X0222835Y0138976D01*
X0390158Y0462205D02*
G03*
X0389764Y0462599I-0000394J0000000D01*
G01*
X0390158Y0462205D02*
G03*
X0389764Y0462599I-0000394J0000000D01*
G01*
X0390158Y0142871D02*
G03*
X0390158Y0142874I-0000394J0000003D01*
G01*
X0390158Y0142871D02*
G03*
X0390158Y0142874I-0003898J0000003D01*
G01*
X0309488Y0462599D02*
G03*
X0309484Y0462599I0000000J-0000394D01*
G01*
X0309488D02*
G03*
X0309484Y0462599I-0000000J-0002795D01*
G01*
X0306693Y0142874D02*
G03*
X0306693Y0142871I0003898J-0000000D01*
G01*
X0306693Y0142874D02*
G03*
X0306693Y0142871I0000394J0000000D01*
G01*
X0310591Y0138976D02*
X0390158D01*
Y0142087D01*
X0390158Y0462205D01*
X0310591Y0138976D02*
X0310591D01*
X0306693D02*
X0310591D01*
X0306693Y0462599D02*
X0389764Y0462599D01*
X0306693Y0459803D02*
Y0462599D01*
Y0459803D02*
X0306693Y0138976D01*
X0474016Y0462205D02*
G03*
X0473622Y0462599I-0000394J0000000D01*
G01*
X0474016Y0462205D02*
G03*
X0473622Y0462599I-0000394J0000000D01*
G01*
X0474016Y0142871D02*
G03*
X0474016Y0142874I-0000394J0000003D01*
G01*
X0474016Y0142871D02*
G03*
X0474016Y0142874I-0003898J0000003D01*
G01*
X0393347Y0462599D02*
G03*
X0393342Y0462599I0000000J-0000394D01*
G01*
X0393347D02*
G03*
X0393342Y0462599I-0000000J-0002795D01*
G01*
X0390551Y0142874D02*
G03*
X0390551Y0142871I0003898J-0000000D01*
G01*
X0390551Y0142874D02*
G03*
X0390551Y0142871I0000394J0000000D01*
G01*
X0394449Y0138976D02*
X0474016D01*
Y0142087D01*
X0474016Y0462205D01*
X0394449Y0138976D02*
X0394449D01*
X0390551D02*
X0394449D01*
X0390551Y0462599D02*
X0473622Y0462599D01*
X0390551Y0459803D02*
Y0462599D01*
Y0459803D02*
X0390551Y0138976D01*
X0557874Y0462205D02*
G03*
X0557480Y0462599I-0000394J0000000D01*
G01*
X0557874Y0462205D02*
G03*
X0557480Y0462599I-0000394J0000000D01*
G01*
X0557874Y0142871D02*
G03*
X0557874Y0142874I-0000394J0000003D01*
G01*
X0557874Y0142871D02*
G03*
X0557874Y0142874I-0003898J0000003D01*
G01*
X0477205Y0462599D02*
G03*
X0477201Y0462599I0000000J-0000394D01*
G01*
X0477205D02*
G03*
X0477201Y0462599I-0000000J-0002795D01*
G01*
X0474409Y0142874D02*
G03*
X0474409Y0142871I0003898J-0000000D01*
G01*
X0474409Y0142874D02*
G03*
X0474409Y0142871I0000394J0000000D01*
G01*
X0478307Y0138976D02*
X0557874D01*
Y0142087D01*
X0557874Y0462205D01*
X0478307Y0138976D02*
X0478307D01*
X0474409D02*
X0478307D01*
X0474409Y0462599D02*
X0557480Y0462599D01*
X0474409Y0459803D02*
Y0462599D01*
Y0459803D02*
X0474409Y0138976D01*
D145*
X0222441Y0142874D02*
D03*
X0138976Y0142874D02*
D03*
X0306299Y0142874D02*
D03*
X0222835Y0142874D02*
D03*
X0390158Y0142874D02*
D03*
X0306693Y0142874D02*
D03*
X0474016Y0142874D02*
D03*
X0390551Y0142874D02*
D03*
X0557874Y0142874D02*
D03*
X0474409Y0142874D02*
D03*
M02*
