G04*
G04 #@! TF.GenerationSoftware,Altium Limited,Altium Designer,20.0.13 (296)*
G04*
G04 Layer_Color=8388736*
%FSAX25Y25*%
%MOIN*%
G70*
G01*
G75*
%ADD10C,0.03937*%
%ADD15C,0.04724*%
%ADD18C,0.03937*%
%ADD80C,0.11811*%
%ADD81C,0.33084*%
%ADD82R,0.08674X0.06706*%
%ADD83C,0.03910*%
%ADD84C,0.04737*%
%ADD85C,0.06706*%
%ADD86C,0.20485*%
%ADD87C,0.04343*%
%ADD88C,0.02769*%
D10*
X0066300Y0223464D02*
D03*
X0168662D02*
D03*
X0271024D02*
D03*
X0373387D02*
D03*
X0475749D02*
D03*
D15*
X0055906Y0081338D02*
D03*
X0059843Y0101416D02*
D03*
X0080867Y0136495D02*
D03*
X0085906Y0143621D02*
D03*
X0158269Y0081338D02*
D03*
X0162206Y0101416D02*
D03*
X0183229Y0136495D02*
D03*
X0188269Y0143621D02*
D03*
X0260631Y0081338D02*
D03*
X0264568Y0101416D02*
D03*
X0285591Y0136495D02*
D03*
X0290631Y0143621D02*
D03*
X0362993Y0081338D02*
D03*
X0366930Y0101416D02*
D03*
X0387954Y0136495D02*
D03*
X0392993Y0143621D02*
D03*
X0465355Y0081338D02*
D03*
X0469292Y0101416D02*
D03*
X0490316Y0136495D02*
D03*
X0495355Y0143621D02*
D03*
D18*
X0051194Y0181980D02*
G03*
X0049816Y0178653I0003327J-0003327D01*
G01*
X0059497Y0190282D02*
G03*
X0063032Y0198818I-0008535J0008535D01*
G01*
X0064332Y0208464D02*
G03*
X0063032Y0205327I0003137J-0003137D01*
G01*
X0064332Y0208464D02*
G03*
X0066143Y0212836I-0004372J0004372D01*
G01*
Y0213230D02*
G03*
X0063914Y0218611I-0007609J0000000D01*
G01*
X0079594Y0230577D02*
G03*
X0077206Y0224810I0005767J-0005767D01*
G01*
X0084224Y0233424D02*
G03*
X0081182Y0232165I0000000J-0004301D01*
G01*
X0107284Y0228424D02*
G03*
X0102284Y0233424I-0005000J0000000D01*
G01*
X0107284Y0228221D02*
G03*
X0108505Y0225275I0004167J0000000D01*
G01*
X0109647Y0222518D02*
G03*
X0108505Y0225275I-0003898J0000000D01*
G01*
X0103375Y0180803D02*
G03*
X0106910Y0189339I-0008535J0008535D01*
G01*
X0061300Y0217873D02*
G03*
X0066300Y0222873I0000000J0005000D01*
G01*
X0049816Y0172480D02*
G03*
X0054816Y0167481I0005000J0000000D01*
G01*
X0049816Y0172480D02*
Y0178653D01*
X0051194Y0181980D02*
X0059497Y0190282D01*
X0063032Y0198818D02*
Y0205327D01*
X0066143Y0212836D02*
Y0213230D01*
X0077206Y0221928D02*
Y0224810D01*
X0079594Y0230577D02*
X0081182Y0232165D01*
X0084224Y0233424D02*
X0102284D01*
X0107284Y0228221D02*
Y0228424D01*
X0109647Y0219960D02*
Y0222518D01*
X0106910Y0189339D02*
Y0197794D01*
X0090052Y0167481D02*
X0103375Y0180803D01*
X0066300Y0222873D02*
Y0223464D01*
X0049816Y0217873D02*
X0061300D01*
X0054816Y0167481D02*
X0090052D01*
X0153556Y0181980D02*
G03*
X0152178Y0178653I0003327J-0003327D01*
G01*
X0161859Y0190282D02*
G03*
X0165395Y0198818I-0008535J0008535D01*
G01*
X0166694Y0208464D02*
G03*
X0165395Y0205327I0003137J-0003137D01*
G01*
X0166694Y0208464D02*
G03*
X0168505Y0212836I-0004372J0004372D01*
G01*
Y0213230D02*
G03*
X0166276Y0218611I-0007609J0000000D01*
G01*
X0181957Y0230577D02*
G03*
X0179568Y0224810I0005767J-0005767D01*
G01*
X0186586Y0233424D02*
G03*
X0183544Y0232165I0000000J-0004301D01*
G01*
X0209647Y0228424D02*
G03*
X0204647Y0233424I-0005000J0000000D01*
G01*
X0209647Y0228221D02*
G03*
X0210867Y0225275I0004167J0000000D01*
G01*
X0212009Y0222518D02*
G03*
X0210867Y0225275I-0003898J0000000D01*
G01*
X0205737Y0180803D02*
G03*
X0209273Y0189339I-0008535J0008535D01*
G01*
X0163662Y0217873D02*
G03*
X0168662Y0222873I0000000J0005000D01*
G01*
X0152178Y0172480D02*
G03*
X0157178Y0167481I0005000J0000000D01*
G01*
X0152178Y0172480D02*
Y0178653D01*
X0153556Y0181980D02*
X0161859Y0190282D01*
X0165395Y0198818D02*
Y0205327D01*
X0168505Y0212836D02*
Y0213230D01*
X0179568Y0221928D02*
Y0224810D01*
X0181957Y0230577D02*
X0183544Y0232165D01*
X0186586Y0233424D02*
X0204647D01*
X0209647Y0228221D02*
Y0228424D01*
X0212009Y0219960D02*
Y0222518D01*
X0209273Y0189339D02*
Y0197794D01*
X0192414Y0167481D02*
X0205737Y0180803D01*
X0168662Y0222873D02*
Y0223464D01*
X0152178Y0217873D02*
X0163662D01*
X0157178Y0167481D02*
X0192414D01*
X0255918Y0181980D02*
G03*
X0254540Y0178653I0003327J-0003327D01*
G01*
X0264221Y0190282D02*
G03*
X0267757Y0198818I-0008535J0008535D01*
G01*
X0269056Y0208464D02*
G03*
X0267757Y0205327I0003137J-0003137D01*
G01*
X0269056Y0208464D02*
G03*
X0270867Y0212836I-0004372J0004372D01*
G01*
Y0213230D02*
G03*
X0268638Y0218611I-0007609J0000000D01*
G01*
X0284319Y0230577D02*
G03*
X0281930Y0224810I0005767J-0005767D01*
G01*
X0288948Y0233424D02*
G03*
X0285906Y0232165I0000000J-0004301D01*
G01*
X0312009Y0228424D02*
G03*
X0307009Y0233424I-0005000J0000000D01*
G01*
X0312009Y0228221D02*
G03*
X0313229Y0225275I0004167J0000000D01*
G01*
X0314371Y0222518D02*
G03*
X0313229Y0225275I-0003898J0000000D01*
G01*
X0308099Y0180803D02*
G03*
X0311635Y0189339I-0008535J0008535D01*
G01*
X0266024Y0217873D02*
G03*
X0271024Y0222873I0000000J0005000D01*
G01*
X0254540Y0172480D02*
G03*
X0259540Y0167481I0005000J0000000D01*
G01*
X0254540Y0172480D02*
Y0178653D01*
X0255918Y0181980D02*
X0264221Y0190282D01*
X0267757Y0198818D02*
Y0205327D01*
X0270867Y0212836D02*
Y0213230D01*
X0281930Y0221928D02*
Y0224810D01*
X0284319Y0230577D02*
X0285906Y0232165D01*
X0288948Y0233424D02*
X0307009D01*
X0312009Y0228221D02*
Y0228424D01*
X0314371Y0219960D02*
Y0222518D01*
X0311635Y0189339D02*
Y0197794D01*
X0294776Y0167481D02*
X0308099Y0180803D01*
X0271024Y0222873D02*
Y0223464D01*
X0254540Y0217873D02*
X0266024D01*
X0259540Y0167481D02*
X0294776D01*
X0358281Y0181980D02*
G03*
X0356902Y0178653I0003327J-0003327D01*
G01*
X0366583Y0190282D02*
G03*
X0370119Y0198818I-0008535J0008535D01*
G01*
X0371418Y0208464D02*
G03*
X0370119Y0205327I0003137J-0003137D01*
G01*
X0371418Y0208464D02*
G03*
X0373229Y0212836I-0004372J0004372D01*
G01*
Y0213230D02*
G03*
X0371001Y0218611I-0007609J0000000D01*
G01*
X0386681Y0230577D02*
G03*
X0384292Y0224810I0005767J-0005767D01*
G01*
X0391310Y0233424D02*
G03*
X0388269Y0232165I0000000J-0004301D01*
G01*
X0414371Y0228424D02*
G03*
X0409371Y0233424I-0005000J0000000D01*
G01*
X0414371Y0228221D02*
G03*
X0415591Y0225275I0004167J0000000D01*
G01*
X0416733Y0222518D02*
G03*
X0415591Y0225275I-0003898J0000000D01*
G01*
X0410461Y0180803D02*
G03*
X0413997Y0189339I-0008535J0008535D01*
G01*
X0368387Y0217873D02*
G03*
X0373387Y0222873I0000000J0005000D01*
G01*
X0356902Y0172480D02*
G03*
X0361902Y0167481I0005000J0000000D01*
G01*
X0356902Y0172480D02*
Y0178653D01*
X0358281Y0181980D02*
X0366583Y0190282D01*
X0370119Y0198818D02*
Y0205327D01*
X0373229Y0212836D02*
Y0213230D01*
X0384292Y0221928D02*
Y0224810D01*
X0386681Y0230577D02*
X0388269Y0232165D01*
X0391310Y0233424D02*
X0409371D01*
X0414371Y0228221D02*
Y0228424D01*
X0416733Y0219960D02*
Y0222518D01*
X0413997Y0189339D02*
Y0197794D01*
X0397139Y0167481D02*
X0410461Y0180803D01*
X0373387Y0222873D02*
Y0223464D01*
X0356902Y0217873D02*
X0368387D01*
X0361902Y0167481D02*
X0397139D01*
X0460643Y0181980D02*
G03*
X0459265Y0178653I0003327J-0003327D01*
G01*
X0468946Y0190282D02*
G03*
X0472481Y0198818I-0008535J0008535D01*
G01*
X0473780Y0208464D02*
G03*
X0472481Y0205327I0003137J-0003137D01*
G01*
X0473780Y0208464D02*
G03*
X0475591Y0212836I-0004372J0004372D01*
G01*
Y0213230D02*
G03*
X0473363Y0218611I-0007609J0000000D01*
G01*
X0489043Y0230577D02*
G03*
X0486654Y0224810I0005767J-0005767D01*
G01*
X0493672Y0233424D02*
G03*
X0490631Y0232165I0000000J-0004301D01*
G01*
X0516733Y0228424D02*
G03*
X0511733Y0233424I-0005000J0000000D01*
G01*
X0516733Y0228221D02*
G03*
X0517954Y0225275I0004167J0000000D01*
G01*
X0519095Y0222518D02*
G03*
X0517954Y0225275I-0003898J0000000D01*
G01*
X0512824Y0180803D02*
G03*
X0516359Y0189339I-0008535J0008535D01*
G01*
X0470749Y0217873D02*
G03*
X0475749Y0222873I0000000J0005000D01*
G01*
X0459265Y0172480D02*
G03*
X0464265Y0167481I0005000J0000000D01*
G01*
X0459265Y0172480D02*
Y0178653D01*
X0460643Y0181980D02*
X0468946Y0190282D01*
X0472481Y0198818D02*
Y0205327D01*
X0475591Y0212836D02*
Y0213230D01*
X0486654Y0221928D02*
Y0224810D01*
X0489043Y0230577D02*
X0490631Y0232165D01*
X0493672Y0233424D02*
X0511733D01*
X0516733Y0228221D02*
Y0228424D01*
X0519095Y0219960D02*
Y0222518D01*
X0516359Y0189339D02*
Y0197794D01*
X0499501Y0167481D02*
X0512824Y0180803D01*
X0475749Y0222873D02*
Y0223464D01*
X0459265Y0217873D02*
X0470749D01*
X0464265Y0167481D02*
X0499501D01*
D80*
X0047244Y0382323D02*
D03*
X0525669Y0019331D02*
D03*
X0524016Y0382323D02*
D03*
X0047244Y0020394D02*
D03*
D81*
X0062993Y0058897D02*
D03*
X0105513D02*
D03*
X0165355D02*
D03*
X0207875D02*
D03*
X0267717D02*
D03*
X0310237D02*
D03*
X0370080D02*
D03*
X0412599D02*
D03*
X0472442D02*
D03*
X0514961D02*
D03*
D82*
X0124578Y0143209D02*
D03*
Y0158957D02*
D03*
X0121417Y0305118D02*
D03*
X0124578Y0151083D02*
D03*
Y0127461D02*
D03*
Y0135335D02*
D03*
X0121417Y0281496D02*
D03*
Y0265748D02*
D03*
Y0273622D02*
D03*
Y0289370D02*
D03*
Y0297244D02*
D03*
X0226940Y0143209D02*
D03*
Y0158957D02*
D03*
X0223780Y0305118D02*
D03*
X0226940Y0151083D02*
D03*
Y0127461D02*
D03*
Y0135335D02*
D03*
X0223780Y0281496D02*
D03*
Y0265748D02*
D03*
Y0273622D02*
D03*
Y0289370D02*
D03*
Y0297244D02*
D03*
X0329303Y0143209D02*
D03*
Y0158957D02*
D03*
X0326142Y0305118D02*
D03*
X0329303Y0151083D02*
D03*
Y0127461D02*
D03*
Y0135335D02*
D03*
X0326142Y0281496D02*
D03*
Y0265748D02*
D03*
Y0273622D02*
D03*
Y0289370D02*
D03*
Y0297244D02*
D03*
X0431665Y0143209D02*
D03*
Y0158957D02*
D03*
X0428504Y0305118D02*
D03*
X0431665Y0151083D02*
D03*
Y0127461D02*
D03*
Y0135335D02*
D03*
X0428504Y0281496D02*
D03*
Y0265748D02*
D03*
Y0273622D02*
D03*
Y0289370D02*
D03*
Y0297244D02*
D03*
X0534027Y0143209D02*
D03*
Y0158957D02*
D03*
X0530866Y0305118D02*
D03*
X0534027Y0151083D02*
D03*
Y0127461D02*
D03*
Y0135335D02*
D03*
X0530866Y0281496D02*
D03*
Y0265748D02*
D03*
Y0273622D02*
D03*
Y0289370D02*
D03*
Y0297244D02*
D03*
D83*
X0044981Y0134999D02*
D03*
X0049981D02*
D03*
X0044981Y0129999D02*
D03*
X0049981D02*
D03*
X0044981Y0124999D02*
D03*
X0049981D02*
D03*
X0147343Y0134999D02*
D03*
X0152343D02*
D03*
X0147343Y0129999D02*
D03*
X0152343D02*
D03*
X0147343Y0124999D02*
D03*
X0152343D02*
D03*
X0249706Y0134999D02*
D03*
X0254706D02*
D03*
X0249706Y0129999D02*
D03*
X0254706D02*
D03*
X0249706Y0124999D02*
D03*
X0254706D02*
D03*
X0352068Y0134999D02*
D03*
X0357068D02*
D03*
X0352068Y0129999D02*
D03*
X0357068D02*
D03*
X0352068Y0124999D02*
D03*
X0357068D02*
D03*
X0454430Y0134999D02*
D03*
X0459430D02*
D03*
X0454430Y0129999D02*
D03*
X0459430D02*
D03*
X0454430Y0124999D02*
D03*
X0459430D02*
D03*
D84*
X0020276Y0020394D02*
D03*
X0551417Y0019921D02*
D03*
X0552520Y0382874D02*
D03*
X0020118Y0382323D02*
D03*
X0095000Y0323071D02*
D03*
X0197362D02*
D03*
X0299724D02*
D03*
X0402087D02*
D03*
X0504449D02*
D03*
D85*
X0083741Y0159999D02*
D03*
X0073899D02*
D03*
X0186103D02*
D03*
X0176261D02*
D03*
X0288465D02*
D03*
X0278623D02*
D03*
X0390828D02*
D03*
X0380985D02*
D03*
X0493190D02*
D03*
X0483347D02*
D03*
D86*
X0055198Y0344684D02*
D03*
Y0151849D02*
D03*
X0157560Y0344684D02*
D03*
Y0151849D02*
D03*
X0259922Y0344684D02*
D03*
Y0151849D02*
D03*
X0362284Y0344684D02*
D03*
Y0151849D02*
D03*
X0464646Y0344684D02*
D03*
Y0151849D02*
D03*
D87*
X0047481Y0139999D02*
D03*
X0051481Y0119999D02*
D03*
X0043481D02*
D03*
X0149843Y0139999D02*
D03*
X0153843Y0119999D02*
D03*
X0145843D02*
D03*
X0252206Y0139999D02*
D03*
X0256206Y0119999D02*
D03*
X0248206D02*
D03*
X0354568Y0139999D02*
D03*
X0358568Y0119999D02*
D03*
X0350568D02*
D03*
X0456930Y0139999D02*
D03*
X0460930Y0119999D02*
D03*
X0452930D02*
D03*
D88*
X0086751Y0204422D02*
D03*
X0189113D02*
D03*
X0291475D02*
D03*
X0393837D02*
D03*
X0496199D02*
D03*
M02*
