G04*
G04 #@! TF.GenerationSoftware,Altium Limited,Altium Designer,19.1.8 (144)*
G04*
G04 Layer_Color=8388736*
%FSAX25Y25*%
%MOIN*%
G70*
G01*
G75*
%ADD10C,0.04724*%
%ADD19C,0.03937*%
%ADD76R,0.08674X0.06706*%
%ADD77C,0.33084*%
%ADD78C,0.04737*%
%ADD79C,0.02769*%
D10*
X0101509Y0122323D02*
D03*
X0093425Y0158504D02*
D03*
X0053268Y0146063D02*
D03*
X0053347Y0159567D02*
D03*
X0185367Y0122323D02*
D03*
X0177284Y0158504D02*
D03*
X0137126Y0146063D02*
D03*
X0137205Y0159567D02*
D03*
X0269226Y0122323D02*
D03*
X0261142Y0158504D02*
D03*
X0220984Y0146063D02*
D03*
X0221063Y0159567D02*
D03*
X0353084Y0122323D02*
D03*
X0345000Y0158504D02*
D03*
X0304843Y0146063D02*
D03*
X0304922Y0159567D02*
D03*
X0436942Y0122323D02*
D03*
X0428859Y0158504D02*
D03*
X0388701Y0146063D02*
D03*
X0388780Y0159567D02*
D03*
D19*
X0098829Y0161929D02*
X0105354D01*
X0079252D02*
X0087992D01*
X0058465Y0162047D02*
X0068670D01*
X0042047Y0160560D02*
Y0238032D01*
X0089055Y0238622D02*
X0105630D01*
X0182687Y0161929D02*
X0189213D01*
X0163110D02*
X0171851D01*
X0142323Y0162047D02*
X0152529D01*
X0125906Y0160560D02*
Y0238032D01*
X0172914Y0238622D02*
X0189488D01*
X0266545Y0161929D02*
X0273071D01*
X0246969D02*
X0255709D01*
X0226181Y0162047D02*
X0236387D01*
X0209764Y0160560D02*
Y0238032D01*
X0256772Y0238622D02*
X0273347D01*
X0350404Y0161929D02*
X0356929D01*
X0330827D02*
X0339567D01*
X0310040Y0162047D02*
X0320245D01*
X0293622Y0160560D02*
Y0238032D01*
X0340630Y0238622D02*
X0357205D01*
X0434262Y0161929D02*
X0440788D01*
X0414685D02*
X0423425D01*
X0393898Y0162047D02*
X0404104D01*
X0377481Y0160560D02*
Y0238032D01*
X0424488Y0238622D02*
X0441063D01*
D76*
X0117492Y0158957D02*
D03*
Y0151083D02*
D03*
Y0143209D02*
D03*
Y0127461D02*
D03*
Y0135335D02*
D03*
X0117559Y0281496D02*
D03*
Y0265748D02*
D03*
Y0273622D02*
D03*
Y0289370D02*
D03*
Y0297244D02*
D03*
Y0305118D02*
D03*
X0201350Y0158957D02*
D03*
Y0151083D02*
D03*
Y0143209D02*
D03*
Y0127461D02*
D03*
Y0135335D02*
D03*
X0201417Y0281496D02*
D03*
Y0265748D02*
D03*
Y0273622D02*
D03*
Y0289370D02*
D03*
Y0297244D02*
D03*
Y0305118D02*
D03*
X0285208Y0158957D02*
D03*
Y0151083D02*
D03*
Y0143209D02*
D03*
Y0127461D02*
D03*
Y0135335D02*
D03*
X0285276Y0281496D02*
D03*
Y0265748D02*
D03*
Y0273622D02*
D03*
Y0289370D02*
D03*
Y0297244D02*
D03*
Y0305118D02*
D03*
X0369067Y0158957D02*
D03*
Y0151083D02*
D03*
Y0143209D02*
D03*
Y0127461D02*
D03*
Y0135335D02*
D03*
X0369134Y0281496D02*
D03*
Y0265748D02*
D03*
Y0273622D02*
D03*
Y0289370D02*
D03*
Y0297244D02*
D03*
Y0305118D02*
D03*
X0452925Y0158957D02*
D03*
Y0151083D02*
D03*
Y0143209D02*
D03*
Y0127461D02*
D03*
Y0135335D02*
D03*
X0452992Y0281496D02*
D03*
Y0265748D02*
D03*
Y0273622D02*
D03*
Y0289370D02*
D03*
Y0297244D02*
D03*
Y0305118D02*
D03*
D77*
X0103150Y0058465D02*
D03*
X0059055D02*
D03*
X0187008D02*
D03*
X0142913D02*
D03*
X0270866D02*
D03*
X0226772D02*
D03*
X0354725D02*
D03*
X0310630D02*
D03*
X0438583D02*
D03*
X0394488D02*
D03*
D78*
X0020276Y0020394D02*
D03*
X0475984D02*
D03*
X0476299Y0382835D02*
D03*
X0020118Y0382323D02*
D03*
D79*
X0084782Y0204422D02*
D03*
X0168641D02*
D03*
X0252499D02*
D03*
X0336357D02*
D03*
X0420216D02*
D03*
M02*
