G04*
G04 #@! TF.GenerationSoftware,Altium Limited,Altium Designer,19.1.8 (144)*
G04*
G04 Layer_Color=16711935*
%FSAX25Y25*%
%MOIN*%
G70*
G01*
G75*
%ADD14C,0.01181*%
%ADD143C,0.01000*%
%ADD145C,0.00600*%
D14*
X0088631Y0062951D02*
X0093879D01*
X0091255D01*
Y0055080D01*
X0096503D02*
Y0060327D01*
X0099126Y0062951D01*
X0101750Y0060327D01*
Y0055080D01*
Y0059015D01*
X0096503D01*
X0104374Y0062951D02*
Y0055080D01*
X0108310D01*
X0109622Y0056392D01*
Y0057704D01*
X0108310Y0059015D01*
X0104374D01*
X0108310D01*
X0109622Y0060327D01*
Y0061639D01*
X0108310Y0062951D01*
X0104374D01*
X0112245Y0055080D02*
X0114869D01*
X0113557D01*
Y0062951D01*
X0112245Y0061639D01*
X0045442Y0062085D02*
X0050690D01*
X0048066D01*
Y0054214D01*
X0053313D02*
Y0059461D01*
X0055937Y0062085D01*
X0058561Y0059461D01*
Y0054214D01*
Y0058149D01*
X0053313D01*
X0061185Y0062085D02*
Y0054214D01*
X0065121D01*
X0066433Y0055525D01*
Y0056837D01*
X0065121Y0058149D01*
X0061185D01*
X0065121D01*
X0066433Y0059461D01*
Y0060773D01*
X0065121Y0062085D01*
X0061185D01*
X0069056Y0060773D02*
X0070368Y0062085D01*
X0072992D01*
X0074304Y0060773D01*
Y0059461D01*
X0072992Y0058149D01*
X0071680D01*
X0072992D01*
X0074304Y0056837D01*
Y0055525D01*
X0072992Y0054214D01*
X0070368D01*
X0069056Y0055525D01*
X0172489Y0062951D02*
X0177737D01*
X0175113D01*
Y0055080D01*
X0180361D02*
Y0060327D01*
X0182985Y0062951D01*
X0185608Y0060327D01*
Y0055080D01*
Y0059015D01*
X0180361D01*
X0188232Y0062951D02*
Y0055080D01*
X0192168D01*
X0193480Y0056392D01*
Y0057704D01*
X0192168Y0059015D01*
X0188232D01*
X0192168D01*
X0193480Y0060327D01*
Y0061639D01*
X0192168Y0062951D01*
X0188232D01*
X0196104Y0055080D02*
X0198728D01*
X0197416D01*
Y0062951D01*
X0196104Y0061639D01*
X0129300Y0062085D02*
X0134548D01*
X0131924D01*
Y0054214D01*
X0137172D02*
Y0059461D01*
X0139796Y0062085D01*
X0142419Y0059461D01*
Y0054214D01*
Y0058149D01*
X0137172D01*
X0145043Y0062085D02*
Y0054214D01*
X0148979D01*
X0150291Y0055525D01*
Y0056837D01*
X0148979Y0058149D01*
X0145043D01*
X0148979D01*
X0150291Y0059461D01*
Y0060773D01*
X0148979Y0062085D01*
X0145043D01*
X0152915Y0060773D02*
X0154227Y0062085D01*
X0156851D01*
X0158162Y0060773D01*
Y0059461D01*
X0156851Y0058149D01*
X0155539D01*
X0156851D01*
X0158162Y0056837D01*
Y0055525D01*
X0156851Y0054214D01*
X0154227D01*
X0152915Y0055525D01*
X0256348Y0062951D02*
X0261595D01*
X0258971D01*
Y0055080D01*
X0264219D02*
Y0060327D01*
X0266843Y0062951D01*
X0269467Y0060327D01*
Y0055080D01*
Y0059015D01*
X0264219D01*
X0272091Y0062951D02*
Y0055080D01*
X0276026D01*
X0277338Y0056392D01*
Y0057704D01*
X0276026Y0059015D01*
X0272091D01*
X0276026D01*
X0277338Y0060327D01*
Y0061639D01*
X0276026Y0062951D01*
X0272091D01*
X0279962Y0055080D02*
X0282586D01*
X0281274D01*
Y0062951D01*
X0279962Y0061639D01*
X0213159Y0062085D02*
X0218406D01*
X0215782D01*
Y0054214D01*
X0221030D02*
Y0059461D01*
X0223654Y0062085D01*
X0226278Y0059461D01*
Y0054214D01*
Y0058149D01*
X0221030D01*
X0228902Y0062085D02*
Y0054214D01*
X0232837D01*
X0234149Y0055525D01*
Y0056837D01*
X0232837Y0058149D01*
X0228902D01*
X0232837D01*
X0234149Y0059461D01*
Y0060773D01*
X0232837Y0062085D01*
X0228902D01*
X0236773Y0060773D02*
X0238085Y0062085D01*
X0240709D01*
X0242021Y0060773D01*
Y0059461D01*
X0240709Y0058149D01*
X0239397D01*
X0240709D01*
X0242021Y0056837D01*
Y0055525D01*
X0240709Y0054214D01*
X0238085D01*
X0236773Y0055525D01*
X0340206Y0062951D02*
X0345454D01*
X0342830D01*
Y0055080D01*
X0348077D02*
Y0060327D01*
X0350701Y0062951D01*
X0353325Y0060327D01*
Y0055080D01*
Y0059015D01*
X0348077D01*
X0355949Y0062951D02*
Y0055080D01*
X0359885D01*
X0361196Y0056392D01*
Y0057704D01*
X0359885Y0059015D01*
X0355949D01*
X0359885D01*
X0361196Y0060327D01*
Y0061639D01*
X0359885Y0062951D01*
X0355949D01*
X0363820Y0055080D02*
X0366444D01*
X0365132D01*
Y0062951D01*
X0363820Y0061639D01*
X0297017Y0062085D02*
X0302265D01*
X0299641D01*
Y0054214D01*
X0304888D02*
Y0059461D01*
X0307512Y0062085D01*
X0310136Y0059461D01*
Y0054214D01*
Y0058149D01*
X0304888D01*
X0312760Y0062085D02*
Y0054214D01*
X0316696D01*
X0318007Y0055525D01*
Y0056837D01*
X0316696Y0058149D01*
X0312760D01*
X0316696D01*
X0318007Y0059461D01*
Y0060773D01*
X0316696Y0062085D01*
X0312760D01*
X0320631Y0060773D02*
X0321943Y0062085D01*
X0324567D01*
X0325879Y0060773D01*
Y0059461D01*
X0324567Y0058149D01*
X0323255D01*
X0324567D01*
X0325879Y0056837D01*
Y0055525D01*
X0324567Y0054214D01*
X0321943D01*
X0320631Y0055525D01*
X0424064Y0062951D02*
X0429312D01*
X0426688D01*
Y0055080D01*
X0431936D02*
Y0060327D01*
X0434559Y0062951D01*
X0437183Y0060327D01*
Y0055080D01*
Y0059015D01*
X0431936D01*
X0439807Y0062951D02*
Y0055080D01*
X0443743D01*
X0445055Y0056392D01*
Y0057704D01*
X0443743Y0059015D01*
X0439807D01*
X0443743D01*
X0445055Y0060327D01*
Y0061639D01*
X0443743Y0062951D01*
X0439807D01*
X0447679Y0055080D02*
X0450302D01*
X0448990D01*
Y0062951D01*
X0447679Y0061639D01*
X0380875Y0062085D02*
X0386123D01*
X0383499D01*
Y0054214D01*
X0388747D02*
Y0059461D01*
X0391371Y0062085D01*
X0393994Y0059461D01*
Y0054214D01*
Y0058149D01*
X0388747D01*
X0396618Y0062085D02*
Y0054214D01*
X0400554D01*
X0401866Y0055525D01*
Y0056837D01*
X0400554Y0058149D01*
X0396618D01*
X0400554D01*
X0401866Y0059461D01*
Y0060773D01*
X0400554Y0062085D01*
X0396618D01*
X0404490Y0060773D02*
X0405801Y0062085D01*
X0408425D01*
X0409737Y0060773D01*
Y0059461D01*
X0408425Y0058149D01*
X0407114D01*
X0408425D01*
X0409737Y0056837D01*
Y0055525D01*
X0408425Y0054214D01*
X0405801D01*
X0404490Y0055525D01*
D143*
X0118432Y0058740D02*
G03*
X0118432Y0058740I-0015755J0000000D01*
G01*
X0075243Y0057874D02*
G03*
X0075243Y0057874I-0015755J0000000D01*
G01*
X0145551Y0362047D02*
X0147551Y0356047D01*
X0143551D02*
X0145551Y0362047D01*
X0143551Y0045213D02*
X0145551Y0039213D01*
X0147551Y0045213D01*
X0145551Y0214625D02*
Y0362047D01*
Y0039213D02*
Y0183434D01*
X0122047Y0362047D02*
X0146551D01*
X0123047Y0039213D02*
X0146551D01*
X0039370Y0382598D02*
X0045370Y0384598D01*
X0039370Y0382598D02*
X0045370Y0380598D01*
X0116047D02*
X0122047Y0382598D01*
X0116047Y0384598D02*
X0122047Y0382598D01*
X0039370D02*
X0064013D01*
X0094204D02*
X0122047D01*
X0039370Y0363047D02*
Y0383598D01*
X0122047Y0362047D02*
Y0383598D01*
X0202291Y0058740D02*
G03*
X0202291Y0058740I-0015755J0000000D01*
G01*
X0159101Y0057874D02*
G03*
X0159101Y0057874I-0015755J0000000D01*
G01*
X0229410Y0362047D02*
X0231410Y0356047D01*
X0227410D02*
X0229410Y0362047D01*
X0227410Y0045213D02*
X0229410Y0039213D01*
X0231410Y0045213D01*
X0229410Y0214625D02*
Y0362047D01*
Y0039213D02*
Y0183434D01*
X0205906Y0362047D02*
X0230410D01*
X0206906Y0039213D02*
X0230410D01*
X0123228Y0382598D02*
X0129228Y0384598D01*
X0123228Y0382598D02*
X0129228Y0380598D01*
X0199906D02*
X0205906Y0382598D01*
X0199906Y0384598D02*
X0205906Y0382598D01*
X0123228D02*
X0147871D01*
X0178063D02*
X0205906D01*
X0123228Y0363047D02*
Y0383598D01*
X0205906Y0362047D02*
Y0383598D01*
X0286149Y0058740D02*
G03*
X0286149Y0058740I-0015755J0000000D01*
G01*
X0242960Y0057874D02*
G03*
X0242960Y0057874I-0015755J0000000D01*
G01*
X0313268Y0362047D02*
X0315268Y0356047D01*
X0311268D02*
X0313268Y0362047D01*
X0311268Y0045213D02*
X0313268Y0039213D01*
X0315268Y0045213D01*
X0313268Y0214625D02*
Y0362047D01*
Y0039213D02*
Y0183434D01*
X0289764Y0362047D02*
X0314268D01*
X0290764Y0039213D02*
X0314268D01*
X0207087Y0382598D02*
X0213087Y0384598D01*
X0207087Y0382598D02*
X0213087Y0380598D01*
X0283764D02*
X0289764Y0382598D01*
X0283764Y0384598D02*
X0289764Y0382598D01*
X0207087D02*
X0231730D01*
X0261921D02*
X0289764D01*
X0207087Y0363047D02*
Y0383598D01*
X0289764Y0362047D02*
Y0383598D01*
X0370007Y0058740D02*
G03*
X0370007Y0058740I-0015755J0000000D01*
G01*
X0326818Y0057874D02*
G03*
X0326818Y0057874I-0015755J0000000D01*
G01*
X0397126Y0362047D02*
X0399126Y0356047D01*
X0395126D02*
X0397126Y0362047D01*
X0395126Y0045213D02*
X0397126Y0039213D01*
X0399126Y0045213D01*
X0397126Y0214625D02*
Y0362047D01*
Y0039213D02*
Y0183434D01*
X0373622Y0362047D02*
X0398126D01*
X0374622Y0039213D02*
X0398126D01*
X0290945Y0382598D02*
X0296945Y0384598D01*
X0290945Y0382598D02*
X0296945Y0380598D01*
X0367622D02*
X0373622Y0382598D01*
X0367622Y0384598D02*
X0373622Y0382598D01*
X0290945D02*
X0315588D01*
X0345779D02*
X0373622D01*
X0290945Y0363047D02*
Y0383598D01*
X0373622Y0362047D02*
Y0383598D01*
X0453865Y0058740D02*
G03*
X0453865Y0058740I-0015755J0000000D01*
G01*
X0410676Y0057874D02*
G03*
X0410676Y0057874I-0015755J0000000D01*
G01*
X0480984Y0362047D02*
X0482984Y0356047D01*
X0478984D02*
X0480984Y0362047D01*
X0478984Y0045213D02*
X0480984Y0039213D01*
X0482984Y0045213D01*
X0480984Y0214625D02*
Y0362047D01*
Y0039213D02*
Y0183434D01*
X0457480Y0362047D02*
X0481984D01*
X0458481Y0039213D02*
X0481984D01*
X0374803Y0382598D02*
X0380803Y0384598D01*
X0374803Y0382598D02*
X0380803Y0380598D01*
X0451480D02*
X0457480Y0382598D01*
X0451480Y0384598D02*
X0457480Y0382598D01*
X0374803D02*
X0399446D01*
X0429637D02*
X0457480D01*
X0374803Y0363047D02*
Y0383598D01*
X0457480Y0362047D02*
Y0383598D01*
D145*
X0145151Y0185035D02*
X0144152Y0186034D01*
Y0188033D01*
X0145151Y0189033D01*
X0146151D01*
X0147151Y0188033D01*
X0148151Y0189033D01*
X0149150D01*
X0150150Y0188033D01*
Y0186034D01*
X0149150Y0185035D01*
X0148151D01*
X0147151Y0186034D01*
X0146151Y0185035D01*
X0145151D01*
X0147151Y0186034D02*
Y0188033D01*
X0150150Y0195031D02*
Y0191033D01*
X0146151Y0195031D01*
X0145151D01*
X0144152Y0194032D01*
Y0192032D01*
X0145151Y0191033D01*
X0151150Y0198030D02*
X0150150Y0199030D01*
X0149150D01*
Y0198030D01*
X0150150D01*
Y0199030D01*
X0151150Y0198030D01*
X0152149Y0197031D01*
X0145151Y0203029D02*
X0144152Y0204028D01*
Y0206028D01*
X0145151Y0207027D01*
X0149150D01*
X0150150Y0206028D01*
Y0204028D01*
X0149150Y0203029D01*
X0145151D01*
Y0209027D02*
X0144152Y0210026D01*
Y0212026D01*
X0145151Y0213025D01*
X0149150D01*
X0150150Y0212026D01*
Y0210026D01*
X0149150Y0209027D01*
X0145151D01*
X0069612Y0378000D02*
X0065613D01*
X0069612Y0381998D01*
Y0382998D01*
X0068612Y0383998D01*
X0066613D01*
X0065613Y0382998D01*
X0071611Y0378000D02*
X0073611D01*
X0072611D01*
Y0383998D01*
X0071611Y0382998D01*
X0077609Y0377000D02*
X0078609Y0378000D01*
Y0378999D01*
X0077609D01*
Y0378000D01*
X0078609D01*
X0077609Y0377000D01*
X0076609Y0376000D01*
X0082608Y0382998D02*
X0083607Y0383998D01*
X0085607D01*
X0086606Y0382998D01*
Y0378999D01*
X0085607Y0378000D01*
X0083607D01*
X0082608Y0378999D01*
Y0382998D01*
X0088606D02*
X0089605Y0383998D01*
X0091605D01*
X0092604Y0382998D01*
Y0378999D01*
X0091605Y0378000D01*
X0089605D01*
X0088606Y0378999D01*
Y0382998D01*
X0229010Y0185035D02*
X0228010Y0186034D01*
Y0188033D01*
X0229010Y0189033D01*
X0230010D01*
X0231009Y0188033D01*
X0232009Y0189033D01*
X0233009D01*
X0234008Y0188033D01*
Y0186034D01*
X0233009Y0185035D01*
X0232009D01*
X0231009Y0186034D01*
X0230010Y0185035D01*
X0229010D01*
X0231009Y0186034D02*
Y0188033D01*
X0234008Y0195031D02*
Y0191033D01*
X0230010Y0195031D01*
X0229010D01*
X0228010Y0194032D01*
Y0192032D01*
X0229010Y0191033D01*
X0235008Y0198030D02*
X0234008Y0199030D01*
X0233009D01*
Y0198030D01*
X0234008D01*
Y0199030D01*
X0235008Y0198030D01*
X0236008Y0197031D01*
X0229010Y0203029D02*
X0228010Y0204028D01*
Y0206028D01*
X0229010Y0207027D01*
X0233009D01*
X0234008Y0206028D01*
Y0204028D01*
X0233009Y0203029D01*
X0229010D01*
Y0209027D02*
X0228010Y0210026D01*
Y0212026D01*
X0229010Y0213025D01*
X0233009D01*
X0234008Y0212026D01*
Y0210026D01*
X0233009Y0209027D01*
X0229010D01*
X0153470Y0378000D02*
X0149471D01*
X0153470Y0381998D01*
Y0382998D01*
X0152470Y0383998D01*
X0150471D01*
X0149471Y0382998D01*
X0155469Y0378000D02*
X0157469D01*
X0156469D01*
Y0383998D01*
X0155469Y0382998D01*
X0161468Y0377000D02*
X0162467Y0378000D01*
Y0378999D01*
X0161468D01*
Y0378000D01*
X0162467D01*
X0161468Y0377000D01*
X0160468Y0376000D01*
X0166466Y0382998D02*
X0167465Y0383998D01*
X0169465D01*
X0170465Y0382998D01*
Y0378999D01*
X0169465Y0378000D01*
X0167465D01*
X0166466Y0378999D01*
Y0382998D01*
X0172464D02*
X0173464Y0383998D01*
X0175463D01*
X0176463Y0382998D01*
Y0378999D01*
X0175463Y0378000D01*
X0173464D01*
X0172464Y0378999D01*
Y0382998D01*
X0312868Y0185035D02*
X0311869Y0186034D01*
Y0188033D01*
X0312868Y0189033D01*
X0313868D01*
X0314867Y0188033D01*
X0315867Y0189033D01*
X0316867D01*
X0317866Y0188033D01*
Y0186034D01*
X0316867Y0185035D01*
X0315867D01*
X0314867Y0186034D01*
X0313868Y0185035D01*
X0312868D01*
X0314867Y0186034D02*
Y0188033D01*
X0317866Y0195031D02*
Y0191033D01*
X0313868Y0195031D01*
X0312868D01*
X0311869Y0194032D01*
Y0192032D01*
X0312868Y0191033D01*
X0318866Y0198030D02*
X0317866Y0199030D01*
X0316867D01*
Y0198030D01*
X0317866D01*
Y0199030D01*
X0318866Y0198030D01*
X0319866Y0197031D01*
X0312868Y0203029D02*
X0311869Y0204028D01*
Y0206028D01*
X0312868Y0207027D01*
X0316867D01*
X0317866Y0206028D01*
Y0204028D01*
X0316867Y0203029D01*
X0312868D01*
Y0209027D02*
X0311869Y0210026D01*
Y0212026D01*
X0312868Y0213025D01*
X0316867D01*
X0317866Y0212026D01*
Y0210026D01*
X0316867Y0209027D01*
X0312868D01*
X0237328Y0378000D02*
X0233330D01*
X0237328Y0381998D01*
Y0382998D01*
X0236329Y0383998D01*
X0234329D01*
X0233330Y0382998D01*
X0239328Y0378000D02*
X0241327D01*
X0240327D01*
Y0383998D01*
X0239328Y0382998D01*
X0245326Y0377000D02*
X0246325Y0378000D01*
Y0378999D01*
X0245326D01*
Y0378000D01*
X0246325D01*
X0245326Y0377000D01*
X0244326Y0376000D01*
X0250324Y0382998D02*
X0251324Y0383998D01*
X0253323D01*
X0254323Y0382998D01*
Y0378999D01*
X0253323Y0378000D01*
X0251324D01*
X0250324Y0378999D01*
Y0382998D01*
X0256322D02*
X0257322Y0383998D01*
X0259321D01*
X0260321Y0382998D01*
Y0378999D01*
X0259321Y0378000D01*
X0257322D01*
X0256322Y0378999D01*
Y0382998D01*
X0396726Y0185035D02*
X0395727Y0186034D01*
Y0188033D01*
X0396726Y0189033D01*
X0397726D01*
X0398726Y0188033D01*
X0399726Y0189033D01*
X0400725D01*
X0401725Y0188033D01*
Y0186034D01*
X0400725Y0185035D01*
X0399726D01*
X0398726Y0186034D01*
X0397726Y0185035D01*
X0396726D01*
X0398726Y0186034D02*
Y0188033D01*
X0401725Y0195031D02*
Y0191033D01*
X0397726Y0195031D01*
X0396726D01*
X0395727Y0194032D01*
Y0192032D01*
X0396726Y0191033D01*
X0402725Y0198030D02*
X0401725Y0199030D01*
X0400725D01*
Y0198030D01*
X0401725D01*
Y0199030D01*
X0402725Y0198030D01*
X0403724Y0197031D01*
X0396726Y0203029D02*
X0395727Y0204028D01*
Y0206028D01*
X0396726Y0207027D01*
X0400725D01*
X0401725Y0206028D01*
Y0204028D01*
X0400725Y0203029D01*
X0396726D01*
Y0209027D02*
X0395727Y0210026D01*
Y0212026D01*
X0396726Y0213025D01*
X0400725D01*
X0401725Y0212026D01*
Y0210026D01*
X0400725Y0209027D01*
X0396726D01*
X0321187Y0378000D02*
X0317188D01*
X0321187Y0381998D01*
Y0382998D01*
X0320187Y0383998D01*
X0318188D01*
X0317188Y0382998D01*
X0323186Y0378000D02*
X0325185D01*
X0324186D01*
Y0383998D01*
X0323186Y0382998D01*
X0329184Y0377000D02*
X0330184Y0378000D01*
Y0378999D01*
X0329184D01*
Y0378000D01*
X0330184D01*
X0329184Y0377000D01*
X0328184Y0376000D01*
X0334182Y0382998D02*
X0335182Y0383998D01*
X0337181D01*
X0338181Y0382998D01*
Y0378999D01*
X0337181Y0378000D01*
X0335182D01*
X0334182Y0378999D01*
Y0382998D01*
X0340180D02*
X0341180Y0383998D01*
X0343179D01*
X0344179Y0382998D01*
Y0378999D01*
X0343179Y0378000D01*
X0341180D01*
X0340180Y0378999D01*
Y0382998D01*
X0480585Y0185035D02*
X0479585Y0186034D01*
Y0188033D01*
X0480585Y0189033D01*
X0481584D01*
X0482584Y0188033D01*
X0483584Y0189033D01*
X0484583D01*
X0485583Y0188033D01*
Y0186034D01*
X0484583Y0185035D01*
X0483584D01*
X0482584Y0186034D01*
X0481584Y0185035D01*
X0480585D01*
X0482584Y0186034D02*
Y0188033D01*
X0485583Y0195031D02*
Y0191033D01*
X0481584Y0195031D01*
X0480585D01*
X0479585Y0194032D01*
Y0192032D01*
X0480585Y0191033D01*
X0486583Y0198030D02*
X0485583Y0199030D01*
X0484583D01*
Y0198030D01*
X0485583D01*
Y0199030D01*
X0486583Y0198030D01*
X0487582Y0197031D01*
X0480585Y0203029D02*
X0479585Y0204028D01*
Y0206028D01*
X0480585Y0207027D01*
X0484583D01*
X0485583Y0206028D01*
Y0204028D01*
X0484583Y0203029D01*
X0480585D01*
Y0209027D02*
X0479585Y0210026D01*
Y0212026D01*
X0480585Y0213025D01*
X0484583D01*
X0485583Y0212026D01*
Y0210026D01*
X0484583Y0209027D01*
X0480585D01*
X0405045Y0378000D02*
X0401046D01*
X0405045Y0381998D01*
Y0382998D01*
X0404045Y0383998D01*
X0402046D01*
X0401046Y0382998D01*
X0407044Y0378000D02*
X0409044D01*
X0408044D01*
Y0383998D01*
X0407044Y0382998D01*
X0413042Y0377000D02*
X0414042Y0378000D01*
Y0378999D01*
X0413042D01*
Y0378000D01*
X0414042D01*
X0413042Y0377000D01*
X0412043Y0376000D01*
X0418041Y0382998D02*
X0419040Y0383998D01*
X0421040D01*
X0422040Y0382998D01*
Y0378999D01*
X0421040Y0378000D01*
X0419040D01*
X0418041Y0378999D01*
Y0382998D01*
X0424039D02*
X0425038Y0383998D01*
X0427038D01*
X0428038Y0382998D01*
Y0378999D01*
X0427038Y0378000D01*
X0425038D01*
X0424039Y0378999D01*
Y0382998D01*
M02*
