G04*
G04 #@! TF.GenerationSoftware,Altium Limited,Altium Designer,20.1.14 (287)*
G04*
G04 Layer_Color=8421504*
%FSAX25Y25*%
%MOIN*%
G70*
G04*
G04 #@! TF.SameCoordinates,1876172F-CBA1-4FB9-98D7-45F53F2F45AF*
G04*
G04*
G04 #@! TF.FilePolarity,Positive*
G04*
G01*
G75*
%ADD11R,0.06299X0.13780*%
%ADD12R,0.13780X0.06299*%
%ADD13R,0.02362X0.03543*%
%ADD14R,0.03543X0.02362*%
%ADD15R,0.03150X0.03150*%
G04:AMPARAMS|DCode=16|XSize=23.62mil|YSize=35.43mil|CornerRadius=0mil|HoleSize=0mil|Usage=FLASHONLY|Rotation=135.000|XOffset=0mil|YOffset=0mil|HoleType=Round|Shape=Rectangle|*
%AMROTATEDRECTD16*
4,1,4,0.02088,0.00418,-0.00418,-0.02088,-0.02088,-0.00418,0.00418,0.02088,0.02088,0.00418,0.0*
%
%ADD16ROTATEDRECTD16*%

%ADD17R,0.01772X0.02756*%
%ADD18R,0.01968X0.02362*%
%ADD19R,0.03937X0.03150*%
%ADD20R,0.02362X0.01968*%
%ADD21R,0.03150X0.03937*%
%ADD22R,0.03543X0.05118*%
%ADD23R,0.05118X0.03543*%
G36*
X0755178Y0595150D02*
X0756955Y0594638D01*
X0758660Y0593922D01*
X0760270Y0593011D01*
X0761762Y0591918D01*
X0763115Y0590658D01*
X0764312Y0589248D01*
X0765335Y0587708D01*
X0766171Y0586058D01*
X0766809Y0584322D01*
X0767239Y0582523D01*
X0767455Y0580687D01*
Y0579762D01*
X0767455Y0578837D01*
X0767239Y0577001D01*
X0766809Y0575202D01*
X0766171Y0573466D01*
X0765335Y0571816D01*
X0764312Y0570276D01*
X0763115Y0568866D01*
X0761762Y0567606D01*
X0760270Y0566513D01*
X0758661Y0565602D01*
X0756955Y0564886D01*
X0755178Y0564373D01*
X0754266Y0564223D01*
X0754266Y0564223D01*
Y0595301D01*
X0755178Y0595150D01*
D02*
G37*
G36*
X0649665D02*
X0651442Y0594638D01*
X0653147Y0593922D01*
X0654756Y0593011D01*
X0656248Y0591918D01*
X0657602Y0590658D01*
X0658799Y0589248D01*
X0659822Y0587708D01*
X0660658Y0586058D01*
X0661296Y0584322D01*
X0661726Y0582523D01*
X0661942Y0580687D01*
Y0579762D01*
X0661942Y0578837D01*
X0661726Y0577001D01*
X0661296Y0575202D01*
X0660658Y0573466D01*
X0659822Y0571816D01*
X0658799Y0570276D01*
X0657602Y0568866D01*
X0656248Y0567606D01*
X0654757Y0566513D01*
X0653147Y0565602D01*
X0651442Y0564886D01*
X0649665Y0564373D01*
X0648753Y0564223D01*
X0648753Y0564223D01*
Y0595301D01*
X0649665Y0595150D01*
D02*
G37*
G36*
X0544152D02*
X0545929Y0594638D01*
X0547634Y0593922D01*
X0549243Y0593011D01*
X0550735Y0591918D01*
X0552088Y0590658D01*
X0553285Y0589248D01*
X0554309Y0587708D01*
X0555145Y0586058D01*
X0555782Y0584322D01*
X0556212Y0582523D01*
X0556429Y0580687D01*
Y0579762D01*
X0556429Y0578837D01*
X0556212Y0577001D01*
X0555782Y0575202D01*
X0555145Y0573466D01*
X0554309Y0571816D01*
X0553285Y0570276D01*
X0552089Y0568866D01*
X0550735Y0567606D01*
X0549243Y0566513D01*
X0547634Y0565602D01*
X0545929Y0564886D01*
X0544152Y0564373D01*
X0543240Y0564223D01*
X0543240Y0564223D01*
Y0595301D01*
X0544152Y0595150D01*
D02*
G37*
G36*
X0438639D02*
X0440416Y0594638D01*
X0442121Y0593922D01*
X0443730Y0593011D01*
X0445222Y0591918D01*
X0446575Y0590658D01*
X0447772Y0589248D01*
X0448796Y0587708D01*
X0449632Y0586058D01*
X0450269Y0584322D01*
X0450699Y0582523D01*
X0450915Y0580687D01*
Y0579762D01*
X0450915Y0578837D01*
X0450699Y0577001D01*
X0450269Y0575202D01*
X0449632Y0573466D01*
X0448796Y0571816D01*
X0447772Y0570276D01*
X0446575Y0568866D01*
X0445222Y0567606D01*
X0443730Y0566513D01*
X0442121Y0565602D01*
X0440416Y0564886D01*
X0438639Y0564373D01*
X0437726Y0564223D01*
X0437726Y0564223D01*
Y0595301D01*
X0438639Y0595150D01*
D02*
G37*
G36*
X0749148Y0564223D02*
X0748236Y0564373D01*
X0746458Y0564885D01*
X0744754Y0565602D01*
X0743144Y0566513D01*
X0741652Y0567606D01*
X0740299Y0568866D01*
X0739102Y0570276D01*
X0738079Y0571816D01*
X0737243Y0573466D01*
X0736605Y0575202D01*
X0736175Y0577001D01*
X0735959Y0578837D01*
Y0579762D01*
Y0579762D01*
X0735959Y0580687D01*
X0736175Y0582523D01*
X0736605Y0584322D01*
X0737243Y0586058D01*
X0738079Y0587707D01*
X0739102Y0589248D01*
X0740299Y0590658D01*
X0741652Y0591918D01*
X0743144Y0593011D01*
X0744754Y0593922D01*
X0746458Y0594638D01*
X0748236Y0595150D01*
X0749148Y0595301D01*
X0749148Y0595301D01*
X0749148Y0564223D01*
D02*
G37*
G36*
X0643635D02*
X0642722Y0564373D01*
X0640945Y0564885D01*
X0639240Y0565602D01*
X0637631Y0566513D01*
X0636139Y0567606D01*
X0634786Y0568866D01*
X0633589Y0570276D01*
X0632566Y0571816D01*
X0631729Y0573466D01*
X0631092Y0575202D01*
X0630662Y0577001D01*
X0630446Y0578837D01*
Y0579762D01*
Y0579762D01*
X0630446Y0580687D01*
X0630662Y0582523D01*
X0631092Y0584322D01*
X0631729Y0586058D01*
X0632566Y0587707D01*
X0633589Y0589248D01*
X0634786Y0590658D01*
X0636139Y0591918D01*
X0637631Y0593011D01*
X0639240Y0593922D01*
X0640945Y0594638D01*
X0642722Y0595150D01*
X0643635Y0595301D01*
X0643635Y0595301D01*
X0643635Y0564223D01*
D02*
G37*
G36*
X0538122D02*
X0537209Y0564373D01*
X0535432Y0564885D01*
X0533727Y0565602D01*
X0532118Y0566513D01*
X0530626Y0567606D01*
X0529273Y0568866D01*
X0528076Y0570276D01*
X0527052Y0571816D01*
X0526216Y0573466D01*
X0525579Y0575202D01*
X0525149Y0577001D01*
X0524932Y0578837D01*
Y0579762D01*
Y0579762D01*
X0524932Y0580687D01*
X0525149Y0582523D01*
X0525579Y0584322D01*
X0526216Y0586058D01*
X0527052Y0587707D01*
X0528076Y0589248D01*
X0529273Y0590658D01*
X0530626Y0591918D01*
X0532118Y0593011D01*
X0533727Y0593922D01*
X0535432Y0594638D01*
X0537209Y0595150D01*
X0538122Y0595301D01*
X0538122Y0595301D01*
X0538122Y0564223D01*
D02*
G37*
G36*
X0432608D02*
X0431696Y0564373D01*
X0429919Y0564885D01*
X0428214Y0565602D01*
X0426605Y0566513D01*
X0425113Y0567606D01*
X0423759Y0568866D01*
X0422563Y0570276D01*
X0421539Y0571816D01*
X0420703Y0573466D01*
X0420065Y0575202D01*
X0419636Y0577001D01*
X0419419Y0578837D01*
Y0579762D01*
Y0579762D01*
X0419419Y0580687D01*
X0419636Y0582523D01*
X0420065Y0584322D01*
X0420703Y0586058D01*
X0421539Y0587707D01*
X0422563Y0589248D01*
X0423759Y0590658D01*
X0425113Y0591918D01*
X0426605Y0593011D01*
X0428214Y0593922D01*
X0429919Y0594638D01*
X0431696Y0595150D01*
X0432608Y0595301D01*
X0432608Y0595301D01*
X0432608Y0564223D01*
D02*
G37*
G36*
X0711871Y0427867D02*
X0713648Y0427355D01*
X0715353Y0426639D01*
X0716963Y0425728D01*
X0718454Y0424634D01*
X0719808Y0423374D01*
X0721004Y0421964D01*
X0722028Y0420424D01*
X0722864Y0418775D01*
X0723502Y0417038D01*
X0723932Y0415240D01*
X0724148Y0413403D01*
Y0412479D01*
X0724148Y0411554D01*
X0723932Y0409717D01*
X0723502Y0407919D01*
X0722864Y0406182D01*
X0722028Y0404533D01*
X0721005Y0402993D01*
X0719808Y0401583D01*
X0718454Y0400323D01*
X0716963Y0399230D01*
X0715353Y0398318D01*
X0713648Y0397602D01*
X0711871Y0397090D01*
X0710959Y0396940D01*
X0710959Y0396940D01*
Y0428017D01*
X0711871Y0427867D01*
D02*
G37*
G36*
X0606358D02*
X0608135Y0427355D01*
X0609840Y0426639D01*
X0611449Y0425728D01*
X0612941Y0424634D01*
X0614295Y0423374D01*
X0615491Y0421964D01*
X0616515Y0420424D01*
X0617351Y0418775D01*
X0617988Y0417038D01*
X0618418Y0415240D01*
X0618635Y0413403D01*
Y0412479D01*
X0618635Y0411554D01*
X0618418Y0409717D01*
X0617988Y0407919D01*
X0617351Y0406182D01*
X0616515Y0404533D01*
X0615491Y0402993D01*
X0614295Y0401583D01*
X0612941Y0400323D01*
X0611449Y0399230D01*
X0609840Y0398318D01*
X0608135Y0397602D01*
X0606358Y0397090D01*
X0605446Y0396940D01*
X0605446Y0396940D01*
Y0428017D01*
X0606358Y0427867D01*
D02*
G37*
G36*
X0500845D02*
X0502622Y0427355D01*
X0504327Y0426639D01*
X0505936Y0425728D01*
X0507428Y0424634D01*
X0508781Y0423374D01*
X0509978Y0421964D01*
X0511002Y0420424D01*
X0511838Y0418775D01*
X0512475Y0417038D01*
X0512905Y0415240D01*
X0513122Y0413403D01*
Y0412479D01*
X0513122Y0411554D01*
X0512905Y0409717D01*
X0512475Y0407919D01*
X0511838Y0406182D01*
X0511002Y0404533D01*
X0509978Y0402993D01*
X0508781Y0401583D01*
X0507428Y0400323D01*
X0505936Y0399230D01*
X0504327Y0398318D01*
X0502622Y0397602D01*
X0500845Y0397090D01*
X0499932Y0396940D01*
X0499932Y0396940D01*
Y0428017D01*
X0500845Y0427867D01*
D02*
G37*
G36*
X0395332D02*
X0397109Y0427355D01*
X0398814Y0426639D01*
X0400423Y0425728D01*
X0401915Y0424634D01*
X0403268Y0423374D01*
X0404465Y0421964D01*
X0405488Y0420424D01*
X0406325Y0418775D01*
X0406962Y0417038D01*
X0407392Y0415240D01*
X0407608Y0413403D01*
Y0412479D01*
X0407608Y0411554D01*
X0407392Y0409717D01*
X0406962Y0407919D01*
X0406325Y0406182D01*
X0405488Y0404533D01*
X0404465Y0402993D01*
X0403268Y0401583D01*
X0401915Y0400323D01*
X0400423Y0399230D01*
X0398814Y0398318D01*
X0397109Y0397602D01*
X0395332Y0397090D01*
X0394419Y0396940D01*
X0394419Y0396940D01*
Y0428017D01*
X0395332Y0427867D01*
D02*
G37*
G36*
X0705841Y0396940D02*
X0704928Y0397090D01*
X0703151Y0397602D01*
X0701446Y0398318D01*
X0699837Y0399229D01*
X0698345Y0400322D01*
X0696992Y0401583D01*
X0695795Y0402993D01*
X0694772Y0404533D01*
X0693935Y0406182D01*
X0693298Y0407918D01*
X0692868Y0409717D01*
X0692652Y0411554D01*
Y0412478D01*
Y0412478D01*
X0692652Y0413403D01*
X0692868Y0415240D01*
X0693298Y0417038D01*
X0693935Y0418774D01*
X0694772Y0420424D01*
X0695795Y0421964D01*
X0696992Y0423374D01*
X0698345Y0424634D01*
X0699837Y0425727D01*
X0701446Y0426638D01*
X0703151Y0427355D01*
X0704928Y0427867D01*
X0705841Y0428017D01*
X0705841Y0428017D01*
X0705841Y0396940D01*
D02*
G37*
G36*
X0600328D02*
X0599415Y0397090D01*
X0597638Y0397602D01*
X0595933Y0398318D01*
X0594324Y0399229D01*
X0592832Y0400322D01*
X0591479Y0401583D01*
X0590282Y0402993D01*
X0589258Y0404533D01*
X0588422Y0406182D01*
X0587785Y0407918D01*
X0587355Y0409717D01*
X0587139Y0411554D01*
Y0412478D01*
Y0412478D01*
X0587139Y0413403D01*
X0587355Y0415240D01*
X0587785Y0417038D01*
X0588422Y0418774D01*
X0589258Y0420424D01*
X0590282Y0421964D01*
X0591479Y0423374D01*
X0592832Y0424634D01*
X0594324Y0425727D01*
X0595933Y0426638D01*
X0597638Y0427355D01*
X0599415Y0427867D01*
X0600328Y0428017D01*
X0600328Y0428017D01*
X0600328Y0396940D01*
D02*
G37*
G36*
X0494814D02*
X0493902Y0397090D01*
X0492125Y0397602D01*
X0490420Y0398318D01*
X0488811Y0399229D01*
X0487319Y0400322D01*
X0485965Y0401583D01*
X0484769Y0402993D01*
X0483745Y0404533D01*
X0482909Y0406182D01*
X0482272Y0407918D01*
X0481842Y0409717D01*
X0481625Y0411554D01*
Y0412478D01*
Y0412478D01*
X0481625Y0413403D01*
X0481842Y0415240D01*
X0482272Y0417038D01*
X0482909Y0418774D01*
X0483745Y0420424D01*
X0484769Y0421964D01*
X0485965Y0423374D01*
X0487319Y0424634D01*
X0488811Y0425727D01*
X0490420Y0426638D01*
X0492125Y0427355D01*
X0493902Y0427867D01*
X0494814Y0428017D01*
X0494814Y0428017D01*
X0494814Y0396940D01*
D02*
G37*
G36*
X0389301D02*
X0388389Y0397090D01*
X0386612Y0397602D01*
X0384907Y0398318D01*
X0383297Y0399229D01*
X0381806Y0400322D01*
X0380452Y0401583D01*
X0379256Y0402993D01*
X0378232Y0404533D01*
X0377396Y0406182D01*
X0376758Y0407918D01*
X0376328Y0409717D01*
X0376112Y0411554D01*
Y0412478D01*
Y0412478D01*
X0376112Y0413403D01*
X0376328Y0415240D01*
X0376758Y0417038D01*
X0377396Y0418774D01*
X0378232Y0420424D01*
X0379256Y0421964D01*
X0380452Y0423374D01*
X0381806Y0424634D01*
X0383297Y0425727D01*
X0384907Y0426638D01*
X0386612Y0427355D01*
X0388389Y0427867D01*
X0389301Y0428017D01*
X0389301Y0428017D01*
X0389301Y0396940D01*
D02*
G37*
D11*
X0411545Y0579801D02*
D03*
X0390285D02*
D03*
X0517058D02*
D03*
X0495799D02*
D03*
X0622572D02*
D03*
X0601312D02*
D03*
X0728085D02*
D03*
X0706825D02*
D03*
D12*
X0379899Y0564211D02*
D03*
Y0542951D02*
D03*
Y0530037D02*
D03*
Y0508778D02*
D03*
Y0496258D02*
D03*
Y0474998D02*
D03*
X0485412Y0564211D02*
D03*
Y0542951D02*
D03*
Y0530037D02*
D03*
Y0508778D02*
D03*
Y0496258D02*
D03*
Y0474998D02*
D03*
X0590926Y0564211D02*
D03*
Y0542951D02*
D03*
Y0530037D02*
D03*
Y0508778D02*
D03*
Y0496258D02*
D03*
Y0474998D02*
D03*
X0696439Y0564211D02*
D03*
Y0542951D02*
D03*
Y0530037D02*
D03*
Y0508778D02*
D03*
Y0496258D02*
D03*
Y0474998D02*
D03*
D13*
X0389577Y0446337D02*
D03*
X0383671D02*
D03*
X0404734Y0466022D02*
D03*
X0398829D02*
D03*
X0416624D02*
D03*
X0410718D02*
D03*
X0495090Y0446337D02*
D03*
X0489185D02*
D03*
X0510247Y0466022D02*
D03*
X0504342D02*
D03*
X0522137D02*
D03*
X0516232D02*
D03*
X0600603Y0446337D02*
D03*
X0594698D02*
D03*
X0615761Y0466022D02*
D03*
X0609855D02*
D03*
X0627650D02*
D03*
X0621745D02*
D03*
X0706116Y0446337D02*
D03*
X0700211D02*
D03*
X0721274Y0466022D02*
D03*
X0715368D02*
D03*
X0733164D02*
D03*
X0727258D02*
D03*
D14*
X0376506Y0446258D02*
D03*
Y0452164D02*
D03*
X0422963Y0460313D02*
D03*
Y0466219D02*
D03*
X0406821Y0429014D02*
D03*
Y0434919D02*
D03*
X0482019Y0446258D02*
D03*
Y0452164D02*
D03*
X0528476Y0460313D02*
D03*
Y0466219D02*
D03*
X0512334Y0429014D02*
D03*
Y0434919D02*
D03*
X0587532Y0446258D02*
D03*
Y0452164D02*
D03*
X0633989Y0460313D02*
D03*
Y0466219D02*
D03*
X0617847Y0429014D02*
D03*
Y0434919D02*
D03*
X0693046Y0446258D02*
D03*
Y0452164D02*
D03*
X0739502Y0460313D02*
D03*
Y0466219D02*
D03*
X0723360Y0429014D02*
D03*
Y0434919D02*
D03*
D15*
X0422963Y0454014D02*
D03*
Y0448108D02*
D03*
X0413514Y0428817D02*
D03*
Y0434723D02*
D03*
X0454852Y0433738D02*
D03*
Y0440037D02*
D03*
X0415876Y0401849D02*
D03*
Y0408148D02*
D03*
X0528476Y0454014D02*
D03*
Y0448108D02*
D03*
X0519027Y0428817D02*
D03*
Y0434723D02*
D03*
X0560365Y0433738D02*
D03*
Y0440037D02*
D03*
X0521389Y0401849D02*
D03*
Y0408148D02*
D03*
X0633989Y0454014D02*
D03*
Y0448108D02*
D03*
X0624540Y0428817D02*
D03*
Y0434723D02*
D03*
X0665879Y0433738D02*
D03*
Y0440037D02*
D03*
X0626902Y0401849D02*
D03*
Y0408148D02*
D03*
X0739502Y0454014D02*
D03*
Y0448108D02*
D03*
X0730053Y0428817D02*
D03*
Y0434723D02*
D03*
X0771392Y0433738D02*
D03*
Y0440037D02*
D03*
X0732416Y0401849D02*
D03*
Y0408148D02*
D03*
D16*
X0401428Y0440312D02*
D03*
X0397253Y0444488D02*
D03*
X0506942Y0440312D02*
D03*
X0502766Y0444488D02*
D03*
X0612455Y0440312D02*
D03*
X0608279Y0444488D02*
D03*
X0717968Y0440312D02*
D03*
X0713792Y0444488D02*
D03*
D17*
X0437530Y0445746D02*
D03*
Y0455589D02*
D03*
X0430049Y0445746D02*
D03*
Y0455589D02*
D03*
X0428081Y0419762D02*
D03*
Y0429604D02*
D03*
X0420600D02*
D03*
Y0419762D02*
D03*
X0543043Y0445746D02*
D03*
Y0455589D02*
D03*
X0535562Y0445746D02*
D03*
Y0455589D02*
D03*
X0533594Y0419762D02*
D03*
Y0429604D02*
D03*
X0526114D02*
D03*
Y0419762D02*
D03*
X0648556Y0445746D02*
D03*
Y0455589D02*
D03*
X0641076Y0445746D02*
D03*
Y0455589D02*
D03*
X0639107Y0419762D02*
D03*
Y0429604D02*
D03*
X0631627D02*
D03*
Y0419762D02*
D03*
X0754069Y0445746D02*
D03*
Y0455589D02*
D03*
X0746589Y0445746D02*
D03*
Y0455589D02*
D03*
X0744620Y0419762D02*
D03*
Y0429604D02*
D03*
X0737140D02*
D03*
Y0419762D02*
D03*
D18*
X0450915Y0460116D02*
D03*
X0446978D02*
D03*
X0421781Y0413659D02*
D03*
X0417844D02*
D03*
X0556428Y0460116D02*
D03*
X0552492D02*
D03*
X0527295Y0413659D02*
D03*
X0523358D02*
D03*
X0661942Y0460116D02*
D03*
X0658005D02*
D03*
X0632808Y0413659D02*
D03*
X0628871D02*
D03*
X0767455Y0460116D02*
D03*
X0763518D02*
D03*
X0738321Y0413659D02*
D03*
X0734384D02*
D03*
D19*
X0444616Y0454408D02*
D03*
Y0446927D02*
D03*
X0454065Y0450667D02*
D03*
X0550129Y0454408D02*
D03*
Y0446927D02*
D03*
X0559578Y0450667D02*
D03*
X0655643Y0454408D02*
D03*
Y0446927D02*
D03*
X0665091Y0450667D02*
D03*
X0761156Y0454408D02*
D03*
Y0446927D02*
D03*
X0770605Y0450667D02*
D03*
D20*
X0444616Y0441612D02*
D03*
Y0437675D02*
D03*
X0449059Y0441577D02*
D03*
Y0437640D02*
D03*
X0421781Y0408541D02*
D03*
Y0404604D02*
D03*
X0550129Y0441612D02*
D03*
Y0437675D02*
D03*
X0554573Y0441577D02*
D03*
Y0437640D02*
D03*
X0527295Y0408541D02*
D03*
Y0404604D02*
D03*
X0655643Y0441612D02*
D03*
Y0437675D02*
D03*
X0660086Y0441577D02*
D03*
Y0437640D02*
D03*
X0632808Y0408541D02*
D03*
Y0404604D02*
D03*
X0761156Y0441612D02*
D03*
Y0437675D02*
D03*
X0765599Y0441577D02*
D03*
Y0437640D02*
D03*
X0738321Y0408541D02*
D03*
Y0404604D02*
D03*
D21*
X0435364Y0414053D02*
D03*
X0427884D02*
D03*
X0431624Y0404604D02*
D03*
X0540877Y0414053D02*
D03*
X0533397D02*
D03*
X0537137Y0404604D02*
D03*
X0646391Y0414053D02*
D03*
X0638910D02*
D03*
X0642650Y0404604D02*
D03*
X0751904Y0414053D02*
D03*
X0744423D02*
D03*
X0748164Y0404604D02*
D03*
D22*
X0392057Y0466022D02*
D03*
X0384577D02*
D03*
X0497570D02*
D03*
X0490090D02*
D03*
X0603084D02*
D03*
X0595603D02*
D03*
X0708597D02*
D03*
X0701116D02*
D03*
D23*
X0376506Y0458817D02*
D03*
Y0466297D02*
D03*
X0482019Y0458817D02*
D03*
Y0466297D02*
D03*
X0587532Y0458817D02*
D03*
Y0466297D02*
D03*
X0693046Y0458817D02*
D03*
Y0466297D02*
D03*
M02*
