G04*
G04 #@! TF.GenerationSoftware,Altium Limited,Altium Designer,20.1.14 (287)*
G04*
G04 Layer_Color=65535*
%FSAX25Y25*%
%MOIN*%
G70*
G04*
G04 #@! TF.SameCoordinates,1876172F-CBA1-4FB9-98D7-45F53F2F45AF*
G04*
G04*
G04 #@! TF.FilePolarity,Positive*
G04*
G01*
G75*
%ADD29C,0.03937*%
%ADD76C,0.03937*%
D29*
X0459524Y0582550D02*
G03*
X0459441Y0582794I-0001901J-0000510D01*
G01*
X0456685Y0588383D02*
G03*
X0456542Y0588596I-0001704J-0000985D01*
G01*
X0456686Y0588381D02*
G03*
X0456685Y0588383I-0001705J-0000984D01*
G01*
X0458297Y0585556D02*
G03*
X0458182Y0585790I-0001820J-0000750D01*
G01*
X0460349Y0579403D02*
G03*
X0460299Y0579659I-0001952J-0000254D01*
G01*
X0460349Y0579406D02*
G03*
X0460299Y0579659I-0001952J-0000257D01*
G01*
X0454720Y0590971D02*
G03*
X0454550Y0591164I-0001562J-0001198D01*
G01*
X0456685Y0588382D02*
G03*
X0456542Y0588596I-0001705J-0000984D01*
G01*
X0454720Y0590971D02*
G03*
X0454549Y0591165I-0001562J-0001198D01*
G01*
X0458182Y0585789D02*
G03*
X0458181Y0585790I-0001705J-0000984D01*
G01*
X0458296Y0585559D02*
G03*
X0458182Y0585789I-0001819J-0000753D01*
G01*
X0459524Y0582550D02*
G03*
X0459440Y0582796I-0001901J-0000510D01*
G01*
X0458789Y0560116D02*
G03*
X0460757Y0562085I0000000J0001969D01*
G01*
X0460756Y0576182D02*
G03*
X0460740Y0576438I-0001969J-0000000D01*
G01*
X0460756Y0576181D02*
G03*
X0460756Y0576182I-0001969J0000000D01*
G01*
X0460757Y0550274D02*
G03*
X0458789Y0552242I-0001969J-0000000D01*
G01*
X0458789Y0560116D02*
G03*
X0460757Y0562085I0000000J0001969D01*
G01*
X0460756Y0576182D02*
G03*
X0460739Y0576441I-0001969J-0000000D01*
G01*
X0460757Y0550274D02*
G03*
X0458789Y0552242I-0001969J-0000000D01*
G01*
X0447059Y0596912D02*
G03*
X0446828Y0597026I-0000984J-0001705D01*
G01*
X0440928Y0599029D02*
G03*
X0440675Y0599079I-0000509J-0001901D01*
G01*
X0444063Y0598171D02*
G03*
X0443819Y0598254I-0000753J-0001819D01*
G01*
X0449865Y0595272D02*
G03*
X0449651Y0595415I-0001198J-0001562D01*
G01*
X0447059Y0596912D02*
G03*
X0446828Y0597026I-0000984J-0001705D01*
G01*
X0449865Y0595272D02*
G03*
X0449651Y0595415I-0001198J-0001562D01*
G01*
X0444063Y0598171D02*
G03*
X0443819Y0598254I-0000753J-0001819D01*
G01*
X0437707Y0599470D02*
G03*
X0437451Y0599486I-0000256J-0001952D01*
G01*
X0437709Y0599470D02*
G03*
X0437707Y0599470I-0000258J-0001952D01*
G01*
X0437708Y0599470D02*
G03*
X0437451Y0599486I-0000257J-0001952D01*
G01*
X0440676Y0599079D02*
G03*
X0440674Y0599079I-0000258J-0001952D01*
G01*
X0440928Y0599029D02*
G03*
X0440676Y0599079I-0000509J-0001901D01*
G01*
X0452435Y0593280D02*
G03*
X0452240Y0593450I-0001393J-0001391D01*
G01*
X0452434Y0593281D02*
G03*
X0452240Y0593450I-0001392J-0001392D01*
G01*
X0402490Y0552242D02*
G03*
X0400522Y0550274I0000000J-0001969D01*
G01*
X0402490Y0552242D02*
G03*
X0400522Y0550274I0000000J-0001969D01*
G01*
Y0483345D02*
G03*
X0402490Y0481376I0001969J0000000D01*
G01*
X0400522Y0483345D02*
G03*
X0402490Y0481376I0001969J0000000D01*
G01*
X0460741Y0403579D02*
G03*
X0460758Y0403836I-0001952J0000257D01*
G01*
X0460741Y0403579D02*
G03*
X0460758Y0403836I-0001952J0000257D01*
G01*
X0460489Y0401791D02*
G03*
X0460539Y0402044I-0001901J0000509D01*
G01*
X0460488Y0401787D02*
G03*
X0460539Y0402044I-0001900J0000514D01*
G01*
X0460005Y0400051D02*
G03*
X0460089Y0400299I-0001819J0000753D01*
G01*
X0460004Y0400048D02*
G03*
X0460088Y0400295I-0001817J0000757D01*
G01*
X0459298Y0398389D02*
G03*
X0459414Y0398623I-0001705J0000984D01*
G01*
X0458381Y0396833D02*
G03*
X0458524Y0397047I-0001562J0001198D01*
G01*
X0457268Y0395411D02*
G03*
X0457439Y0395606I-0001392J0001392D01*
G01*
X0459298Y0398389D02*
G03*
X0459412Y0398620I-0001705J0000984D01*
G01*
X0458380Y0396832D02*
G03*
X0458524Y0397047I-0001561J0001200D01*
G01*
X0457267Y0395410D02*
G03*
X0457438Y0395604I-0001391J0001393D01*
G01*
X0455979Y0394146D02*
G03*
X0456174Y0394317I-0001198J0001562D01*
G01*
X0455976Y0394144D02*
G03*
X0456173Y0394316I-0001196J0001564D01*
G01*
X0454536Y0393060D02*
G03*
X0454750Y0393203I-0000984J0001705D01*
G01*
X0454536Y0393060D02*
G03*
X0454753Y0393205I-0000984J0001705D01*
G01*
X0452964Y0392171D02*
G03*
X0453195Y0392285I-0000753J0001819D01*
G01*
X0451289Y0391496D02*
G03*
X0451536Y0391580I-0000509J0001901D01*
G01*
X0452960Y0392170D02*
G03*
X0453195Y0392285I-0000750J0001820D01*
G01*
X0449540Y0391045D02*
G03*
X0449795Y0391096I-0000257J0001952D01*
G01*
X0451286Y0391495D02*
G03*
X0451533Y0391579I-0000507J0001902D01*
G01*
X0449540Y0391045D02*
G03*
X0449792Y0391095I-0000257J0001952D01*
G01*
X0447747Y0390826D02*
G03*
X0448004Y0390843I0000000J0001969D01*
G01*
X0447747Y0390826D02*
G03*
X0448004Y0390843I0000000J0001969D01*
G01*
X0392648Y0599486D02*
G03*
X0392647Y0599486I0000000J-0001969D01*
G01*
X0391487Y0599486D02*
G03*
X0391294Y0599477I0000000J-0001969D01*
G01*
X0388985Y0599249D02*
G03*
X0388793Y0599221I0000192J-0001959D01*
G01*
X0392648Y0599486D02*
G03*
X0392647Y0599486I0000000J-0001969D01*
G01*
X0391487Y0599486D02*
G03*
X0391293Y0599477I0000000J-0001969D01*
G01*
X0386520Y0598769D02*
G03*
X0386329Y0598721I0000381J-0001931D01*
G01*
X0384112Y0598048D02*
G03*
X0383926Y0597982I0000568J-0001885D01*
G01*
X0388984Y0599249D02*
G03*
X0388790Y0599220I0000193J-0001959D01*
G01*
X0386517Y0598768D02*
G03*
X0386325Y0598720I0000384J-0001931D01*
G01*
X0384108Y0598047D02*
G03*
X0383926Y0597982I0000571J-0001884D01*
G01*
X0381782Y0597094D02*
G03*
X0381607Y0597012I0000753J-0001819D01*
G01*
X0381782Y0597094D02*
G03*
X0381606Y0597011I0000753J-0001819D01*
G01*
X0379562Y0595918D02*
G03*
X0379395Y0595818I0000926J-0001737D01*
G01*
X0379560Y0595917D02*
G03*
X0379395Y0595818I0000928J-0001736D01*
G01*
X0377465Y0594529D02*
G03*
X0377309Y0594414I0001094J-0001637D01*
G01*
X0377465Y0594529D02*
G03*
X0377306Y0594411I0001094J-0001637D01*
G01*
X0375518Y0592944D02*
G03*
X0375372Y0592811I0001246J-0001524D01*
G01*
X0375515Y0592941D02*
G03*
X0375371Y0592810I0001249J-0001522D01*
G01*
X0373732Y0591171D02*
G03*
X0373601Y0591027I0001391J-0001393D01*
G01*
X0373731Y0591170D02*
G03*
X0373599Y0591024I0001392J-0001392D01*
G01*
X0372131Y0589235D02*
G03*
X0372014Y0589078I0001520J-0001252D01*
G01*
X0372129Y0589233D02*
G03*
X0372011Y0589074I0001522J-0001249D01*
G01*
X0370726Y0587151D02*
G03*
X0370625Y0586982I0001635J-0001097D01*
G01*
X0370724Y0587148D02*
G03*
X0370624Y0586980I0001637J-0001094D01*
G01*
X0369532Y0584937D02*
G03*
X0369448Y0584760I0001735J-0000930D01*
G01*
X0369531Y0584935D02*
G03*
X0369448Y0584760I0001736J-0000928D01*
G01*
X0368560Y0582616D02*
G03*
X0368495Y0582434I0001819J-0000753D01*
G01*
X0368560Y0582616D02*
G03*
X0368494Y0582430I0001819J-0000753D01*
G01*
X0367822Y0580217D02*
G03*
X0367774Y0580026I0001883J-0000575D01*
G01*
X0367821Y0580213D02*
G03*
X0367773Y0580021I0001884J-0000571D01*
G01*
X0367322Y0577753D02*
G03*
X0367293Y0577558I0001930J-0000388D01*
G01*
X0367321Y0577749D02*
G03*
X0367293Y0577557I0001931J-0000384D01*
G01*
X0367066Y0575249D02*
G03*
X0367056Y0575055I0001959J-0000194D01*
G01*
X0367066Y0575248D02*
G03*
X0367056Y0575055I0001959J-0000193D01*
G01*
X0374616Y0392285D02*
G03*
X0374847Y0392171I0000984J0001705D01*
G01*
X0373061Y0393202D02*
G03*
X0373275Y0393059I0001198J0001562D01*
G01*
X0371639Y0394314D02*
G03*
X0371833Y0394145I0001392J0001392D01*
G01*
X0379805Y0390843D02*
G03*
X0380062Y0390826I0000257J0001952D01*
G01*
X0374616Y0392285D02*
G03*
X0374851Y0392169I0000984J0001705D01*
G01*
X0376274Y0391580D02*
G03*
X0376521Y0391496I0000757J0001817D01*
G01*
X0373061Y0393202D02*
G03*
X0373275Y0393059I0001198J0001562D01*
G01*
X0379805Y0390843D02*
G03*
X0380062Y0390826I0000256J0001952D01*
G01*
X0379804Y0390843D02*
G03*
X0379805Y0390843I0000258J0001952D01*
G01*
X0376278Y0391578D02*
G03*
X0376524Y0391495I0000753J0001819D01*
G01*
X0378269Y0391045D02*
G03*
X0378270Y0391044I0000258J0001952D01*
G01*
X0378017Y0391095D02*
G03*
X0378269Y0391045I0000509J0001901D01*
G01*
X0378014Y0391096D02*
G03*
X0378270Y0391045I0000512J0001901D01*
G01*
X0367725Y0400294D02*
G03*
X0367809Y0400047I0001902J0000507D01*
G01*
X0367275Y0402039D02*
G03*
X0367325Y0401787I0001952J0000257D01*
G01*
X0367275Y0402039D02*
G03*
X0367326Y0401784I0001952J0000257D01*
G01*
X0367056Y0403831D02*
G03*
X0367073Y0403574I0001969J0000000D01*
G01*
X0367056Y0403831D02*
G03*
X0367073Y0403574I0001969J0000000D01*
G01*
X0371638Y0394315D02*
G03*
X0371833Y0394145I0001393J0001391D01*
G01*
X0368401Y0398617D02*
G03*
X0368515Y0398386I0001819J0000753D01*
G01*
X0367726Y0400291D02*
G03*
X0367809Y0400047I0001901J0000509D01*
G01*
X0368401Y0398617D02*
G03*
X0368516Y0398384I0001819J0000753D01*
G01*
X0370373Y0395605D02*
G03*
X0370545Y0395409I0001564J0001196D01*
G01*
X0369289Y0397045D02*
G03*
X0369434Y0396828I0001705J0000984D01*
G01*
X0370375Y0395603D02*
G03*
X0370546Y0395408I0001562J0001198D01*
G01*
X0369288Y0397047D02*
G03*
X0369432Y0396831I0001706J0000982D01*
G01*
X0460757Y0550274D02*
Y0562085D01*
X0460757Y0550274D02*
X0460757D01*
X0460757D02*
X0460757D01*
X0458296Y0585559D02*
X0458297Y0585556D01*
X0459440Y0582796D01*
X0459441Y0582794D01*
X0456685Y0588383D02*
X0456685Y0588382D01*
X0456686Y0588381D01*
X0458181Y0585790D01*
X0458182Y0585790D01*
X0458182Y0585789D01*
X0460349Y0579406D02*
X0460349Y0579403D01*
X0460739Y0576441D01*
X0460740Y0576438D01*
X0459524Y0582550D02*
X0460299Y0579659D01*
X0454720Y0590971D02*
X0456542Y0588596D01*
X0454549Y0591165D02*
X0454550Y0591164D01*
X0452435Y0593280D02*
X0454549Y0591165D01*
X0452434Y0593281D02*
X0452435Y0593280D01*
X0402490Y0552242D02*
X0458789Y0552242D01*
X0444063Y0598171D02*
X0446828Y0597026D01*
X0447059Y0596912D02*
X0449651Y0595415D01*
X0440928Y0599029D02*
X0443819Y0598254D01*
X0440675Y0599079D02*
X0440676Y0599079D01*
X0440674Y0599079D02*
X0440675Y0599079D01*
X0437709Y0599470D02*
X0440674Y0599079D01*
X0437708Y0599470D02*
X0437709Y0599470D01*
X0437707Y0599470D02*
X0437708Y0599470D01*
X0435954Y0599486D02*
X0437451Y0599486D01*
X0449865Y0595272D02*
X0452240Y0593450D01*
X0400522Y0483345D02*
Y0550274D01*
X0402490Y0481376D02*
X0424144D01*
X0460539Y0402044D02*
X0460741Y0403579D01*
X0460488Y0401787D02*
X0460489Y0401791D01*
X0460089Y0400299D02*
X0460488Y0401787D01*
X0460088Y0400295D02*
X0460089Y0400299D01*
X0460004Y0400048D02*
X0460005Y0400051D01*
X0459414Y0398623D02*
X0460004Y0400048D01*
X0459412Y0398620D02*
X0459414Y0398623D01*
X0458524Y0397047D02*
X0459298Y0398389D01*
X0458380Y0396832D02*
X0458381Y0396833D01*
X0457439Y0395606D02*
X0458380Y0396832D01*
X0457438Y0395604D02*
X0457439Y0395606D01*
X0457267Y0395410D02*
X0457268Y0395411D01*
X0456174Y0394317D02*
X0457267Y0395410D01*
X0456173Y0394316D02*
X0456174Y0394317D01*
X0455976Y0394144D02*
X0455979Y0394146D01*
X0454753Y0393205D02*
X0455976Y0394144D01*
X0454750Y0393203D02*
X0454753Y0393205D01*
X0424144Y0473502D02*
Y0481376D01*
X0392648Y0473502D02*
Y0560116D01*
X0416269Y0457754D02*
X0416269Y0453817D01*
X0453195Y0392285D02*
X0454536Y0393060D01*
X0452960Y0392170D02*
X0452964Y0392171D01*
X0451536Y0391580D02*
X0452960Y0392170D01*
X0451533Y0391579D02*
X0451536Y0391580D01*
X0451286Y0391495D02*
X0451289Y0391496D01*
X0449795Y0391096D02*
X0451286Y0391495D01*
X0449792Y0391095D02*
X0449795Y0391096D01*
X0448004Y0390843D02*
X0449540Y0391045D01*
X0446973Y0390826D02*
X0447747Y0390826D01*
X0391487Y0599486D02*
X0392647Y0599486D01*
X0391293Y0599477D02*
X0391294Y0599477D01*
X0388985Y0599249D02*
X0391293Y0599477D01*
X0388984Y0599249D02*
X0388985Y0599249D01*
X0388790Y0599220D02*
X0388793Y0599221D01*
X0386520Y0598769D02*
X0388790Y0599220D01*
X0386517Y0598768D02*
X0386520Y0598769D01*
X0386325Y0598720D02*
X0386329Y0598721D01*
X0384112Y0598048D02*
X0386325Y0598720D01*
X0384108Y0598047D02*
X0384112Y0598048D01*
X0381782Y0597094D02*
X0383926Y0597982D01*
X0381606Y0597011D02*
X0381607Y0597012D01*
X0379562Y0595918D02*
X0381606Y0597011D01*
X0379560Y0595917D02*
X0379562Y0595918D01*
X0392648Y0560116D02*
X0458789Y0560116D01*
X0392648Y0473502D02*
X0424144D01*
X0377465Y0594529D02*
X0379395Y0595818D01*
X0377306Y0594411D02*
X0377309Y0594414D01*
X0375518Y0592944D02*
X0377306Y0594411D01*
X0375515Y0592941D02*
X0375518Y0592944D01*
X0375371Y0592810D02*
X0375372Y0592811D01*
X0373732Y0591171D02*
X0375371Y0592810D01*
X0373731Y0591170D02*
X0373732Y0591171D01*
X0373599Y0591024D02*
X0373601Y0591027D01*
X0372131Y0589235D02*
X0373599Y0591024D01*
X0372129Y0589233D02*
X0372131Y0589235D01*
X0372011Y0589074D02*
X0372014Y0589078D01*
X0370726Y0587151D02*
X0372011Y0589074D01*
X0370724Y0587148D02*
X0370726Y0587151D01*
X0370624Y0586980D02*
X0370625Y0586982D01*
X0369532Y0584937D02*
X0370624Y0586980D01*
X0369531Y0584935D02*
X0369532Y0584937D01*
X0368560Y0582616D02*
X0369448Y0584760D01*
X0368494Y0582430D02*
X0368495Y0582434D01*
X0367822Y0580217D02*
X0368494Y0582430D01*
X0367821Y0580213D02*
X0367822Y0580217D01*
X0367773Y0580021D02*
X0367774Y0580026D01*
X0367322Y0577753D02*
X0367773Y0580021D01*
X0367321Y0577749D02*
X0367322Y0577753D01*
X0367293Y0577557D02*
X0367293Y0577558D01*
X0367066Y0575249D02*
X0367293Y0577557D01*
X0367066Y0575248D02*
X0367066Y0575249D01*
X0367056Y0575055D02*
X0367056Y0573895D01*
X0382804Y0457754D02*
X0416269Y0457754D01*
X0382804Y0457754D02*
X0382804Y0453817D01*
X0416269Y0453817D01*
X0446973Y0390826D02*
X0446973D01*
X0379805Y0390843D02*
X0379805Y0390843D01*
X0379804Y0390843D02*
X0379805Y0390843D01*
X0378270Y0391044D02*
X0379804Y0390843D01*
X0378270Y0391045D02*
X0378270Y0391044D01*
X0378269Y0391045D02*
X0378270Y0391045D01*
X0380062Y0390826D02*
X0380836D01*
X0376274Y0391580D02*
X0376278Y0391578D01*
X0374851Y0392169D02*
X0376274Y0391580D01*
X0374847Y0392171D02*
X0374851Y0392169D01*
X0378014Y0391096D02*
X0378017Y0391095D01*
X0376524Y0391495D02*
X0378014Y0391096D01*
X0376521Y0391496D02*
X0376524Y0391495D01*
X0367073Y0403574D02*
X0367275Y0402039D01*
X0367056Y0573895D02*
Y0573895D01*
X0367056Y0403831D02*
Y0404605D01*
X0373275Y0393059D02*
X0374616Y0392285D01*
X0371638Y0394315D02*
X0371639Y0394314D01*
X0370546Y0395408D02*
X0371638Y0394315D01*
X0370545Y0395409D02*
X0370546Y0395408D01*
X0371833Y0394145D02*
X0373061Y0393202D01*
X0367809Y0400047D02*
X0368401Y0398617D01*
X0367325Y0401787D02*
X0367326Y0401784D01*
X0367725Y0400294D01*
X0367726Y0400291D01*
X0368515Y0398386D02*
X0368516Y0398384D01*
X0369288Y0397047D01*
X0369289Y0397045D01*
X0369432Y0396831D02*
X0369434Y0396828D01*
X0370373Y0395605D01*
X0370375Y0395603D01*
X0565037Y0582550D02*
G03*
X0564954Y0582794I-0001901J-0000510D01*
G01*
X0562198Y0588383D02*
G03*
X0562055Y0588596I-0001704J-0000985D01*
G01*
X0562199Y0588381D02*
G03*
X0562198Y0588383I-0001705J-0000984D01*
G01*
X0563810Y0585556D02*
G03*
X0563695Y0585790I-0001820J-0000750D01*
G01*
X0565863Y0579403D02*
G03*
X0565812Y0579659I-0001952J-0000254D01*
G01*
X0565862Y0579406D02*
G03*
X0565812Y0579659I-0001952J-0000257D01*
G01*
X0560233Y0590971D02*
G03*
X0560063Y0591164I-0001562J-0001198D01*
G01*
X0562198Y0588382D02*
G03*
X0562055Y0588596I-0001705J-0000984D01*
G01*
X0560233Y0590971D02*
G03*
X0560062Y0591165I-0001562J-0001198D01*
G01*
X0563695Y0585789D02*
G03*
X0563694Y0585790I-0001705J-0000984D01*
G01*
X0563809Y0585559D02*
G03*
X0563695Y0585789I-0001819J-0000753D01*
G01*
X0565037Y0582550D02*
G03*
X0564953Y0582796I-0001901J-0000510D01*
G01*
X0564302Y0560116D02*
G03*
X0566271Y0562085I0000000J0001969D01*
G01*
X0566270Y0576182D02*
G03*
X0566253Y0576438I-0001969J-0000000D01*
G01*
X0566270Y0576181D02*
G03*
X0566270Y0576182I-0001969J0000000D01*
G01*
X0566270Y0550274D02*
G03*
X0564302Y0552242I-0001969J-0000000D01*
G01*
X0564302Y0560116D02*
G03*
X0566271Y0562085I0000000J0001969D01*
G01*
X0566270Y0576182D02*
G03*
X0566253Y0576441I-0001969J-0000000D01*
G01*
X0566270Y0550274D02*
G03*
X0564302Y0552242I-0001969J-0000000D01*
G01*
X0552572Y0596912D02*
G03*
X0552341Y0597026I-0000984J-0001705D01*
G01*
X0546441Y0599029D02*
G03*
X0546188Y0599079I-0000509J-0001901D01*
G01*
X0549576Y0598171D02*
G03*
X0549332Y0598254I-0000753J-0001819D01*
G01*
X0555379Y0595272D02*
G03*
X0555164Y0595415I-0001198J-0001562D01*
G01*
X0552572Y0596912D02*
G03*
X0552341Y0597026I-0000984J-0001705D01*
G01*
X0555379Y0595272D02*
G03*
X0555164Y0595415I-0001198J-0001562D01*
G01*
X0549576Y0598171D02*
G03*
X0549332Y0598254I-0000753J-0001819D01*
G01*
X0543220Y0599470D02*
G03*
X0542964Y0599486I-0000256J-0001952D01*
G01*
X0543222Y0599470D02*
G03*
X0543220Y0599470I-0000258J-0001952D01*
G01*
X0543221Y0599470D02*
G03*
X0542964Y0599486I-0000257J-0001952D01*
G01*
X0546189Y0599079D02*
G03*
X0546188Y0599079I-0000258J-0001952D01*
G01*
X0546441Y0599029D02*
G03*
X0546189Y0599079I-0000509J-0001901D01*
G01*
X0557948Y0593280D02*
G03*
X0557753Y0593450I-0001393J-0001391D01*
G01*
X0557947Y0593281D02*
G03*
X0557753Y0593450I-0001392J-0001392D01*
G01*
X0508003Y0552242D02*
G03*
X0506035Y0550274I0000000J-0001969D01*
G01*
X0508003Y0552242D02*
G03*
X0506035Y0550274I0000000J-0001969D01*
G01*
Y0483345D02*
G03*
X0508003Y0481376I0001969J0000000D01*
G01*
X0506035Y0483345D02*
G03*
X0508003Y0481376I0001969J0000000D01*
G01*
X0566254Y0403579D02*
G03*
X0566271Y0403836I-0001952J0000257D01*
G01*
X0566254Y0403579D02*
G03*
X0566271Y0403836I-0001952J0000257D01*
G01*
X0566002Y0401791D02*
G03*
X0566052Y0402044I-0001901J0000509D01*
G01*
X0566001Y0401787D02*
G03*
X0566052Y0402044I-0001900J0000514D01*
G01*
X0565518Y0400051D02*
G03*
X0565602Y0400299I-0001819J0000753D01*
G01*
X0565517Y0400048D02*
G03*
X0565601Y0400295I-0001817J0000757D01*
G01*
X0564812Y0398389D02*
G03*
X0564927Y0398623I-0001705J0000984D01*
G01*
X0563894Y0396833D02*
G03*
X0564037Y0397047I-0001562J0001198D01*
G01*
X0562781Y0395411D02*
G03*
X0562952Y0395606I-0001392J0001392D01*
G01*
X0564812Y0398389D02*
G03*
X0564925Y0398620I-0001705J0000984D01*
G01*
X0563893Y0396832D02*
G03*
X0564037Y0397047I-0001561J0001200D01*
G01*
X0562780Y0395410D02*
G03*
X0562951Y0395604I-0001391J0001393D01*
G01*
X0561492Y0394146D02*
G03*
X0561687Y0394317I-0001198J0001562D01*
G01*
X0561490Y0394144D02*
G03*
X0561686Y0394316I-0001196J0001564D01*
G01*
X0560049Y0393060D02*
G03*
X0560263Y0393203I-0000984J0001705D01*
G01*
X0560049Y0393060D02*
G03*
X0560266Y0393205I-0000984J0001705D01*
G01*
X0558477Y0392171D02*
G03*
X0558708Y0392285I-0000753J0001819D01*
G01*
X0556802Y0391496D02*
G03*
X0557049Y0391580I-0000509J0001901D01*
G01*
X0558473Y0392170D02*
G03*
X0558708Y0392285I-0000750J0001820D01*
G01*
X0555053Y0391045D02*
G03*
X0555308Y0391096I-0000257J0001952D01*
G01*
X0556799Y0391495D02*
G03*
X0557046Y0391579I-0000507J0001902D01*
G01*
X0555053Y0391045D02*
G03*
X0555306Y0391095I-0000257J0001952D01*
G01*
X0553260Y0390826D02*
G03*
X0553517Y0390843I0000000J0001969D01*
G01*
X0553260Y0390826D02*
G03*
X0553517Y0390843I0000000J0001969D01*
G01*
X0497000Y0599486D02*
G03*
X0496807Y0599477I0000000J-0001969D01*
G01*
X0494498Y0599249D02*
G03*
X0494306Y0599221I0000192J-0001959D01*
G01*
X0497000Y0599486D02*
G03*
X0496806Y0599477I0000000J-0001969D01*
G01*
X0492033Y0598769D02*
G03*
X0491842Y0598721I0000381J-0001931D01*
G01*
X0489625Y0598048D02*
G03*
X0489439Y0597982I0000568J-0001885D01*
G01*
X0494497Y0599249D02*
G03*
X0494303Y0599220I0000193J-0001959D01*
G01*
X0492030Y0598768D02*
G03*
X0491839Y0598720I0000384J-0001931D01*
G01*
X0489621Y0598047D02*
G03*
X0489439Y0597982I0000571J-0001884D01*
G01*
X0487295Y0597094D02*
G03*
X0487120Y0597012I0000753J-0001819D01*
G01*
X0487295Y0597094D02*
G03*
X0487119Y0597011I0000753J-0001819D01*
G01*
X0485075Y0595918D02*
G03*
X0484908Y0595818I0000926J-0001737D01*
G01*
X0485074Y0595917D02*
G03*
X0484908Y0595818I0000928J-0001736D01*
G01*
X0482978Y0594529D02*
G03*
X0482823Y0594414I0001094J-0001637D01*
G01*
X0482978Y0594529D02*
G03*
X0482820Y0594411I0001094J-0001637D01*
G01*
X0481032Y0592944D02*
G03*
X0480885Y0592811I0001246J-0001524D01*
G01*
X0481029Y0592941D02*
G03*
X0480884Y0592810I0001249J-0001522D01*
G01*
X0479245Y0591171D02*
G03*
X0479114Y0591027I0001391J-0001393D01*
G01*
X0479244Y0591170D02*
G03*
X0479112Y0591024I0001392J-0001392D01*
G01*
X0477644Y0589235D02*
G03*
X0477527Y0589078I0001520J-0001252D01*
G01*
X0477642Y0589233D02*
G03*
X0477525Y0589074I0001522J-0001249D01*
G01*
X0476240Y0587151D02*
G03*
X0476138Y0586982I0001635J-0001097D01*
G01*
X0476237Y0587148D02*
G03*
X0476137Y0586980I0001637J-0001094D01*
G01*
X0475045Y0584937D02*
G03*
X0474961Y0584760I0001735J-0000930D01*
G01*
X0475044Y0584935D02*
G03*
X0474961Y0584760I0001736J-0000928D01*
G01*
X0474073Y0582616D02*
G03*
X0474008Y0582434I0001819J-0000753D01*
G01*
X0474073Y0582616D02*
G03*
X0474007Y0582430I0001819J-0000753D01*
G01*
X0473336Y0580217D02*
G03*
X0473287Y0580026I0001883J-0000575D01*
G01*
X0473334Y0580213D02*
G03*
X0473287Y0580021I0001884J-0000571D01*
G01*
X0472835Y0577753D02*
G03*
X0472806Y0577558I0001930J-0000388D01*
G01*
X0472835Y0577749D02*
G03*
X0472806Y0577557I0001931J-0000384D01*
G01*
X0472579Y0575249D02*
G03*
X0472569Y0575055I0001959J-0000194D01*
G01*
X0472579Y0575248D02*
G03*
X0472569Y0575055I0001959J-0000193D01*
G01*
X0480129Y0392285D02*
G03*
X0480361Y0392171I0000984J0001705D01*
G01*
X0478575Y0393202D02*
G03*
X0478789Y0393059I0001198J0001562D01*
G01*
X0477153Y0394314D02*
G03*
X0477346Y0394145I0001392J0001392D01*
G01*
X0485318Y0390843D02*
G03*
X0485575Y0390826I0000257J0001952D01*
G01*
X0480129Y0392285D02*
G03*
X0480364Y0392169I0000984J0001705D01*
G01*
X0481787Y0391580D02*
G03*
X0482035Y0391496I0000757J0001817D01*
G01*
X0478575Y0393202D02*
G03*
X0478789Y0393059I0001198J0001562D01*
G01*
X0485319Y0390843D02*
G03*
X0485575Y0390826I0000256J0001952D01*
G01*
X0485317Y0390843D02*
G03*
X0485319Y0390843I0000258J0001952D01*
G01*
X0481791Y0391578D02*
G03*
X0482037Y0391495I0000753J0001819D01*
G01*
X0483782Y0391045D02*
G03*
X0483784Y0391044I0000258J0001952D01*
G01*
X0483530Y0391095D02*
G03*
X0483782Y0391045I0000509J0001901D01*
G01*
X0483528Y0391096D02*
G03*
X0483783Y0391045I0000512J0001901D01*
G01*
X0473239Y0400294D02*
G03*
X0473322Y0400047I0001902J0000507D01*
G01*
X0472788Y0402039D02*
G03*
X0472838Y0401787I0001952J0000257D01*
G01*
X0472788Y0402039D02*
G03*
X0472839Y0401784I0001952J0000257D01*
G01*
X0472569Y0403831D02*
G03*
X0472586Y0403574I0001969J0000000D01*
G01*
X0472569Y0403831D02*
G03*
X0472586Y0403574I0001969J0000000D01*
G01*
X0477152Y0394315D02*
G03*
X0477346Y0394145I0001393J0001391D01*
G01*
X0473914Y0398617D02*
G03*
X0474028Y0398386I0001819J0000753D01*
G01*
X0473239Y0400291D02*
G03*
X0473322Y0400047I0001901J0000509D01*
G01*
X0473914Y0398617D02*
G03*
X0474030Y0398384I0001819J0000753D01*
G01*
X0475886Y0395605D02*
G03*
X0476058Y0395409I0001564J0001196D01*
G01*
X0474802Y0397045D02*
G03*
X0474948Y0396828I0001705J0000984D01*
G01*
X0475888Y0395603D02*
G03*
X0476059Y0395408I0001562J0001198D01*
G01*
X0474801Y0397047D02*
G03*
X0474945Y0396831I0001706J0000982D01*
G01*
X0566271Y0550274D02*
Y0562085D01*
X0566271Y0550274D02*
X0566271D01*
X0566270D02*
X0566271D01*
X0563809Y0585559D02*
X0563810Y0585556D01*
X0564953Y0582796D01*
X0564954Y0582794D01*
X0562198Y0588383D02*
X0562198Y0588382D01*
X0562199Y0588381D01*
X0563694Y0585790D01*
X0563695Y0585790D01*
X0563695Y0585789D01*
X0565862Y0579406D02*
X0565863Y0579403D01*
X0566253Y0576441D01*
X0566253Y0576438D01*
X0565037Y0582550D02*
X0565812Y0579659D01*
X0560233Y0590971D02*
X0562055Y0588596D01*
X0560062Y0591165D02*
X0560063Y0591164D01*
X0557948Y0593280D02*
X0560062Y0591165D01*
X0557947Y0593281D02*
X0557948Y0593280D01*
X0508003Y0552242D02*
X0564302Y0552242D01*
X0549576Y0598171D02*
X0552341Y0597026D01*
X0552572Y0596912D02*
X0555164Y0595415D01*
X0546441Y0599029D02*
X0549332Y0598254D01*
X0546188Y0599079D02*
X0546189Y0599079D01*
X0546188Y0599079D02*
X0546188Y0599079D01*
X0543222Y0599470D02*
X0546188Y0599079D01*
X0543221Y0599470D02*
X0543222Y0599470D01*
X0543220Y0599470D02*
X0543221Y0599470D01*
X0541468Y0599486D02*
X0542964Y0599486D01*
X0555379Y0595272D02*
X0557753Y0593450D01*
X0506035Y0483345D02*
Y0550274D01*
X0508003Y0481376D02*
X0529657D01*
X0566052Y0402044D02*
X0566254Y0403579D01*
X0566001Y0401787D02*
X0566002Y0401791D01*
X0565602Y0400299D02*
X0566001Y0401787D01*
X0565601Y0400295D02*
X0565602Y0400299D01*
X0565517Y0400048D02*
X0565518Y0400051D01*
X0564927Y0398623D02*
X0565517Y0400048D01*
X0564925Y0398620D02*
X0564927Y0398623D01*
X0564037Y0397047D02*
X0564812Y0398389D01*
X0563893Y0396832D02*
X0563894Y0396833D01*
X0562952Y0395606D02*
X0563893Y0396832D01*
X0562951Y0395604D02*
X0562952Y0395606D01*
X0562780Y0395410D02*
X0562781Y0395411D01*
X0561687Y0394317D02*
X0562780Y0395410D01*
X0561686Y0394316D02*
X0561687Y0394317D01*
X0561490Y0394144D02*
X0561492Y0394146D01*
X0560266Y0393205D02*
X0561490Y0394144D01*
X0560263Y0393203D02*
X0560266Y0393205D01*
X0529657Y0473502D02*
Y0481376D01*
X0498161Y0473502D02*
Y0560116D01*
X0521783Y0457754D02*
X0521783Y0453817D01*
X0558708Y0392285D02*
X0560049Y0393060D01*
X0558473Y0392170D02*
X0558477Y0392171D01*
X0557049Y0391580D02*
X0558473Y0392170D01*
X0557046Y0391579D02*
X0557049Y0391580D01*
X0556799Y0391495D02*
X0556802Y0391496D01*
X0555308Y0391096D02*
X0556799Y0391495D01*
X0555306Y0391095D02*
X0555308Y0391096D01*
X0553517Y0390843D02*
X0555053Y0391045D01*
X0552486Y0390826D02*
X0553260Y0390826D01*
X0497000Y0599486D02*
X0498161Y0599486D01*
X0496806Y0599477D02*
X0496807Y0599477D01*
X0494498Y0599249D02*
X0496806Y0599477D01*
X0494497Y0599249D02*
X0494498Y0599249D01*
X0494303Y0599220D02*
X0494306Y0599221D01*
X0492033Y0598769D02*
X0494303Y0599220D01*
X0492030Y0598768D02*
X0492033Y0598769D01*
X0491839Y0598720D02*
X0491842Y0598721D01*
X0489625Y0598048D02*
X0491839Y0598720D01*
X0489621Y0598047D02*
X0489625Y0598048D01*
X0487295Y0597094D02*
X0489439Y0597982D01*
X0487119Y0597011D02*
X0487120Y0597012D01*
X0485075Y0595918D02*
X0487119Y0597011D01*
X0485074Y0595917D02*
X0485075Y0595918D01*
X0498161Y0560116D02*
X0564302Y0560116D01*
X0498161Y0473502D02*
X0529657D01*
X0482978Y0594529D02*
X0484908Y0595818D01*
X0482820Y0594411D02*
X0482823Y0594414D01*
X0481032Y0592944D02*
X0482820Y0594411D01*
X0481029Y0592941D02*
X0481032Y0592944D01*
X0480884Y0592810D02*
X0480885Y0592811D01*
X0479245Y0591171D02*
X0480884Y0592810D01*
X0479244Y0591170D02*
X0479245Y0591171D01*
X0479112Y0591024D02*
X0479114Y0591027D01*
X0477644Y0589235D02*
X0479112Y0591024D01*
X0477642Y0589233D02*
X0477644Y0589235D01*
X0477525Y0589074D02*
X0477527Y0589078D01*
X0476240Y0587151D02*
X0477525Y0589074D01*
X0476237Y0587148D02*
X0476240Y0587151D01*
X0476137Y0586980D02*
X0476138Y0586982D01*
X0475045Y0584937D02*
X0476137Y0586980D01*
X0475044Y0584935D02*
X0475045Y0584937D01*
X0474073Y0582616D02*
X0474961Y0584760D01*
X0474007Y0582430D02*
X0474008Y0582434D01*
X0473336Y0580217D02*
X0474007Y0582430D01*
X0473334Y0580213D02*
X0473336Y0580217D01*
X0473287Y0580021D02*
X0473287Y0580026D01*
X0472835Y0577753D02*
X0473287Y0580021D01*
X0472835Y0577749D02*
X0472835Y0577753D01*
X0472806Y0577557D02*
X0472806Y0577558D01*
X0472579Y0575249D02*
X0472806Y0577557D01*
X0472579Y0575248D02*
X0472579Y0575249D01*
X0472569Y0575055D02*
X0472569Y0573895D01*
X0488317Y0457754D02*
X0521783Y0457754D01*
X0488317Y0457754D02*
X0488317Y0453817D01*
X0521783Y0453817D01*
X0552486Y0390826D02*
X0552486D01*
X0485318Y0390843D02*
X0485319Y0390843D01*
X0485317Y0390843D02*
X0485318Y0390843D01*
X0483784Y0391044D02*
X0485317Y0390843D01*
X0483783Y0391045D02*
X0483784Y0391044D01*
X0483782Y0391045D02*
X0483783Y0391045D01*
X0485575Y0390826D02*
X0486349D01*
X0481787Y0391580D02*
X0481791Y0391578D01*
X0480364Y0392169D02*
X0481787Y0391580D01*
X0480361Y0392171D02*
X0480364Y0392169D01*
X0483528Y0391096D02*
X0483530Y0391095D01*
X0482037Y0391495D02*
X0483528Y0391096D01*
X0482035Y0391496D02*
X0482037Y0391495D01*
X0472586Y0403574D02*
X0472788Y0402039D01*
X0472569Y0573895D02*
Y0573895D01*
X0472569Y0403831D02*
Y0404605D01*
X0478789Y0393059D02*
X0480129Y0392285D01*
X0477152Y0394315D02*
X0477153Y0394314D01*
X0476059Y0395408D02*
X0477152Y0394315D01*
X0476058Y0395409D02*
X0476059Y0395408D01*
X0477346Y0394145D02*
X0478575Y0393202D01*
X0473322Y0400047D02*
X0473914Y0398617D01*
X0472838Y0401787D02*
X0472839Y0401784D01*
X0473239Y0400294D01*
X0473239Y0400291D01*
X0474028Y0398386D02*
X0474030Y0398384D01*
X0474801Y0397047D01*
X0474802Y0397045D01*
X0474945Y0396831D02*
X0474948Y0396828D01*
X0475886Y0395605D01*
X0475888Y0395603D01*
X0670550Y0582550D02*
G03*
X0670468Y0582794I-0001901J-0000510D01*
G01*
X0667711Y0588383D02*
G03*
X0667568Y0588596I-0001704J-0000985D01*
G01*
X0667712Y0588381D02*
G03*
X0667711Y0588383I-0001705J-0000984D01*
G01*
X0669323Y0585556D02*
G03*
X0669208Y0585790I-0001820J-0000750D01*
G01*
X0671376Y0579403D02*
G03*
X0671325Y0579659I-0001952J-0000254D01*
G01*
X0671375Y0579406D02*
G03*
X0671325Y0579659I-0001952J-0000257D01*
G01*
X0665746Y0590971D02*
G03*
X0665577Y0591164I-0001562J-0001198D01*
G01*
X0667711Y0588382D02*
G03*
X0667568Y0588596I-0001705J-0000984D01*
G01*
X0665746Y0590971D02*
G03*
X0665576Y0591165I-0001562J-0001198D01*
G01*
X0669209Y0585789D02*
G03*
X0669208Y0585790I-0001705J-0000984D01*
G01*
X0669322Y0585559D02*
G03*
X0669209Y0585789I-0001819J-0000753D01*
G01*
X0670550Y0582550D02*
G03*
X0670466Y0582796I-0001901J-0000510D01*
G01*
X0669815Y0560116D02*
G03*
X0671784Y0562085I0000000J0001969D01*
G01*
X0671783Y0576182D02*
G03*
X0671766Y0576438I-0001969J-0000000D01*
G01*
X0671783Y0576181D02*
G03*
X0671783Y0576182I-0001969J0000000D01*
G01*
X0671784Y0550274D02*
G03*
X0669815Y0552242I-0001969J-0000000D01*
G01*
X0669815Y0560116D02*
G03*
X0671784Y0562085I0000000J0001969D01*
G01*
X0671783Y0576182D02*
G03*
X0671766Y0576441I-0001969J-0000000D01*
G01*
X0671784Y0550274D02*
G03*
X0669815Y0552242I-0001969J-0000000D01*
G01*
X0658085Y0596912D02*
G03*
X0657855Y0597026I-0000984J-0001705D01*
G01*
X0651954Y0599029D02*
G03*
X0651702Y0599079I-0000509J-0001901D01*
G01*
X0655089Y0598171D02*
G03*
X0654845Y0598254I-0000753J-0001819D01*
G01*
X0660892Y0595272D02*
G03*
X0660678Y0595415I-0001198J-0001562D01*
G01*
X0658085Y0596912D02*
G03*
X0657855Y0597026I-0000984J-0001705D01*
G01*
X0660892Y0595272D02*
G03*
X0660678Y0595415I-0001198J-0001562D01*
G01*
X0655089Y0598171D02*
G03*
X0654845Y0598254I-0000753J-0001819D01*
G01*
X0648733Y0599470D02*
G03*
X0648477Y0599486I-0000256J-0001952D01*
G01*
X0648735Y0599470D02*
G03*
X0648733Y0599470I-0000258J-0001952D01*
G01*
X0648734Y0599470D02*
G03*
X0648477Y0599486I-0000257J-0001952D01*
G01*
X0651703Y0599079D02*
G03*
X0651701Y0599079I-0000258J-0001952D01*
G01*
X0651954Y0599029D02*
G03*
X0651703Y0599079I-0000509J-0001901D01*
G01*
X0663461Y0593280D02*
G03*
X0663266Y0593450I-0001393J-0001391D01*
G01*
X0663460Y0593281D02*
G03*
X0663266Y0593450I-0001392J-0001392D01*
G01*
X0613517Y0552242D02*
G03*
X0611548Y0550274I0000000J-0001969D01*
G01*
X0613517Y0552242D02*
G03*
X0611548Y0550274I0000000J-0001969D01*
G01*
Y0483345D02*
G03*
X0613517Y0481376I0001969J0000000D01*
G01*
X0611548Y0483345D02*
G03*
X0613517Y0481376I0001969J0000000D01*
G01*
X0671768Y0403579D02*
G03*
X0671784Y0403836I-0001952J0000257D01*
G01*
X0671768Y0403579D02*
G03*
X0671784Y0403836I-0001952J0000257D01*
G01*
X0671515Y0401791D02*
G03*
X0671565Y0402044I-0001901J0000509D01*
G01*
X0671514Y0401787D02*
G03*
X0671565Y0402044I-0001900J0000514D01*
G01*
X0671031Y0400051D02*
G03*
X0671115Y0400299I-0001819J0000753D01*
G01*
X0671030Y0400048D02*
G03*
X0671114Y0400295I-0001817J0000757D01*
G01*
X0670325Y0398389D02*
G03*
X0670440Y0398623I-0001705J0000984D01*
G01*
X0669407Y0396833D02*
G03*
X0669550Y0397047I-0001562J0001198D01*
G01*
X0668294Y0395411D02*
G03*
X0668465Y0395606I-0001392J0001392D01*
G01*
X0670325Y0398389D02*
G03*
X0670439Y0398620I-0001705J0000984D01*
G01*
X0669406Y0396832D02*
G03*
X0669550Y0397047I-0001561J0001200D01*
G01*
X0668293Y0395410D02*
G03*
X0668464Y0395604I-0001391J0001393D01*
G01*
X0667005Y0394146D02*
G03*
X0667200Y0394317I-0001198J0001562D01*
G01*
X0667003Y0394144D02*
G03*
X0667199Y0394316I-0001196J0001564D01*
G01*
X0665562Y0393060D02*
G03*
X0665777Y0393203I-0000984J0001705D01*
G01*
X0665562Y0393060D02*
G03*
X0665779Y0393205I-0000984J0001705D01*
G01*
X0663990Y0392171D02*
G03*
X0664221Y0392285I-0000753J0001819D01*
G01*
X0662315Y0391496D02*
G03*
X0662562Y0391580I-0000509J0001901D01*
G01*
X0663987Y0392170D02*
G03*
X0664221Y0392285I-0000750J0001820D01*
G01*
X0660566Y0391045D02*
G03*
X0660821Y0391096I-0000257J0001952D01*
G01*
X0662313Y0391495D02*
G03*
X0662559Y0391579I-0000507J0001902D01*
G01*
X0660566Y0391045D02*
G03*
X0660819Y0391095I-0000257J0001952D01*
G01*
X0658774Y0390826D02*
G03*
X0659031Y0390843I0000000J0001969D01*
G01*
X0658774Y0390826D02*
G03*
X0659031Y0390843I0000000J0001969D01*
G01*
X0602513Y0599486D02*
G03*
X0602320Y0599477I0000000J-0001969D01*
G01*
X0600012Y0599249D02*
G03*
X0599819Y0599221I0000192J-0001959D01*
G01*
X0602513Y0599486D02*
G03*
X0602319Y0599477I0000000J-0001969D01*
G01*
X0597546Y0598769D02*
G03*
X0597356Y0598721I0000381J-0001931D01*
G01*
X0595138Y0598048D02*
G03*
X0594953Y0597982I0000568J-0001885D01*
G01*
X0600010Y0599249D02*
G03*
X0599816Y0599220I0000193J-0001959D01*
G01*
X0597543Y0598768D02*
G03*
X0597352Y0598720I0000384J-0001931D01*
G01*
X0595134Y0598047D02*
G03*
X0594953Y0597982I0000571J-0001884D01*
G01*
X0592808Y0597094D02*
G03*
X0592634Y0597012I0000753J-0001819D01*
G01*
X0592808Y0597094D02*
G03*
X0592632Y0597011I0000753J-0001819D01*
G01*
X0590588Y0595918D02*
G03*
X0590421Y0595818I0000926J-0001737D01*
G01*
X0590587Y0595917D02*
G03*
X0590421Y0595818I0000928J-0001736D01*
G01*
X0588491Y0594529D02*
G03*
X0588336Y0594414I0001094J-0001637D01*
G01*
X0588491Y0594529D02*
G03*
X0588333Y0594411I0001094J-0001637D01*
G01*
X0586545Y0592944D02*
G03*
X0586399Y0592811I0001246J-0001524D01*
G01*
X0586542Y0592941D02*
G03*
X0586398Y0592810I0001249J-0001522D01*
G01*
X0584759Y0591171D02*
G03*
X0584628Y0591027I0001391J-0001393D01*
G01*
X0584757Y0591170D02*
G03*
X0584625Y0591024I0001392J-0001392D01*
G01*
X0583157Y0589235D02*
G03*
X0583040Y0589078I0001520J-0001252D01*
G01*
X0583155Y0589233D02*
G03*
X0583038Y0589074I0001522J-0001249D01*
G01*
X0581753Y0587151D02*
G03*
X0581651Y0586982I0001635J-0001097D01*
G01*
X0581751Y0587148D02*
G03*
X0581650Y0586980I0001637J-0001094D01*
G01*
X0580558Y0584937D02*
G03*
X0580475Y0584760I0001735J-0000930D01*
G01*
X0580557Y0584935D02*
G03*
X0580475Y0584760I0001736J-0000928D01*
G01*
X0579586Y0582616D02*
G03*
X0579521Y0582434I0001819J-0000753D01*
G01*
X0579586Y0582616D02*
G03*
X0579520Y0582430I0001819J-0000753D01*
G01*
X0578849Y0580217D02*
G03*
X0578801Y0580026I0001883J-0000575D01*
G01*
X0578848Y0580213D02*
G03*
X0578800Y0580021I0001884J-0000571D01*
G01*
X0578349Y0577753D02*
G03*
X0578320Y0577558I0001930J-0000388D01*
G01*
X0578348Y0577749D02*
G03*
X0578319Y0577557I0001931J-0000384D01*
G01*
X0578092Y0575249D02*
G03*
X0578083Y0575055I0001959J-0000194D01*
G01*
X0578092Y0575248D02*
G03*
X0578083Y0575055I0001959J-0000193D01*
G01*
X0585643Y0392285D02*
G03*
X0585874Y0392171I0000984J0001705D01*
G01*
X0584088Y0393202D02*
G03*
X0584302Y0393059I0001198J0001562D01*
G01*
X0582666Y0394314D02*
G03*
X0582860Y0394145I0001392J0001392D01*
G01*
X0590831Y0390843D02*
G03*
X0591088Y0390826I0000257J0001952D01*
G01*
X0585643Y0392285D02*
G03*
X0585877Y0392169I0000984J0001705D01*
G01*
X0587301Y0391580D02*
G03*
X0587548Y0391496I0000757J0001817D01*
G01*
X0584088Y0393202D02*
G03*
X0584302Y0393059I0001198J0001562D01*
G01*
X0590832Y0390843D02*
G03*
X0591088Y0390826I0000256J0001952D01*
G01*
X0590830Y0390843D02*
G03*
X0590832Y0390843I0000258J0001952D01*
G01*
X0587304Y0391578D02*
G03*
X0587550Y0391495I0000753J0001819D01*
G01*
X0589295Y0391045D02*
G03*
X0589297Y0391044I0000258J0001952D01*
G01*
X0589043Y0391095D02*
G03*
X0589295Y0391045I0000509J0001901D01*
G01*
X0589041Y0391096D02*
G03*
X0589296Y0391045I0000512J0001901D01*
G01*
X0578752Y0400294D02*
G03*
X0578835Y0400047I0001902J0000507D01*
G01*
X0578301Y0402039D02*
G03*
X0578352Y0401787I0001952J0000257D01*
G01*
X0578301Y0402039D02*
G03*
X0578352Y0401784I0001952J0000257D01*
G01*
X0578083Y0403831D02*
G03*
X0578099Y0403574I0001969J0000000D01*
G01*
X0578083Y0403831D02*
G03*
X0578099Y0403574I0001969J0000000D01*
G01*
X0582665Y0394315D02*
G03*
X0582860Y0394145I0001393J0001391D01*
G01*
X0579428Y0398617D02*
G03*
X0579542Y0398386I0001819J0000753D01*
G01*
X0578752Y0400291D02*
G03*
X0578835Y0400047I0001901J0000509D01*
G01*
X0579428Y0398617D02*
G03*
X0579543Y0398384I0001819J0000753D01*
G01*
X0581399Y0395605D02*
G03*
X0581571Y0395409I0001564J0001196D01*
G01*
X0580316Y0397045D02*
G03*
X0580461Y0396828I0001705J0000984D01*
G01*
X0581401Y0395603D02*
G03*
X0581572Y0395408I0001562J0001198D01*
G01*
X0580314Y0397047D02*
G03*
X0580459Y0396831I0001706J0000982D01*
G01*
X0671784Y0550274D02*
Y0562085D01*
X0671784Y0550274D02*
X0671784D01*
X0671784D02*
X0671784D01*
X0669322Y0585559D02*
X0669323Y0585556D01*
X0670466Y0582796D01*
X0670468Y0582794D01*
X0667711Y0588383D02*
X0667711Y0588382D01*
X0667712Y0588381D01*
X0669208Y0585790D01*
X0669208Y0585790D01*
X0669209Y0585789D01*
X0671375Y0579406D02*
X0671376Y0579403D01*
X0671766Y0576441D01*
X0671766Y0576438D01*
X0670550Y0582550D02*
X0671325Y0579659D01*
X0665746Y0590971D02*
X0667568Y0588596D01*
X0665576Y0591165D02*
X0665577Y0591164D01*
X0663461Y0593280D02*
X0665576Y0591165D01*
X0663460Y0593281D02*
X0663461Y0593280D01*
X0613517Y0552242D02*
X0669815Y0552242D01*
X0655089Y0598171D02*
X0657855Y0597026D01*
X0658085Y0596912D02*
X0660678Y0595415D01*
X0651954Y0599029D02*
X0654845Y0598254D01*
X0651702Y0599079D02*
X0651703Y0599079D01*
X0651701Y0599079D02*
X0651702Y0599079D01*
X0648735Y0599470D02*
X0651701Y0599079D01*
X0648734Y0599470D02*
X0648735Y0599470D01*
X0648733Y0599470D02*
X0648734Y0599470D01*
X0646981Y0599486D02*
X0648477Y0599486D01*
X0660892Y0595272D02*
X0663266Y0593450D01*
X0611548Y0483345D02*
Y0550274D01*
X0613517Y0481376D02*
X0635170D01*
X0671565Y0402044D02*
X0671768Y0403579D01*
X0671514Y0401787D02*
X0671515Y0401791D01*
X0671115Y0400299D02*
X0671514Y0401787D01*
X0671114Y0400295D02*
X0671115Y0400299D01*
X0671030Y0400048D02*
X0671031Y0400051D01*
X0670440Y0398623D02*
X0671030Y0400048D01*
X0670439Y0398620D02*
X0670440Y0398623D01*
X0669550Y0397047D02*
X0670325Y0398389D01*
X0669406Y0396832D02*
X0669407Y0396833D01*
X0668465Y0395606D02*
X0669406Y0396832D01*
X0668464Y0395604D02*
X0668465Y0395606D01*
X0668293Y0395410D02*
X0668294Y0395411D01*
X0667200Y0394317D02*
X0668293Y0395410D01*
X0667199Y0394316D02*
X0667200Y0394317D01*
X0667003Y0394144D02*
X0667005Y0394146D01*
X0665779Y0393205D02*
X0667003Y0394144D01*
X0665777Y0393203D02*
X0665779Y0393205D01*
X0635170Y0473502D02*
Y0481376D01*
X0603674Y0473502D02*
Y0560116D01*
X0627296Y0457754D02*
X0627296Y0453817D01*
X0664221Y0392285D02*
X0665562Y0393060D01*
X0663987Y0392170D02*
X0663990Y0392171D01*
X0662562Y0391580D02*
X0663987Y0392170D01*
X0662559Y0391579D02*
X0662562Y0391580D01*
X0662313Y0391495D02*
X0662315Y0391496D01*
X0660821Y0391096D02*
X0662313Y0391495D01*
X0660819Y0391095D02*
X0660821Y0391096D01*
X0659031Y0390843D02*
X0660566Y0391045D01*
X0657999Y0390826D02*
X0658774Y0390826D01*
X0602513Y0599486D02*
X0603674Y0599486D01*
X0602319Y0599477D02*
X0602320Y0599477D01*
X0600012Y0599249D02*
X0602319Y0599477D01*
X0600010Y0599249D02*
X0600012Y0599249D01*
X0599816Y0599220D02*
X0599819Y0599221D01*
X0597546Y0598769D02*
X0599816Y0599220D01*
X0597543Y0598768D02*
X0597546Y0598769D01*
X0597352Y0598720D02*
X0597356Y0598721D01*
X0595138Y0598048D02*
X0597352Y0598720D01*
X0595134Y0598047D02*
X0595138Y0598048D01*
X0592808Y0597094D02*
X0594953Y0597982D01*
X0592632Y0597011D02*
X0592634Y0597012D01*
X0590588Y0595918D02*
X0592632Y0597011D01*
X0590587Y0595917D02*
X0590588Y0595918D01*
X0603674Y0560116D02*
X0669815Y0560116D01*
X0603674Y0473502D02*
X0635170D01*
X0588491Y0594529D02*
X0590421Y0595818D01*
X0588333Y0594411D02*
X0588336Y0594414D01*
X0586545Y0592944D02*
X0588333Y0594411D01*
X0586542Y0592941D02*
X0586545Y0592944D01*
X0586398Y0592810D02*
X0586399Y0592811D01*
X0584759Y0591171D02*
X0586398Y0592810D01*
X0584757Y0591170D02*
X0584759Y0591171D01*
X0584625Y0591024D02*
X0584628Y0591027D01*
X0583157Y0589235D02*
X0584625Y0591024D01*
X0583155Y0589233D02*
X0583157Y0589235D01*
X0583038Y0589074D02*
X0583040Y0589078D01*
X0581753Y0587151D02*
X0583038Y0589074D01*
X0581751Y0587148D02*
X0581753Y0587151D01*
X0581650Y0586980D02*
X0581651Y0586982D01*
X0580558Y0584937D02*
X0581650Y0586980D01*
X0580557Y0584935D02*
X0580558Y0584937D01*
X0579586Y0582616D02*
X0580475Y0584760D01*
X0579520Y0582430D02*
X0579521Y0582434D01*
X0578849Y0580217D02*
X0579520Y0582430D01*
X0578848Y0580213D02*
X0578849Y0580217D01*
X0578800Y0580021D02*
X0578801Y0580026D01*
X0578349Y0577753D02*
X0578800Y0580021D01*
X0578348Y0577749D02*
X0578349Y0577753D01*
X0578319Y0577557D02*
X0578320Y0577558D01*
X0578092Y0575249D02*
X0578319Y0577557D01*
X0578092Y0575248D02*
X0578092Y0575249D01*
X0578083Y0575055D02*
X0578083Y0573895D01*
X0593831Y0457754D02*
X0627296Y0457754D01*
X0593831Y0457754D02*
X0593831Y0453817D01*
X0627296Y0453817D01*
X0657999Y0390826D02*
X0657999D01*
X0590831Y0390843D02*
X0590832Y0390843D01*
X0590830Y0390843D02*
X0590831Y0390843D01*
X0589297Y0391044D02*
X0590830Y0390843D01*
X0589296Y0391045D02*
X0589297Y0391044D01*
X0589295Y0391045D02*
X0589296Y0391045D01*
X0591088Y0390826D02*
X0591862D01*
X0587301Y0391580D02*
X0587304Y0391578D01*
X0585877Y0392169D02*
X0587301Y0391580D01*
X0585874Y0392171D02*
X0585877Y0392169D01*
X0589041Y0391096D02*
X0589043Y0391095D01*
X0587550Y0391495D02*
X0589041Y0391096D01*
X0587548Y0391496D02*
X0587550Y0391495D01*
X0578099Y0403574D02*
X0578301Y0402039D01*
X0578083Y0573895D02*
Y0573895D01*
X0578083Y0403831D02*
Y0404605D01*
X0584302Y0393059D02*
X0585643Y0392285D01*
X0582665Y0394315D02*
X0582666Y0394314D01*
X0581572Y0395408D02*
X0582665Y0394315D01*
X0581571Y0395409D02*
X0581572Y0395408D01*
X0582860Y0394145D02*
X0584088Y0393202D01*
X0578835Y0400047D02*
X0579428Y0398617D01*
X0578352Y0401787D02*
X0578352Y0401784D01*
X0578752Y0400294D01*
X0578752Y0400291D01*
X0579542Y0398386D02*
X0579543Y0398384D01*
X0580314Y0397047D01*
X0580316Y0397045D01*
X0580459Y0396831D02*
X0580461Y0396828D01*
X0581399Y0395605D01*
X0581401Y0395603D01*
X0776063Y0582550D02*
G03*
X0775981Y0582794I-0001901J-0000510D01*
G01*
X0773224Y0588383D02*
G03*
X0773082Y0588596I-0001704J-0000985D01*
G01*
X0773225Y0588381D02*
G03*
X0773224Y0588383I-0001705J-0000984D01*
G01*
X0774836Y0585556D02*
G03*
X0774721Y0585790I-0001820J-0000750D01*
G01*
X0776889Y0579403D02*
G03*
X0776838Y0579659I-0001952J-0000254D01*
G01*
X0776889Y0579406D02*
G03*
X0776838Y0579659I-0001952J-0000257D01*
G01*
X0771260Y0590971D02*
G03*
X0771090Y0591164I-0001562J-0001198D01*
G01*
X0773225Y0588382D02*
G03*
X0773082Y0588596I-0001705J-0000984D01*
G01*
X0771260Y0590971D02*
G03*
X0771089Y0591165I-0001562J-0001198D01*
G01*
X0774722Y0585789D02*
G03*
X0774721Y0585790I-0001705J-0000984D01*
G01*
X0774835Y0585559D02*
G03*
X0774722Y0585789I-0001819J-0000753D01*
G01*
X0776063Y0582550D02*
G03*
X0775980Y0582796I-0001901J-0000510D01*
G01*
X0775328Y0560116D02*
G03*
X0777297Y0562085I0000000J0001969D01*
G01*
X0777296Y0576182D02*
G03*
X0777279Y0576438I-0001969J-0000000D01*
G01*
X0777296Y0576181D02*
G03*
X0777296Y0576182I-0001969J0000000D01*
G01*
X0777297Y0550274D02*
G03*
X0775328Y0552242I-0001969J-0000000D01*
G01*
X0775328Y0560116D02*
G03*
X0777297Y0562085I0000000J0001969D01*
G01*
X0777296Y0576182D02*
G03*
X0777279Y0576441I-0001969J-0000000D01*
G01*
X0777297Y0550274D02*
G03*
X0775328Y0552242I-0001969J-0000000D01*
G01*
X0763599Y0596912D02*
G03*
X0763368Y0597026I-0000984J-0001705D01*
G01*
X0757468Y0599029D02*
G03*
X0757215Y0599079I-0000509J-0001901D01*
G01*
X0760603Y0598171D02*
G03*
X0760359Y0598254I-0000753J-0001819D01*
G01*
X0766405Y0595272D02*
G03*
X0766191Y0595415I-0001198J-0001562D01*
G01*
X0763599Y0596912D02*
G03*
X0763368Y0597026I-0000984J-0001705D01*
G01*
X0766405Y0595272D02*
G03*
X0766191Y0595415I-0001198J-0001562D01*
G01*
X0760603Y0598171D02*
G03*
X0760359Y0598254I-0000753J-0001819D01*
G01*
X0754247Y0599470D02*
G03*
X0753991Y0599486I-0000256J-0001952D01*
G01*
X0754248Y0599470D02*
G03*
X0754247Y0599470I-0000258J-0001952D01*
G01*
X0754247Y0599470D02*
G03*
X0753991Y0599486I-0000257J-0001952D01*
G01*
X0757216Y0599079D02*
G03*
X0757214Y0599079I-0000258J-0001952D01*
G01*
X0757468Y0599029D02*
G03*
X0757216Y0599079I-0000509J-0001901D01*
G01*
X0768974Y0593280D02*
G03*
X0768780Y0593450I-0001393J-0001391D01*
G01*
X0768973Y0593281D02*
G03*
X0768780Y0593450I-0001392J-0001392D01*
G01*
X0719030Y0552242D02*
G03*
X0717061Y0550274I0000000J-0001969D01*
G01*
X0719030Y0552242D02*
G03*
X0717061Y0550274I0000000J-0001969D01*
G01*
Y0483345D02*
G03*
X0719030Y0481376I0001969J0000000D01*
G01*
X0717061Y0483345D02*
G03*
X0719030Y0481376I0001969J0000000D01*
G01*
X0777281Y0403579D02*
G03*
X0777297Y0403836I-0001952J0000257D01*
G01*
X0777281Y0403579D02*
G03*
X0777297Y0403836I-0001952J0000257D01*
G01*
X0777028Y0401791D02*
G03*
X0777078Y0402044I-0001901J0000509D01*
G01*
X0777027Y0401787D02*
G03*
X0777078Y0402044I-0001900J0000514D01*
G01*
X0776545Y0400051D02*
G03*
X0776628Y0400299I-0001819J0000753D01*
G01*
X0776543Y0400048D02*
G03*
X0776627Y0400295I-0001817J0000757D01*
G01*
X0775838Y0398389D02*
G03*
X0775953Y0398623I-0001705J0000984D01*
G01*
X0774920Y0396833D02*
G03*
X0775063Y0397047I-0001562J0001198D01*
G01*
X0773808Y0395411D02*
G03*
X0773979Y0395606I-0001392J0001392D01*
G01*
X0775838Y0398389D02*
G03*
X0775952Y0398620I-0001705J0000984D01*
G01*
X0774919Y0396832D02*
G03*
X0775063Y0397047I-0001561J0001200D01*
G01*
X0773806Y0395410D02*
G03*
X0773977Y0395604I-0001391J0001393D01*
G01*
X0772519Y0394146D02*
G03*
X0772713Y0394317I-0001198J0001562D01*
G01*
X0772516Y0394144D02*
G03*
X0772712Y0394316I-0001196J0001564D01*
G01*
X0771076Y0393060D02*
G03*
X0771290Y0393203I-0000984J0001705D01*
G01*
X0771076Y0393060D02*
G03*
X0771292Y0393205I-0000984J0001705D01*
G01*
X0769503Y0392171D02*
G03*
X0769734Y0392285I-0000753J0001819D01*
G01*
X0767828Y0391496D02*
G03*
X0768076Y0391580I-0000509J0001901D01*
G01*
X0769500Y0392170D02*
G03*
X0769734Y0392285I-0000750J0001820D01*
G01*
X0766080Y0391045D02*
G03*
X0766335Y0391096I-0000257J0001952D01*
G01*
X0767826Y0391495D02*
G03*
X0768072Y0391579I-0000507J0001902D01*
G01*
X0766080Y0391045D02*
G03*
X0766332Y0391095I-0000257J0001952D01*
G01*
X0764287Y0390826D02*
G03*
X0764544Y0390843I0000000J0001969D01*
G01*
X0764287Y0390826D02*
G03*
X0764544Y0390843I0000000J0001969D01*
G01*
X0708026Y0599486D02*
G03*
X0707834Y0599477I0000000J-0001969D01*
G01*
X0705525Y0599249D02*
G03*
X0705333Y0599221I0000192J-0001959D01*
G01*
X0708026Y0599486D02*
G03*
X0707832Y0599477I0000000J-0001969D01*
G01*
X0703059Y0598769D02*
G03*
X0702869Y0598721I0000381J-0001931D01*
G01*
X0700652Y0598048D02*
G03*
X0700466Y0597982I0000568J-0001885D01*
G01*
X0705524Y0599249D02*
G03*
X0705329Y0599220I0000193J-0001959D01*
G01*
X0703056Y0598768D02*
G03*
X0702865Y0598720I0000384J-0001931D01*
G01*
X0700648Y0598047D02*
G03*
X0700466Y0597982I0000571J-0001884D01*
G01*
X0698321Y0597094D02*
G03*
X0698147Y0597012I0000753J-0001819D01*
G01*
X0698321Y0597094D02*
G03*
X0698145Y0597011I0000753J-0001819D01*
G01*
X0696102Y0595918D02*
G03*
X0695934Y0595818I0000926J-0001737D01*
G01*
X0696100Y0595917D02*
G03*
X0695934Y0595818I0000928J-0001736D01*
G01*
X0694004Y0594529D02*
G03*
X0693849Y0594414I0001094J-0001637D01*
G01*
X0694004Y0594529D02*
G03*
X0693846Y0594411I0001094J-0001637D01*
G01*
X0692058Y0592944D02*
G03*
X0691912Y0592811I0001246J-0001524D01*
G01*
X0692055Y0592941D02*
G03*
X0691911Y0592810I0001249J-0001522D01*
G01*
X0690272Y0591171D02*
G03*
X0690141Y0591027I0001391J-0001393D01*
G01*
X0690271Y0591170D02*
G03*
X0690139Y0591024I0001392J-0001392D01*
G01*
X0688671Y0589235D02*
G03*
X0688553Y0589078I0001520J-0001252D01*
G01*
X0688668Y0589233D02*
G03*
X0688551Y0589074I0001522J-0001249D01*
G01*
X0687266Y0587151D02*
G03*
X0687165Y0586982I0001635J-0001097D01*
G01*
X0687264Y0587148D02*
G03*
X0687164Y0586980I0001637J-0001094D01*
G01*
X0686071Y0584937D02*
G03*
X0685988Y0584760I0001735J-0000930D01*
G01*
X0686070Y0584935D02*
G03*
X0685988Y0584760I0001736J-0000928D01*
G01*
X0685100Y0582616D02*
G03*
X0685035Y0582434I0001819J-0000753D01*
G01*
X0685100Y0582616D02*
G03*
X0685033Y0582430I0001819J-0000753D01*
G01*
X0684362Y0580217D02*
G03*
X0684314Y0580026I0001883J-0000575D01*
G01*
X0684361Y0580213D02*
G03*
X0684313Y0580021I0001884J-0000571D01*
G01*
X0683862Y0577753D02*
G03*
X0683833Y0577558I0001930J-0000388D01*
G01*
X0683861Y0577749D02*
G03*
X0683833Y0577557I0001931J-0000384D01*
G01*
X0683605Y0575249D02*
G03*
X0683596Y0575055I0001959J-0000194D01*
G01*
X0683605Y0575248D02*
G03*
X0683596Y0575055I0001959J-0000193D01*
G01*
X0691156Y0392285D02*
G03*
X0691387Y0392171I0000984J0001705D01*
G01*
X0689601Y0393202D02*
G03*
X0689815Y0393059I0001198J0001562D01*
G01*
X0688179Y0394314D02*
G03*
X0688373Y0394145I0001392J0001392D01*
G01*
X0696344Y0390843D02*
G03*
X0696601Y0390826I0000257J0001952D01*
G01*
X0691156Y0392285D02*
G03*
X0691390Y0392169I0000984J0001705D01*
G01*
X0692814Y0391580D02*
G03*
X0693061Y0391496I0000757J0001817D01*
G01*
X0689601Y0393202D02*
G03*
X0689815Y0393059I0001198J0001562D01*
G01*
X0696345Y0390843D02*
G03*
X0696601Y0390826I0000256J0001952D01*
G01*
X0696343Y0390843D02*
G03*
X0696345Y0390843I0000258J0001952D01*
G01*
X0692817Y0391578D02*
G03*
X0693064Y0391495I0000753J0001819D01*
G01*
X0694808Y0391045D02*
G03*
X0694810Y0391044I0000258J0001952D01*
G01*
X0694557Y0391095D02*
G03*
X0694808Y0391045I0000509J0001901D01*
G01*
X0694554Y0391096D02*
G03*
X0694809Y0391045I0000512J0001901D01*
G01*
X0684265Y0400294D02*
G03*
X0684348Y0400047I0001902J0000507D01*
G01*
X0683815Y0402039D02*
G03*
X0683865Y0401787I0001952J0000257D01*
G01*
X0683815Y0402039D02*
G03*
X0683866Y0401784I0001952J0000257D01*
G01*
X0683596Y0403831D02*
G03*
X0683613Y0403574I0001969J0000000D01*
G01*
X0683596Y0403831D02*
G03*
X0683613Y0403574I0001969J0000000D01*
G01*
X0688178Y0394315D02*
G03*
X0688373Y0394145I0001393J0001391D01*
G01*
X0684941Y0398617D02*
G03*
X0685055Y0398386I0001819J0000753D01*
G01*
X0684266Y0400291D02*
G03*
X0684348Y0400047I0001901J0000509D01*
G01*
X0684941Y0398617D02*
G03*
X0685056Y0398384I0001819J0000753D01*
G01*
X0686912Y0395605D02*
G03*
X0687084Y0395409I0001564J0001196D01*
G01*
X0685829Y0397045D02*
G03*
X0685974Y0396828I0001705J0000984D01*
G01*
X0686914Y0395603D02*
G03*
X0687085Y0395408I0001562J0001198D01*
G01*
X0685828Y0397047D02*
G03*
X0685972Y0396831I0001706J0000982D01*
G01*
X0777297Y0550274D02*
Y0562085D01*
X0777297Y0550274D02*
X0777297D01*
X0777297D02*
X0777297D01*
X0774835Y0585559D02*
X0774836Y0585556D01*
X0775980Y0582796D01*
X0775981Y0582794D01*
X0773224Y0588383D02*
X0773225Y0588382D01*
X0773225Y0588381D01*
X0774721Y0585790D01*
X0774721Y0585790D01*
X0774722Y0585789D01*
X0776889Y0579406D02*
X0776889Y0579403D01*
X0777279Y0576441D01*
X0777279Y0576438D01*
X0776063Y0582550D02*
X0776838Y0579659D01*
X0771260Y0590971D02*
X0773082Y0588596D01*
X0771089Y0591165D02*
X0771090Y0591164D01*
X0768974Y0593280D02*
X0771089Y0591165D01*
X0768973Y0593281D02*
X0768974Y0593280D01*
X0719030Y0552242D02*
X0775328Y0552242D01*
X0760603Y0598171D02*
X0763368Y0597026D01*
X0763599Y0596912D02*
X0766191Y0595415D01*
X0757468Y0599029D02*
X0760359Y0598254D01*
X0757215Y0599079D02*
X0757216Y0599079D01*
X0757214Y0599079D02*
X0757215Y0599079D01*
X0754248Y0599470D02*
X0757214Y0599079D01*
X0754247Y0599470D02*
X0754248Y0599470D01*
X0754247Y0599470D02*
X0754247Y0599470D01*
X0752494Y0599486D02*
X0753991Y0599486D01*
X0766405Y0595272D02*
X0768780Y0593450D01*
X0717061Y0483345D02*
Y0550274D01*
X0719030Y0481376D02*
X0740683D01*
X0777078Y0402044D02*
X0777281Y0403579D01*
X0777027Y0401787D02*
X0777028Y0401791D01*
X0776628Y0400299D02*
X0777027Y0401787D01*
X0776627Y0400295D02*
X0776628Y0400299D01*
X0776543Y0400048D02*
X0776545Y0400051D01*
X0775953Y0398623D02*
X0776543Y0400048D01*
X0775952Y0398620D02*
X0775953Y0398623D01*
X0775063Y0397047D02*
X0775838Y0398389D01*
X0774919Y0396832D02*
X0774920Y0396833D01*
X0773979Y0395606D02*
X0774919Y0396832D01*
X0773977Y0395604D02*
X0773979Y0395606D01*
X0773806Y0395410D02*
X0773808Y0395411D01*
X0772713Y0394317D02*
X0773806Y0395410D01*
X0772712Y0394316D02*
X0772713Y0394317D01*
X0772516Y0394144D02*
X0772519Y0394146D01*
X0771292Y0393205D02*
X0772516Y0394144D01*
X0771290Y0393203D02*
X0771292Y0393205D01*
X0740683Y0473502D02*
Y0481376D01*
X0709187Y0473502D02*
Y0560116D01*
X0732809Y0457754D02*
X0732809Y0453817D01*
X0769734Y0392285D02*
X0771076Y0393060D01*
X0769500Y0392170D02*
X0769503Y0392171D01*
X0768076Y0391580D02*
X0769500Y0392170D01*
X0768072Y0391579D02*
X0768076Y0391580D01*
X0767826Y0391495D02*
X0767828Y0391496D01*
X0766335Y0391096D02*
X0767826Y0391495D01*
X0766332Y0391095D02*
X0766335Y0391096D01*
X0764544Y0390843D02*
X0766080Y0391045D01*
X0763512Y0390826D02*
X0764287Y0390826D01*
X0708026Y0599486D02*
X0709187Y0599486D01*
X0707832Y0599477D02*
X0707834Y0599477D01*
X0705525Y0599249D02*
X0707832Y0599477D01*
X0705524Y0599249D02*
X0705525Y0599249D01*
X0705329Y0599220D02*
X0705333Y0599221D01*
X0703059Y0598769D02*
X0705329Y0599220D01*
X0703056Y0598768D02*
X0703059Y0598769D01*
X0702865Y0598720D02*
X0702869Y0598721D01*
X0700652Y0598048D02*
X0702865Y0598720D01*
X0700648Y0598047D02*
X0700652Y0598048D01*
X0698321Y0597094D02*
X0700466Y0597982D01*
X0698145Y0597011D02*
X0698147Y0597012D01*
X0696102Y0595918D02*
X0698145Y0597011D01*
X0696100Y0595917D02*
X0696102Y0595918D01*
X0709187Y0560116D02*
X0775328Y0560116D01*
X0709187Y0473502D02*
X0740683D01*
X0694004Y0594529D02*
X0695934Y0595818D01*
X0693846Y0594411D02*
X0693849Y0594414D01*
X0692058Y0592944D02*
X0693846Y0594411D01*
X0692055Y0592941D02*
X0692058Y0592944D01*
X0691911Y0592810D02*
X0691912Y0592811D01*
X0690272Y0591171D02*
X0691911Y0592810D01*
X0690271Y0591170D02*
X0690272Y0591171D01*
X0690139Y0591024D02*
X0690141Y0591027D01*
X0688671Y0589235D02*
X0690139Y0591024D01*
X0688668Y0589233D02*
X0688671Y0589235D01*
X0688551Y0589074D02*
X0688553Y0589078D01*
X0687266Y0587151D02*
X0688551Y0589074D01*
X0687264Y0587148D02*
X0687266Y0587151D01*
X0687164Y0586980D02*
X0687165Y0586982D01*
X0686071Y0584937D02*
X0687164Y0586980D01*
X0686070Y0584935D02*
X0686071Y0584937D01*
X0685100Y0582616D02*
X0685988Y0584760D01*
X0685033Y0582430D02*
X0685035Y0582434D01*
X0684362Y0580217D02*
X0685033Y0582430D01*
X0684361Y0580213D02*
X0684362Y0580217D01*
X0684313Y0580021D02*
X0684314Y0580026D01*
X0683862Y0577753D02*
X0684313Y0580021D01*
X0683861Y0577749D02*
X0683862Y0577753D01*
X0683833Y0577557D02*
X0683833Y0577558D01*
X0683605Y0575249D02*
X0683833Y0577557D01*
X0683605Y0575248D02*
X0683605Y0575249D01*
X0683596Y0575055D02*
X0683596Y0573895D01*
X0699344Y0457754D02*
X0732809Y0457754D01*
X0699344Y0457754D02*
X0699344Y0453817D01*
X0732809Y0453817D01*
X0763512Y0390826D02*
X0763512D01*
X0696344Y0390843D02*
X0696345Y0390843D01*
X0696343Y0390843D02*
X0696344Y0390843D01*
X0694810Y0391044D02*
X0696343Y0390843D01*
X0694809Y0391045D02*
X0694810Y0391044D01*
X0694808Y0391045D02*
X0694809Y0391045D01*
X0696601Y0390826D02*
X0697375D01*
X0692814Y0391580D02*
X0692817Y0391578D01*
X0691390Y0392169D02*
X0692814Y0391580D01*
X0691387Y0392171D02*
X0691390Y0392169D01*
X0694554Y0391096D02*
X0694557Y0391095D01*
X0693064Y0391495D02*
X0694554Y0391096D01*
X0693061Y0391496D02*
X0693064Y0391495D01*
X0683613Y0403574D02*
X0683815Y0402039D01*
X0683596Y0573895D02*
Y0573895D01*
X0683596Y0403831D02*
Y0404605D01*
X0689815Y0393059D02*
X0691156Y0392285D01*
X0688178Y0394315D02*
X0688179Y0394314D01*
X0687085Y0395408D02*
X0688178Y0394315D01*
X0687084Y0395409D02*
X0687085Y0395408D01*
X0688373Y0394145D02*
X0689601Y0393202D01*
X0684348Y0400047D02*
X0684941Y0398617D01*
X0683865Y0401787D02*
X0683866Y0401784D01*
X0684265Y0400294D01*
X0684266Y0400291D01*
X0685055Y0398386D02*
X0685056Y0398384D01*
X0685828Y0397047D01*
X0685829Y0397045D01*
X0685972Y0396831D02*
X0685974Y0396828D01*
X0686912Y0395605D01*
X0686914Y0395603D01*
D76*
X0460757Y0562085D02*
D03*
D03*
X0460757Y0550274D02*
D03*
X0566271Y0562085D02*
D03*
D03*
X0566270Y0550274D02*
D03*
X0498161Y0599486D02*
D03*
D03*
X0671784Y0562085D02*
D03*
D03*
X0671784Y0550274D02*
D03*
X0603674Y0599486D02*
D03*
D03*
X0777297Y0562085D02*
D03*
D03*
X0777297Y0550274D02*
D03*
X0709187Y0599486D02*
D03*
D03*
M02*
