G04*
G04 #@! TF.GenerationSoftware,Altium Limited,Altium Designer,20.1.14 (287)*
G04*
G04 Layer_Physical_Order=1*
G04 Layer_Color=255*
%FSAX25Y25*%
%MOIN*%
G70*
G04*
G04 #@! TF.SameCoordinates,1876172F-CBA1-4FB9-98D7-45F53F2F45AF*
G04*
G04*
G04 #@! TF.FilePolarity,Positive*
G04*
G01*
G75*
%ADD10C,0.01968*%
%ADD11R,0.06299X0.13780*%
%ADD12R,0.13780X0.06299*%
%ADD13R,0.02362X0.03543*%
%ADD14R,0.03543X0.02362*%
%ADD15R,0.03150X0.03150*%
G04:AMPARAMS|DCode=16|XSize=23.62mil|YSize=35.43mil|CornerRadius=0mil|HoleSize=0mil|Usage=FLASHONLY|Rotation=135.000|XOffset=0mil|YOffset=0mil|HoleType=Round|Shape=Rectangle|*
%AMROTATEDRECTD16*
4,1,4,0.02088,0.00418,-0.00418,-0.02088,-0.02088,-0.00418,0.00418,0.02088,0.02088,0.00418,0.0*
%
%ADD16ROTATEDRECTD16*%

%ADD17R,0.01772X0.02756*%
%ADD18R,0.01968X0.02362*%
%ADD19R,0.03937X0.03150*%
%ADD20R,0.02362X0.01968*%
%ADD21R,0.03150X0.03937*%
%ADD22R,0.03543X0.05118*%
%ADD23R,0.05118X0.03543*%
%ADD24C,0.32284*%
%ADD25C,0.31496*%
%ADD26C,0.01575*%
%ADD27C,0.01181*%
%ADD28C,0.00787*%
%ADD29C,0.03937*%
%ADD30C,0.11811*%
%ADD31C,0.01968*%
%ADD32C,0.04724*%
G36*
X0768944Y0514525D02*
X0769211Y0514025D01*
X0769135Y0513911D01*
X0769012Y0513293D01*
X0769135Y0512675D01*
X0769486Y0512151D01*
X0770010Y0511801D01*
X0770628Y0511678D01*
X0771246Y0511801D01*
X0771770Y0512151D01*
X0772120Y0512675D01*
X0772243Y0513293D01*
X0772231Y0513355D01*
X0772681Y0513656D01*
X0773274Y0513260D01*
X0774063Y0512470D01*
X0774208Y0512254D01*
X0774208Y0481376D01*
X0774208Y0466022D01*
X0774207Y0462085D01*
X0774207Y0462085D01*
X0774207Y0462085D01*
X0774207Y0404611D01*
X0774207Y0403910D01*
X0774024Y0402520D01*
X0773662Y0401166D01*
X0773125Y0399870D01*
X0772424Y0398656D01*
X0771571Y0397544D01*
X0770579Y0396553D01*
X0769467Y0395699D01*
X0768253Y0394998D01*
X0766958Y0394462D01*
X0765603Y0394099D01*
X0764213Y0393916D01*
X0763512Y0393916D01*
X0697375Y0393916D01*
X0696675D01*
X0695285Y0394099D01*
X0693932Y0394461D01*
X0692637Y0394998D01*
X0691424Y0395698D01*
X0690312Y0396551D01*
X0689321Y0397542D01*
X0688468Y0398654D01*
X0687768Y0399867D01*
X0687231Y0401162D01*
X0686869Y0402515D01*
X0686686Y0403905D01*
Y0404605D01*
X0686686Y0424932D01*
X0687410Y0426016D01*
X0688562Y0427168D01*
X0689916Y0428073D01*
X0691421Y0428696D01*
X0693018Y0429014D01*
X0693833Y0429014D01*
X0693833Y0429014D01*
X0703416D01*
X0703499Y0428514D01*
X0701972Y0427996D01*
X0700002Y0427024D01*
X0698175Y0425803D01*
X0696523Y0424355D01*
X0695075Y0422703D01*
X0693854Y0420876D01*
X0692883Y0418906D01*
X0692176Y0416825D01*
X0691748Y0414671D01*
X0691643Y0413069D01*
X0708400D01*
X0725157D01*
X0725052Y0414671D01*
X0724623Y0416825D01*
X0723917Y0418906D01*
X0722945Y0420876D01*
X0721725Y0422703D01*
X0720276Y0424355D01*
X0718624Y0425803D01*
X0716798Y0427024D01*
X0714827Y0427996D01*
X0713301Y0428514D01*
X0713383Y0429014D01*
X0720971D01*
Y0427215D01*
X0722770D01*
Y0429014D01*
X0723951D01*
Y0427215D01*
X0725750D01*
Y0429014D01*
X0727860D01*
Y0426624D01*
X0729463D01*
Y0428817D01*
X0730644D01*
Y0426624D01*
X0732246D01*
Y0429014D01*
X0735597D01*
X0735654Y0428928D01*
Y0427627D01*
X0738626D01*
Y0427989D01*
X0743134D01*
Y0427627D01*
X0744019D01*
X0750288Y0421357D01*
Y0416622D01*
X0749729D01*
Y0413808D01*
X0749525Y0413680D01*
X0749229Y0413593D01*
X0748782Y0413892D01*
X0748164Y0414015D01*
X0747545Y0413892D01*
X0747116Y0413605D01*
X0746773Y0413716D01*
X0746616Y0413827D01*
Y0416640D01*
X0745014D01*
Y0414053D01*
X0744423D01*
Y0413463D01*
X0742231D01*
Y0411467D01*
X0742899D01*
X0743126Y0410967D01*
X0742892Y0410616D01*
X0742847Y0410391D01*
X0742211Y0409755D01*
X0740102D01*
Y0410126D01*
X0739535D01*
Y0411878D01*
X0739905D01*
Y0415441D01*
X0738453D01*
X0736628Y0417266D01*
X0736835Y0417766D01*
X0738644D01*
Y0419171D01*
X0735636D01*
Y0418386D01*
X0735290Y0418102D01*
X0735290Y0418102D01*
X0730241D01*
X0726525Y0421818D01*
X0726428Y0422309D01*
X0726078Y0422833D01*
X0725553Y0423183D01*
X0724935Y0423306D01*
X0724317Y0423183D01*
X0723793Y0422833D01*
X0723443Y0422309D01*
X0723320Y0421691D01*
X0723443Y0421073D01*
X0723793Y0420549D01*
X0724317Y0420199D01*
X0724809Y0420101D01*
X0728880Y0416030D01*
X0729274Y0415766D01*
X0729738Y0415674D01*
X0729739Y0415674D01*
X0732397D01*
X0732800Y0415441D01*
Y0413595D01*
X0731557Y0412353D01*
X0731294Y0411959D01*
X0731202Y0411494D01*
X0731202Y0411494D01*
Y0410323D01*
X0730241D01*
Y0405973D01*
X0734590D01*
Y0410323D01*
X0733630D01*
Y0410991D01*
X0734516Y0411878D01*
X0735968D01*
Y0413732D01*
X0736430Y0413933D01*
X0736737Y0413684D01*
Y0411878D01*
X0737107D01*
Y0410126D01*
X0736540D01*
Y0406957D01*
X0740102D01*
Y0407328D01*
X0742714D01*
X0742714Y0407328D01*
X0743179Y0407420D01*
X0743573Y0407683D01*
X0744291Y0408401D01*
X0744384Y0408383D01*
X0745002Y0408506D01*
X0745526Y0408856D01*
X0745876Y0409380D01*
X0745999Y0409998D01*
X0745876Y0410616D01*
X0745642Y0410967D01*
X0745869Y0411467D01*
X0746616D01*
X0746950Y0411105D01*
Y0407173D01*
X0745989D01*
Y0405818D01*
X0740102D01*
Y0406189D01*
X0736540D01*
Y0404737D01*
X0735090Y0403287D01*
X0734590Y0403494D01*
Y0404023D01*
X0730241D01*
Y0399674D01*
X0734590D01*
Y0400635D01*
X0735368D01*
X0735368Y0400635D01*
X0735833Y0400727D01*
X0736227Y0400990D01*
X0738257Y0403020D01*
X0740102D01*
Y0403391D01*
X0745989D01*
Y0402036D01*
X0750338D01*
Y0407173D01*
X0749377D01*
Y0411130D01*
X0749729Y0411485D01*
X0754079D01*
Y0416622D01*
X0753519D01*
Y0422026D01*
X0753396Y0422644D01*
X0753046Y0423168D01*
X0746143Y0430071D01*
X0746113Y0430223D01*
X0746106Y0430232D01*
Y0431582D01*
X0743134D01*
Y0431220D01*
X0738657D01*
Y0432656D01*
X0738534Y0433274D01*
X0738184Y0433798D01*
X0737927Y0434054D01*
X0737927Y0445915D01*
X0738912D01*
Y0448108D01*
X0739502D01*
Y0448699D01*
X0741695D01*
Y0449683D01*
X0742193D01*
X0742405Y0449694D01*
X0742821Y0449776D01*
X0743213Y0449939D01*
X0743566Y0450174D01*
X0743723Y0450317D01*
X0743723Y0450317D01*
X0744557Y0451151D01*
X0744780Y0451374D01*
X0745304Y0451724D01*
X0745886Y0451965D01*
X0746504Y0452088D01*
X0746819Y0452088D01*
X0746819Y0452088D01*
X0749403Y0452088D01*
X0749652Y0452113D01*
X0750114Y0452304D01*
X0750467Y0452657D01*
X0750659Y0453119D01*
X0750683Y0453369D01*
X0750683Y0453369D01*
Y0453973D01*
X0752583D01*
Y0453611D01*
X0755555D01*
Y0453973D01*
X0758587D01*
Y0452261D01*
X0758077Y0452160D01*
X0757553Y0451810D01*
X0755240Y0449497D01*
X0753468Y0447724D01*
X0752583D01*
Y0447361D01*
X0748406D01*
X0748399Y0447370D01*
X0748089Y0447861D01*
X0748124Y0448204D01*
X0748199Y0448317D01*
X0748322Y0448935D01*
X0748199Y0449553D01*
X0747849Y0450077D01*
X0747325Y0450427D01*
X0746707Y0450550D01*
X0746089Y0450427D01*
X0745565Y0450077D01*
X0745215Y0449553D01*
X0745092Y0448935D01*
X0745215Y0448317D01*
X0745277Y0448224D01*
X0745103Y0447724D01*
X0745103D01*
Y0443768D01*
X0748075D01*
Y0444131D01*
X0752583D01*
Y0443768D01*
X0755555D01*
Y0445118D01*
X0755561Y0445128D01*
X0755592Y0445280D01*
X0758125Y0447813D01*
X0758587Y0447622D01*
Y0444752D01*
X0759942D01*
Y0443196D01*
X0759375D01*
Y0442787D01*
X0758313D01*
X0757955Y0443026D01*
X0757337Y0443149D01*
X0756719Y0443026D01*
X0756195Y0442676D01*
X0755844Y0442152D01*
X0755722Y0441534D01*
X0755844Y0440915D01*
X0756195Y0440391D01*
X0756719Y0440041D01*
X0757337Y0439918D01*
X0757955Y0440041D01*
X0758431Y0440359D01*
X0759375D01*
Y0440028D01*
X0762937D01*
Y0440381D01*
X0763818D01*
Y0439993D01*
X0767380D01*
Y0443161D01*
X0763818D01*
Y0442809D01*
X0762937D01*
Y0443196D01*
X0762370D01*
Y0444752D01*
X0763724D01*
Y0449052D01*
X0768036D01*
Y0448493D01*
X0773173D01*
Y0452842D01*
X0772220D01*
Y0456770D01*
X0772097Y0457388D01*
X0771747Y0457912D01*
X0769039Y0460619D01*
Y0461897D01*
X0765871D01*
Y0460272D01*
X0765840Y0460116D01*
Y0459919D01*
X0765871Y0459763D01*
Y0458335D01*
X0766755D01*
X0768989Y0456101D01*
Y0452842D01*
X0768036D01*
Y0452283D01*
X0763724D01*
Y0454298D01*
X0764660Y0455234D01*
X0765010Y0455758D01*
X0765133Y0456376D01*
Y0460116D01*
X0765102Y0460272D01*
Y0461897D01*
X0761934D01*
Y0460272D01*
X0761903Y0460116D01*
Y0457045D01*
X0761440Y0456582D01*
X0760872D01*
X0760723Y0456731D01*
X0760199Y0457081D01*
X0759581Y0457204D01*
X0755555D01*
Y0457567D01*
X0752583D01*
Y0457204D01*
X0750683D01*
X0750683Y0464241D01*
X0768103D01*
X0768203Y0464092D01*
X0768727Y0463742D01*
X0769345Y0463619D01*
X0769963Y0463742D01*
X0770487Y0464092D01*
X0770837Y0464616D01*
X0770960Y0465234D01*
X0770837Y0465852D01*
X0770487Y0466376D01*
X0769963Y0466727D01*
X0769821Y0467069D01*
X0769971Y0467293D01*
X0770069Y0467785D01*
X0771260Y0468977D01*
X0771260Y0468977D01*
X0771524Y0469371D01*
X0771616Y0469835D01*
Y0481012D01*
X0771895Y0481429D01*
X0772017Y0482047D01*
X0771895Y0482665D01*
X0771544Y0483189D01*
X0771020Y0483540D01*
X0770402Y0483663D01*
X0769784Y0483540D01*
X0769260Y0483189D01*
X0768910Y0482665D01*
X0768787Y0482047D01*
X0768910Y0481429D01*
X0769188Y0481012D01*
Y0470338D01*
X0768352Y0469502D01*
X0767861Y0469404D01*
X0767712Y0469305D01*
X0767250Y0469496D01*
X0767215Y0469671D01*
X0766937Y0470088D01*
Y0473599D01*
X0766937Y0473599D01*
X0766863Y0473968D01*
X0766915Y0474179D01*
X0767133Y0474532D01*
X0767384Y0474581D01*
X0767908Y0474932D01*
X0768258Y0475456D01*
X0768381Y0476074D01*
X0768258Y0476692D01*
X0767908Y0477216D01*
X0767384Y0477566D01*
X0766765Y0477689D01*
X0766147Y0477566D01*
X0765781Y0477321D01*
X0765281Y0477535D01*
Y0485866D01*
X0765281Y0485866D01*
X0765189Y0486331D01*
X0764925Y0486725D01*
X0764925Y0486725D01*
X0758368Y0493282D01*
Y0494386D01*
X0758646Y0494803D01*
X0758769Y0495421D01*
X0758646Y0496039D01*
X0758296Y0496563D01*
X0757772Y0496914D01*
X0757154Y0497037D01*
X0756536Y0496914D01*
X0756012Y0496563D01*
X0755662Y0496039D01*
X0755539Y0495421D01*
X0755662Y0494803D01*
X0755940Y0494386D01*
Y0493346D01*
X0755440Y0493139D01*
X0754213Y0494366D01*
Y0504465D01*
X0754491Y0504882D01*
X0754614Y0505500D01*
X0754491Y0506118D01*
X0754141Y0506642D01*
X0753617Y0506992D01*
X0752999Y0507115D01*
X0752381Y0506992D01*
X0751857Y0506642D01*
X0751507Y0506118D01*
X0751384Y0505500D01*
X0751507Y0504882D01*
X0751785Y0504465D01*
Y0493864D01*
X0751785Y0493864D01*
X0751877Y0493399D01*
X0752141Y0493005D01*
X0760719Y0484427D01*
Y0469232D01*
X0760440Y0468816D01*
X0760318Y0468197D01*
X0760440Y0467579D01*
X0760791Y0467055D01*
X0761222Y0466767D01*
X0761154Y0466306D01*
X0761139Y0466267D01*
X0750683D01*
X0750683Y0508935D01*
Y0509486D01*
X0750898Y0510566D01*
X0751320Y0511583D01*
X0751931Y0512499D01*
X0752710Y0513278D01*
X0753626Y0513890D01*
X0754643Y0514311D01*
X0755723Y0514526D01*
X0756274Y0514526D01*
X0756274Y0514526D01*
X0768944Y0514525D01*
D02*
G37*
G36*
X0663431D02*
X0663698Y0514025D01*
X0663622Y0513911D01*
X0663499Y0513293D01*
X0663622Y0512675D01*
X0663972Y0512151D01*
X0664496Y0511801D01*
X0665114Y0511678D01*
X0665733Y0511801D01*
X0666257Y0512151D01*
X0666607Y0512675D01*
X0666730Y0513293D01*
X0666717Y0513355D01*
X0667167Y0513656D01*
X0667761Y0513260D01*
X0668550Y0512470D01*
X0668695Y0512254D01*
X0668694Y0481376D01*
X0668694Y0466022D01*
X0668694Y0462085D01*
X0668694Y0462085D01*
X0668694Y0462085D01*
X0668694Y0404611D01*
X0668694Y0403910D01*
X0668511Y0402520D01*
X0668148Y0401166D01*
X0667612Y0399870D01*
X0666911Y0398656D01*
X0666057Y0397544D01*
X0665066Y0396553D01*
X0663954Y0395699D01*
X0662740Y0394998D01*
X0661444Y0394462D01*
X0660090Y0394099D01*
X0658700Y0393916D01*
X0657999Y0393916D01*
X0591862Y0393916D01*
X0591161D01*
X0589772Y0394099D01*
X0588419Y0394461D01*
X0587124Y0394998D01*
X0585911Y0395698D01*
X0584799Y0396551D01*
X0583808Y0397542D01*
X0582955Y0398654D01*
X0582255Y0399867D01*
X0581718Y0401162D01*
X0581355Y0402515D01*
X0581173Y0403905D01*
Y0404605D01*
X0581173Y0424932D01*
X0581897Y0426016D01*
X0583049Y0427168D01*
X0584403Y0428073D01*
X0585908Y0428696D01*
X0587505Y0429014D01*
X0588320Y0429014D01*
X0588320Y0429014D01*
X0597903D01*
X0597986Y0428514D01*
X0596459Y0427996D01*
X0594489Y0427024D01*
X0592662Y0425803D01*
X0591010Y0424355D01*
X0589562Y0422703D01*
X0588341Y0420876D01*
X0587369Y0418906D01*
X0586663Y0416825D01*
X0586235Y0414671D01*
X0586130Y0413069D01*
X0602887D01*
X0619644D01*
X0619539Y0414671D01*
X0619110Y0416825D01*
X0618404Y0418906D01*
X0617432Y0420876D01*
X0616212Y0422703D01*
X0614763Y0424355D01*
X0613111Y0425803D01*
X0611284Y0427024D01*
X0609314Y0427996D01*
X0607788Y0428514D01*
X0607870Y0429014D01*
X0615457D01*
Y0427215D01*
X0617257D01*
Y0429014D01*
X0618438D01*
Y0427215D01*
X0620237D01*
Y0429014D01*
X0622347D01*
Y0426624D01*
X0623950D01*
Y0428817D01*
X0625131D01*
Y0426624D01*
X0626733D01*
Y0429014D01*
X0630083D01*
X0630141Y0428928D01*
Y0427627D01*
X0633113D01*
Y0427989D01*
X0637621D01*
Y0427627D01*
X0638505D01*
X0644775Y0421357D01*
Y0416622D01*
X0644216D01*
Y0413808D01*
X0644012Y0413680D01*
X0643716Y0413593D01*
X0643269Y0413892D01*
X0642650Y0414015D01*
X0642032Y0413892D01*
X0641603Y0413605D01*
X0641260Y0413716D01*
X0641103Y0413827D01*
Y0416640D01*
X0639501D01*
Y0414053D01*
X0638910D01*
Y0413463D01*
X0636717D01*
Y0411467D01*
X0637386D01*
X0637613Y0410967D01*
X0637379Y0410616D01*
X0637334Y0410391D01*
X0636698Y0409755D01*
X0634589D01*
Y0410126D01*
X0634022D01*
Y0411878D01*
X0634392D01*
Y0415441D01*
X0632940D01*
X0631115Y0417266D01*
X0631322Y0417766D01*
X0633131D01*
Y0419171D01*
X0630123D01*
Y0418386D01*
X0629776Y0418102D01*
X0629776Y0418102D01*
X0624728D01*
X0621012Y0421818D01*
X0620914Y0422309D01*
X0620564Y0422833D01*
X0620040Y0423183D01*
X0619422Y0423306D01*
X0618804Y0423183D01*
X0618280Y0422833D01*
X0617930Y0422309D01*
X0617807Y0421691D01*
X0617930Y0421073D01*
X0618280Y0420549D01*
X0618804Y0420199D01*
X0619296Y0420101D01*
X0623367Y0416030D01*
X0623761Y0415766D01*
X0624225Y0415674D01*
X0624225Y0415674D01*
X0626883D01*
X0627287Y0415441D01*
Y0413595D01*
X0626044Y0412353D01*
X0625781Y0411959D01*
X0625689Y0411494D01*
X0625689Y0411494D01*
Y0410323D01*
X0624728D01*
Y0405973D01*
X0629077D01*
Y0410323D01*
X0628116D01*
Y0410991D01*
X0629003Y0411878D01*
X0630455D01*
Y0413732D01*
X0630916Y0413933D01*
X0631224Y0413684D01*
Y0411878D01*
X0631594D01*
Y0410126D01*
X0631027D01*
Y0406957D01*
X0634589D01*
Y0407328D01*
X0637201D01*
X0637201Y0407328D01*
X0637666Y0407420D01*
X0638060Y0407683D01*
X0638778Y0408401D01*
X0638871Y0408383D01*
X0639489Y0408506D01*
X0640013Y0408856D01*
X0640363Y0409380D01*
X0640486Y0409998D01*
X0640363Y0410616D01*
X0640129Y0410967D01*
X0640356Y0411467D01*
X0641103D01*
X0641436Y0411105D01*
Y0407173D01*
X0640476D01*
Y0405818D01*
X0634589D01*
Y0406189D01*
X0631027D01*
Y0404737D01*
X0629577Y0403287D01*
X0629077Y0403494D01*
Y0404023D01*
X0624728D01*
Y0399674D01*
X0629077D01*
Y0400635D01*
X0629855D01*
X0629855Y0400635D01*
X0630320Y0400727D01*
X0630714Y0400990D01*
X0632744Y0403020D01*
X0634589D01*
Y0403391D01*
X0640476D01*
Y0402036D01*
X0644825D01*
Y0407173D01*
X0643864D01*
Y0411130D01*
X0644216Y0411485D01*
X0648565D01*
Y0416622D01*
X0648006D01*
Y0422026D01*
X0647883Y0422644D01*
X0647533Y0423168D01*
X0640630Y0430071D01*
X0640599Y0430223D01*
X0640593Y0430232D01*
Y0431582D01*
X0637621D01*
Y0431220D01*
X0633144D01*
Y0432656D01*
X0633021Y0433274D01*
X0632671Y0433798D01*
X0632414Y0434054D01*
X0632414Y0445915D01*
X0633398D01*
Y0448108D01*
X0633989D01*
Y0448699D01*
X0636182D01*
Y0449683D01*
X0636680D01*
X0636892Y0449694D01*
X0637308Y0449776D01*
X0637700Y0449939D01*
X0638052Y0450174D01*
X0638210Y0450317D01*
X0638210Y0450317D01*
X0639044Y0451151D01*
X0639266Y0451374D01*
X0639790Y0451724D01*
X0640373Y0451965D01*
X0640991Y0452088D01*
X0641306Y0452088D01*
X0641306Y0452088D01*
X0643889Y0452088D01*
X0644139Y0452113D01*
X0644601Y0452304D01*
X0644954Y0452657D01*
X0645145Y0453119D01*
X0645170Y0453369D01*
X0645170Y0453369D01*
Y0453973D01*
X0647070D01*
Y0453611D01*
X0650042D01*
Y0453973D01*
X0653074D01*
Y0452261D01*
X0652564Y0452160D01*
X0652040Y0451810D01*
X0649727Y0449497D01*
X0647954Y0447724D01*
X0647070D01*
Y0447361D01*
X0642893D01*
X0642886Y0447370D01*
X0642576Y0447861D01*
X0642610Y0448204D01*
X0642686Y0448317D01*
X0642809Y0448935D01*
X0642686Y0449553D01*
X0642336Y0450077D01*
X0641812Y0450427D01*
X0641194Y0450550D01*
X0640576Y0450427D01*
X0640052Y0450077D01*
X0639701Y0449553D01*
X0639578Y0448935D01*
X0639701Y0448317D01*
X0639763Y0448224D01*
X0639590Y0447724D01*
X0639590D01*
Y0443768D01*
X0642561D01*
Y0444131D01*
X0647070D01*
Y0443768D01*
X0650042D01*
Y0445118D01*
X0650048Y0445128D01*
X0650078Y0445280D01*
X0652612Y0447813D01*
X0653074Y0447622D01*
Y0444752D01*
X0654429D01*
Y0443196D01*
X0653861D01*
Y0442787D01*
X0652800D01*
X0652442Y0443026D01*
X0651824Y0443149D01*
X0651205Y0443026D01*
X0650681Y0442676D01*
X0650331Y0442152D01*
X0650208Y0441534D01*
X0650331Y0440915D01*
X0650681Y0440391D01*
X0651205Y0440041D01*
X0651824Y0439918D01*
X0652442Y0440041D01*
X0652917Y0440359D01*
X0653861D01*
Y0440028D01*
X0657424D01*
Y0440381D01*
X0658305D01*
Y0439993D01*
X0661867D01*
Y0443161D01*
X0658305D01*
Y0442809D01*
X0657424D01*
Y0443196D01*
X0656856D01*
Y0444752D01*
X0658211D01*
Y0449052D01*
X0662523D01*
Y0448493D01*
X0667660D01*
Y0452842D01*
X0666707D01*
Y0456770D01*
X0666584Y0457388D01*
X0666233Y0457912D01*
X0663526Y0460619D01*
Y0461897D01*
X0660358D01*
Y0460272D01*
X0660326Y0460116D01*
Y0459919D01*
X0660358Y0459763D01*
Y0458335D01*
X0661242D01*
X0663476Y0456101D01*
Y0452842D01*
X0662523D01*
Y0452283D01*
X0658211D01*
Y0454298D01*
X0659147Y0455234D01*
X0659497Y0455758D01*
X0659620Y0456376D01*
Y0460116D01*
X0659589Y0460272D01*
Y0461897D01*
X0656421D01*
Y0460272D01*
X0656390Y0460116D01*
Y0457045D01*
X0655927Y0456582D01*
X0655358D01*
X0655210Y0456731D01*
X0654686Y0457081D01*
X0654068Y0457204D01*
X0650042D01*
Y0457567D01*
X0647070D01*
Y0457204D01*
X0645170D01*
X0645170Y0464241D01*
X0662590D01*
X0662689Y0464092D01*
X0663213Y0463742D01*
X0663832Y0463619D01*
X0664450Y0463742D01*
X0664974Y0464092D01*
X0665324Y0464616D01*
X0665447Y0465234D01*
X0665324Y0465852D01*
X0664974Y0466376D01*
X0664450Y0466727D01*
X0664308Y0467069D01*
X0664458Y0467293D01*
X0664556Y0467785D01*
X0665747Y0468977D01*
X0665747Y0468977D01*
X0666010Y0469371D01*
X0666103Y0469835D01*
Y0481012D01*
X0666381Y0481429D01*
X0666504Y0482047D01*
X0666381Y0482665D01*
X0666031Y0483189D01*
X0665507Y0483540D01*
X0664889Y0483663D01*
X0664271Y0483540D01*
X0663747Y0483189D01*
X0663397Y0482665D01*
X0663274Y0482047D01*
X0663397Y0481429D01*
X0663675Y0481012D01*
Y0470338D01*
X0662839Y0469502D01*
X0662347Y0469404D01*
X0662199Y0469305D01*
X0661737Y0469496D01*
X0661702Y0469671D01*
X0661423Y0470088D01*
Y0473599D01*
X0661423Y0473599D01*
X0661350Y0473968D01*
X0661402Y0474179D01*
X0661620Y0474532D01*
X0661870Y0474581D01*
X0662394Y0474932D01*
X0662745Y0475456D01*
X0662867Y0476074D01*
X0662745Y0476692D01*
X0662394Y0477216D01*
X0661870Y0477566D01*
X0661252Y0477689D01*
X0660634Y0477566D01*
X0660268Y0477321D01*
X0659768Y0477535D01*
Y0485866D01*
X0659768Y0485866D01*
X0659675Y0486331D01*
X0659412Y0486725D01*
X0659412Y0486725D01*
X0652855Y0493282D01*
Y0494386D01*
X0653133Y0494803D01*
X0653256Y0495421D01*
X0653133Y0496039D01*
X0652783Y0496563D01*
X0652259Y0496914D01*
X0651641Y0497037D01*
X0651023Y0496914D01*
X0650499Y0496563D01*
X0650148Y0496039D01*
X0650026Y0495421D01*
X0650148Y0494803D01*
X0650427Y0494386D01*
Y0493346D01*
X0649927Y0493139D01*
X0648700Y0494366D01*
Y0504465D01*
X0648978Y0504882D01*
X0649101Y0505500D01*
X0648978Y0506118D01*
X0648628Y0506642D01*
X0648104Y0506992D01*
X0647486Y0507115D01*
X0646868Y0506992D01*
X0646344Y0506642D01*
X0645994Y0506118D01*
X0645870Y0505500D01*
X0645994Y0504882D01*
X0646272Y0504465D01*
Y0493864D01*
X0646272Y0493864D01*
X0646364Y0493399D01*
X0646628Y0493005D01*
X0655206Y0484427D01*
Y0469232D01*
X0654927Y0468816D01*
X0654804Y0468197D01*
X0654927Y0467579D01*
X0655277Y0467055D01*
X0655709Y0466767D01*
X0655641Y0466306D01*
X0655625Y0466267D01*
X0645170D01*
X0645170Y0508935D01*
Y0509486D01*
X0645385Y0510566D01*
X0645806Y0511583D01*
X0646418Y0512499D01*
X0647197Y0513278D01*
X0648113Y0513890D01*
X0649130Y0514311D01*
X0650210Y0514526D01*
X0650761Y0514526D01*
X0650761Y0514526D01*
X0663431Y0514525D01*
D02*
G37*
G36*
X0557918D02*
X0558185Y0514025D01*
X0558109Y0513911D01*
X0557986Y0513293D01*
X0558109Y0512675D01*
X0558459Y0512151D01*
X0558983Y0511801D01*
X0559601Y0511678D01*
X0560219Y0511801D01*
X0560743Y0512151D01*
X0561094Y0512675D01*
X0561217Y0513293D01*
X0561204Y0513355D01*
X0561654Y0513656D01*
X0562247Y0513260D01*
X0563037Y0512470D01*
X0563181Y0512254D01*
X0563181Y0481376D01*
X0563181Y0466022D01*
X0563181Y0462085D01*
X0563181Y0462085D01*
X0563181Y0462085D01*
X0563181Y0404611D01*
X0563181Y0403910D01*
X0562998Y0402520D01*
X0562635Y0401166D01*
X0562099Y0399870D01*
X0561398Y0398656D01*
X0560544Y0397544D01*
X0559553Y0396553D01*
X0558440Y0395699D01*
X0557226Y0394998D01*
X0555931Y0394462D01*
X0554577Y0394099D01*
X0553187Y0393916D01*
X0552486Y0393916D01*
X0486349Y0393916D01*
X0485648D01*
X0484259Y0394099D01*
X0482905Y0394461D01*
X0481611Y0394998D01*
X0480397Y0395698D01*
X0479286Y0396551D01*
X0478295Y0397542D01*
X0477442Y0398654D01*
X0476741Y0399867D01*
X0476205Y0401162D01*
X0475842Y0402515D01*
X0475659Y0403905D01*
Y0404605D01*
X0475659Y0424932D01*
X0476384Y0426016D01*
X0477535Y0427168D01*
X0478890Y0428073D01*
X0480395Y0428696D01*
X0481992Y0429014D01*
X0482806Y0429014D01*
X0482806Y0429014D01*
X0492390D01*
X0492472Y0428514D01*
X0490946Y0427996D01*
X0488975Y0427024D01*
X0487149Y0425803D01*
X0485497Y0424355D01*
X0484048Y0422703D01*
X0482828Y0420876D01*
X0481856Y0418906D01*
X0481150Y0416825D01*
X0480721Y0414671D01*
X0480616Y0413069D01*
X0497373D01*
X0514130D01*
X0514025Y0414671D01*
X0513597Y0416825D01*
X0512891Y0418906D01*
X0511919Y0420876D01*
X0510698Y0422703D01*
X0509250Y0424355D01*
X0507598Y0425803D01*
X0505771Y0427024D01*
X0503801Y0427996D01*
X0502275Y0428514D01*
X0502357Y0429014D01*
X0509944D01*
Y0427215D01*
X0511743D01*
Y0429014D01*
X0512925D01*
Y0427215D01*
X0514724D01*
Y0429014D01*
X0516834D01*
Y0426624D01*
X0518436D01*
Y0428817D01*
X0519618D01*
Y0426624D01*
X0521220D01*
Y0429014D01*
X0524570D01*
X0524628Y0428928D01*
Y0427627D01*
X0527599D01*
Y0427989D01*
X0532108D01*
Y0427627D01*
X0532992D01*
X0539262Y0421357D01*
Y0416622D01*
X0538702D01*
Y0413808D01*
X0538499Y0413680D01*
X0538202Y0413593D01*
X0537755Y0413892D01*
X0537137Y0414015D01*
X0536519Y0413892D01*
X0536090Y0413605D01*
X0535747Y0413716D01*
X0535590Y0413827D01*
Y0416640D01*
X0533988D01*
Y0414053D01*
X0533397D01*
Y0413463D01*
X0531204D01*
Y0411467D01*
X0531872D01*
X0532099Y0410967D01*
X0531865Y0410616D01*
X0531820Y0410391D01*
X0531185Y0409755D01*
X0529076D01*
Y0410126D01*
X0528509D01*
Y0411878D01*
X0528879D01*
Y0415441D01*
X0527427D01*
X0525602Y0417266D01*
X0525809Y0417766D01*
X0527618D01*
Y0419171D01*
X0524610D01*
Y0418386D01*
X0524263Y0418102D01*
X0524263Y0418102D01*
X0519215D01*
X0515499Y0421818D01*
X0515401Y0422309D01*
X0515051Y0422833D01*
X0514527Y0423183D01*
X0513909Y0423306D01*
X0513291Y0423183D01*
X0512767Y0422833D01*
X0512417Y0422309D01*
X0512294Y0421691D01*
X0512417Y0421073D01*
X0512767Y0420549D01*
X0513291Y0420199D01*
X0513782Y0420101D01*
X0517854Y0416030D01*
X0518248Y0415766D01*
X0518712Y0415674D01*
X0518712Y0415674D01*
X0521370D01*
X0521773Y0415441D01*
Y0413595D01*
X0520531Y0412353D01*
X0520268Y0411959D01*
X0520175Y0411494D01*
X0520175Y0411494D01*
Y0410323D01*
X0519214D01*
Y0405973D01*
X0523564D01*
Y0410323D01*
X0522603D01*
Y0410991D01*
X0523490Y0411878D01*
X0524942D01*
Y0413732D01*
X0525403Y0413933D01*
X0525710Y0413684D01*
Y0411878D01*
X0526081D01*
Y0410126D01*
X0525514D01*
Y0406957D01*
X0529076D01*
Y0407328D01*
X0531688D01*
X0531688Y0407328D01*
X0532152Y0407420D01*
X0532546Y0407683D01*
X0533264Y0408401D01*
X0533358Y0408383D01*
X0533976Y0408506D01*
X0534500Y0408856D01*
X0534850Y0409380D01*
X0534973Y0409998D01*
X0534850Y0410616D01*
X0534616Y0410967D01*
X0534843Y0411467D01*
X0535590D01*
X0535923Y0411105D01*
Y0407173D01*
X0534962D01*
Y0405818D01*
X0529076D01*
Y0406189D01*
X0525514D01*
Y0404737D01*
X0524064Y0403287D01*
X0523564Y0403494D01*
Y0404023D01*
X0519214D01*
Y0399674D01*
X0523564D01*
Y0400635D01*
X0524342D01*
X0524342Y0400635D01*
X0524806Y0400727D01*
X0525200Y0400990D01*
X0527230Y0403020D01*
X0529076D01*
Y0403391D01*
X0534962D01*
Y0402036D01*
X0539312D01*
Y0407173D01*
X0538351D01*
Y0411130D01*
X0538703Y0411485D01*
X0543052D01*
Y0416622D01*
X0542493D01*
Y0422026D01*
X0542370Y0422644D01*
X0542020Y0423168D01*
X0535116Y0430071D01*
X0535086Y0430223D01*
X0535080Y0430232D01*
Y0431582D01*
X0532108D01*
Y0431220D01*
X0527630D01*
Y0432656D01*
X0527507Y0433274D01*
X0527157Y0433798D01*
X0526901Y0434054D01*
X0526901Y0445915D01*
X0527885D01*
Y0448108D01*
X0528476D01*
Y0448699D01*
X0530669D01*
Y0449683D01*
X0531167D01*
X0531379Y0449694D01*
X0531795Y0449776D01*
X0532186Y0449939D01*
X0532539Y0450174D01*
X0532696Y0450317D01*
X0532696Y0450317D01*
X0533531Y0451151D01*
X0533753Y0451374D01*
X0534277Y0451724D01*
X0534860Y0451965D01*
X0535478Y0452088D01*
X0535793Y0452088D01*
X0535793Y0452088D01*
X0538376Y0452088D01*
X0538626Y0452113D01*
X0539088Y0452304D01*
X0539441Y0452657D01*
X0539632Y0453119D01*
X0539657Y0453369D01*
X0539657Y0453369D01*
Y0453973D01*
X0541557D01*
Y0453611D01*
X0544528D01*
Y0453973D01*
X0547561D01*
Y0452261D01*
X0547051Y0452160D01*
X0546526Y0451810D01*
X0544213Y0449497D01*
X0542441Y0447724D01*
X0541557D01*
Y0447361D01*
X0537380D01*
X0537372Y0447370D01*
X0537062Y0447861D01*
X0537097Y0448204D01*
X0537173Y0448317D01*
X0537296Y0448935D01*
X0537173Y0449553D01*
X0536823Y0450077D01*
X0536299Y0450427D01*
X0535680Y0450550D01*
X0535062Y0450427D01*
X0534538Y0450077D01*
X0534188Y0449553D01*
X0534065Y0448935D01*
X0534188Y0448317D01*
X0534250Y0448224D01*
X0534077Y0447724D01*
X0534077D01*
Y0443768D01*
X0537048D01*
Y0444131D01*
X0541557D01*
Y0443768D01*
X0544528D01*
Y0445118D01*
X0544535Y0445128D01*
X0544565Y0445280D01*
X0547099Y0447813D01*
X0547561Y0447622D01*
Y0444752D01*
X0548915D01*
Y0443196D01*
X0548348D01*
Y0442787D01*
X0547286D01*
X0546929Y0443026D01*
X0546310Y0443149D01*
X0545692Y0443026D01*
X0545168Y0442676D01*
X0544818Y0442152D01*
X0544695Y0441534D01*
X0544818Y0440915D01*
X0545168Y0440391D01*
X0545692Y0440041D01*
X0546310Y0439918D01*
X0546929Y0440041D01*
X0547404Y0440359D01*
X0548348D01*
Y0440028D01*
X0551910D01*
Y0440381D01*
X0552792D01*
Y0439993D01*
X0556354D01*
Y0443161D01*
X0552792D01*
Y0442809D01*
X0551910D01*
Y0443196D01*
X0551343D01*
Y0444752D01*
X0552698D01*
Y0449052D01*
X0557010D01*
Y0448493D01*
X0562147D01*
Y0452842D01*
X0561193D01*
Y0456770D01*
X0561070Y0457388D01*
X0560720Y0457912D01*
X0558013Y0460619D01*
Y0461897D01*
X0554844D01*
Y0460272D01*
X0554813Y0460116D01*
Y0459919D01*
X0554844Y0459763D01*
Y0458335D01*
X0555728D01*
X0557963Y0456101D01*
Y0452842D01*
X0557010D01*
Y0452283D01*
X0552698D01*
Y0454298D01*
X0553634Y0455234D01*
X0553984Y0455758D01*
X0554107Y0456376D01*
Y0460116D01*
X0554076Y0460272D01*
Y0461897D01*
X0550907D01*
Y0460272D01*
X0550876Y0460116D01*
Y0457045D01*
X0550414Y0456582D01*
X0549845D01*
X0549697Y0456731D01*
X0549173Y0457081D01*
X0548555Y0457204D01*
X0544528D01*
Y0457567D01*
X0541557D01*
Y0457204D01*
X0539657D01*
X0539657Y0464241D01*
X0557077D01*
X0557176Y0464092D01*
X0557700Y0463742D01*
X0558318Y0463619D01*
X0558936Y0463742D01*
X0559460Y0464092D01*
X0559811Y0464616D01*
X0559934Y0465234D01*
X0559811Y0465852D01*
X0559460Y0466376D01*
X0558936Y0466727D01*
X0558795Y0467069D01*
X0558945Y0467293D01*
X0559042Y0467785D01*
X0560234Y0468977D01*
X0560234Y0468977D01*
X0560497Y0469371D01*
X0560590Y0469835D01*
Y0481012D01*
X0560868Y0481429D01*
X0560991Y0482047D01*
X0560868Y0482665D01*
X0560518Y0483189D01*
X0559994Y0483540D01*
X0559376Y0483663D01*
X0558758Y0483540D01*
X0558234Y0483189D01*
X0557883Y0482665D01*
X0557760Y0482047D01*
X0557883Y0481429D01*
X0558162Y0481012D01*
Y0470338D01*
X0557326Y0469502D01*
X0556834Y0469404D01*
X0556685Y0469305D01*
X0556223Y0469496D01*
X0556189Y0469671D01*
X0555910Y0470088D01*
Y0473599D01*
X0555910Y0473599D01*
X0555837Y0473968D01*
X0555889Y0474179D01*
X0556106Y0474532D01*
X0556357Y0474581D01*
X0556881Y0474932D01*
X0557231Y0475456D01*
X0557354Y0476074D01*
X0557231Y0476692D01*
X0556881Y0477216D01*
X0556357Y0477566D01*
X0555739Y0477689D01*
X0555121Y0477566D01*
X0554754Y0477321D01*
X0554254Y0477535D01*
Y0485866D01*
X0554254Y0485866D01*
X0554162Y0486331D01*
X0553899Y0486725D01*
X0553899Y0486725D01*
X0547341Y0493282D01*
Y0494386D01*
X0547620Y0494803D01*
X0547743Y0495421D01*
X0547620Y0496039D01*
X0547270Y0496563D01*
X0546746Y0496914D01*
X0546128Y0497037D01*
X0545509Y0496914D01*
X0544985Y0496563D01*
X0544635Y0496039D01*
X0544512Y0495421D01*
X0544635Y0494803D01*
X0544914Y0494386D01*
Y0493346D01*
X0544414Y0493139D01*
X0543186Y0494366D01*
Y0504465D01*
X0543465Y0504882D01*
X0543588Y0505500D01*
X0543465Y0506118D01*
X0543115Y0506642D01*
X0542591Y0506992D01*
X0541973Y0507115D01*
X0541354Y0506992D01*
X0540830Y0506642D01*
X0540480Y0506118D01*
X0540357Y0505500D01*
X0540480Y0504882D01*
X0540759Y0504465D01*
Y0493864D01*
X0540759Y0493864D01*
X0540851Y0493399D01*
X0541114Y0493005D01*
X0549692Y0484427D01*
Y0469232D01*
X0549414Y0468816D01*
X0549291Y0468197D01*
X0549414Y0467579D01*
X0549764Y0467055D01*
X0550195Y0466767D01*
X0550128Y0466306D01*
X0550112Y0466267D01*
X0539657D01*
X0539657Y0508935D01*
Y0509486D01*
X0539872Y0510566D01*
X0540293Y0511583D01*
X0540905Y0512499D01*
X0541684Y0513278D01*
X0542599Y0513890D01*
X0543617Y0514311D01*
X0544697Y0514526D01*
X0545248Y0514526D01*
X0545248Y0514526D01*
X0557918Y0514525D01*
D02*
G37*
G36*
X0452405D02*
X0452672Y0514025D01*
X0452596Y0513911D01*
X0452473Y0513293D01*
X0452596Y0512675D01*
X0452946Y0512151D01*
X0453470Y0511801D01*
X0454088Y0511678D01*
X0454706Y0511801D01*
X0455230Y0512151D01*
X0455580Y0512675D01*
X0455703Y0513293D01*
X0455691Y0513355D01*
X0456141Y0513656D01*
X0456734Y0513260D01*
X0457524Y0512470D01*
X0457668Y0512254D01*
X0457668Y0481376D01*
X0457668Y0466022D01*
X0457668Y0462085D01*
X0457668Y0462085D01*
X0457668Y0462085D01*
X0457668Y0404611D01*
X0457668Y0403910D01*
X0457485Y0402520D01*
X0457122Y0401166D01*
X0456585Y0399870D01*
X0455884Y0398656D01*
X0455031Y0397544D01*
X0454039Y0396553D01*
X0452927Y0395699D01*
X0451713Y0394998D01*
X0450418Y0394462D01*
X0449064Y0394099D01*
X0447674Y0393916D01*
X0446973Y0393916D01*
X0380836Y0393916D01*
X0380135D01*
X0378746Y0394099D01*
X0377392Y0394461D01*
X0376098Y0394998D01*
X0374884Y0395698D01*
X0373773Y0396551D01*
X0372782Y0397542D01*
X0371929Y0398654D01*
X0371228Y0399867D01*
X0370692Y0401162D01*
X0370329Y0402515D01*
X0370146Y0403905D01*
Y0404605D01*
X0370146Y0424932D01*
X0370871Y0426016D01*
X0372022Y0427168D01*
X0373377Y0428073D01*
X0374881Y0428696D01*
X0376479Y0429014D01*
X0377293Y0429014D01*
X0377293Y0429014D01*
X0386877D01*
X0386959Y0428514D01*
X0385433Y0427996D01*
X0383462Y0427024D01*
X0381636Y0425803D01*
X0379984Y0424355D01*
X0378535Y0422703D01*
X0377315Y0420876D01*
X0376343Y0418906D01*
X0375637Y0416825D01*
X0375208Y0414671D01*
X0375103Y0413069D01*
X0391860D01*
X0408617D01*
X0408512Y0414671D01*
X0408084Y0416825D01*
X0407377Y0418906D01*
X0406406Y0420876D01*
X0405185Y0422703D01*
X0403737Y0424355D01*
X0402085Y0425803D01*
X0400258Y0427024D01*
X0398288Y0427996D01*
X0396761Y0428514D01*
X0396844Y0429014D01*
X0404431D01*
Y0427215D01*
X0406230D01*
Y0429014D01*
X0407411D01*
Y0427215D01*
X0409211D01*
Y0429014D01*
X0411321D01*
Y0426624D01*
X0412923D01*
Y0428817D01*
X0414104D01*
Y0426624D01*
X0415707D01*
Y0429014D01*
X0419057D01*
X0419114Y0428928D01*
Y0427627D01*
X0422086D01*
Y0427989D01*
X0426595D01*
Y0427627D01*
X0427479D01*
X0433749Y0421357D01*
Y0416622D01*
X0433189D01*
Y0413808D01*
X0432986Y0413680D01*
X0432689Y0413593D01*
X0432242Y0413892D01*
X0431624Y0414015D01*
X0431006Y0413892D01*
X0430577Y0413605D01*
X0430234Y0413716D01*
X0430077Y0413827D01*
Y0416640D01*
X0428474D01*
Y0414053D01*
X0427884D01*
Y0413463D01*
X0425691D01*
Y0411467D01*
X0426359D01*
X0426586Y0410967D01*
X0426352Y0410616D01*
X0426307Y0410391D01*
X0425672Y0409755D01*
X0423563D01*
Y0410126D01*
X0422995D01*
Y0411878D01*
X0423366D01*
Y0415441D01*
X0421914D01*
X0420089Y0417266D01*
X0420296Y0417766D01*
X0422104D01*
Y0419171D01*
X0419096D01*
Y0418386D01*
X0418750Y0418102D01*
X0418750Y0418102D01*
X0413702D01*
X0409986Y0421818D01*
X0409888Y0422309D01*
X0409538Y0422833D01*
X0409014Y0423183D01*
X0408396Y0423306D01*
X0407778Y0423183D01*
X0407254Y0422833D01*
X0406903Y0422309D01*
X0406780Y0421691D01*
X0406903Y0421073D01*
X0407254Y0420549D01*
X0407778Y0420199D01*
X0408269Y0420101D01*
X0412340Y0416030D01*
X0412734Y0415766D01*
X0413199Y0415674D01*
X0413199Y0415674D01*
X0415857D01*
X0416260Y0415441D01*
Y0413595D01*
X0415018Y0412353D01*
X0414754Y0411959D01*
X0414662Y0411494D01*
X0414662Y0411494D01*
Y0410323D01*
X0413701D01*
Y0405973D01*
X0418051D01*
Y0410323D01*
X0417090D01*
Y0410991D01*
X0417977Y0411878D01*
X0419429D01*
Y0413732D01*
X0419890Y0413933D01*
X0420197Y0413684D01*
Y0411878D01*
X0420568D01*
Y0410126D01*
X0420000D01*
Y0406957D01*
X0423563D01*
Y0407328D01*
X0426175D01*
X0426175Y0407328D01*
X0426639Y0407420D01*
X0427033Y0407683D01*
X0427751Y0408401D01*
X0427844Y0408383D01*
X0428463Y0408506D01*
X0428987Y0408856D01*
X0429337Y0409380D01*
X0429460Y0409998D01*
X0429337Y0410616D01*
X0429103Y0410967D01*
X0429330Y0411467D01*
X0430077D01*
X0430410Y0411105D01*
Y0407173D01*
X0429449D01*
Y0405818D01*
X0423563D01*
Y0406189D01*
X0420000D01*
Y0404737D01*
X0418551Y0403287D01*
X0418051Y0403494D01*
Y0404023D01*
X0413701D01*
Y0399674D01*
X0418051D01*
Y0400635D01*
X0418829D01*
X0418829Y0400635D01*
X0419293Y0400727D01*
X0419687Y0400990D01*
X0421717Y0403020D01*
X0423563D01*
Y0403391D01*
X0429449D01*
Y0402036D01*
X0433799D01*
Y0407173D01*
X0432838D01*
Y0411130D01*
X0433189Y0411485D01*
X0437539D01*
Y0416622D01*
X0436979D01*
Y0422026D01*
X0436857Y0422644D01*
X0436506Y0423168D01*
X0429603Y0430071D01*
X0429573Y0430223D01*
X0429566Y0430232D01*
Y0431582D01*
X0426595D01*
Y0431220D01*
X0422117D01*
Y0432656D01*
X0421994Y0433274D01*
X0421644Y0433798D01*
X0421388Y0434054D01*
X0421388Y0445915D01*
X0422372D01*
Y0448108D01*
X0422963D01*
Y0448699D01*
X0425155D01*
Y0449683D01*
X0425653D01*
X0425865Y0449694D01*
X0426281Y0449776D01*
X0426673Y0449939D01*
X0427026Y0450174D01*
X0427183Y0450317D01*
X0427183Y0450317D01*
X0428017Y0451151D01*
X0428240Y0451374D01*
X0428764Y0451724D01*
X0429346Y0451965D01*
X0429964Y0452088D01*
X0430280Y0452088D01*
X0430280Y0452088D01*
X0432863Y0452088D01*
X0433113Y0452113D01*
X0433574Y0452304D01*
X0433928Y0452657D01*
X0434119Y0453119D01*
X0434144Y0453369D01*
X0434144Y0453369D01*
Y0453973D01*
X0436044D01*
Y0453611D01*
X0439015D01*
Y0453973D01*
X0442048D01*
Y0452261D01*
X0441537Y0452160D01*
X0441013Y0451810D01*
X0438700Y0449497D01*
X0436928Y0447724D01*
X0436044D01*
Y0447361D01*
X0431867D01*
X0431859Y0447370D01*
X0431549Y0447861D01*
X0431584Y0448204D01*
X0431660Y0448317D01*
X0431783Y0448935D01*
X0431660Y0449553D01*
X0431310Y0450077D01*
X0430785Y0450427D01*
X0430167Y0450550D01*
X0429549Y0450427D01*
X0429025Y0450077D01*
X0428675Y0449553D01*
X0428552Y0448935D01*
X0428675Y0448317D01*
X0428737Y0448224D01*
X0428563Y0447724D01*
X0428563D01*
Y0443768D01*
X0431535D01*
Y0444131D01*
X0436044D01*
Y0443768D01*
X0439015D01*
Y0445118D01*
X0439022Y0445128D01*
X0439052Y0445280D01*
X0441586Y0447813D01*
X0442048Y0447622D01*
Y0444752D01*
X0443402D01*
Y0443196D01*
X0442835D01*
Y0442787D01*
X0441773D01*
X0441415Y0443026D01*
X0440797Y0443149D01*
X0440179Y0443026D01*
X0439655Y0442676D01*
X0439305Y0442152D01*
X0439182Y0441534D01*
X0439305Y0440915D01*
X0439655Y0440391D01*
X0440179Y0440041D01*
X0440797Y0439918D01*
X0441415Y0440041D01*
X0441891Y0440359D01*
X0442835D01*
Y0440028D01*
X0446397D01*
Y0440381D01*
X0447278D01*
Y0439993D01*
X0450841D01*
Y0443161D01*
X0447278D01*
Y0442809D01*
X0446397D01*
Y0443196D01*
X0445830D01*
Y0444752D01*
X0447185D01*
Y0449052D01*
X0451496D01*
Y0448493D01*
X0456633D01*
Y0452842D01*
X0455680D01*
Y0456770D01*
X0455557Y0457388D01*
X0455207Y0457912D01*
X0452500Y0460619D01*
Y0461897D01*
X0449331D01*
Y0460272D01*
X0449300Y0460116D01*
Y0459919D01*
X0449331Y0459763D01*
Y0458335D01*
X0450215D01*
X0452450Y0456101D01*
Y0452842D01*
X0451496D01*
Y0452283D01*
X0447185D01*
Y0454298D01*
X0448120Y0455234D01*
X0448471Y0455758D01*
X0448594Y0456376D01*
Y0460116D01*
X0448563Y0460272D01*
Y0461897D01*
X0445394D01*
Y0460272D01*
X0445363Y0460116D01*
Y0457045D01*
X0444900Y0456582D01*
X0444332D01*
X0444183Y0456731D01*
X0443659Y0457081D01*
X0443041Y0457204D01*
X0439015D01*
Y0457567D01*
X0436044D01*
Y0457204D01*
X0434144D01*
X0434144Y0464241D01*
X0451564D01*
X0451663Y0464092D01*
X0452187Y0463742D01*
X0452805Y0463619D01*
X0453423Y0463742D01*
X0453947Y0464092D01*
X0454297Y0464616D01*
X0454420Y0465234D01*
X0454297Y0465852D01*
X0453947Y0466376D01*
X0453423Y0466727D01*
X0453281Y0467069D01*
X0453431Y0467293D01*
X0453529Y0467785D01*
X0454721Y0468977D01*
X0454721Y0468977D01*
X0454984Y0469371D01*
X0455076Y0469835D01*
Y0481012D01*
X0455355Y0481429D01*
X0455478Y0482047D01*
X0455355Y0482665D01*
X0455005Y0483189D01*
X0454481Y0483540D01*
X0453862Y0483663D01*
X0453244Y0483540D01*
X0452720Y0483189D01*
X0452370Y0482665D01*
X0452247Y0482047D01*
X0452370Y0481429D01*
X0452649Y0481012D01*
Y0470338D01*
X0451812Y0469502D01*
X0451321Y0469404D01*
X0451172Y0469305D01*
X0450710Y0469496D01*
X0450675Y0469671D01*
X0450397Y0470088D01*
Y0473599D01*
X0450397Y0473599D01*
X0450323Y0473968D01*
X0450376Y0474179D01*
X0450593Y0474532D01*
X0450844Y0474581D01*
X0451368Y0474932D01*
X0451718Y0475456D01*
X0451841Y0476074D01*
X0451718Y0476692D01*
X0451368Y0477216D01*
X0450844Y0477566D01*
X0450226Y0477689D01*
X0449608Y0477566D01*
X0449241Y0477321D01*
X0448741Y0477535D01*
Y0485866D01*
X0448741Y0485866D01*
X0448649Y0486331D01*
X0448386Y0486725D01*
X0448386Y0486725D01*
X0441828Y0493282D01*
Y0494386D01*
X0442107Y0494803D01*
X0442230Y0495421D01*
X0442107Y0496039D01*
X0441756Y0496563D01*
X0441232Y0496914D01*
X0440614Y0497037D01*
X0439996Y0496914D01*
X0439472Y0496563D01*
X0439122Y0496039D01*
X0438999Y0495421D01*
X0439122Y0494803D01*
X0439400Y0494386D01*
Y0493346D01*
X0438901Y0493139D01*
X0437673Y0494366D01*
Y0504465D01*
X0437952Y0504882D01*
X0438075Y0505500D01*
X0437952Y0506118D01*
X0437602Y0506642D01*
X0437078Y0506992D01*
X0436459Y0507115D01*
X0435841Y0506992D01*
X0435317Y0506642D01*
X0434967Y0506118D01*
X0434844Y0505500D01*
X0434967Y0504882D01*
X0435246Y0504465D01*
Y0493864D01*
X0435246Y0493864D01*
X0435338Y0493399D01*
X0435601Y0493005D01*
X0444179Y0484427D01*
Y0469232D01*
X0443901Y0468816D01*
X0443778Y0468197D01*
X0443901Y0467579D01*
X0444251Y0467055D01*
X0444682Y0466767D01*
X0444615Y0466306D01*
X0444599Y0466267D01*
X0434144D01*
X0434144Y0508935D01*
Y0509486D01*
X0434358Y0510566D01*
X0434780Y0511583D01*
X0435392Y0512499D01*
X0436170Y0513278D01*
X0437086Y0513890D01*
X0438104Y0514311D01*
X0439184Y0514526D01*
X0439735Y0514526D01*
X0439735Y0514526D01*
X0452405Y0514525D01*
D02*
G37*
G36*
X0703329Y0470737D02*
Y0470649D01*
X0703294Y0470475D01*
X0703226Y0470312D01*
X0703128Y0470165D01*
X0703066Y0470102D01*
X0703026Y0470058D01*
X0702960Y0469959D01*
X0702914Y0469850D01*
X0702891Y0469733D01*
X0702888Y0469674D01*
Y0463463D01*
X0698997D01*
X0698607Y0463540D01*
X0698241Y0463692D01*
X0697910Y0463913D01*
X0697770Y0464053D01*
X0697653Y0464159D01*
X0697390Y0464335D01*
X0697098Y0464456D01*
X0696788Y0464518D01*
X0696629Y0464526D01*
X0690486D01*
X0690486Y0464526D01*
X0690264Y0464749D01*
X0689913Y0465273D01*
X0689672Y0465855D01*
X0689549Y0466474D01*
Y0466789D01*
Y0478148D01*
X0703329D01*
Y0470737D01*
D02*
G37*
G36*
X0597815D02*
Y0470649D01*
X0597781Y0470475D01*
X0597713Y0470312D01*
X0597615Y0470165D01*
X0597552Y0470102D01*
X0597512Y0470058D01*
X0597446Y0469959D01*
X0597401Y0469850D01*
X0597378Y0469733D01*
X0597375Y0469674D01*
Y0463463D01*
X0593484D01*
X0593094Y0463540D01*
X0592727Y0463692D01*
X0592397Y0463913D01*
X0592257Y0464053D01*
X0592139Y0464159D01*
X0591877Y0464335D01*
X0591584Y0464456D01*
X0591274Y0464518D01*
X0591116Y0464526D01*
X0584973D01*
X0584973Y0464526D01*
X0584750Y0464749D01*
X0584400Y0465273D01*
X0584159Y0465855D01*
X0584036Y0466474D01*
Y0466789D01*
Y0478148D01*
X0597815D01*
Y0470737D01*
D02*
G37*
G36*
X0492302D02*
Y0470649D01*
X0492268Y0470475D01*
X0492200Y0470312D01*
X0492102Y0470165D01*
X0492039Y0470102D01*
X0491999Y0470058D01*
X0491933Y0469959D01*
X0491888Y0469850D01*
X0491864Y0469733D01*
X0491862Y0469674D01*
Y0463463D01*
X0487971D01*
X0487581Y0463540D01*
X0487214Y0463692D01*
X0486884Y0463913D01*
X0486743Y0464053D01*
X0486626Y0464159D01*
X0486363Y0464335D01*
X0486071Y0464456D01*
X0485761Y0464518D01*
X0485603Y0464526D01*
X0479460D01*
X0479460Y0464526D01*
X0479237Y0464749D01*
X0478887Y0465273D01*
X0478646Y0465855D01*
X0478522Y0466474D01*
Y0466789D01*
Y0478148D01*
X0492302D01*
Y0470737D01*
D02*
G37*
G36*
X0386789D02*
Y0470649D01*
X0386754Y0470475D01*
X0386687Y0470312D01*
X0386588Y0470165D01*
X0386526Y0470102D01*
X0386486Y0470058D01*
X0386420Y0469959D01*
X0386374Y0469850D01*
X0386351Y0469733D01*
X0386348Y0469674D01*
Y0463463D01*
X0382457D01*
X0382068Y0463540D01*
X0381701Y0463692D01*
X0381371Y0463913D01*
X0381230Y0464053D01*
X0381113Y0464159D01*
X0380850Y0464335D01*
X0380558Y0464456D01*
X0380248Y0464518D01*
X0380090Y0464526D01*
X0373947D01*
X0373947Y0464526D01*
X0373724Y0464749D01*
X0373374Y0465273D01*
X0373132Y0465855D01*
X0373009Y0466474D01*
Y0466789D01*
Y0478148D01*
X0386789D01*
Y0470737D01*
D02*
G37*
%LPC*%
G36*
X0771013Y0498712D02*
X0770395Y0498589D01*
X0769871Y0498239D01*
X0769520Y0497715D01*
X0769397Y0497096D01*
X0769520Y0496478D01*
X0769871Y0495954D01*
X0770395Y0495604D01*
X0771013Y0495481D01*
X0771631Y0495604D01*
X0772155Y0495954D01*
X0772505Y0496478D01*
X0772628Y0497096D01*
X0772505Y0497715D01*
X0772155Y0498239D01*
X0771631Y0498589D01*
X0771013Y0498712D01*
D02*
G37*
G36*
X0741695Y0447518D02*
X0740093D01*
Y0445915D01*
X0741695D01*
Y0447518D01*
D02*
G37*
G36*
X0773567Y0442212D02*
X0769217D01*
Y0439579D01*
X0768492Y0438854D01*
X0767380D01*
Y0439224D01*
X0763818D01*
Y0436056D01*
X0767380D01*
Y0436426D01*
X0768995D01*
X0768995Y0436426D01*
X0769459Y0436519D01*
X0769853Y0436782D01*
X0770934Y0437863D01*
X0773567D01*
Y0442212D01*
D02*
G37*
G36*
X0745408Y0442440D02*
X0744790Y0442317D01*
X0744265Y0441967D01*
X0743915Y0441443D01*
X0743792Y0440825D01*
X0743915Y0440207D01*
X0744265Y0439683D01*
X0744790Y0439332D01*
X0745408Y0439210D01*
X0746026Y0439332D01*
X0746550Y0439683D01*
X0746636Y0439812D01*
X0748571D01*
X0748597Y0439682D01*
X0748947Y0439158D01*
X0749471Y0438808D01*
X0750089Y0438685D01*
X0750707Y0438808D01*
X0751231Y0439158D01*
X0751581Y0439682D01*
X0751704Y0440300D01*
X0751581Y0440918D01*
X0751231Y0441442D01*
X0750707Y0441793D01*
X0750089Y0441916D01*
X0749472Y0441793D01*
X0749245Y0441838D01*
X0746636D01*
X0746550Y0441967D01*
X0746026Y0442317D01*
X0745408Y0442440D01*
D02*
G37*
G36*
X0762955Y0439278D02*
X0761746D01*
Y0438266D01*
X0762955D01*
Y0439278D01*
D02*
G37*
G36*
X0760565D02*
X0759356D01*
Y0438266D01*
X0760565D01*
Y0439278D01*
D02*
G37*
G36*
X0773585Y0435931D02*
X0771982D01*
Y0434329D01*
X0773585D01*
Y0435931D01*
D02*
G37*
G36*
X0770801D02*
X0769199D01*
Y0434329D01*
X0770801D01*
Y0435931D01*
D02*
G37*
G36*
X0773585Y0433148D02*
X0771982D01*
Y0431545D01*
X0773585D01*
Y0433148D01*
D02*
G37*
G36*
X0770801D02*
X0769199D01*
Y0431545D01*
X0770801D01*
Y0433148D01*
D02*
G37*
G36*
X0746124Y0421758D02*
X0745211D01*
Y0420353D01*
X0746124D01*
Y0421758D01*
D02*
G37*
G36*
X0744030D02*
X0743116D01*
Y0420353D01*
X0744030D01*
Y0421758D01*
D02*
G37*
G36*
X0738644D02*
X0737731D01*
Y0420353D01*
X0738644D01*
Y0421758D01*
D02*
G37*
G36*
X0736550D02*
X0735636D01*
Y0420353D01*
X0736550D01*
Y0421758D01*
D02*
G37*
G36*
X0746124Y0419171D02*
X0745211D01*
Y0417766D01*
X0746124D01*
Y0419171D01*
D02*
G37*
G36*
X0744030D02*
X0743116D01*
Y0417766D01*
X0744030D01*
Y0419171D01*
D02*
G37*
G36*
X0762955Y0437085D02*
X0761156D01*
X0759356D01*
Y0436073D01*
X0758983Y0435768D01*
X0758833Y0435668D01*
X0758482Y0435144D01*
X0758385Y0434652D01*
X0757778Y0434045D01*
X0757515Y0433652D01*
X0757422Y0433187D01*
X0757422Y0433187D01*
Y0422529D01*
X0757144Y0422112D01*
X0757021Y0421494D01*
X0757144Y0420876D01*
X0757494Y0420352D01*
X0757760Y0420174D01*
X0757771Y0419580D01*
X0757573Y0419447D01*
X0757223Y0418923D01*
X0757099Y0418305D01*
X0757223Y0417687D01*
X0757573Y0417163D01*
X0758097Y0416813D01*
X0758715Y0416690D01*
X0759333Y0416813D01*
X0759857Y0417163D01*
X0760207Y0417687D01*
X0760305Y0418179D01*
X0762065Y0419938D01*
X0762065Y0419938D01*
X0762328Y0420332D01*
X0762420Y0420797D01*
X0762420Y0420797D01*
Y0431077D01*
X0762699Y0431494D01*
X0762822Y0432112D01*
X0762699Y0432730D01*
X0762349Y0433254D01*
X0761853Y0433585D01*
X0761467Y0433908D01*
X0761590Y0434526D01*
X0761467Y0435144D01*
X0761180Y0435573D01*
X0761291Y0435916D01*
X0761402Y0436073D01*
X0762955D01*
Y0437085D01*
D02*
G37*
G36*
X0743833Y0416640D02*
X0742231D01*
Y0414644D01*
X0743833D01*
Y0416640D01*
D02*
G37*
G36*
X0707809Y0411888D02*
X0691643D01*
X0691748Y0410286D01*
X0692176Y0408131D01*
X0692883Y0406051D01*
X0693854Y0404080D01*
X0695075Y0402254D01*
X0696523Y0400602D01*
X0698175Y0399153D01*
X0700002Y0397933D01*
X0701972Y0396961D01*
X0704053Y0396255D01*
X0706208Y0395826D01*
X0707809Y0395721D01*
Y0411888D01*
D02*
G37*
G36*
X0725157D02*
X0708990D01*
Y0395721D01*
X0710592Y0395826D01*
X0712747Y0396255D01*
X0714827Y0396961D01*
X0716798Y0397933D01*
X0718624Y0399153D01*
X0720276Y0400602D01*
X0721725Y0402254D01*
X0722945Y0404080D01*
X0723917Y0406051D01*
X0724623Y0408131D01*
X0725052Y0410286D01*
X0725157Y0411888D01*
D02*
G37*
G36*
X0665499Y0498712D02*
X0664881Y0498589D01*
X0664357Y0498239D01*
X0664007Y0497715D01*
X0663884Y0497096D01*
X0664007Y0496478D01*
X0664357Y0495954D01*
X0664881Y0495604D01*
X0665499Y0495481D01*
X0666118Y0495604D01*
X0666642Y0495954D01*
X0666992Y0496478D01*
X0667115Y0497096D01*
X0666992Y0497715D01*
X0666642Y0498239D01*
X0666118Y0498589D01*
X0665499Y0498712D01*
D02*
G37*
G36*
X0636182Y0447518D02*
X0634580D01*
Y0445915D01*
X0636182D01*
Y0447518D01*
D02*
G37*
G36*
X0668054Y0442212D02*
X0663704D01*
Y0439579D01*
X0662979Y0438854D01*
X0661867D01*
Y0439224D01*
X0658305D01*
Y0436056D01*
X0661867D01*
Y0436426D01*
X0663481D01*
X0663482Y0436426D01*
X0663946Y0436519D01*
X0664340Y0436782D01*
X0665421Y0437863D01*
X0668054D01*
Y0442212D01*
D02*
G37*
G36*
X0639894Y0442440D02*
X0639276Y0442317D01*
X0638752Y0441967D01*
X0638402Y0441443D01*
X0638279Y0440825D01*
X0638402Y0440207D01*
X0638752Y0439683D01*
X0639276Y0439332D01*
X0639894Y0439210D01*
X0640513Y0439332D01*
X0641037Y0439683D01*
X0641123Y0439812D01*
X0643058D01*
X0643083Y0439682D01*
X0643434Y0439158D01*
X0643958Y0438808D01*
X0644576Y0438685D01*
X0645194Y0438808D01*
X0645718Y0439158D01*
X0646068Y0439682D01*
X0646191Y0440300D01*
X0646068Y0440918D01*
X0645718Y0441442D01*
X0645194Y0441793D01*
X0644576Y0441916D01*
X0643959Y0441793D01*
X0643732Y0441838D01*
X0641123D01*
X0641037Y0441967D01*
X0640513Y0442317D01*
X0639894Y0442440D01*
D02*
G37*
G36*
X0657442Y0439278D02*
X0656233D01*
Y0438266D01*
X0657442D01*
Y0439278D01*
D02*
G37*
G36*
X0655052D02*
X0653843D01*
Y0438266D01*
X0655052D01*
Y0439278D01*
D02*
G37*
G36*
X0668072Y0435931D02*
X0666469D01*
Y0434329D01*
X0668072D01*
Y0435931D01*
D02*
G37*
G36*
X0665288D02*
X0663686D01*
Y0434329D01*
X0665288D01*
Y0435931D01*
D02*
G37*
G36*
X0668072Y0433148D02*
X0666469D01*
Y0431545D01*
X0668072D01*
Y0433148D01*
D02*
G37*
G36*
X0665288D02*
X0663686D01*
Y0431545D01*
X0665288D01*
Y0433148D01*
D02*
G37*
G36*
X0640611Y0421758D02*
X0639698D01*
Y0420353D01*
X0640611D01*
Y0421758D01*
D02*
G37*
G36*
X0638517D02*
X0637603D01*
Y0420353D01*
X0638517D01*
Y0421758D01*
D02*
G37*
G36*
X0633131D02*
X0632217D01*
Y0420353D01*
X0633131D01*
Y0421758D01*
D02*
G37*
G36*
X0631036D02*
X0630123D01*
Y0420353D01*
X0631036D01*
Y0421758D01*
D02*
G37*
G36*
X0640611Y0419171D02*
X0639698D01*
Y0417766D01*
X0640611D01*
Y0419171D01*
D02*
G37*
G36*
X0638517D02*
X0637603D01*
Y0417766D01*
X0638517D01*
Y0419171D01*
D02*
G37*
G36*
X0657442Y0437085D02*
X0655643D01*
X0653843D01*
Y0436073D01*
X0653470Y0435768D01*
X0653319Y0435668D01*
X0652969Y0435144D01*
X0652871Y0434652D01*
X0652264Y0434045D01*
X0652001Y0433652D01*
X0651909Y0433187D01*
X0651909Y0433187D01*
Y0422529D01*
X0651630Y0422112D01*
X0651508Y0421494D01*
X0651630Y0420876D01*
X0651981Y0420352D01*
X0652247Y0420174D01*
X0652258Y0419580D01*
X0652059Y0419447D01*
X0651709Y0418923D01*
X0651586Y0418305D01*
X0651709Y0417687D01*
X0652059Y0417163D01*
X0652584Y0416813D01*
X0653202Y0416690D01*
X0653820Y0416813D01*
X0654344Y0417163D01*
X0654694Y0417687D01*
X0654792Y0418179D01*
X0656551Y0419938D01*
X0656552Y0419938D01*
X0656815Y0420332D01*
X0656907Y0420797D01*
X0656907Y0420797D01*
Y0431077D01*
X0657186Y0431494D01*
X0657308Y0432112D01*
X0657186Y0432730D01*
X0656835Y0433254D01*
X0656340Y0433585D01*
X0655954Y0433908D01*
X0656077Y0434526D01*
X0655954Y0435144D01*
X0655667Y0435573D01*
X0655778Y0435916D01*
X0655889Y0436073D01*
X0657442D01*
Y0437085D01*
D02*
G37*
G36*
X0638320Y0416640D02*
X0636717D01*
Y0414644D01*
X0638320D01*
Y0416640D01*
D02*
G37*
G36*
X0602296Y0411888D02*
X0586130D01*
X0586235Y0410286D01*
X0586663Y0408131D01*
X0587369Y0406051D01*
X0588341Y0404080D01*
X0589562Y0402254D01*
X0591010Y0400602D01*
X0592662Y0399153D01*
X0594489Y0397933D01*
X0596459Y0396961D01*
X0598540Y0396255D01*
X0600694Y0395826D01*
X0602296Y0395721D01*
Y0411888D01*
D02*
G37*
G36*
X0619644D02*
X0603477D01*
Y0395721D01*
X0605079Y0395826D01*
X0607234Y0396255D01*
X0609314Y0396961D01*
X0611284Y0397933D01*
X0613111Y0399153D01*
X0614763Y0400602D01*
X0616212Y0402254D01*
X0617432Y0404080D01*
X0618404Y0406051D01*
X0619110Y0408131D01*
X0619539Y0410286D01*
X0619644Y0411888D01*
D02*
G37*
G36*
X0559986Y0498712D02*
X0559368Y0498589D01*
X0558844Y0498239D01*
X0558494Y0497715D01*
X0558371Y0497096D01*
X0558494Y0496478D01*
X0558844Y0495954D01*
X0559368Y0495604D01*
X0559986Y0495481D01*
X0560604Y0495604D01*
X0561129Y0495954D01*
X0561479Y0496478D01*
X0561602Y0497096D01*
X0561479Y0497715D01*
X0561129Y0498239D01*
X0560604Y0498589D01*
X0559986Y0498712D01*
D02*
G37*
G36*
X0530669Y0447518D02*
X0529066D01*
Y0445915D01*
X0530669D01*
Y0447518D01*
D02*
G37*
G36*
X0562540Y0442212D02*
X0558191D01*
Y0439579D01*
X0557465Y0438854D01*
X0556354D01*
Y0439224D01*
X0552792D01*
Y0436056D01*
X0556354D01*
Y0436426D01*
X0557968D01*
X0557968Y0436426D01*
X0558433Y0436519D01*
X0558827Y0436782D01*
X0559907Y0437863D01*
X0562540D01*
Y0442212D01*
D02*
G37*
G36*
X0534381Y0442440D02*
X0533763Y0442317D01*
X0533239Y0441967D01*
X0532889Y0441443D01*
X0532766Y0440825D01*
X0532889Y0440207D01*
X0533239Y0439683D01*
X0533763Y0439332D01*
X0534381Y0439210D01*
X0534999Y0439332D01*
X0535523Y0439683D01*
X0535610Y0439812D01*
X0537544D01*
X0537570Y0439682D01*
X0537920Y0439158D01*
X0538444Y0438808D01*
X0539062Y0438685D01*
X0539681Y0438808D01*
X0540205Y0439158D01*
X0540555Y0439682D01*
X0540678Y0440300D01*
X0540555Y0440918D01*
X0540205Y0441442D01*
X0539681Y0441793D01*
X0539062Y0441916D01*
X0538446Y0441793D01*
X0538218Y0441838D01*
X0535610D01*
X0535523Y0441967D01*
X0534999Y0442317D01*
X0534381Y0442440D01*
D02*
G37*
G36*
X0551929Y0439278D02*
X0550720D01*
Y0438266D01*
X0551929D01*
Y0439278D01*
D02*
G37*
G36*
X0549539D02*
X0548330D01*
Y0438266D01*
X0549539D01*
Y0439278D01*
D02*
G37*
G36*
X0562558Y0435931D02*
X0560956D01*
Y0434329D01*
X0562558D01*
Y0435931D01*
D02*
G37*
G36*
X0559775D02*
X0558173D01*
Y0434329D01*
X0559775D01*
Y0435931D01*
D02*
G37*
G36*
X0562558Y0433148D02*
X0560956D01*
Y0431545D01*
X0562558D01*
Y0433148D01*
D02*
G37*
G36*
X0559775D02*
X0558173D01*
Y0431545D01*
X0559775D01*
Y0433148D01*
D02*
G37*
G36*
X0535098Y0421758D02*
X0534184D01*
Y0420353D01*
X0535098D01*
Y0421758D01*
D02*
G37*
G36*
X0533003D02*
X0532090D01*
Y0420353D01*
X0533003D01*
Y0421758D01*
D02*
G37*
G36*
X0527618D02*
X0526704D01*
Y0420353D01*
X0527618D01*
Y0421758D01*
D02*
G37*
G36*
X0525523D02*
X0524610D01*
Y0420353D01*
X0525523D01*
Y0421758D01*
D02*
G37*
G36*
X0535098Y0419171D02*
X0534184D01*
Y0417766D01*
X0535098D01*
Y0419171D01*
D02*
G37*
G36*
X0533003D02*
X0532090D01*
Y0417766D01*
X0533003D01*
Y0419171D01*
D02*
G37*
G36*
X0551929Y0437085D02*
X0550129D01*
X0548330D01*
Y0436073D01*
X0547956Y0435768D01*
X0547806Y0435668D01*
X0547456Y0435144D01*
X0547358Y0434652D01*
X0546751Y0434045D01*
X0546488Y0433652D01*
X0546396Y0433187D01*
X0546396Y0433187D01*
Y0422529D01*
X0546117Y0422112D01*
X0545994Y0421494D01*
X0546117Y0420876D01*
X0546467Y0420352D01*
X0546734Y0420174D01*
X0546745Y0419580D01*
X0546546Y0419447D01*
X0546196Y0418923D01*
X0546073Y0418305D01*
X0546196Y0417687D01*
X0546546Y0417163D01*
X0547070Y0416813D01*
X0547688Y0416690D01*
X0548307Y0416813D01*
X0548831Y0417163D01*
X0549181Y0417687D01*
X0549278Y0418179D01*
X0551038Y0419938D01*
X0551038Y0419938D01*
X0551301Y0420332D01*
X0551394Y0420797D01*
X0551394Y0420797D01*
Y0431077D01*
X0551672Y0431494D01*
X0551795Y0432112D01*
X0551672Y0432730D01*
X0551322Y0433254D01*
X0550827Y0433585D01*
X0550441Y0433908D01*
X0550563Y0434526D01*
X0550441Y0435144D01*
X0550154Y0435573D01*
X0550265Y0435916D01*
X0550375Y0436073D01*
X0551929D01*
Y0437085D01*
D02*
G37*
G36*
X0532806Y0416640D02*
X0531204D01*
Y0414644D01*
X0532806D01*
Y0416640D01*
D02*
G37*
G36*
X0496783Y0411888D02*
X0480616D01*
X0480721Y0410286D01*
X0481150Y0408131D01*
X0481856Y0406051D01*
X0482828Y0404080D01*
X0484048Y0402254D01*
X0485497Y0400602D01*
X0487149Y0399153D01*
X0488975Y0397933D01*
X0490946Y0396961D01*
X0493026Y0396255D01*
X0495181Y0395826D01*
X0496783Y0395721D01*
Y0411888D01*
D02*
G37*
G36*
X0514130D02*
X0497964D01*
Y0395721D01*
X0499566Y0395826D01*
X0501721Y0396255D01*
X0503801Y0396961D01*
X0505771Y0397933D01*
X0507598Y0399153D01*
X0509250Y0400602D01*
X0510698Y0402254D01*
X0511919Y0404080D01*
X0512891Y0406051D01*
X0513597Y0408131D01*
X0514025Y0410286D01*
X0514130Y0411888D01*
D02*
G37*
G36*
X0454473Y0498712D02*
X0453855Y0498589D01*
X0453331Y0498239D01*
X0452981Y0497715D01*
X0452858Y0497096D01*
X0452981Y0496478D01*
X0453331Y0495954D01*
X0453855Y0495604D01*
X0454473Y0495481D01*
X0455091Y0495604D01*
X0455615Y0495954D01*
X0455965Y0496478D01*
X0456088Y0497096D01*
X0455965Y0497715D01*
X0455615Y0498239D01*
X0455091Y0498589D01*
X0454473Y0498712D01*
D02*
G37*
G36*
X0425155Y0447518D02*
X0423553D01*
Y0445915D01*
X0425155D01*
Y0447518D01*
D02*
G37*
G36*
X0457027Y0442212D02*
X0452677D01*
Y0439579D01*
X0451952Y0438854D01*
X0450841D01*
Y0439224D01*
X0447278D01*
Y0436056D01*
X0450841D01*
Y0436426D01*
X0452455D01*
X0452455Y0436426D01*
X0452920Y0436519D01*
X0453313Y0436782D01*
X0454394Y0437863D01*
X0457027D01*
Y0442212D01*
D02*
G37*
G36*
X0428868Y0442440D02*
X0428250Y0442317D01*
X0427726Y0441967D01*
X0427376Y0441443D01*
X0427253Y0440825D01*
X0427376Y0440207D01*
X0427726Y0439683D01*
X0428250Y0439332D01*
X0428868Y0439210D01*
X0429486Y0439332D01*
X0430010Y0439683D01*
X0430096Y0439812D01*
X0432031D01*
X0432057Y0439682D01*
X0432407Y0439158D01*
X0432931Y0438808D01*
X0433549Y0438685D01*
X0434167Y0438808D01*
X0434691Y0439158D01*
X0435042Y0439682D01*
X0435165Y0440300D01*
X0435042Y0440918D01*
X0434691Y0441442D01*
X0434167Y0441793D01*
X0433549Y0441916D01*
X0432932Y0441793D01*
X0432705Y0441838D01*
X0430096D01*
X0430010Y0441967D01*
X0429486Y0442317D01*
X0428868Y0442440D01*
D02*
G37*
G36*
X0446415Y0439278D02*
X0445207D01*
Y0438266D01*
X0446415D01*
Y0439278D01*
D02*
G37*
G36*
X0444026D02*
X0442817D01*
Y0438266D01*
X0444026D01*
Y0439278D01*
D02*
G37*
G36*
X0457045Y0435931D02*
X0455443D01*
Y0434329D01*
X0457045D01*
Y0435931D01*
D02*
G37*
G36*
X0454262D02*
X0452659D01*
Y0434329D01*
X0454262D01*
Y0435931D01*
D02*
G37*
G36*
X0457045Y0433148D02*
X0455443D01*
Y0431545D01*
X0457045D01*
Y0433148D01*
D02*
G37*
G36*
X0454262D02*
X0452659D01*
Y0431545D01*
X0454262D01*
Y0433148D01*
D02*
G37*
G36*
X0429585Y0421758D02*
X0428671D01*
Y0420353D01*
X0429585D01*
Y0421758D01*
D02*
G37*
G36*
X0427490D02*
X0426577D01*
Y0420353D01*
X0427490D01*
Y0421758D01*
D02*
G37*
G36*
X0422104D02*
X0421191D01*
Y0420353D01*
X0422104D01*
Y0421758D01*
D02*
G37*
G36*
X0420010D02*
X0419096D01*
Y0420353D01*
X0420010D01*
Y0421758D01*
D02*
G37*
G36*
X0429585Y0419171D02*
X0428671D01*
Y0417766D01*
X0429585D01*
Y0419171D01*
D02*
G37*
G36*
X0427490D02*
X0426577D01*
Y0417766D01*
X0427490D01*
Y0419171D01*
D02*
G37*
G36*
X0446415Y0437085D02*
X0444616D01*
X0442817D01*
Y0436073D01*
X0442443Y0435768D01*
X0442293Y0435668D01*
X0441943Y0435144D01*
X0441845Y0434652D01*
X0441238Y0434045D01*
X0440975Y0433652D01*
X0440882Y0433187D01*
X0440882Y0433187D01*
Y0422529D01*
X0440604Y0422112D01*
X0440481Y0421494D01*
X0440604Y0420876D01*
X0440954Y0420352D01*
X0441221Y0420174D01*
X0441231Y0419580D01*
X0441033Y0419447D01*
X0440683Y0418923D01*
X0440560Y0418305D01*
X0440683Y0417687D01*
X0441033Y0417163D01*
X0441557Y0416813D01*
X0442175Y0416690D01*
X0442793Y0416813D01*
X0443317Y0417163D01*
X0443668Y0417687D01*
X0443765Y0418179D01*
X0445525Y0419938D01*
X0445525Y0419938D01*
X0445788Y0420332D01*
X0445881Y0420797D01*
X0445881Y0420797D01*
Y0431077D01*
X0446159Y0431494D01*
X0446282Y0432112D01*
X0446159Y0432730D01*
X0445809Y0433254D01*
X0445313Y0433585D01*
X0444927Y0433908D01*
X0445050Y0434526D01*
X0444927Y0435144D01*
X0444641Y0435573D01*
X0444752Y0435916D01*
X0444862Y0436073D01*
X0446415D01*
Y0437085D01*
D02*
G37*
G36*
X0427293Y0416640D02*
X0425691D01*
Y0414644D01*
X0427293D01*
Y0416640D01*
D02*
G37*
G36*
X0391270Y0411888D02*
X0375103D01*
X0375208Y0410286D01*
X0375637Y0408131D01*
X0376343Y0406051D01*
X0377315Y0404080D01*
X0378535Y0402254D01*
X0379984Y0400602D01*
X0381636Y0399153D01*
X0383462Y0397933D01*
X0385433Y0396961D01*
X0387513Y0396255D01*
X0389668Y0395826D01*
X0391270Y0395721D01*
Y0411888D01*
D02*
G37*
G36*
X0408617D02*
X0392451D01*
Y0395721D01*
X0394053Y0395826D01*
X0396207Y0396255D01*
X0398288Y0396961D01*
X0400258Y0397933D01*
X0402085Y0399153D01*
X0403737Y0400602D01*
X0405185Y0402254D01*
X0406406Y0404080D01*
X0407377Y0406051D01*
X0408084Y0408131D01*
X0408512Y0410286D01*
X0408617Y0411888D01*
D02*
G37*
%LPD*%
D10*
X0422487Y0466022D02*
G03*
X0422963Y0466219I0000000J0000672D01*
G01*
X0439843Y0448354D02*
X0442156Y0450667D01*
X0437530Y0446041D02*
X0439843Y0448354D01*
X0442156Y0450667D02*
X0454065D01*
X0437530Y0445746D02*
Y0446041D01*
X0428081Y0429309D02*
Y0429604D01*
Y0429309D02*
X0435364Y0422026D01*
Y0414053D02*
Y0422026D01*
X0420600Y0429604D02*
X0428081D01*
X0420502Y0429703D02*
X0420600Y0429604D01*
X0420502Y0429703D02*
Y0432656D01*
X0418435Y0434723D02*
X0420502Y0432656D01*
X0413514Y0434723D02*
X0418435D01*
X0406821Y0434919D02*
X0406919Y0434821D01*
X0413415D01*
X0413514Y0434723D01*
X0401272Y0440156D02*
X0401428Y0440312D01*
X0401272Y0439877D02*
Y0440156D01*
Y0439877D02*
X0406230Y0434919D01*
X0406821D01*
X0389577Y0446337D02*
X0394290D01*
X0396557Y0444070D01*
X0396835D01*
X0397253Y0444488D01*
X0376506Y0446258D02*
X0376545Y0446297D01*
X0383632D01*
X0383671Y0446337D01*
X0376506Y0452164D02*
Y0458817D01*
X0450915Y0459919D02*
Y0460116D01*
Y0459919D02*
X0454065Y0456770D01*
Y0450667D02*
Y0456770D01*
X0430232Y0445746D02*
X0437256D01*
X0446978Y0456376D02*
Y0460116D01*
X0445010Y0454408D02*
X0446978Y0456376D01*
X0444616Y0454408D02*
X0445010D01*
X0437530Y0455589D02*
X0443041D01*
X0444222Y0454408D01*
X0444616D01*
X0430049Y0455589D02*
X0437530D01*
X0426703D02*
X0430049D01*
X0425325Y0454211D02*
X0426703Y0455589D01*
X0422963Y0454014D02*
X0423159Y0454211D01*
X0425325D01*
X0422963Y0454014D02*
Y0460313D01*
X0416624Y0466022D02*
X0422487D01*
X0404734D02*
X0410718D01*
X0392057D02*
X0398829D01*
X0528000D02*
G03*
X0528476Y0466219I0000000J0000672D01*
G01*
X0545356Y0448354D02*
X0547669Y0450667D01*
X0543043Y0446041D02*
X0545356Y0448354D01*
X0547669Y0450667D02*
X0559578D01*
X0543043Y0445746D02*
Y0446041D01*
X0533594Y0429309D02*
Y0429604D01*
Y0429309D02*
X0540877Y0422026D01*
Y0414053D02*
Y0422026D01*
X0526114Y0429604D02*
X0533594D01*
X0526015Y0429703D02*
X0526114Y0429604D01*
X0526015Y0429703D02*
Y0432656D01*
X0523948Y0434723D02*
X0526015Y0432656D01*
X0519027Y0434723D02*
X0523948D01*
X0512334Y0434919D02*
X0512432Y0434821D01*
X0518928D01*
X0519027Y0434723D01*
X0506786Y0440156D02*
X0506942Y0440312D01*
X0506786Y0439877D02*
Y0440156D01*
Y0439877D02*
X0511743Y0434919D01*
X0512334D01*
X0495090Y0446337D02*
X0499803D01*
X0502070Y0444070D01*
X0502348D01*
X0502766Y0444488D01*
X0482019Y0446258D02*
X0482058Y0446297D01*
X0489145D01*
X0489185Y0446337D01*
X0482019Y0452164D02*
Y0458817D01*
X0556428Y0459919D02*
Y0460116D01*
Y0459919D02*
X0559578Y0456770D01*
Y0450667D02*
Y0456770D01*
X0535745Y0445746D02*
X0542769D01*
X0552492Y0456376D02*
Y0460116D01*
X0550523Y0454408D02*
X0552492Y0456376D01*
X0550129Y0454408D02*
X0550523D01*
X0543043Y0455589D02*
X0548555D01*
X0549736Y0454408D01*
X0550129D01*
X0535562Y0455589D02*
X0543043D01*
X0532216D02*
X0535562D01*
X0530838Y0454211D02*
X0532216Y0455589D01*
X0528476Y0454014D02*
X0528673Y0454211D01*
X0530838D01*
X0528476Y0454014D02*
Y0460313D01*
X0522137Y0466022D02*
X0528000D01*
X0510247D02*
X0516232D01*
X0497570D02*
X0504342D01*
X0633514D02*
G03*
X0633989Y0466219I0000000J0000672D01*
G01*
X0650869Y0448354D02*
X0653182Y0450667D01*
X0648556Y0446041D02*
X0650869Y0448354D01*
X0653182Y0450667D02*
X0665091D01*
X0648556Y0445746D02*
Y0446041D01*
X0639107Y0429309D02*
Y0429604D01*
Y0429309D02*
X0646391Y0422026D01*
Y0414053D02*
Y0422026D01*
X0631627Y0429604D02*
X0639107D01*
X0631528Y0429703D02*
X0631627Y0429604D01*
X0631528Y0429703D02*
Y0432656D01*
X0629461Y0434723D02*
X0631528Y0432656D01*
X0624540Y0434723D02*
X0629461D01*
X0617847Y0434919D02*
X0617946Y0434821D01*
X0624442D01*
X0624540Y0434723D01*
X0612299Y0440156D02*
X0612455Y0440312D01*
X0612299Y0439877D02*
Y0440156D01*
Y0439877D02*
X0617257Y0434919D01*
X0617847D01*
X0600603Y0446337D02*
X0605316D01*
X0607583Y0444070D01*
X0607861D01*
X0608279Y0444488D01*
X0587532Y0446258D02*
X0587572Y0446297D01*
X0594658D01*
X0594698Y0446337D01*
X0587532Y0452164D02*
Y0458817D01*
X0661942Y0459919D02*
Y0460116D01*
Y0459919D02*
X0665091Y0456770D01*
Y0450667D02*
Y0456770D01*
X0641258Y0445746D02*
X0648282D01*
X0658005Y0456376D02*
Y0460116D01*
X0656036Y0454408D02*
X0658005Y0456376D01*
X0655643Y0454408D02*
X0656036D01*
X0648556Y0455589D02*
X0654068D01*
X0655249Y0454408D01*
X0655643D01*
X0641076Y0455589D02*
X0648556D01*
X0637729D02*
X0641076D01*
X0636351Y0454211D02*
X0637729Y0455589D01*
X0633989Y0454014D02*
X0634186Y0454211D01*
X0636351D01*
X0633989Y0454014D02*
Y0460313D01*
X0627650Y0466022D02*
X0633514D01*
X0615761D02*
X0621745D01*
X0603084D02*
X0609855D01*
X0739027D02*
G03*
X0739502Y0466219I0000000J0000672D01*
G01*
X0756382Y0448354D02*
X0758695Y0450667D01*
X0754069Y0446041D02*
X0756382Y0448354D01*
X0758695Y0450667D02*
X0770605D01*
X0754069Y0445746D02*
Y0446041D01*
X0744620Y0429309D02*
Y0429604D01*
Y0429309D02*
X0751904Y0422026D01*
Y0414053D02*
Y0422026D01*
X0737140Y0429604D02*
X0744620D01*
X0737042Y0429703D02*
X0737140Y0429604D01*
X0737042Y0429703D02*
Y0432656D01*
X0734975Y0434723D02*
X0737042Y0432656D01*
X0730053Y0434723D02*
X0734975D01*
X0723360Y0434919D02*
X0723459Y0434821D01*
X0729955D01*
X0730053Y0434723D01*
X0717812Y0440156D02*
X0717968Y0440312D01*
X0717812Y0439877D02*
Y0440156D01*
Y0439877D02*
X0722770Y0434919D01*
X0723360D01*
X0706116Y0446337D02*
X0710830D01*
X0713096Y0444070D01*
X0713375D01*
X0713792Y0444488D01*
X0693046Y0446258D02*
X0693085Y0446297D01*
X0700172D01*
X0700211Y0446337D01*
X0693046Y0452164D02*
Y0458817D01*
X0767455Y0459919D02*
Y0460116D01*
Y0459919D02*
X0770605Y0456770D01*
Y0450667D02*
Y0456770D01*
X0746771Y0445746D02*
X0753795D01*
X0763518Y0456376D02*
Y0460116D01*
X0761550Y0454408D02*
X0763518Y0456376D01*
X0761156Y0454408D02*
X0761550D01*
X0754069Y0455589D02*
X0759581D01*
X0760762Y0454408D01*
X0761156D01*
X0746589Y0455589D02*
X0754069D01*
X0743242D02*
X0746589D01*
X0741864Y0454211D02*
X0743242Y0455589D01*
X0739502Y0454014D02*
X0739699Y0454211D01*
X0741864D01*
X0739502Y0454014D02*
Y0460313D01*
X0733164Y0466022D02*
X0739027D01*
X0721274D02*
X0727258D01*
X0708597D02*
X0715368D01*
D11*
X0411545Y0579801D02*
D03*
X0390285D02*
D03*
X0517058D02*
D03*
X0495799D02*
D03*
X0622572D02*
D03*
X0601312D02*
D03*
X0728085D02*
D03*
X0706825D02*
D03*
D12*
X0379899Y0564211D02*
D03*
Y0542951D02*
D03*
Y0530037D02*
D03*
Y0508778D02*
D03*
Y0496258D02*
D03*
Y0474998D02*
D03*
X0485412Y0564211D02*
D03*
Y0542951D02*
D03*
Y0530037D02*
D03*
Y0508778D02*
D03*
Y0496258D02*
D03*
Y0474998D02*
D03*
X0590926Y0564211D02*
D03*
Y0542951D02*
D03*
Y0530037D02*
D03*
Y0508778D02*
D03*
Y0496258D02*
D03*
Y0474998D02*
D03*
X0696439Y0564211D02*
D03*
Y0542951D02*
D03*
Y0530037D02*
D03*
Y0508778D02*
D03*
Y0496258D02*
D03*
Y0474998D02*
D03*
D13*
X0389577Y0446337D02*
D03*
X0383671D02*
D03*
X0404734Y0466022D02*
D03*
X0398829D02*
D03*
X0416624D02*
D03*
X0410718D02*
D03*
X0495090Y0446337D02*
D03*
X0489185D02*
D03*
X0510247Y0466022D02*
D03*
X0504342D02*
D03*
X0522137D02*
D03*
X0516232D02*
D03*
X0600603Y0446337D02*
D03*
X0594698D02*
D03*
X0615761Y0466022D02*
D03*
X0609855D02*
D03*
X0627650D02*
D03*
X0621745D02*
D03*
X0706116Y0446337D02*
D03*
X0700211D02*
D03*
X0721274Y0466022D02*
D03*
X0715368D02*
D03*
X0733164D02*
D03*
X0727258D02*
D03*
D14*
X0376506Y0446258D02*
D03*
Y0452164D02*
D03*
X0422963Y0460313D02*
D03*
Y0466219D02*
D03*
X0406821Y0429014D02*
D03*
Y0434919D02*
D03*
X0482019Y0446258D02*
D03*
Y0452164D02*
D03*
X0528476Y0460313D02*
D03*
Y0466219D02*
D03*
X0512334Y0429014D02*
D03*
Y0434919D02*
D03*
X0587532Y0446258D02*
D03*
Y0452164D02*
D03*
X0633989Y0460313D02*
D03*
Y0466219D02*
D03*
X0617847Y0429014D02*
D03*
Y0434919D02*
D03*
X0693046Y0446258D02*
D03*
Y0452164D02*
D03*
X0739502Y0460313D02*
D03*
Y0466219D02*
D03*
X0723360Y0429014D02*
D03*
Y0434919D02*
D03*
D15*
X0422963Y0454014D02*
D03*
Y0448108D02*
D03*
X0413514Y0428817D02*
D03*
Y0434723D02*
D03*
X0454852Y0433738D02*
D03*
Y0440037D02*
D03*
X0415876Y0401849D02*
D03*
Y0408148D02*
D03*
X0528476Y0454014D02*
D03*
Y0448108D02*
D03*
X0519027Y0428817D02*
D03*
Y0434723D02*
D03*
X0560365Y0433738D02*
D03*
Y0440037D02*
D03*
X0521389Y0401849D02*
D03*
Y0408148D02*
D03*
X0633989Y0454014D02*
D03*
Y0448108D02*
D03*
X0624540Y0428817D02*
D03*
Y0434723D02*
D03*
X0665879Y0433738D02*
D03*
Y0440037D02*
D03*
X0626902Y0401849D02*
D03*
Y0408148D02*
D03*
X0739502Y0454014D02*
D03*
Y0448108D02*
D03*
X0730053Y0428817D02*
D03*
Y0434723D02*
D03*
X0771392Y0433738D02*
D03*
Y0440037D02*
D03*
X0732416Y0401849D02*
D03*
Y0408148D02*
D03*
D16*
X0401428Y0440312D02*
D03*
X0397253Y0444488D02*
D03*
X0506942Y0440312D02*
D03*
X0502766Y0444488D02*
D03*
X0612455Y0440312D02*
D03*
X0608279Y0444488D02*
D03*
X0717968Y0440312D02*
D03*
X0713792Y0444488D02*
D03*
D17*
X0437530Y0445746D02*
D03*
Y0455589D02*
D03*
X0430049Y0445746D02*
D03*
Y0455589D02*
D03*
X0428081Y0419762D02*
D03*
Y0429604D02*
D03*
X0420600D02*
D03*
Y0419762D02*
D03*
X0543043Y0445746D02*
D03*
Y0455589D02*
D03*
X0535562Y0445746D02*
D03*
Y0455589D02*
D03*
X0533594Y0419762D02*
D03*
Y0429604D02*
D03*
X0526114D02*
D03*
Y0419762D02*
D03*
X0648556Y0445746D02*
D03*
Y0455589D02*
D03*
X0641076Y0445746D02*
D03*
Y0455589D02*
D03*
X0639107Y0419762D02*
D03*
Y0429604D02*
D03*
X0631627D02*
D03*
Y0419762D02*
D03*
X0754069Y0445746D02*
D03*
Y0455589D02*
D03*
X0746589Y0445746D02*
D03*
Y0455589D02*
D03*
X0744620Y0419762D02*
D03*
Y0429604D02*
D03*
X0737140D02*
D03*
Y0419762D02*
D03*
D18*
X0450915Y0460116D02*
D03*
X0446978D02*
D03*
X0421781Y0413659D02*
D03*
X0417844D02*
D03*
X0556428Y0460116D02*
D03*
X0552492D02*
D03*
X0527295Y0413659D02*
D03*
X0523358D02*
D03*
X0661942Y0460116D02*
D03*
X0658005D02*
D03*
X0632808Y0413659D02*
D03*
X0628871D02*
D03*
X0767455Y0460116D02*
D03*
X0763518D02*
D03*
X0738321Y0413659D02*
D03*
X0734384D02*
D03*
D19*
X0444616Y0454408D02*
D03*
Y0446927D02*
D03*
X0454065Y0450667D02*
D03*
X0550129Y0454408D02*
D03*
Y0446927D02*
D03*
X0559578Y0450667D02*
D03*
X0655643Y0454408D02*
D03*
Y0446927D02*
D03*
X0665091Y0450667D02*
D03*
X0761156Y0454408D02*
D03*
Y0446927D02*
D03*
X0770605Y0450667D02*
D03*
D20*
X0444616Y0441612D02*
D03*
Y0437675D02*
D03*
X0449059Y0441577D02*
D03*
Y0437640D02*
D03*
X0421781Y0408541D02*
D03*
Y0404604D02*
D03*
X0550129Y0441612D02*
D03*
Y0437675D02*
D03*
X0554573Y0441577D02*
D03*
Y0437640D02*
D03*
X0527295Y0408541D02*
D03*
Y0404604D02*
D03*
X0655643Y0441612D02*
D03*
Y0437675D02*
D03*
X0660086Y0441577D02*
D03*
Y0437640D02*
D03*
X0632808Y0408541D02*
D03*
Y0404604D02*
D03*
X0761156Y0441612D02*
D03*
Y0437675D02*
D03*
X0765599Y0441577D02*
D03*
Y0437640D02*
D03*
X0738321Y0408541D02*
D03*
Y0404604D02*
D03*
D21*
X0435364Y0414053D02*
D03*
X0427884D02*
D03*
X0431624Y0404604D02*
D03*
X0540877Y0414053D02*
D03*
X0533397D02*
D03*
X0537137Y0404604D02*
D03*
X0646391Y0414053D02*
D03*
X0638910D02*
D03*
X0642650Y0404604D02*
D03*
X0751904Y0414053D02*
D03*
X0744423D02*
D03*
X0748164Y0404604D02*
D03*
D22*
X0392057Y0466022D02*
D03*
X0384577D02*
D03*
X0497570D02*
D03*
X0490090D02*
D03*
X0603084D02*
D03*
X0595603D02*
D03*
X0708597D02*
D03*
X0701116D02*
D03*
D23*
X0376506Y0458817D02*
D03*
Y0466297D02*
D03*
X0482019Y0458817D02*
D03*
Y0466297D02*
D03*
X0587532Y0458817D02*
D03*
Y0466297D02*
D03*
X0693046Y0458817D02*
D03*
Y0466297D02*
D03*
D24*
X0391860Y0412478D02*
D03*
X0497373D02*
D03*
X0602887D02*
D03*
X0708400D02*
D03*
D25*
X0435167Y0579762D02*
D03*
X0540681D02*
D03*
X0646194D02*
D03*
X0751707D02*
D03*
D26*
X0454360Y0489088D02*
X0456496Y0486952D01*
Y0462905D02*
Y0486952D01*
X0559873Y0489088D02*
X0562009Y0486952D01*
Y0462905D02*
Y0486952D01*
X0665387Y0489088D02*
X0667522Y0486952D01*
Y0462905D02*
Y0486952D01*
X0770900Y0489088D02*
X0773035Y0486952D01*
Y0462905D02*
Y0486952D01*
D27*
X0440614Y0492779D02*
Y0495421D01*
Y0492779D02*
X0447527Y0485866D01*
X0436459Y0493864D02*
X0445393Y0484930D01*
X0436459Y0493864D02*
Y0505500D01*
X0442844Y0413069D02*
X0447587Y0417811D01*
X0446191Y0433738D02*
X0447587Y0432342D01*
Y0417811D02*
Y0432342D01*
X0404852Y0396337D02*
X0405513D01*
X0391860Y0409329D02*
Y0412478D01*
X0425198Y0396337D02*
X0429135D01*
X0445610Y0435285D02*
Y0436293D01*
X0413387Y0396337D02*
X0417324D01*
X0421261D02*
X0425198D01*
X0446741Y0433738D02*
X0454852D01*
X0405513Y0396337D02*
X0409450D01*
X0391860Y0412478D02*
Y0417675D01*
X0429135Y0396337D02*
X0433593D01*
X0445610Y0435285D02*
X0446191Y0434704D01*
X0444813Y0437675D02*
X0445207Y0437282D01*
Y0436696D02*
X0445610Y0436293D01*
X0446191Y0433738D02*
X0446741D01*
X0442451Y0412675D02*
X0442844Y0413069D01*
X0445207Y0436696D02*
Y0437282D01*
X0409450Y0396337D02*
X0413387D01*
X0444616Y0437675D02*
X0444813D01*
X0417324Y0396337D02*
X0421261D01*
X0453862Y0469835D02*
Y0482047D01*
X0451939Y0467911D02*
X0453862Y0469835D01*
X0447527Y0475255D02*
X0449183Y0473599D01*
X0447527Y0475255D02*
Y0485866D01*
X0445393Y0468197D02*
Y0484930D01*
X0442096Y0433187D02*
X0443435Y0434526D01*
X0442096Y0421494D02*
Y0433187D01*
X0446191Y0433738D02*
Y0434704D01*
X0442175Y0418305D02*
X0444667Y0420797D01*
Y0432112D01*
X0403199Y0429014D02*
X0406821D01*
X0422963Y0448108D02*
X0426152D01*
X0429537Y0451494D01*
X0432592D01*
X0434206Y0449880D02*
X0434419D01*
X0432592Y0451494D02*
X0434206Y0449880D01*
X0430108Y0445805D02*
Y0448876D01*
X0430167Y0448935D01*
X0430049Y0445746D02*
X0430108Y0445805D01*
X0422963Y0448108D02*
X0423317Y0447754D01*
Y0432240D02*
Y0447754D01*
X0424340Y0419762D02*
X0428081D01*
X0420600D02*
X0424340D01*
X0423986Y0420116D02*
Y0424919D01*
Y0420116D02*
X0424340Y0419762D01*
X0413514Y0425392D02*
Y0428817D01*
X0420600Y0419762D02*
Y0419942D01*
X0420305Y0420237D02*
X0420600Y0419942D01*
X0418669Y0420237D02*
X0420305D01*
X0413514Y0425392D02*
X0418669Y0420237D01*
X0438711Y0408935D02*
X0442451Y0412675D01*
X0438317Y0417596D02*
X0442451Y0413463D01*
Y0412675D02*
Y0413463D01*
X0421781Y0408541D02*
X0426175D01*
X0427631Y0409998D01*
X0427844D01*
X0421781Y0413659D02*
Y0413856D01*
X0418750Y0416888D02*
X0421781Y0413856D01*
X0408396Y0421691D02*
X0413199Y0416888D01*
X0418750D01*
X0391860Y0409329D02*
X0404852Y0396337D01*
X0454951Y0428640D02*
X0454951Y0428640D01*
X0454951Y0428640D02*
Y0433640D01*
X0454852Y0433738D02*
X0454951Y0433640D01*
X0449183Y0469053D02*
Y0473599D01*
X0440837Y0441573D02*
X0444577D01*
X0444616Y0441612D01*
X0440797Y0441534D02*
X0440837Y0441573D01*
X0421781Y0404604D02*
X0431624D01*
X0421585D02*
X0421781D01*
X0431624D02*
Y0412400D01*
X0438711Y0401455D02*
Y0408935D01*
X0433593Y0396337D02*
X0438711Y0401455D01*
X0427884Y0414053D02*
X0427982Y0414152D01*
Y0419663D01*
X0428081Y0419762D01*
X0407018Y0428817D02*
X0413514D01*
X0406821Y0429014D02*
X0407018Y0428817D01*
X0421781Y0408541D02*
Y0413659D01*
X0415876Y0408148D02*
Y0411494D01*
X0417451Y0413069D01*
X0417451D01*
X0417844Y0413463D01*
Y0413659D01*
X0418829Y0401849D02*
X0421585Y0404604D01*
X0415876Y0401849D02*
X0418829D01*
X0449059Y0437640D02*
X0452455D01*
X0454852Y0440037D01*
X0444616Y0441612D02*
X0444634Y0441595D01*
X0449042D01*
X0449059Y0441577D01*
X0444616Y0441612D02*
Y0446927D01*
X0546128Y0492779D02*
Y0495421D01*
Y0492779D02*
X0553041Y0485866D01*
X0541973Y0493864D02*
X0550906Y0484930D01*
X0541973Y0493864D02*
Y0505500D01*
X0548358Y0413069D02*
X0553100Y0417811D01*
X0551704Y0433738D02*
X0553100Y0432342D01*
Y0417811D02*
Y0432342D01*
X0510365Y0396337D02*
X0511026D01*
X0497373Y0409329D02*
Y0412478D01*
X0530711Y0396337D02*
X0534648D01*
X0551123Y0435285D02*
Y0436293D01*
X0518900Y0396337D02*
X0522837D01*
X0526774D02*
X0530711D01*
X0552255Y0433738D02*
X0560365D01*
X0511026Y0396337D02*
X0514963D01*
X0497373Y0412478D02*
Y0417675D01*
X0534648Y0396337D02*
X0539106D01*
X0551123Y0435285D02*
X0551704Y0434704D01*
X0550326Y0437675D02*
X0550720Y0437282D01*
Y0436696D02*
X0551123Y0436293D01*
X0551704Y0433738D02*
X0552255D01*
X0547964Y0412675D02*
X0548358Y0413069D01*
X0550720Y0436696D02*
Y0437282D01*
X0514963Y0396337D02*
X0518900D01*
X0550129Y0437675D02*
X0550326D01*
X0522837Y0396337D02*
X0526774D01*
X0559376Y0469835D02*
Y0482047D01*
X0557452Y0467911D02*
X0559376Y0469835D01*
X0553041Y0475255D02*
X0554696Y0473599D01*
X0553041Y0475255D02*
Y0485866D01*
X0550906Y0468197D02*
Y0484930D01*
X0547610Y0433187D02*
X0548948Y0434526D01*
X0547610Y0421494D02*
Y0433187D01*
X0551704Y0433738D02*
Y0434704D01*
X0547688Y0418305D02*
X0550180Y0420797D01*
Y0432112D01*
X0508712Y0429014D02*
X0512334D01*
X0528476Y0448108D02*
X0531665D01*
X0535051Y0451494D01*
X0538105D01*
X0539719Y0449880D02*
X0539932D01*
X0538105Y0451494D02*
X0539719Y0449880D01*
X0535621Y0445805D02*
Y0448876D01*
X0535680Y0448935D01*
X0535562Y0445746D02*
X0535621Y0445805D01*
X0528476Y0448108D02*
X0528830Y0447754D01*
Y0432240D02*
Y0447754D01*
X0529854Y0419762D02*
X0533594D01*
X0526114D02*
X0529854D01*
X0529499Y0420116D02*
Y0424919D01*
Y0420116D02*
X0529854Y0419762D01*
X0519027Y0425392D02*
Y0428817D01*
X0526114Y0419762D02*
Y0419942D01*
X0525818Y0420237D02*
X0526114Y0419942D01*
X0524182Y0420237D02*
X0525818D01*
X0519027Y0425392D02*
X0524182Y0420237D01*
X0544224Y0408935D02*
X0547964Y0412675D01*
X0543830Y0417596D02*
X0547964Y0413463D01*
Y0412675D02*
Y0413463D01*
X0527295Y0408541D02*
X0531688D01*
X0533145Y0409998D01*
X0533358D01*
X0527295Y0413659D02*
Y0413856D01*
X0524263Y0416888D02*
X0527295Y0413856D01*
X0513909Y0421691D02*
X0518712Y0416888D01*
X0524263D01*
X0497373Y0409329D02*
X0510365Y0396337D01*
X0560464Y0428640D02*
X0560464Y0428640D01*
X0560464Y0428640D02*
Y0433640D01*
X0560365Y0433738D02*
X0560464Y0433640D01*
X0554696Y0469053D02*
Y0473599D01*
X0546350Y0441573D02*
X0550090D01*
X0550129Y0441612D01*
X0546310Y0441534D02*
X0546350Y0441573D01*
X0527295Y0404604D02*
X0537137D01*
X0527098D02*
X0527295D01*
X0537137D02*
Y0412400D01*
X0544224Y0401455D02*
Y0408935D01*
X0539106Y0396337D02*
X0544224Y0401455D01*
X0533397Y0414053D02*
X0533495Y0414152D01*
Y0419663D01*
X0533594Y0419762D01*
X0512531Y0428817D02*
X0519027D01*
X0512334Y0429014D02*
X0512531Y0428817D01*
X0527295Y0408541D02*
Y0413659D01*
X0521389Y0408148D02*
Y0411494D01*
X0522964Y0413069D01*
X0522964D01*
X0523358Y0413463D01*
Y0413659D01*
X0524342Y0401849D02*
X0527098Y0404604D01*
X0521389Y0401849D02*
X0524342D01*
X0554573Y0437640D02*
X0557968D01*
X0560365Y0440037D01*
X0550129Y0441612D02*
X0550147Y0441595D01*
X0554555D01*
X0554573Y0441577D01*
X0550129Y0441612D02*
Y0446927D01*
X0651641Y0492779D02*
Y0495421D01*
Y0492779D02*
X0658554Y0485866D01*
X0647486Y0493864D02*
X0656420Y0484930D01*
X0647486Y0493864D02*
Y0505500D01*
X0653871Y0413069D02*
X0658613Y0417811D01*
X0657217Y0433738D02*
X0658613Y0432342D01*
Y0417811D02*
Y0432342D01*
X0615879Y0396337D02*
X0616539D01*
X0602887Y0409329D02*
Y0412478D01*
X0636224Y0396337D02*
X0640161D01*
X0656636Y0435285D02*
Y0436293D01*
X0624413Y0396337D02*
X0628350D01*
X0632287D02*
X0636224D01*
X0657768Y0433738D02*
X0665879D01*
X0616539Y0396337D02*
X0620476D01*
X0602887Y0412478D02*
Y0417675D01*
X0640161Y0396337D02*
X0644619D01*
X0656636Y0435285D02*
X0657217Y0434704D01*
X0655839Y0437675D02*
X0656233Y0437282D01*
Y0436696D02*
X0656636Y0436293D01*
X0657217Y0433738D02*
X0657768D01*
X0653477Y0412675D02*
X0653871Y0413069D01*
X0656233Y0436696D02*
Y0437282D01*
X0620476Y0396337D02*
X0624413D01*
X0655643Y0437675D02*
X0655839D01*
X0628350Y0396337D02*
X0632287D01*
X0664889Y0469835D02*
Y0482047D01*
X0662965Y0467911D02*
X0664889Y0469835D01*
X0658554Y0475255D02*
X0660210Y0473599D01*
X0658554Y0475255D02*
Y0485866D01*
X0656420Y0468197D02*
Y0484930D01*
X0653123Y0433187D02*
X0654461Y0434526D01*
X0653123Y0421494D02*
Y0433187D01*
X0657217Y0433738D02*
Y0434704D01*
X0653202Y0418305D02*
X0655693Y0420797D01*
Y0432112D01*
X0614225Y0429014D02*
X0617847D01*
X0633989Y0448108D02*
X0637178D01*
X0640564Y0451494D01*
X0643618D01*
X0645233Y0449880D02*
X0645446D01*
X0643618Y0451494D02*
X0645233Y0449880D01*
X0641135Y0445805D02*
Y0448876D01*
X0641194Y0448935D01*
X0641076Y0445746D02*
X0641135Y0445805D01*
X0633989Y0448108D02*
X0634343Y0447754D01*
Y0432240D02*
Y0447754D01*
X0635367Y0419762D02*
X0639107D01*
X0631627D02*
X0635367D01*
X0635013Y0420116D02*
Y0424919D01*
Y0420116D02*
X0635367Y0419762D01*
X0624540Y0425392D02*
Y0428817D01*
X0631627Y0419762D02*
Y0419942D01*
X0631331Y0420237D02*
X0631627Y0419942D01*
X0629695Y0420237D02*
X0631331D01*
X0624540Y0425392D02*
X0629695Y0420237D01*
X0649737Y0408935D02*
X0653477Y0412675D01*
X0649343Y0417596D02*
X0653477Y0413463D01*
Y0412675D02*
Y0413463D01*
X0632808Y0408541D02*
X0637201D01*
X0638658Y0409998D01*
X0638871D01*
X0632808Y0413659D02*
Y0413856D01*
X0629776Y0416888D02*
X0632808Y0413856D01*
X0619422Y0421691D02*
X0624225Y0416888D01*
X0629776D01*
X0602887Y0409329D02*
X0615879Y0396337D01*
X0665977Y0428640D02*
X0665977Y0428640D01*
X0665977Y0428640D02*
Y0433640D01*
X0665879Y0433738D02*
X0665977Y0433640D01*
X0660210Y0469053D02*
Y0473599D01*
X0651863Y0441573D02*
X0655603D01*
X0655643Y0441612D01*
X0651824Y0441534D02*
X0651863Y0441573D01*
X0632808Y0404604D02*
X0642650D01*
X0632611D02*
X0632808D01*
X0642650D02*
Y0412400D01*
X0649737Y0401455D02*
Y0408935D01*
X0644619Y0396337D02*
X0649737Y0401455D01*
X0638910Y0414053D02*
X0639009Y0414152D01*
Y0419663D01*
X0639107Y0419762D01*
X0618044Y0428817D02*
X0624540D01*
X0617847Y0429014D02*
X0618044Y0428817D01*
X0632808Y0408541D02*
Y0413659D01*
X0626902Y0408148D02*
Y0411494D01*
X0628477Y0413069D01*
X0628477D01*
X0628871Y0413463D01*
Y0413659D01*
X0629855Y0401849D02*
X0632611Y0404604D01*
X0626902Y0401849D02*
X0629855D01*
X0660086Y0437640D02*
X0663482D01*
X0665879Y0440037D01*
X0655643Y0441612D02*
X0655660Y0441595D01*
X0660068D01*
X0660086Y0441577D01*
X0655643Y0441612D02*
Y0446927D01*
X0757154Y0492779D02*
Y0495421D01*
Y0492779D02*
X0764067Y0485866D01*
X0752999Y0493864D02*
X0761933Y0484930D01*
X0752999Y0493864D02*
Y0505500D01*
X0759384Y0413069D02*
X0764127Y0417811D01*
X0762731Y0433738D02*
X0764127Y0432342D01*
Y0417811D02*
Y0432342D01*
X0721392Y0396337D02*
X0722053D01*
X0708400Y0409329D02*
Y0412478D01*
X0741738Y0396337D02*
X0745675D01*
X0762149Y0435285D02*
Y0436293D01*
X0729927Y0396337D02*
X0733864D01*
X0737801D02*
X0741738D01*
X0763281Y0433738D02*
X0771392D01*
X0722053Y0396337D02*
X0725990D01*
X0708400Y0412478D02*
Y0417675D01*
X0745675Y0396337D02*
X0750132D01*
X0762149Y0435285D02*
X0762731Y0434704D01*
X0761353Y0437675D02*
X0761746Y0437282D01*
Y0436696D02*
X0762149Y0436293D01*
X0762731Y0433738D02*
X0763281D01*
X0758990Y0412675D02*
X0759384Y0413069D01*
X0761746Y0436696D02*
Y0437282D01*
X0725990Y0396337D02*
X0729927D01*
X0761156Y0437675D02*
X0761353D01*
X0733864Y0396337D02*
X0737801D01*
X0770402Y0469835D02*
Y0482047D01*
X0768479Y0467911D02*
X0770402Y0469835D01*
X0764067Y0475255D02*
X0765723Y0473599D01*
X0764067Y0475255D02*
Y0485866D01*
X0761933Y0468197D02*
Y0484930D01*
X0758636Y0433187D02*
X0759975Y0434526D01*
X0758636Y0421494D02*
Y0433187D01*
X0762731Y0433738D02*
Y0434704D01*
X0758715Y0418305D02*
X0761206Y0420797D01*
Y0432112D01*
X0719738Y0429014D02*
X0723360D01*
X0739502Y0448108D02*
X0742691D01*
X0746077Y0451494D01*
X0749132D01*
X0750746Y0449880D02*
X0750959D01*
X0749132Y0451494D02*
X0750746Y0449880D01*
X0746648Y0445805D02*
Y0448876D01*
X0746707Y0448935D01*
X0746589Y0445746D02*
X0746648Y0445805D01*
X0739502Y0448108D02*
X0739856Y0447754D01*
Y0432240D02*
Y0447754D01*
X0740880Y0419762D02*
X0744620D01*
X0737140D02*
X0740880D01*
X0740526Y0420116D02*
Y0424919D01*
Y0420116D02*
X0740880Y0419762D01*
X0730053Y0425392D02*
Y0428817D01*
X0737140Y0419762D02*
Y0419942D01*
X0736845Y0420237D02*
X0737140Y0419942D01*
X0735208Y0420237D02*
X0736845D01*
X0730053Y0425392D02*
X0735208Y0420237D01*
X0755250Y0408935D02*
X0758990Y0412675D01*
X0754856Y0417596D02*
X0758990Y0413463D01*
Y0412675D02*
Y0413463D01*
X0738321Y0408541D02*
X0742714D01*
X0744171Y0409998D01*
X0744384D01*
X0738321Y0413659D02*
Y0413856D01*
X0735290Y0416888D02*
X0738321Y0413856D01*
X0724935Y0421691D02*
X0729738Y0416888D01*
X0735290D01*
X0708400Y0409329D02*
X0721392Y0396337D01*
X0771490Y0428640D02*
X0771490Y0428640D01*
X0771490Y0428640D02*
Y0433640D01*
X0771392Y0433738D02*
X0771490Y0433640D01*
X0765723Y0469053D02*
Y0473599D01*
X0757376Y0441573D02*
X0761116D01*
X0761156Y0441612D01*
X0757337Y0441534D02*
X0757376Y0441573D01*
X0738321Y0404604D02*
X0748164D01*
X0738124D02*
X0738321D01*
X0748164D02*
Y0412400D01*
X0755250Y0401455D02*
Y0408935D01*
X0750132Y0396337D02*
X0755250Y0401455D01*
X0744423Y0414053D02*
X0744522Y0414152D01*
Y0419663D01*
X0744620Y0419762D01*
X0723557Y0428817D02*
X0730053D01*
X0723360Y0429014D02*
X0723557Y0428817D01*
X0738321Y0408541D02*
Y0413659D01*
X0732416Y0408148D02*
Y0411494D01*
X0733990Y0413069D01*
X0733990D01*
X0734384Y0413463D01*
Y0413659D01*
X0735368Y0401849D02*
X0738124Y0404604D01*
X0732416Y0401849D02*
X0735368D01*
X0765599Y0437640D02*
X0768995D01*
X0771392Y0440037D01*
X0761156Y0441612D02*
X0761173Y0441595D01*
X0765582D01*
X0765599Y0441577D01*
X0761156Y0441612D02*
Y0446927D01*
D28*
X0428868Y0440825D02*
X0432705D01*
X0433230Y0440300D02*
X0433549D01*
X0432705Y0440825D02*
X0433230Y0440300D01*
X0432333Y0465274D02*
X0432352Y0465254D01*
X0452785D01*
X0452805Y0465234D01*
X0534381Y0440825D02*
X0538218D01*
X0538743Y0440300D02*
X0539062D01*
X0538218Y0440825D02*
X0538743Y0440300D01*
X0537846Y0465274D02*
X0537865Y0465254D01*
X0558299D01*
X0558318Y0465234D01*
X0639894Y0440825D02*
X0643732D01*
X0644256Y0440300D02*
X0644576D01*
X0643732Y0440825D02*
X0644256Y0440300D01*
X0643359Y0465274D02*
X0643379Y0465254D01*
X0663812D01*
X0663832Y0465234D01*
X0745408Y0440825D02*
X0749245D01*
X0749769Y0440300D02*
X0750089D01*
X0749245Y0440825D02*
X0749769Y0440300D01*
X0748872Y0465274D02*
X0748892Y0465254D01*
X0769325D01*
X0769345Y0465234D01*
D29*
X0379899Y0496258D02*
Y0508778D01*
Y0530037D02*
Y0542951D01*
X0390285Y0576061D02*
Y0579801D01*
X0384820Y0570596D02*
X0390285Y0576061D01*
X0384820Y0565392D02*
Y0570596D01*
X0383639Y0564211D02*
X0384820Y0565392D01*
X0379899Y0564211D02*
X0383639D01*
X0411545Y0579801D02*
X0435167D01*
X0411545Y0579801D02*
X0411545Y0579801D01*
X0485412Y0496258D02*
Y0508778D01*
Y0530037D02*
Y0542951D01*
X0495799Y0576061D02*
Y0579801D01*
X0490334Y0570596D02*
X0495799Y0576061D01*
X0490334Y0565392D02*
Y0570596D01*
X0489152Y0564211D02*
X0490334Y0565392D01*
X0485412Y0564211D02*
X0489152D01*
X0517059Y0579801D02*
X0540681D01*
X0517058Y0579801D02*
X0517059Y0579801D01*
X0590926Y0496258D02*
Y0508778D01*
Y0530037D02*
Y0542951D01*
X0601312Y0576061D02*
Y0579801D01*
X0595847Y0570596D02*
X0601312Y0576061D01*
X0595847Y0565392D02*
Y0570596D01*
X0594666Y0564211D02*
X0595847Y0565392D01*
X0590926Y0564211D02*
X0594666D01*
X0622572Y0579801D02*
X0646194D01*
X0622572Y0579801D02*
X0622572Y0579801D01*
X0696439Y0496258D02*
Y0508778D01*
Y0530037D02*
Y0542951D01*
X0706825Y0576061D02*
Y0579801D01*
X0701360Y0570596D02*
X0706825Y0576061D01*
X0701360Y0565392D02*
Y0570596D01*
X0700179Y0564211D02*
X0701360Y0565392D01*
X0696439Y0564211D02*
X0700179D01*
X0728085Y0579801D02*
X0751707D01*
X0728085Y0579801D02*
X0728085Y0579801D01*
D30*
X0785245Y0368778D02*
D03*
Y0624684D02*
D03*
X0359182D02*
D03*
Y0368778D02*
D03*
D31*
X0440614Y0495421D02*
D03*
X0436459Y0505500D02*
D03*
X0450226Y0476074D02*
D03*
X0453862Y0482047D02*
D03*
X0428868Y0440825D02*
D03*
X0443435Y0434526D02*
D03*
X0444667Y0432112D02*
D03*
X0454088Y0513293D02*
D03*
X0454726Y0462992D02*
D03*
Y0447243D02*
D03*
Y0423621D02*
D03*
Y0415747D02*
D03*
Y0399999D02*
D03*
X0442914Y0462992D02*
D03*
X0440946Y0459055D02*
D03*
Y0396062D02*
D03*
X0437009D02*
D03*
X0435041Y0399999D02*
D03*
X0433072Y0396062D02*
D03*
X0431104Y0399999D02*
D03*
X0429135Y0396062D02*
D03*
X0425198D02*
D03*
X0421261D02*
D03*
X0417324D02*
D03*
X0413387D02*
D03*
X0411418Y0399999D02*
D03*
X0409450Y0396062D02*
D03*
X0407481Y0399999D02*
D03*
X0405513Y0396062D02*
D03*
X0381891D02*
D03*
X0377954D02*
D03*
X0375985Y0423621D02*
D03*
X0374017Y0419684D02*
D03*
Y0411810D02*
D03*
Y0403936D02*
D03*
X0375985Y0399999D02*
D03*
X0454360Y0489088D02*
D03*
X0454473Y0497096D02*
D03*
X0432333Y0465274D02*
D03*
X0430167Y0448935D02*
D03*
X0434419Y0449880D02*
D03*
X0423317Y0432240D02*
D03*
X0423986Y0424919D02*
D03*
X0379588Y0405381D02*
D03*
X0383514Y0401455D02*
D03*
X0438317Y0417596D02*
D03*
X0439843Y0448354D02*
D03*
X0442096Y0421494D02*
D03*
X0427844Y0409998D02*
D03*
X0408396Y0421691D02*
D03*
X0454951Y0428640D02*
D03*
X0452805Y0465234D02*
D03*
X0449183Y0469053D02*
D03*
X0445393Y0468197D02*
D03*
X0451939Y0467911D02*
D03*
X0433549Y0440300D02*
D03*
X0440797Y0441534D02*
D03*
X0442175Y0418305D02*
D03*
X0431624Y0412400D02*
D03*
X0378058Y0469768D02*
D03*
X0546128Y0495421D02*
D03*
X0541973Y0505500D02*
D03*
X0555739Y0476074D02*
D03*
X0559376Y0482047D02*
D03*
X0534381Y0440825D02*
D03*
X0548948Y0434526D02*
D03*
X0550180Y0432112D02*
D03*
X0559601Y0513293D02*
D03*
X0560239Y0462992D02*
D03*
Y0447243D02*
D03*
Y0423621D02*
D03*
Y0415747D02*
D03*
Y0399999D02*
D03*
X0548428Y0462992D02*
D03*
X0546459Y0459055D02*
D03*
Y0396062D02*
D03*
X0542522D02*
D03*
X0540554Y0399999D02*
D03*
X0538585Y0396062D02*
D03*
X0536617Y0399999D02*
D03*
X0534648Y0396062D02*
D03*
X0530711D02*
D03*
X0526774D02*
D03*
X0522837D02*
D03*
X0518900D02*
D03*
X0516932Y0399999D02*
D03*
X0514963Y0396062D02*
D03*
X0512995Y0399999D02*
D03*
X0511026Y0396062D02*
D03*
X0487404D02*
D03*
X0483467D02*
D03*
X0481499Y0423621D02*
D03*
X0479530Y0419684D02*
D03*
Y0411810D02*
D03*
Y0403936D02*
D03*
X0481499Y0399999D02*
D03*
X0559873Y0489088D02*
D03*
X0559986Y0497096D02*
D03*
X0537846Y0465274D02*
D03*
X0535680Y0448935D02*
D03*
X0539932Y0449880D02*
D03*
X0528830Y0432240D02*
D03*
X0529499Y0424919D02*
D03*
X0485101Y0405381D02*
D03*
X0489027Y0401455D02*
D03*
X0543830Y0417596D02*
D03*
X0545356Y0448354D02*
D03*
X0547610Y0421494D02*
D03*
X0533358Y0409998D02*
D03*
X0513909Y0421691D02*
D03*
X0560464Y0428640D02*
D03*
X0558318Y0465234D02*
D03*
X0554696Y0469053D02*
D03*
X0550906Y0468197D02*
D03*
X0557452Y0467911D02*
D03*
X0539062Y0440300D02*
D03*
X0546310Y0441534D02*
D03*
X0547688Y0418305D02*
D03*
X0537137Y0412400D02*
D03*
X0483571Y0469768D02*
D03*
X0651641Y0495421D02*
D03*
X0647486Y0505500D02*
D03*
X0661252Y0476074D02*
D03*
X0664889Y0482047D02*
D03*
X0639894Y0440825D02*
D03*
X0654461Y0434526D02*
D03*
X0655693Y0432112D02*
D03*
X0665114Y0513293D02*
D03*
X0665752Y0462992D02*
D03*
Y0447243D02*
D03*
Y0423621D02*
D03*
Y0415747D02*
D03*
Y0399999D02*
D03*
X0653941Y0462992D02*
D03*
X0651972Y0459055D02*
D03*
Y0396062D02*
D03*
X0648035D02*
D03*
X0646067Y0399999D02*
D03*
X0644098Y0396062D02*
D03*
X0642130Y0399999D02*
D03*
X0640161Y0396062D02*
D03*
X0636224D02*
D03*
X0632287D02*
D03*
X0628350D02*
D03*
X0624413D02*
D03*
X0622445Y0399999D02*
D03*
X0620476Y0396062D02*
D03*
X0618508Y0399999D02*
D03*
X0616539Y0396062D02*
D03*
X0592917D02*
D03*
X0588980D02*
D03*
X0587012Y0423621D02*
D03*
X0585043Y0419684D02*
D03*
Y0411810D02*
D03*
Y0403936D02*
D03*
X0587012Y0399999D02*
D03*
X0665387Y0489088D02*
D03*
X0665499Y0497096D02*
D03*
X0643359Y0465274D02*
D03*
X0641194Y0448935D02*
D03*
X0645446Y0449880D02*
D03*
X0634343Y0432240D02*
D03*
X0635013Y0424919D02*
D03*
X0590614Y0405381D02*
D03*
X0594540Y0401455D02*
D03*
X0649343Y0417596D02*
D03*
X0650869Y0448354D02*
D03*
X0653123Y0421494D02*
D03*
X0638871Y0409998D02*
D03*
X0619422Y0421691D02*
D03*
X0665977Y0428640D02*
D03*
X0663832Y0465234D02*
D03*
X0660210Y0469053D02*
D03*
X0656420Y0468197D02*
D03*
X0662965Y0467911D02*
D03*
X0644576Y0440300D02*
D03*
X0651824Y0441534D02*
D03*
X0653202Y0418305D02*
D03*
X0642650Y0412400D02*
D03*
X0589085Y0469768D02*
D03*
X0757154Y0495421D02*
D03*
X0752999Y0505500D02*
D03*
X0766765Y0476074D02*
D03*
X0770402Y0482047D02*
D03*
X0745408Y0440825D02*
D03*
X0759975Y0434526D02*
D03*
X0761206Y0432112D02*
D03*
X0770628Y0513293D02*
D03*
X0771265Y0462992D02*
D03*
Y0447243D02*
D03*
Y0423621D02*
D03*
Y0415747D02*
D03*
Y0399999D02*
D03*
X0759454Y0462992D02*
D03*
X0757486Y0459055D02*
D03*
Y0396062D02*
D03*
X0753549D02*
D03*
X0751580Y0399999D02*
D03*
X0749612Y0396062D02*
D03*
X0747643Y0399999D02*
D03*
X0745675Y0396062D02*
D03*
X0741738D02*
D03*
X0737801D02*
D03*
X0733864D02*
D03*
X0729927D02*
D03*
X0727958Y0399999D02*
D03*
X0725990Y0396062D02*
D03*
X0724021Y0399999D02*
D03*
X0722053Y0396062D02*
D03*
X0698430D02*
D03*
X0694493D02*
D03*
X0692525Y0423621D02*
D03*
X0690556Y0419684D02*
D03*
Y0411810D02*
D03*
Y0403936D02*
D03*
X0692525Y0399999D02*
D03*
X0770900Y0489088D02*
D03*
X0771013Y0497096D02*
D03*
X0748872Y0465274D02*
D03*
X0746707Y0448935D02*
D03*
X0750959Y0449880D02*
D03*
X0739856Y0432240D02*
D03*
X0740526Y0424919D02*
D03*
X0696127Y0405381D02*
D03*
X0700053Y0401455D02*
D03*
X0754856Y0417596D02*
D03*
X0756382Y0448354D02*
D03*
X0758636Y0421494D02*
D03*
X0744384Y0409998D02*
D03*
X0724935Y0421691D02*
D03*
X0771490Y0428640D02*
D03*
X0769345Y0465234D02*
D03*
X0765723Y0469053D02*
D03*
X0761933Y0468197D02*
D03*
X0768479Y0467911D02*
D03*
X0750089Y0440300D02*
D03*
X0757337Y0441534D02*
D03*
X0758715Y0418305D02*
D03*
X0748164Y0412400D02*
D03*
X0694598Y0469768D02*
D03*
D32*
X0391860Y0412478D02*
D03*
X0435167Y0579762D02*
D03*
X0497373Y0412478D02*
D03*
X0540681Y0579762D02*
D03*
X0602887Y0412478D02*
D03*
X0646194Y0579762D02*
D03*
X0708400Y0412478D02*
D03*
X0751707Y0579762D02*
D03*
M02*
