G04*
G04 #@! TF.GenerationSoftware,Altium Limited,Altium Designer,19.1.7 (138)*
G04*
G04 Layer_Color=65535*
%FSAX25Y25*%
%MOIN*%
G70*
G01*
G75*
%ADD10C,0.03937*%
%ADD42C,0.01968*%
%ADD44C,0.00787*%
%ADD73C,0.00984*%
%ADD74C,0.01000*%
%ADD75C,0.00394*%
%ADD76C,0.00591*%
D10*
X0145197Y0120669D02*
X0176654D01*
X0170354Y0114370D02*
X0176654Y0120669D01*
X0170354Y0126969D02*
X0176654Y0120669D01*
X0113819Y0170472D02*
X0120118Y0176772D01*
X0126417Y0170472D01*
X0120118Y0145315D02*
Y0176772D01*
D42*
X0171077Y0421496D02*
G03*
X0171077Y0421496I-0000880J0000000D01*
G01*
X0254542D02*
G03*
X0254542Y0421496I-0000880J0000000D01*
G01*
X0338006D02*
G03*
X0338006Y0421496I-0000880J0000000D01*
G01*
X0421471D02*
G03*
X0421471Y0421496I-0000880J0000000D01*
G01*
X0504935D02*
G03*
X0504935Y0421496I-0000880J0000000D01*
G01*
D44*
X0206116Y0204291D02*
G03*
X0209003Y0204291I0001444J0000000D01*
G01*
X0178662Y0206496D02*
X0185748D01*
X0187717D01*
Y0211221D01*
X0178268D02*
X0187717D01*
X0178268Y0206496D02*
Y0211221D01*
Y0206496D02*
X0178662D01*
X0187717Y0211221D02*
X0189291D01*
Y0206496D02*
Y0211221D01*
X0187717Y0206496D02*
X0189291D01*
X0202344Y0215673D02*
Y0221575D01*
X0215340Y0220122D02*
Y0221575D01*
X0202344D02*
X0215340D01*
Y0215669D02*
Y0220122D01*
X0202340Y0215669D02*
X0215340D01*
X0197717Y0204291D02*
X0206116D01*
X0209003D02*
X0217402D01*
Y0187756D02*
Y0194580D01*
Y0204291D01*
X0197717Y0187756D02*
Y0204291D01*
Y0187756D02*
X0217402D01*
X0161961Y0193319D02*
X0167961D01*
X0161961Y0192319D02*
X0167961D01*
Y0180319D02*
Y0193319D01*
X0161961Y0180319D02*
X0167961D01*
X0161961D02*
Y0193319D01*
X0147283Y0223661D02*
X0216575D01*
X0144921Y0226024D02*
X0147283Y0223661D01*
X0144921Y0226024D02*
Y0295315D01*
X0216575Y0223661D02*
Y0295315D01*
X0144921D02*
X0216575D01*
X0175982Y0305281D02*
Y0310782D01*
Y0305281D02*
X0187482D01*
Y0310782D01*
X0175982D02*
X0187482D01*
X0157421Y0314016D02*
X0161122D01*
X0157382Y0314055D02*
X0157421Y0314016D01*
X0157382Y0314055D02*
Y0319724D01*
X0157421Y0358071D02*
Y0363465D01*
X0157539Y0363583D01*
X0161122D01*
X0199429Y0363543D02*
X0203366D01*
X0203445Y0363465D01*
Y0358150D02*
Y0363465D01*
X0203524Y0314213D02*
Y0319724D01*
X0199390Y0314055D02*
X0203366D01*
X0203524Y0314213D01*
X0165671Y0386305D02*
Y0391805D01*
X0154171D02*
X0165671D01*
X0154171Y0386305D02*
Y0391805D01*
Y0386305D02*
X0165671D01*
X0193583Y0402222D02*
X0194279Y0402918D01*
X0192887D02*
X0193583Y0402222D01*
X0187458Y0408347D02*
X0188154Y0409043D01*
X0187458Y0408347D02*
X0188154Y0407651D01*
X0193583Y0414471D02*
X0194279Y0413775D01*
X0192887D02*
X0193583Y0414471D01*
X0199011Y0407651D02*
X0199707Y0408347D01*
X0199011Y0409043D02*
X0199707Y0408347D01*
X0221378Y0418740D02*
Y0462047D01*
X0174134D02*
X0221378D01*
X0174134Y0418740D02*
X0221378D01*
X0174134D02*
Y0462047D01*
X0204016Y0190775D02*
X0203360Y0190119D01*
X0202048D01*
X0201392Y0189463D01*
X0213858Y0190775D02*
X0213202Y0190119D01*
X0211891D01*
X0211234Y0189463D01*
X0204016Y0201142D02*
X0201392D01*
X0213858D02*
X0211234D01*
X0212546Y0199830D02*
Y0202454D01*
X0289580Y0204291D02*
G03*
X0292467Y0204291I0001444J0000000D01*
G01*
X0262126Y0206496D02*
X0269213D01*
X0271181D01*
Y0211221D01*
X0261732D02*
X0271181D01*
X0261732Y0206496D02*
Y0211221D01*
Y0206496D02*
X0262126D01*
X0271181Y0211221D02*
X0272756D01*
Y0206496D02*
Y0211221D01*
X0271181Y0206496D02*
X0272756D01*
X0285809Y0215673D02*
Y0221575D01*
X0298805Y0220122D02*
Y0221575D01*
X0285809D02*
X0298805D01*
Y0215669D02*
Y0220122D01*
X0285805Y0215669D02*
X0298805D01*
X0281181Y0204291D02*
X0289580D01*
X0292467D02*
X0300866D01*
Y0187756D02*
Y0194580D01*
Y0204291D01*
X0281181Y0187756D02*
Y0204291D01*
Y0187756D02*
X0300866D01*
X0245425Y0193319D02*
X0251425D01*
X0245425Y0192319D02*
X0251425D01*
Y0180319D02*
Y0193319D01*
X0245425Y0180319D02*
X0251425D01*
X0245425D02*
Y0193319D01*
X0230748Y0223661D02*
X0300039D01*
X0228386Y0226024D02*
X0230748Y0223661D01*
X0228386Y0226024D02*
Y0295315D01*
X0300039Y0223661D02*
Y0295315D01*
X0228386D02*
X0300039D01*
X0259447Y0305281D02*
Y0310782D01*
Y0305281D02*
X0270947D01*
Y0310782D01*
X0259447D02*
X0270947D01*
X0240886Y0314016D02*
X0244587D01*
X0240846Y0314055D02*
X0240886Y0314016D01*
X0240846Y0314055D02*
Y0319724D01*
X0240886Y0358071D02*
Y0363465D01*
X0241004Y0363583D01*
X0244587D01*
X0282894Y0363543D02*
X0286831D01*
X0286909Y0363465D01*
Y0358150D02*
Y0363465D01*
X0286988Y0314213D02*
Y0319724D01*
X0282854Y0314055D02*
X0286831D01*
X0286988Y0314213D01*
X0249136Y0386305D02*
Y0391805D01*
X0237636D02*
X0249136D01*
X0237636Y0386305D02*
Y0391805D01*
Y0386305D02*
X0249136D01*
X0277047Y0402222D02*
X0277743Y0402918D01*
X0276351D02*
X0277047Y0402222D01*
X0270923Y0408347D02*
X0271619Y0409043D01*
X0270923Y0408347D02*
X0271619Y0407651D01*
X0277047Y0414471D02*
X0277743Y0413775D01*
X0276351D02*
X0277047Y0414471D01*
X0282476Y0407651D02*
X0283172Y0408347D01*
X0282476Y0409043D02*
X0283172Y0408347D01*
X0304842Y0418740D02*
Y0462047D01*
X0257598D02*
X0304842D01*
X0257598Y0418740D02*
X0304842D01*
X0257598D02*
Y0462047D01*
X0287480Y0190775D02*
X0286824Y0190119D01*
X0285512D01*
X0284857Y0189463D01*
X0297323Y0190775D02*
X0296667Y0190119D01*
X0295355D01*
X0294699Y0189463D01*
X0287480Y0201142D02*
X0284857D01*
X0297323D02*
X0294699D01*
X0296011Y0199830D02*
Y0202454D01*
X0373045Y0204291D02*
G03*
X0375932Y0204291I0001444J0000000D01*
G01*
X0345591Y0206496D02*
X0352677D01*
X0354646D01*
Y0211221D01*
X0345197D02*
X0354646D01*
X0345197Y0206496D02*
Y0211221D01*
Y0206496D02*
X0345591D01*
X0354646Y0211221D02*
X0356221D01*
Y0206496D02*
Y0211221D01*
X0354646Y0206496D02*
X0356221D01*
X0369273Y0215673D02*
Y0221575D01*
X0382270Y0220122D02*
Y0221575D01*
X0369273D02*
X0382270D01*
Y0215669D02*
Y0220122D01*
X0369269Y0215669D02*
X0382270D01*
X0364646Y0204291D02*
X0373045D01*
X0375932D02*
X0384331D01*
Y0187756D02*
Y0194580D01*
Y0204291D01*
X0364646Y0187756D02*
Y0204291D01*
Y0187756D02*
X0384331D01*
X0328890Y0193319D02*
X0334890D01*
X0328890Y0192319D02*
X0334890D01*
Y0180319D02*
Y0193319D01*
X0328890Y0180319D02*
X0334890D01*
X0328890D02*
Y0193319D01*
X0314213Y0223661D02*
X0383504D01*
X0311850Y0226024D02*
X0314213Y0223661D01*
X0311850Y0226024D02*
Y0295315D01*
X0383504Y0223661D02*
Y0295315D01*
X0311850D02*
X0383504D01*
X0342911Y0305281D02*
Y0310782D01*
Y0305281D02*
X0354411D01*
Y0310782D01*
X0342911D02*
X0354411D01*
X0324350Y0314016D02*
X0328051D01*
X0324311Y0314055D02*
X0324350Y0314016D01*
X0324311Y0314055D02*
Y0319724D01*
X0324350Y0358071D02*
Y0363465D01*
X0324468Y0363583D01*
X0328051D01*
X0366358Y0363543D02*
X0370295D01*
X0370374Y0363465D01*
Y0358150D02*
Y0363465D01*
X0370453Y0314213D02*
Y0319724D01*
X0366319Y0314055D02*
X0370295D01*
X0370453Y0314213D01*
X0332600Y0386305D02*
Y0391805D01*
X0321100D02*
X0332600D01*
X0321100Y0386305D02*
Y0391805D01*
Y0386305D02*
X0332600D01*
X0360512Y0402222D02*
X0361208Y0402918D01*
X0359816D02*
X0360512Y0402222D01*
X0354387Y0408347D02*
X0355083Y0409043D01*
X0354387Y0408347D02*
X0355083Y0407651D01*
X0360512Y0414471D02*
X0361208Y0413775D01*
X0359816D02*
X0360512Y0414471D01*
X0365940Y0407651D02*
X0366636Y0408347D01*
X0365940Y0409043D02*
X0366636Y0408347D01*
X0388307Y0418740D02*
Y0462047D01*
X0341063D02*
X0388307D01*
X0341063Y0418740D02*
X0388307D01*
X0341063D02*
Y0462047D01*
X0370945Y0190775D02*
X0370289Y0190119D01*
X0368977D01*
X0368321Y0189463D01*
X0380787Y0190775D02*
X0380132Y0190119D01*
X0378820D01*
X0378164Y0189463D01*
X0370945Y0201142D02*
X0368321D01*
X0380787D02*
X0378164D01*
X0379476Y0199830D02*
Y0202454D01*
X0456509Y0204291D02*
G03*
X0459397Y0204291I0001444J0000000D01*
G01*
X0429055Y0206496D02*
X0436142D01*
X0438110D01*
Y0211221D01*
X0428661D02*
X0438110D01*
X0428661Y0206496D02*
Y0211221D01*
Y0206496D02*
X0429055D01*
X0438110Y0211221D02*
X0439685D01*
Y0206496D02*
Y0211221D01*
X0438110Y0206496D02*
X0439685D01*
X0452738Y0215673D02*
Y0221575D01*
X0465734Y0220122D02*
Y0221575D01*
X0452738D02*
X0465734D01*
Y0215669D02*
Y0220122D01*
X0452734Y0215669D02*
X0465734D01*
X0448110Y0204291D02*
X0456509D01*
X0459397D02*
X0467795D01*
Y0187756D02*
Y0194580D01*
Y0204291D01*
X0448110Y0187756D02*
Y0204291D01*
Y0187756D02*
X0467795D01*
X0412354Y0193319D02*
X0418354D01*
X0412354Y0192319D02*
X0418354D01*
Y0180319D02*
Y0193319D01*
X0412354Y0180319D02*
X0418354D01*
X0412354D02*
Y0193319D01*
X0397677Y0223661D02*
X0466968D01*
X0395315Y0226024D02*
X0397677Y0223661D01*
X0395315Y0226024D02*
Y0295315D01*
X0466968Y0223661D02*
Y0295315D01*
X0395315D02*
X0466968D01*
X0426376Y0305281D02*
Y0310782D01*
Y0305281D02*
X0437876D01*
Y0310782D01*
X0426376D02*
X0437876D01*
X0407815Y0314016D02*
X0411516D01*
X0407776Y0314055D02*
X0407815Y0314016D01*
X0407776Y0314055D02*
Y0319724D01*
X0407815Y0358071D02*
Y0363465D01*
X0407933Y0363583D01*
X0411516D01*
X0449823Y0363543D02*
X0453760D01*
X0453839Y0363465D01*
Y0358150D02*
Y0363465D01*
X0453917Y0314213D02*
Y0319724D01*
X0449783Y0314055D02*
X0453760D01*
X0453917Y0314213D01*
X0416065Y0386305D02*
Y0391805D01*
X0404565D02*
X0416065D01*
X0404565Y0386305D02*
Y0391805D01*
Y0386305D02*
X0416065D01*
X0443976Y0402222D02*
X0444672Y0402918D01*
X0443280D02*
X0443976Y0402222D01*
X0437852Y0408347D02*
X0438548Y0409043D01*
X0437852Y0408347D02*
X0438548Y0407651D01*
X0443976Y0414471D02*
X0444672Y0413775D01*
X0443280D02*
X0443976Y0414471D01*
X0449405Y0407651D02*
X0450101Y0408347D01*
X0449405Y0409043D02*
X0450101Y0408347D01*
X0471772Y0418740D02*
Y0462047D01*
X0424528D02*
X0471772D01*
X0424528Y0418740D02*
X0471772D01*
X0424528D02*
Y0462047D01*
X0454410Y0190775D02*
X0453754Y0190119D01*
X0452442D01*
X0451786Y0189463D01*
X0464252Y0190775D02*
X0463596Y0190119D01*
X0462284D01*
X0461628Y0189463D01*
X0454410Y0201142D02*
X0451786D01*
X0464252D02*
X0461628D01*
X0462940Y0199830D02*
Y0202454D01*
X0539974Y0204291D02*
G03*
X0542861Y0204291I0001444J0000000D01*
G01*
X0512520Y0206496D02*
X0519606D01*
X0521575D01*
Y0211221D01*
X0512126D02*
X0521575D01*
X0512126Y0206496D02*
Y0211221D01*
Y0206496D02*
X0512520D01*
X0521575Y0211221D02*
X0523150D01*
Y0206496D02*
Y0211221D01*
X0521575Y0206496D02*
X0523150D01*
X0536203Y0215673D02*
Y0221575D01*
X0549199Y0220122D02*
Y0221575D01*
X0536203D02*
X0549199D01*
Y0215669D02*
Y0220122D01*
X0536199Y0215669D02*
X0549199D01*
X0531575Y0204291D02*
X0539974D01*
X0542861D02*
X0551260D01*
Y0187756D02*
Y0194580D01*
Y0204291D01*
X0531575Y0187756D02*
Y0204291D01*
Y0187756D02*
X0551260D01*
X0495819Y0193319D02*
X0501819D01*
X0495819Y0192319D02*
X0501819D01*
Y0180319D02*
Y0193319D01*
X0495819Y0180319D02*
X0501819D01*
X0495819D02*
Y0193319D01*
X0481142Y0223661D02*
X0550433D01*
X0478780Y0226024D02*
X0481142Y0223661D01*
X0478780Y0226024D02*
Y0295315D01*
X0550433Y0223661D02*
Y0295315D01*
X0478780D02*
X0550433D01*
X0509840Y0305281D02*
Y0310782D01*
Y0305281D02*
X0521341D01*
Y0310782D01*
X0509840D02*
X0521341D01*
X0491280Y0314016D02*
X0494980D01*
X0491240Y0314055D02*
X0491280Y0314016D01*
X0491240Y0314055D02*
Y0319724D01*
X0491280Y0358071D02*
Y0363465D01*
X0491398Y0363583D01*
X0494980D01*
X0533287Y0363543D02*
X0537224D01*
X0537303Y0363465D01*
Y0358150D02*
Y0363465D01*
X0537382Y0314213D02*
Y0319724D01*
X0533248Y0314055D02*
X0537224D01*
X0537382Y0314213D01*
X0499530Y0386305D02*
Y0391805D01*
X0488029D02*
X0499530D01*
X0488029Y0386305D02*
Y0391805D01*
Y0386305D02*
X0499530D01*
X0527441Y0402222D02*
X0528137Y0402918D01*
X0526745D02*
X0527441Y0402222D01*
X0521316Y0408347D02*
X0522012Y0409043D01*
X0521316Y0408347D02*
X0522012Y0407651D01*
X0527441Y0414471D02*
X0528137Y0413775D01*
X0526745D02*
X0527441Y0414471D01*
X0532869Y0407651D02*
X0533566Y0408347D01*
X0532869Y0409043D02*
X0533566Y0408347D01*
X0555236Y0418740D02*
Y0462047D01*
X0507992D02*
X0555236D01*
X0507992Y0418740D02*
X0555236D01*
X0507992D02*
Y0462047D01*
X0537874Y0190775D02*
X0537218Y0190119D01*
X0535906D01*
X0535250Y0189463D01*
X0547717Y0190775D02*
X0547061Y0190119D01*
X0545749D01*
X0545093Y0189463D01*
X0537874Y0201142D02*
X0535250D01*
X0547717D02*
X0545093D01*
X0546405Y0199830D02*
Y0202454D01*
D73*
X0192241Y0192153D02*
G03*
X0192241Y0192153I-0000492J0000000D01*
G01*
X0219526Y0203504D02*
G03*
X0219526Y0203504I-0000549J0000000D01*
G01*
X0275706Y0192153D02*
G03*
X0275706Y0192153I-0000492J0000000D01*
G01*
X0302990Y0203504D02*
G03*
X0302990Y0203504I-0000549J0000000D01*
G01*
X0359170Y0192153D02*
G03*
X0359170Y0192153I-0000492J0000000D01*
G01*
X0386455Y0203504D02*
G03*
X0386455Y0203504I-0000549J0000000D01*
G01*
X0442635Y0192153D02*
G03*
X0442635Y0192153I-0000492J0000000D01*
G01*
X0469919Y0203504D02*
G03*
X0469919Y0203504I-0000549J0000000D01*
G01*
X0526099Y0192153D02*
G03*
X0526099Y0192153I-0000492J0000000D01*
G01*
X0553384Y0203504D02*
G03*
X0553384Y0203504I-0000549J0000000D01*
G01*
D74*
X0152709Y0401654D02*
G03*
X0152709Y0401654I-0000426J0000000D01*
G01*
X0159587Y0311654D02*
G03*
X0159587Y0311654I-0000905J0000000D01*
G01*
X0157283Y0375315D02*
G03*
X0157283Y0375315I-0000487J0000000D01*
G01*
X0205118Y0393701D02*
G03*
X0205118Y0393701I-0000473J0000000D01*
G01*
X0195368Y0401108D02*
G03*
X0195368Y0401108I-0000449J0000000D01*
G01*
X0144760Y0181240D02*
Y0206240D01*
Y0181240D02*
X0157760D01*
Y0206240D01*
X0144760D02*
X0157760D01*
X0236174Y0401654D02*
G03*
X0236174Y0401654I-0000426J0000000D01*
G01*
X0243051Y0311654D02*
G03*
X0243051Y0311654I-0000905J0000000D01*
G01*
X0240748Y0375315D02*
G03*
X0240748Y0375315I-0000487J0000000D01*
G01*
X0288583Y0393701D02*
G03*
X0288583Y0393701I-0000473J0000000D01*
G01*
X0278832Y0401108D02*
G03*
X0278832Y0401108I-0000449J0000000D01*
G01*
X0228224Y0181240D02*
Y0206240D01*
Y0181240D02*
X0241224D01*
Y0206240D01*
X0228224D02*
X0241224D01*
X0319638Y0401654D02*
G03*
X0319638Y0401654I-0000426J0000000D01*
G01*
X0326516Y0311654D02*
G03*
X0326516Y0311654I-0000905J0000000D01*
G01*
X0324212Y0375315D02*
G03*
X0324212Y0375315I-0000487J0000000D01*
G01*
X0372048Y0393701D02*
G03*
X0372048Y0393701I-0000473J0000000D01*
G01*
X0362297Y0401108D02*
G03*
X0362297Y0401108I-0000449J0000000D01*
G01*
X0311689Y0181240D02*
Y0206240D01*
Y0181240D02*
X0324689D01*
Y0206240D01*
X0311689D02*
X0324689D01*
X0403103Y0401654D02*
G03*
X0403103Y0401654I-0000426J0000000D01*
G01*
X0409980Y0311654D02*
G03*
X0409980Y0311654I-0000905J0000000D01*
G01*
X0407677Y0375315D02*
G03*
X0407677Y0375315I-0000487J0000000D01*
G01*
X0455512Y0393701D02*
G03*
X0455512Y0393701I-0000473J0000000D01*
G01*
X0445761Y0401108D02*
G03*
X0445761Y0401108I-0000449J0000000D01*
G01*
X0395154Y0181240D02*
Y0206240D01*
Y0181240D02*
X0408154D01*
Y0206240D01*
X0395154D02*
X0408154D01*
X0486568Y0401654D02*
G03*
X0486568Y0401654I-0000426J0000000D01*
G01*
X0493445Y0311654D02*
G03*
X0493445Y0311654I-0000905J0000000D01*
G01*
X0491142Y0375315D02*
G03*
X0491142Y0375315I-0000487J0000000D01*
G01*
X0538977Y0393701D02*
G03*
X0538977Y0393701I-0000473J0000000D01*
G01*
X0529226Y0401108D02*
G03*
X0529226Y0401108I-0000449J0000000D01*
G01*
X0478618Y0181240D02*
Y0206240D01*
Y0181240D02*
X0491618D01*
Y0206240D01*
X0478618D02*
X0491618D01*
D75*
X0195343Y0392531D02*
G03*
X0195343Y0392531I-0000224J0000000D01*
G01*
X0188527Y0391299D02*
G03*
X0188527Y0391299I-0000220J0000000D01*
G01*
X0172182Y0201114D02*
X0176119D01*
X0172182Y0193634D02*
Y0201114D01*
Y0193634D02*
X0176119D01*
Y0201114D01*
X0179980Y0211910D02*
Y0216043D01*
Y0211910D02*
X0187658D01*
Y0216043D01*
X0179980D02*
X0187658D01*
X0180000Y0216457D02*
Y0220394D01*
Y0216457D02*
X0187480D01*
Y0220394D01*
X0180000D02*
X0187480D01*
X0188032Y0216457D02*
Y0220394D01*
Y0216457D02*
X0195512D01*
Y0220394D01*
X0188032D02*
X0195512D01*
X0193343Y0201213D02*
X0197477D01*
X0193343Y0193535D02*
Y0201213D01*
Y0193535D02*
X0197477D01*
Y0201213D01*
X0147126Y0180197D02*
X0154606D01*
Y0176260D02*
Y0180197D01*
X0147126Y0176260D02*
X0154606D01*
X0147126D02*
Y0180197D01*
X0166595Y0305374D02*
X0174272D01*
Y0301240D02*
Y0305374D01*
X0166595Y0301240D02*
X0174272D01*
X0166595D02*
Y0305374D01*
X0166634Y0310059D02*
X0174311D01*
Y0305925D02*
Y0310059D01*
X0166634Y0305925D02*
X0174311D01*
X0166634D02*
Y0310059D01*
X0175906Y0404803D02*
X0179842D01*
Y0412284D01*
X0175906D02*
X0179842D01*
X0175906Y0404803D02*
Y0412284D01*
X0167244Y0400079D02*
Y0407559D01*
X0171181D01*
Y0400079D02*
Y0407559D01*
X0167244Y0400079D02*
X0171181D01*
X0162421Y0399980D02*
Y0407657D01*
X0166555D01*
Y0399980D02*
Y0407657D01*
X0162421Y0399980D02*
X0166555D01*
X0161850Y0408150D02*
X0161890Y0400276D01*
X0153583D02*
Y0408150D01*
X0148976Y0400512D02*
Y0407992D01*
X0152913D01*
Y0400512D02*
Y0407992D01*
X0148976Y0400512D02*
X0152913D01*
X0154744Y0392421D02*
X0162421D01*
X0154744D02*
Y0396555D01*
X0162421D01*
Y0392421D02*
Y0396555D01*
X0164055Y0376654D02*
Y0384921D01*
X0155787D02*
X0164055D01*
X0155787Y0376654D02*
Y0384921D01*
Y0376654D02*
X0164055D01*
X0171319Y0373327D02*
Y0381004D01*
X0167185Y0373327D02*
X0171319D01*
X0167185D02*
Y0381004D01*
X0171319D01*
X0167480Y0372795D02*
X0174961D01*
Y0368858D02*
Y0372795D01*
X0167480Y0368858D02*
X0174961D01*
X0167480D02*
Y0372795D01*
X0175413Y0368760D02*
X0183090D01*
X0175413D02*
Y0372894D01*
X0183090D01*
Y0368760D02*
Y0372894D01*
X0185256Y0396437D02*
Y0404114D01*
X0189390D01*
Y0396437D02*
Y0404114D01*
X0185256Y0396437D02*
X0189390D01*
X0202461Y0410925D02*
X0210138D01*
X0202461D02*
Y0415059D01*
X0210138D01*
Y0410925D02*
Y0415059D01*
X0202461Y0406201D02*
X0210138D01*
X0202461D02*
Y0410335D01*
X0210138D01*
Y0406201D02*
Y0410335D01*
X0194626Y0393130D02*
Y0400807D01*
X0198760D01*
Y0393130D02*
Y0400807D01*
X0194626Y0393130D02*
X0198760D01*
X0199921Y0400787D02*
X0205433D01*
X0199921Y0395276D02*
X0205433D01*
X0210906Y0394134D02*
Y0401614D01*
X0206968Y0394134D02*
X0210906D01*
X0206968D02*
Y0401614D01*
X0210906D01*
X0195620Y0392031D02*
X0199420D01*
X0195620Y0386631D02*
Y0392031D01*
Y0386631D02*
X0199420D01*
Y0392031D01*
X0201693Y0385945D02*
Y0393425D01*
X0205630D01*
Y0385945D02*
Y0393425D01*
X0201693Y0385945D02*
X0205630D01*
X0206181D02*
Y0393425D01*
X0210118D01*
Y0385945D02*
Y0393425D01*
X0206181Y0385945D02*
X0210118D01*
X0193819Y0379882D02*
X0201299D01*
X0193819D02*
Y0383819D01*
X0201299D01*
Y0379882D02*
Y0383819D01*
X0187913Y0390610D02*
X0192638D01*
X0187913Y0383720D02*
X0192638D01*
X0193740Y0392047D02*
Y0395984D01*
X0186260D02*
X0193740D01*
X0186260Y0392047D02*
Y0395984D01*
Y0392047D02*
X0193740D01*
X0278808Y0392531D02*
G03*
X0278808Y0392531I-0000224J0000000D01*
G01*
X0271992Y0391299D02*
G03*
X0271992Y0391299I-0000220J0000000D01*
G01*
X0255647Y0201114D02*
X0259584D01*
X0255647Y0193634D02*
Y0201114D01*
Y0193634D02*
X0259584D01*
Y0201114D01*
X0263445Y0211910D02*
Y0216043D01*
Y0211910D02*
X0271122D01*
Y0216043D01*
X0263445D02*
X0271122D01*
X0263465Y0216457D02*
Y0220394D01*
Y0216457D02*
X0270945D01*
Y0220394D01*
X0263465D02*
X0270945D01*
X0271496Y0216457D02*
Y0220394D01*
Y0216457D02*
X0278976D01*
Y0220394D01*
X0271496D02*
X0278976D01*
X0276808Y0201213D02*
X0280942D01*
X0276808Y0193535D02*
Y0201213D01*
Y0193535D02*
X0280942D01*
Y0201213D01*
X0230591Y0180197D02*
X0238071D01*
Y0176260D02*
Y0180197D01*
X0230591Y0176260D02*
X0238071D01*
X0230591D02*
Y0180197D01*
X0250059Y0305374D02*
X0257736D01*
Y0301240D02*
Y0305374D01*
X0250059Y0301240D02*
X0257736D01*
X0250059D02*
Y0305374D01*
X0250098Y0310059D02*
X0257776D01*
Y0305925D02*
Y0310059D01*
X0250098Y0305925D02*
X0257776D01*
X0250098D02*
Y0310059D01*
X0259370Y0404803D02*
X0263307D01*
Y0412284D01*
X0259370D02*
X0263307D01*
X0259370Y0404803D02*
Y0412284D01*
X0250709Y0400079D02*
Y0407559D01*
X0254646D01*
Y0400079D02*
Y0407559D01*
X0250709Y0400079D02*
X0254646D01*
X0245886Y0399980D02*
Y0407657D01*
X0250020D01*
Y0399980D02*
Y0407657D01*
X0245886Y0399980D02*
X0250020D01*
X0245315Y0408150D02*
X0245354Y0400276D01*
X0237047D02*
Y0408150D01*
X0232441Y0400512D02*
Y0407992D01*
X0236378D01*
Y0400512D02*
Y0407992D01*
X0232441Y0400512D02*
X0236378D01*
X0238209Y0392421D02*
X0245886D01*
X0238209D02*
Y0396555D01*
X0245886D01*
Y0392421D02*
Y0396555D01*
X0247520Y0376654D02*
Y0384921D01*
X0239252D02*
X0247520D01*
X0239252Y0376654D02*
Y0384921D01*
Y0376654D02*
X0247520D01*
X0254784Y0373327D02*
Y0381004D01*
X0250650Y0373327D02*
X0254784D01*
X0250650D02*
Y0381004D01*
X0254784D01*
X0250945Y0372795D02*
X0258425D01*
Y0368858D02*
Y0372795D01*
X0250945Y0368858D02*
X0258425D01*
X0250945D02*
Y0372795D01*
X0258878Y0368760D02*
X0266555D01*
X0258878D02*
Y0372894D01*
X0266555D01*
Y0368760D02*
Y0372894D01*
X0268720Y0396437D02*
Y0404114D01*
X0272854D01*
Y0396437D02*
Y0404114D01*
X0268720Y0396437D02*
X0272854D01*
X0285925Y0410925D02*
X0293602D01*
X0285925D02*
Y0415059D01*
X0293602D01*
Y0410925D02*
Y0415059D01*
X0285925Y0406201D02*
X0293602D01*
X0285925D02*
Y0410335D01*
X0293602D01*
Y0406201D02*
Y0410335D01*
X0278091Y0393130D02*
Y0400807D01*
X0282224D01*
Y0393130D02*
Y0400807D01*
X0278091Y0393130D02*
X0282224D01*
X0283386Y0400787D02*
X0288898D01*
X0283386Y0395276D02*
X0288898D01*
X0294370Y0394134D02*
Y0401614D01*
X0290433Y0394134D02*
X0294370D01*
X0290433D02*
Y0401614D01*
X0294370D01*
X0279084Y0392031D02*
X0282884D01*
X0279084Y0386631D02*
Y0392031D01*
Y0386631D02*
X0282884D01*
Y0392031D01*
X0285157Y0385945D02*
Y0393425D01*
X0289094D01*
Y0385945D02*
Y0393425D01*
X0285157Y0385945D02*
X0289094D01*
X0289646D02*
Y0393425D01*
X0293583D01*
Y0385945D02*
Y0393425D01*
X0289646Y0385945D02*
X0293583D01*
X0277283Y0379882D02*
X0284764D01*
X0277283D02*
Y0383819D01*
X0284764D01*
Y0379882D02*
Y0383819D01*
X0271378Y0390610D02*
X0276102D01*
X0271378Y0383720D02*
X0276102D01*
X0277205Y0392047D02*
Y0395984D01*
X0269724D02*
X0277205D01*
X0269724Y0392047D02*
Y0395984D01*
Y0392047D02*
X0277205D01*
X0362272Y0392531D02*
G03*
X0362272Y0392531I-0000224J0000000D01*
G01*
X0355456Y0391299D02*
G03*
X0355456Y0391299I-0000220J0000000D01*
G01*
X0339111Y0201114D02*
X0343048D01*
X0339111Y0193634D02*
Y0201114D01*
Y0193634D02*
X0343048D01*
Y0201114D01*
X0346909Y0211910D02*
Y0216043D01*
Y0211910D02*
X0354587D01*
Y0216043D01*
X0346909D02*
X0354587D01*
X0346929Y0216457D02*
Y0220394D01*
Y0216457D02*
X0354410D01*
Y0220394D01*
X0346929D02*
X0354410D01*
X0354961Y0216457D02*
Y0220394D01*
Y0216457D02*
X0362441D01*
Y0220394D01*
X0354961D02*
X0362441D01*
X0360273Y0201213D02*
X0364406D01*
X0360273Y0193535D02*
Y0201213D01*
Y0193535D02*
X0364406D01*
Y0201213D01*
X0314055Y0180197D02*
X0321535D01*
Y0176260D02*
Y0180197D01*
X0314055Y0176260D02*
X0321535D01*
X0314055D02*
Y0180197D01*
X0333524Y0305374D02*
X0341201D01*
Y0301240D02*
Y0305374D01*
X0333524Y0301240D02*
X0341201D01*
X0333524D02*
Y0305374D01*
X0333563Y0310059D02*
X0341240D01*
Y0305925D02*
Y0310059D01*
X0333563Y0305925D02*
X0341240D01*
X0333563D02*
Y0310059D01*
X0342835Y0404803D02*
X0346772D01*
Y0412284D01*
X0342835D02*
X0346772D01*
X0342835Y0404803D02*
Y0412284D01*
X0334173Y0400079D02*
Y0407559D01*
X0338110D01*
Y0400079D02*
Y0407559D01*
X0334173Y0400079D02*
X0338110D01*
X0329350Y0399980D02*
Y0407657D01*
X0333484D01*
Y0399980D02*
Y0407657D01*
X0329350Y0399980D02*
X0333484D01*
X0328780Y0408150D02*
X0328819Y0400276D01*
X0320512D02*
Y0408150D01*
X0315905Y0400512D02*
Y0407992D01*
X0319843D01*
Y0400512D02*
Y0407992D01*
X0315905Y0400512D02*
X0319843D01*
X0321673Y0392421D02*
X0329350D01*
X0321673D02*
Y0396555D01*
X0329350D01*
Y0392421D02*
Y0396555D01*
X0330984Y0376654D02*
Y0384921D01*
X0322716D02*
X0330984D01*
X0322716Y0376654D02*
Y0384921D01*
Y0376654D02*
X0330984D01*
X0338248Y0373327D02*
Y0381004D01*
X0334114Y0373327D02*
X0338248D01*
X0334114D02*
Y0381004D01*
X0338248D01*
X0334409Y0372795D02*
X0341890D01*
Y0368858D02*
Y0372795D01*
X0334409Y0368858D02*
X0341890D01*
X0334409D02*
Y0372795D01*
X0342342Y0368760D02*
X0350020D01*
X0342342D02*
Y0372894D01*
X0350020D01*
Y0368760D02*
Y0372894D01*
X0352185Y0396437D02*
Y0404114D01*
X0356319D01*
Y0396437D02*
Y0404114D01*
X0352185Y0396437D02*
X0356319D01*
X0369390Y0410925D02*
X0377067D01*
X0369390D02*
Y0415059D01*
X0377067D01*
Y0410925D02*
Y0415059D01*
X0369390Y0406201D02*
X0377067D01*
X0369390D02*
Y0410335D01*
X0377067D01*
Y0406201D02*
Y0410335D01*
X0361555Y0393130D02*
Y0400807D01*
X0365689D01*
Y0393130D02*
Y0400807D01*
X0361555Y0393130D02*
X0365689D01*
X0366850Y0400787D02*
X0372362D01*
X0366850Y0395276D02*
X0372362D01*
X0377835Y0394134D02*
Y0401614D01*
X0373898Y0394134D02*
X0377835D01*
X0373898D02*
Y0401614D01*
X0377835D01*
X0362549Y0392031D02*
X0366349D01*
X0362549Y0386631D02*
Y0392031D01*
Y0386631D02*
X0366349D01*
Y0392031D01*
X0368622Y0385945D02*
Y0393425D01*
X0372559D01*
Y0385945D02*
Y0393425D01*
X0368622Y0385945D02*
X0372559D01*
X0373110D02*
Y0393425D01*
X0377047D01*
Y0385945D02*
Y0393425D01*
X0373110Y0385945D02*
X0377047D01*
X0360748Y0379882D02*
X0368228D01*
X0360748D02*
Y0383819D01*
X0368228D01*
Y0379882D02*
Y0383819D01*
X0354842Y0390610D02*
X0359567D01*
X0354842Y0383720D02*
X0359567D01*
X0360669Y0392047D02*
Y0395984D01*
X0353189D02*
X0360669D01*
X0353189Y0392047D02*
Y0395984D01*
Y0392047D02*
X0360669D01*
X0445737Y0392531D02*
G03*
X0445737Y0392531I-0000224J0000000D01*
G01*
X0438921Y0391299D02*
G03*
X0438921Y0391299I-0000220J0000000D01*
G01*
X0422576Y0201114D02*
X0426513D01*
X0422576Y0193634D02*
Y0201114D01*
Y0193634D02*
X0426513D01*
Y0201114D01*
X0430374Y0211910D02*
Y0216043D01*
Y0211910D02*
X0438051D01*
Y0216043D01*
X0430374D02*
X0438051D01*
X0430394Y0216457D02*
Y0220394D01*
Y0216457D02*
X0437874D01*
Y0220394D01*
X0430394D02*
X0437874D01*
X0438425Y0216457D02*
Y0220394D01*
Y0216457D02*
X0445906D01*
Y0220394D01*
X0438425D02*
X0445906D01*
X0443737Y0201213D02*
X0447871D01*
X0443737Y0193535D02*
Y0201213D01*
Y0193535D02*
X0447871D01*
Y0201213D01*
X0397520Y0180197D02*
X0405000D01*
Y0176260D02*
Y0180197D01*
X0397520Y0176260D02*
X0405000D01*
X0397520D02*
Y0180197D01*
X0416988Y0305374D02*
X0424665D01*
Y0301240D02*
Y0305374D01*
X0416988Y0301240D02*
X0424665D01*
X0416988D02*
Y0305374D01*
X0417028Y0310059D02*
X0424705D01*
Y0305925D02*
Y0310059D01*
X0417028Y0305925D02*
X0424705D01*
X0417028D02*
Y0310059D01*
X0426299Y0404803D02*
X0430236D01*
Y0412284D01*
X0426299D02*
X0430236D01*
X0426299Y0404803D02*
Y0412284D01*
X0417638Y0400079D02*
Y0407559D01*
X0421575D01*
Y0400079D02*
Y0407559D01*
X0417638Y0400079D02*
X0421575D01*
X0412815Y0399980D02*
Y0407657D01*
X0416949D01*
Y0399980D02*
Y0407657D01*
X0412815Y0399980D02*
X0416949D01*
X0412244Y0408150D02*
X0412283Y0400276D01*
X0403976D02*
Y0408150D01*
X0399370Y0400512D02*
Y0407992D01*
X0403307D01*
Y0400512D02*
Y0407992D01*
X0399370Y0400512D02*
X0403307D01*
X0405138Y0392421D02*
X0412815D01*
X0405138D02*
Y0396555D01*
X0412815D01*
Y0392421D02*
Y0396555D01*
X0414449Y0376654D02*
Y0384921D01*
X0406181D02*
X0414449D01*
X0406181Y0376654D02*
Y0384921D01*
Y0376654D02*
X0414449D01*
X0421713Y0373327D02*
Y0381004D01*
X0417579Y0373327D02*
X0421713D01*
X0417579D02*
Y0381004D01*
X0421713D01*
X0417874Y0372795D02*
X0425354D01*
Y0368858D02*
Y0372795D01*
X0417874Y0368858D02*
X0425354D01*
X0417874D02*
Y0372795D01*
X0425807Y0368760D02*
X0433484D01*
X0425807D02*
Y0372894D01*
X0433484D01*
Y0368760D02*
Y0372894D01*
X0435650Y0396437D02*
Y0404114D01*
X0439783D01*
Y0396437D02*
Y0404114D01*
X0435650Y0396437D02*
X0439783D01*
X0452854Y0410925D02*
X0460532D01*
X0452854D02*
Y0415059D01*
X0460532D01*
Y0410925D02*
Y0415059D01*
X0452854Y0406201D02*
X0460532D01*
X0452854D02*
Y0410335D01*
X0460532D01*
Y0406201D02*
Y0410335D01*
X0445020Y0393130D02*
Y0400807D01*
X0449154D01*
Y0393130D02*
Y0400807D01*
X0445020Y0393130D02*
X0449154D01*
X0450315Y0400787D02*
X0455827D01*
X0450315Y0395276D02*
X0455827D01*
X0461299Y0394134D02*
Y0401614D01*
X0457362Y0394134D02*
X0461299D01*
X0457362D02*
Y0401614D01*
X0461299D01*
X0446013Y0392031D02*
X0449813D01*
X0446013Y0386631D02*
Y0392031D01*
Y0386631D02*
X0449813D01*
Y0392031D01*
X0452087Y0385945D02*
Y0393425D01*
X0456024D01*
Y0385945D02*
Y0393425D01*
X0452087Y0385945D02*
X0456024D01*
X0456575D02*
Y0393425D01*
X0460512D01*
Y0385945D02*
Y0393425D01*
X0456575Y0385945D02*
X0460512D01*
X0444213Y0379882D02*
X0451693D01*
X0444213D02*
Y0383819D01*
X0451693D01*
Y0379882D02*
Y0383819D01*
X0438307Y0390610D02*
X0443032D01*
X0438307Y0383720D02*
X0443032D01*
X0444134Y0392047D02*
Y0395984D01*
X0436654D02*
X0444134D01*
X0436654Y0392047D02*
Y0395984D01*
Y0392047D02*
X0444134D01*
X0529202Y0392531D02*
G03*
X0529202Y0392531I-0000224J0000000D01*
G01*
X0522385Y0391299D02*
G03*
X0522385Y0391299I-0000220J0000000D01*
G01*
X0506040Y0201114D02*
X0509977D01*
X0506040Y0193634D02*
Y0201114D01*
Y0193634D02*
X0509977D01*
Y0201114D01*
X0513839Y0211910D02*
Y0216043D01*
Y0211910D02*
X0521516D01*
Y0216043D01*
X0513839D02*
X0521516D01*
X0513858Y0216457D02*
Y0220394D01*
Y0216457D02*
X0521339D01*
Y0220394D01*
X0513858D02*
X0521339D01*
X0521890Y0216457D02*
Y0220394D01*
Y0216457D02*
X0529370D01*
Y0220394D01*
X0521890D02*
X0529370D01*
X0527202Y0201213D02*
X0531336D01*
X0527202Y0193535D02*
Y0201213D01*
Y0193535D02*
X0531336D01*
Y0201213D01*
X0480984Y0180197D02*
X0488465D01*
Y0176260D02*
Y0180197D01*
X0480984Y0176260D02*
X0488465D01*
X0480984D02*
Y0180197D01*
X0500453Y0305374D02*
X0508130D01*
Y0301240D02*
Y0305374D01*
X0500453Y0301240D02*
X0508130D01*
X0500453D02*
Y0305374D01*
X0500492Y0310059D02*
X0508169D01*
Y0305925D02*
Y0310059D01*
X0500492Y0305925D02*
X0508169D01*
X0500492D02*
Y0310059D01*
X0509764Y0404803D02*
X0513701D01*
Y0412284D01*
X0509764D02*
X0513701D01*
X0509764Y0404803D02*
Y0412284D01*
X0501102Y0400079D02*
Y0407559D01*
X0505039D01*
Y0400079D02*
Y0407559D01*
X0501102Y0400079D02*
X0505039D01*
X0496279Y0399980D02*
Y0407657D01*
X0500413D01*
Y0399980D02*
Y0407657D01*
X0496279Y0399980D02*
X0500413D01*
X0495709Y0408150D02*
X0495748Y0400276D01*
X0487441D02*
Y0408150D01*
X0482835Y0400512D02*
Y0407992D01*
X0486772D01*
Y0400512D02*
Y0407992D01*
X0482835Y0400512D02*
X0486772D01*
X0488602Y0392421D02*
X0496279D01*
X0488602D02*
Y0396555D01*
X0496279D01*
Y0392421D02*
Y0396555D01*
X0497913Y0376654D02*
Y0384921D01*
X0489646D02*
X0497913D01*
X0489646Y0376654D02*
Y0384921D01*
Y0376654D02*
X0497913D01*
X0505177Y0373327D02*
Y0381004D01*
X0501043Y0373327D02*
X0505177D01*
X0501043D02*
Y0381004D01*
X0505177D01*
X0501339Y0372795D02*
X0508819D01*
Y0368858D02*
Y0372795D01*
X0501339Y0368858D02*
X0508819D01*
X0501339D02*
Y0372795D01*
X0509272Y0368760D02*
X0516949D01*
X0509272D02*
Y0372894D01*
X0516949D01*
Y0368760D02*
Y0372894D01*
X0519114Y0396437D02*
Y0404114D01*
X0523248D01*
Y0396437D02*
Y0404114D01*
X0519114Y0396437D02*
X0523248D01*
X0536319Y0410925D02*
X0543996D01*
X0536319D02*
Y0415059D01*
X0543996D01*
Y0410925D02*
Y0415059D01*
X0536319Y0406201D02*
X0543996D01*
X0536319D02*
Y0410335D01*
X0543996D01*
Y0406201D02*
Y0410335D01*
X0528484Y0393130D02*
Y0400807D01*
X0532618D01*
Y0393130D02*
Y0400807D01*
X0528484Y0393130D02*
X0532618D01*
X0533779Y0400787D02*
X0539291D01*
X0533779Y0395276D02*
X0539291D01*
X0544764Y0394134D02*
Y0401614D01*
X0540827Y0394134D02*
X0544764D01*
X0540827D02*
Y0401614D01*
X0544764D01*
X0529478Y0392031D02*
X0533278D01*
X0529478Y0386631D02*
Y0392031D01*
Y0386631D02*
X0533278D01*
Y0392031D01*
X0535551Y0385945D02*
Y0393425D01*
X0539488D01*
Y0385945D02*
Y0393425D01*
X0535551Y0385945D02*
X0539488D01*
X0540039D02*
Y0393425D01*
X0543976D01*
Y0385945D02*
Y0393425D01*
X0540039Y0385945D02*
X0543976D01*
X0527677Y0379882D02*
X0535157D01*
X0527677D02*
Y0383819D01*
X0535157D01*
Y0379882D02*
Y0383819D01*
X0521772Y0390610D02*
X0526496D01*
X0521772Y0383720D02*
X0526496D01*
X0527598Y0392047D02*
Y0395984D01*
X0520118D02*
X0527598D01*
X0520118Y0392047D02*
Y0395984D01*
Y0392047D02*
X0527598D01*
D76*
X0179544Y0201011D02*
X0179544Y0201208D01*
X0179544Y0197271D02*
X0179544Y0197468D01*
X0190568Y0201011D02*
X0190568Y0201208D01*
X0190568Y0197271D02*
X0190568Y0197468D01*
X0190568Y0193531D02*
X0190568Y0193728D01*
X0190568Y0204751D02*
X0190568Y0204948D01*
X0179544Y0204751D02*
X0179544Y0204948D01*
X0179544Y0193531D02*
X0179544Y0193728D01*
X0179544Y0204949D02*
X0190567D01*
X0179544Y0193531D02*
X0190567D01*
X0177111Y0152610D02*
Y0154709D01*
Y0153659D01*
X0180260D01*
Y0155758D02*
X0178161D01*
X0177111Y0156808D01*
X0178161Y0157857D01*
X0180260D01*
X0178685D01*
Y0155758D01*
X0177111Y0158907D02*
X0180260D01*
Y0160481D01*
X0179735Y0161006D01*
X0179210D01*
X0178685Y0160481D01*
Y0158907D01*
Y0160481D01*
X0178161Y0161006D01*
X0177636D01*
X0177111Y0160481D01*
Y0158907D01*
X0177636Y0162056D02*
X0177111Y0162580D01*
Y0163630D01*
X0177636Y0164155D01*
X0178161D01*
X0178685Y0163630D01*
Y0163105D01*
Y0163630D01*
X0179210Y0164155D01*
X0179735D01*
X0180260Y0163630D01*
Y0162580D01*
X0179735Y0162056D01*
X0182480Y0153594D02*
Y0155693D01*
Y0154644D01*
X0185628D01*
Y0156743D02*
X0183529D01*
X0182480Y0157792D01*
X0183529Y0158842D01*
X0185628D01*
X0184054D01*
Y0156743D01*
X0182480Y0159891D02*
X0185628D01*
Y0161466D01*
X0185104Y0161990D01*
X0184579D01*
X0184054Y0161466D01*
Y0159891D01*
Y0161466D01*
X0183529Y0161990D01*
X0183005D01*
X0182480Y0161466D01*
Y0159891D01*
X0185628Y0163040D02*
Y0164089D01*
Y0163565D01*
X0182480D01*
X0183005Y0163040D01*
X0173741Y0202716D02*
X0176365D01*
X0176890Y0203241D01*
Y0204291D01*
X0176365Y0204816D01*
X0173741D01*
X0176890Y0205865D02*
Y0206915D01*
Y0206390D01*
X0173741D01*
X0174266Y0205865D01*
Y0208489D02*
X0173741Y0209014D01*
Y0210063D01*
X0174266Y0210588D01*
X0174791D01*
X0175316Y0210063D01*
Y0209539D01*
Y0210063D01*
X0175840Y0210588D01*
X0176365D01*
X0176890Y0210063D01*
Y0209014D01*
X0176365Y0208489D01*
X0170591Y0216850D02*
Y0219999D01*
X0172165D01*
X0172690Y0219474D01*
Y0218425D01*
X0172165Y0217900D01*
X0170591D01*
X0171640D02*
X0172690Y0216850D01*
X0173739Y0219474D02*
X0174264Y0219999D01*
X0175313D01*
X0175838Y0219474D01*
Y0218949D01*
X0175313Y0218425D01*
X0174789D01*
X0175313D01*
X0175838Y0217900D01*
Y0217375D01*
X0175313Y0216850D01*
X0174264D01*
X0173739Y0217375D01*
X0178462Y0216850D02*
Y0219999D01*
X0176888Y0218425D01*
X0178987D01*
X0189213Y0212520D02*
Y0215668D01*
X0190787D01*
X0191312Y0215143D01*
Y0214094D01*
X0190787Y0213569D01*
X0189213D01*
X0190262D02*
X0191312Y0212520D01*
X0192361Y0215143D02*
X0192886Y0215668D01*
X0193936D01*
X0194460Y0215143D01*
Y0214619D01*
X0193936Y0214094D01*
X0193411D01*
X0193936D01*
X0194460Y0213569D01*
Y0213045D01*
X0193936Y0212520D01*
X0192886D01*
X0192361Y0213045D01*
X0195510Y0215143D02*
X0196035Y0215668D01*
X0197084D01*
X0197609Y0215143D01*
Y0214619D01*
X0197084Y0214094D01*
X0196559D01*
X0197084D01*
X0197609Y0213569D01*
Y0213045D01*
X0197084Y0212520D01*
X0196035D01*
X0195510Y0213045D01*
X0171417Y0193976D02*
X0168269D01*
Y0195551D01*
X0168794Y0196075D01*
X0169843D01*
X0170368Y0195551D01*
Y0193976D01*
Y0195026D02*
X0171417Y0196075D01*
Y0199224D02*
Y0197125D01*
X0169318Y0199224D01*
X0168794D01*
X0168269Y0198699D01*
Y0197650D01*
X0168794Y0197125D01*
X0170893Y0200274D02*
X0171417Y0200798D01*
Y0201848D01*
X0170893Y0202373D01*
X0168794D01*
X0168269Y0201848D01*
Y0200798D01*
X0168794Y0200274D01*
X0169318D01*
X0169843Y0200798D01*
Y0202373D01*
X0216812Y0218831D02*
Y0216732D01*
X0218386D01*
Y0217782D01*
Y0216732D01*
X0219961D01*
Y0219881D02*
Y0220930D01*
Y0220406D01*
X0216812D01*
X0217337Y0219881D01*
X0190827Y0210471D02*
Y0207323D01*
X0192401D01*
X0192926Y0207848D01*
Y0209947D01*
X0192401Y0210471D01*
X0190827D01*
X0195550Y0207323D02*
Y0210471D01*
X0193975Y0208897D01*
X0196074D01*
X0218426Y0191890D02*
X0221575D01*
Y0193464D01*
X0221050Y0193989D01*
X0218951D01*
X0218426Y0193464D01*
Y0191890D01*
X0218951Y0195038D02*
X0218426Y0195563D01*
Y0196613D01*
X0218951Y0197137D01*
X0219476D01*
X0220001Y0196613D01*
Y0196088D01*
Y0196613D01*
X0220525Y0197137D01*
X0221050D01*
X0221575Y0196613D01*
Y0195563D01*
X0221050Y0195038D01*
X0172808Y0214671D02*
X0172283Y0215196D01*
X0171233D01*
X0170709Y0214671D01*
Y0212572D01*
X0171233Y0212047D01*
X0172283D01*
X0172808Y0212572D01*
X0175432Y0212047D02*
Y0215196D01*
X0173857Y0213621D01*
X0175956D01*
X0178580Y0212047D02*
Y0215196D01*
X0177006Y0213621D01*
X0179105D01*
X0193557Y0186430D02*
X0193033Y0185905D01*
Y0184855D01*
X0193557Y0184331D01*
X0195656D01*
X0196181Y0184855D01*
Y0185905D01*
X0195656Y0186430D01*
X0196181Y0189054D02*
X0193033D01*
X0194607Y0187479D01*
Y0189578D01*
X0193557Y0190628D02*
X0193033Y0191153D01*
Y0192202D01*
X0193557Y0192727D01*
X0195656D01*
X0196181Y0192202D01*
Y0191153D01*
X0195656Y0190628D01*
X0193557D01*
X0154921Y0368464D02*
Y0365840D01*
X0155446Y0365315D01*
X0156496D01*
X0157020Y0365840D01*
Y0368464D01*
X0159644Y0365315D02*
Y0368464D01*
X0158070Y0366889D01*
X0160169D01*
X0145866Y0296772D02*
Y0298871D01*
X0146916Y0299920D01*
X0147965Y0298871D01*
Y0296772D01*
Y0298346D01*
X0145866D01*
X0149015Y0296772D02*
X0150064D01*
X0149539D01*
Y0299920D01*
X0149015Y0299395D01*
X0149686Y0377402D02*
X0152310D01*
X0152835Y0377926D01*
Y0378976D01*
X0152310Y0379501D01*
X0149686D01*
X0152835Y0380550D02*
Y0381600D01*
Y0381075D01*
X0149686D01*
X0150211Y0380550D01*
X0152835Y0383174D02*
Y0384224D01*
Y0383699D01*
X0149686D01*
X0150211Y0383174D01*
X0153740Y0413070D02*
Y0410446D01*
X0154265Y0409921D01*
X0155315D01*
X0155839Y0410446D01*
Y0413070D01*
X0156889Y0409921D02*
X0157938D01*
X0157413D01*
Y0413070D01*
X0156889Y0412545D01*
X0159513D02*
X0160037Y0413070D01*
X0161087D01*
X0161612Y0412545D01*
Y0410446D01*
X0161087Y0409921D01*
X0160037D01*
X0159513Y0410446D01*
Y0412545D01*
X0211143Y0386772D02*
X0213767D01*
X0214291Y0387297D01*
Y0388346D01*
X0213767Y0388871D01*
X0211143D01*
Y0392019D02*
X0211667Y0390970D01*
X0212717Y0389920D01*
X0213767D01*
X0214291Y0390445D01*
Y0391495D01*
X0213767Y0392019D01*
X0213242D01*
X0212717Y0391495D01*
Y0389920D01*
X0182836Y0384724D02*
X0185459D01*
X0185984Y0385249D01*
Y0386299D01*
X0185459Y0386824D01*
X0182836D01*
Y0389972D02*
Y0387873D01*
X0184410D01*
X0183885Y0388923D01*
Y0389447D01*
X0184410Y0389972D01*
X0185459D01*
X0185984Y0389447D01*
Y0388398D01*
X0185459Y0387873D01*
X0182560Y0405787D02*
X0185184D01*
X0185709Y0406312D01*
Y0407362D01*
X0185184Y0407887D01*
X0182560D01*
X0183085Y0408936D02*
X0182560Y0409461D01*
Y0410510D01*
X0183085Y0411035D01*
X0183610D01*
X0184134Y0410510D01*
Y0409986D01*
Y0410510D01*
X0184659Y0411035D01*
X0185184D01*
X0185709Y0410510D01*
Y0409461D01*
X0185184Y0408936D01*
X0206614Y0405550D02*
X0208713D01*
X0207664D01*
Y0402402D01*
X0209763Y0405025D02*
X0210287Y0405550D01*
X0211337D01*
X0211862Y0405025D01*
Y0404501D01*
X0211337Y0403976D01*
X0210812D01*
X0211337D01*
X0211862Y0403451D01*
Y0402926D01*
X0211337Y0402402D01*
X0210287D01*
X0209763Y0402926D01*
X0209449Y0376339D02*
X0206300D01*
Y0377913D01*
X0206825Y0378438D01*
X0207874D01*
X0208399Y0377913D01*
Y0376339D01*
Y0377388D02*
X0209449Y0378438D01*
Y0381586D02*
Y0379487D01*
X0207350Y0381586D01*
X0206825D01*
X0206300Y0381062D01*
Y0380012D01*
X0206825Y0379487D01*
X0209449Y0384735D02*
Y0382636D01*
X0207350Y0384735D01*
X0206825D01*
X0206300Y0384210D01*
Y0383161D01*
X0206825Y0382636D01*
X0205276Y0377638D02*
X0202127D01*
Y0379212D01*
X0202652Y0379737D01*
X0203701D01*
X0204226Y0379212D01*
Y0377638D01*
Y0378687D02*
X0205276Y0379737D01*
Y0382886D02*
Y0380786D01*
X0203176Y0382886D01*
X0202652D01*
X0202127Y0382361D01*
Y0381311D01*
X0202652Y0380786D01*
X0205276Y0383935D02*
Y0384985D01*
Y0384460D01*
X0202127D01*
X0202652Y0383935D01*
X0215472Y0394213D02*
X0212324D01*
Y0395787D01*
X0212849Y0396312D01*
X0213898D01*
X0214423Y0395787D01*
Y0394213D01*
Y0395262D02*
X0215472Y0396312D01*
Y0399460D02*
Y0397361D01*
X0213373Y0399460D01*
X0212849D01*
X0212324Y0398936D01*
Y0397886D01*
X0212849Y0397361D01*
Y0400510D02*
X0212324Y0401035D01*
Y0402084D01*
X0212849Y0402609D01*
X0214948D01*
X0215472Y0402084D01*
Y0401035D01*
X0214948Y0400510D01*
X0212849D01*
X0193228Y0375433D02*
Y0378582D01*
X0194803D01*
X0195327Y0378057D01*
Y0377007D01*
X0194803Y0376483D01*
X0193228D01*
X0194278D02*
X0195327Y0375433D01*
X0196377D02*
X0197426D01*
X0196902D01*
Y0378582D01*
X0196377Y0378057D01*
X0199001Y0375958D02*
X0199525Y0375433D01*
X0200575D01*
X0201100Y0375958D01*
Y0378057D01*
X0200575Y0378582D01*
X0199525D01*
X0199001Y0378057D01*
Y0377532D01*
X0199525Y0377007D01*
X0201100D01*
X0172480Y0373661D02*
Y0376810D01*
X0174055D01*
X0174579Y0376285D01*
Y0375236D01*
X0174055Y0374711D01*
X0172480D01*
X0173530D02*
X0174579Y0373661D01*
X0175629D02*
X0176678D01*
X0176154D01*
Y0376810D01*
X0175629Y0376285D01*
X0178253D02*
X0178778Y0376810D01*
X0179827D01*
X0180352Y0376285D01*
Y0375761D01*
X0179827Y0375236D01*
X0180352Y0374711D01*
Y0374186D01*
X0179827Y0373661D01*
X0178778D01*
X0178253Y0374186D01*
Y0374711D01*
X0178778Y0375236D01*
X0178253Y0375761D01*
Y0376285D01*
X0178778Y0375236D02*
X0179827D01*
X0170551Y0408701D02*
X0167403D01*
Y0410275D01*
X0167927Y0410800D01*
X0168977D01*
X0169502Y0410275D01*
Y0408701D01*
Y0409750D02*
X0170551Y0410800D01*
Y0411849D02*
Y0412899D01*
Y0412374D01*
X0167403D01*
X0167927Y0411849D01*
X0170551Y0414473D02*
Y0415523D01*
Y0414998D01*
X0167403D01*
X0167927Y0414473D01*
X0152323Y0391535D02*
X0149174D01*
Y0393110D01*
X0149699Y0393635D01*
X0150749D01*
X0151273Y0393110D01*
Y0391535D01*
Y0392585D02*
X0152323Y0393635D01*
Y0394684D02*
Y0395734D01*
Y0395209D01*
X0149174D01*
X0149699Y0394684D01*
Y0397308D02*
X0149174Y0397833D01*
Y0398882D01*
X0149699Y0399407D01*
X0151798D01*
X0152323Y0398882D01*
Y0397833D01*
X0151798Y0397308D01*
X0149699D01*
X0143622Y0172716D02*
Y0175865D01*
X0145196D01*
X0145721Y0175340D01*
Y0174291D01*
X0145196Y0173766D01*
X0143622D01*
X0144672D02*
X0145721Y0172716D01*
X0146771Y0173241D02*
X0147295Y0172716D01*
X0148345D01*
X0148870Y0173241D01*
Y0175340D01*
X0148345Y0175865D01*
X0147295D01*
X0146771Y0175340D01*
Y0174816D01*
X0147295Y0174291D01*
X0148870D01*
X0184567Y0392324D02*
Y0395473D01*
X0182468D01*
X0179844D02*
Y0392324D01*
X0181418Y0393898D01*
X0179319D01*
X0176222Y0398622D02*
X0179370D01*
Y0400721D01*
X0176746Y0401771D02*
X0176222Y0402295D01*
Y0403345D01*
X0176746Y0403870D01*
X0177271D01*
X0177796Y0403345D01*
Y0402820D01*
Y0403345D01*
X0178321Y0403870D01*
X0178845D01*
X0179370Y0403345D01*
Y0402295D01*
X0178845Y0401771D01*
X0162165Y0179448D02*
Y0176299D01*
X0163740D01*
X0164265Y0176824D01*
Y0178923D01*
X0163740Y0179448D01*
X0162165D01*
X0167413Y0176299D02*
X0165314D01*
X0167413Y0178398D01*
Y0178923D01*
X0166888Y0179448D01*
X0165839D01*
X0165314Y0178923D01*
X0148123Y0210340D02*
X0147598Y0210865D01*
X0146548D01*
X0146024Y0210340D01*
Y0208241D01*
X0146548Y0207717D01*
X0147598D01*
X0148123Y0208241D01*
X0150747Y0210865D02*
X0149697D01*
X0149172Y0210340D01*
Y0208241D01*
X0149697Y0207717D01*
X0150747D01*
X0151271Y0208241D01*
Y0210340D01*
X0150747Y0210865D01*
X0152321Y0207717D02*
Y0210865D01*
X0154420Y0207717D01*
Y0210865D01*
X0155469Y0207717D02*
X0156519D01*
X0155994D01*
Y0210865D01*
X0155469Y0210340D01*
X0165721Y0395852D02*
X0165196Y0396377D01*
X0164147D01*
X0163622Y0395852D01*
Y0393753D01*
X0164147Y0393228D01*
X0165196D01*
X0165721Y0393753D01*
X0166771Y0395852D02*
X0167295Y0396377D01*
X0168345D01*
X0168870Y0395852D01*
Y0395327D01*
X0168345Y0394803D01*
X0167820D01*
X0168345D01*
X0168870Y0394278D01*
Y0393753D01*
X0168345Y0393228D01*
X0167295D01*
X0166771Y0393753D01*
X0169919Y0395852D02*
X0170444Y0396377D01*
X0171493D01*
X0172018Y0395852D01*
Y0395327D01*
X0171493Y0394803D01*
X0172018Y0394278D01*
Y0393753D01*
X0171493Y0393228D01*
X0170444D01*
X0169919Y0393753D01*
Y0394278D01*
X0170444Y0394803D01*
X0169919Y0395327D01*
Y0395852D01*
X0170444Y0394803D02*
X0171493D01*
X0169343Y0389632D02*
X0168818Y0390157D01*
X0167769D01*
X0167244Y0389632D01*
Y0387533D01*
X0167769Y0387008D01*
X0168818D01*
X0169343Y0387533D01*
X0170393Y0389632D02*
X0170917Y0390157D01*
X0171967D01*
X0172492Y0389632D01*
Y0389107D01*
X0171967Y0388582D01*
X0171442D01*
X0171967D01*
X0172492Y0388057D01*
Y0387533D01*
X0171967Y0387008D01*
X0170917D01*
X0170393Y0387533D01*
X0173541Y0390157D02*
X0175640D01*
Y0389632D01*
X0173541Y0387533D01*
Y0387008D01*
X0163282Y0410642D02*
X0162757Y0410118D01*
Y0409068D01*
X0163282Y0408543D01*
X0165381D01*
X0165905Y0409068D01*
Y0410118D01*
X0165381Y0410642D01*
X0163282Y0411692D02*
X0162757Y0412217D01*
Y0413266D01*
X0163282Y0413791D01*
X0163806D01*
X0164331Y0413266D01*
Y0412742D01*
Y0413266D01*
X0164856Y0413791D01*
X0165381D01*
X0165905Y0413266D01*
Y0412217D01*
X0165381Y0411692D01*
X0162757Y0416940D02*
Y0414841D01*
X0164331D01*
X0163806Y0415890D01*
Y0416415D01*
X0164331Y0416940D01*
X0165381D01*
X0165905Y0416415D01*
Y0415365D01*
X0165381Y0414841D01*
X0200485Y0404553D02*
X0199960Y0405078D01*
X0198911D01*
X0198386Y0404553D01*
Y0402454D01*
X0198911Y0401929D01*
X0199960D01*
X0200485Y0402454D01*
X0201534Y0401929D02*
X0202584D01*
X0202059D01*
Y0405078D01*
X0201534Y0404553D01*
X0206257Y0405078D02*
X0205208Y0404553D01*
X0204158Y0403504D01*
Y0402454D01*
X0204683Y0401929D01*
X0205733D01*
X0206257Y0402454D01*
Y0402979D01*
X0205733Y0403504D01*
X0204158D01*
X0186154Y0372033D02*
X0185629Y0372558D01*
X0184580D01*
X0184055Y0372033D01*
Y0369934D01*
X0184580Y0369409D01*
X0185629D01*
X0186154Y0369934D01*
X0187204Y0369409D02*
X0188253D01*
X0187729D01*
Y0372558D01*
X0187204Y0372033D01*
X0191927Y0372558D02*
X0189828D01*
Y0370984D01*
X0190877Y0371509D01*
X0191402D01*
X0191927Y0370984D01*
Y0369934D01*
X0191402Y0369409D01*
X0190352D01*
X0189828Y0369934D01*
X0159855Y0309120D02*
X0159330Y0309645D01*
X0158281D01*
X0157756Y0309120D01*
Y0307021D01*
X0158281Y0306496D01*
X0159330D01*
X0159855Y0307021D01*
X0160905Y0306496D02*
X0161954D01*
X0161429D01*
Y0309645D01*
X0160905Y0309120D01*
X0165103Y0306496D02*
Y0309645D01*
X0163528Y0308070D01*
X0165627D01*
X0159737Y0304592D02*
X0159212Y0305117D01*
X0158163D01*
X0157638Y0304592D01*
Y0302493D01*
X0158163Y0301969D01*
X0159212D01*
X0159737Y0302493D01*
X0160786Y0301969D02*
X0161836D01*
X0161311D01*
Y0305117D01*
X0160786Y0304592D01*
X0163410D02*
X0163935Y0305117D01*
X0164985D01*
X0165509Y0304592D01*
Y0304068D01*
X0164985Y0303543D01*
X0164460D01*
X0164985D01*
X0165509Y0303018D01*
Y0302493D01*
X0164985Y0301969D01*
X0163935D01*
X0163410Y0302493D01*
X0179973Y0303490D02*
X0179448Y0304015D01*
X0178399D01*
X0177874Y0303490D01*
Y0301391D01*
X0178399Y0300866D01*
X0179448D01*
X0179973Y0301391D01*
X0181023Y0300866D02*
X0182072D01*
X0181547D01*
Y0304015D01*
X0181023Y0303490D01*
X0185746Y0300866D02*
X0183647D01*
X0185746Y0302965D01*
Y0303490D01*
X0185221Y0304015D01*
X0184171D01*
X0183647Y0303490D01*
X0174697Y0380340D02*
X0174173Y0380865D01*
X0173123D01*
X0172598Y0380340D01*
Y0378241D01*
X0173123Y0377717D01*
X0174173D01*
X0174697Y0378241D01*
X0175747Y0377717D02*
X0176797D01*
X0176272D01*
Y0380865D01*
X0175747Y0380340D01*
X0178371Y0377717D02*
X0179420D01*
X0178896D01*
Y0380865D01*
X0178371Y0380340D01*
X0213083Y0409317D02*
X0212559Y0409842D01*
X0211509D01*
X0210984Y0409317D01*
Y0407218D01*
X0211509Y0406693D01*
X0212559D01*
X0213083Y0407218D01*
X0214133D02*
X0214658Y0406693D01*
X0215707D01*
X0216232Y0407218D01*
Y0409317D01*
X0215707Y0409842D01*
X0214658D01*
X0214133Y0409317D01*
Y0408792D01*
X0214658Y0408267D01*
X0216232D01*
X0213083Y0414081D02*
X0212559Y0414605D01*
X0211509D01*
X0210984Y0414081D01*
Y0411981D01*
X0211509Y0411457D01*
X0212559D01*
X0213083Y0411981D01*
X0214133Y0414081D02*
X0214658Y0414605D01*
X0215707D01*
X0216232Y0414081D01*
Y0413556D01*
X0215707Y0413031D01*
X0216232Y0412506D01*
Y0411981D01*
X0215707Y0411457D01*
X0214658D01*
X0214133Y0411981D01*
Y0412506D01*
X0214658Y0413031D01*
X0214133Y0413556D01*
Y0414081D01*
X0214658Y0413031D02*
X0215707D01*
X0181667Y0400209D02*
X0181143Y0399685D01*
Y0398635D01*
X0181667Y0398110D01*
X0183767D01*
X0184291Y0398635D01*
Y0399685D01*
X0183767Y0400209D01*
X0181143Y0401259D02*
Y0403358D01*
X0181667D01*
X0183767Y0401259D01*
X0184291D01*
X0173110Y0439646D02*
X0171011D01*
X0169962Y0440695D01*
X0171011Y0441745D01*
X0173110D01*
X0171536D01*
Y0439646D01*
X0173110Y0444893D02*
Y0442794D01*
X0171011Y0444893D01*
X0170486D01*
X0169962Y0444369D01*
Y0443319D01*
X0170486Y0442794D01*
X0263008Y0201011D02*
X0263009Y0201208D01*
X0263008Y0197271D02*
X0263009Y0197468D01*
X0274032Y0201011D02*
X0274032Y0201208D01*
X0274032Y0197271D02*
X0274032Y0197468D01*
X0274032Y0193531D02*
X0274032Y0193728D01*
X0274032Y0204751D02*
X0274032Y0204948D01*
X0263008Y0204751D02*
X0263009Y0204948D01*
X0263008Y0193531D02*
X0263009Y0193728D01*
X0263008Y0204949D02*
X0274032D01*
X0263008Y0193531D02*
X0274032D01*
X0260576Y0152610D02*
Y0154709D01*
Y0153659D01*
X0263724D01*
Y0155758D02*
X0261625D01*
X0260576Y0156808D01*
X0261625Y0157857D01*
X0263724D01*
X0262150D01*
Y0155758D01*
X0260576Y0158907D02*
X0263724D01*
Y0160481D01*
X0263200Y0161006D01*
X0262675D01*
X0262150Y0160481D01*
Y0158907D01*
Y0160481D01*
X0261625Y0161006D01*
X0261101D01*
X0260576Y0160481D01*
Y0158907D01*
X0261101Y0162056D02*
X0260576Y0162580D01*
Y0163630D01*
X0261101Y0164155D01*
X0261625D01*
X0262150Y0163630D01*
Y0163105D01*
Y0163630D01*
X0262675Y0164155D01*
X0263200D01*
X0263724Y0163630D01*
Y0162580D01*
X0263200Y0162056D01*
X0265945Y0153594D02*
Y0155693D01*
Y0154644D01*
X0269093D01*
Y0156743D02*
X0266994D01*
X0265945Y0157792D01*
X0266994Y0158842D01*
X0269093D01*
X0267519D01*
Y0156743D01*
X0265945Y0159891D02*
X0269093D01*
Y0161466D01*
X0268568Y0161990D01*
X0268044D01*
X0267519Y0161466D01*
Y0159891D01*
Y0161466D01*
X0266994Y0161990D01*
X0266469D01*
X0265945Y0161466D01*
Y0159891D01*
X0269093Y0163040D02*
Y0164089D01*
Y0163565D01*
X0265945D01*
X0266469Y0163040D01*
X0257206Y0202716D02*
X0259830D01*
X0260354Y0203241D01*
Y0204291D01*
X0259830Y0204816D01*
X0257206D01*
X0260354Y0205865D02*
Y0206915D01*
Y0206390D01*
X0257206D01*
X0257731Y0205865D01*
Y0208489D02*
X0257206Y0209014D01*
Y0210063D01*
X0257731Y0210588D01*
X0258255D01*
X0258780Y0210063D01*
Y0209539D01*
Y0210063D01*
X0259305Y0210588D01*
X0259830D01*
X0260354Y0210063D01*
Y0209014D01*
X0259830Y0208489D01*
X0254055Y0216850D02*
Y0219999D01*
X0255629D01*
X0256154Y0219474D01*
Y0218425D01*
X0255629Y0217900D01*
X0254055D01*
X0255105D02*
X0256154Y0216850D01*
X0257204Y0219474D02*
X0257729Y0219999D01*
X0258778D01*
X0259303Y0219474D01*
Y0218949D01*
X0258778Y0218425D01*
X0258253D01*
X0258778D01*
X0259303Y0217900D01*
Y0217375D01*
X0258778Y0216850D01*
X0257729D01*
X0257204Y0217375D01*
X0261927Y0216850D02*
Y0219999D01*
X0260352Y0218425D01*
X0262451D01*
X0272677Y0212520D02*
Y0215668D01*
X0274252D01*
X0274776Y0215143D01*
Y0214094D01*
X0274252Y0213569D01*
X0272677D01*
X0273727D02*
X0274776Y0212520D01*
X0275826Y0215143D02*
X0276351Y0215668D01*
X0277400D01*
X0277925Y0215143D01*
Y0214619D01*
X0277400Y0214094D01*
X0276875D01*
X0277400D01*
X0277925Y0213569D01*
Y0213045D01*
X0277400Y0212520D01*
X0276351D01*
X0275826Y0213045D01*
X0278974Y0215143D02*
X0279499Y0215668D01*
X0280549D01*
X0281073Y0215143D01*
Y0214619D01*
X0280549Y0214094D01*
X0280024D01*
X0280549D01*
X0281073Y0213569D01*
Y0213045D01*
X0280549Y0212520D01*
X0279499D01*
X0278974Y0213045D01*
X0254882Y0193976D02*
X0251733D01*
Y0195551D01*
X0252258Y0196075D01*
X0253308D01*
X0253832Y0195551D01*
Y0193976D01*
Y0195026D02*
X0254882Y0196075D01*
Y0199224D02*
Y0197125D01*
X0252783Y0199224D01*
X0252258D01*
X0251733Y0198699D01*
Y0197650D01*
X0252258Y0197125D01*
X0254357Y0200274D02*
X0254882Y0200798D01*
Y0201848D01*
X0254357Y0202373D01*
X0252258D01*
X0251733Y0201848D01*
Y0200798D01*
X0252258Y0200274D01*
X0252783D01*
X0253308Y0200798D01*
Y0202373D01*
X0300277Y0218831D02*
Y0216732D01*
X0301851D01*
Y0217782D01*
Y0216732D01*
X0303425D01*
Y0219881D02*
Y0220930D01*
Y0220406D01*
X0300277D01*
X0300801Y0219881D01*
X0274291Y0210471D02*
Y0207323D01*
X0275866D01*
X0276391Y0207848D01*
Y0209947D01*
X0275866Y0210471D01*
X0274291D01*
X0279014Y0207323D02*
Y0210471D01*
X0277440Y0208897D01*
X0279539D01*
X0301891Y0191890D02*
X0305039D01*
Y0193464D01*
X0304515Y0193989D01*
X0302416D01*
X0301891Y0193464D01*
Y0191890D01*
X0302416Y0195038D02*
X0301891Y0195563D01*
Y0196613D01*
X0302416Y0197137D01*
X0302940D01*
X0303465Y0196613D01*
Y0196088D01*
Y0196613D01*
X0303990Y0197137D01*
X0304515D01*
X0305039Y0196613D01*
Y0195563D01*
X0304515Y0195038D01*
X0256272Y0214671D02*
X0255748Y0215196D01*
X0254698D01*
X0254173Y0214671D01*
Y0212572D01*
X0254698Y0212047D01*
X0255748D01*
X0256272Y0212572D01*
X0258896Y0212047D02*
Y0215196D01*
X0257322Y0213621D01*
X0259421D01*
X0262045Y0212047D02*
Y0215196D01*
X0260471Y0213621D01*
X0262569D01*
X0277022Y0186430D02*
X0276497Y0185905D01*
Y0184855D01*
X0277022Y0184331D01*
X0279121D01*
X0279646Y0184855D01*
Y0185905D01*
X0279121Y0186430D01*
X0279646Y0189054D02*
X0276497D01*
X0278071Y0187479D01*
Y0189578D01*
X0277022Y0190628D02*
X0276497Y0191153D01*
Y0192202D01*
X0277022Y0192727D01*
X0279121D01*
X0279646Y0192202D01*
Y0191153D01*
X0279121Y0190628D01*
X0277022D01*
X0238386Y0368464D02*
Y0365840D01*
X0238911Y0365315D01*
X0239960D01*
X0240485Y0365840D01*
Y0368464D01*
X0243109Y0365315D02*
Y0368464D01*
X0241534Y0366889D01*
X0243634D01*
X0229331Y0296772D02*
Y0298871D01*
X0230380Y0299920D01*
X0231430Y0298871D01*
Y0296772D01*
Y0298346D01*
X0229331D01*
X0232479Y0296772D02*
X0233529D01*
X0233004D01*
Y0299920D01*
X0232479Y0299395D01*
X0233151Y0377402D02*
X0235774D01*
X0236299Y0377926D01*
Y0378976D01*
X0235774Y0379501D01*
X0233151D01*
X0236299Y0380550D02*
Y0381600D01*
Y0381075D01*
X0233151D01*
X0233675Y0380550D01*
X0236299Y0383174D02*
Y0384224D01*
Y0383699D01*
X0233151D01*
X0233675Y0383174D01*
X0237205Y0413070D02*
Y0410446D01*
X0237730Y0409921D01*
X0238779D01*
X0239304Y0410446D01*
Y0413070D01*
X0240353Y0409921D02*
X0241403D01*
X0240878D01*
Y0413070D01*
X0240353Y0412545D01*
X0242977D02*
X0243502Y0413070D01*
X0244551D01*
X0245076Y0412545D01*
Y0410446D01*
X0244551Y0409921D01*
X0243502D01*
X0242977Y0410446D01*
Y0412545D01*
X0294607Y0386772D02*
X0297231D01*
X0297756Y0387297D01*
Y0388346D01*
X0297231Y0388871D01*
X0294607D01*
Y0392019D02*
X0295132Y0390970D01*
X0296182Y0389920D01*
X0297231D01*
X0297756Y0390445D01*
Y0391495D01*
X0297231Y0392019D01*
X0296706D01*
X0296182Y0391495D01*
Y0389920D01*
X0266300Y0384724D02*
X0268924D01*
X0269449Y0385249D01*
Y0386299D01*
X0268924Y0386824D01*
X0266300D01*
Y0389972D02*
Y0387873D01*
X0267875D01*
X0267350Y0388923D01*
Y0389447D01*
X0267875Y0389972D01*
X0268924D01*
X0269449Y0389447D01*
Y0388398D01*
X0268924Y0387873D01*
X0266025Y0405787D02*
X0268649D01*
X0269173Y0406312D01*
Y0407362D01*
X0268649Y0407887D01*
X0266025D01*
X0266549Y0408936D02*
X0266025Y0409461D01*
Y0410510D01*
X0266549Y0411035D01*
X0267074D01*
X0267599Y0410510D01*
Y0409986D01*
Y0410510D01*
X0268124Y0411035D01*
X0268649D01*
X0269173Y0410510D01*
Y0409461D01*
X0268649Y0408936D01*
X0290079Y0405550D02*
X0292178D01*
X0291128D01*
Y0402402D01*
X0293227Y0405025D02*
X0293752Y0405550D01*
X0294802D01*
X0295326Y0405025D01*
Y0404501D01*
X0294802Y0403976D01*
X0294277D01*
X0294802D01*
X0295326Y0403451D01*
Y0402926D01*
X0294802Y0402402D01*
X0293752D01*
X0293227Y0402926D01*
X0292913Y0376339D02*
X0289765D01*
Y0377913D01*
X0290290Y0378438D01*
X0291339D01*
X0291864Y0377913D01*
Y0376339D01*
Y0377388D02*
X0292913Y0378438D01*
Y0381586D02*
Y0379487D01*
X0290814Y0381586D01*
X0290290D01*
X0289765Y0381062D01*
Y0380012D01*
X0290290Y0379487D01*
X0292913Y0384735D02*
Y0382636D01*
X0290814Y0384735D01*
X0290290D01*
X0289765Y0384210D01*
Y0383161D01*
X0290290Y0382636D01*
X0288740Y0377638D02*
X0285592D01*
Y0379212D01*
X0286116Y0379737D01*
X0287166D01*
X0287691Y0379212D01*
Y0377638D01*
Y0378687D02*
X0288740Y0379737D01*
Y0382886D02*
Y0380786D01*
X0286641Y0382886D01*
X0286116D01*
X0285592Y0382361D01*
Y0381311D01*
X0286116Y0380786D01*
X0288740Y0383935D02*
Y0384985D01*
Y0384460D01*
X0285592D01*
X0286116Y0383935D01*
X0298937Y0394213D02*
X0295788D01*
Y0395787D01*
X0296313Y0396312D01*
X0297363D01*
X0297887Y0395787D01*
Y0394213D01*
Y0395262D02*
X0298937Y0396312D01*
Y0399460D02*
Y0397361D01*
X0296838Y0399460D01*
X0296313D01*
X0295788Y0398936D01*
Y0397886D01*
X0296313Y0397361D01*
Y0400510D02*
X0295788Y0401035D01*
Y0402084D01*
X0296313Y0402609D01*
X0298412D01*
X0298937Y0402084D01*
Y0401035D01*
X0298412Y0400510D01*
X0296313D01*
X0276693Y0375433D02*
Y0378582D01*
X0278267D01*
X0278792Y0378057D01*
Y0377007D01*
X0278267Y0376483D01*
X0276693D01*
X0277743D02*
X0278792Y0375433D01*
X0279841D02*
X0280891D01*
X0280366D01*
Y0378582D01*
X0279841Y0378057D01*
X0282465Y0375958D02*
X0282990Y0375433D01*
X0284040D01*
X0284564Y0375958D01*
Y0378057D01*
X0284040Y0378582D01*
X0282990D01*
X0282465Y0378057D01*
Y0377532D01*
X0282990Y0377007D01*
X0284564D01*
X0255945Y0373661D02*
Y0376810D01*
X0257519D01*
X0258044Y0376285D01*
Y0375236D01*
X0257519Y0374711D01*
X0255945D01*
X0256994D02*
X0258044Y0373661D01*
X0259093D02*
X0260143D01*
X0259618D01*
Y0376810D01*
X0259093Y0376285D01*
X0261717D02*
X0262242Y0376810D01*
X0263292D01*
X0263816Y0376285D01*
Y0375761D01*
X0263292Y0375236D01*
X0263816Y0374711D01*
Y0374186D01*
X0263292Y0373661D01*
X0262242D01*
X0261717Y0374186D01*
Y0374711D01*
X0262242Y0375236D01*
X0261717Y0375761D01*
Y0376285D01*
X0262242Y0375236D02*
X0263292D01*
X0254016Y0408701D02*
X0250867D01*
Y0410275D01*
X0251392Y0410800D01*
X0252442D01*
X0252966Y0410275D01*
Y0408701D01*
Y0409750D02*
X0254016Y0410800D01*
Y0411849D02*
Y0412899D01*
Y0412374D01*
X0250867D01*
X0251392Y0411849D01*
X0254016Y0414473D02*
Y0415523D01*
Y0414998D01*
X0250867D01*
X0251392Y0414473D01*
X0235787Y0391535D02*
X0232639D01*
Y0393110D01*
X0233164Y0393635D01*
X0234213D01*
X0234738Y0393110D01*
Y0391535D01*
Y0392585D02*
X0235787Y0393635D01*
Y0394684D02*
Y0395734D01*
Y0395209D01*
X0232639D01*
X0233164Y0394684D01*
Y0397308D02*
X0232639Y0397833D01*
Y0398882D01*
X0233164Y0399407D01*
X0235263D01*
X0235787Y0398882D01*
Y0397833D01*
X0235263Y0397308D01*
X0233164D01*
X0227087Y0172716D02*
Y0175865D01*
X0228661D01*
X0229186Y0175340D01*
Y0174291D01*
X0228661Y0173766D01*
X0227087D01*
X0228136D02*
X0229186Y0172716D01*
X0230235Y0173241D02*
X0230760Y0172716D01*
X0231810D01*
X0232334Y0173241D01*
Y0175340D01*
X0231810Y0175865D01*
X0230760D01*
X0230235Y0175340D01*
Y0174816D01*
X0230760Y0174291D01*
X0232334D01*
X0268032Y0392324D02*
Y0395473D01*
X0265932D01*
X0263309D02*
Y0392324D01*
X0264883Y0393898D01*
X0262784D01*
X0259686Y0398622D02*
X0262835D01*
Y0400721D01*
X0260211Y0401771D02*
X0259686Y0402295D01*
Y0403345D01*
X0260211Y0403870D01*
X0260736D01*
X0261260Y0403345D01*
Y0402820D01*
Y0403345D01*
X0261785Y0403870D01*
X0262310D01*
X0262835Y0403345D01*
Y0402295D01*
X0262310Y0401771D01*
X0245630Y0179448D02*
Y0176299D01*
X0247204D01*
X0247729Y0176824D01*
Y0178923D01*
X0247204Y0179448D01*
X0245630D01*
X0250878Y0176299D02*
X0248779D01*
X0250878Y0178398D01*
Y0178923D01*
X0250353Y0179448D01*
X0249303D01*
X0248779Y0178923D01*
X0231587Y0210340D02*
X0231063Y0210865D01*
X0230013D01*
X0229488Y0210340D01*
Y0208241D01*
X0230013Y0207717D01*
X0231063D01*
X0231587Y0208241D01*
X0234211Y0210865D02*
X0233162D01*
X0232637Y0210340D01*
Y0208241D01*
X0233162Y0207717D01*
X0234211D01*
X0234736Y0208241D01*
Y0210340D01*
X0234211Y0210865D01*
X0235785Y0207717D02*
Y0210865D01*
X0237884Y0207717D01*
Y0210865D01*
X0238934Y0207717D02*
X0239984D01*
X0239459D01*
Y0210865D01*
X0238934Y0210340D01*
X0249186Y0395852D02*
X0248661Y0396377D01*
X0247611D01*
X0247087Y0395852D01*
Y0393753D01*
X0247611Y0393228D01*
X0248661D01*
X0249186Y0393753D01*
X0250235Y0395852D02*
X0250760Y0396377D01*
X0251810D01*
X0252334Y0395852D01*
Y0395327D01*
X0251810Y0394803D01*
X0251285D01*
X0251810D01*
X0252334Y0394278D01*
Y0393753D01*
X0251810Y0393228D01*
X0250760D01*
X0250235Y0393753D01*
X0253384Y0395852D02*
X0253909Y0396377D01*
X0254958D01*
X0255483Y0395852D01*
Y0395327D01*
X0254958Y0394803D01*
X0255483Y0394278D01*
Y0393753D01*
X0254958Y0393228D01*
X0253909D01*
X0253384Y0393753D01*
Y0394278D01*
X0253909Y0394803D01*
X0253384Y0395327D01*
Y0395852D01*
X0253909Y0394803D02*
X0254958D01*
X0252808Y0389632D02*
X0252283Y0390157D01*
X0251233D01*
X0250709Y0389632D01*
Y0387533D01*
X0251233Y0387008D01*
X0252283D01*
X0252808Y0387533D01*
X0253857Y0389632D02*
X0254382Y0390157D01*
X0255432D01*
X0255956Y0389632D01*
Y0389107D01*
X0255432Y0388582D01*
X0254907D01*
X0255432D01*
X0255956Y0388057D01*
Y0387533D01*
X0255432Y0387008D01*
X0254382D01*
X0253857Y0387533D01*
X0257006Y0390157D02*
X0259105D01*
Y0389632D01*
X0257006Y0387533D01*
Y0387008D01*
X0246746Y0410642D02*
X0246221Y0410118D01*
Y0409068D01*
X0246746Y0408543D01*
X0248845D01*
X0249370Y0409068D01*
Y0410118D01*
X0248845Y0410642D01*
X0246746Y0411692D02*
X0246221Y0412217D01*
Y0413266D01*
X0246746Y0413791D01*
X0247271D01*
X0247796Y0413266D01*
Y0412742D01*
Y0413266D01*
X0248321Y0413791D01*
X0248845D01*
X0249370Y0413266D01*
Y0412217D01*
X0248845Y0411692D01*
X0246221Y0416940D02*
Y0414841D01*
X0247796D01*
X0247271Y0415890D01*
Y0416415D01*
X0247796Y0416940D01*
X0248845D01*
X0249370Y0416415D01*
Y0415365D01*
X0248845Y0414841D01*
X0283949Y0404553D02*
X0283425Y0405078D01*
X0282375D01*
X0281850Y0404553D01*
Y0402454D01*
X0282375Y0401929D01*
X0283425D01*
X0283949Y0402454D01*
X0284999Y0401929D02*
X0286049D01*
X0285524D01*
Y0405078D01*
X0284999Y0404553D01*
X0289722Y0405078D02*
X0288672Y0404553D01*
X0287623Y0403504D01*
Y0402454D01*
X0288148Y0401929D01*
X0289197D01*
X0289722Y0402454D01*
Y0402979D01*
X0289197Y0403504D01*
X0287623D01*
X0269619Y0372033D02*
X0269094Y0372558D01*
X0268044D01*
X0267520Y0372033D01*
Y0369934D01*
X0268044Y0369409D01*
X0269094D01*
X0269619Y0369934D01*
X0270668Y0369409D02*
X0271718D01*
X0271193D01*
Y0372558D01*
X0270668Y0372033D01*
X0275391Y0372558D02*
X0273292D01*
Y0370984D01*
X0274342Y0371509D01*
X0274866D01*
X0275391Y0370984D01*
Y0369934D01*
X0274866Y0369409D01*
X0273817D01*
X0273292Y0369934D01*
X0243320Y0309120D02*
X0242795Y0309645D01*
X0241745D01*
X0241220Y0309120D01*
Y0307021D01*
X0241745Y0306496D01*
X0242795D01*
X0243320Y0307021D01*
X0244369Y0306496D02*
X0245419D01*
X0244894D01*
Y0309645D01*
X0244369Y0309120D01*
X0248567Y0306496D02*
Y0309645D01*
X0246993Y0308070D01*
X0249092D01*
X0243201Y0304592D02*
X0242677Y0305117D01*
X0241627D01*
X0241102Y0304592D01*
Y0302493D01*
X0241627Y0301969D01*
X0242677D01*
X0243201Y0302493D01*
X0244251Y0301969D02*
X0245301D01*
X0244776D01*
Y0305117D01*
X0244251Y0304592D01*
X0246875D02*
X0247400Y0305117D01*
X0248449D01*
X0248974Y0304592D01*
Y0304068D01*
X0248449Y0303543D01*
X0247924D01*
X0248449D01*
X0248974Y0303018D01*
Y0302493D01*
X0248449Y0301969D01*
X0247400D01*
X0246875Y0302493D01*
X0263438Y0303490D02*
X0262913Y0304015D01*
X0261863D01*
X0261339Y0303490D01*
Y0301391D01*
X0261863Y0300866D01*
X0262913D01*
X0263438Y0301391D01*
X0264487Y0300866D02*
X0265537D01*
X0265012D01*
Y0304015D01*
X0264487Y0303490D01*
X0269210Y0300866D02*
X0267111D01*
X0269210Y0302965D01*
Y0303490D01*
X0268685Y0304015D01*
X0267636D01*
X0267111Y0303490D01*
X0258162Y0380340D02*
X0257637Y0380865D01*
X0256588D01*
X0256063Y0380340D01*
Y0378241D01*
X0256588Y0377717D01*
X0257637D01*
X0258162Y0378241D01*
X0259212Y0377717D02*
X0260261D01*
X0259736D01*
Y0380865D01*
X0259212Y0380340D01*
X0261835Y0377717D02*
X0262885D01*
X0262360D01*
Y0380865D01*
X0261835Y0380340D01*
X0296548Y0409317D02*
X0296023Y0409842D01*
X0294974D01*
X0294449Y0409317D01*
Y0407218D01*
X0294974Y0406693D01*
X0296023D01*
X0296548Y0407218D01*
X0297597D02*
X0298122Y0406693D01*
X0299172D01*
X0299696Y0407218D01*
Y0409317D01*
X0299172Y0409842D01*
X0298122D01*
X0297597Y0409317D01*
Y0408792D01*
X0298122Y0408267D01*
X0299696D01*
X0296548Y0414081D02*
X0296023Y0414605D01*
X0294974D01*
X0294449Y0414081D01*
Y0411981D01*
X0294974Y0411457D01*
X0296023D01*
X0296548Y0411981D01*
X0297597Y0414081D02*
X0298122Y0414605D01*
X0299172D01*
X0299696Y0414081D01*
Y0413556D01*
X0299172Y0413031D01*
X0299696Y0412506D01*
Y0411981D01*
X0299172Y0411457D01*
X0298122D01*
X0297597Y0411981D01*
Y0412506D01*
X0298122Y0413031D01*
X0297597Y0413556D01*
Y0414081D01*
X0298122Y0413031D02*
X0299172D01*
X0265132Y0400209D02*
X0264607Y0399685D01*
Y0398635D01*
X0265132Y0398110D01*
X0267231D01*
X0267756Y0398635D01*
Y0399685D01*
X0267231Y0400209D01*
X0264607Y0401259D02*
Y0403358D01*
X0265132D01*
X0267231Y0401259D01*
X0267756D01*
X0256575Y0439646D02*
X0254476D01*
X0253426Y0440695D01*
X0254476Y0441745D01*
X0256575D01*
X0255000D01*
Y0439646D01*
X0256575Y0444893D02*
Y0442794D01*
X0254476Y0444893D01*
X0253951D01*
X0253426Y0444369D01*
Y0443319D01*
X0253951Y0442794D01*
X0346473Y0201011D02*
X0346473Y0201208D01*
X0346473Y0197271D02*
X0346473Y0197468D01*
X0357497Y0201011D02*
X0357497Y0201208D01*
X0357497Y0197271D02*
X0357497Y0197468D01*
X0357497Y0193531D02*
X0357497Y0193728D01*
X0357497Y0204751D02*
X0357497Y0204948D01*
X0346473Y0204751D02*
X0346473Y0204948D01*
X0346473Y0193531D02*
X0346473Y0193728D01*
X0346473Y0204949D02*
X0357496D01*
X0346473Y0193531D02*
X0357496D01*
X0344040Y0152610D02*
Y0154709D01*
Y0153659D01*
X0347189D01*
Y0155758D02*
X0345090D01*
X0344040Y0156808D01*
X0345090Y0157857D01*
X0347189D01*
X0345615D01*
Y0155758D01*
X0344040Y0158907D02*
X0347189D01*
Y0160481D01*
X0346664Y0161006D01*
X0346139D01*
X0345615Y0160481D01*
Y0158907D01*
Y0160481D01*
X0345090Y0161006D01*
X0344565D01*
X0344040Y0160481D01*
Y0158907D01*
X0344565Y0162056D02*
X0344040Y0162580D01*
Y0163630D01*
X0344565Y0164155D01*
X0345090D01*
X0345615Y0163630D01*
Y0163105D01*
Y0163630D01*
X0346139Y0164155D01*
X0346664D01*
X0347189Y0163630D01*
Y0162580D01*
X0346664Y0162056D01*
X0349409Y0153594D02*
Y0155693D01*
Y0154644D01*
X0352558D01*
Y0156743D02*
X0350459D01*
X0349409Y0157792D01*
X0350459Y0158842D01*
X0352558D01*
X0350983D01*
Y0156743D01*
X0349409Y0159891D02*
X0352558D01*
Y0161466D01*
X0352033Y0161990D01*
X0351508D01*
X0350983Y0161466D01*
Y0159891D01*
Y0161466D01*
X0350459Y0161990D01*
X0349934D01*
X0349409Y0161466D01*
Y0159891D01*
X0352558Y0163040D02*
Y0164089D01*
Y0163565D01*
X0349409D01*
X0349934Y0163040D01*
X0340670Y0202716D02*
X0343294D01*
X0343819Y0203241D01*
Y0204291D01*
X0343294Y0204816D01*
X0340670D01*
X0343819Y0205865D02*
Y0206915D01*
Y0206390D01*
X0340670D01*
X0341195Y0205865D01*
Y0208489D02*
X0340670Y0209014D01*
Y0210063D01*
X0341195Y0210588D01*
X0341720D01*
X0342245Y0210063D01*
Y0209539D01*
Y0210063D01*
X0342770Y0210588D01*
X0343294D01*
X0343819Y0210063D01*
Y0209014D01*
X0343294Y0208489D01*
X0337520Y0216850D02*
Y0219999D01*
X0339094D01*
X0339619Y0219474D01*
Y0218425D01*
X0339094Y0217900D01*
X0337520D01*
X0338569D02*
X0339619Y0216850D01*
X0340668Y0219474D02*
X0341193Y0219999D01*
X0342243D01*
X0342767Y0219474D01*
Y0218949D01*
X0342243Y0218425D01*
X0341718D01*
X0342243D01*
X0342767Y0217900D01*
Y0217375D01*
X0342243Y0216850D01*
X0341193D01*
X0340668Y0217375D01*
X0345391Y0216850D02*
Y0219999D01*
X0343817Y0218425D01*
X0345916D01*
X0356142Y0212520D02*
Y0215668D01*
X0357716D01*
X0358241Y0215143D01*
Y0214094D01*
X0357716Y0213569D01*
X0356142D01*
X0357191D02*
X0358241Y0212520D01*
X0359290Y0215143D02*
X0359815Y0215668D01*
X0360865D01*
X0361389Y0215143D01*
Y0214619D01*
X0360865Y0214094D01*
X0360340D01*
X0360865D01*
X0361389Y0213569D01*
Y0213045D01*
X0360865Y0212520D01*
X0359815D01*
X0359290Y0213045D01*
X0362439Y0215143D02*
X0362964Y0215668D01*
X0364013D01*
X0364538Y0215143D01*
Y0214619D01*
X0364013Y0214094D01*
X0363489D01*
X0364013D01*
X0364538Y0213569D01*
Y0213045D01*
X0364013Y0212520D01*
X0362964D01*
X0362439Y0213045D01*
X0338347Y0193976D02*
X0335198D01*
Y0195551D01*
X0335723Y0196075D01*
X0336772D01*
X0337297Y0195551D01*
Y0193976D01*
Y0195026D02*
X0338347Y0196075D01*
Y0199224D02*
Y0197125D01*
X0336247Y0199224D01*
X0335723D01*
X0335198Y0198699D01*
Y0197650D01*
X0335723Y0197125D01*
X0337822Y0200274D02*
X0338347Y0200798D01*
Y0201848D01*
X0337822Y0202373D01*
X0335723D01*
X0335198Y0201848D01*
Y0200798D01*
X0335723Y0200274D01*
X0336247D01*
X0336772Y0200798D01*
Y0202373D01*
X0383741Y0218831D02*
Y0216732D01*
X0385315D01*
Y0217782D01*
Y0216732D01*
X0386890D01*
Y0219881D02*
Y0220930D01*
Y0220406D01*
X0383741D01*
X0384266Y0219881D01*
X0357756Y0210471D02*
Y0207323D01*
X0359330D01*
X0359855Y0207848D01*
Y0209947D01*
X0359330Y0210471D01*
X0357756D01*
X0362479Y0207323D02*
Y0210471D01*
X0360905Y0208897D01*
X0363004D01*
X0385355Y0191890D02*
X0388504D01*
Y0193464D01*
X0387979Y0193989D01*
X0385880D01*
X0385355Y0193464D01*
Y0191890D01*
X0385880Y0195038D02*
X0385355Y0195563D01*
Y0196613D01*
X0385880Y0197137D01*
X0386405D01*
X0386930Y0196613D01*
Y0196088D01*
Y0196613D01*
X0387455Y0197137D01*
X0387979D01*
X0388504Y0196613D01*
Y0195563D01*
X0387979Y0195038D01*
X0339737Y0214671D02*
X0339212Y0215196D01*
X0338163D01*
X0337638Y0214671D01*
Y0212572D01*
X0338163Y0212047D01*
X0339212D01*
X0339737Y0212572D01*
X0342361Y0212047D02*
Y0215196D01*
X0340787Y0213621D01*
X0342885D01*
X0345509Y0212047D02*
Y0215196D01*
X0343935Y0213621D01*
X0346034D01*
X0360487Y0186430D02*
X0359962Y0185905D01*
Y0184855D01*
X0360487Y0184331D01*
X0362586D01*
X0363110Y0184855D01*
Y0185905D01*
X0362586Y0186430D01*
X0363110Y0189054D02*
X0359962D01*
X0361536Y0187479D01*
Y0189578D01*
X0360487Y0190628D02*
X0359962Y0191153D01*
Y0192202D01*
X0360487Y0192727D01*
X0362586D01*
X0363110Y0192202D01*
Y0191153D01*
X0362586Y0190628D01*
X0360487D01*
X0321850Y0368464D02*
Y0365840D01*
X0322375Y0365315D01*
X0323425D01*
X0323950Y0365840D01*
Y0368464D01*
X0326573Y0365315D02*
Y0368464D01*
X0324999Y0366889D01*
X0327098D01*
X0312795Y0296772D02*
Y0298871D01*
X0313845Y0299920D01*
X0314894Y0298871D01*
Y0296772D01*
Y0298346D01*
X0312795D01*
X0315944Y0296772D02*
X0316993D01*
X0316469D01*
Y0299920D01*
X0315944Y0299395D01*
X0316615Y0377402D02*
X0319239D01*
X0319764Y0377926D01*
Y0378976D01*
X0319239Y0379501D01*
X0316615D01*
X0319764Y0380550D02*
Y0381600D01*
Y0381075D01*
X0316615D01*
X0317140Y0380550D01*
X0319764Y0383174D02*
Y0384224D01*
Y0383699D01*
X0316615D01*
X0317140Y0383174D01*
X0320669Y0413070D02*
Y0410446D01*
X0321194Y0409921D01*
X0322244D01*
X0322768Y0410446D01*
Y0413070D01*
X0323818Y0409921D02*
X0324867D01*
X0324343D01*
Y0413070D01*
X0323818Y0412545D01*
X0326442D02*
X0326967Y0413070D01*
X0328016D01*
X0328541Y0412545D01*
Y0410446D01*
X0328016Y0409921D01*
X0326967D01*
X0326442Y0410446D01*
Y0412545D01*
X0378072Y0386772D02*
X0380696D01*
X0381221Y0387297D01*
Y0388346D01*
X0380696Y0388871D01*
X0378072D01*
Y0392019D02*
X0378597Y0390970D01*
X0379646Y0389920D01*
X0380696D01*
X0381221Y0390445D01*
Y0391495D01*
X0380696Y0392019D01*
X0380171D01*
X0379646Y0391495D01*
Y0389920D01*
X0349765Y0384724D02*
X0352389D01*
X0352913Y0385249D01*
Y0386299D01*
X0352389Y0386824D01*
X0349765D01*
Y0389972D02*
Y0387873D01*
X0351339D01*
X0350814Y0388923D01*
Y0389447D01*
X0351339Y0389972D01*
X0352389D01*
X0352913Y0389447D01*
Y0388398D01*
X0352389Y0387873D01*
X0349489Y0405787D02*
X0352113D01*
X0352638Y0406312D01*
Y0407362D01*
X0352113Y0407887D01*
X0349489D01*
X0350014Y0408936D02*
X0349489Y0409461D01*
Y0410510D01*
X0350014Y0411035D01*
X0350539D01*
X0351063Y0410510D01*
Y0409986D01*
Y0410510D01*
X0351588Y0411035D01*
X0352113D01*
X0352638Y0410510D01*
Y0409461D01*
X0352113Y0408936D01*
X0373543Y0405550D02*
X0375642D01*
X0374593D01*
Y0402402D01*
X0376692Y0405025D02*
X0377217Y0405550D01*
X0378266D01*
X0378791Y0405025D01*
Y0404501D01*
X0378266Y0403976D01*
X0377741D01*
X0378266D01*
X0378791Y0403451D01*
Y0402926D01*
X0378266Y0402402D01*
X0377217D01*
X0376692Y0402926D01*
X0376378Y0376339D02*
X0373229D01*
Y0377913D01*
X0373754Y0378438D01*
X0374804D01*
X0375328Y0377913D01*
Y0376339D01*
Y0377388D02*
X0376378Y0378438D01*
Y0381586D02*
Y0379487D01*
X0374279Y0381586D01*
X0373754D01*
X0373229Y0381062D01*
Y0380012D01*
X0373754Y0379487D01*
X0376378Y0384735D02*
Y0382636D01*
X0374279Y0384735D01*
X0373754D01*
X0373229Y0384210D01*
Y0383161D01*
X0373754Y0382636D01*
X0372205Y0377638D02*
X0369056D01*
Y0379212D01*
X0369581Y0379737D01*
X0370630D01*
X0371155Y0379212D01*
Y0377638D01*
Y0378687D02*
X0372205Y0379737D01*
Y0382886D02*
Y0380786D01*
X0370106Y0382886D01*
X0369581D01*
X0369056Y0382361D01*
Y0381311D01*
X0369581Y0380786D01*
X0372205Y0383935D02*
Y0384985D01*
Y0384460D01*
X0369056D01*
X0369581Y0383935D01*
X0382402Y0394213D02*
X0379253D01*
Y0395787D01*
X0379778Y0396312D01*
X0380827D01*
X0381352Y0395787D01*
Y0394213D01*
Y0395262D02*
X0382402Y0396312D01*
Y0399460D02*
Y0397361D01*
X0380303Y0399460D01*
X0379778D01*
X0379253Y0398936D01*
Y0397886D01*
X0379778Y0397361D01*
Y0400510D02*
X0379253Y0401035D01*
Y0402084D01*
X0379778Y0402609D01*
X0381877D01*
X0382402Y0402084D01*
Y0401035D01*
X0381877Y0400510D01*
X0379778D01*
X0360157Y0375433D02*
Y0378582D01*
X0361732D01*
X0362257Y0378057D01*
Y0377007D01*
X0361732Y0376483D01*
X0360157D01*
X0361207D02*
X0362257Y0375433D01*
X0363306D02*
X0364356D01*
X0363831D01*
Y0378582D01*
X0363306Y0378057D01*
X0365930Y0375958D02*
X0366455Y0375433D01*
X0367504D01*
X0368029Y0375958D01*
Y0378057D01*
X0367504Y0378582D01*
X0366455D01*
X0365930Y0378057D01*
Y0377532D01*
X0366455Y0377007D01*
X0368029D01*
X0339409Y0373661D02*
Y0376810D01*
X0340984D01*
X0341509Y0376285D01*
Y0375236D01*
X0340984Y0374711D01*
X0339409D01*
X0340459D02*
X0341509Y0373661D01*
X0342558D02*
X0343608D01*
X0343083D01*
Y0376810D01*
X0342558Y0376285D01*
X0345182D02*
X0345707Y0376810D01*
X0346756D01*
X0347281Y0376285D01*
Y0375761D01*
X0346756Y0375236D01*
X0347281Y0374711D01*
Y0374186D01*
X0346756Y0373661D01*
X0345707D01*
X0345182Y0374186D01*
Y0374711D01*
X0345707Y0375236D01*
X0345182Y0375761D01*
Y0376285D01*
X0345707Y0375236D02*
X0346756D01*
X0337480Y0408701D02*
X0334332D01*
Y0410275D01*
X0334857Y0410800D01*
X0335906D01*
X0336431Y0410275D01*
Y0408701D01*
Y0409750D02*
X0337480Y0410800D01*
Y0411849D02*
Y0412899D01*
Y0412374D01*
X0334332D01*
X0334857Y0411849D01*
X0337480Y0414473D02*
Y0415523D01*
Y0414998D01*
X0334332D01*
X0334857Y0414473D01*
X0319252Y0391535D02*
X0316103D01*
Y0393110D01*
X0316628Y0393635D01*
X0317678D01*
X0318202Y0393110D01*
Y0391535D01*
Y0392585D02*
X0319252Y0393635D01*
Y0394684D02*
Y0395734D01*
Y0395209D01*
X0316103D01*
X0316628Y0394684D01*
Y0397308D02*
X0316103Y0397833D01*
Y0398882D01*
X0316628Y0399407D01*
X0318727D01*
X0319252Y0398882D01*
Y0397833D01*
X0318727Y0397308D01*
X0316628D01*
X0310551Y0172716D02*
Y0175865D01*
X0312126D01*
X0312650Y0175340D01*
Y0174291D01*
X0312126Y0173766D01*
X0310551D01*
X0311601D02*
X0312650Y0172716D01*
X0313700Y0173241D02*
X0314225Y0172716D01*
X0315274D01*
X0315799Y0173241D01*
Y0175340D01*
X0315274Y0175865D01*
X0314225D01*
X0313700Y0175340D01*
Y0174816D01*
X0314225Y0174291D01*
X0315799D01*
X0351496Y0392324D02*
Y0395473D01*
X0349397D01*
X0346773D02*
Y0392324D01*
X0348347Y0393898D01*
X0346248D01*
X0343151Y0398622D02*
X0346299D01*
Y0400721D01*
X0343675Y0401771D02*
X0343151Y0402295D01*
Y0403345D01*
X0343675Y0403870D01*
X0344200D01*
X0344725Y0403345D01*
Y0402820D01*
Y0403345D01*
X0345250Y0403870D01*
X0345775D01*
X0346299Y0403345D01*
Y0402295D01*
X0345775Y0401771D01*
X0329095Y0179448D02*
Y0176299D01*
X0330669D01*
X0331194Y0176824D01*
Y0178923D01*
X0330669Y0179448D01*
X0329095D01*
X0334342Y0176299D02*
X0332243D01*
X0334342Y0178398D01*
Y0178923D01*
X0333818Y0179448D01*
X0332768D01*
X0332243Y0178923D01*
X0315052Y0210340D02*
X0314527Y0210865D01*
X0313477D01*
X0312953Y0210340D01*
Y0208241D01*
X0313477Y0207717D01*
X0314527D01*
X0315052Y0208241D01*
X0317676Y0210865D02*
X0316626D01*
X0316101Y0210340D01*
Y0208241D01*
X0316626Y0207717D01*
X0317676D01*
X0318200Y0208241D01*
Y0210340D01*
X0317676Y0210865D01*
X0319250Y0207717D02*
Y0210865D01*
X0321349Y0207717D01*
Y0210865D01*
X0322398Y0207717D02*
X0323448D01*
X0322923D01*
Y0210865D01*
X0322398Y0210340D01*
X0332650Y0395852D02*
X0332125Y0396377D01*
X0331076D01*
X0330551Y0395852D01*
Y0393753D01*
X0331076Y0393228D01*
X0332125D01*
X0332650Y0393753D01*
X0333700Y0395852D02*
X0334225Y0396377D01*
X0335274D01*
X0335799Y0395852D01*
Y0395327D01*
X0335274Y0394803D01*
X0334749D01*
X0335274D01*
X0335799Y0394278D01*
Y0393753D01*
X0335274Y0393228D01*
X0334225D01*
X0333700Y0393753D01*
X0336848Y0395852D02*
X0337373Y0396377D01*
X0338423D01*
X0338947Y0395852D01*
Y0395327D01*
X0338423Y0394803D01*
X0338947Y0394278D01*
Y0393753D01*
X0338423Y0393228D01*
X0337373D01*
X0336848Y0393753D01*
Y0394278D01*
X0337373Y0394803D01*
X0336848Y0395327D01*
Y0395852D01*
X0337373Y0394803D02*
X0338423D01*
X0336272Y0389632D02*
X0335748Y0390157D01*
X0334698D01*
X0334173Y0389632D01*
Y0387533D01*
X0334698Y0387008D01*
X0335748D01*
X0336272Y0387533D01*
X0337322Y0389632D02*
X0337847Y0390157D01*
X0338896D01*
X0339421Y0389632D01*
Y0389107D01*
X0338896Y0388582D01*
X0338371D01*
X0338896D01*
X0339421Y0388057D01*
Y0387533D01*
X0338896Y0387008D01*
X0337847D01*
X0337322Y0387533D01*
X0340470Y0390157D02*
X0342569D01*
Y0389632D01*
X0340470Y0387533D01*
Y0387008D01*
X0330211Y0410642D02*
X0329686Y0410118D01*
Y0409068D01*
X0330211Y0408543D01*
X0332310D01*
X0332835Y0409068D01*
Y0410118D01*
X0332310Y0410642D01*
X0330211Y0411692D02*
X0329686Y0412217D01*
Y0413266D01*
X0330211Y0413791D01*
X0330736D01*
X0331260Y0413266D01*
Y0412742D01*
Y0413266D01*
X0331785Y0413791D01*
X0332310D01*
X0332835Y0413266D01*
Y0412217D01*
X0332310Y0411692D01*
X0329686Y0416940D02*
Y0414841D01*
X0331260D01*
X0330736Y0415890D01*
Y0416415D01*
X0331260Y0416940D01*
X0332310D01*
X0332835Y0416415D01*
Y0415365D01*
X0332310Y0414841D01*
X0367414Y0404553D02*
X0366889Y0405078D01*
X0365840D01*
X0365315Y0404553D01*
Y0402454D01*
X0365840Y0401929D01*
X0366889D01*
X0367414Y0402454D01*
X0368464Y0401929D02*
X0369513D01*
X0368988D01*
Y0405078D01*
X0368464Y0404553D01*
X0373186Y0405078D02*
X0372137Y0404553D01*
X0371087Y0403504D01*
Y0402454D01*
X0371612Y0401929D01*
X0372662D01*
X0373186Y0402454D01*
Y0402979D01*
X0372662Y0403504D01*
X0371087D01*
X0353083Y0372033D02*
X0352559Y0372558D01*
X0351509D01*
X0350984Y0372033D01*
Y0369934D01*
X0351509Y0369409D01*
X0352559D01*
X0353083Y0369934D01*
X0354133Y0369409D02*
X0355182D01*
X0354658D01*
Y0372558D01*
X0354133Y0372033D01*
X0358856Y0372558D02*
X0356757D01*
Y0370984D01*
X0357806Y0371509D01*
X0358331D01*
X0358856Y0370984D01*
Y0369934D01*
X0358331Y0369409D01*
X0357281D01*
X0356757Y0369934D01*
X0326784Y0309120D02*
X0326259Y0309645D01*
X0325210D01*
X0324685Y0309120D01*
Y0307021D01*
X0325210Y0306496D01*
X0326259D01*
X0326784Y0307021D01*
X0327834Y0306496D02*
X0328883D01*
X0328358D01*
Y0309645D01*
X0327834Y0309120D01*
X0332032Y0306496D02*
Y0309645D01*
X0330457Y0308070D01*
X0332557D01*
X0326666Y0304592D02*
X0326141Y0305117D01*
X0325092D01*
X0324567Y0304592D01*
Y0302493D01*
X0325092Y0301969D01*
X0326141D01*
X0326666Y0302493D01*
X0327715Y0301969D02*
X0328765D01*
X0328240D01*
Y0305117D01*
X0327715Y0304592D01*
X0330339D02*
X0330864Y0305117D01*
X0331914D01*
X0332438Y0304592D01*
Y0304068D01*
X0331914Y0303543D01*
X0331389D01*
X0331914D01*
X0332438Y0303018D01*
Y0302493D01*
X0331914Y0301969D01*
X0330864D01*
X0330339Y0302493D01*
X0346902Y0303490D02*
X0346377Y0304015D01*
X0345328D01*
X0344803Y0303490D01*
Y0301391D01*
X0345328Y0300866D01*
X0346377D01*
X0346902Y0301391D01*
X0347952Y0300866D02*
X0349001D01*
X0348477D01*
Y0304015D01*
X0347952Y0303490D01*
X0352675Y0300866D02*
X0350576D01*
X0352675Y0302965D01*
Y0303490D01*
X0352150Y0304015D01*
X0351100D01*
X0350576Y0303490D01*
X0341627Y0380340D02*
X0341102Y0380865D01*
X0340052D01*
X0339528Y0380340D01*
Y0378241D01*
X0340052Y0377717D01*
X0341102D01*
X0341627Y0378241D01*
X0342676Y0377717D02*
X0343726D01*
X0343201D01*
Y0380865D01*
X0342676Y0380340D01*
X0345300Y0377717D02*
X0346350D01*
X0345825D01*
Y0380865D01*
X0345300Y0380340D01*
X0380012Y0409317D02*
X0379488Y0409842D01*
X0378438D01*
X0377913Y0409317D01*
Y0407218D01*
X0378438Y0406693D01*
X0379488D01*
X0380012Y0407218D01*
X0381062D02*
X0381587Y0406693D01*
X0382636D01*
X0383161Y0407218D01*
Y0409317D01*
X0382636Y0409842D01*
X0381587D01*
X0381062Y0409317D01*
Y0408792D01*
X0381587Y0408267D01*
X0383161D01*
X0380012Y0414081D02*
X0379488Y0414605D01*
X0378438D01*
X0377913Y0414081D01*
Y0411981D01*
X0378438Y0411457D01*
X0379488D01*
X0380012Y0411981D01*
X0381062Y0414081D02*
X0381587Y0414605D01*
X0382636D01*
X0383161Y0414081D01*
Y0413556D01*
X0382636Y0413031D01*
X0383161Y0412506D01*
Y0411981D01*
X0382636Y0411457D01*
X0381587D01*
X0381062Y0411981D01*
Y0412506D01*
X0381587Y0413031D01*
X0381062Y0413556D01*
Y0414081D01*
X0381587Y0413031D02*
X0382636D01*
X0348597Y0400209D02*
X0348072Y0399685D01*
Y0398635D01*
X0348597Y0398110D01*
X0350696D01*
X0351220Y0398635D01*
Y0399685D01*
X0350696Y0400209D01*
X0348072Y0401259D02*
Y0403358D01*
X0348597D01*
X0350696Y0401259D01*
X0351220D01*
X0340039Y0439646D02*
X0337940D01*
X0336891Y0440695D01*
X0337940Y0441745D01*
X0340039D01*
X0338465D01*
Y0439646D01*
X0340039Y0444893D02*
Y0442794D01*
X0337940Y0444893D01*
X0337416D01*
X0336891Y0444369D01*
Y0443319D01*
X0337416Y0442794D01*
X0429938Y0201011D02*
X0429938Y0201208D01*
X0429938Y0197271D02*
X0429938Y0197468D01*
X0440961Y0201011D02*
X0440962Y0201208D01*
X0440961Y0197271D02*
X0440962Y0197468D01*
X0440961Y0193531D02*
X0440962Y0193728D01*
X0440961Y0204751D02*
X0440962Y0204948D01*
X0429938Y0204751D02*
X0429938Y0204948D01*
X0429938Y0193531D02*
X0429938Y0193728D01*
X0429938Y0204949D02*
X0440961D01*
X0429938Y0193531D02*
X0440961D01*
X0427505Y0152610D02*
Y0154709D01*
Y0153659D01*
X0430653D01*
Y0155758D02*
X0428554D01*
X0427505Y0156808D01*
X0428554Y0157857D01*
X0430653D01*
X0429079D01*
Y0155758D01*
X0427505Y0158907D02*
X0430653D01*
Y0160481D01*
X0430129Y0161006D01*
X0429604D01*
X0429079Y0160481D01*
Y0158907D01*
Y0160481D01*
X0428554Y0161006D01*
X0428030D01*
X0427505Y0160481D01*
Y0158907D01*
X0428030Y0162056D02*
X0427505Y0162580D01*
Y0163630D01*
X0428030Y0164155D01*
X0428554D01*
X0429079Y0163630D01*
Y0163105D01*
Y0163630D01*
X0429604Y0164155D01*
X0430129D01*
X0430653Y0163630D01*
Y0162580D01*
X0430129Y0162056D01*
X0432874Y0153594D02*
Y0155693D01*
Y0154644D01*
X0436022D01*
Y0156743D02*
X0433923D01*
X0432874Y0157792D01*
X0433923Y0158842D01*
X0436022D01*
X0434448D01*
Y0156743D01*
X0432874Y0159891D02*
X0436022D01*
Y0161466D01*
X0435498Y0161990D01*
X0434973D01*
X0434448Y0161466D01*
Y0159891D01*
Y0161466D01*
X0433923Y0161990D01*
X0433398D01*
X0432874Y0161466D01*
Y0159891D01*
X0436022Y0163040D02*
Y0164089D01*
Y0163565D01*
X0432874D01*
X0433398Y0163040D01*
X0424135Y0202716D02*
X0426759D01*
X0427284Y0203241D01*
Y0204291D01*
X0426759Y0204816D01*
X0424135D01*
X0427284Y0205865D02*
Y0206915D01*
Y0206390D01*
X0424135D01*
X0424660Y0205865D01*
Y0208489D02*
X0424135Y0209014D01*
Y0210063D01*
X0424660Y0210588D01*
X0425184D01*
X0425709Y0210063D01*
Y0209539D01*
Y0210063D01*
X0426234Y0210588D01*
X0426759D01*
X0427284Y0210063D01*
Y0209014D01*
X0426759Y0208489D01*
X0420984Y0216850D02*
Y0219999D01*
X0422559D01*
X0423083Y0219474D01*
Y0218425D01*
X0422559Y0217900D01*
X0420984D01*
X0422034D02*
X0423083Y0216850D01*
X0424133Y0219474D02*
X0424658Y0219999D01*
X0425707D01*
X0426232Y0219474D01*
Y0218949D01*
X0425707Y0218425D01*
X0425182D01*
X0425707D01*
X0426232Y0217900D01*
Y0217375D01*
X0425707Y0216850D01*
X0424658D01*
X0424133Y0217375D01*
X0428856Y0216850D02*
Y0219999D01*
X0427282Y0218425D01*
X0429381D01*
X0439606Y0212520D02*
Y0215668D01*
X0441181D01*
X0441706Y0215143D01*
Y0214094D01*
X0441181Y0213569D01*
X0439606D01*
X0440656D02*
X0441706Y0212520D01*
X0442755Y0215143D02*
X0443280Y0215668D01*
X0444329D01*
X0444854Y0215143D01*
Y0214619D01*
X0444329Y0214094D01*
X0443805D01*
X0444329D01*
X0444854Y0213569D01*
Y0213045D01*
X0444329Y0212520D01*
X0443280D01*
X0442755Y0213045D01*
X0445904Y0215143D02*
X0446428Y0215668D01*
X0447478D01*
X0448003Y0215143D01*
Y0214619D01*
X0447478Y0214094D01*
X0446953D01*
X0447478D01*
X0448003Y0213569D01*
Y0213045D01*
X0447478Y0212520D01*
X0446428D01*
X0445904Y0213045D01*
X0421811Y0193976D02*
X0418663D01*
Y0195551D01*
X0419187Y0196075D01*
X0420237D01*
X0420762Y0195551D01*
Y0193976D01*
Y0195026D02*
X0421811Y0196075D01*
Y0199224D02*
Y0197125D01*
X0419712Y0199224D01*
X0419187D01*
X0418663Y0198699D01*
Y0197650D01*
X0419187Y0197125D01*
X0421286Y0200274D02*
X0421811Y0200798D01*
Y0201848D01*
X0421286Y0202373D01*
X0419187D01*
X0418663Y0201848D01*
Y0200798D01*
X0419187Y0200274D01*
X0419712D01*
X0420237Y0200798D01*
Y0202373D01*
X0467206Y0218831D02*
Y0216732D01*
X0468780D01*
Y0217782D01*
Y0216732D01*
X0470354D01*
Y0219881D02*
Y0220930D01*
Y0220406D01*
X0467206D01*
X0467731Y0219881D01*
X0441221Y0210471D02*
Y0207323D01*
X0442795D01*
X0443320Y0207848D01*
Y0209947D01*
X0442795Y0210471D01*
X0441221D01*
X0445943Y0207323D02*
Y0210471D01*
X0444369Y0208897D01*
X0446468D01*
X0468820Y0191890D02*
X0471969D01*
Y0193464D01*
X0471444Y0193989D01*
X0469345D01*
X0468820Y0193464D01*
Y0191890D01*
X0469345Y0195038D02*
X0468820Y0195563D01*
Y0196613D01*
X0469345Y0197137D01*
X0469870D01*
X0470394Y0196613D01*
Y0196088D01*
Y0196613D01*
X0470919Y0197137D01*
X0471444D01*
X0471969Y0196613D01*
Y0195563D01*
X0471444Y0195038D01*
X0423202Y0214671D02*
X0422677Y0215196D01*
X0421627D01*
X0421103Y0214671D01*
Y0212572D01*
X0421627Y0212047D01*
X0422677D01*
X0423202Y0212572D01*
X0425825Y0212047D02*
Y0215196D01*
X0424251Y0213621D01*
X0426350D01*
X0428974Y0212047D02*
Y0215196D01*
X0427400Y0213621D01*
X0429499D01*
X0443951Y0186430D02*
X0443426Y0185905D01*
Y0184855D01*
X0443951Y0184331D01*
X0446050D01*
X0446575Y0184855D01*
Y0185905D01*
X0446050Y0186430D01*
X0446575Y0189054D02*
X0443426D01*
X0445001Y0187479D01*
Y0189578D01*
X0443951Y0190628D02*
X0443426Y0191153D01*
Y0192202D01*
X0443951Y0192727D01*
X0446050D01*
X0446575Y0192202D01*
Y0191153D01*
X0446050Y0190628D01*
X0443951D01*
X0405315Y0368464D02*
Y0365840D01*
X0405840Y0365315D01*
X0406889D01*
X0407414Y0365840D01*
Y0368464D01*
X0410038Y0365315D02*
Y0368464D01*
X0408464Y0366889D01*
X0410563D01*
X0396260Y0296772D02*
Y0298871D01*
X0397309Y0299920D01*
X0398359Y0298871D01*
Y0296772D01*
Y0298346D01*
X0396260D01*
X0399408Y0296772D02*
X0400458D01*
X0399933D01*
Y0299920D01*
X0399408Y0299395D01*
X0400080Y0377402D02*
X0402704D01*
X0403228Y0377926D01*
Y0378976D01*
X0402704Y0379501D01*
X0400080D01*
X0403228Y0380550D02*
Y0381600D01*
Y0381075D01*
X0400080D01*
X0400604Y0380550D01*
X0403228Y0383174D02*
Y0384224D01*
Y0383699D01*
X0400080D01*
X0400604Y0383174D01*
X0404134Y0413070D02*
Y0410446D01*
X0404659Y0409921D01*
X0405708D01*
X0406233Y0410446D01*
Y0413070D01*
X0407282Y0409921D02*
X0408332D01*
X0407807D01*
Y0413070D01*
X0407282Y0412545D01*
X0409906D02*
X0410431Y0413070D01*
X0411481D01*
X0412005Y0412545D01*
Y0410446D01*
X0411481Y0409921D01*
X0410431D01*
X0409906Y0410446D01*
Y0412545D01*
X0461537Y0386772D02*
X0464160D01*
X0464685Y0387297D01*
Y0388346D01*
X0464160Y0388871D01*
X0461537D01*
Y0392019D02*
X0462061Y0390970D01*
X0463111Y0389920D01*
X0464160D01*
X0464685Y0390445D01*
Y0391495D01*
X0464160Y0392019D01*
X0463635D01*
X0463111Y0391495D01*
Y0389920D01*
X0433229Y0384724D02*
X0435853D01*
X0436378Y0385249D01*
Y0386299D01*
X0435853Y0386824D01*
X0433229D01*
Y0389972D02*
Y0387873D01*
X0434804D01*
X0434279Y0388923D01*
Y0389447D01*
X0434804Y0389972D01*
X0435853D01*
X0436378Y0389447D01*
Y0388398D01*
X0435853Y0387873D01*
X0432954Y0405787D02*
X0435578D01*
X0436102Y0406312D01*
Y0407362D01*
X0435578Y0407887D01*
X0432954D01*
X0433478Y0408936D02*
X0432954Y0409461D01*
Y0410510D01*
X0433478Y0411035D01*
X0434003D01*
X0434528Y0410510D01*
Y0409986D01*
Y0410510D01*
X0435053Y0411035D01*
X0435578D01*
X0436102Y0410510D01*
Y0409461D01*
X0435578Y0408936D01*
X0457008Y0405550D02*
X0459107D01*
X0458057D01*
Y0402402D01*
X0460156Y0405025D02*
X0460681Y0405550D01*
X0461731D01*
X0462255Y0405025D01*
Y0404501D01*
X0461731Y0403976D01*
X0461206D01*
X0461731D01*
X0462255Y0403451D01*
Y0402926D01*
X0461731Y0402402D01*
X0460681D01*
X0460156Y0402926D01*
X0459842Y0376339D02*
X0456694D01*
Y0377913D01*
X0457219Y0378438D01*
X0458268D01*
X0458793Y0377913D01*
Y0376339D01*
Y0377388D02*
X0459842Y0378438D01*
Y0381586D02*
Y0379487D01*
X0457744Y0381586D01*
X0457219D01*
X0456694Y0381062D01*
Y0380012D01*
X0457219Y0379487D01*
X0459842Y0384735D02*
Y0382636D01*
X0457744Y0384735D01*
X0457219D01*
X0456694Y0384210D01*
Y0383161D01*
X0457219Y0382636D01*
X0455669Y0377638D02*
X0452521D01*
Y0379212D01*
X0453046Y0379737D01*
X0454095D01*
X0454620Y0379212D01*
Y0377638D01*
Y0378687D02*
X0455669Y0379737D01*
Y0382886D02*
Y0380786D01*
X0453570Y0382886D01*
X0453046D01*
X0452521Y0382361D01*
Y0381311D01*
X0453046Y0380786D01*
X0455669Y0383935D02*
Y0384985D01*
Y0384460D01*
X0452521D01*
X0453046Y0383935D01*
X0465866Y0394213D02*
X0462718D01*
Y0395787D01*
X0463242Y0396312D01*
X0464292D01*
X0464817Y0395787D01*
Y0394213D01*
Y0395262D02*
X0465866Y0396312D01*
Y0399460D02*
Y0397361D01*
X0463767Y0399460D01*
X0463242D01*
X0462718Y0398936D01*
Y0397886D01*
X0463242Y0397361D01*
Y0400510D02*
X0462718Y0401035D01*
Y0402084D01*
X0463242Y0402609D01*
X0465341D01*
X0465866Y0402084D01*
Y0401035D01*
X0465341Y0400510D01*
X0463242D01*
X0443622Y0375433D02*
Y0378582D01*
X0445196D01*
X0445721Y0378057D01*
Y0377007D01*
X0445196Y0376483D01*
X0443622D01*
X0444672D02*
X0445721Y0375433D01*
X0446771D02*
X0447820D01*
X0447295D01*
Y0378582D01*
X0446771Y0378057D01*
X0449395Y0375958D02*
X0449919Y0375433D01*
X0450969D01*
X0451494Y0375958D01*
Y0378057D01*
X0450969Y0378582D01*
X0449919D01*
X0449395Y0378057D01*
Y0377532D01*
X0449919Y0377007D01*
X0451494D01*
X0422874Y0373661D02*
Y0376810D01*
X0424448D01*
X0424973Y0376285D01*
Y0375236D01*
X0424448Y0374711D01*
X0422874D01*
X0423924D02*
X0424973Y0373661D01*
X0426023D02*
X0427072D01*
X0426547D01*
Y0376810D01*
X0426023Y0376285D01*
X0428647D02*
X0429171Y0376810D01*
X0430221D01*
X0430746Y0376285D01*
Y0375761D01*
X0430221Y0375236D01*
X0430746Y0374711D01*
Y0374186D01*
X0430221Y0373661D01*
X0429171D01*
X0428647Y0374186D01*
Y0374711D01*
X0429171Y0375236D01*
X0428647Y0375761D01*
Y0376285D01*
X0429171Y0375236D02*
X0430221D01*
X0420945Y0408701D02*
X0417796D01*
Y0410275D01*
X0418321Y0410800D01*
X0419371D01*
X0419895Y0410275D01*
Y0408701D01*
Y0409750D02*
X0420945Y0410800D01*
Y0411849D02*
Y0412899D01*
Y0412374D01*
X0417796D01*
X0418321Y0411849D01*
X0420945Y0414473D02*
Y0415523D01*
Y0414998D01*
X0417796D01*
X0418321Y0414473D01*
X0402717Y0391535D02*
X0399568D01*
Y0393110D01*
X0400093Y0393635D01*
X0401142D01*
X0401667Y0393110D01*
Y0391535D01*
Y0392585D02*
X0402717Y0393635D01*
Y0394684D02*
Y0395734D01*
Y0395209D01*
X0399568D01*
X0400093Y0394684D01*
Y0397308D02*
X0399568Y0397833D01*
Y0398882D01*
X0400093Y0399407D01*
X0402192D01*
X0402717Y0398882D01*
Y0397833D01*
X0402192Y0397308D01*
X0400093D01*
X0394016Y0172716D02*
Y0175865D01*
X0395590D01*
X0396115Y0175340D01*
Y0174291D01*
X0395590Y0173766D01*
X0394016D01*
X0395065D02*
X0396115Y0172716D01*
X0397164Y0173241D02*
X0397689Y0172716D01*
X0398739D01*
X0399264Y0173241D01*
Y0175340D01*
X0398739Y0175865D01*
X0397689D01*
X0397164Y0175340D01*
Y0174816D01*
X0397689Y0174291D01*
X0399264D01*
X0434961Y0392324D02*
Y0395473D01*
X0432862D01*
X0430238D02*
Y0392324D01*
X0431812Y0393898D01*
X0429713D01*
X0426615Y0398622D02*
X0429764D01*
Y0400721D01*
X0427140Y0401771D02*
X0426615Y0402295D01*
Y0403345D01*
X0427140Y0403870D01*
X0427665D01*
X0428190Y0403345D01*
Y0402820D01*
Y0403345D01*
X0428714Y0403870D01*
X0429239D01*
X0429764Y0403345D01*
Y0402295D01*
X0429239Y0401771D01*
X0412559Y0179448D02*
Y0176299D01*
X0414133D01*
X0414658Y0176824D01*
Y0178923D01*
X0414133Y0179448D01*
X0412559D01*
X0417807Y0176299D02*
X0415708D01*
X0417807Y0178398D01*
Y0178923D01*
X0417282Y0179448D01*
X0416232D01*
X0415708Y0178923D01*
X0398516Y0210340D02*
X0397992Y0210865D01*
X0396942D01*
X0396417Y0210340D01*
Y0208241D01*
X0396942Y0207717D01*
X0397992D01*
X0398516Y0208241D01*
X0401140Y0210865D02*
X0400091D01*
X0399566Y0210340D01*
Y0208241D01*
X0400091Y0207717D01*
X0401140D01*
X0401665Y0208241D01*
Y0210340D01*
X0401140Y0210865D01*
X0402714Y0207717D02*
Y0210865D01*
X0404814Y0207717D01*
Y0210865D01*
X0405863Y0207717D02*
X0406913D01*
X0406388D01*
Y0210865D01*
X0405863Y0210340D01*
X0416115Y0395852D02*
X0415590Y0396377D01*
X0414540D01*
X0414016Y0395852D01*
Y0393753D01*
X0414540Y0393228D01*
X0415590D01*
X0416115Y0393753D01*
X0417164Y0395852D02*
X0417689Y0396377D01*
X0418739D01*
X0419263Y0395852D01*
Y0395327D01*
X0418739Y0394803D01*
X0418214D01*
X0418739D01*
X0419263Y0394278D01*
Y0393753D01*
X0418739Y0393228D01*
X0417689D01*
X0417164Y0393753D01*
X0420313Y0395852D02*
X0420838Y0396377D01*
X0421887D01*
X0422412Y0395852D01*
Y0395327D01*
X0421887Y0394803D01*
X0422412Y0394278D01*
Y0393753D01*
X0421887Y0393228D01*
X0420838D01*
X0420313Y0393753D01*
Y0394278D01*
X0420838Y0394803D01*
X0420313Y0395327D01*
Y0395852D01*
X0420838Y0394803D02*
X0421887D01*
X0419737Y0389632D02*
X0419212Y0390157D01*
X0418163D01*
X0417638Y0389632D01*
Y0387533D01*
X0418163Y0387008D01*
X0419212D01*
X0419737Y0387533D01*
X0420786Y0389632D02*
X0421311Y0390157D01*
X0422361D01*
X0422886Y0389632D01*
Y0389107D01*
X0422361Y0388582D01*
X0421836D01*
X0422361D01*
X0422886Y0388057D01*
Y0387533D01*
X0422361Y0387008D01*
X0421311D01*
X0420786Y0387533D01*
X0423935Y0390157D02*
X0426034D01*
Y0389632D01*
X0423935Y0387533D01*
Y0387008D01*
X0413675Y0410642D02*
X0413151Y0410118D01*
Y0409068D01*
X0413675Y0408543D01*
X0415774D01*
X0416299Y0409068D01*
Y0410118D01*
X0415774Y0410642D01*
X0413675Y0411692D02*
X0413151Y0412217D01*
Y0413266D01*
X0413675Y0413791D01*
X0414200D01*
X0414725Y0413266D01*
Y0412742D01*
Y0413266D01*
X0415250Y0413791D01*
X0415774D01*
X0416299Y0413266D01*
Y0412217D01*
X0415774Y0411692D01*
X0413151Y0416940D02*
Y0414841D01*
X0414725D01*
X0414200Y0415890D01*
Y0416415D01*
X0414725Y0416940D01*
X0415774D01*
X0416299Y0416415D01*
Y0415365D01*
X0415774Y0414841D01*
X0450879Y0404553D02*
X0450354Y0405078D01*
X0449304D01*
X0448780Y0404553D01*
Y0402454D01*
X0449304Y0401929D01*
X0450354D01*
X0450879Y0402454D01*
X0451928Y0401929D02*
X0452978D01*
X0452453D01*
Y0405078D01*
X0451928Y0404553D01*
X0456651Y0405078D02*
X0455602Y0404553D01*
X0454552Y0403504D01*
Y0402454D01*
X0455077Y0401929D01*
X0456126D01*
X0456651Y0402454D01*
Y0402979D01*
X0456126Y0403504D01*
X0454552D01*
X0436548Y0372033D02*
X0436023Y0372558D01*
X0434974D01*
X0434449Y0372033D01*
Y0369934D01*
X0434974Y0369409D01*
X0436023D01*
X0436548Y0369934D01*
X0437597Y0369409D02*
X0438647D01*
X0438122D01*
Y0372558D01*
X0437597Y0372033D01*
X0442320Y0372558D02*
X0440221D01*
Y0370984D01*
X0441271Y0371509D01*
X0441796D01*
X0442320Y0370984D01*
Y0369934D01*
X0441796Y0369409D01*
X0440746D01*
X0440221Y0369934D01*
X0410249Y0309120D02*
X0409724Y0309645D01*
X0408674D01*
X0408150Y0309120D01*
Y0307021D01*
X0408674Y0306496D01*
X0409724D01*
X0410249Y0307021D01*
X0411298Y0306496D02*
X0412348D01*
X0411823D01*
Y0309645D01*
X0411298Y0309120D01*
X0415496Y0306496D02*
Y0309645D01*
X0413922Y0308070D01*
X0416021D01*
X0410131Y0304592D02*
X0409606Y0305117D01*
X0408556D01*
X0408032Y0304592D01*
Y0302493D01*
X0408556Y0301969D01*
X0409606D01*
X0410131Y0302493D01*
X0411180Y0301969D02*
X0412230D01*
X0411705D01*
Y0305117D01*
X0411180Y0304592D01*
X0413804D02*
X0414329Y0305117D01*
X0415378D01*
X0415903Y0304592D01*
Y0304068D01*
X0415378Y0303543D01*
X0414853D01*
X0415378D01*
X0415903Y0303018D01*
Y0302493D01*
X0415378Y0301969D01*
X0414329D01*
X0413804Y0302493D01*
X0430367Y0303490D02*
X0429842Y0304015D01*
X0428792D01*
X0428268Y0303490D01*
Y0301391D01*
X0428792Y0300866D01*
X0429842D01*
X0430367Y0301391D01*
X0431416Y0300866D02*
X0432466D01*
X0431941D01*
Y0304015D01*
X0431416Y0303490D01*
X0436139Y0300866D02*
X0434040D01*
X0436139Y0302965D01*
Y0303490D01*
X0435614Y0304015D01*
X0434565D01*
X0434040Y0303490D01*
X0425091Y0380340D02*
X0424566Y0380865D01*
X0423517D01*
X0422992Y0380340D01*
Y0378241D01*
X0423517Y0377717D01*
X0424566D01*
X0425091Y0378241D01*
X0426141Y0377717D02*
X0427190D01*
X0426665D01*
Y0380865D01*
X0426141Y0380340D01*
X0428765Y0377717D02*
X0429814D01*
X0429289D01*
Y0380865D01*
X0428765Y0380340D01*
X0463477Y0409317D02*
X0462952Y0409842D01*
X0461903D01*
X0461378Y0409317D01*
Y0407218D01*
X0461903Y0406693D01*
X0462952D01*
X0463477Y0407218D01*
X0464527D02*
X0465051Y0406693D01*
X0466101D01*
X0466626Y0407218D01*
Y0409317D01*
X0466101Y0409842D01*
X0465051D01*
X0464527Y0409317D01*
Y0408792D01*
X0465051Y0408267D01*
X0466626D01*
X0463477Y0414081D02*
X0462952Y0414605D01*
X0461903D01*
X0461378Y0414081D01*
Y0411981D01*
X0461903Y0411457D01*
X0462952D01*
X0463477Y0411981D01*
X0464527Y0414081D02*
X0465051Y0414605D01*
X0466101D01*
X0466626Y0414081D01*
Y0413556D01*
X0466101Y0413031D01*
X0466626Y0412506D01*
Y0411981D01*
X0466101Y0411457D01*
X0465051D01*
X0464527Y0411981D01*
Y0412506D01*
X0465051Y0413031D01*
X0464527Y0413556D01*
Y0414081D01*
X0465051Y0413031D02*
X0466101D01*
X0432061Y0400209D02*
X0431536Y0399685D01*
Y0398635D01*
X0432061Y0398110D01*
X0434160D01*
X0434685Y0398635D01*
Y0399685D01*
X0434160Y0400209D01*
X0431536Y0401259D02*
Y0403358D01*
X0432061D01*
X0434160Y0401259D01*
X0434685D01*
X0423504Y0439646D02*
X0421405D01*
X0420355Y0440695D01*
X0421405Y0441745D01*
X0423504D01*
X0421930D01*
Y0439646D01*
X0423504Y0444893D02*
Y0442794D01*
X0421405Y0444893D01*
X0420880D01*
X0420355Y0444369D01*
Y0443319D01*
X0420880Y0442794D01*
X0513402Y0201011D02*
X0513402Y0201208D01*
X0513402Y0197271D02*
X0513402Y0197468D01*
X0524426Y0201011D02*
X0524426Y0201208D01*
X0524426Y0197271D02*
X0524426Y0197468D01*
X0524426Y0193531D02*
X0524426Y0193728D01*
X0524426Y0204751D02*
X0524426Y0204948D01*
X0513402Y0204751D02*
X0513402Y0204948D01*
X0513402Y0193531D02*
X0513402Y0193728D01*
X0513402Y0204949D02*
X0524426D01*
X0513402Y0193531D02*
X0524426D01*
X0510969Y0152610D02*
Y0154709D01*
Y0153659D01*
X0514118D01*
Y0155758D02*
X0512019D01*
X0510969Y0156808D01*
X0512019Y0157857D01*
X0514118D01*
X0512544D01*
Y0155758D01*
X0510969Y0158907D02*
X0514118D01*
Y0160481D01*
X0513593Y0161006D01*
X0513068D01*
X0512544Y0160481D01*
Y0158907D01*
Y0160481D01*
X0512019Y0161006D01*
X0511494D01*
X0510969Y0160481D01*
Y0158907D01*
X0511494Y0162056D02*
X0510969Y0162580D01*
Y0163630D01*
X0511494Y0164155D01*
X0512019D01*
X0512544Y0163630D01*
Y0163105D01*
Y0163630D01*
X0513068Y0164155D01*
X0513593D01*
X0514118Y0163630D01*
Y0162580D01*
X0513593Y0162056D01*
X0516338Y0153594D02*
Y0155693D01*
Y0154644D01*
X0519487D01*
Y0156743D02*
X0517388D01*
X0516338Y0157792D01*
X0517388Y0158842D01*
X0519487D01*
X0517912D01*
Y0156743D01*
X0516338Y0159891D02*
X0519487D01*
Y0161466D01*
X0518962Y0161990D01*
X0518437D01*
X0517912Y0161466D01*
Y0159891D01*
Y0161466D01*
X0517388Y0161990D01*
X0516863D01*
X0516338Y0161466D01*
Y0159891D01*
X0519487Y0163040D02*
Y0164089D01*
Y0163565D01*
X0516338D01*
X0516863Y0163040D01*
X0507599Y0202716D02*
X0510223D01*
X0510748Y0203241D01*
Y0204291D01*
X0510223Y0204816D01*
X0507599D01*
X0510748Y0205865D02*
Y0206915D01*
Y0206390D01*
X0507599D01*
X0508124Y0205865D01*
Y0208489D02*
X0507599Y0209014D01*
Y0210063D01*
X0508124Y0210588D01*
X0508649D01*
X0509174Y0210063D01*
Y0209539D01*
Y0210063D01*
X0509699Y0210588D01*
X0510223D01*
X0510748Y0210063D01*
Y0209014D01*
X0510223Y0208489D01*
X0504449Y0216850D02*
Y0219999D01*
X0506023D01*
X0506548Y0219474D01*
Y0218425D01*
X0506023Y0217900D01*
X0504449D01*
X0505498D02*
X0506548Y0216850D01*
X0507597Y0219474D02*
X0508122Y0219999D01*
X0509172D01*
X0509697Y0219474D01*
Y0218949D01*
X0509172Y0218425D01*
X0508647D01*
X0509172D01*
X0509697Y0217900D01*
Y0217375D01*
X0509172Y0216850D01*
X0508122D01*
X0507597Y0217375D01*
X0512320Y0216850D02*
Y0219999D01*
X0510746Y0218425D01*
X0512845D01*
X0523071Y0212520D02*
Y0215668D01*
X0524645D01*
X0525170Y0215143D01*
Y0214094D01*
X0524645Y0213569D01*
X0523071D01*
X0524121D02*
X0525170Y0212520D01*
X0526220Y0215143D02*
X0526744Y0215668D01*
X0527794D01*
X0528319Y0215143D01*
Y0214619D01*
X0527794Y0214094D01*
X0527269D01*
X0527794D01*
X0528319Y0213569D01*
Y0213045D01*
X0527794Y0212520D01*
X0526744D01*
X0526220Y0213045D01*
X0529368Y0215143D02*
X0529893Y0215668D01*
X0530942D01*
X0531467Y0215143D01*
Y0214619D01*
X0530942Y0214094D01*
X0530418D01*
X0530942D01*
X0531467Y0213569D01*
Y0213045D01*
X0530942Y0212520D01*
X0529893D01*
X0529368Y0213045D01*
X0505276Y0193976D02*
X0502127D01*
Y0195551D01*
X0502652Y0196075D01*
X0503701D01*
X0504226Y0195551D01*
Y0193976D01*
Y0195026D02*
X0505276Y0196075D01*
Y0199224D02*
Y0197125D01*
X0503177Y0199224D01*
X0502652D01*
X0502127Y0198699D01*
Y0197650D01*
X0502652Y0197125D01*
X0504751Y0200274D02*
X0505276Y0200798D01*
Y0201848D01*
X0504751Y0202373D01*
X0502652D01*
X0502127Y0201848D01*
Y0200798D01*
X0502652Y0200274D01*
X0503177D01*
X0503701Y0200798D01*
Y0202373D01*
X0550670Y0218831D02*
Y0216732D01*
X0552245D01*
Y0217782D01*
Y0216732D01*
X0553819D01*
Y0219881D02*
Y0220930D01*
Y0220406D01*
X0550670D01*
X0551195Y0219881D01*
X0524685Y0210471D02*
Y0207323D01*
X0526259D01*
X0526784Y0207848D01*
Y0209947D01*
X0526259Y0210471D01*
X0524685D01*
X0529408Y0207323D02*
Y0210471D01*
X0527834Y0208897D01*
X0529933D01*
X0552285Y0191890D02*
X0555433D01*
Y0193464D01*
X0554908Y0193989D01*
X0552809D01*
X0552285Y0193464D01*
Y0191890D01*
X0552809Y0195038D02*
X0552285Y0195563D01*
Y0196613D01*
X0552809Y0197137D01*
X0553334D01*
X0553859Y0196613D01*
Y0196088D01*
Y0196613D01*
X0554384Y0197137D01*
X0554908D01*
X0555433Y0196613D01*
Y0195563D01*
X0554908Y0195038D01*
X0506666Y0214671D02*
X0506141Y0215196D01*
X0505092D01*
X0504567Y0214671D01*
Y0212572D01*
X0505092Y0212047D01*
X0506141D01*
X0506666Y0212572D01*
X0509290Y0212047D02*
Y0215196D01*
X0507716Y0213621D01*
X0509815D01*
X0512438Y0212047D02*
Y0215196D01*
X0510864Y0213621D01*
X0512963D01*
X0527416Y0186430D02*
X0526891Y0185905D01*
Y0184855D01*
X0527416Y0184331D01*
X0529515D01*
X0530040Y0184855D01*
Y0185905D01*
X0529515Y0186430D01*
X0530040Y0189054D02*
X0526891D01*
X0528465Y0187479D01*
Y0189578D01*
X0527416Y0190628D02*
X0526891Y0191153D01*
Y0192202D01*
X0527416Y0192727D01*
X0529515D01*
X0530040Y0192202D01*
Y0191153D01*
X0529515Y0190628D01*
X0527416D01*
X0488780Y0368464D02*
Y0365840D01*
X0489304Y0365315D01*
X0490354D01*
X0490879Y0365840D01*
Y0368464D01*
X0493502Y0365315D02*
Y0368464D01*
X0491928Y0366889D01*
X0494027D01*
X0479724Y0296772D02*
Y0298871D01*
X0480774Y0299920D01*
X0481823Y0298871D01*
Y0296772D01*
Y0298346D01*
X0479724D01*
X0482873Y0296772D02*
X0483922D01*
X0483398D01*
Y0299920D01*
X0482873Y0299395D01*
X0483544Y0377402D02*
X0486168D01*
X0486693Y0377926D01*
Y0378976D01*
X0486168Y0379501D01*
X0483544D01*
X0486693Y0380550D02*
Y0381600D01*
Y0381075D01*
X0483544D01*
X0484069Y0380550D01*
X0486693Y0383174D02*
Y0384224D01*
Y0383699D01*
X0483544D01*
X0484069Y0383174D01*
X0487598Y0413070D02*
Y0410446D01*
X0488123Y0409921D01*
X0489173D01*
X0489698Y0410446D01*
Y0413070D01*
X0490747Y0409921D02*
X0491797D01*
X0491272D01*
Y0413070D01*
X0490747Y0412545D01*
X0493371D02*
X0493896Y0413070D01*
X0494945D01*
X0495470Y0412545D01*
Y0410446D01*
X0494945Y0409921D01*
X0493896D01*
X0493371Y0410446D01*
Y0412545D01*
X0545001Y0386772D02*
X0547625D01*
X0548150Y0387297D01*
Y0388346D01*
X0547625Y0388871D01*
X0545001D01*
Y0392019D02*
X0545526Y0390970D01*
X0546575Y0389920D01*
X0547625D01*
X0548150Y0390445D01*
Y0391495D01*
X0547625Y0392019D01*
X0547100D01*
X0546575Y0391495D01*
Y0389920D01*
X0516694Y0384724D02*
X0519318D01*
X0519842Y0385249D01*
Y0386299D01*
X0519318Y0386824D01*
X0516694D01*
Y0389972D02*
Y0387873D01*
X0518268D01*
X0517743Y0388923D01*
Y0389447D01*
X0518268Y0389972D01*
X0519318D01*
X0519842Y0389447D01*
Y0388398D01*
X0519318Y0387873D01*
X0516418Y0405787D02*
X0519042D01*
X0519567Y0406312D01*
Y0407362D01*
X0519042Y0407887D01*
X0516418D01*
X0516943Y0408936D02*
X0516418Y0409461D01*
Y0410510D01*
X0516943Y0411035D01*
X0517468D01*
X0517993Y0410510D01*
Y0409986D01*
Y0410510D01*
X0518517Y0411035D01*
X0519042D01*
X0519567Y0410510D01*
Y0409461D01*
X0519042Y0408936D01*
X0540473Y0405550D02*
X0542571D01*
X0541522D01*
Y0402402D01*
X0543621Y0405025D02*
X0544146Y0405550D01*
X0545195D01*
X0545720Y0405025D01*
Y0404501D01*
X0545195Y0403976D01*
X0544671D01*
X0545195D01*
X0545720Y0403451D01*
Y0402926D01*
X0545195Y0402402D01*
X0544146D01*
X0543621Y0402926D01*
X0543307Y0376339D02*
X0540159D01*
Y0377913D01*
X0540683Y0378438D01*
X0541733D01*
X0542258Y0377913D01*
Y0376339D01*
Y0377388D02*
X0543307Y0378438D01*
Y0381586D02*
Y0379487D01*
X0541208Y0381586D01*
X0540683D01*
X0540159Y0381062D01*
Y0380012D01*
X0540683Y0379487D01*
X0543307Y0384735D02*
Y0382636D01*
X0541208Y0384735D01*
X0540683D01*
X0540159Y0384210D01*
Y0383161D01*
X0540683Y0382636D01*
X0539134Y0377638D02*
X0535985D01*
Y0379212D01*
X0536510Y0379737D01*
X0537560D01*
X0538084Y0379212D01*
Y0377638D01*
Y0378687D02*
X0539134Y0379737D01*
Y0382886D02*
Y0380786D01*
X0537035Y0382886D01*
X0536510D01*
X0535985Y0382361D01*
Y0381311D01*
X0536510Y0380786D01*
X0539134Y0383935D02*
Y0384985D01*
Y0384460D01*
X0535985D01*
X0536510Y0383935D01*
X0549331Y0394213D02*
X0546182D01*
Y0395787D01*
X0546707Y0396312D01*
X0547756D01*
X0548281Y0395787D01*
Y0394213D01*
Y0395262D02*
X0549331Y0396312D01*
Y0399460D02*
Y0397361D01*
X0547232Y0399460D01*
X0546707D01*
X0546182Y0398936D01*
Y0397886D01*
X0546707Y0397361D01*
Y0400510D02*
X0546182Y0401035D01*
Y0402084D01*
X0546707Y0402609D01*
X0548806D01*
X0549331Y0402084D01*
Y0401035D01*
X0548806Y0400510D01*
X0546707D01*
X0527087Y0375433D02*
Y0378582D01*
X0528661D01*
X0529186Y0378057D01*
Y0377007D01*
X0528661Y0376483D01*
X0527087D01*
X0528136D02*
X0529186Y0375433D01*
X0530235D02*
X0531285D01*
X0530760D01*
Y0378582D01*
X0530235Y0378057D01*
X0532859Y0375958D02*
X0533384Y0375433D01*
X0534433D01*
X0534958Y0375958D01*
Y0378057D01*
X0534433Y0378582D01*
X0533384D01*
X0532859Y0378057D01*
Y0377532D01*
X0533384Y0377007D01*
X0534958D01*
X0506339Y0373661D02*
Y0376810D01*
X0507913D01*
X0508438Y0376285D01*
Y0375236D01*
X0507913Y0374711D01*
X0506339D01*
X0507388D02*
X0508438Y0373661D01*
X0509487D02*
X0510537D01*
X0510012D01*
Y0376810D01*
X0509487Y0376285D01*
X0512111D02*
X0512636Y0376810D01*
X0513685D01*
X0514210Y0376285D01*
Y0375761D01*
X0513685Y0375236D01*
X0514210Y0374711D01*
Y0374186D01*
X0513685Y0373661D01*
X0512636D01*
X0512111Y0374186D01*
Y0374711D01*
X0512636Y0375236D01*
X0512111Y0375761D01*
Y0376285D01*
X0512636Y0375236D02*
X0513685D01*
X0504410Y0408701D02*
X0501261D01*
Y0410275D01*
X0501786Y0410800D01*
X0502835D01*
X0503360Y0410275D01*
Y0408701D01*
Y0409750D02*
X0504410Y0410800D01*
Y0411849D02*
Y0412899D01*
Y0412374D01*
X0501261D01*
X0501786Y0411849D01*
X0504410Y0414473D02*
Y0415523D01*
Y0414998D01*
X0501261D01*
X0501786Y0414473D01*
X0486181Y0391535D02*
X0483033D01*
Y0393110D01*
X0483557Y0393635D01*
X0484607D01*
X0485132Y0393110D01*
Y0391535D01*
Y0392585D02*
X0486181Y0393635D01*
Y0394684D02*
Y0395734D01*
Y0395209D01*
X0483033D01*
X0483557Y0394684D01*
Y0397308D02*
X0483033Y0397833D01*
Y0398882D01*
X0483557Y0399407D01*
X0485656D01*
X0486181Y0398882D01*
Y0397833D01*
X0485656Y0397308D01*
X0483557D01*
X0477480Y0172716D02*
Y0175865D01*
X0479055D01*
X0479579Y0175340D01*
Y0174291D01*
X0479055Y0173766D01*
X0477480D01*
X0478530D02*
X0479579Y0172716D01*
X0480629Y0173241D02*
X0481154Y0172716D01*
X0482203D01*
X0482728Y0173241D01*
Y0175340D01*
X0482203Y0175865D01*
X0481154D01*
X0480629Y0175340D01*
Y0174816D01*
X0481154Y0174291D01*
X0482728D01*
X0518425Y0392324D02*
Y0395473D01*
X0516326D01*
X0513702D02*
Y0392324D01*
X0515277Y0393898D01*
X0513178D01*
X0510080Y0398622D02*
X0513228D01*
Y0400721D01*
X0510604Y0401771D02*
X0510080Y0402295D01*
Y0403345D01*
X0510604Y0403870D01*
X0511129D01*
X0511654Y0403345D01*
Y0402820D01*
Y0403345D01*
X0512179Y0403870D01*
X0512704D01*
X0513228Y0403345D01*
Y0402295D01*
X0512704Y0401771D01*
X0496024Y0179448D02*
Y0176299D01*
X0497598D01*
X0498123Y0176824D01*
Y0178923D01*
X0497598Y0179448D01*
X0496024D01*
X0501271Y0176299D02*
X0499172D01*
X0501271Y0178398D01*
Y0178923D01*
X0500747Y0179448D01*
X0499697D01*
X0499172Y0178923D01*
X0481981Y0210340D02*
X0481456Y0210865D01*
X0480407D01*
X0479882Y0210340D01*
Y0208241D01*
X0480407Y0207717D01*
X0481456D01*
X0481981Y0208241D01*
X0484605Y0210865D02*
X0483555D01*
X0483031Y0210340D01*
Y0208241D01*
X0483555Y0207717D01*
X0484605D01*
X0485130Y0208241D01*
Y0210340D01*
X0484605Y0210865D01*
X0486179Y0207717D02*
Y0210865D01*
X0488278Y0207717D01*
Y0210865D01*
X0489328Y0207717D02*
X0490377D01*
X0489853D01*
Y0210865D01*
X0489328Y0210340D01*
X0499579Y0395852D02*
X0499055Y0396377D01*
X0498005D01*
X0497480Y0395852D01*
Y0393753D01*
X0498005Y0393228D01*
X0499055D01*
X0499579Y0393753D01*
X0500629Y0395852D02*
X0501154Y0396377D01*
X0502203D01*
X0502728Y0395852D01*
Y0395327D01*
X0502203Y0394803D01*
X0501679D01*
X0502203D01*
X0502728Y0394278D01*
Y0393753D01*
X0502203Y0393228D01*
X0501154D01*
X0500629Y0393753D01*
X0503778Y0395852D02*
X0504302Y0396377D01*
X0505352D01*
X0505877Y0395852D01*
Y0395327D01*
X0505352Y0394803D01*
X0505877Y0394278D01*
Y0393753D01*
X0505352Y0393228D01*
X0504302D01*
X0503778Y0393753D01*
Y0394278D01*
X0504302Y0394803D01*
X0503778Y0395327D01*
Y0395852D01*
X0504302Y0394803D02*
X0505352D01*
X0503201Y0389632D02*
X0502677Y0390157D01*
X0501627D01*
X0501102Y0389632D01*
Y0387533D01*
X0501627Y0387008D01*
X0502677D01*
X0503201Y0387533D01*
X0504251Y0389632D02*
X0504776Y0390157D01*
X0505825D01*
X0506350Y0389632D01*
Y0389107D01*
X0505825Y0388582D01*
X0505301D01*
X0505825D01*
X0506350Y0388057D01*
Y0387533D01*
X0505825Y0387008D01*
X0504776D01*
X0504251Y0387533D01*
X0507400Y0390157D02*
X0509499D01*
Y0389632D01*
X0507400Y0387533D01*
Y0387008D01*
X0497140Y0410642D02*
X0496615Y0410118D01*
Y0409068D01*
X0497140Y0408543D01*
X0499239D01*
X0499764Y0409068D01*
Y0410118D01*
X0499239Y0410642D01*
X0497140Y0411692D02*
X0496615Y0412217D01*
Y0413266D01*
X0497140Y0413791D01*
X0497665D01*
X0498189Y0413266D01*
Y0412742D01*
Y0413266D01*
X0498714Y0413791D01*
X0499239D01*
X0499764Y0413266D01*
Y0412217D01*
X0499239Y0411692D01*
X0496615Y0416940D02*
Y0414841D01*
X0498189D01*
X0497665Y0415890D01*
Y0416415D01*
X0498189Y0416940D01*
X0499239D01*
X0499764Y0416415D01*
Y0415365D01*
X0499239Y0414841D01*
X0534343Y0404553D02*
X0533818Y0405078D01*
X0532769D01*
X0532244Y0404553D01*
Y0402454D01*
X0532769Y0401929D01*
X0533818D01*
X0534343Y0402454D01*
X0535393Y0401929D02*
X0536442D01*
X0535918D01*
Y0405078D01*
X0535393Y0404553D01*
X0540116Y0405078D02*
X0539066Y0404553D01*
X0538017Y0403504D01*
Y0402454D01*
X0538541Y0401929D01*
X0539591D01*
X0540116Y0402454D01*
Y0402979D01*
X0539591Y0403504D01*
X0538017D01*
X0520013Y0372033D02*
X0519488Y0372558D01*
X0518438D01*
X0517913Y0372033D01*
Y0369934D01*
X0518438Y0369409D01*
X0519488D01*
X0520013Y0369934D01*
X0521062Y0369409D02*
X0522112D01*
X0521587D01*
Y0372558D01*
X0521062Y0372033D01*
X0525785Y0372558D02*
X0523686D01*
Y0370984D01*
X0524735Y0371509D01*
X0525260D01*
X0525785Y0370984D01*
Y0369934D01*
X0525260Y0369409D01*
X0524211D01*
X0523686Y0369934D01*
X0493713Y0309120D02*
X0493188Y0309645D01*
X0492139D01*
X0491614Y0309120D01*
Y0307021D01*
X0492139Y0306496D01*
X0493188D01*
X0493713Y0307021D01*
X0494763Y0306496D02*
X0495812D01*
X0495288D01*
Y0309645D01*
X0494763Y0309120D01*
X0498961Y0306496D02*
Y0309645D01*
X0497387Y0308070D01*
X0499486D01*
X0493595Y0304592D02*
X0493070Y0305117D01*
X0492021D01*
X0491496Y0304592D01*
Y0302493D01*
X0492021Y0301969D01*
X0493070D01*
X0493595Y0302493D01*
X0494645Y0301969D02*
X0495694D01*
X0495169D01*
Y0305117D01*
X0494645Y0304592D01*
X0497268D02*
X0497793Y0305117D01*
X0498843D01*
X0499368Y0304592D01*
Y0304068D01*
X0498843Y0303543D01*
X0498318D01*
X0498843D01*
X0499368Y0303018D01*
Y0302493D01*
X0498843Y0301969D01*
X0497793D01*
X0497268Y0302493D01*
X0513831Y0303490D02*
X0513307Y0304015D01*
X0512257D01*
X0511732Y0303490D01*
Y0301391D01*
X0512257Y0300866D01*
X0513307D01*
X0513831Y0301391D01*
X0514881Y0300866D02*
X0515930D01*
X0515406D01*
Y0304015D01*
X0514881Y0303490D01*
X0519604Y0300866D02*
X0517505D01*
X0519604Y0302965D01*
Y0303490D01*
X0519079Y0304015D01*
X0518029D01*
X0517505Y0303490D01*
X0508556Y0380340D02*
X0508031Y0380865D01*
X0506982D01*
X0506457Y0380340D01*
Y0378241D01*
X0506982Y0377717D01*
X0508031D01*
X0508556Y0378241D01*
X0509605Y0377717D02*
X0510655D01*
X0510130D01*
Y0380865D01*
X0509605Y0380340D01*
X0512229Y0377717D02*
X0513279D01*
X0512754D01*
Y0380865D01*
X0512229Y0380340D01*
X0546942Y0409317D02*
X0546417Y0409842D01*
X0545367D01*
X0544842Y0409317D01*
Y0407218D01*
X0545367Y0406693D01*
X0546417D01*
X0546942Y0407218D01*
X0547991D02*
X0548516Y0406693D01*
X0549565D01*
X0550090Y0407218D01*
Y0409317D01*
X0549565Y0409842D01*
X0548516D01*
X0547991Y0409317D01*
Y0408792D01*
X0548516Y0408267D01*
X0550090D01*
X0546942Y0414081D02*
X0546417Y0414605D01*
X0545367D01*
X0544842Y0414081D01*
Y0411981D01*
X0545367Y0411457D01*
X0546417D01*
X0546942Y0411981D01*
X0547991Y0414081D02*
X0548516Y0414605D01*
X0549565D01*
X0550090Y0414081D01*
Y0413556D01*
X0549565Y0413031D01*
X0550090Y0412506D01*
Y0411981D01*
X0549565Y0411457D01*
X0548516D01*
X0547991Y0411981D01*
Y0412506D01*
X0548516Y0413031D01*
X0547991Y0413556D01*
Y0414081D01*
X0548516Y0413031D02*
X0549565D01*
X0515526Y0400209D02*
X0515001Y0399685D01*
Y0398635D01*
X0515526Y0398110D01*
X0517625D01*
X0518150Y0398635D01*
Y0399685D01*
X0517625Y0400209D01*
X0515001Y0401259D02*
Y0403358D01*
X0515526D01*
X0517625Y0401259D01*
X0518150D01*
X0506968Y0439646D02*
X0504870D01*
X0503820Y0440695D01*
X0504870Y0441745D01*
X0506968D01*
X0505394D01*
Y0439646D01*
X0506968Y0444893D02*
Y0442794D01*
X0504870Y0444893D01*
X0504345D01*
X0503820Y0444369D01*
Y0443319D01*
X0504345Y0442794D01*
M02*
