G04*
G04 #@! TF.GenerationSoftware,Altium Limited,Altium Designer,19.1.7 (138)*
G04*
G04 Layer_Color=32896*
%FSAX25Y25*%
%MOIN*%
G70*
G01*
G75*
%ADD44C,0.00787*%
%ADD47C,0.00598*%
%ADD73C,0.00984*%
%ADD74C,0.01000*%
%ADD75C,0.00394*%
%ADD76C,0.00591*%
%ADD142C,0.00197*%
D44*
X0203845Y0242087D02*
G03*
X0203845Y0242087I-0000223J0000000D01*
G01*
X0169569Y0179893D02*
Y0192492D01*
X0179017Y0179893D02*
Y0192492D01*
X0185980Y0173868D02*
Y0185368D01*
X0180480D02*
X0185980D01*
X0180480Y0173868D02*
Y0185368D01*
Y0173868D02*
X0185980D01*
X0192200Y0173789D02*
Y0185289D01*
X0186700D02*
X0192200D01*
X0186700Y0173789D02*
Y0185289D01*
Y0173789D02*
X0192200D01*
X0189675Y0186208D02*
X0198675D01*
X0189675D02*
Y0204208D01*
X0198675D01*
Y0186208D02*
Y0204208D01*
X0180069Y0186169D02*
X0189068D01*
X0180069D02*
Y0204169D01*
X0189068D01*
Y0186169D02*
Y0204169D01*
X0209350Y0300793D02*
Y0306293D01*
X0197850Y0300793D02*
X0209350D01*
X0197850D02*
Y0306293D01*
X0209350D01*
X0173667Y0243935D02*
X0179167D01*
X0173667D02*
Y0255435D01*
X0179167D01*
Y0243935D02*
Y0255435D01*
X0180085Y0243896D02*
X0185585D01*
X0180085D02*
Y0255396D01*
X0185585D01*
Y0243896D02*
Y0255396D01*
X0203031Y0242402D02*
Y0251063D01*
X0191614D02*
X0203031D01*
X0191614Y0242402D02*
Y0251063D01*
Y0242402D02*
X0203031D01*
X0203974Y0232250D02*
Y0237750D01*
X0215474D01*
Y0232250D02*
Y0237750D01*
X0203974Y0232250D02*
X0215474D01*
X0204053Y0225911D02*
Y0231412D01*
X0215553D01*
Y0225911D02*
Y0231412D01*
X0204053Y0225911D02*
X0215553D01*
X0205982Y0211620D02*
Y0217120D01*
X0217482D01*
Y0211620D02*
Y0217120D01*
X0205982Y0211620D02*
X0217482D01*
X0219362Y0202811D02*
Y0210811D01*
X0205362D02*
X0219362D01*
X0205362Y0202811D02*
Y0210811D01*
Y0202811D02*
X0219362D01*
Y0193520D02*
Y0201520D01*
X0205362D02*
X0219362D01*
X0205362Y0193520D02*
Y0201520D01*
Y0193520D02*
X0219362D01*
Y0184465D02*
Y0192465D01*
X0205362D02*
X0219362D01*
X0205362Y0184465D02*
Y0192465D01*
Y0184465D02*
X0219362D01*
X0171417Y0456060D02*
X0170106D01*
X0170761D01*
Y0458684D01*
X0171417D01*
X0168138D02*
Y0456060D01*
Y0457372D01*
X0167482Y0458028D01*
X0166826Y0458684D01*
X0166170D01*
X0164202Y0456060D02*
Y0458684D01*
X0162234D01*
X0161578Y0458028D01*
Y0456060D01*
X0159610Y0458684D02*
X0158298D01*
X0157642Y0458028D01*
Y0456060D01*
X0159610D01*
X0160266Y0456716D01*
X0159610Y0457372D01*
X0157642D01*
X0156330Y0456060D02*
X0154362D01*
X0153707Y0456716D01*
X0154362Y0457372D01*
X0155675D01*
X0156330Y0458028D01*
X0155675Y0458684D01*
X0153707D01*
X0152395Y0456060D02*
Y0456716D01*
X0151739D01*
Y0456060D01*
X0152395D01*
X0147147D02*
X0148459D01*
X0149115Y0456716D01*
Y0458028D01*
X0148459Y0458684D01*
X0147147D01*
X0146491Y0458028D01*
Y0457372D01*
X0149115D01*
X0145179Y0458684D02*
Y0456716D01*
X0144523Y0456060D01*
X0142555D01*
Y0458684D01*
X0171417Y0453383D02*
X0168794D01*
X0170106D01*
Y0449447D01*
X0167482Y0452071D02*
Y0449447D01*
Y0450759D01*
X0166826Y0451415D01*
X0166170Y0452071D01*
X0165514D01*
X0162890D02*
X0161578D01*
X0160922Y0451415D01*
Y0449447D01*
X0162890D01*
X0163546Y0450103D01*
X0162890Y0450759D01*
X0160922D01*
X0156986Y0452071D02*
X0158954D01*
X0159610Y0451415D01*
Y0450103D01*
X0158954Y0449447D01*
X0156986D01*
X0155675D02*
Y0453383D01*
Y0450759D02*
X0153707Y0452071D01*
X0155675Y0450759D02*
X0153707Y0449447D01*
X0149771D02*
X0151083D01*
X0151739Y0450103D01*
Y0451415D01*
X0151083Y0452071D01*
X0149771D01*
X0149115Y0451415D01*
Y0450759D01*
X0151739D01*
X0147803Y0452071D02*
Y0449447D01*
Y0450759D01*
X0147147Y0451415D01*
X0146491Y0452071D01*
X0145835D01*
X0171417Y0446770D02*
Y0444147D01*
X0170106Y0442835D01*
X0168794Y0444147D01*
Y0446770D01*
X0167482Y0446114D02*
X0166826Y0446770D01*
X0165514D01*
X0164858Y0446114D01*
Y0443491D01*
X0165514Y0442835D01*
X0166826D01*
X0167482Y0443491D01*
Y0446114D01*
X0287309Y0242087D02*
G03*
X0287309Y0242087I-0000223J0000000D01*
G01*
X0253033Y0179893D02*
Y0192492D01*
X0262482Y0179893D02*
Y0192492D01*
X0269444Y0173868D02*
Y0185368D01*
X0263945D02*
X0269444D01*
X0263945Y0173868D02*
Y0185368D01*
Y0173868D02*
X0269444D01*
X0275665Y0173789D02*
Y0185289D01*
X0270165D02*
X0275665D01*
X0270165Y0173789D02*
Y0185289D01*
Y0173789D02*
X0275665D01*
X0273139Y0186208D02*
X0282139D01*
X0273139D02*
Y0204208D01*
X0282139D01*
Y0186208D02*
Y0204208D01*
X0263533Y0186169D02*
X0272533D01*
X0263533D02*
Y0204169D01*
X0272533D01*
Y0186169D02*
Y0204169D01*
X0292815Y0300793D02*
Y0306293D01*
X0281315Y0300793D02*
X0292815D01*
X0281315D02*
Y0306293D01*
X0292815D01*
X0257132Y0243935D02*
X0262632D01*
X0257132D02*
Y0255435D01*
X0262632D01*
Y0243935D02*
Y0255435D01*
X0263549Y0243896D02*
X0269049D01*
X0263549D02*
Y0255396D01*
X0269049D01*
Y0243896D02*
Y0255396D01*
X0286496Y0242402D02*
Y0251063D01*
X0275079D02*
X0286496D01*
X0275079Y0242402D02*
Y0251063D01*
Y0242402D02*
X0286496D01*
X0287439Y0232250D02*
Y0237750D01*
X0298939D01*
Y0232250D02*
Y0237750D01*
X0287439Y0232250D02*
X0298939D01*
X0287518Y0225911D02*
Y0231412D01*
X0299018D01*
Y0225911D02*
Y0231412D01*
X0287518Y0225911D02*
X0299018D01*
X0289447Y0211620D02*
Y0217120D01*
X0300947D01*
Y0211620D02*
Y0217120D01*
X0289447Y0211620D02*
X0300947D01*
X0302827Y0202811D02*
Y0210811D01*
X0288827D02*
X0302827D01*
X0288827Y0202811D02*
Y0210811D01*
Y0202811D02*
X0302827D01*
Y0193520D02*
Y0201520D01*
X0288827D02*
X0302827D01*
X0288827Y0193520D02*
Y0201520D01*
Y0193520D02*
X0302827D01*
Y0184465D02*
Y0192465D01*
X0288827D02*
X0302827D01*
X0288827Y0184465D02*
Y0192465D01*
Y0184465D02*
X0302827D01*
X0254882Y0456060D02*
X0253570D01*
X0254226D01*
Y0458684D01*
X0254882D01*
X0251602D02*
Y0456060D01*
Y0457372D01*
X0250946Y0458028D01*
X0250290Y0458684D01*
X0249634D01*
X0247667Y0456060D02*
Y0458684D01*
X0245699D01*
X0245043Y0458028D01*
Y0456060D01*
X0243075Y0458684D02*
X0241763D01*
X0241107Y0458028D01*
Y0456060D01*
X0243075D01*
X0243731Y0456716D01*
X0243075Y0457372D01*
X0241107D01*
X0239795Y0456060D02*
X0237827D01*
X0237171Y0456716D01*
X0237827Y0457372D01*
X0239139D01*
X0239795Y0458028D01*
X0239139Y0458684D01*
X0237171D01*
X0235859Y0456060D02*
Y0456716D01*
X0235203D01*
Y0456060D01*
X0235859D01*
X0230612D02*
X0231924D01*
X0232579Y0456716D01*
Y0458028D01*
X0231924Y0458684D01*
X0230612D01*
X0229956Y0458028D01*
Y0457372D01*
X0232579D01*
X0228644Y0458684D02*
Y0456716D01*
X0227988Y0456060D01*
X0226020D01*
Y0458684D01*
X0254882Y0453383D02*
X0252258D01*
X0253570D01*
Y0449447D01*
X0250946Y0452071D02*
Y0449447D01*
Y0450759D01*
X0250290Y0451415D01*
X0249634Y0452071D01*
X0248978D01*
X0246355D02*
X0245043D01*
X0244387Y0451415D01*
Y0449447D01*
X0246355D01*
X0247010Y0450103D01*
X0246355Y0450759D01*
X0244387D01*
X0240451Y0452071D02*
X0242419D01*
X0243075Y0451415D01*
Y0450103D01*
X0242419Y0449447D01*
X0240451D01*
X0239139D02*
Y0453383D01*
Y0450759D02*
X0237171Y0452071D01*
X0239139Y0450759D02*
X0237171Y0449447D01*
X0233235D02*
X0234547D01*
X0235203Y0450103D01*
Y0451415D01*
X0234547Y0452071D01*
X0233235D01*
X0232579Y0451415D01*
Y0450759D01*
X0235203D01*
X0231267Y0452071D02*
Y0449447D01*
Y0450759D01*
X0230612Y0451415D01*
X0229956Y0452071D01*
X0229300D01*
X0254882Y0446770D02*
Y0444147D01*
X0253570Y0442835D01*
X0252258Y0444147D01*
Y0446770D01*
X0250946Y0446114D02*
X0250290Y0446770D01*
X0248978D01*
X0248322Y0446114D01*
Y0443491D01*
X0248978Y0442835D01*
X0250290D01*
X0250946Y0443491D01*
Y0446114D01*
X0370774Y0242087D02*
G03*
X0370774Y0242087I-0000223J0000000D01*
G01*
X0336498Y0179893D02*
Y0192492D01*
X0345947Y0179893D02*
Y0192492D01*
X0352909Y0173868D02*
Y0185368D01*
X0347409D02*
X0352909D01*
X0347409Y0173868D02*
Y0185368D01*
Y0173868D02*
X0352909D01*
X0359130Y0173789D02*
Y0185289D01*
X0353630D02*
X0359130D01*
X0353630Y0173789D02*
Y0185289D01*
Y0173789D02*
X0359130D01*
X0356604Y0186208D02*
X0365604D01*
X0356604D02*
Y0204208D01*
X0365604D01*
Y0186208D02*
Y0204208D01*
X0346998Y0186169D02*
X0355998D01*
X0346998D02*
Y0204169D01*
X0355998D01*
Y0186169D02*
Y0204169D01*
X0376279Y0300793D02*
Y0306293D01*
X0364779Y0300793D02*
X0376279D01*
X0364779D02*
Y0306293D01*
X0376279D01*
X0340596Y0243935D02*
X0346096D01*
X0340596D02*
Y0255435D01*
X0346096D01*
Y0243935D02*
Y0255435D01*
X0347014Y0243896D02*
X0352514D01*
X0347014D02*
Y0255396D01*
X0352514D01*
Y0243896D02*
Y0255396D01*
X0369961Y0242402D02*
Y0251063D01*
X0358543D02*
X0369961D01*
X0358543Y0242402D02*
Y0251063D01*
Y0242402D02*
X0369961D01*
X0370903Y0232250D02*
Y0237750D01*
X0382403D01*
Y0232250D02*
Y0237750D01*
X0370903Y0232250D02*
X0382403D01*
X0370982Y0225911D02*
Y0231412D01*
X0382482D01*
Y0225911D02*
Y0231412D01*
X0370982Y0225911D02*
X0382482D01*
X0372911Y0211620D02*
Y0217120D01*
X0384411D01*
Y0211620D02*
Y0217120D01*
X0372911Y0211620D02*
X0384411D01*
X0386291Y0202811D02*
Y0210811D01*
X0372291D02*
X0386291D01*
X0372291Y0202811D02*
Y0210811D01*
Y0202811D02*
X0386291D01*
Y0193520D02*
Y0201520D01*
X0372291D02*
X0386291D01*
X0372291Y0193520D02*
Y0201520D01*
Y0193520D02*
X0386291D01*
Y0184465D02*
Y0192465D01*
X0372291D02*
X0386291D01*
X0372291Y0184465D02*
Y0192465D01*
Y0184465D02*
X0386291D01*
X0338347Y0456060D02*
X0337035D01*
X0337691D01*
Y0458684D01*
X0338347D01*
X0335067D02*
Y0456060D01*
Y0457372D01*
X0334411Y0458028D01*
X0333755Y0458684D01*
X0333099D01*
X0331131Y0456060D02*
Y0458684D01*
X0329163D01*
X0328507Y0458028D01*
Y0456060D01*
X0326539Y0458684D02*
X0325227D01*
X0324571Y0458028D01*
Y0456060D01*
X0326539D01*
X0327195Y0456716D01*
X0326539Y0457372D01*
X0324571D01*
X0323259Y0456060D02*
X0321292D01*
X0320636Y0456716D01*
X0321292Y0457372D01*
X0322604D01*
X0323259Y0458028D01*
X0322604Y0458684D01*
X0320636D01*
X0319324Y0456060D02*
Y0456716D01*
X0318668D01*
Y0456060D01*
X0319324D01*
X0314076D02*
X0315388D01*
X0316044Y0456716D01*
Y0458028D01*
X0315388Y0458684D01*
X0314076D01*
X0313420Y0458028D01*
Y0457372D01*
X0316044D01*
X0312108Y0458684D02*
Y0456716D01*
X0311452Y0456060D01*
X0309485D01*
Y0458684D01*
X0338347Y0453383D02*
X0335723D01*
X0337035D01*
Y0449447D01*
X0334411Y0452071D02*
Y0449447D01*
Y0450759D01*
X0333755Y0451415D01*
X0333099Y0452071D01*
X0332443D01*
X0329819D02*
X0328507D01*
X0327851Y0451415D01*
Y0449447D01*
X0329819D01*
X0330475Y0450103D01*
X0329819Y0450759D01*
X0327851D01*
X0323916Y0452071D02*
X0325883D01*
X0326539Y0451415D01*
Y0450103D01*
X0325883Y0449447D01*
X0323916D01*
X0322604D02*
Y0453383D01*
Y0450759D02*
X0320636Y0452071D01*
X0322604Y0450759D02*
X0320636Y0449447D01*
X0316700D02*
X0318012D01*
X0318668Y0450103D01*
Y0451415D01*
X0318012Y0452071D01*
X0316700D01*
X0316044Y0451415D01*
Y0450759D01*
X0318668D01*
X0314732Y0452071D02*
Y0449447D01*
Y0450759D01*
X0314076Y0451415D01*
X0313420Y0452071D01*
X0312764D01*
X0338347Y0446770D02*
Y0444147D01*
X0337035Y0442835D01*
X0335723Y0444147D01*
Y0446770D01*
X0334411Y0446114D02*
X0333755Y0446770D01*
X0332443D01*
X0331787Y0446114D01*
Y0443491D01*
X0332443Y0442835D01*
X0333755D01*
X0334411Y0443491D01*
Y0446114D01*
X0454239Y0242087D02*
G03*
X0454239Y0242087I-0000223J0000000D01*
G01*
X0419962Y0179893D02*
Y0192492D01*
X0429411Y0179893D02*
Y0192492D01*
X0436374Y0173868D02*
Y0185368D01*
X0430874D02*
X0436374D01*
X0430874Y0173868D02*
Y0185368D01*
Y0173868D02*
X0436374D01*
X0442594Y0173789D02*
Y0185289D01*
X0437094D02*
X0442594D01*
X0437094Y0173789D02*
Y0185289D01*
Y0173789D02*
X0442594D01*
X0440068Y0186208D02*
X0449068D01*
X0440068D02*
Y0204208D01*
X0449068D01*
Y0186208D02*
Y0204208D01*
X0430462Y0186169D02*
X0439462D01*
X0430462D02*
Y0204169D01*
X0439462D01*
Y0186169D02*
Y0204169D01*
X0459744Y0300793D02*
Y0306293D01*
X0448244Y0300793D02*
X0459744D01*
X0448244D02*
Y0306293D01*
X0459744D01*
X0424061Y0243935D02*
X0429561D01*
X0424061D02*
Y0255435D01*
X0429561D01*
Y0243935D02*
Y0255435D01*
X0430478Y0243896D02*
X0435978D01*
X0430478D02*
Y0255396D01*
X0435978D01*
Y0243896D02*
Y0255396D01*
X0453425Y0242402D02*
Y0251063D01*
X0442008D02*
X0453425D01*
X0442008Y0242402D02*
Y0251063D01*
Y0242402D02*
X0453425D01*
X0454368Y0232250D02*
Y0237750D01*
X0465868D01*
Y0232250D02*
Y0237750D01*
X0454368Y0232250D02*
X0465868D01*
X0454447Y0225911D02*
Y0231412D01*
X0465947D01*
Y0225911D02*
Y0231412D01*
X0454447Y0225911D02*
X0465947D01*
X0456376Y0211620D02*
Y0217120D01*
X0467876D01*
Y0211620D02*
Y0217120D01*
X0456376Y0211620D02*
X0467876D01*
X0469756Y0202811D02*
Y0210811D01*
X0455756D02*
X0469756D01*
X0455756Y0202811D02*
Y0210811D01*
Y0202811D02*
X0469756D01*
Y0193520D02*
Y0201520D01*
X0455756D02*
X0469756D01*
X0455756Y0193520D02*
Y0201520D01*
Y0193520D02*
X0469756D01*
Y0184465D02*
Y0192465D01*
X0455756D02*
X0469756D01*
X0455756Y0184465D02*
Y0192465D01*
Y0184465D02*
X0469756D01*
X0421811Y0456060D02*
X0420499D01*
X0421155D01*
Y0458684D01*
X0421811D01*
X0418531D02*
Y0456060D01*
Y0457372D01*
X0417875Y0458028D01*
X0417219Y0458684D01*
X0416564D01*
X0414596Y0456060D02*
Y0458684D01*
X0412628D01*
X0411972Y0458028D01*
Y0456060D01*
X0410004Y0458684D02*
X0408692D01*
X0408036Y0458028D01*
Y0456060D01*
X0410004D01*
X0410660Y0456716D01*
X0410004Y0457372D01*
X0408036D01*
X0406724Y0456060D02*
X0404756D01*
X0404100Y0456716D01*
X0404756Y0457372D01*
X0406068D01*
X0406724Y0458028D01*
X0406068Y0458684D01*
X0404100D01*
X0402788Y0456060D02*
Y0456716D01*
X0402132D01*
Y0456060D01*
X0402788D01*
X0397541D02*
X0398853D01*
X0399509Y0456716D01*
Y0458028D01*
X0398853Y0458684D01*
X0397541D01*
X0396885Y0458028D01*
Y0457372D01*
X0399509D01*
X0395573Y0458684D02*
Y0456716D01*
X0394917Y0456060D01*
X0392949D01*
Y0458684D01*
X0421811Y0453383D02*
X0419187D01*
X0420499D01*
Y0449447D01*
X0417875Y0452071D02*
Y0449447D01*
Y0450759D01*
X0417219Y0451415D01*
X0416564Y0452071D01*
X0415907D01*
X0413284D02*
X0411972D01*
X0411316Y0451415D01*
Y0449447D01*
X0413284D01*
X0413940Y0450103D01*
X0413284Y0450759D01*
X0411316D01*
X0407380Y0452071D02*
X0409348D01*
X0410004Y0451415D01*
Y0450103D01*
X0409348Y0449447D01*
X0407380D01*
X0406068D02*
Y0453383D01*
Y0450759D02*
X0404100Y0452071D01*
X0406068Y0450759D02*
X0404100Y0449447D01*
X0400165D02*
X0401476D01*
X0402132Y0450103D01*
Y0451415D01*
X0401476Y0452071D01*
X0400165D01*
X0399509Y0451415D01*
Y0450759D01*
X0402132D01*
X0398197Y0452071D02*
Y0449447D01*
Y0450759D01*
X0397541Y0451415D01*
X0396885Y0452071D01*
X0396229D01*
X0421811Y0446770D02*
Y0444147D01*
X0420499Y0442835D01*
X0419187Y0444147D01*
Y0446770D01*
X0417875Y0446114D02*
X0417219Y0446770D01*
X0415907D01*
X0415252Y0446114D01*
Y0443491D01*
X0415907Y0442835D01*
X0417219D01*
X0417875Y0443491D01*
Y0446114D01*
X0537703Y0242087D02*
G03*
X0537703Y0242087I-0000223J0000000D01*
G01*
X0503427Y0179893D02*
Y0192492D01*
X0512876Y0179893D02*
Y0192492D01*
X0519838Y0173868D02*
Y0185368D01*
X0514338D02*
X0519838D01*
X0514338Y0173868D02*
Y0185368D01*
Y0173868D02*
X0519838D01*
X0526059Y0173789D02*
Y0185289D01*
X0520559D02*
X0526059D01*
X0520559Y0173789D02*
Y0185289D01*
Y0173789D02*
X0526059D01*
X0523533Y0186208D02*
X0532533D01*
X0523533D02*
Y0204208D01*
X0532533D01*
Y0186208D02*
Y0204208D01*
X0513927Y0186169D02*
X0522927D01*
X0513927D02*
Y0204169D01*
X0522927D01*
Y0186169D02*
Y0204169D01*
X0543209Y0300793D02*
Y0306293D01*
X0531709Y0300793D02*
X0543209D01*
X0531709D02*
Y0306293D01*
X0543209D01*
X0507526Y0243935D02*
X0513026D01*
X0507526D02*
Y0255435D01*
X0513026D01*
Y0243935D02*
Y0255435D01*
X0513943Y0243896D02*
X0519443D01*
X0513943D02*
Y0255396D01*
X0519443D01*
Y0243896D02*
Y0255396D01*
X0536890Y0242402D02*
Y0251063D01*
X0525472D02*
X0536890D01*
X0525472Y0242402D02*
Y0251063D01*
Y0242402D02*
X0536890D01*
X0537833Y0232250D02*
Y0237750D01*
X0549333D01*
Y0232250D02*
Y0237750D01*
X0537833Y0232250D02*
X0549333D01*
X0537911Y0225911D02*
Y0231412D01*
X0549411D01*
Y0225911D02*
Y0231412D01*
X0537911Y0225911D02*
X0549411D01*
X0539841Y0211620D02*
Y0217120D01*
X0551340D01*
Y0211620D02*
Y0217120D01*
X0539841Y0211620D02*
X0551340D01*
X0553221Y0202811D02*
Y0210811D01*
X0539221D02*
X0553221D01*
X0539221Y0202811D02*
Y0210811D01*
Y0202811D02*
X0553221D01*
Y0193520D02*
Y0201520D01*
X0539221D02*
X0553221D01*
X0539221Y0193520D02*
Y0201520D01*
Y0193520D02*
X0553221D01*
Y0184465D02*
Y0192465D01*
X0539221D02*
X0553221D01*
X0539221Y0184465D02*
Y0192465D01*
Y0184465D02*
X0553221D01*
X0505276Y0456060D02*
X0503964D01*
X0504620D01*
Y0458684D01*
X0505276D01*
X0501996D02*
Y0456060D01*
Y0457372D01*
X0501340Y0458028D01*
X0500684Y0458684D01*
X0500028D01*
X0498060Y0456060D02*
Y0458684D01*
X0496092D01*
X0495436Y0458028D01*
Y0456060D01*
X0493469Y0458684D02*
X0492157D01*
X0491501Y0458028D01*
Y0456060D01*
X0493469D01*
X0494124Y0456716D01*
X0493469Y0457372D01*
X0491501D01*
X0490189Y0456060D02*
X0488221D01*
X0487565Y0456716D01*
X0488221Y0457372D01*
X0489533D01*
X0490189Y0458028D01*
X0489533Y0458684D01*
X0487565D01*
X0486253Y0456060D02*
Y0456716D01*
X0485597D01*
Y0456060D01*
X0486253D01*
X0481005D02*
X0482317D01*
X0482973Y0456716D01*
Y0458028D01*
X0482317Y0458684D01*
X0481005D01*
X0480349Y0458028D01*
Y0457372D01*
X0482973D01*
X0479037Y0458684D02*
Y0456716D01*
X0478381Y0456060D01*
X0476414D01*
Y0458684D01*
X0505276Y0453383D02*
X0502652D01*
X0503964D01*
Y0449447D01*
X0501340Y0452071D02*
Y0449447D01*
Y0450759D01*
X0500684Y0451415D01*
X0500028Y0452071D01*
X0499372D01*
X0496748D02*
X0495436D01*
X0494780Y0451415D01*
Y0449447D01*
X0496748D01*
X0497404Y0450103D01*
X0496748Y0450759D01*
X0494780D01*
X0490845Y0452071D02*
X0492812D01*
X0493469Y0451415D01*
Y0450103D01*
X0492812Y0449447D01*
X0490845D01*
X0489533D02*
Y0453383D01*
Y0450759D02*
X0487565Y0452071D01*
X0489533Y0450759D02*
X0487565Y0449447D01*
X0483629D02*
X0484941D01*
X0485597Y0450103D01*
Y0451415D01*
X0484941Y0452071D01*
X0483629D01*
X0482973Y0451415D01*
Y0450759D01*
X0485597D01*
X0481661Y0452071D02*
Y0449447D01*
Y0450759D01*
X0481005Y0451415D01*
X0480349Y0452071D01*
X0479693D01*
X0505276Y0446770D02*
Y0444147D01*
X0503964Y0442835D01*
X0502652Y0444147D01*
Y0446770D01*
X0501340Y0446114D02*
X0500684Y0446770D01*
X0499372D01*
X0498716Y0446114D01*
Y0443491D01*
X0499372Y0442835D01*
X0500684D01*
X0501340Y0443491D01*
Y0446114D01*
D47*
X0153228Y0156771D02*
Y0153622D01*
X0151654D01*
X0151129Y0154147D01*
Y0154672D01*
X0151654Y0155196D01*
X0153228D01*
X0151654D01*
X0151129Y0155721D01*
Y0156246D01*
X0151654Y0156771D01*
X0153228D01*
X0150080Y0153622D02*
Y0155721D01*
X0149030Y0156771D01*
X0147981Y0155721D01*
Y0153622D01*
Y0155196D01*
X0150080D01*
X0146931Y0156771D02*
X0144832D01*
X0145882D01*
Y0153622D01*
X0143783Y0155196D02*
X0141684D01*
X0142733Y0156246D02*
Y0154147D01*
X0197204Y0151811D02*
X0194055D01*
Y0153385D01*
X0194580Y0153910D01*
X0195105D01*
X0195630Y0153385D01*
Y0151811D01*
Y0153385D01*
X0196154Y0153910D01*
X0196679D01*
X0197204Y0153385D01*
Y0151811D01*
X0194055Y0154960D02*
X0196154D01*
X0197204Y0156009D01*
X0196154Y0157059D01*
X0194055D01*
X0195630D01*
Y0154960D01*
X0197204Y0158108D02*
Y0160207D01*
Y0159158D01*
X0194055D01*
X0195630Y0161257D02*
Y0163356D01*
X0236693Y0156771D02*
Y0153622D01*
X0235119D01*
X0234594Y0154147D01*
Y0154672D01*
X0235119Y0155196D01*
X0236693D01*
X0235119D01*
X0234594Y0155721D01*
Y0156246D01*
X0235119Y0156771D01*
X0236693D01*
X0233544Y0153622D02*
Y0155721D01*
X0232495Y0156771D01*
X0231445Y0155721D01*
Y0153622D01*
Y0155196D01*
X0233544D01*
X0230396Y0156771D02*
X0228297D01*
X0229346D01*
Y0153622D01*
X0227247Y0155196D02*
X0225148D01*
X0226198Y0156246D02*
Y0154147D01*
X0280668Y0151811D02*
X0277520D01*
Y0153385D01*
X0278045Y0153910D01*
X0278569D01*
X0279094Y0153385D01*
Y0151811D01*
Y0153385D01*
X0279619Y0153910D01*
X0280144D01*
X0280668Y0153385D01*
Y0151811D01*
X0277520Y0154960D02*
X0279619D01*
X0280668Y0156009D01*
X0279619Y0157059D01*
X0277520D01*
X0279094D01*
Y0154960D01*
X0280668Y0158108D02*
Y0160207D01*
Y0159158D01*
X0277520D01*
X0279094Y0161257D02*
Y0163356D01*
X0320158Y0156771D02*
Y0153622D01*
X0318583D01*
X0318058Y0154147D01*
Y0154672D01*
X0318583Y0155196D01*
X0320158D01*
X0318583D01*
X0318058Y0155721D01*
Y0156246D01*
X0318583Y0156771D01*
X0320158D01*
X0317009Y0153622D02*
Y0155721D01*
X0315960Y0156771D01*
X0314910Y0155721D01*
Y0153622D01*
Y0155196D01*
X0317009D01*
X0313860Y0156771D02*
X0311761D01*
X0312811D01*
Y0153622D01*
X0310712Y0155196D02*
X0308613D01*
X0309662Y0156246D02*
Y0154147D01*
X0364133Y0151811D02*
X0360984D01*
Y0153385D01*
X0361509Y0153910D01*
X0362034D01*
X0362559Y0153385D01*
Y0151811D01*
Y0153385D01*
X0363083Y0153910D01*
X0363608D01*
X0364133Y0153385D01*
Y0151811D01*
X0360984Y0154960D02*
X0363083D01*
X0364133Y0156009D01*
X0363083Y0157059D01*
X0360984D01*
X0362559D01*
Y0154960D01*
X0364133Y0158108D02*
Y0160207D01*
Y0159158D01*
X0360984D01*
X0362559Y0161257D02*
Y0163356D01*
X0403622Y0156771D02*
Y0153622D01*
X0402048D01*
X0401523Y0154147D01*
Y0154672D01*
X0402048Y0155196D01*
X0403622D01*
X0402048D01*
X0401523Y0155721D01*
Y0156246D01*
X0402048Y0156771D01*
X0403622D01*
X0400473Y0153622D02*
Y0155721D01*
X0399424Y0156771D01*
X0398375Y0155721D01*
Y0153622D01*
Y0155196D01*
X0400473D01*
X0397325Y0156771D02*
X0395226D01*
X0396275D01*
Y0153622D01*
X0394176Y0155196D02*
X0392077D01*
X0393127Y0156246D02*
Y0154147D01*
X0447598Y0151811D02*
X0444449D01*
Y0153385D01*
X0444974Y0153910D01*
X0445498D01*
X0446023Y0153385D01*
Y0151811D01*
Y0153385D01*
X0446548Y0153910D01*
X0447073D01*
X0447598Y0153385D01*
Y0151811D01*
X0444449Y0154960D02*
X0446548D01*
X0447598Y0156009D01*
X0446548Y0157059D01*
X0444449D01*
X0446023D01*
Y0154960D01*
X0447598Y0158108D02*
Y0160207D01*
Y0159158D01*
X0444449D01*
X0446023Y0161257D02*
Y0163356D01*
X0487087Y0156771D02*
Y0153622D01*
X0485512D01*
X0484988Y0154147D01*
Y0154672D01*
X0485512Y0155196D01*
X0487087D01*
X0485512D01*
X0484988Y0155721D01*
Y0156246D01*
X0485512Y0156771D01*
X0487087D01*
X0483938Y0153622D02*
Y0155721D01*
X0482889Y0156771D01*
X0481839Y0155721D01*
Y0153622D01*
Y0155196D01*
X0483938D01*
X0480790Y0156771D02*
X0478690D01*
X0479740D01*
Y0153622D01*
X0477641Y0155196D02*
X0475542D01*
X0476591Y0156246D02*
Y0154147D01*
X0531062Y0151811D02*
X0527914D01*
Y0153385D01*
X0528438Y0153910D01*
X0528963D01*
X0529488Y0153385D01*
Y0151811D01*
Y0153385D01*
X0530013Y0153910D01*
X0530537D01*
X0531062Y0153385D01*
Y0151811D01*
X0527914Y0154960D02*
X0530013D01*
X0531062Y0156009D01*
X0530013Y0157059D01*
X0527914D01*
X0529488D01*
Y0154960D01*
X0531062Y0158108D02*
Y0160207D01*
Y0159158D01*
X0527914D01*
X0529488Y0161257D02*
Y0163356D01*
D73*
X0213666Y0151338D02*
G03*
X0213666Y0151338I-0000492J0000000D01*
G01*
Y0164330D02*
G03*
X0213666Y0164330I-0000492J0000000D01*
G01*
X0181776Y0208425D02*
G03*
X0181776Y0208425I-0000492J0000000D01*
G01*
X0150256Y0381276D02*
G03*
X0150256Y0381276I-0000492J0000000D01*
G01*
X0297130Y0151338D02*
G03*
X0297130Y0151338I-0000492J0000000D01*
G01*
Y0164330D02*
G03*
X0297130Y0164330I-0000492J0000000D01*
G01*
X0265240Y0208425D02*
G03*
X0265240Y0208425I-0000492J0000000D01*
G01*
X0233720Y0381276D02*
G03*
X0233720Y0381276I-0000492J0000000D01*
G01*
X0380595Y0151338D02*
G03*
X0380595Y0151338I-0000492J0000000D01*
G01*
Y0164330D02*
G03*
X0380595Y0164330I-0000492J0000000D01*
G01*
X0348705Y0208425D02*
G03*
X0348705Y0208425I-0000492J0000000D01*
G01*
X0317185Y0381276D02*
G03*
X0317185Y0381276I-0000492J0000000D01*
G01*
X0464059Y0151338D02*
G03*
X0464059Y0151338I-0000492J0000000D01*
G01*
Y0164330D02*
G03*
X0464059Y0164330I-0000492J0000000D01*
G01*
X0432169Y0208425D02*
G03*
X0432169Y0208425I-0000492J0000000D01*
G01*
X0400649Y0381276D02*
G03*
X0400649Y0381276I-0000492J0000000D01*
G01*
X0547524Y0151338D02*
G03*
X0547524Y0151338I-0000492J0000000D01*
G01*
Y0164330D02*
G03*
X0547524Y0164330I-0000492J0000000D01*
G01*
X0515634Y0208425D02*
G03*
X0515634Y0208425I-0000492J0000000D01*
G01*
X0484114Y0381276D02*
G03*
X0484114Y0381276I-0000492J0000000D01*
G01*
D74*
X0168551Y0191311D02*
G03*
X0168551Y0191311I-0000557J0000000D01*
G01*
X0208323Y0166850D02*
G03*
X0208323Y0166850I-0000449J0000000D01*
G01*
X0166654Y0204488D02*
G03*
X0166654Y0204488I-0000473J0000000D01*
G01*
X0165945Y0232362D02*
G03*
X0165945Y0232362I-0000473J0000000D01*
G01*
X0151024Y0282874D02*
G03*
X0151024Y0282874I-0000197J0000000D01*
G01*
X0168889Y0269055D02*
G03*
X0168889Y0269055I-0000424J0000000D01*
G01*
X0252015Y0191311D02*
G03*
X0252015Y0191311I-0000557J0000000D01*
G01*
X0291788Y0166850D02*
G03*
X0291788Y0166850I-0000449J0000000D01*
G01*
X0250119Y0204488D02*
G03*
X0250119Y0204488I-0000473J0000000D01*
G01*
X0249410Y0232362D02*
G03*
X0249410Y0232362I-0000473J0000000D01*
G01*
X0234488Y0282874D02*
G03*
X0234488Y0282874I-0000197J0000000D01*
G01*
X0252353Y0269055D02*
G03*
X0252353Y0269055I-0000424J0000000D01*
G01*
X0335480Y0191311D02*
G03*
X0335480Y0191311I-0000557J0000000D01*
G01*
X0375252Y0166850D02*
G03*
X0375252Y0166850I-0000449J0000000D01*
G01*
X0333583Y0204488D02*
G03*
X0333583Y0204488I-0000473J0000000D01*
G01*
X0332874Y0232362D02*
G03*
X0332874Y0232362I-0000473J0000000D01*
G01*
X0317953Y0282874D02*
G03*
X0317953Y0282874I-0000197J0000000D01*
G01*
X0335818Y0269055D02*
G03*
X0335818Y0269055I-0000424J0000000D01*
G01*
X0418944Y0191311D02*
G03*
X0418944Y0191311I-0000557J0000000D01*
G01*
X0458717Y0166850D02*
G03*
X0458717Y0166850I-0000449J0000000D01*
G01*
X0417048Y0204488D02*
G03*
X0417048Y0204488I-0000473J0000000D01*
G01*
X0416339Y0232362D02*
G03*
X0416339Y0232362I-0000473J0000000D01*
G01*
X0401417Y0282874D02*
G03*
X0401417Y0282874I-0000197J0000000D01*
G01*
X0419282Y0269055D02*
G03*
X0419282Y0269055I-0000424J0000000D01*
G01*
X0502409Y0191311D02*
G03*
X0502409Y0191311I-0000557J0000000D01*
G01*
X0542181Y0166850D02*
G03*
X0542181Y0166850I-0000449J0000000D01*
G01*
X0500512Y0204488D02*
G03*
X0500512Y0204488I-0000473J0000000D01*
G01*
X0499803Y0232362D02*
G03*
X0499803Y0232362I-0000473J0000000D01*
G01*
X0484882Y0282874D02*
G03*
X0484882Y0282874I-0000197J0000000D01*
G01*
X0502747Y0269055D02*
G03*
X0502747Y0269055I-0000424J0000000D01*
G01*
D75*
X0219001Y0158898D02*
Y0162835D01*
Y0151338D02*
Y0155275D01*
X0209252Y0155807D02*
Y0158366D01*
X0211713Y0151338D02*
X0219001D01*
X0211713Y0162835D02*
X0219001D01*
X0168248Y0241083D02*
Y0248760D01*
X0164114D02*
X0168248D01*
X0164114Y0241083D02*
Y0248760D01*
Y0241083D02*
X0168248D01*
X0209941Y0183366D02*
X0214075D01*
Y0175689D02*
Y0183366D01*
X0209941Y0175689D02*
X0214075D01*
X0209941D02*
Y0183366D01*
X0214567Y0175787D02*
X0218504D01*
X0214567D02*
Y0183268D01*
X0218504D01*
Y0175787D02*
Y0183268D01*
X0219001Y0171890D02*
Y0175827D01*
Y0164330D02*
Y0168268D01*
X0209252Y0168799D02*
Y0171358D01*
X0211713Y0164330D02*
X0219001D01*
X0211713Y0175827D02*
X0219001D01*
X0162894Y0186319D02*
X0167028D01*
X0162894D02*
Y0193996D01*
X0167028D01*
Y0186319D02*
Y0193996D01*
X0163681Y0182185D02*
X0167815D01*
Y0174508D02*
Y0182185D01*
X0163681Y0174508D02*
X0167815D01*
X0163681D02*
Y0182185D01*
X0193307Y0180905D02*
X0197244D01*
Y0173425D02*
Y0180905D01*
X0193307Y0173425D02*
X0197244D01*
X0193307D02*
Y0180905D01*
X0200886Y0181453D02*
Y0185389D01*
X0193406Y0181453D02*
X0200886D01*
X0193406D02*
Y0185389D01*
X0200886D01*
X0198465Y0217008D02*
Y0220946D01*
X0190984Y0217008D02*
X0198465D01*
X0190984D02*
Y0220946D01*
X0198465D01*
X0188189Y0213189D02*
X0192126D01*
Y0205709D02*
Y0213189D01*
X0188189Y0205709D02*
X0192126D01*
X0188189D02*
Y0213189D01*
X0175000Y0216142D02*
Y0220079D01*
X0167520Y0216142D02*
X0175000D01*
X0167520D02*
Y0220079D01*
X0175000D01*
X0187111Y0215984D02*
Y0219921D01*
Y0208425D02*
Y0212362D01*
X0177362Y0212894D02*
Y0215453D01*
X0179823Y0208425D02*
X0187111D01*
X0179823Y0219921D02*
X0187111D01*
X0205512Y0175787D02*
X0209449D01*
X0205512D02*
Y0183268D01*
X0209449D01*
Y0175787D02*
Y0183268D01*
X0207774Y0311023D02*
X0211711D01*
X0207774D02*
Y0318504D01*
X0211711D01*
Y0311023D02*
Y0318504D01*
X0171063Y0204370D02*
Y0211850D01*
X0167126D02*
X0171063D01*
X0167126Y0204370D02*
Y0211850D01*
Y0204370D02*
X0171063D01*
X0159055Y0199488D02*
X0166535D01*
Y0203425D01*
X0159055D02*
X0166535D01*
X0159055Y0199488D02*
Y0203425D01*
X0171063Y0195630D02*
Y0203110D01*
X0167126D02*
X0171063D01*
X0167126Y0195630D02*
Y0203110D01*
Y0195630D02*
X0171063D01*
X0175610Y0195571D02*
Y0203248D01*
X0171476D02*
X0175610D01*
X0171476Y0195571D02*
Y0203248D01*
Y0195571D02*
X0175610D01*
X0160000Y0205354D02*
Y0210866D01*
X0165512Y0205354D02*
Y0210866D01*
X0158543Y0208268D02*
Y0215748D01*
X0154606D02*
X0158543D01*
X0154606Y0208268D02*
Y0215748D01*
Y0208268D02*
X0158543D01*
X0157047Y0226299D02*
X0164527D01*
Y0230236D01*
X0157047D02*
X0164527D01*
X0157047Y0226299D02*
Y0230236D01*
X0151437Y0226594D02*
Y0234272D01*
X0147303D02*
X0151437D01*
X0147303Y0226594D02*
Y0234272D01*
Y0226594D02*
X0151437D01*
X0151339Y0235197D02*
Y0242677D01*
X0147402D02*
X0151339D01*
X0147402Y0235197D02*
Y0242677D01*
Y0235197D02*
X0151339D01*
X0148858Y0243622D02*
X0153189D01*
X0156732D01*
Y0248346D01*
X0148858D02*
X0156732D01*
X0148858Y0243622D02*
Y0248346D01*
X0156693Y0231791D02*
Y0239272D01*
X0152756D02*
X0156693D01*
X0152756Y0231791D02*
Y0239272D01*
Y0231791D02*
X0156693D01*
X0157480Y0231643D02*
Y0238071D01*
X0164173Y0231654D02*
Y0238081D01*
X0160827Y0212323D02*
Y0219803D01*
Y0212323D02*
X0164764D01*
Y0219803D01*
X0160827D02*
X0164764D01*
X0165000Y0230374D02*
Y0237854D01*
Y0230374D02*
X0168937D01*
Y0237854D01*
X0165000D02*
X0168937D01*
X0169449Y0230354D02*
Y0237835D01*
Y0230354D02*
X0173386D01*
Y0237835D01*
X0169449D02*
X0173386D01*
X0172894Y0241083D02*
Y0248760D01*
X0168760D02*
X0172894D01*
X0168760Y0241083D02*
Y0248760D01*
Y0241083D02*
X0172894D01*
X0161260Y0375448D02*
Y0382736D01*
X0149764Y0375448D02*
Y0382736D01*
X0154232Y0385197D02*
X0156791D01*
X0149764Y0375448D02*
X0153700D01*
X0157323D02*
X0161260D01*
X0149508Y0365099D02*
Y0372776D01*
Y0365099D02*
X0153642D01*
Y0372776D01*
X0149508D02*
X0153642D01*
X0164134Y0331614D02*
Y0339094D01*
Y0331614D02*
X0168071D01*
Y0339094D01*
X0164134D02*
X0168071D01*
X0189250Y0306791D02*
X0196927D01*
X0189250Y0302657D02*
Y0306791D01*
Y0302657D02*
X0196927D01*
Y0306791D01*
X0196789Y0307579D02*
X0204663D01*
X0196789Y0316063D02*
X0204663Y0316043D01*
X0151811Y0281890D02*
Y0287795D01*
X0155748Y0281890D02*
Y0287795D01*
X0151811Y0281890D02*
X0155748D01*
X0151811Y0287795D02*
X0155748D01*
X0162165Y0278150D02*
Y0285630D01*
X0158228D02*
X0162165D01*
X0158228Y0278150D02*
Y0285630D01*
Y0278150D02*
X0162165D01*
X0170925Y0276909D02*
Y0284587D01*
X0166791D02*
X0170925D01*
X0166791Y0276909D02*
Y0284587D01*
Y0276909D02*
X0170925D01*
X0159567Y0292520D02*
Y0296457D01*
X0167047D01*
Y0292520D02*
Y0296457D01*
X0159567Y0292520D02*
X0167047D01*
X0167776Y0292421D02*
X0175453D01*
Y0296555D01*
X0167776D02*
X0175453D01*
X0167776Y0292421D02*
Y0296555D01*
X0167087Y0285039D02*
X0174567D01*
Y0288976D01*
X0167087D02*
X0174567D01*
X0167087Y0285039D02*
Y0288976D01*
X0183917Y0290177D02*
X0191595D01*
X0183917Y0286043D02*
Y0290177D01*
Y0286043D02*
X0191595D01*
Y0290177D01*
X0183110Y0285591D02*
X0187047D01*
Y0278110D02*
Y0285591D01*
X0183110Y0278110D02*
X0187047D01*
X0183110D02*
Y0285591D01*
X0183917Y0277618D02*
X0191595D01*
X0183917Y0273484D02*
Y0277618D01*
Y0273484D02*
X0191595D01*
Y0277618D01*
X0185827Y0272284D02*
X0187041D01*
X0185866Y0269921D02*
X0187047D01*
X0187041D02*
X0189803D01*
X0187041Y0272284D02*
X0189803D01*
X0187041Y0271102D02*
Y0272284D01*
Y0269921D02*
Y0272284D01*
X0164213Y0249646D02*
X0167559D01*
Y0252992D01*
X0149055Y0249646D02*
X0152401D01*
X0149055D02*
Y0252992D01*
Y0264803D02*
Y0268150D01*
X0152401D01*
X0167559Y0264803D02*
Y0268150D01*
X0164213D02*
X0167559D01*
X0169488Y0255827D02*
Y0263307D01*
Y0255827D02*
X0173425D01*
Y0263307D01*
X0169488D02*
X0173425D01*
X0186319Y0244823D02*
Y0252500D01*
Y0244823D02*
X0190453D01*
Y0252500D01*
X0186319D02*
X0190453D01*
X0204823Y0242657D02*
X0212500D01*
X0204823Y0238524D02*
Y0242657D01*
Y0238524D02*
X0212500D01*
Y0242657D01*
X0190984Y0234134D02*
Y0241614D01*
Y0234134D02*
X0194921D01*
Y0241614D01*
X0190984D02*
X0194921D01*
X0195394Y0231496D02*
X0202874D01*
Y0235433D01*
X0195394D02*
X0202874D01*
X0195394Y0231496D02*
Y0235433D01*
X0195394Y0227165D02*
X0202874D01*
Y0231102D01*
X0195394D02*
X0202874D01*
X0195394Y0227165D02*
Y0231102D01*
X0302466Y0158898D02*
Y0162835D01*
Y0151338D02*
Y0155275D01*
X0292717Y0155807D02*
Y0158366D01*
X0295177Y0151338D02*
X0302466D01*
X0295177Y0162835D02*
X0302466D01*
X0251713Y0241083D02*
Y0248760D01*
X0247579D02*
X0251713D01*
X0247579Y0241083D02*
Y0248760D01*
Y0241083D02*
X0251713D01*
X0293406Y0183366D02*
X0297539D01*
Y0175689D02*
Y0183366D01*
X0293406Y0175689D02*
X0297539D01*
X0293406D02*
Y0183366D01*
X0298032Y0175787D02*
X0301969D01*
X0298032D02*
Y0183268D01*
X0301969D01*
Y0175787D02*
Y0183268D01*
X0302466Y0171890D02*
Y0175827D01*
Y0164330D02*
Y0168268D01*
X0292717Y0168799D02*
Y0171358D01*
X0295177Y0164330D02*
X0302466D01*
X0295177Y0175827D02*
X0302466D01*
X0246358Y0186319D02*
X0250492D01*
X0246358D02*
Y0193996D01*
X0250492D01*
Y0186319D02*
Y0193996D01*
X0247146Y0182185D02*
X0251280D01*
Y0174508D02*
Y0182185D01*
X0247146Y0174508D02*
X0251280D01*
X0247146D02*
Y0182185D01*
X0276772Y0180905D02*
X0280709D01*
Y0173425D02*
Y0180905D01*
X0276772Y0173425D02*
X0280709D01*
X0276772D02*
Y0180905D01*
X0284350Y0181453D02*
Y0185389D01*
X0276870Y0181453D02*
X0284350D01*
X0276870D02*
Y0185389D01*
X0284350D01*
X0281929Y0217008D02*
Y0220946D01*
X0274449Y0217008D02*
X0281929D01*
X0274449D02*
Y0220946D01*
X0281929D01*
X0271654Y0213189D02*
X0275591D01*
Y0205709D02*
Y0213189D01*
X0271654Y0205709D02*
X0275591D01*
X0271654D02*
Y0213189D01*
X0258465Y0216142D02*
Y0220079D01*
X0250984Y0216142D02*
X0258465D01*
X0250984D02*
Y0220079D01*
X0258465D01*
X0270576Y0215984D02*
Y0219921D01*
Y0208425D02*
Y0212362D01*
X0260827Y0212894D02*
Y0215453D01*
X0263287Y0208425D02*
X0270576D01*
X0263287Y0219921D02*
X0270576D01*
X0288977Y0175787D02*
X0292914D01*
X0288977D02*
Y0183268D01*
X0292914D01*
Y0175787D02*
Y0183268D01*
X0291238Y0311023D02*
X0295175D01*
X0291238D02*
Y0318504D01*
X0295175D01*
Y0311023D02*
Y0318504D01*
X0254527Y0204370D02*
Y0211850D01*
X0250590D02*
X0254527D01*
X0250590Y0204370D02*
Y0211850D01*
Y0204370D02*
X0254527D01*
X0242520Y0199488D02*
X0250000D01*
Y0203425D01*
X0242520D02*
X0250000D01*
X0242520Y0199488D02*
Y0203425D01*
X0254527Y0195630D02*
Y0203110D01*
X0250590D02*
X0254527D01*
X0250590Y0195630D02*
Y0203110D01*
Y0195630D02*
X0254527D01*
X0259075Y0195571D02*
Y0203248D01*
X0254941D02*
X0259075D01*
X0254941Y0195571D02*
Y0203248D01*
Y0195571D02*
X0259075D01*
X0243465Y0205354D02*
Y0210866D01*
X0248976Y0205354D02*
Y0210866D01*
X0242008Y0208268D02*
Y0215748D01*
X0238071D02*
X0242008D01*
X0238071Y0208268D02*
Y0215748D01*
Y0208268D02*
X0242008D01*
X0240512Y0226299D02*
X0247992D01*
Y0230236D01*
X0240512D02*
X0247992D01*
X0240512Y0226299D02*
Y0230236D01*
X0234902Y0226594D02*
Y0234272D01*
X0230768D02*
X0234902D01*
X0230768Y0226594D02*
Y0234272D01*
Y0226594D02*
X0234902D01*
X0234803Y0235197D02*
Y0242677D01*
X0230866D02*
X0234803D01*
X0230866Y0235197D02*
Y0242677D01*
Y0235197D02*
X0234803D01*
X0232323Y0243622D02*
X0236653D01*
X0240197D01*
Y0248346D01*
X0232323D02*
X0240197D01*
X0232323Y0243622D02*
Y0248346D01*
X0240158Y0231791D02*
Y0239272D01*
X0236220D02*
X0240158D01*
X0236220Y0231791D02*
Y0239272D01*
Y0231791D02*
X0240158D01*
X0240945Y0231643D02*
Y0238071D01*
X0247638Y0231654D02*
Y0238081D01*
X0244291Y0212323D02*
Y0219803D01*
Y0212323D02*
X0248228D01*
Y0219803D01*
X0244291D02*
X0248228D01*
X0248464Y0230374D02*
Y0237854D01*
Y0230374D02*
X0252401D01*
Y0237854D01*
X0248464D02*
X0252401D01*
X0252913Y0230354D02*
Y0237835D01*
Y0230354D02*
X0256850D01*
Y0237835D01*
X0252913D02*
X0256850D01*
X0256358Y0241083D02*
Y0248760D01*
X0252224D02*
X0256358D01*
X0252224Y0241083D02*
Y0248760D01*
Y0241083D02*
X0256358D01*
X0244724Y0375448D02*
Y0382736D01*
X0233228Y0375448D02*
Y0382736D01*
X0237697Y0385197D02*
X0240256D01*
X0233228Y0375448D02*
X0237165D01*
X0240787D02*
X0244724D01*
X0232972Y0365099D02*
Y0372776D01*
Y0365099D02*
X0237106D01*
Y0372776D01*
X0232972D02*
X0237106D01*
X0247598Y0331614D02*
Y0339094D01*
Y0331614D02*
X0251535D01*
Y0339094D01*
X0247598D02*
X0251535D01*
X0272714Y0306791D02*
X0280392D01*
X0272714Y0302657D02*
Y0306791D01*
Y0302657D02*
X0280392D01*
Y0306791D01*
X0280254Y0307579D02*
X0288128D01*
X0280254Y0316063D02*
X0288128Y0316043D01*
X0235276Y0281890D02*
Y0287795D01*
X0239213Y0281890D02*
Y0287795D01*
X0235276Y0281890D02*
X0239213D01*
X0235276Y0287795D02*
X0239213D01*
X0245630Y0278150D02*
Y0285630D01*
X0241693D02*
X0245630D01*
X0241693Y0278150D02*
Y0285630D01*
Y0278150D02*
X0245630D01*
X0254390Y0276909D02*
Y0284587D01*
X0250256D02*
X0254390D01*
X0250256Y0276909D02*
Y0284587D01*
Y0276909D02*
X0254390D01*
X0243032Y0292520D02*
Y0296457D01*
X0250512D01*
Y0292520D02*
Y0296457D01*
X0243032Y0292520D02*
X0250512D01*
X0251240Y0292421D02*
X0258917D01*
Y0296555D01*
X0251240D02*
X0258917D01*
X0251240Y0292421D02*
Y0296555D01*
X0250551Y0285039D02*
X0258032D01*
Y0288976D01*
X0250551D02*
X0258032D01*
X0250551Y0285039D02*
Y0288976D01*
X0267382Y0290177D02*
X0275059D01*
X0267382Y0286043D02*
Y0290177D01*
Y0286043D02*
X0275059D01*
Y0290177D01*
X0266575Y0285591D02*
X0270512D01*
Y0278110D02*
Y0285591D01*
X0266575Y0278110D02*
X0270512D01*
X0266575D02*
Y0285591D01*
X0267382Y0277618D02*
X0275059D01*
X0267382Y0273484D02*
Y0277618D01*
Y0273484D02*
X0275059D01*
Y0277618D01*
X0269291Y0272284D02*
X0270505D01*
X0269331Y0269921D02*
X0270512D01*
X0270505D02*
X0273268D01*
X0270505Y0272284D02*
X0273268D01*
X0270505Y0271102D02*
Y0272284D01*
Y0269921D02*
Y0272284D01*
X0247677Y0249646D02*
X0251024D01*
Y0252992D01*
X0232520Y0249646D02*
X0235866D01*
X0232520D02*
Y0252992D01*
Y0264803D02*
Y0268150D01*
X0235866D01*
X0251024Y0264803D02*
Y0268150D01*
X0247677D02*
X0251024D01*
X0252953Y0255827D02*
Y0263307D01*
Y0255827D02*
X0256890D01*
Y0263307D01*
X0252953D02*
X0256890D01*
X0269783Y0244823D02*
Y0252500D01*
Y0244823D02*
X0273917D01*
Y0252500D01*
X0269783D02*
X0273917D01*
X0288287Y0242657D02*
X0295965D01*
X0288287Y0238524D02*
Y0242657D01*
Y0238524D02*
X0295965D01*
Y0242657D01*
X0274449Y0234134D02*
Y0241614D01*
Y0234134D02*
X0278386D01*
Y0241614D01*
X0274449D02*
X0278386D01*
X0278858Y0231496D02*
X0286339D01*
Y0235433D01*
X0278858D02*
X0286339D01*
X0278858Y0231496D02*
Y0235433D01*
X0278858Y0227165D02*
X0286339D01*
Y0231102D01*
X0278858D02*
X0286339D01*
X0278858Y0227165D02*
Y0231102D01*
X0385930Y0158898D02*
Y0162835D01*
Y0151338D02*
Y0155275D01*
X0376181Y0155807D02*
Y0158366D01*
X0378642Y0151338D02*
X0385930D01*
X0378642Y0162835D02*
X0385930D01*
X0335177Y0241083D02*
Y0248760D01*
X0331043D02*
X0335177D01*
X0331043Y0241083D02*
Y0248760D01*
Y0241083D02*
X0335177D01*
X0376870Y0183366D02*
X0381004D01*
Y0175689D02*
Y0183366D01*
X0376870Y0175689D02*
X0381004D01*
X0376870D02*
Y0183366D01*
X0381496Y0175787D02*
X0385433D01*
X0381496D02*
Y0183268D01*
X0385433D01*
Y0175787D02*
Y0183268D01*
X0385930Y0171890D02*
Y0175827D01*
Y0164330D02*
Y0168268D01*
X0376181Y0168799D02*
Y0171358D01*
X0378642Y0164330D02*
X0385930D01*
X0378642Y0175827D02*
X0385930D01*
X0329823Y0186319D02*
X0333957D01*
X0329823D02*
Y0193996D01*
X0333957D01*
Y0186319D02*
Y0193996D01*
X0330610Y0182185D02*
X0334744D01*
Y0174508D02*
Y0182185D01*
X0330610Y0174508D02*
X0334744D01*
X0330610D02*
Y0182185D01*
X0360236Y0180905D02*
X0364173D01*
Y0173425D02*
Y0180905D01*
X0360236Y0173425D02*
X0364173D01*
X0360236D02*
Y0180905D01*
X0367815Y0181453D02*
Y0185389D01*
X0360335Y0181453D02*
X0367815D01*
X0360335D02*
Y0185389D01*
X0367815D01*
X0365394Y0217008D02*
Y0220946D01*
X0357913Y0217008D02*
X0365394D01*
X0357913D02*
Y0220946D01*
X0365394D01*
X0355118Y0213189D02*
X0359055D01*
Y0205709D02*
Y0213189D01*
X0355118Y0205709D02*
X0359055D01*
X0355118D02*
Y0213189D01*
X0341929Y0216142D02*
Y0220079D01*
X0334449Y0216142D02*
X0341929D01*
X0334449D02*
Y0220079D01*
X0341929D01*
X0354040Y0215984D02*
Y0219921D01*
Y0208425D02*
Y0212362D01*
X0344291Y0212894D02*
Y0215453D01*
X0346752Y0208425D02*
X0354040D01*
X0346752Y0219921D02*
X0354040D01*
X0372441Y0175787D02*
X0376378D01*
X0372441D02*
Y0183268D01*
X0376378D01*
Y0175787D02*
Y0183268D01*
X0374703Y0311023D02*
X0378640D01*
X0374703D02*
Y0318504D01*
X0378640D01*
Y0311023D02*
Y0318504D01*
X0337992Y0204370D02*
Y0211850D01*
X0334055D02*
X0337992D01*
X0334055Y0204370D02*
Y0211850D01*
Y0204370D02*
X0337992D01*
X0325984Y0199488D02*
X0333465D01*
Y0203425D01*
X0325984D02*
X0333465D01*
X0325984Y0199488D02*
Y0203425D01*
X0337992Y0195630D02*
Y0203110D01*
X0334055D02*
X0337992D01*
X0334055Y0195630D02*
Y0203110D01*
Y0195630D02*
X0337992D01*
X0342539Y0195571D02*
Y0203248D01*
X0338405D02*
X0342539D01*
X0338405Y0195571D02*
Y0203248D01*
Y0195571D02*
X0342539D01*
X0326929Y0205354D02*
Y0210866D01*
X0332441Y0205354D02*
Y0210866D01*
X0325472Y0208268D02*
Y0215748D01*
X0321535D02*
X0325472D01*
X0321535Y0208268D02*
Y0215748D01*
Y0208268D02*
X0325472D01*
X0323976Y0226299D02*
X0331457D01*
Y0230236D01*
X0323976D02*
X0331457D01*
X0323976Y0226299D02*
Y0230236D01*
X0318366Y0226594D02*
Y0234272D01*
X0314232D02*
X0318366D01*
X0314232Y0226594D02*
Y0234272D01*
Y0226594D02*
X0318366D01*
X0318268Y0235197D02*
Y0242677D01*
X0314331D02*
X0318268D01*
X0314331Y0235197D02*
Y0242677D01*
Y0235197D02*
X0318268D01*
X0315787Y0243622D02*
X0320118D01*
X0323661D01*
Y0248346D01*
X0315787D02*
X0323661D01*
X0315787Y0243622D02*
Y0248346D01*
X0323622Y0231791D02*
Y0239272D01*
X0319685D02*
X0323622D01*
X0319685Y0231791D02*
Y0239272D01*
Y0231791D02*
X0323622D01*
X0324409Y0231643D02*
Y0238071D01*
X0331102Y0231654D02*
Y0238081D01*
X0327756Y0212323D02*
Y0219803D01*
Y0212323D02*
X0331693D01*
Y0219803D01*
X0327756D02*
X0331693D01*
X0331929Y0230374D02*
Y0237854D01*
Y0230374D02*
X0335866D01*
Y0237854D01*
X0331929D02*
X0335866D01*
X0336378Y0230354D02*
Y0237835D01*
Y0230354D02*
X0340315D01*
Y0237835D01*
X0336378D02*
X0340315D01*
X0339823Y0241083D02*
Y0248760D01*
X0335689D02*
X0339823D01*
X0335689Y0241083D02*
Y0248760D01*
Y0241083D02*
X0339823D01*
X0328189Y0375448D02*
Y0382736D01*
X0316693Y0375448D02*
Y0382736D01*
X0321161Y0385197D02*
X0323721D01*
X0316693Y0375448D02*
X0320630D01*
X0324252D02*
X0328189D01*
X0316437Y0365099D02*
Y0372776D01*
Y0365099D02*
X0320571D01*
Y0372776D01*
X0316437D02*
X0320571D01*
X0331063Y0331614D02*
Y0339094D01*
Y0331614D02*
X0335000D01*
Y0339094D01*
X0331063D02*
X0335000D01*
X0356179Y0306791D02*
X0363856D01*
X0356179Y0302657D02*
Y0306791D01*
Y0302657D02*
X0363856D01*
Y0306791D01*
X0363719Y0307579D02*
X0371592D01*
X0363719Y0316063D02*
X0371592Y0316043D01*
X0318740Y0281890D02*
Y0287795D01*
X0322677Y0281890D02*
Y0287795D01*
X0318740Y0281890D02*
X0322677D01*
X0318740Y0287795D02*
X0322677D01*
X0329095Y0278150D02*
Y0285630D01*
X0325157D02*
X0329095D01*
X0325157Y0278150D02*
Y0285630D01*
Y0278150D02*
X0329095D01*
X0337854Y0276909D02*
Y0284587D01*
X0333720D02*
X0337854D01*
X0333720Y0276909D02*
Y0284587D01*
Y0276909D02*
X0337854D01*
X0326496Y0292520D02*
Y0296457D01*
X0333976D01*
Y0292520D02*
Y0296457D01*
X0326496Y0292520D02*
X0333976D01*
X0334705Y0292421D02*
X0342382D01*
Y0296555D01*
X0334705D02*
X0342382D01*
X0334705Y0292421D02*
Y0296555D01*
X0334016Y0285039D02*
X0341496D01*
Y0288976D01*
X0334016D02*
X0341496D01*
X0334016Y0285039D02*
Y0288976D01*
X0350847Y0290177D02*
X0358524D01*
X0350847Y0286043D02*
Y0290177D01*
Y0286043D02*
X0358524D01*
Y0290177D01*
X0350039Y0285591D02*
X0353976D01*
Y0278110D02*
Y0285591D01*
X0350039Y0278110D02*
X0353976D01*
X0350039D02*
Y0285591D01*
X0350847Y0277618D02*
X0358524D01*
X0350847Y0273484D02*
Y0277618D01*
Y0273484D02*
X0358524D01*
Y0277618D01*
X0352756Y0272284D02*
X0353970D01*
X0352795Y0269921D02*
X0353976D01*
X0353970D02*
X0356732D01*
X0353970Y0272284D02*
X0356732D01*
X0353970Y0271102D02*
Y0272284D01*
Y0269921D02*
Y0272284D01*
X0331142Y0249646D02*
X0334488D01*
Y0252992D01*
X0315984Y0249646D02*
X0319331D01*
X0315984D02*
Y0252992D01*
Y0264803D02*
Y0268150D01*
X0319331D01*
X0334488Y0264803D02*
Y0268150D01*
X0331142D02*
X0334488D01*
X0336417Y0255827D02*
Y0263307D01*
Y0255827D02*
X0340354D01*
Y0263307D01*
X0336417D02*
X0340354D01*
X0353248Y0244823D02*
Y0252500D01*
Y0244823D02*
X0357382D01*
Y0252500D01*
X0353248D02*
X0357382D01*
X0371752Y0242657D02*
X0379429D01*
X0371752Y0238524D02*
Y0242657D01*
Y0238524D02*
X0379429D01*
Y0242657D01*
X0357913Y0234134D02*
Y0241614D01*
Y0234134D02*
X0361850D01*
Y0241614D01*
X0357913D02*
X0361850D01*
X0362323Y0231496D02*
X0369803D01*
Y0235433D01*
X0362323D02*
X0369803D01*
X0362323Y0231496D02*
Y0235433D01*
X0362323Y0227165D02*
X0369803D01*
Y0231102D01*
X0362323D02*
X0369803D01*
X0362323Y0227165D02*
Y0231102D01*
X0469395Y0158898D02*
Y0162835D01*
Y0151338D02*
Y0155275D01*
X0459646Y0155807D02*
Y0158366D01*
X0462106Y0151338D02*
X0469395D01*
X0462106Y0162835D02*
X0469395D01*
X0418642Y0241083D02*
Y0248760D01*
X0414508D02*
X0418642D01*
X0414508Y0241083D02*
Y0248760D01*
Y0241083D02*
X0418642D01*
X0460335Y0183366D02*
X0464469D01*
Y0175689D02*
Y0183366D01*
X0460335Y0175689D02*
X0464469D01*
X0460335D02*
Y0183366D01*
X0464961Y0175787D02*
X0468898D01*
X0464961D02*
Y0183268D01*
X0468898D01*
Y0175787D02*
Y0183268D01*
X0469395Y0171890D02*
Y0175827D01*
Y0164330D02*
Y0168268D01*
X0459646Y0168799D02*
Y0171358D01*
X0462106Y0164330D02*
X0469395D01*
X0462106Y0175827D02*
X0469395D01*
X0413287Y0186319D02*
X0417421D01*
X0413287D02*
Y0193996D01*
X0417421D01*
Y0186319D02*
Y0193996D01*
X0414075Y0182185D02*
X0418209D01*
Y0174508D02*
Y0182185D01*
X0414075Y0174508D02*
X0418209D01*
X0414075D02*
Y0182185D01*
X0443701Y0180905D02*
X0447638D01*
Y0173425D02*
Y0180905D01*
X0443701Y0173425D02*
X0447638D01*
X0443701D02*
Y0180905D01*
X0451280Y0181453D02*
Y0185389D01*
X0443799Y0181453D02*
X0451280D01*
X0443799D02*
Y0185389D01*
X0451280D01*
X0448858Y0217008D02*
Y0220946D01*
X0441378Y0217008D02*
X0448858D01*
X0441378D02*
Y0220946D01*
X0448858D01*
X0438583Y0213189D02*
X0442520D01*
Y0205709D02*
Y0213189D01*
X0438583Y0205709D02*
X0442520D01*
X0438583D02*
Y0213189D01*
X0425394Y0216142D02*
Y0220079D01*
X0417913Y0216142D02*
X0425394D01*
X0417913D02*
Y0220079D01*
X0425394D01*
X0437505Y0215984D02*
Y0219921D01*
Y0208425D02*
Y0212362D01*
X0427756Y0212894D02*
Y0215453D01*
X0430217Y0208425D02*
X0437505D01*
X0430217Y0219921D02*
X0437505D01*
X0455906Y0175787D02*
X0459843D01*
X0455906D02*
Y0183268D01*
X0459843D01*
Y0175787D02*
Y0183268D01*
X0458167Y0311023D02*
X0462104D01*
X0458167D02*
Y0318504D01*
X0462104D01*
Y0311023D02*
Y0318504D01*
X0421457Y0204370D02*
Y0211850D01*
X0417520D02*
X0421457D01*
X0417520Y0204370D02*
Y0211850D01*
Y0204370D02*
X0421457D01*
X0409449Y0199488D02*
X0416929D01*
Y0203425D01*
X0409449D02*
X0416929D01*
X0409449Y0199488D02*
Y0203425D01*
X0421457Y0195630D02*
Y0203110D01*
X0417520D02*
X0421457D01*
X0417520Y0195630D02*
Y0203110D01*
Y0195630D02*
X0421457D01*
X0426004Y0195571D02*
Y0203248D01*
X0421870D02*
X0426004D01*
X0421870Y0195571D02*
Y0203248D01*
Y0195571D02*
X0426004D01*
X0410394Y0205354D02*
Y0210866D01*
X0415906Y0205354D02*
Y0210866D01*
X0408937Y0208268D02*
Y0215748D01*
X0405000D02*
X0408937D01*
X0405000Y0208268D02*
Y0215748D01*
Y0208268D02*
X0408937D01*
X0407441Y0226299D02*
X0414921D01*
Y0230236D01*
X0407441D02*
X0414921D01*
X0407441Y0226299D02*
Y0230236D01*
X0401831Y0226594D02*
Y0234272D01*
X0397697D02*
X0401831D01*
X0397697Y0226594D02*
Y0234272D01*
Y0226594D02*
X0401831D01*
X0401732Y0235197D02*
Y0242677D01*
X0397795D02*
X0401732D01*
X0397795Y0235197D02*
Y0242677D01*
Y0235197D02*
X0401732D01*
X0399252Y0243622D02*
X0403583D01*
X0407126D01*
Y0248346D01*
X0399252D02*
X0407126D01*
X0399252Y0243622D02*
Y0248346D01*
X0407087Y0231791D02*
Y0239272D01*
X0403150D02*
X0407087D01*
X0403150Y0231791D02*
Y0239272D01*
Y0231791D02*
X0407087D01*
X0407874Y0231643D02*
Y0238071D01*
X0414567Y0231654D02*
Y0238081D01*
X0411221Y0212323D02*
Y0219803D01*
Y0212323D02*
X0415158D01*
Y0219803D01*
X0411221D02*
X0415158D01*
X0415394Y0230374D02*
Y0237854D01*
Y0230374D02*
X0419331D01*
Y0237854D01*
X0415394D02*
X0419331D01*
X0419842Y0230354D02*
Y0237835D01*
Y0230354D02*
X0423779D01*
Y0237835D01*
X0419842D02*
X0423779D01*
X0423287Y0241083D02*
Y0248760D01*
X0419153D02*
X0423287D01*
X0419153Y0241083D02*
Y0248760D01*
Y0241083D02*
X0423287D01*
X0411654Y0375448D02*
Y0382736D01*
X0400157Y0375448D02*
Y0382736D01*
X0404626Y0385197D02*
X0407185D01*
X0400157Y0375448D02*
X0404094D01*
X0407717D02*
X0411654D01*
X0399902Y0365099D02*
Y0372776D01*
Y0365099D02*
X0404035D01*
Y0372776D01*
X0399902D02*
X0404035D01*
X0414528Y0331614D02*
Y0339094D01*
Y0331614D02*
X0418465D01*
Y0339094D01*
X0414528D02*
X0418465D01*
X0439644Y0306791D02*
X0447321D01*
X0439644Y0302657D02*
Y0306791D01*
Y0302657D02*
X0447321D01*
Y0306791D01*
X0447183Y0307579D02*
X0455057D01*
X0447183Y0316063D02*
X0455057Y0316043D01*
X0402205Y0281890D02*
Y0287795D01*
X0406142Y0281890D02*
Y0287795D01*
X0402205Y0281890D02*
X0406142D01*
X0402205Y0287795D02*
X0406142D01*
X0412559Y0278150D02*
Y0285630D01*
X0408622D02*
X0412559D01*
X0408622Y0278150D02*
Y0285630D01*
Y0278150D02*
X0412559D01*
X0421319Y0276909D02*
Y0284587D01*
X0417185D02*
X0421319D01*
X0417185Y0276909D02*
Y0284587D01*
Y0276909D02*
X0421319D01*
X0409961Y0292520D02*
Y0296457D01*
X0417441D01*
Y0292520D02*
Y0296457D01*
X0409961Y0292520D02*
X0417441D01*
X0418169Y0292421D02*
X0425846D01*
Y0296555D01*
X0418169D02*
X0425846D01*
X0418169Y0292421D02*
Y0296555D01*
X0417480Y0285039D02*
X0424961D01*
Y0288976D01*
X0417480D02*
X0424961D01*
X0417480Y0285039D02*
Y0288976D01*
X0434311Y0290177D02*
X0441988D01*
X0434311Y0286043D02*
Y0290177D01*
Y0286043D02*
X0441988D01*
Y0290177D01*
X0433504Y0285591D02*
X0437441D01*
Y0278110D02*
Y0285591D01*
X0433504Y0278110D02*
X0437441D01*
X0433504D02*
Y0285591D01*
X0434311Y0277618D02*
X0441988D01*
X0434311Y0273484D02*
Y0277618D01*
Y0273484D02*
X0441988D01*
Y0277618D01*
X0436221Y0272284D02*
X0437434D01*
X0436260Y0269921D02*
X0437441D01*
X0437434D02*
X0440197D01*
X0437434Y0272284D02*
X0440197D01*
X0437434Y0271102D02*
Y0272284D01*
Y0269921D02*
Y0272284D01*
X0414606Y0249646D02*
X0417953D01*
Y0252992D01*
X0399449Y0249646D02*
X0402795D01*
X0399449D02*
Y0252992D01*
Y0264803D02*
Y0268150D01*
X0402795D01*
X0417953Y0264803D02*
Y0268150D01*
X0414606D02*
X0417953D01*
X0419882Y0255827D02*
Y0263307D01*
Y0255827D02*
X0423819D01*
Y0263307D01*
X0419882D02*
X0423819D01*
X0436713Y0244823D02*
Y0252500D01*
Y0244823D02*
X0440846D01*
Y0252500D01*
X0436713D02*
X0440846D01*
X0455217Y0242657D02*
X0462894D01*
X0455217Y0238524D02*
Y0242657D01*
Y0238524D02*
X0462894D01*
Y0242657D01*
X0441378Y0234134D02*
Y0241614D01*
Y0234134D02*
X0445315D01*
Y0241614D01*
X0441378D02*
X0445315D01*
X0445787Y0231496D02*
X0453268D01*
Y0235433D01*
X0445787D02*
X0453268D01*
X0445787Y0231496D02*
Y0235433D01*
X0445787Y0227165D02*
X0453268D01*
Y0231102D01*
X0445787D02*
X0453268D01*
X0445787Y0227165D02*
Y0231102D01*
X0552859Y0158898D02*
Y0162835D01*
Y0151338D02*
Y0155275D01*
X0543110Y0155807D02*
Y0158366D01*
X0545571Y0151338D02*
X0552859D01*
X0545571Y0162835D02*
X0552859D01*
X0502106Y0241083D02*
Y0248760D01*
X0497972D02*
X0502106D01*
X0497972Y0241083D02*
Y0248760D01*
Y0241083D02*
X0502106D01*
X0543799Y0183366D02*
X0547933D01*
Y0175689D02*
Y0183366D01*
X0543799Y0175689D02*
X0547933D01*
X0543799D02*
Y0183366D01*
X0548425Y0175787D02*
X0552362D01*
X0548425D02*
Y0183268D01*
X0552362D01*
Y0175787D02*
Y0183268D01*
X0552859Y0171890D02*
Y0175827D01*
Y0164330D02*
Y0168268D01*
X0543110Y0168799D02*
Y0171358D01*
X0545571Y0164330D02*
X0552859D01*
X0545571Y0175827D02*
X0552859D01*
X0496752Y0186319D02*
X0500886D01*
X0496752D02*
Y0193996D01*
X0500886D01*
Y0186319D02*
Y0193996D01*
X0497540Y0182185D02*
X0501673D01*
Y0174508D02*
Y0182185D01*
X0497540Y0174508D02*
X0501673D01*
X0497540D02*
Y0182185D01*
X0527165Y0180905D02*
X0531103D01*
Y0173425D02*
Y0180905D01*
X0527165Y0173425D02*
X0531103D01*
X0527165D02*
Y0180905D01*
X0534744Y0181453D02*
Y0185389D01*
X0527264Y0181453D02*
X0534744D01*
X0527264D02*
Y0185389D01*
X0534744D01*
X0532323Y0217008D02*
Y0220946D01*
X0524843Y0217008D02*
X0532323D01*
X0524843D02*
Y0220946D01*
X0532323D01*
X0522047Y0213189D02*
X0525984D01*
Y0205709D02*
Y0213189D01*
X0522047Y0205709D02*
X0525984D01*
X0522047D02*
Y0213189D01*
X0508858Y0216142D02*
Y0220079D01*
X0501378Y0216142D02*
X0508858D01*
X0501378D02*
Y0220079D01*
X0508858D01*
X0520969Y0215984D02*
Y0219921D01*
Y0208425D02*
Y0212362D01*
X0511220Y0212894D02*
Y0215453D01*
X0513681Y0208425D02*
X0520969D01*
X0513681Y0219921D02*
X0520969D01*
X0539370Y0175787D02*
X0543307D01*
X0539370D02*
Y0183268D01*
X0543307D01*
Y0175787D02*
Y0183268D01*
X0541632Y0311023D02*
X0545569D01*
X0541632D02*
Y0318504D01*
X0545569D01*
Y0311023D02*
Y0318504D01*
X0504921Y0204370D02*
Y0211850D01*
X0500984D02*
X0504921D01*
X0500984Y0204370D02*
Y0211850D01*
Y0204370D02*
X0504921D01*
X0492913Y0199488D02*
X0500394D01*
Y0203425D01*
X0492913D02*
X0500394D01*
X0492913Y0199488D02*
Y0203425D01*
X0504921Y0195630D02*
Y0203110D01*
X0500984D02*
X0504921D01*
X0500984Y0195630D02*
Y0203110D01*
Y0195630D02*
X0504921D01*
X0509469Y0195571D02*
Y0203248D01*
X0505335D02*
X0509469D01*
X0505335Y0195571D02*
Y0203248D01*
Y0195571D02*
X0509469D01*
X0493858Y0205354D02*
Y0210866D01*
X0499370Y0205354D02*
Y0210866D01*
X0492402Y0208268D02*
Y0215748D01*
X0488465D02*
X0492402D01*
X0488465Y0208268D02*
Y0215748D01*
Y0208268D02*
X0492402D01*
X0490906Y0226299D02*
X0498386D01*
Y0230236D01*
X0490906D02*
X0498386D01*
X0490906Y0226299D02*
Y0230236D01*
X0485295Y0226594D02*
Y0234272D01*
X0481161D02*
X0485295D01*
X0481161Y0226594D02*
Y0234272D01*
Y0226594D02*
X0485295D01*
X0485197Y0235197D02*
Y0242677D01*
X0481260D02*
X0485197D01*
X0481260Y0235197D02*
Y0242677D01*
Y0235197D02*
X0485197D01*
X0482717Y0243622D02*
X0487047D01*
X0490590D01*
Y0248346D01*
X0482717D02*
X0490590D01*
X0482717Y0243622D02*
Y0248346D01*
X0490551Y0231791D02*
Y0239272D01*
X0486614D02*
X0490551D01*
X0486614Y0231791D02*
Y0239272D01*
Y0231791D02*
X0490551D01*
X0491339Y0231643D02*
Y0238071D01*
X0498032Y0231654D02*
Y0238081D01*
X0494685Y0212323D02*
Y0219803D01*
Y0212323D02*
X0498622D01*
Y0219803D01*
X0494685D02*
X0498622D01*
X0498858Y0230374D02*
Y0237854D01*
Y0230374D02*
X0502795D01*
Y0237854D01*
X0498858D02*
X0502795D01*
X0503307Y0230354D02*
Y0237835D01*
Y0230354D02*
X0507244D01*
Y0237835D01*
X0503307D02*
X0507244D01*
X0506752Y0241083D02*
Y0248760D01*
X0502618D02*
X0506752D01*
X0502618Y0241083D02*
Y0248760D01*
Y0241083D02*
X0506752D01*
X0495118Y0375448D02*
Y0382736D01*
X0483622Y0375448D02*
Y0382736D01*
X0488091Y0385197D02*
X0490650D01*
X0483622Y0375448D02*
X0487559D01*
X0491181D02*
X0495118D01*
X0483366Y0365099D02*
Y0372776D01*
Y0365099D02*
X0487500D01*
Y0372776D01*
X0483366D02*
X0487500D01*
X0497992Y0331614D02*
Y0339094D01*
Y0331614D02*
X0501929D01*
Y0339094D01*
X0497992D02*
X0501929D01*
X0523108Y0306791D02*
X0530785D01*
X0523108Y0302657D02*
Y0306791D01*
Y0302657D02*
X0530785D01*
Y0306791D01*
X0530648Y0307579D02*
X0538522D01*
X0530648Y0316063D02*
X0538522Y0316043D01*
X0485669Y0281890D02*
Y0287795D01*
X0489606Y0281890D02*
Y0287795D01*
X0485669Y0281890D02*
X0489606D01*
X0485669Y0287795D02*
X0489606D01*
X0496024Y0278150D02*
Y0285630D01*
X0492087D02*
X0496024D01*
X0492087Y0278150D02*
Y0285630D01*
Y0278150D02*
X0496024D01*
X0504783Y0276909D02*
Y0284587D01*
X0500650D02*
X0504783D01*
X0500650Y0276909D02*
Y0284587D01*
Y0276909D02*
X0504783D01*
X0493425Y0292520D02*
Y0296457D01*
X0500906D01*
Y0292520D02*
Y0296457D01*
X0493425Y0292520D02*
X0500906D01*
X0501634Y0292421D02*
X0509311D01*
Y0296555D01*
X0501634D02*
X0509311D01*
X0501634Y0292421D02*
Y0296555D01*
X0500945Y0285039D02*
X0508425D01*
Y0288976D01*
X0500945D02*
X0508425D01*
X0500945Y0285039D02*
Y0288976D01*
X0517776Y0290177D02*
X0525453D01*
X0517776Y0286043D02*
Y0290177D01*
Y0286043D02*
X0525453D01*
Y0290177D01*
X0516968Y0285591D02*
X0520905D01*
Y0278110D02*
Y0285591D01*
X0516968Y0278110D02*
X0520905D01*
X0516968D02*
Y0285591D01*
X0517776Y0277618D02*
X0525453D01*
X0517776Y0273484D02*
Y0277618D01*
Y0273484D02*
X0525453D01*
Y0277618D01*
X0519685Y0272284D02*
X0520899D01*
X0519724Y0269921D02*
X0520905D01*
X0520899D02*
X0523661D01*
X0520899Y0272284D02*
X0523662D01*
X0520899Y0271102D02*
Y0272284D01*
Y0269921D02*
Y0272284D01*
X0498071Y0249646D02*
X0501417D01*
Y0252992D01*
X0482913Y0249646D02*
X0486260D01*
X0482913D02*
Y0252992D01*
Y0264803D02*
Y0268150D01*
X0486260D01*
X0501417Y0264803D02*
Y0268150D01*
X0498071D02*
X0501417D01*
X0503346Y0255827D02*
Y0263307D01*
Y0255827D02*
X0507283D01*
Y0263307D01*
X0503346D02*
X0507283D01*
X0520177Y0244823D02*
Y0252500D01*
Y0244823D02*
X0524311D01*
Y0252500D01*
X0520177D02*
X0524311D01*
X0538681Y0242657D02*
X0546358D01*
X0538681Y0238524D02*
Y0242657D01*
Y0238524D02*
X0546358D01*
Y0242657D01*
X0524843Y0234134D02*
Y0241614D01*
Y0234134D02*
X0528780D01*
Y0241614D01*
X0524843D02*
X0528780D01*
X0529252Y0231496D02*
X0536732D01*
Y0235433D01*
X0529252D02*
X0536732D01*
X0529252Y0231496D02*
Y0235433D01*
X0529252Y0227165D02*
X0536732D01*
Y0231102D01*
X0529252D02*
X0536732D01*
X0529252Y0227165D02*
Y0231102D01*
D76*
X0206651Y0164439D02*
Y0161815D01*
X0206126Y0161290D01*
X0205076D01*
X0204552Y0161815D01*
Y0164439D01*
X0203502Y0161290D02*
X0202452D01*
X0202977D01*
Y0164439D01*
X0203502Y0163914D01*
X0199304Y0161290D02*
Y0164439D01*
X0200878Y0162864D01*
X0198779D01*
X0204528Y0155038D02*
X0202429D01*
X0203478D01*
Y0151890D01*
X0199280Y0155038D02*
X0200329Y0154514D01*
X0201379Y0153464D01*
Y0152415D01*
X0200854Y0151890D01*
X0199805D01*
X0199280Y0152415D01*
Y0152939D01*
X0199805Y0153464D01*
X0201379D01*
X0215908Y0171033D02*
X0213809D01*
X0214858D01*
Y0167884D01*
X0210660Y0171033D02*
X0212759D01*
Y0169459D01*
X0211710Y0169983D01*
X0211185D01*
X0210660Y0169459D01*
Y0168409D01*
X0211185Y0167884D01*
X0212235D01*
X0212759Y0168409D01*
X0201575Y0175047D02*
X0204724D01*
Y0176621D01*
X0204199Y0177146D01*
X0203149D01*
X0202624Y0176621D01*
Y0175047D01*
Y0176097D02*
X0201575Y0177146D01*
X0204199Y0178196D02*
X0204724Y0178720D01*
Y0179770D01*
X0204199Y0180295D01*
X0203674D01*
X0203149Y0179770D01*
Y0179245D01*
Y0179770D01*
X0202624Y0180295D01*
X0202100D01*
X0201575Y0179770D01*
Y0178720D01*
X0202100Y0178196D01*
X0204724Y0183443D02*
X0204199Y0182394D01*
X0203149Y0181344D01*
X0202100D01*
X0201575Y0181869D01*
Y0182919D01*
X0202100Y0183443D01*
X0202624D01*
X0203149Y0182919D01*
Y0181344D01*
X0178543Y0177597D02*
Y0174974D01*
X0178019Y0174449D01*
X0176969D01*
X0176444Y0174974D01*
Y0177597D01*
X0175395Y0174449D02*
X0174345D01*
X0174870D01*
Y0177597D01*
X0175395Y0177073D01*
X0170672Y0174449D02*
X0172771D01*
X0170672Y0176548D01*
Y0177073D01*
X0171197Y0177597D01*
X0172246D01*
X0172771Y0177073D01*
X0185789Y0224015D02*
X0183690D01*
X0184739D01*
Y0220866D01*
X0181066D02*
Y0224015D01*
X0182641Y0222440D01*
X0180541D01*
X0176496Y0220866D02*
Y0224015D01*
X0174922D01*
X0174397Y0223490D01*
Y0222440D01*
X0174922Y0221916D01*
X0176496D01*
X0175446D02*
X0174397Y0220866D01*
X0173347Y0223490D02*
X0172823Y0224015D01*
X0171773D01*
X0171248Y0223490D01*
Y0222965D01*
X0171773Y0222440D01*
X0172298D01*
X0171773D01*
X0171248Y0221916D01*
Y0221391D01*
X0171773Y0220866D01*
X0172823D01*
X0173347Y0221391D01*
X0168100Y0220866D02*
X0170199D01*
X0168100Y0222965D01*
Y0223490D01*
X0168624Y0224015D01*
X0169674D01*
X0170199Y0223490D01*
X0198375Y0221693D02*
Y0224841D01*
X0196801D01*
X0196276Y0224317D01*
Y0223267D01*
X0196801Y0222742D01*
X0198375D01*
X0197326D02*
X0196276Y0221693D01*
X0195227Y0224317D02*
X0194702Y0224841D01*
X0193653D01*
X0193128Y0224317D01*
Y0223792D01*
X0193653Y0223267D01*
X0194177D01*
X0193653D01*
X0193128Y0222742D01*
Y0222218D01*
X0193653Y0221693D01*
X0194702D01*
X0195227Y0222218D01*
X0192078Y0221693D02*
X0191029D01*
X0191554D01*
Y0224841D01*
X0192078Y0224317D01*
X0197717Y0172874D02*
X0200865D01*
Y0174448D01*
X0200341Y0174973D01*
X0199291D01*
X0198766Y0174448D01*
Y0172874D01*
Y0173924D02*
X0197717Y0174973D01*
X0200341Y0176023D02*
X0200865Y0176547D01*
Y0177597D01*
X0200341Y0178122D01*
X0199816D01*
X0199291Y0177597D01*
Y0177072D01*
Y0177597D01*
X0198766Y0178122D01*
X0198241D01*
X0197717Y0177597D01*
Y0176547D01*
X0198241Y0176023D01*
X0200341Y0179171D02*
X0200865Y0179696D01*
Y0180745D01*
X0200341Y0181270D01*
X0198241D01*
X0197717Y0180745D01*
Y0179696D01*
X0198241Y0179171D01*
X0200341D01*
X0196929Y0172598D02*
X0193781D01*
Y0171024D01*
X0194305Y0170499D01*
X0195355D01*
X0195880Y0171024D01*
Y0172598D01*
Y0171549D02*
X0196929Y0170499D01*
Y0167351D02*
Y0169450D01*
X0194830Y0167351D01*
X0194305D01*
X0193781Y0167876D01*
Y0168925D01*
X0194305Y0169450D01*
Y0166301D02*
X0193781Y0165777D01*
Y0164727D01*
X0194305Y0164202D01*
X0194830D01*
X0195355Y0164727D01*
X0195880Y0164202D01*
X0196404D01*
X0196929Y0164727D01*
Y0165777D01*
X0196404Y0166301D01*
X0195880D01*
X0195355Y0165777D01*
X0194830Y0166301D01*
X0194305D01*
X0195355Y0165777D02*
Y0164727D01*
X0196063Y0213347D02*
Y0216495D01*
X0194489D01*
X0193964Y0215970D01*
Y0214921D01*
X0194489Y0214396D01*
X0196063D01*
X0195013D02*
X0193964Y0213347D01*
X0190815D02*
X0192914D01*
X0190815Y0215445D01*
Y0215970D01*
X0191340Y0216495D01*
X0192390D01*
X0192914Y0215970D01*
X0189766Y0216495D02*
X0187667D01*
Y0215970D01*
X0189766Y0213871D01*
Y0213347D01*
X0180433Y0151731D02*
Y0148583D01*
X0178334D01*
X0175186Y0151731D02*
X0176235Y0151207D01*
X0177285Y0150157D01*
Y0149107D01*
X0176760Y0148583D01*
X0175710D01*
X0175186Y0149107D01*
Y0149632D01*
X0175710Y0150157D01*
X0177285D01*
X0161285Y0188241D02*
X0161810Y0187716D01*
Y0186667D01*
X0161285Y0186142D01*
X0159186D01*
X0158661Y0186667D01*
Y0187716D01*
X0159186Y0188241D01*
X0158661Y0190865D02*
X0161810D01*
X0160236Y0189290D01*
Y0191389D01*
X0161285Y0192439D02*
X0161810Y0192964D01*
Y0194013D01*
X0161285Y0194538D01*
X0160761D01*
X0160236Y0194013D01*
Y0193488D01*
Y0194013D01*
X0159711Y0194538D01*
X0159186D01*
X0158661Y0194013D01*
Y0192964D01*
X0159186Y0192439D01*
X0188557Y0170499D02*
X0188033Y0171024D01*
Y0172074D01*
X0188557Y0172598D01*
X0190656D01*
X0191181Y0172074D01*
Y0171024D01*
X0190656Y0170499D01*
X0191181Y0167876D02*
X0188033D01*
X0189607Y0169450D01*
Y0167351D01*
X0191181Y0164202D02*
Y0166301D01*
X0189082Y0164202D01*
X0188557D01*
X0188033Y0164727D01*
Y0165777D01*
X0188557Y0166301D01*
X0182219Y0170617D02*
X0181694Y0171142D01*
Y0172192D01*
X0182219Y0172716D01*
X0184318D01*
X0184843Y0172192D01*
Y0171142D01*
X0184318Y0170617D01*
X0184843Y0167994D02*
X0181694D01*
X0183268Y0169568D01*
Y0167469D01*
X0184843Y0166419D02*
Y0165370D01*
Y0165895D01*
X0181694D01*
X0182219Y0166419D01*
X0162315Y0176317D02*
X0162840Y0175793D01*
Y0174743D01*
X0162315Y0174218D01*
X0160216D01*
X0159691Y0174743D01*
Y0175793D01*
X0160216Y0176317D01*
X0162315Y0177367D02*
X0162840Y0177892D01*
Y0178941D01*
X0162315Y0179466D01*
X0161790D01*
X0161266Y0178941D01*
Y0178416D01*
Y0178941D01*
X0160741Y0179466D01*
X0160216D01*
X0159691Y0178941D01*
Y0177892D01*
X0160216Y0177367D01*
Y0180515D02*
X0159691Y0181040D01*
Y0182090D01*
X0160216Y0182614D01*
X0162315D01*
X0162840Y0182090D01*
Y0181040D01*
X0162315Y0180515D01*
X0161790D01*
X0161266Y0181040D01*
Y0182614D01*
X0185021Y0207572D02*
X0185546Y0208097D01*
X0186595D01*
X0187120Y0207572D01*
Y0205473D01*
X0186595Y0204949D01*
X0185546D01*
X0185021Y0205473D01*
X0183971Y0207572D02*
X0183447Y0208097D01*
X0182397D01*
X0181872Y0207572D01*
Y0207048D01*
X0182397Y0206523D01*
X0182922D01*
X0182397D01*
X0181872Y0205998D01*
Y0205473D01*
X0182397Y0204949D01*
X0183447D01*
X0183971Y0205473D01*
X0178724Y0204949D02*
X0180823D01*
X0178724Y0207048D01*
Y0207572D01*
X0179248Y0208097D01*
X0180298D01*
X0180823Y0207572D01*
X0195970Y0207650D02*
X0196495Y0207125D01*
Y0206076D01*
X0195970Y0205551D01*
X0193871D01*
X0193347Y0206076D01*
Y0207125D01*
X0193871Y0207650D01*
X0195970Y0208700D02*
X0196495Y0209225D01*
Y0210274D01*
X0195970Y0210799D01*
X0195446D01*
X0194921Y0210274D01*
Y0209749D01*
Y0210274D01*
X0194396Y0210799D01*
X0193871D01*
X0193347Y0210274D01*
Y0209225D01*
X0193871Y0208700D01*
X0193347Y0211848D02*
Y0212898D01*
Y0212373D01*
X0196495D01*
X0195970Y0211848D01*
X0212835Y0311221D02*
X0215983D01*
Y0312795D01*
X0215458Y0313320D01*
X0214409D01*
X0213884Y0312795D01*
Y0311221D01*
Y0312270D02*
X0212835Y0313320D01*
Y0316468D02*
Y0314369D01*
X0214934Y0316468D01*
X0215458D01*
X0215983Y0315943D01*
Y0314894D01*
X0215458Y0314369D01*
X0215983Y0319617D02*
X0215458Y0318567D01*
X0214409Y0317518D01*
X0213359D01*
X0212835Y0318042D01*
Y0319092D01*
X0213359Y0319617D01*
X0213884D01*
X0214409Y0319092D01*
Y0317518D01*
X0148030Y0244331D02*
X0144882Y0246430D01*
X0148030D02*
X0144882Y0244331D01*
Y0247479D02*
Y0248529D01*
Y0248004D01*
X0148030D01*
X0147506Y0247479D01*
X0165786Y0377953D02*
X0163163D01*
X0162638Y0378478D01*
Y0379527D01*
X0163163Y0380052D01*
X0165786D01*
X0163163Y0381101D02*
X0162638Y0381626D01*
Y0382676D01*
X0163163Y0383201D01*
X0165262D01*
X0165786Y0382676D01*
Y0381626D01*
X0165262Y0381101D01*
X0164737D01*
X0164212Y0381626D01*
Y0383201D01*
X0203228Y0320550D02*
Y0317926D01*
X0202704Y0317402D01*
X0201654D01*
X0201129Y0317926D01*
Y0320550D01*
X0200080Y0320025D02*
X0199555Y0320550D01*
X0198505D01*
X0197981Y0320025D01*
Y0319501D01*
X0198505Y0318976D01*
X0197981Y0318451D01*
Y0317926D01*
X0198505Y0317402D01*
X0199555D01*
X0200080Y0317926D01*
Y0318451D01*
X0199555Y0318976D01*
X0200080Y0319501D01*
Y0320025D01*
X0199555Y0318976D02*
X0198505D01*
X0207558Y0243780D02*
X0204934D01*
X0204410Y0244304D01*
Y0245354D01*
X0204934Y0245879D01*
X0207558D01*
Y0246928D02*
Y0249027D01*
X0207033D01*
X0204934Y0246928D01*
X0204410D01*
X0152992Y0280826D02*
Y0278202D01*
X0152467Y0277677D01*
X0151418D01*
X0150893Y0278202D01*
Y0280826D01*
X0147745Y0277677D02*
X0149844D01*
X0147745Y0279776D01*
Y0280301D01*
X0148269Y0280826D01*
X0149319D01*
X0149844Y0280301D01*
X0153976Y0272243D02*
Y0269619D01*
X0153452Y0269094D01*
X0152402D01*
X0151877Y0269619D01*
Y0272243D01*
X0150828Y0269094D02*
X0149778D01*
X0150303D01*
Y0272243D01*
X0150828Y0271718D01*
X0159055Y0206574D02*
X0156956D01*
X0158006D01*
Y0203425D01*
X0153807D02*
X0155906D01*
X0153807Y0205524D01*
Y0206049D01*
X0154332Y0206574D01*
X0155382D01*
X0155906Y0206049D01*
X0163032Y0243031D02*
X0160933D01*
X0161982D01*
Y0239882D01*
X0159883D02*
X0158834D01*
X0159358D01*
Y0243031D01*
X0159883Y0242506D01*
X0187520Y0234173D02*
X0190668D01*
Y0235748D01*
X0190144Y0236272D01*
X0189094D01*
X0188569Y0235748D01*
Y0234173D01*
Y0235223D02*
X0187520Y0236272D01*
Y0239421D02*
Y0237322D01*
X0189619Y0239421D01*
X0190144D01*
X0190668Y0238896D01*
Y0237847D01*
X0190144Y0237322D01*
X0190668Y0242569D02*
Y0240471D01*
X0189094D01*
X0189619Y0241520D01*
Y0242045D01*
X0189094Y0242569D01*
X0188045D01*
X0187520Y0242045D01*
Y0240995D01*
X0188045Y0240471D01*
X0192913Y0230000D02*
Y0233149D01*
X0191339D01*
X0190814Y0232624D01*
Y0231574D01*
X0191339Y0231050D01*
X0192913D01*
X0191864D02*
X0190814Y0230000D01*
X0187666D02*
X0189765D01*
X0187666Y0232099D01*
Y0232624D01*
X0188190Y0233149D01*
X0189240D01*
X0189765Y0232624D01*
X0185042Y0230000D02*
Y0233149D01*
X0186616Y0231574D01*
X0184517D01*
X0192913Y0225827D02*
Y0228975D01*
X0191339D01*
X0190814Y0228451D01*
Y0227401D01*
X0191339Y0226876D01*
X0192913D01*
X0191864D02*
X0190814Y0225827D01*
X0187666D02*
X0189765D01*
X0187666Y0227926D01*
Y0228451D01*
X0188190Y0228975D01*
X0189240D01*
X0189765Y0228451D01*
X0186616D02*
X0186091Y0228975D01*
X0185042D01*
X0184517Y0228451D01*
Y0227926D01*
X0185042Y0227401D01*
X0185567D01*
X0185042D01*
X0184517Y0226876D01*
Y0226352D01*
X0185042Y0225827D01*
X0186091D01*
X0186616Y0226352D01*
X0159764Y0332244D02*
X0162912D01*
Y0333818D01*
X0162388Y0334343D01*
X0161338D01*
X0160813Y0333818D01*
Y0332244D01*
Y0333294D02*
X0159764Y0334343D01*
Y0335393D02*
Y0336442D01*
Y0335917D01*
X0162912D01*
X0162388Y0335393D01*
X0162912Y0338017D02*
Y0340116D01*
X0162388D01*
X0160289Y0338017D01*
X0159764D01*
X0150433Y0208622D02*
X0153582D01*
Y0210196D01*
X0153057Y0210721D01*
X0152007D01*
X0151483Y0210196D01*
Y0208622D01*
Y0209672D02*
X0150433Y0210721D01*
Y0211771D02*
Y0212820D01*
Y0212296D01*
X0153582D01*
X0153057Y0211771D01*
X0153582Y0216494D02*
X0153057Y0215444D01*
X0152007Y0214394D01*
X0150958D01*
X0150433Y0214919D01*
Y0215969D01*
X0150958Y0216494D01*
X0151483D01*
X0152007Y0215969D01*
Y0214394D01*
X0166221Y0195512D02*
Y0198660D01*
X0164646D01*
X0164121Y0198136D01*
Y0197086D01*
X0164646Y0196561D01*
X0166221D01*
X0165171D02*
X0164121Y0195512D01*
X0163072D02*
X0162022D01*
X0162547D01*
Y0198660D01*
X0163072Y0198136D01*
X0158349Y0198660D02*
X0160448D01*
Y0197086D01*
X0159399Y0197611D01*
X0158874D01*
X0158349Y0197086D01*
Y0196037D01*
X0158874Y0195512D01*
X0159923D01*
X0160448Y0196037D01*
X0159370Y0217559D02*
Y0220708D01*
X0157796D01*
X0157271Y0220183D01*
Y0219133D01*
X0157796Y0218609D01*
X0159370D01*
X0158321D02*
X0157271Y0217559D01*
X0156222D02*
X0155172D01*
X0155697D01*
Y0220708D01*
X0156222Y0220183D01*
X0152023Y0217559D02*
Y0220708D01*
X0153598Y0219133D01*
X0151499D01*
X0157760Y0202447D02*
X0154611D01*
Y0200873D01*
X0155136Y0200348D01*
X0156185D01*
X0156710Y0200873D01*
Y0202447D01*
Y0201398D02*
X0157760Y0200348D01*
Y0199299D02*
Y0198249D01*
Y0198774D01*
X0154611D01*
X0155136Y0199299D01*
Y0196675D02*
X0154611Y0196150D01*
Y0195101D01*
X0155136Y0194576D01*
X0155661D01*
X0156185Y0195101D01*
Y0195625D01*
Y0195101D01*
X0156710Y0194576D01*
X0157235D01*
X0157760Y0195101D01*
Y0196150D01*
X0157235Y0196675D01*
X0172165Y0204488D02*
X0175314D01*
Y0206063D01*
X0174789Y0206587D01*
X0173740D01*
X0173215Y0206063D01*
Y0204488D01*
Y0205538D02*
X0172165Y0206587D01*
Y0207637D02*
Y0208686D01*
Y0208161D01*
X0175314D01*
X0174789Y0207637D01*
X0172165Y0212360D02*
Y0210261D01*
X0174265Y0212360D01*
X0174789D01*
X0175314Y0211835D01*
Y0210785D01*
X0174789Y0210261D01*
X0152913Y0224921D02*
X0156062D01*
Y0226496D01*
X0155537Y0227020D01*
X0154488D01*
X0153963Y0226496D01*
Y0224921D01*
Y0225971D02*
X0152913Y0227020D01*
X0155537Y0228070D02*
X0156062Y0228595D01*
Y0229644D01*
X0155537Y0230169D01*
X0155013D01*
X0154488Y0229644D01*
X0153963Y0230169D01*
X0153438D01*
X0152913Y0229644D01*
Y0228595D01*
X0153438Y0228070D01*
X0153963D01*
X0154488Y0228595D01*
X0155013Y0228070D01*
X0155537D01*
X0154488Y0228595D02*
Y0229644D01*
X0157441Y0240197D02*
Y0243345D01*
X0155867D01*
X0155342Y0242821D01*
Y0241771D01*
X0155867Y0241246D01*
X0157441D01*
X0156391D02*
X0155342Y0240197D01*
X0154292Y0243345D02*
X0152193D01*
Y0242821D01*
X0154292Y0240722D01*
Y0240197D01*
X0174331Y0231654D02*
X0177479D01*
Y0233228D01*
X0176954Y0233753D01*
X0175905D01*
X0175380Y0233228D01*
Y0231654D01*
Y0232703D02*
X0174331Y0233753D01*
X0177479Y0236901D02*
X0176954Y0235852D01*
X0175905Y0234802D01*
X0174855D01*
X0174331Y0235327D01*
Y0236377D01*
X0174855Y0236901D01*
X0175380D01*
X0175905Y0236377D01*
Y0234802D01*
X0165315Y0224134D02*
X0168464D01*
Y0225708D01*
X0167939Y0226233D01*
X0166889D01*
X0166365Y0225708D01*
Y0224134D01*
Y0225183D02*
X0165315Y0226233D01*
X0168464Y0229382D02*
Y0227283D01*
X0166889D01*
X0167414Y0228332D01*
Y0228857D01*
X0166889Y0229382D01*
X0165840D01*
X0165315Y0228857D01*
Y0227807D01*
X0165840Y0227283D01*
X0170354Y0264291D02*
X0173503D01*
Y0265866D01*
X0172978Y0266390D01*
X0171929D01*
X0171404Y0265866D01*
Y0264291D01*
Y0265341D02*
X0170354Y0266390D01*
Y0269014D02*
X0173503D01*
X0171929Y0267440D01*
Y0269539D01*
X0158898Y0286772D02*
X0162046D01*
Y0288346D01*
X0161521Y0288871D01*
X0160472D01*
X0159947Y0288346D01*
Y0286772D01*
Y0287821D02*
X0158898Y0288871D01*
X0161521Y0289920D02*
X0162046Y0290445D01*
Y0291495D01*
X0161521Y0292019D01*
X0160997D01*
X0160472Y0291495D01*
Y0290970D01*
Y0291495D01*
X0159947Y0292019D01*
X0159422D01*
X0158898Y0291495D01*
Y0290445D01*
X0159422Y0289920D01*
X0143583Y0236364D02*
X0146731D01*
Y0237939D01*
X0146206Y0238463D01*
X0145157D01*
X0144632Y0237939D01*
Y0236364D01*
Y0237414D02*
X0143583Y0238463D01*
Y0241612D02*
Y0239513D01*
X0145682Y0241612D01*
X0146206D01*
X0146731Y0241087D01*
Y0240038D01*
X0146206Y0239513D01*
X0180079Y0285354D02*
Y0288503D01*
X0178504D01*
X0177980Y0287978D01*
Y0286929D01*
X0178504Y0286404D01*
X0180079D01*
X0179029D02*
X0177980Y0285354D01*
X0176930D02*
X0175881D01*
X0176405D01*
Y0288503D01*
X0176930Y0287978D01*
X0203110Y0255393D02*
Y0252244D01*
X0201011D01*
X0197863Y0255393D02*
X0199962D01*
Y0253818D01*
X0198912Y0254343D01*
X0198387D01*
X0197863Y0253818D01*
Y0252769D01*
X0198387Y0252244D01*
X0199437D01*
X0199962Y0252769D01*
X0191377Y0279252D02*
X0188228D01*
Y0281351D01*
Y0284500D02*
Y0282401D01*
X0190327Y0284500D01*
X0190852D01*
X0191377Y0283975D01*
Y0282925D01*
X0190852Y0282401D01*
X0165276Y0300668D02*
Y0297520D01*
X0163177D01*
X0162127D02*
X0161077D01*
X0161602D01*
Y0300668D01*
X0162127Y0300144D01*
X0196850Y0272755D02*
Y0269606D01*
X0195276D01*
X0194751Y0270131D01*
Y0272230D01*
X0195276Y0272755D01*
X0196850D01*
X0193702Y0269606D02*
X0192652D01*
X0193177D01*
Y0272755D01*
X0193702Y0272230D01*
X0157703Y0364816D02*
X0158227Y0364291D01*
Y0363241D01*
X0157703Y0362717D01*
X0155604D01*
X0155079Y0363241D01*
Y0364291D01*
X0155604Y0364816D01*
X0157703Y0365865D02*
X0158227Y0366390D01*
Y0367440D01*
X0157703Y0367964D01*
X0157178D01*
X0156653Y0367440D01*
Y0366915D01*
Y0367440D01*
X0156128Y0367964D01*
X0155604D01*
X0155079Y0367440D01*
Y0366390D01*
X0155604Y0365865D01*
X0158227Y0371113D02*
X0157703Y0370063D01*
X0156653Y0369014D01*
X0155604D01*
X0155079Y0369538D01*
Y0370588D01*
X0155604Y0371113D01*
X0156128D01*
X0156653Y0370588D01*
Y0369014D01*
X0186090Y0306010D02*
X0186615Y0306535D01*
X0187664D01*
X0188189Y0306010D01*
Y0303911D01*
X0187664Y0303386D01*
X0186615D01*
X0186090Y0303911D01*
X0185040Y0306010D02*
X0184516Y0306535D01*
X0183466D01*
X0182941Y0306010D01*
Y0305485D01*
X0183466Y0304960D01*
X0183991D01*
X0183466D01*
X0182941Y0304435D01*
Y0303911D01*
X0183466Y0303386D01*
X0184516D01*
X0185040Y0303911D01*
X0180317Y0303386D02*
Y0306535D01*
X0181892Y0304960D01*
X0179793D01*
X0205184Y0298766D02*
X0205709Y0299290D01*
X0206759D01*
X0207283Y0298766D01*
Y0296667D01*
X0206759Y0296142D01*
X0205709D01*
X0205184Y0296667D01*
X0204135Y0298766D02*
X0203610Y0299290D01*
X0202561D01*
X0202036Y0298766D01*
Y0298241D01*
X0202561Y0297716D01*
X0203085D01*
X0202561D01*
X0202036Y0297191D01*
Y0296667D01*
X0202561Y0296142D01*
X0203610D01*
X0204135Y0296667D01*
X0200986Y0298766D02*
X0200462Y0299290D01*
X0199412D01*
X0198887Y0298766D01*
Y0298241D01*
X0199412Y0297716D01*
X0199937D01*
X0199412D01*
X0198887Y0297191D01*
Y0296667D01*
X0199412Y0296142D01*
X0200462D01*
X0200986Y0296667D01*
X0201746Y0190145D02*
X0201222Y0190670D01*
Y0191719D01*
X0201746Y0192244D01*
X0203845D01*
X0204370Y0191719D01*
Y0190670D01*
X0203845Y0190145D01*
X0201746Y0189095D02*
X0201222Y0188571D01*
Y0187521D01*
X0201746Y0186996D01*
X0202271D01*
X0202796Y0187521D01*
Y0188046D01*
Y0187521D01*
X0203321Y0186996D01*
X0203845D01*
X0204370Y0187521D01*
Y0188571D01*
X0203845Y0189095D01*
X0201746Y0185947D02*
X0201222Y0185422D01*
Y0184373D01*
X0201746Y0183848D01*
X0203845D01*
X0204370Y0184373D01*
Y0185422D01*
X0203845Y0185947D01*
X0201746D01*
X0201550Y0199200D02*
X0201025Y0199725D01*
Y0200774D01*
X0201550Y0201299D01*
X0203648D01*
X0204173Y0200774D01*
Y0199725D01*
X0203648Y0199200D01*
X0204173Y0196052D02*
Y0198151D01*
X0202074Y0196052D01*
X0201550D01*
X0201025Y0196576D01*
Y0197626D01*
X0201550Y0198151D01*
X0203648Y0195002D02*
X0204173Y0194477D01*
Y0193428D01*
X0203648Y0192903D01*
X0201550D01*
X0201025Y0193428D01*
Y0194477D01*
X0201550Y0195002D01*
X0202074D01*
X0202599Y0194477D01*
Y0192903D01*
X0201195Y0208688D02*
X0200670Y0209213D01*
Y0210263D01*
X0201195Y0210787D01*
X0203294D01*
X0203819Y0210263D01*
Y0209213D01*
X0203294Y0208688D01*
X0203819Y0205540D02*
Y0207639D01*
X0201720Y0205540D01*
X0201195D01*
X0200670Y0206065D01*
Y0207114D01*
X0201195Y0207639D01*
Y0204490D02*
X0200670Y0203965D01*
Y0202916D01*
X0201195Y0202391D01*
X0201720D01*
X0202245Y0202916D01*
X0202769Y0202391D01*
X0203294D01*
X0203819Y0202916D01*
Y0203965D01*
X0203294Y0204490D01*
X0202769D01*
X0202245Y0203965D01*
X0201720Y0204490D01*
X0201195D01*
X0202245Y0203965D02*
Y0202916D01*
X0178214Y0258477D02*
X0178739Y0257952D01*
Y0256903D01*
X0178214Y0256378D01*
X0176115D01*
X0175591Y0256903D01*
Y0257952D01*
X0176115Y0258477D01*
X0175591Y0261626D02*
Y0259527D01*
X0177690Y0261626D01*
X0178214D01*
X0178739Y0261101D01*
Y0260051D01*
X0178214Y0259527D01*
X0175591Y0264249D02*
X0178739D01*
X0177165Y0262675D01*
Y0264774D01*
X0192862Y0256049D02*
X0193386Y0256574D01*
X0194436D01*
X0194961Y0256049D01*
Y0253950D01*
X0194436Y0253425D01*
X0193386D01*
X0192862Y0253950D01*
X0189713Y0253425D02*
X0191812D01*
X0189713Y0255524D01*
Y0256049D01*
X0190238Y0256574D01*
X0191287D01*
X0191812Y0256049D01*
X0188663D02*
X0188139Y0256574D01*
X0187089D01*
X0186564Y0256049D01*
Y0255524D01*
X0187089Y0254999D01*
X0187614D01*
X0187089D01*
X0186564Y0254475D01*
Y0253950D01*
X0187089Y0253425D01*
X0188139D01*
X0188663Y0253950D01*
X0186403Y0236272D02*
X0186928Y0235748D01*
Y0234698D01*
X0186403Y0234173D01*
X0184304D01*
X0183780Y0234698D01*
Y0235748D01*
X0184304Y0236272D01*
X0183780Y0239421D02*
Y0237322D01*
X0185879Y0239421D01*
X0186403D01*
X0186928Y0238896D01*
Y0237847D01*
X0186403Y0237322D01*
X0183780Y0242569D02*
Y0240471D01*
X0185879Y0242569D01*
X0186403D01*
X0186928Y0242045D01*
Y0240995D01*
X0186403Y0240471D01*
X0214318Y0246482D02*
X0214843Y0247007D01*
X0215893D01*
X0216417Y0246482D01*
Y0244383D01*
X0215893Y0243858D01*
X0214843D01*
X0214318Y0244383D01*
X0211170Y0243858D02*
X0213269D01*
X0211170Y0245957D01*
Y0246482D01*
X0211694Y0247007D01*
X0212744D01*
X0213269Y0246482D01*
X0210120Y0243858D02*
X0209071D01*
X0209595D01*
Y0247007D01*
X0210120Y0246482D01*
X0213237Y0221246D02*
X0213762Y0221771D01*
X0214812D01*
X0215336Y0221246D01*
Y0219147D01*
X0214812Y0218622D01*
X0213762D01*
X0213237Y0219147D01*
X0212188Y0218622D02*
X0211138D01*
X0211663D01*
Y0221771D01*
X0212188Y0221246D01*
X0209564Y0219147D02*
X0209039Y0218622D01*
X0207990D01*
X0207465Y0219147D01*
Y0221246D01*
X0207990Y0221771D01*
X0209039D01*
X0209564Y0221246D01*
Y0220721D01*
X0209039Y0220196D01*
X0207465D01*
X0146206Y0228518D02*
X0146731Y0227993D01*
Y0226943D01*
X0146206Y0226419D01*
X0144107D01*
X0143583Y0226943D01*
Y0227993D01*
X0144107Y0228518D01*
X0143583Y0229567D02*
Y0230617D01*
Y0230092D01*
X0146731D01*
X0146206Y0229567D01*
X0146731Y0232191D02*
Y0234290D01*
X0146206D01*
X0144107Y0232191D01*
X0143583D01*
X0178743Y0197598D02*
X0179268Y0197074D01*
Y0196024D01*
X0178743Y0195499D01*
X0176644D01*
X0176119Y0196024D01*
Y0197074D01*
X0176644Y0197598D01*
X0176119Y0198648D02*
Y0199697D01*
Y0199173D01*
X0179268D01*
X0178743Y0198648D01*
Y0201272D02*
X0179268Y0201797D01*
Y0202846D01*
X0178743Y0203371D01*
X0176644D01*
X0176119Y0202846D01*
Y0201797D01*
X0176644Y0201272D01*
X0178743D01*
X0195814Y0289199D02*
X0196339Y0289723D01*
X0197389D01*
X0197913Y0289199D01*
Y0287100D01*
X0197389Y0286575D01*
X0196339D01*
X0195814Y0287100D01*
X0192666Y0289723D02*
X0193715Y0289199D01*
X0194765Y0288149D01*
Y0287100D01*
X0194240Y0286575D01*
X0193191D01*
X0192666Y0287100D01*
Y0287624D01*
X0193191Y0288149D01*
X0194765D01*
X0195617Y0276679D02*
X0196142Y0277204D01*
X0197192D01*
X0197716Y0276679D01*
Y0274580D01*
X0197192Y0274055D01*
X0196142D01*
X0195617Y0274580D01*
X0192469Y0277204D02*
X0194568D01*
Y0275629D01*
X0193518Y0276154D01*
X0192994D01*
X0192469Y0275629D01*
Y0274580D01*
X0192994Y0274055D01*
X0194043D01*
X0194568Y0274580D01*
X0160933Y0247506D02*
X0161457Y0248030D01*
X0162507D01*
X0163032Y0247506D01*
Y0245407D01*
X0162507Y0244882D01*
X0161457D01*
X0160933Y0245407D01*
X0158309Y0244882D02*
Y0248030D01*
X0159883Y0246456D01*
X0157784D01*
X0171876Y0251705D02*
X0172401Y0251181D01*
Y0250131D01*
X0171876Y0249606D01*
X0169777D01*
X0169252Y0250131D01*
Y0251181D01*
X0169777Y0251705D01*
X0171876Y0252755D02*
X0172401Y0253280D01*
Y0254329D01*
X0171876Y0254854D01*
X0171351D01*
X0170826Y0254329D01*
Y0253804D01*
Y0254329D01*
X0170301Y0254854D01*
X0169777D01*
X0169252Y0254329D01*
Y0253280D01*
X0169777Y0252755D01*
X0171995Y0300144D02*
X0172520Y0300668D01*
X0173570D01*
X0174094Y0300144D01*
Y0298044D01*
X0173570Y0297520D01*
X0172520D01*
X0171995Y0298044D01*
X0168847Y0297520D02*
X0170946D01*
X0168847Y0299619D01*
Y0300144D01*
X0169372Y0300668D01*
X0170421D01*
X0170946Y0300144D01*
X0174514Y0281036D02*
X0175038Y0280511D01*
Y0279462D01*
X0174514Y0278937D01*
X0172415D01*
X0171890Y0279462D01*
Y0280511D01*
X0172415Y0281036D01*
X0171890Y0282086D02*
Y0283135D01*
Y0282610D01*
X0175038D01*
X0174514Y0282086D01*
X0290115Y0164439D02*
Y0161815D01*
X0289591Y0161290D01*
X0288541D01*
X0288016Y0161815D01*
Y0164439D01*
X0286967Y0161290D02*
X0285917D01*
X0286442D01*
Y0164439D01*
X0286967Y0163914D01*
X0282769Y0161290D02*
Y0164439D01*
X0284343Y0162864D01*
X0282244D01*
X0287992Y0155038D02*
X0285893D01*
X0286943D01*
Y0151890D01*
X0282745Y0155038D02*
X0283794Y0154514D01*
X0284844Y0153464D01*
Y0152415D01*
X0284319Y0151890D01*
X0283269D01*
X0282745Y0152415D01*
Y0152939D01*
X0283269Y0153464D01*
X0284844D01*
X0299373Y0171033D02*
X0297273D01*
X0298323D01*
Y0167884D01*
X0294125Y0171033D02*
X0296224D01*
Y0169459D01*
X0295174Y0169983D01*
X0294650D01*
X0294125Y0169459D01*
Y0168409D01*
X0294650Y0167884D01*
X0295699D01*
X0296224Y0168409D01*
X0285039Y0175047D02*
X0288188D01*
Y0176621D01*
X0287663Y0177146D01*
X0286614D01*
X0286089Y0176621D01*
Y0175047D01*
Y0176097D02*
X0285039Y0177146D01*
X0287663Y0178196D02*
X0288188Y0178720D01*
Y0179770D01*
X0287663Y0180295D01*
X0287139D01*
X0286614Y0179770D01*
Y0179245D01*
Y0179770D01*
X0286089Y0180295D01*
X0285564D01*
X0285039Y0179770D01*
Y0178720D01*
X0285564Y0178196D01*
X0288188Y0183443D02*
X0287663Y0182394D01*
X0286614Y0181344D01*
X0285564D01*
X0285039Y0181869D01*
Y0182919D01*
X0285564Y0183443D01*
X0286089D01*
X0286614Y0182919D01*
Y0181344D01*
X0262008Y0177597D02*
Y0174974D01*
X0261483Y0174449D01*
X0260434D01*
X0259909Y0174974D01*
Y0177597D01*
X0258859Y0174449D02*
X0257810D01*
X0258335D01*
Y0177597D01*
X0258859Y0177073D01*
X0254136Y0174449D02*
X0256236D01*
X0254136Y0176548D01*
Y0177073D01*
X0254661Y0177597D01*
X0255711D01*
X0256236Y0177073D01*
X0269254Y0224015D02*
X0267155D01*
X0268204D01*
Y0220866D01*
X0264531D02*
Y0224015D01*
X0266105Y0222440D01*
X0264006D01*
X0259961Y0220866D02*
Y0224015D01*
X0258386D01*
X0257861Y0223490D01*
Y0222440D01*
X0258386Y0221916D01*
X0259961D01*
X0258911D02*
X0257861Y0220866D01*
X0256812Y0223490D02*
X0256287Y0224015D01*
X0255238D01*
X0254713Y0223490D01*
Y0222965D01*
X0255238Y0222440D01*
X0255763D01*
X0255238D01*
X0254713Y0221916D01*
Y0221391D01*
X0255238Y0220866D01*
X0256287D01*
X0256812Y0221391D01*
X0251564Y0220866D02*
X0253663D01*
X0251564Y0222965D01*
Y0223490D01*
X0252089Y0224015D01*
X0253139D01*
X0253663Y0223490D01*
X0281840Y0221693D02*
Y0224841D01*
X0280266D01*
X0279741Y0224317D01*
Y0223267D01*
X0280266Y0222742D01*
X0281840D01*
X0280791D02*
X0279741Y0221693D01*
X0278692Y0224317D02*
X0278167Y0224841D01*
X0277117D01*
X0276592Y0224317D01*
Y0223792D01*
X0277117Y0223267D01*
X0277642D01*
X0277117D01*
X0276592Y0222742D01*
Y0222218D01*
X0277117Y0221693D01*
X0278167D01*
X0278692Y0222218D01*
X0275543Y0221693D02*
X0274493D01*
X0275018D01*
Y0224841D01*
X0275543Y0224317D01*
X0281181Y0172874D02*
X0284330D01*
Y0174448D01*
X0283805Y0174973D01*
X0282755D01*
X0282231Y0174448D01*
Y0172874D01*
Y0173924D02*
X0281181Y0174973D01*
X0283805Y0176023D02*
X0284330Y0176547D01*
Y0177597D01*
X0283805Y0178122D01*
X0283280D01*
X0282755Y0177597D01*
Y0177072D01*
Y0177597D01*
X0282231Y0178122D01*
X0281706D01*
X0281181Y0177597D01*
Y0176547D01*
X0281706Y0176023D01*
X0283805Y0179171D02*
X0284330Y0179696D01*
Y0180745D01*
X0283805Y0181270D01*
X0281706D01*
X0281181Y0180745D01*
Y0179696D01*
X0281706Y0179171D01*
X0283805D01*
X0280394Y0172598D02*
X0277245D01*
Y0171024D01*
X0277770Y0170499D01*
X0278819D01*
X0279344Y0171024D01*
Y0172598D01*
Y0171549D02*
X0280394Y0170499D01*
Y0167351D02*
Y0169450D01*
X0278295Y0167351D01*
X0277770D01*
X0277245Y0167876D01*
Y0168925D01*
X0277770Y0169450D01*
Y0166301D02*
X0277245Y0165777D01*
Y0164727D01*
X0277770Y0164202D01*
X0278295D01*
X0278819Y0164727D01*
X0279344Y0164202D01*
X0279869D01*
X0280394Y0164727D01*
Y0165777D01*
X0279869Y0166301D01*
X0279344D01*
X0278819Y0165777D01*
X0278295Y0166301D01*
X0277770D01*
X0278819Y0165777D02*
Y0164727D01*
X0279528Y0213347D02*
Y0216495D01*
X0277953D01*
X0277429Y0215970D01*
Y0214921D01*
X0277953Y0214396D01*
X0279528D01*
X0278478D02*
X0277429Y0213347D01*
X0274280D02*
X0276379D01*
X0274280Y0215445D01*
Y0215970D01*
X0274805Y0216495D01*
X0275854D01*
X0276379Y0215970D01*
X0273231Y0216495D02*
X0271131D01*
Y0215970D01*
X0273231Y0213871D01*
Y0213347D01*
X0263898Y0151731D02*
Y0148583D01*
X0261799D01*
X0258650Y0151731D02*
X0259700Y0151207D01*
X0260749Y0150157D01*
Y0149107D01*
X0260224Y0148583D01*
X0259175D01*
X0258650Y0149107D01*
Y0149632D01*
X0259175Y0150157D01*
X0260749D01*
X0244750Y0188241D02*
X0245275Y0187716D01*
Y0186667D01*
X0244750Y0186142D01*
X0242651D01*
X0242126Y0186667D01*
Y0187716D01*
X0242651Y0188241D01*
X0242126Y0190865D02*
X0245275D01*
X0243700Y0189290D01*
Y0191389D01*
X0244750Y0192439D02*
X0245275Y0192964D01*
Y0194013D01*
X0244750Y0194538D01*
X0244225D01*
X0243700Y0194013D01*
Y0193488D01*
Y0194013D01*
X0243176Y0194538D01*
X0242651D01*
X0242126Y0194013D01*
Y0192964D01*
X0242651Y0192439D01*
X0272022Y0170499D02*
X0271497Y0171024D01*
Y0172074D01*
X0272022Y0172598D01*
X0274121D01*
X0274646Y0172074D01*
Y0171024D01*
X0274121Y0170499D01*
X0274646Y0167876D02*
X0271497D01*
X0273072Y0169450D01*
Y0167351D01*
X0274646Y0164202D02*
Y0166301D01*
X0272547Y0164202D01*
X0272022D01*
X0271497Y0164727D01*
Y0165777D01*
X0272022Y0166301D01*
X0265683Y0170617D02*
X0265159Y0171142D01*
Y0172192D01*
X0265683Y0172716D01*
X0267782D01*
X0268307Y0172192D01*
Y0171142D01*
X0267782Y0170617D01*
X0268307Y0167994D02*
X0265159D01*
X0266733Y0169568D01*
Y0167469D01*
X0268307Y0166419D02*
Y0165370D01*
Y0165895D01*
X0265159D01*
X0265683Y0166419D01*
X0245780Y0176317D02*
X0246304Y0175793D01*
Y0174743D01*
X0245780Y0174218D01*
X0243681D01*
X0243156Y0174743D01*
Y0175793D01*
X0243681Y0176317D01*
X0245780Y0177367D02*
X0246304Y0177892D01*
Y0178941D01*
X0245780Y0179466D01*
X0245255D01*
X0244730Y0178941D01*
Y0178416D01*
Y0178941D01*
X0244205Y0179466D01*
X0243681D01*
X0243156Y0178941D01*
Y0177892D01*
X0243681Y0177367D01*
Y0180515D02*
X0243156Y0181040D01*
Y0182090D01*
X0243681Y0182614D01*
X0245780D01*
X0246304Y0182090D01*
Y0181040D01*
X0245780Y0180515D01*
X0245255D01*
X0244730Y0181040D01*
Y0182614D01*
X0268485Y0207572D02*
X0269010Y0208097D01*
X0270060D01*
X0270585Y0207572D01*
Y0205473D01*
X0270060Y0204949D01*
X0269010D01*
X0268485Y0205473D01*
X0267436Y0207572D02*
X0266911Y0208097D01*
X0265862D01*
X0265337Y0207572D01*
Y0207048D01*
X0265862Y0206523D01*
X0266386D01*
X0265862D01*
X0265337Y0205998D01*
Y0205473D01*
X0265862Y0204949D01*
X0266911D01*
X0267436Y0205473D01*
X0262188Y0204949D02*
X0264287D01*
X0262188Y0207048D01*
Y0207572D01*
X0262713Y0208097D01*
X0263763D01*
X0264287Y0207572D01*
X0279435Y0207650D02*
X0279960Y0207125D01*
Y0206076D01*
X0279435Y0205551D01*
X0277336D01*
X0276811Y0206076D01*
Y0207125D01*
X0277336Y0207650D01*
X0279435Y0208700D02*
X0279960Y0209225D01*
Y0210274D01*
X0279435Y0210799D01*
X0278910D01*
X0278385Y0210274D01*
Y0209749D01*
Y0210274D01*
X0277861Y0210799D01*
X0277336D01*
X0276811Y0210274D01*
Y0209225D01*
X0277336Y0208700D01*
X0276811Y0211848D02*
Y0212898D01*
Y0212373D01*
X0279960D01*
X0279435Y0211848D01*
X0296299Y0311221D02*
X0299448D01*
Y0312795D01*
X0298923Y0313320D01*
X0297873D01*
X0297349Y0312795D01*
Y0311221D01*
Y0312270D02*
X0296299Y0313320D01*
Y0316468D02*
Y0314369D01*
X0298398Y0316468D01*
X0298923D01*
X0299448Y0315943D01*
Y0314894D01*
X0298923Y0314369D01*
X0299448Y0319617D02*
X0298923Y0318567D01*
X0297873Y0317518D01*
X0296824D01*
X0296299Y0318042D01*
Y0319092D01*
X0296824Y0319617D01*
X0297349D01*
X0297873Y0319092D01*
Y0317518D01*
X0231495Y0244331D02*
X0228346Y0246430D01*
X0231495D02*
X0228346Y0244331D01*
Y0247479D02*
Y0248529D01*
Y0248004D01*
X0231495D01*
X0230970Y0247479D01*
X0249251Y0377953D02*
X0246627D01*
X0246102Y0378478D01*
Y0379527D01*
X0246627Y0380052D01*
X0249251D01*
X0246627Y0381101D02*
X0246102Y0381626D01*
Y0382676D01*
X0246627Y0383201D01*
X0248726D01*
X0249251Y0382676D01*
Y0381626D01*
X0248726Y0381101D01*
X0248201D01*
X0247677Y0381626D01*
Y0383201D01*
X0286693Y0320550D02*
Y0317926D01*
X0286168Y0317402D01*
X0285119D01*
X0284594Y0317926D01*
Y0320550D01*
X0283544Y0320025D02*
X0283020Y0320550D01*
X0281970D01*
X0281445Y0320025D01*
Y0319501D01*
X0281970Y0318976D01*
X0281445Y0318451D01*
Y0317926D01*
X0281970Y0317402D01*
X0283020D01*
X0283544Y0317926D01*
Y0318451D01*
X0283020Y0318976D01*
X0283544Y0319501D01*
Y0320025D01*
X0283020Y0318976D02*
X0281970D01*
X0291023Y0243780D02*
X0288399D01*
X0287874Y0244304D01*
Y0245354D01*
X0288399Y0245879D01*
X0291023D01*
Y0246928D02*
Y0249027D01*
X0290498D01*
X0288399Y0246928D01*
X0287874D01*
X0236457Y0280826D02*
Y0278202D01*
X0235932Y0277677D01*
X0234882D01*
X0234358Y0278202D01*
Y0280826D01*
X0231209Y0277677D02*
X0233308D01*
X0231209Y0279776D01*
Y0280301D01*
X0231734Y0280826D01*
X0232783D01*
X0233308Y0280301D01*
X0237441Y0272243D02*
Y0269619D01*
X0236916Y0269094D01*
X0235867D01*
X0235342Y0269619D01*
Y0272243D01*
X0234292Y0269094D02*
X0233243D01*
X0233768D01*
Y0272243D01*
X0234292Y0271718D01*
X0242520Y0206574D02*
X0240421D01*
X0241470D01*
Y0203425D01*
X0237272D02*
X0239371D01*
X0237272Y0205524D01*
Y0206049D01*
X0237797Y0206574D01*
X0238846D01*
X0239371Y0206049D01*
X0246496Y0243031D02*
X0244397D01*
X0245447D01*
Y0239882D01*
X0243348D02*
X0242298D01*
X0242823D01*
Y0243031D01*
X0243348Y0242506D01*
X0270984Y0234173D02*
X0274133D01*
Y0235748D01*
X0273608Y0236272D01*
X0272559D01*
X0272034Y0235748D01*
Y0234173D01*
Y0235223D02*
X0270984Y0236272D01*
Y0239421D02*
Y0237322D01*
X0273083Y0239421D01*
X0273608D01*
X0274133Y0238896D01*
Y0237847D01*
X0273608Y0237322D01*
X0274133Y0242569D02*
Y0240471D01*
X0272559D01*
X0273083Y0241520D01*
Y0242045D01*
X0272559Y0242569D01*
X0271509D01*
X0270984Y0242045D01*
Y0240995D01*
X0271509Y0240471D01*
X0276378Y0230000D02*
Y0233149D01*
X0274804D01*
X0274279Y0232624D01*
Y0231574D01*
X0274804Y0231050D01*
X0276378D01*
X0275328D02*
X0274279Y0230000D01*
X0271130D02*
X0273229D01*
X0271130Y0232099D01*
Y0232624D01*
X0271655Y0233149D01*
X0272705D01*
X0273229Y0232624D01*
X0268507Y0230000D02*
Y0233149D01*
X0270081Y0231574D01*
X0267982D01*
X0276378Y0225827D02*
Y0228975D01*
X0274804D01*
X0274279Y0228451D01*
Y0227401D01*
X0274804Y0226876D01*
X0276378D01*
X0275328D02*
X0274279Y0225827D01*
X0271130D02*
X0273229D01*
X0271130Y0227926D01*
Y0228451D01*
X0271655Y0228975D01*
X0272705D01*
X0273229Y0228451D01*
X0270081D02*
X0269556Y0228975D01*
X0268507D01*
X0267982Y0228451D01*
Y0227926D01*
X0268507Y0227401D01*
X0269031D01*
X0268507D01*
X0267982Y0226876D01*
Y0226352D01*
X0268507Y0225827D01*
X0269556D01*
X0270081Y0226352D01*
X0243228Y0332244D02*
X0246377D01*
Y0333818D01*
X0245852Y0334343D01*
X0244803D01*
X0244278Y0333818D01*
Y0332244D01*
Y0333294D02*
X0243228Y0334343D01*
Y0335393D02*
Y0336442D01*
Y0335917D01*
X0246377D01*
X0245852Y0335393D01*
X0246377Y0338017D02*
Y0340116D01*
X0245852D01*
X0243753Y0338017D01*
X0243228D01*
X0233898Y0208622D02*
X0237046D01*
Y0210196D01*
X0236522Y0210721D01*
X0235472D01*
X0234947Y0210196D01*
Y0208622D01*
Y0209672D02*
X0233898Y0210721D01*
Y0211771D02*
Y0212820D01*
Y0212296D01*
X0237046D01*
X0236522Y0211771D01*
X0237046Y0216494D02*
X0236522Y0215444D01*
X0235472Y0214394D01*
X0234422D01*
X0233898Y0214919D01*
Y0215969D01*
X0234422Y0216494D01*
X0234947D01*
X0235472Y0215969D01*
Y0214394D01*
X0249685Y0195512D02*
Y0198660D01*
X0248111D01*
X0247586Y0198136D01*
Y0197086D01*
X0248111Y0196561D01*
X0249685D01*
X0248636D02*
X0247586Y0195512D01*
X0246536D02*
X0245487D01*
X0246012D01*
Y0198660D01*
X0246536Y0198136D01*
X0241814Y0198660D02*
X0243913D01*
Y0197086D01*
X0242863Y0197611D01*
X0242338D01*
X0241814Y0197086D01*
Y0196037D01*
X0242338Y0195512D01*
X0243388D01*
X0243913Y0196037D01*
X0242835Y0217559D02*
Y0220708D01*
X0241260D01*
X0240736Y0220183D01*
Y0219133D01*
X0241260Y0218609D01*
X0242835D01*
X0241785D02*
X0240736Y0217559D01*
X0239686D02*
X0238637D01*
X0239161D01*
Y0220708D01*
X0239686Y0220183D01*
X0235488Y0217559D02*
Y0220708D01*
X0237062Y0219133D01*
X0234963D01*
X0241224Y0202447D02*
X0238076D01*
Y0200873D01*
X0238601Y0200348D01*
X0239650D01*
X0240175Y0200873D01*
Y0202447D01*
Y0201398D02*
X0241224Y0200348D01*
Y0199299D02*
Y0198249D01*
Y0198774D01*
X0238076D01*
X0238601Y0199299D01*
Y0196675D02*
X0238076Y0196150D01*
Y0195101D01*
X0238601Y0194576D01*
X0239125D01*
X0239650Y0195101D01*
Y0195625D01*
Y0195101D01*
X0240175Y0194576D01*
X0240700D01*
X0241224Y0195101D01*
Y0196150D01*
X0240700Y0196675D01*
X0255630Y0204488D02*
X0258779D01*
Y0206063D01*
X0258254Y0206587D01*
X0257204D01*
X0256680Y0206063D01*
Y0204488D01*
Y0205538D02*
X0255630Y0206587D01*
Y0207637D02*
Y0208686D01*
Y0208161D01*
X0258779D01*
X0258254Y0207637D01*
X0255630Y0212360D02*
Y0210261D01*
X0257729Y0212360D01*
X0258254D01*
X0258779Y0211835D01*
Y0210785D01*
X0258254Y0210261D01*
X0236378Y0224921D02*
X0239527D01*
Y0226496D01*
X0239002Y0227020D01*
X0237952D01*
X0237427Y0226496D01*
Y0224921D01*
Y0225971D02*
X0236378Y0227020D01*
X0239002Y0228070D02*
X0239527Y0228595D01*
Y0229644D01*
X0239002Y0230169D01*
X0238477D01*
X0237952Y0229644D01*
X0237427Y0230169D01*
X0236903D01*
X0236378Y0229644D01*
Y0228595D01*
X0236903Y0228070D01*
X0237427D01*
X0237952Y0228595D01*
X0238477Y0228070D01*
X0239002D01*
X0237952Y0228595D02*
Y0229644D01*
X0240905Y0240197D02*
Y0243345D01*
X0239331D01*
X0238807Y0242821D01*
Y0241771D01*
X0239331Y0241246D01*
X0240905D01*
X0239856D02*
X0238807Y0240197D01*
X0237757Y0243345D02*
X0235658D01*
Y0242821D01*
X0237757Y0240722D01*
Y0240197D01*
X0257795Y0231654D02*
X0260944D01*
Y0233228D01*
X0260419Y0233753D01*
X0259370D01*
X0258845Y0233228D01*
Y0231654D01*
Y0232703D02*
X0257795Y0233753D01*
X0260944Y0236901D02*
X0260419Y0235852D01*
X0259370Y0234802D01*
X0258320D01*
X0257795Y0235327D01*
Y0236377D01*
X0258320Y0236901D01*
X0258845D01*
X0259370Y0236377D01*
Y0234802D01*
X0248780Y0224134D02*
X0251928D01*
Y0225708D01*
X0251403Y0226233D01*
X0250354D01*
X0249829Y0225708D01*
Y0224134D01*
Y0225183D02*
X0248780Y0226233D01*
X0251928Y0229382D02*
Y0227283D01*
X0250354D01*
X0250879Y0228332D01*
Y0228857D01*
X0250354Y0229382D01*
X0249304D01*
X0248780Y0228857D01*
Y0227807D01*
X0249304Y0227283D01*
X0253819Y0264291D02*
X0256967D01*
Y0265866D01*
X0256443Y0266390D01*
X0255393D01*
X0254868Y0265866D01*
Y0264291D01*
Y0265341D02*
X0253819Y0266390D01*
Y0269014D02*
X0256967D01*
X0255393Y0267440D01*
Y0269539D01*
X0242362Y0286772D02*
X0245511D01*
Y0288346D01*
X0244986Y0288871D01*
X0243936D01*
X0243412Y0288346D01*
Y0286772D01*
Y0287821D02*
X0242362Y0288871D01*
X0244986Y0289920D02*
X0245511Y0290445D01*
Y0291495D01*
X0244986Y0292019D01*
X0244461D01*
X0243936Y0291495D01*
Y0290970D01*
Y0291495D01*
X0243412Y0292019D01*
X0242887D01*
X0242362Y0291495D01*
Y0290445D01*
X0242887Y0289920D01*
X0227047Y0236364D02*
X0230196D01*
Y0237939D01*
X0229671Y0238463D01*
X0228622D01*
X0228097Y0237939D01*
Y0236364D01*
Y0237414D02*
X0227047Y0238463D01*
Y0241612D02*
Y0239513D01*
X0229146Y0241612D01*
X0229671D01*
X0230196Y0241087D01*
Y0240038D01*
X0229671Y0239513D01*
X0263543Y0285354D02*
Y0288503D01*
X0261969D01*
X0261444Y0287978D01*
Y0286929D01*
X0261969Y0286404D01*
X0263543D01*
X0262494D02*
X0261444Y0285354D01*
X0260395D02*
X0259345D01*
X0259870D01*
Y0288503D01*
X0260395Y0287978D01*
X0286575Y0255393D02*
Y0252244D01*
X0284476D01*
X0281327Y0255393D02*
X0283426D01*
Y0253818D01*
X0282377Y0254343D01*
X0281852D01*
X0281327Y0253818D01*
Y0252769D01*
X0281852Y0252244D01*
X0282902D01*
X0283426Y0252769D01*
X0274841Y0279252D02*
X0271693D01*
Y0281351D01*
Y0284500D02*
Y0282401D01*
X0273792Y0284500D01*
X0274317D01*
X0274841Y0283975D01*
Y0282925D01*
X0274317Y0282401D01*
X0248740Y0300668D02*
Y0297520D01*
X0246641D01*
X0245592D02*
X0244542D01*
X0245067D01*
Y0300668D01*
X0245592Y0300144D01*
X0280315Y0272755D02*
Y0269606D01*
X0278741D01*
X0278216Y0270131D01*
Y0272230D01*
X0278741Y0272755D01*
X0280315D01*
X0277166Y0269606D02*
X0276117D01*
X0276642D01*
Y0272755D01*
X0277166Y0272230D01*
X0241167Y0364816D02*
X0241692Y0364291D01*
Y0363241D01*
X0241167Y0362717D01*
X0239068D01*
X0238543Y0363241D01*
Y0364291D01*
X0239068Y0364816D01*
X0241167Y0365865D02*
X0241692Y0366390D01*
Y0367440D01*
X0241167Y0367964D01*
X0240642D01*
X0240118Y0367440D01*
Y0366915D01*
Y0367440D01*
X0239593Y0367964D01*
X0239068D01*
X0238543Y0367440D01*
Y0366390D01*
X0239068Y0365865D01*
X0241692Y0371113D02*
X0241167Y0370063D01*
X0240118Y0369014D01*
X0239068D01*
X0238543Y0369538D01*
Y0370588D01*
X0239068Y0371113D01*
X0239593D01*
X0240118Y0370588D01*
Y0369014D01*
X0269554Y0306010D02*
X0270079Y0306535D01*
X0271129D01*
X0271654Y0306010D01*
Y0303911D01*
X0271129Y0303386D01*
X0270079D01*
X0269554Y0303911D01*
X0268505Y0306010D02*
X0267980Y0306535D01*
X0266931D01*
X0266406Y0306010D01*
Y0305485D01*
X0266931Y0304960D01*
X0267455D01*
X0266931D01*
X0266406Y0304435D01*
Y0303911D01*
X0266931Y0303386D01*
X0267980D01*
X0268505Y0303911D01*
X0263782Y0303386D02*
Y0306535D01*
X0265356Y0304960D01*
X0263257D01*
X0288649Y0298766D02*
X0289174Y0299290D01*
X0290223D01*
X0290748Y0298766D01*
Y0296667D01*
X0290223Y0296142D01*
X0289174D01*
X0288649Y0296667D01*
X0287599Y0298766D02*
X0287075Y0299290D01*
X0286025D01*
X0285500Y0298766D01*
Y0298241D01*
X0286025Y0297716D01*
X0286550D01*
X0286025D01*
X0285500Y0297191D01*
Y0296667D01*
X0286025Y0296142D01*
X0287075D01*
X0287599Y0296667D01*
X0284451Y0298766D02*
X0283926Y0299290D01*
X0282877D01*
X0282352Y0298766D01*
Y0298241D01*
X0282877Y0297716D01*
X0283401D01*
X0282877D01*
X0282352Y0297191D01*
Y0296667D01*
X0282877Y0296142D01*
X0283926D01*
X0284451Y0296667D01*
X0285211Y0190145D02*
X0284686Y0190670D01*
Y0191719D01*
X0285211Y0192244D01*
X0287310D01*
X0287835Y0191719D01*
Y0190670D01*
X0287310Y0190145D01*
X0285211Y0189095D02*
X0284686Y0188571D01*
Y0187521D01*
X0285211Y0186996D01*
X0285736D01*
X0286260Y0187521D01*
Y0188046D01*
Y0187521D01*
X0286785Y0186996D01*
X0287310D01*
X0287835Y0187521D01*
Y0188571D01*
X0287310Y0189095D01*
X0285211Y0185947D02*
X0284686Y0185422D01*
Y0184373D01*
X0285211Y0183848D01*
X0287310D01*
X0287835Y0184373D01*
Y0185422D01*
X0287310Y0185947D01*
X0285211D01*
X0285014Y0199200D02*
X0284489Y0199725D01*
Y0200774D01*
X0285014Y0201299D01*
X0287113D01*
X0287638Y0200774D01*
Y0199725D01*
X0287113Y0199200D01*
X0287638Y0196052D02*
Y0198151D01*
X0285539Y0196052D01*
X0285014D01*
X0284489Y0196576D01*
Y0197626D01*
X0285014Y0198151D01*
X0287113Y0195002D02*
X0287638Y0194477D01*
Y0193428D01*
X0287113Y0192903D01*
X0285014D01*
X0284489Y0193428D01*
Y0194477D01*
X0285014Y0195002D01*
X0285539D01*
X0286064Y0194477D01*
Y0192903D01*
X0284660Y0208688D02*
X0284135Y0209213D01*
Y0210263D01*
X0284660Y0210787D01*
X0286759D01*
X0287284Y0210263D01*
Y0209213D01*
X0286759Y0208688D01*
X0287284Y0205540D02*
Y0207639D01*
X0285185Y0205540D01*
X0284660D01*
X0284135Y0206065D01*
Y0207114D01*
X0284660Y0207639D01*
Y0204490D02*
X0284135Y0203965D01*
Y0202916D01*
X0284660Y0202391D01*
X0285185D01*
X0285709Y0202916D01*
X0286234Y0202391D01*
X0286759D01*
X0287284Y0202916D01*
Y0203965D01*
X0286759Y0204490D01*
X0286234D01*
X0285709Y0203965D01*
X0285185Y0204490D01*
X0284660D01*
X0285709Y0203965D02*
Y0202916D01*
X0261679Y0258477D02*
X0262204Y0257952D01*
Y0256903D01*
X0261679Y0256378D01*
X0259580D01*
X0259055Y0256903D01*
Y0257952D01*
X0259580Y0258477D01*
X0259055Y0261626D02*
Y0259527D01*
X0261154Y0261626D01*
X0261679D01*
X0262204Y0261101D01*
Y0260051D01*
X0261679Y0259527D01*
X0259055Y0264249D02*
X0262204D01*
X0260629Y0262675D01*
Y0264774D01*
X0276326Y0256049D02*
X0276851Y0256574D01*
X0277900D01*
X0278425Y0256049D01*
Y0253950D01*
X0277900Y0253425D01*
X0276851D01*
X0276326Y0253950D01*
X0273178Y0253425D02*
X0275277D01*
X0273178Y0255524D01*
Y0256049D01*
X0273702Y0256574D01*
X0274752D01*
X0275277Y0256049D01*
X0272128D02*
X0271603Y0256574D01*
X0270554D01*
X0270029Y0256049D01*
Y0255524D01*
X0270554Y0254999D01*
X0271078D01*
X0270554D01*
X0270029Y0254475D01*
Y0253950D01*
X0270554Y0253425D01*
X0271603D01*
X0272128Y0253950D01*
X0269868Y0236272D02*
X0270393Y0235748D01*
Y0234698D01*
X0269868Y0234173D01*
X0267769D01*
X0267244Y0234698D01*
Y0235748D01*
X0267769Y0236272D01*
X0267244Y0239421D02*
Y0237322D01*
X0269343Y0239421D01*
X0269868D01*
X0270393Y0238896D01*
Y0237847D01*
X0269868Y0237322D01*
X0267244Y0242569D02*
Y0240471D01*
X0269343Y0242569D01*
X0269868D01*
X0270393Y0242045D01*
Y0240995D01*
X0269868Y0240471D01*
X0297783Y0246482D02*
X0298308Y0247007D01*
X0299357D01*
X0299882Y0246482D01*
Y0244383D01*
X0299357Y0243858D01*
X0298308D01*
X0297783Y0244383D01*
X0294634Y0243858D02*
X0296733D01*
X0294634Y0245957D01*
Y0246482D01*
X0295159Y0247007D01*
X0296209D01*
X0296733Y0246482D01*
X0293585Y0243858D02*
X0292535D01*
X0293060D01*
Y0247007D01*
X0293585Y0246482D01*
X0296702Y0221246D02*
X0297227Y0221771D01*
X0298276D01*
X0298801Y0221246D01*
Y0219147D01*
X0298276Y0218622D01*
X0297227D01*
X0296702Y0219147D01*
X0295652Y0218622D02*
X0294603D01*
X0295128D01*
Y0221771D01*
X0295652Y0221246D01*
X0293029Y0219147D02*
X0292504Y0218622D01*
X0291454D01*
X0290930Y0219147D01*
Y0221246D01*
X0291454Y0221771D01*
X0292504D01*
X0293029Y0221246D01*
Y0220721D01*
X0292504Y0220196D01*
X0290930D01*
X0229671Y0228518D02*
X0230196Y0227993D01*
Y0226943D01*
X0229671Y0226419D01*
X0227572D01*
X0227047Y0226943D01*
Y0227993D01*
X0227572Y0228518D01*
X0227047Y0229567D02*
Y0230617D01*
Y0230092D01*
X0230196D01*
X0229671Y0229567D01*
X0230196Y0232191D02*
Y0234290D01*
X0229671D01*
X0227572Y0232191D01*
X0227047D01*
X0262207Y0197598D02*
X0262732Y0197074D01*
Y0196024D01*
X0262207Y0195499D01*
X0260108D01*
X0259584Y0196024D01*
Y0197074D01*
X0260108Y0197598D01*
X0259584Y0198648D02*
Y0199697D01*
Y0199173D01*
X0262732D01*
X0262207Y0198648D01*
Y0201272D02*
X0262732Y0201797D01*
Y0202846D01*
X0262207Y0203371D01*
X0260108D01*
X0259584Y0202846D01*
Y0201797D01*
X0260108Y0201272D01*
X0262207D01*
X0279279Y0289199D02*
X0279804Y0289723D01*
X0280853D01*
X0281378Y0289199D01*
Y0287100D01*
X0280853Y0286575D01*
X0279804D01*
X0279279Y0287100D01*
X0276130Y0289723D02*
X0277180Y0289199D01*
X0278229Y0288149D01*
Y0287100D01*
X0277705Y0286575D01*
X0276655D01*
X0276130Y0287100D01*
Y0287624D01*
X0276655Y0288149D01*
X0278229D01*
X0279082Y0276679D02*
X0279607Y0277204D01*
X0280656D01*
X0281181Y0276679D01*
Y0274580D01*
X0280656Y0274055D01*
X0279607D01*
X0279082Y0274580D01*
X0275934Y0277204D02*
X0278032D01*
Y0275629D01*
X0276983Y0276154D01*
X0276458D01*
X0275934Y0275629D01*
Y0274580D01*
X0276458Y0274055D01*
X0277508D01*
X0278032Y0274580D01*
X0244397Y0247506D02*
X0244922Y0248030D01*
X0245971D01*
X0246496Y0247506D01*
Y0245407D01*
X0245971Y0244882D01*
X0244922D01*
X0244397Y0245407D01*
X0241773Y0244882D02*
Y0248030D01*
X0243348Y0246456D01*
X0241248D01*
X0255340Y0251705D02*
X0255865Y0251181D01*
Y0250131D01*
X0255340Y0249606D01*
X0253241D01*
X0252717Y0250131D01*
Y0251181D01*
X0253241Y0251705D01*
X0255340Y0252755D02*
X0255865Y0253280D01*
Y0254329D01*
X0255340Y0254854D01*
X0254816D01*
X0254291Y0254329D01*
Y0253804D01*
Y0254329D01*
X0253766Y0254854D01*
X0253241D01*
X0252717Y0254329D01*
Y0253280D01*
X0253241Y0252755D01*
X0255460Y0300144D02*
X0255985Y0300668D01*
X0257034D01*
X0257559Y0300144D01*
Y0298044D01*
X0257034Y0297520D01*
X0255985D01*
X0255460Y0298044D01*
X0252311Y0297520D02*
X0254411D01*
X0252311Y0299619D01*
Y0300144D01*
X0252836Y0300668D01*
X0253886D01*
X0254411Y0300144D01*
X0257978Y0281036D02*
X0258503Y0280511D01*
Y0279462D01*
X0257978Y0278937D01*
X0255879D01*
X0255354Y0279462D01*
Y0280511D01*
X0255879Y0281036D01*
X0255354Y0282086D02*
Y0283135D01*
Y0282610D01*
X0258503D01*
X0257978Y0282086D01*
X0373580Y0164439D02*
Y0161815D01*
X0373055Y0161290D01*
X0372006D01*
X0371481Y0161815D01*
Y0164439D01*
X0370431Y0161290D02*
X0369382D01*
X0369906D01*
Y0164439D01*
X0370431Y0163914D01*
X0366233Y0161290D02*
Y0164439D01*
X0367807Y0162864D01*
X0365708D01*
X0371457Y0155038D02*
X0369358D01*
X0370407D01*
Y0151890D01*
X0366209Y0155038D02*
X0367259Y0154514D01*
X0368308Y0153464D01*
Y0152415D01*
X0367783Y0151890D01*
X0366734D01*
X0366209Y0152415D01*
Y0152939D01*
X0366734Y0153464D01*
X0368308D01*
X0382837Y0171033D02*
X0380738D01*
X0381788D01*
Y0167884D01*
X0377590Y0171033D02*
X0379689D01*
Y0169459D01*
X0378639Y0169983D01*
X0378114D01*
X0377590Y0169459D01*
Y0168409D01*
X0378114Y0167884D01*
X0379164D01*
X0379689Y0168409D01*
X0368504Y0175047D02*
X0371653D01*
Y0176621D01*
X0371128Y0177146D01*
X0370078D01*
X0369554Y0176621D01*
Y0175047D01*
Y0176097D02*
X0368504Y0177146D01*
X0371128Y0178196D02*
X0371653Y0178720D01*
Y0179770D01*
X0371128Y0180295D01*
X0370603D01*
X0370078Y0179770D01*
Y0179245D01*
Y0179770D01*
X0369554Y0180295D01*
X0369029D01*
X0368504Y0179770D01*
Y0178720D01*
X0369029Y0178196D01*
X0371653Y0183443D02*
X0371128Y0182394D01*
X0370078Y0181344D01*
X0369029D01*
X0368504Y0181869D01*
Y0182919D01*
X0369029Y0183443D01*
X0369554D01*
X0370078Y0182919D01*
Y0181344D01*
X0345473Y0177597D02*
Y0174974D01*
X0344948Y0174449D01*
X0343898D01*
X0343373Y0174974D01*
Y0177597D01*
X0342324Y0174449D02*
X0341274D01*
X0341799D01*
Y0177597D01*
X0342324Y0177073D01*
X0337601Y0174449D02*
X0339700D01*
X0337601Y0176548D01*
Y0177073D01*
X0338126Y0177597D01*
X0339175D01*
X0339700Y0177073D01*
X0352718Y0224015D02*
X0350619D01*
X0351669D01*
Y0220866D01*
X0347995D02*
Y0224015D01*
X0349570Y0222440D01*
X0347470D01*
X0343425Y0220866D02*
Y0224015D01*
X0341851D01*
X0341326Y0223490D01*
Y0222440D01*
X0341851Y0221916D01*
X0343425D01*
X0342376D02*
X0341326Y0220866D01*
X0340277Y0223490D02*
X0339752Y0224015D01*
X0338702D01*
X0338177Y0223490D01*
Y0222965D01*
X0338702Y0222440D01*
X0339227D01*
X0338702D01*
X0338177Y0221916D01*
Y0221391D01*
X0338702Y0220866D01*
X0339752D01*
X0340277Y0221391D01*
X0335029Y0220866D02*
X0337128D01*
X0335029Y0222965D01*
Y0223490D01*
X0335554Y0224015D01*
X0336603D01*
X0337128Y0223490D01*
X0365305Y0221693D02*
Y0224841D01*
X0363730D01*
X0363206Y0224317D01*
Y0223267D01*
X0363730Y0222742D01*
X0365305D01*
X0364255D02*
X0363206Y0221693D01*
X0362156Y0224317D02*
X0361631Y0224841D01*
X0360582D01*
X0360057Y0224317D01*
Y0223792D01*
X0360582Y0223267D01*
X0361107D01*
X0360582D01*
X0360057Y0222742D01*
Y0222218D01*
X0360582Y0221693D01*
X0361631D01*
X0362156Y0222218D01*
X0359008Y0221693D02*
X0357958D01*
X0358483D01*
Y0224841D01*
X0359008Y0224317D01*
X0364646Y0172874D02*
X0367794D01*
Y0174448D01*
X0367270Y0174973D01*
X0366220D01*
X0365695Y0174448D01*
Y0172874D01*
Y0173924D02*
X0364646Y0174973D01*
X0367270Y0176023D02*
X0367794Y0176547D01*
Y0177597D01*
X0367270Y0178122D01*
X0366745D01*
X0366220Y0177597D01*
Y0177072D01*
Y0177597D01*
X0365695Y0178122D01*
X0365171D01*
X0364646Y0177597D01*
Y0176547D01*
X0365171Y0176023D01*
X0367270Y0179171D02*
X0367794Y0179696D01*
Y0180745D01*
X0367270Y0181270D01*
X0365171D01*
X0364646Y0180745D01*
Y0179696D01*
X0365171Y0179171D01*
X0367270D01*
X0363858Y0172598D02*
X0360710D01*
Y0171024D01*
X0361234Y0170499D01*
X0362284D01*
X0362809Y0171024D01*
Y0172598D01*
Y0171549D02*
X0363858Y0170499D01*
Y0167351D02*
Y0169450D01*
X0361759Y0167351D01*
X0361234D01*
X0360710Y0167876D01*
Y0168925D01*
X0361234Y0169450D01*
Y0166301D02*
X0360710Y0165777D01*
Y0164727D01*
X0361234Y0164202D01*
X0361759D01*
X0362284Y0164727D01*
X0362809Y0164202D01*
X0363334D01*
X0363858Y0164727D01*
Y0165777D01*
X0363334Y0166301D01*
X0362809D01*
X0362284Y0165777D01*
X0361759Y0166301D01*
X0361234D01*
X0362284Y0165777D02*
Y0164727D01*
X0362992Y0213347D02*
Y0216495D01*
X0361418D01*
X0360893Y0215970D01*
Y0214921D01*
X0361418Y0214396D01*
X0362992D01*
X0361943D02*
X0360893Y0213347D01*
X0357745D02*
X0359844D01*
X0357745Y0215445D01*
Y0215970D01*
X0358269Y0216495D01*
X0359319D01*
X0359844Y0215970D01*
X0356695Y0216495D02*
X0354596D01*
Y0215970D01*
X0356695Y0213871D01*
Y0213347D01*
X0347362Y0151731D02*
Y0148583D01*
X0345263D01*
X0342115Y0151731D02*
X0343164Y0151207D01*
X0344214Y0150157D01*
Y0149107D01*
X0343689Y0148583D01*
X0342639D01*
X0342115Y0149107D01*
Y0149632D01*
X0342639Y0150157D01*
X0344214D01*
X0328215Y0188241D02*
X0328739Y0187716D01*
Y0186667D01*
X0328215Y0186142D01*
X0326115D01*
X0325591Y0186667D01*
Y0187716D01*
X0326115Y0188241D01*
X0325591Y0190865D02*
X0328739D01*
X0327165Y0189290D01*
Y0191389D01*
X0328215Y0192439D02*
X0328739Y0192964D01*
Y0194013D01*
X0328215Y0194538D01*
X0327690D01*
X0327165Y0194013D01*
Y0193488D01*
Y0194013D01*
X0326640Y0194538D01*
X0326115D01*
X0325591Y0194013D01*
Y0192964D01*
X0326115Y0192439D01*
X0355486Y0170499D02*
X0354962Y0171024D01*
Y0172074D01*
X0355486Y0172598D01*
X0357586D01*
X0358110Y0172074D01*
Y0171024D01*
X0357586Y0170499D01*
X0358110Y0167876D02*
X0354962D01*
X0356536Y0169450D01*
Y0167351D01*
X0358110Y0164202D02*
Y0166301D01*
X0356011Y0164202D01*
X0355486D01*
X0354962Y0164727D01*
Y0165777D01*
X0355486Y0166301D01*
X0349148Y0170617D02*
X0348623Y0171142D01*
Y0172192D01*
X0349148Y0172716D01*
X0351247D01*
X0351772Y0172192D01*
Y0171142D01*
X0351247Y0170617D01*
X0351772Y0167994D02*
X0348623D01*
X0350197Y0169568D01*
Y0167469D01*
X0351772Y0166419D02*
Y0165370D01*
Y0165895D01*
X0348623D01*
X0349148Y0166419D01*
X0329244Y0176317D02*
X0329769Y0175793D01*
Y0174743D01*
X0329244Y0174218D01*
X0327145D01*
X0326620Y0174743D01*
Y0175793D01*
X0327145Y0176317D01*
X0329244Y0177367D02*
X0329769Y0177892D01*
Y0178941D01*
X0329244Y0179466D01*
X0328719D01*
X0328195Y0178941D01*
Y0178416D01*
Y0178941D01*
X0327670Y0179466D01*
X0327145D01*
X0326620Y0178941D01*
Y0177892D01*
X0327145Y0177367D01*
Y0180515D02*
X0326620Y0181040D01*
Y0182090D01*
X0327145Y0182614D01*
X0329244D01*
X0329769Y0182090D01*
Y0181040D01*
X0329244Y0180515D01*
X0328719D01*
X0328195Y0181040D01*
Y0182614D01*
X0351950Y0207572D02*
X0352475Y0208097D01*
X0353524D01*
X0354049Y0207572D01*
Y0205473D01*
X0353524Y0204949D01*
X0352475D01*
X0351950Y0205473D01*
X0350901Y0207572D02*
X0350376Y0208097D01*
X0349326D01*
X0348801Y0207572D01*
Y0207048D01*
X0349326Y0206523D01*
X0349851D01*
X0349326D01*
X0348801Y0205998D01*
Y0205473D01*
X0349326Y0204949D01*
X0350376D01*
X0350901Y0205473D01*
X0345653Y0204949D02*
X0347752D01*
X0345653Y0207048D01*
Y0207572D01*
X0346178Y0208097D01*
X0347227D01*
X0347752Y0207572D01*
X0362899Y0207650D02*
X0363424Y0207125D01*
Y0206076D01*
X0362899Y0205551D01*
X0360801D01*
X0360276Y0206076D01*
Y0207125D01*
X0360801Y0207650D01*
X0362899Y0208700D02*
X0363424Y0209225D01*
Y0210274D01*
X0362899Y0210799D01*
X0362375D01*
X0361850Y0210274D01*
Y0209749D01*
Y0210274D01*
X0361325Y0210799D01*
X0360801D01*
X0360276Y0210274D01*
Y0209225D01*
X0360801Y0208700D01*
X0360276Y0211848D02*
Y0212898D01*
Y0212373D01*
X0363424D01*
X0362899Y0211848D01*
X0379764Y0311221D02*
X0382912D01*
Y0312795D01*
X0382388Y0313320D01*
X0381338D01*
X0380813Y0312795D01*
Y0311221D01*
Y0312270D02*
X0379764Y0313320D01*
Y0316468D02*
Y0314369D01*
X0381863Y0316468D01*
X0382388D01*
X0382912Y0315943D01*
Y0314894D01*
X0382388Y0314369D01*
X0382912Y0319617D02*
X0382388Y0318567D01*
X0381338Y0317518D01*
X0380289D01*
X0379764Y0318042D01*
Y0319092D01*
X0380289Y0319617D01*
X0380813D01*
X0381338Y0319092D01*
Y0317518D01*
X0314960Y0244331D02*
X0311811Y0246430D01*
X0314960D02*
X0311811Y0244331D01*
Y0247479D02*
Y0248529D01*
Y0248004D01*
X0314960D01*
X0314435Y0247479D01*
X0332716Y0377953D02*
X0330092D01*
X0329567Y0378478D01*
Y0379527D01*
X0330092Y0380052D01*
X0332716D01*
X0330092Y0381101D02*
X0329567Y0381626D01*
Y0382676D01*
X0330092Y0383201D01*
X0332191D01*
X0332716Y0382676D01*
Y0381626D01*
X0332191Y0381101D01*
X0331666D01*
X0331141Y0381626D01*
Y0383201D01*
X0370158Y0320550D02*
Y0317926D01*
X0369633Y0317402D01*
X0368583D01*
X0368058Y0317926D01*
Y0320550D01*
X0367009Y0320025D02*
X0366484Y0320550D01*
X0365435D01*
X0364910Y0320025D01*
Y0319501D01*
X0365435Y0318976D01*
X0364910Y0318451D01*
Y0317926D01*
X0365435Y0317402D01*
X0366484D01*
X0367009Y0317926D01*
Y0318451D01*
X0366484Y0318976D01*
X0367009Y0319501D01*
Y0320025D01*
X0366484Y0318976D02*
X0365435D01*
X0374487Y0243780D02*
X0371863D01*
X0371339Y0244304D01*
Y0245354D01*
X0371863Y0245879D01*
X0374487D01*
Y0246928D02*
Y0249027D01*
X0373962D01*
X0371863Y0246928D01*
X0371339D01*
X0319921Y0280826D02*
Y0278202D01*
X0319396Y0277677D01*
X0318347D01*
X0317822Y0278202D01*
Y0280826D01*
X0314674Y0277677D02*
X0316773D01*
X0314674Y0279776D01*
Y0280301D01*
X0315198Y0280826D01*
X0316248D01*
X0316773Y0280301D01*
X0320905Y0272243D02*
Y0269619D01*
X0320381Y0269094D01*
X0319331D01*
X0318807Y0269619D01*
Y0272243D01*
X0317757Y0269094D02*
X0316707D01*
X0317232D01*
Y0272243D01*
X0317757Y0271718D01*
X0325984Y0206574D02*
X0323885D01*
X0324935D01*
Y0203425D01*
X0320737D02*
X0322836D01*
X0320737Y0205524D01*
Y0206049D01*
X0321261Y0206574D01*
X0322311D01*
X0322836Y0206049D01*
X0329961Y0243031D02*
X0327862D01*
X0328911D01*
Y0239882D01*
X0326812D02*
X0325763D01*
X0326287D01*
Y0243031D01*
X0326812Y0242506D01*
X0354449Y0234173D02*
X0357597D01*
Y0235748D01*
X0357073Y0236272D01*
X0356023D01*
X0355498Y0235748D01*
Y0234173D01*
Y0235223D02*
X0354449Y0236272D01*
Y0239421D02*
Y0237322D01*
X0356548Y0239421D01*
X0357073D01*
X0357597Y0238896D01*
Y0237847D01*
X0357073Y0237322D01*
X0357597Y0242569D02*
Y0240471D01*
X0356023D01*
X0356548Y0241520D01*
Y0242045D01*
X0356023Y0242569D01*
X0354974D01*
X0354449Y0242045D01*
Y0240995D01*
X0354974Y0240471D01*
X0359842Y0230000D02*
Y0233149D01*
X0358268D01*
X0357744Y0232624D01*
Y0231574D01*
X0358268Y0231050D01*
X0359842D01*
X0358793D02*
X0357744Y0230000D01*
X0354595D02*
X0356694D01*
X0354595Y0232099D01*
Y0232624D01*
X0355120Y0233149D01*
X0356169D01*
X0356694Y0232624D01*
X0351971Y0230000D02*
Y0233149D01*
X0353545Y0231574D01*
X0351446D01*
X0359842Y0225827D02*
Y0228975D01*
X0358268D01*
X0357744Y0228451D01*
Y0227401D01*
X0358268Y0226876D01*
X0359842D01*
X0358793D02*
X0357744Y0225827D01*
X0354595D02*
X0356694D01*
X0354595Y0227926D01*
Y0228451D01*
X0355120Y0228975D01*
X0356169D01*
X0356694Y0228451D01*
X0353545D02*
X0353021Y0228975D01*
X0351971D01*
X0351446Y0228451D01*
Y0227926D01*
X0351971Y0227401D01*
X0352496D01*
X0351971D01*
X0351446Y0226876D01*
Y0226352D01*
X0351971Y0225827D01*
X0353021D01*
X0353545Y0226352D01*
X0326693Y0332244D02*
X0329841D01*
Y0333818D01*
X0329317Y0334343D01*
X0328267D01*
X0327743Y0333818D01*
Y0332244D01*
Y0333294D02*
X0326693Y0334343D01*
Y0335393D02*
Y0336442D01*
Y0335917D01*
X0329841D01*
X0329317Y0335393D01*
X0329841Y0338017D02*
Y0340116D01*
X0329317D01*
X0327218Y0338017D01*
X0326693D01*
X0317362Y0208622D02*
X0320511D01*
Y0210196D01*
X0319986Y0210721D01*
X0318936D01*
X0318412Y0210196D01*
Y0208622D01*
Y0209672D02*
X0317362Y0210721D01*
Y0211771D02*
Y0212820D01*
Y0212296D01*
X0320511D01*
X0319986Y0211771D01*
X0320511Y0216494D02*
X0319986Y0215444D01*
X0318936Y0214394D01*
X0317887D01*
X0317362Y0214919D01*
Y0215969D01*
X0317887Y0216494D01*
X0318412D01*
X0318936Y0215969D01*
Y0214394D01*
X0333150Y0195512D02*
Y0198660D01*
X0331575D01*
X0331051Y0198136D01*
Y0197086D01*
X0331575Y0196561D01*
X0333150D01*
X0332100D02*
X0331051Y0195512D01*
X0330001D02*
X0328952D01*
X0329476D01*
Y0198660D01*
X0330001Y0198136D01*
X0325278Y0198660D02*
X0327377D01*
Y0197086D01*
X0326328Y0197611D01*
X0325803D01*
X0325278Y0197086D01*
Y0196037D01*
X0325803Y0195512D01*
X0326852D01*
X0327377Y0196037D01*
X0326299Y0217559D02*
Y0220708D01*
X0324725D01*
X0324200Y0220183D01*
Y0219133D01*
X0324725Y0218609D01*
X0326299D01*
X0325250D02*
X0324200Y0217559D01*
X0323151D02*
X0322101D01*
X0322626D01*
Y0220708D01*
X0323151Y0220183D01*
X0318953Y0217559D02*
Y0220708D01*
X0320527Y0219133D01*
X0318428D01*
X0324689Y0202447D02*
X0321540D01*
Y0200873D01*
X0322065Y0200348D01*
X0323115D01*
X0323639Y0200873D01*
Y0202447D01*
Y0201398D02*
X0324689Y0200348D01*
Y0199299D02*
Y0198249D01*
Y0198774D01*
X0321540D01*
X0322065Y0199299D01*
Y0196675D02*
X0321540Y0196150D01*
Y0195101D01*
X0322065Y0194576D01*
X0322590D01*
X0323115Y0195101D01*
Y0195625D01*
Y0195101D01*
X0323639Y0194576D01*
X0324164D01*
X0324689Y0195101D01*
Y0196150D01*
X0324164Y0196675D01*
X0339095Y0204488D02*
X0342243D01*
Y0206063D01*
X0341718Y0206587D01*
X0340669D01*
X0340144Y0206063D01*
Y0204488D01*
Y0205538D02*
X0339095Y0206587D01*
Y0207637D02*
Y0208686D01*
Y0208161D01*
X0342243D01*
X0341718Y0207637D01*
X0339095Y0212360D02*
Y0210261D01*
X0341194Y0212360D01*
X0341718D01*
X0342243Y0211835D01*
Y0210785D01*
X0341718Y0210261D01*
X0319843Y0224921D02*
X0322991D01*
Y0226496D01*
X0322466Y0227020D01*
X0321417D01*
X0320892Y0226496D01*
Y0224921D01*
Y0225971D02*
X0319843Y0227020D01*
X0322466Y0228070D02*
X0322991Y0228595D01*
Y0229644D01*
X0322466Y0230169D01*
X0321942D01*
X0321417Y0229644D01*
X0320892Y0230169D01*
X0320367D01*
X0319843Y0229644D01*
Y0228595D01*
X0320367Y0228070D01*
X0320892D01*
X0321417Y0228595D01*
X0321942Y0228070D01*
X0322466D01*
X0321417Y0228595D02*
Y0229644D01*
X0324370Y0240197D02*
Y0243345D01*
X0322796D01*
X0322271Y0242821D01*
Y0241771D01*
X0322796Y0241246D01*
X0324370D01*
X0323321D02*
X0322271Y0240197D01*
X0321221Y0243345D02*
X0319122D01*
Y0242821D01*
X0321221Y0240722D01*
Y0240197D01*
X0341260Y0231654D02*
X0344408D01*
Y0233228D01*
X0343884Y0233753D01*
X0342834D01*
X0342309Y0233228D01*
Y0231654D01*
Y0232703D02*
X0341260Y0233753D01*
X0344408Y0236901D02*
X0343884Y0235852D01*
X0342834Y0234802D01*
X0341785D01*
X0341260Y0235327D01*
Y0236377D01*
X0341785Y0236901D01*
X0342309D01*
X0342834Y0236377D01*
Y0234802D01*
X0332244Y0224134D02*
X0335393D01*
Y0225708D01*
X0334868Y0226233D01*
X0333818D01*
X0333294Y0225708D01*
Y0224134D01*
Y0225183D02*
X0332244Y0226233D01*
X0335393Y0229382D02*
Y0227283D01*
X0333818D01*
X0334343Y0228332D01*
Y0228857D01*
X0333818Y0229382D01*
X0332769D01*
X0332244Y0228857D01*
Y0227807D01*
X0332769Y0227283D01*
X0337283Y0264291D02*
X0340432D01*
Y0265866D01*
X0339907Y0266390D01*
X0338858D01*
X0338333Y0265866D01*
Y0264291D01*
Y0265341D02*
X0337283Y0266390D01*
Y0269014D02*
X0340432D01*
X0338858Y0267440D01*
Y0269539D01*
X0325827Y0286772D02*
X0328975D01*
Y0288346D01*
X0328451Y0288871D01*
X0327401D01*
X0326876Y0288346D01*
Y0286772D01*
Y0287821D02*
X0325827Y0288871D01*
X0328451Y0289920D02*
X0328975Y0290445D01*
Y0291495D01*
X0328451Y0292019D01*
X0327926D01*
X0327401Y0291495D01*
Y0290970D01*
Y0291495D01*
X0326876Y0292019D01*
X0326352D01*
X0325827Y0291495D01*
Y0290445D01*
X0326352Y0289920D01*
X0310512Y0236364D02*
X0313660D01*
Y0237939D01*
X0313136Y0238463D01*
X0312086D01*
X0311561Y0237939D01*
Y0236364D01*
Y0237414D02*
X0310512Y0238463D01*
Y0241612D02*
Y0239513D01*
X0312611Y0241612D01*
X0313136D01*
X0313660Y0241087D01*
Y0240038D01*
X0313136Y0239513D01*
X0347008Y0285354D02*
Y0288503D01*
X0345434D01*
X0344909Y0287978D01*
Y0286929D01*
X0345434Y0286404D01*
X0347008D01*
X0345958D02*
X0344909Y0285354D01*
X0343859D02*
X0342810D01*
X0343335D01*
Y0288503D01*
X0343859Y0287978D01*
X0370039Y0255393D02*
Y0252244D01*
X0367940D01*
X0364792Y0255393D02*
X0366891D01*
Y0253818D01*
X0365841Y0254343D01*
X0365317D01*
X0364792Y0253818D01*
Y0252769D01*
X0365317Y0252244D01*
X0366366D01*
X0366891Y0252769D01*
X0358306Y0279252D02*
X0355157D01*
Y0281351D01*
Y0284500D02*
Y0282401D01*
X0357257Y0284500D01*
X0357781D01*
X0358306Y0283975D01*
Y0282925D01*
X0357781Y0282401D01*
X0332205Y0300668D02*
Y0297520D01*
X0330106D01*
X0329056D02*
X0328007D01*
X0328531D01*
Y0300668D01*
X0329056Y0300144D01*
X0363779Y0272755D02*
Y0269606D01*
X0362205D01*
X0361681Y0270131D01*
Y0272230D01*
X0362205Y0272755D01*
X0363779D01*
X0360631Y0269606D02*
X0359581D01*
X0360106D01*
Y0272755D01*
X0360631Y0272230D01*
X0324632Y0364816D02*
X0325156Y0364291D01*
Y0363241D01*
X0324632Y0362717D01*
X0322533D01*
X0322008Y0363241D01*
Y0364291D01*
X0322533Y0364816D01*
X0324632Y0365865D02*
X0325156Y0366390D01*
Y0367440D01*
X0324632Y0367964D01*
X0324107D01*
X0323582Y0367440D01*
Y0366915D01*
Y0367440D01*
X0323057Y0367964D01*
X0322533D01*
X0322008Y0367440D01*
Y0366390D01*
X0322533Y0365865D01*
X0325156Y0371113D02*
X0324632Y0370063D01*
X0323582Y0369014D01*
X0322533D01*
X0322008Y0369538D01*
Y0370588D01*
X0322533Y0371113D01*
X0323057D01*
X0323582Y0370588D01*
Y0369014D01*
X0353019Y0306010D02*
X0353544Y0306535D01*
X0354593D01*
X0355118Y0306010D01*
Y0303911D01*
X0354593Y0303386D01*
X0353544D01*
X0353019Y0303911D01*
X0351970Y0306010D02*
X0351445Y0306535D01*
X0350395D01*
X0349870Y0306010D01*
Y0305485D01*
X0350395Y0304960D01*
X0350920D01*
X0350395D01*
X0349870Y0304435D01*
Y0303911D01*
X0350395Y0303386D01*
X0351445D01*
X0351970Y0303911D01*
X0347247Y0303386D02*
Y0306535D01*
X0348821Y0304960D01*
X0346722D01*
X0372113Y0298766D02*
X0372638Y0299290D01*
X0373688D01*
X0374213Y0298766D01*
Y0296667D01*
X0373688Y0296142D01*
X0372638D01*
X0372113Y0296667D01*
X0371064Y0298766D02*
X0370539Y0299290D01*
X0369490D01*
X0368965Y0298766D01*
Y0298241D01*
X0369490Y0297716D01*
X0370015D01*
X0369490D01*
X0368965Y0297191D01*
Y0296667D01*
X0369490Y0296142D01*
X0370539D01*
X0371064Y0296667D01*
X0367915Y0298766D02*
X0367391Y0299290D01*
X0366341D01*
X0365816Y0298766D01*
Y0298241D01*
X0366341Y0297716D01*
X0366866D01*
X0366341D01*
X0365816Y0297191D01*
Y0296667D01*
X0366341Y0296142D01*
X0367391D01*
X0367915Y0296667D01*
X0368675Y0190145D02*
X0368151Y0190670D01*
Y0191719D01*
X0368675Y0192244D01*
X0370775D01*
X0371299Y0191719D01*
Y0190670D01*
X0370775Y0190145D01*
X0368675Y0189095D02*
X0368151Y0188571D01*
Y0187521D01*
X0368675Y0186996D01*
X0369200D01*
X0369725Y0187521D01*
Y0188046D01*
Y0187521D01*
X0370250Y0186996D01*
X0370775D01*
X0371299Y0187521D01*
Y0188571D01*
X0370775Y0189095D01*
X0368675Y0185947D02*
X0368151Y0185422D01*
Y0184373D01*
X0368675Y0183848D01*
X0370775D01*
X0371299Y0184373D01*
Y0185422D01*
X0370775Y0185947D01*
X0368675D01*
X0368479Y0199200D02*
X0367954Y0199725D01*
Y0200774D01*
X0368479Y0201299D01*
X0370578D01*
X0371102Y0200774D01*
Y0199725D01*
X0370578Y0199200D01*
X0371102Y0196052D02*
Y0198151D01*
X0369003Y0196052D01*
X0368479D01*
X0367954Y0196576D01*
Y0197626D01*
X0368479Y0198151D01*
X0370578Y0195002D02*
X0371102Y0194477D01*
Y0193428D01*
X0370578Y0192903D01*
X0368479D01*
X0367954Y0193428D01*
Y0194477D01*
X0368479Y0195002D01*
X0369003D01*
X0369528Y0194477D01*
Y0192903D01*
X0368124Y0208688D02*
X0367600Y0209213D01*
Y0210263D01*
X0368124Y0210787D01*
X0370223D01*
X0370748Y0210263D01*
Y0209213D01*
X0370223Y0208688D01*
X0370748Y0205540D02*
Y0207639D01*
X0368649Y0205540D01*
X0368124D01*
X0367600Y0206065D01*
Y0207114D01*
X0368124Y0207639D01*
Y0204490D02*
X0367600Y0203965D01*
Y0202916D01*
X0368124Y0202391D01*
X0368649D01*
X0369174Y0202916D01*
X0369699Y0202391D01*
X0370223D01*
X0370748Y0202916D01*
Y0203965D01*
X0370223Y0204490D01*
X0369699D01*
X0369174Y0203965D01*
X0368649Y0204490D01*
X0368124D01*
X0369174Y0203965D02*
Y0202916D01*
X0345144Y0258477D02*
X0345668Y0257952D01*
Y0256903D01*
X0345144Y0256378D01*
X0343044D01*
X0342520Y0256903D01*
Y0257952D01*
X0343044Y0258477D01*
X0342520Y0261626D02*
Y0259527D01*
X0344619Y0261626D01*
X0345144D01*
X0345668Y0261101D01*
Y0260051D01*
X0345144Y0259527D01*
X0342520Y0264249D02*
X0345668D01*
X0344094Y0262675D01*
Y0264774D01*
X0359791Y0256049D02*
X0360315Y0256574D01*
X0361365D01*
X0361890Y0256049D01*
Y0253950D01*
X0361365Y0253425D01*
X0360315D01*
X0359791Y0253950D01*
X0356642Y0253425D02*
X0358741D01*
X0356642Y0255524D01*
Y0256049D01*
X0357167Y0256574D01*
X0358216D01*
X0358741Y0256049D01*
X0355593D02*
X0355068Y0256574D01*
X0354018D01*
X0353493Y0256049D01*
Y0255524D01*
X0354018Y0254999D01*
X0354543D01*
X0354018D01*
X0353493Y0254475D01*
Y0253950D01*
X0354018Y0253425D01*
X0355068D01*
X0355593Y0253950D01*
X0353332Y0236272D02*
X0353857Y0235748D01*
Y0234698D01*
X0353332Y0234173D01*
X0351233D01*
X0350709Y0234698D01*
Y0235748D01*
X0351233Y0236272D01*
X0350709Y0239421D02*
Y0237322D01*
X0352808Y0239421D01*
X0353332D01*
X0353857Y0238896D01*
Y0237847D01*
X0353332Y0237322D01*
X0350709Y0242569D02*
Y0240471D01*
X0352808Y0242569D01*
X0353332D01*
X0353857Y0242045D01*
Y0240995D01*
X0353332Y0240471D01*
X0381247Y0246482D02*
X0381772Y0247007D01*
X0382822D01*
X0383347Y0246482D01*
Y0244383D01*
X0382822Y0243858D01*
X0381772D01*
X0381247Y0244383D01*
X0378099Y0243858D02*
X0380198D01*
X0378099Y0245957D01*
Y0246482D01*
X0378624Y0247007D01*
X0379673D01*
X0380198Y0246482D01*
X0377049Y0243858D02*
X0376000D01*
X0376524D01*
Y0247007D01*
X0377049Y0246482D01*
X0380167Y0221246D02*
X0380691Y0221771D01*
X0381741D01*
X0382266Y0221246D01*
Y0219147D01*
X0381741Y0218622D01*
X0380691D01*
X0380167Y0219147D01*
X0379117Y0218622D02*
X0378067D01*
X0378592D01*
Y0221771D01*
X0379117Y0221246D01*
X0376493Y0219147D02*
X0375968Y0218622D01*
X0374919D01*
X0374394Y0219147D01*
Y0221246D01*
X0374919Y0221771D01*
X0375968D01*
X0376493Y0221246D01*
Y0220721D01*
X0375968Y0220196D01*
X0374394D01*
X0313136Y0228518D02*
X0313660Y0227993D01*
Y0226943D01*
X0313136Y0226419D01*
X0311037D01*
X0310512Y0226943D01*
Y0227993D01*
X0311037Y0228518D01*
X0310512Y0229567D02*
Y0230617D01*
Y0230092D01*
X0313660D01*
X0313136Y0229567D01*
X0313660Y0232191D02*
Y0234290D01*
X0313136D01*
X0311037Y0232191D01*
X0310512D01*
X0345672Y0197598D02*
X0346197Y0197074D01*
Y0196024D01*
X0345672Y0195499D01*
X0343573D01*
X0343048Y0196024D01*
Y0197074D01*
X0343573Y0197598D01*
X0343048Y0198648D02*
Y0199697D01*
Y0199173D01*
X0346197D01*
X0345672Y0198648D01*
Y0201272D02*
X0346197Y0201797D01*
Y0202846D01*
X0345672Y0203371D01*
X0343573D01*
X0343048Y0202846D01*
Y0201797D01*
X0343573Y0201272D01*
X0345672D01*
X0362743Y0289199D02*
X0363268Y0289723D01*
X0364318D01*
X0364843Y0289199D01*
Y0287100D01*
X0364318Y0286575D01*
X0363268D01*
X0362743Y0287100D01*
X0359595Y0289723D02*
X0360644Y0289199D01*
X0361694Y0288149D01*
Y0287100D01*
X0361169Y0286575D01*
X0360120D01*
X0359595Y0287100D01*
Y0287624D01*
X0360120Y0288149D01*
X0361694D01*
X0362547Y0276679D02*
X0363071Y0277204D01*
X0364121D01*
X0364646Y0276679D01*
Y0274580D01*
X0364121Y0274055D01*
X0363071D01*
X0362547Y0274580D01*
X0359398Y0277204D02*
X0361497D01*
Y0275629D01*
X0360448Y0276154D01*
X0359923D01*
X0359398Y0275629D01*
Y0274580D01*
X0359923Y0274055D01*
X0360972D01*
X0361497Y0274580D01*
X0327862Y0247506D02*
X0328386Y0248030D01*
X0329436D01*
X0329961Y0247506D01*
Y0245407D01*
X0329436Y0244882D01*
X0328386D01*
X0327862Y0245407D01*
X0325238Y0244882D02*
Y0248030D01*
X0326812Y0246456D01*
X0324713D01*
X0338805Y0251705D02*
X0339330Y0251181D01*
Y0250131D01*
X0338805Y0249606D01*
X0336706D01*
X0336181Y0250131D01*
Y0251181D01*
X0336706Y0251705D01*
X0338805Y0252755D02*
X0339330Y0253280D01*
Y0254329D01*
X0338805Y0254854D01*
X0338280D01*
X0337755Y0254329D01*
Y0253804D01*
Y0254329D01*
X0337231Y0254854D01*
X0336706D01*
X0336181Y0254329D01*
Y0253280D01*
X0336706Y0252755D01*
X0338925Y0300144D02*
X0339449Y0300668D01*
X0340499D01*
X0341024Y0300144D01*
Y0298044D01*
X0340499Y0297520D01*
X0339449D01*
X0338925Y0298044D01*
X0335776Y0297520D02*
X0337875D01*
X0335776Y0299619D01*
Y0300144D01*
X0336301Y0300668D01*
X0337350D01*
X0337875Y0300144D01*
X0341443Y0281036D02*
X0341968Y0280511D01*
Y0279462D01*
X0341443Y0278937D01*
X0339344D01*
X0338819Y0279462D01*
Y0280511D01*
X0339344Y0281036D01*
X0338819Y0282086D02*
Y0283135D01*
Y0282610D01*
X0341968D01*
X0341443Y0282086D01*
X0457044Y0164439D02*
Y0161815D01*
X0456520Y0161290D01*
X0455470D01*
X0454945Y0161815D01*
Y0164439D01*
X0453896Y0161290D02*
X0452846D01*
X0453371D01*
Y0164439D01*
X0453896Y0163914D01*
X0449698Y0161290D02*
Y0164439D01*
X0451272Y0162864D01*
X0449173D01*
X0454921Y0155038D02*
X0452822D01*
X0453872D01*
Y0151890D01*
X0449674Y0155038D02*
X0450723Y0154514D01*
X0451773Y0153464D01*
Y0152415D01*
X0451248Y0151890D01*
X0450199D01*
X0449674Y0152415D01*
Y0152939D01*
X0450199Y0153464D01*
X0451773D01*
X0466302Y0171033D02*
X0464203D01*
X0465252D01*
Y0167884D01*
X0461054Y0171033D02*
X0463153D01*
Y0169459D01*
X0462104Y0169983D01*
X0461579D01*
X0461054Y0169459D01*
Y0168409D01*
X0461579Y0167884D01*
X0462628D01*
X0463153Y0168409D01*
X0451969Y0175047D02*
X0455117D01*
Y0176621D01*
X0454592Y0177146D01*
X0453543D01*
X0453018Y0176621D01*
Y0175047D01*
Y0176097D02*
X0451969Y0177146D01*
X0454592Y0178196D02*
X0455117Y0178720D01*
Y0179770D01*
X0454592Y0180295D01*
X0454068D01*
X0453543Y0179770D01*
Y0179245D01*
Y0179770D01*
X0453018Y0180295D01*
X0452493D01*
X0451969Y0179770D01*
Y0178720D01*
X0452493Y0178196D01*
X0455117Y0183443D02*
X0454592Y0182394D01*
X0453543Y0181344D01*
X0452493D01*
X0451969Y0181869D01*
Y0182919D01*
X0452493Y0183443D01*
X0453018D01*
X0453543Y0182919D01*
Y0181344D01*
X0428937Y0177597D02*
Y0174974D01*
X0428412Y0174449D01*
X0427363D01*
X0426838Y0174974D01*
Y0177597D01*
X0425788Y0174449D02*
X0424739D01*
X0425264D01*
Y0177597D01*
X0425788Y0177073D01*
X0421066Y0174449D02*
X0423165D01*
X0421066Y0176548D01*
Y0177073D01*
X0421590Y0177597D01*
X0422640D01*
X0423165Y0177073D01*
X0436183Y0224015D02*
X0434084D01*
X0435133D01*
Y0220866D01*
X0431460D02*
Y0224015D01*
X0433034Y0222440D01*
X0430935D01*
X0426890Y0220866D02*
Y0224015D01*
X0425315D01*
X0424791Y0223490D01*
Y0222440D01*
X0425315Y0221916D01*
X0426890D01*
X0425840D02*
X0424791Y0220866D01*
X0423741Y0223490D02*
X0423216Y0224015D01*
X0422167D01*
X0421642Y0223490D01*
Y0222965D01*
X0422167Y0222440D01*
X0422692D01*
X0422167D01*
X0421642Y0221916D01*
Y0221391D01*
X0422167Y0220866D01*
X0423216D01*
X0423741Y0221391D01*
X0418494Y0220866D02*
X0420592D01*
X0418494Y0222965D01*
Y0223490D01*
X0419018Y0224015D01*
X0420068D01*
X0420592Y0223490D01*
X0448769Y0221693D02*
Y0224841D01*
X0447195D01*
X0446670Y0224317D01*
Y0223267D01*
X0447195Y0222742D01*
X0448769D01*
X0447720D02*
X0446670Y0221693D01*
X0445621Y0224317D02*
X0445096Y0224841D01*
X0444046D01*
X0443522Y0224317D01*
Y0223792D01*
X0444046Y0223267D01*
X0444571D01*
X0444046D01*
X0443522Y0222742D01*
Y0222218D01*
X0444046Y0221693D01*
X0445096D01*
X0445621Y0222218D01*
X0442472Y0221693D02*
X0441423D01*
X0441947D01*
Y0224841D01*
X0442472Y0224317D01*
X0448110Y0172874D02*
X0451259D01*
Y0174448D01*
X0450734Y0174973D01*
X0449685D01*
X0449160Y0174448D01*
Y0172874D01*
Y0173924D02*
X0448110Y0174973D01*
X0450734Y0176023D02*
X0451259Y0176547D01*
Y0177597D01*
X0450734Y0178122D01*
X0450209D01*
X0449685Y0177597D01*
Y0177072D01*
Y0177597D01*
X0449160Y0178122D01*
X0448635D01*
X0448110Y0177597D01*
Y0176547D01*
X0448635Y0176023D01*
X0450734Y0179171D02*
X0451259Y0179696D01*
Y0180745D01*
X0450734Y0181270D01*
X0448635D01*
X0448110Y0180745D01*
Y0179696D01*
X0448635Y0179171D01*
X0450734D01*
X0447323Y0172598D02*
X0444174D01*
Y0171024D01*
X0444699Y0170499D01*
X0445749D01*
X0446273Y0171024D01*
Y0172598D01*
Y0171549D02*
X0447323Y0170499D01*
Y0167351D02*
Y0169450D01*
X0445224Y0167351D01*
X0444699D01*
X0444174Y0167876D01*
Y0168925D01*
X0444699Y0169450D01*
Y0166301D02*
X0444174Y0165777D01*
Y0164727D01*
X0444699Y0164202D01*
X0445224D01*
X0445749Y0164727D01*
X0446273Y0164202D01*
X0446798D01*
X0447323Y0164727D01*
Y0165777D01*
X0446798Y0166301D01*
X0446273D01*
X0445749Y0165777D01*
X0445224Y0166301D01*
X0444699D01*
X0445749Y0165777D02*
Y0164727D01*
X0446457Y0213347D02*
Y0216495D01*
X0444882D01*
X0444358Y0215970D01*
Y0214921D01*
X0444882Y0214396D01*
X0446457D01*
X0445407D02*
X0444358Y0213347D01*
X0441209D02*
X0443308D01*
X0441209Y0215445D01*
Y0215970D01*
X0441734Y0216495D01*
X0442783D01*
X0443308Y0215970D01*
X0440160Y0216495D02*
X0438061D01*
Y0215970D01*
X0440160Y0213871D01*
Y0213347D01*
X0430827Y0151731D02*
Y0148583D01*
X0428728D01*
X0425579Y0151731D02*
X0426629Y0151207D01*
X0427678Y0150157D01*
Y0149107D01*
X0427153Y0148583D01*
X0426104D01*
X0425579Y0149107D01*
Y0149632D01*
X0426104Y0150157D01*
X0427678D01*
X0411679Y0188241D02*
X0412204Y0187716D01*
Y0186667D01*
X0411679Y0186142D01*
X0409580D01*
X0409055Y0186667D01*
Y0187716D01*
X0409580Y0188241D01*
X0409055Y0190865D02*
X0412204D01*
X0410630Y0189290D01*
Y0191389D01*
X0411679Y0192439D02*
X0412204Y0192964D01*
Y0194013D01*
X0411679Y0194538D01*
X0411154D01*
X0410630Y0194013D01*
Y0193488D01*
Y0194013D01*
X0410105Y0194538D01*
X0409580D01*
X0409055Y0194013D01*
Y0192964D01*
X0409580Y0192439D01*
X0438951Y0170499D02*
X0438426Y0171024D01*
Y0172074D01*
X0438951Y0172598D01*
X0441050D01*
X0441575Y0172074D01*
Y0171024D01*
X0441050Y0170499D01*
X0441575Y0167876D02*
X0438426D01*
X0440001Y0169450D01*
Y0167351D01*
X0441575Y0164202D02*
Y0166301D01*
X0439476Y0164202D01*
X0438951D01*
X0438426Y0164727D01*
Y0165777D01*
X0438951Y0166301D01*
X0432613Y0170617D02*
X0432088Y0171142D01*
Y0172192D01*
X0432613Y0172716D01*
X0434712D01*
X0435236Y0172192D01*
Y0171142D01*
X0434712Y0170617D01*
X0435236Y0167994D02*
X0432088D01*
X0433662Y0169568D01*
Y0167469D01*
X0435236Y0166419D02*
Y0165370D01*
Y0165895D01*
X0432088D01*
X0432613Y0166419D01*
X0412709Y0176317D02*
X0413234Y0175793D01*
Y0174743D01*
X0412709Y0174218D01*
X0410610D01*
X0410085Y0174743D01*
Y0175793D01*
X0410610Y0176317D01*
X0412709Y0177367D02*
X0413234Y0177892D01*
Y0178941D01*
X0412709Y0179466D01*
X0412184D01*
X0411659Y0178941D01*
Y0178416D01*
Y0178941D01*
X0411134Y0179466D01*
X0410610D01*
X0410085Y0178941D01*
Y0177892D01*
X0410610Y0177367D01*
Y0180515D02*
X0410085Y0181040D01*
Y0182090D01*
X0410610Y0182614D01*
X0412709D01*
X0413234Y0182090D01*
Y0181040D01*
X0412709Y0180515D01*
X0412184D01*
X0411659Y0181040D01*
Y0182614D01*
X0435415Y0207572D02*
X0435939Y0208097D01*
X0436989D01*
X0437514Y0207572D01*
Y0205473D01*
X0436989Y0204949D01*
X0435939D01*
X0435415Y0205473D01*
X0434365Y0207572D02*
X0433840Y0208097D01*
X0432791D01*
X0432266Y0207572D01*
Y0207048D01*
X0432791Y0206523D01*
X0433316D01*
X0432791D01*
X0432266Y0205998D01*
Y0205473D01*
X0432791Y0204949D01*
X0433840D01*
X0434365Y0205473D01*
X0429117Y0204949D02*
X0431216D01*
X0429117Y0207048D01*
Y0207572D01*
X0429642Y0208097D01*
X0430692D01*
X0431216Y0207572D01*
X0446364Y0207650D02*
X0446889Y0207125D01*
Y0206076D01*
X0446364Y0205551D01*
X0444265D01*
X0443740Y0206076D01*
Y0207125D01*
X0444265Y0207650D01*
X0446364Y0208700D02*
X0446889Y0209225D01*
Y0210274D01*
X0446364Y0210799D01*
X0445839D01*
X0445315Y0210274D01*
Y0209749D01*
Y0210274D01*
X0444790Y0210799D01*
X0444265D01*
X0443740Y0210274D01*
Y0209225D01*
X0444265Y0208700D01*
X0443740Y0211848D02*
Y0212898D01*
Y0212373D01*
X0446889D01*
X0446364Y0211848D01*
X0463228Y0311221D02*
X0466377D01*
Y0312795D01*
X0465852Y0313320D01*
X0464803D01*
X0464278Y0312795D01*
Y0311221D01*
Y0312270D02*
X0463228Y0313320D01*
Y0316468D02*
Y0314369D01*
X0465327Y0316468D01*
X0465852D01*
X0466377Y0315943D01*
Y0314894D01*
X0465852Y0314369D01*
X0466377Y0319617D02*
X0465852Y0318567D01*
X0464803Y0317518D01*
X0463753D01*
X0463228Y0318042D01*
Y0319092D01*
X0463753Y0319617D01*
X0464278D01*
X0464803Y0319092D01*
Y0317518D01*
X0398424Y0244331D02*
X0395276Y0246430D01*
X0398424D02*
X0395276Y0244331D01*
Y0247479D02*
Y0248529D01*
Y0248004D01*
X0398424D01*
X0397899Y0247479D01*
X0416180Y0377953D02*
X0413556D01*
X0413031Y0378478D01*
Y0379527D01*
X0413556Y0380052D01*
X0416180D01*
X0413556Y0381101D02*
X0413031Y0381626D01*
Y0382676D01*
X0413556Y0383201D01*
X0415655D01*
X0416180Y0382676D01*
Y0381626D01*
X0415655Y0381101D01*
X0415131D01*
X0414606Y0381626D01*
Y0383201D01*
X0453622Y0320550D02*
Y0317926D01*
X0453097Y0317402D01*
X0452048D01*
X0451523Y0317926D01*
Y0320550D01*
X0450473Y0320025D02*
X0449949Y0320550D01*
X0448899D01*
X0448374Y0320025D01*
Y0319501D01*
X0448899Y0318976D01*
X0448374Y0318451D01*
Y0317926D01*
X0448899Y0317402D01*
X0449949D01*
X0450473Y0317926D01*
Y0318451D01*
X0449949Y0318976D01*
X0450473Y0319501D01*
Y0320025D01*
X0449949Y0318976D02*
X0448899D01*
X0457952Y0243780D02*
X0455328D01*
X0454803Y0244304D01*
Y0245354D01*
X0455328Y0245879D01*
X0457952D01*
Y0246928D02*
Y0249027D01*
X0457427D01*
X0455328Y0246928D01*
X0454803D01*
X0403386Y0280826D02*
Y0278202D01*
X0402861Y0277677D01*
X0401812D01*
X0401287Y0278202D01*
Y0280826D01*
X0398138Y0277677D02*
X0400237D01*
X0398138Y0279776D01*
Y0280301D01*
X0398663Y0280826D01*
X0399712D01*
X0400237Y0280301D01*
X0404370Y0272243D02*
Y0269619D01*
X0403845Y0269094D01*
X0402796D01*
X0402271Y0269619D01*
Y0272243D01*
X0401222Y0269094D02*
X0400172D01*
X0400697D01*
Y0272243D01*
X0401222Y0271718D01*
X0409449Y0206574D02*
X0407350D01*
X0408399D01*
Y0203425D01*
X0404201D02*
X0406300D01*
X0404201Y0205524D01*
Y0206049D01*
X0404726Y0206574D01*
X0405775D01*
X0406300Y0206049D01*
X0413425Y0243031D02*
X0411326D01*
X0412376D01*
Y0239882D01*
X0410277D02*
X0409227D01*
X0409752D01*
Y0243031D01*
X0410277Y0242506D01*
X0437913Y0234173D02*
X0441062D01*
Y0235748D01*
X0440537Y0236272D01*
X0439488D01*
X0438963Y0235748D01*
Y0234173D01*
Y0235223D02*
X0437913Y0236272D01*
Y0239421D02*
Y0237322D01*
X0440013Y0239421D01*
X0440537D01*
X0441062Y0238896D01*
Y0237847D01*
X0440537Y0237322D01*
X0441062Y0242569D02*
Y0240471D01*
X0439488D01*
X0440013Y0241520D01*
Y0242045D01*
X0439488Y0242569D01*
X0438438D01*
X0437913Y0242045D01*
Y0240995D01*
X0438438Y0240471D01*
X0443307Y0230000D02*
Y0233149D01*
X0441733D01*
X0441208Y0232624D01*
Y0231574D01*
X0441733Y0231050D01*
X0443307D01*
X0442258D02*
X0441208Y0230000D01*
X0438060D02*
X0440159D01*
X0438060Y0232099D01*
Y0232624D01*
X0438584Y0233149D01*
X0439634D01*
X0440159Y0232624D01*
X0435436Y0230000D02*
Y0233149D01*
X0437010Y0231574D01*
X0434911D01*
X0443307Y0225827D02*
Y0228975D01*
X0441733D01*
X0441208Y0228451D01*
Y0227401D01*
X0441733Y0226876D01*
X0443307D01*
X0442258D02*
X0441208Y0225827D01*
X0438060D02*
X0440159D01*
X0438060Y0227926D01*
Y0228451D01*
X0438584Y0228975D01*
X0439634D01*
X0440159Y0228451D01*
X0437010D02*
X0436485Y0228975D01*
X0435436D01*
X0434911Y0228451D01*
Y0227926D01*
X0435436Y0227401D01*
X0435960D01*
X0435436D01*
X0434911Y0226876D01*
Y0226352D01*
X0435436Y0225827D01*
X0436485D01*
X0437010Y0226352D01*
X0410157Y0332244D02*
X0413306D01*
Y0333818D01*
X0412781Y0334343D01*
X0411732D01*
X0411207Y0333818D01*
Y0332244D01*
Y0333294D02*
X0410157Y0334343D01*
Y0335393D02*
Y0336442D01*
Y0335917D01*
X0413306D01*
X0412781Y0335393D01*
X0413306Y0338017D02*
Y0340116D01*
X0412781D01*
X0410682Y0338017D01*
X0410157D01*
X0400827Y0208622D02*
X0403975D01*
Y0210196D01*
X0403451Y0210721D01*
X0402401D01*
X0401876Y0210196D01*
Y0208622D01*
Y0209672D02*
X0400827Y0210721D01*
Y0211771D02*
Y0212820D01*
Y0212296D01*
X0403975D01*
X0403451Y0211771D01*
X0403975Y0216494D02*
X0403451Y0215444D01*
X0402401Y0214394D01*
X0401352D01*
X0400827Y0214919D01*
Y0215969D01*
X0401352Y0216494D01*
X0401876D01*
X0402401Y0215969D01*
Y0214394D01*
X0416614Y0195512D02*
Y0198660D01*
X0415040D01*
X0414515Y0198136D01*
Y0197086D01*
X0415040Y0196561D01*
X0416614D01*
X0415565D02*
X0414515Y0195512D01*
X0413466D02*
X0412416D01*
X0412941D01*
Y0198660D01*
X0413466Y0198136D01*
X0408743Y0198660D02*
X0410842D01*
Y0197086D01*
X0409792Y0197611D01*
X0409268D01*
X0408743Y0197086D01*
Y0196037D01*
X0409268Y0195512D01*
X0410317D01*
X0410842Y0196037D01*
X0409764Y0217559D02*
Y0220708D01*
X0408190D01*
X0407665Y0220183D01*
Y0219133D01*
X0408190Y0218609D01*
X0409764D01*
X0408714D02*
X0407665Y0217559D01*
X0406615D02*
X0405566D01*
X0406090D01*
Y0220708D01*
X0406615Y0220183D01*
X0402417Y0217559D02*
Y0220708D01*
X0403991Y0219133D01*
X0401892D01*
X0408154Y0202447D02*
X0405005D01*
Y0200873D01*
X0405530Y0200348D01*
X0406579D01*
X0407104Y0200873D01*
Y0202447D01*
Y0201398D02*
X0408154Y0200348D01*
Y0199299D02*
Y0198249D01*
Y0198774D01*
X0405005D01*
X0405530Y0199299D01*
Y0196675D02*
X0405005Y0196150D01*
Y0195101D01*
X0405530Y0194576D01*
X0406054D01*
X0406579Y0195101D01*
Y0195625D01*
Y0195101D01*
X0407104Y0194576D01*
X0407629D01*
X0408154Y0195101D01*
Y0196150D01*
X0407629Y0196675D01*
X0422559Y0204488D02*
X0425708D01*
Y0206063D01*
X0425183Y0206587D01*
X0424133D01*
X0423609Y0206063D01*
Y0204488D01*
Y0205538D02*
X0422559Y0206587D01*
Y0207637D02*
Y0208686D01*
Y0208161D01*
X0425708D01*
X0425183Y0207637D01*
X0422559Y0212360D02*
Y0210261D01*
X0424658Y0212360D01*
X0425183D01*
X0425708Y0211835D01*
Y0210785D01*
X0425183Y0210261D01*
X0403307Y0224921D02*
X0406456D01*
Y0226496D01*
X0405931Y0227020D01*
X0404881D01*
X0404357Y0226496D01*
Y0224921D01*
Y0225971D02*
X0403307Y0227020D01*
X0405931Y0228070D02*
X0406456Y0228595D01*
Y0229644D01*
X0405931Y0230169D01*
X0405406D01*
X0404881Y0229644D01*
X0404357Y0230169D01*
X0403832D01*
X0403307Y0229644D01*
Y0228595D01*
X0403832Y0228070D01*
X0404357D01*
X0404881Y0228595D01*
X0405406Y0228070D01*
X0405931D01*
X0404881Y0228595D02*
Y0229644D01*
X0407835Y0240197D02*
Y0243345D01*
X0406260D01*
X0405736Y0242821D01*
Y0241771D01*
X0406260Y0241246D01*
X0407835D01*
X0406785D02*
X0405736Y0240197D01*
X0404686Y0243345D02*
X0402587D01*
Y0242821D01*
X0404686Y0240722D01*
Y0240197D01*
X0424724Y0231654D02*
X0427873D01*
Y0233228D01*
X0427348Y0233753D01*
X0426299D01*
X0425774Y0233228D01*
Y0231654D01*
Y0232703D02*
X0424724Y0233753D01*
X0427873Y0236901D02*
X0427348Y0235852D01*
X0426299Y0234802D01*
X0425249D01*
X0424724Y0235327D01*
Y0236377D01*
X0425249Y0236901D01*
X0425774D01*
X0426299Y0236377D01*
Y0234802D01*
X0415709Y0224134D02*
X0418857D01*
Y0225708D01*
X0418332Y0226233D01*
X0417283D01*
X0416758Y0225708D01*
Y0224134D01*
Y0225183D02*
X0415709Y0226233D01*
X0418857Y0229382D02*
Y0227283D01*
X0417283D01*
X0417808Y0228332D01*
Y0228857D01*
X0417283Y0229382D01*
X0416233D01*
X0415709Y0228857D01*
Y0227807D01*
X0416233Y0227283D01*
X0420748Y0264291D02*
X0423897D01*
Y0265866D01*
X0423372Y0266390D01*
X0422322D01*
X0421798Y0265866D01*
Y0264291D01*
Y0265341D02*
X0420748Y0266390D01*
Y0269014D02*
X0423897D01*
X0422322Y0267440D01*
Y0269539D01*
X0409291Y0286772D02*
X0412440D01*
Y0288346D01*
X0411915Y0288871D01*
X0410866D01*
X0410341Y0288346D01*
Y0286772D01*
Y0287821D02*
X0409291Y0288871D01*
X0411915Y0289920D02*
X0412440Y0290445D01*
Y0291495D01*
X0411915Y0292019D01*
X0411390D01*
X0410866Y0291495D01*
Y0290970D01*
Y0291495D01*
X0410341Y0292019D01*
X0409816D01*
X0409291Y0291495D01*
Y0290445D01*
X0409816Y0289920D01*
X0393976Y0236364D02*
X0397125D01*
Y0237939D01*
X0396600Y0238463D01*
X0395551D01*
X0395026Y0237939D01*
Y0236364D01*
Y0237414D02*
X0393976Y0238463D01*
Y0241612D02*
Y0239513D01*
X0396076Y0241612D01*
X0396600D01*
X0397125Y0241087D01*
Y0240038D01*
X0396600Y0239513D01*
X0430473Y0285354D02*
Y0288503D01*
X0428898D01*
X0428373Y0287978D01*
Y0286929D01*
X0428898Y0286404D01*
X0430473D01*
X0429423D02*
X0428373Y0285354D01*
X0427324D02*
X0426274D01*
X0426799D01*
Y0288503D01*
X0427324Y0287978D01*
X0453504Y0255393D02*
Y0252244D01*
X0451405D01*
X0448256Y0255393D02*
X0450355D01*
Y0253818D01*
X0449306Y0254343D01*
X0448781D01*
X0448256Y0253818D01*
Y0252769D01*
X0448781Y0252244D01*
X0449831D01*
X0450355Y0252769D01*
X0441771Y0279252D02*
X0438622D01*
Y0281351D01*
Y0284500D02*
Y0282401D01*
X0440721Y0284500D01*
X0441246D01*
X0441771Y0283975D01*
Y0282925D01*
X0441246Y0282401D01*
X0415669Y0300668D02*
Y0297520D01*
X0413570D01*
X0412521D02*
X0411471D01*
X0411996D01*
Y0300668D01*
X0412521Y0300144D01*
X0447244Y0272755D02*
Y0269606D01*
X0445670D01*
X0445145Y0270131D01*
Y0272230D01*
X0445670Y0272755D01*
X0447244D01*
X0444096Y0269606D02*
X0443046D01*
X0443571D01*
Y0272755D01*
X0444096Y0272230D01*
X0408096Y0364816D02*
X0408621Y0364291D01*
Y0363241D01*
X0408096Y0362717D01*
X0405997D01*
X0405472Y0363241D01*
Y0364291D01*
X0405997Y0364816D01*
X0408096Y0365865D02*
X0408621Y0366390D01*
Y0367440D01*
X0408096Y0367964D01*
X0407572D01*
X0407047Y0367440D01*
Y0366915D01*
Y0367440D01*
X0406522Y0367964D01*
X0405997D01*
X0405472Y0367440D01*
Y0366390D01*
X0405997Y0365865D01*
X0408621Y0371113D02*
X0408096Y0370063D01*
X0407047Y0369014D01*
X0405997D01*
X0405472Y0369538D01*
Y0370588D01*
X0405997Y0371113D01*
X0406522D01*
X0407047Y0370588D01*
Y0369014D01*
X0436484Y0306010D02*
X0437008Y0306535D01*
X0438058D01*
X0438583Y0306010D01*
Y0303911D01*
X0438058Y0303386D01*
X0437008D01*
X0436484Y0303911D01*
X0435434Y0306010D02*
X0434909Y0306535D01*
X0433860D01*
X0433335Y0306010D01*
Y0305485D01*
X0433860Y0304960D01*
X0434385D01*
X0433860D01*
X0433335Y0304435D01*
Y0303911D01*
X0433860Y0303386D01*
X0434909D01*
X0435434Y0303911D01*
X0430711Y0303386D02*
Y0306535D01*
X0432285Y0304960D01*
X0430187D01*
X0455578Y0298766D02*
X0456103Y0299290D01*
X0457152D01*
X0457677Y0298766D01*
Y0296667D01*
X0457152Y0296142D01*
X0456103D01*
X0455578Y0296667D01*
X0454529Y0298766D02*
X0454004Y0299290D01*
X0452954D01*
X0452429Y0298766D01*
Y0298241D01*
X0452954Y0297716D01*
X0453479D01*
X0452954D01*
X0452429Y0297191D01*
Y0296667D01*
X0452954Y0296142D01*
X0454004D01*
X0454529Y0296667D01*
X0451380Y0298766D02*
X0450855Y0299290D01*
X0449806D01*
X0449281Y0298766D01*
Y0298241D01*
X0449806Y0297716D01*
X0450330D01*
X0449806D01*
X0449281Y0297191D01*
Y0296667D01*
X0449806Y0296142D01*
X0450855D01*
X0451380Y0296667D01*
X0452140Y0190145D02*
X0451615Y0190670D01*
Y0191719D01*
X0452140Y0192244D01*
X0454239D01*
X0454764Y0191719D01*
Y0190670D01*
X0454239Y0190145D01*
X0452140Y0189095D02*
X0451615Y0188571D01*
Y0187521D01*
X0452140Y0186996D01*
X0452665D01*
X0453190Y0187521D01*
Y0188046D01*
Y0187521D01*
X0453714Y0186996D01*
X0454239D01*
X0454764Y0187521D01*
Y0188571D01*
X0454239Y0189095D01*
X0452140Y0185947D02*
X0451615Y0185422D01*
Y0184373D01*
X0452140Y0183848D01*
X0454239D01*
X0454764Y0184373D01*
Y0185422D01*
X0454239Y0185947D01*
X0452140D01*
X0451943Y0199200D02*
X0451418Y0199725D01*
Y0200774D01*
X0451943Y0201299D01*
X0454042D01*
X0454567Y0200774D01*
Y0199725D01*
X0454042Y0199200D01*
X0454567Y0196052D02*
Y0198151D01*
X0452468Y0196052D01*
X0451943D01*
X0451418Y0196576D01*
Y0197626D01*
X0451943Y0198151D01*
X0454042Y0195002D02*
X0454567Y0194477D01*
Y0193428D01*
X0454042Y0192903D01*
X0451943D01*
X0451418Y0193428D01*
Y0194477D01*
X0451943Y0195002D01*
X0452468D01*
X0452993Y0194477D01*
Y0192903D01*
X0451589Y0208688D02*
X0451064Y0209213D01*
Y0210263D01*
X0451589Y0210787D01*
X0453688D01*
X0454213Y0210263D01*
Y0209213D01*
X0453688Y0208688D01*
X0454213Y0205540D02*
Y0207639D01*
X0452114Y0205540D01*
X0451589D01*
X0451064Y0206065D01*
Y0207114D01*
X0451589Y0207639D01*
Y0204490D02*
X0451064Y0203965D01*
Y0202916D01*
X0451589Y0202391D01*
X0452114D01*
X0452638Y0202916D01*
X0453163Y0202391D01*
X0453688D01*
X0454213Y0202916D01*
Y0203965D01*
X0453688Y0204490D01*
X0453163D01*
X0452638Y0203965D01*
X0452114Y0204490D01*
X0451589D01*
X0452638Y0203965D02*
Y0202916D01*
X0428608Y0258477D02*
X0429133Y0257952D01*
Y0256903D01*
X0428608Y0256378D01*
X0426509D01*
X0425984Y0256903D01*
Y0257952D01*
X0426509Y0258477D01*
X0425984Y0261626D02*
Y0259527D01*
X0428083Y0261626D01*
X0428608D01*
X0429133Y0261101D01*
Y0260051D01*
X0428608Y0259527D01*
X0425984Y0264249D02*
X0429133D01*
X0427559Y0262675D01*
Y0264774D01*
X0443255Y0256049D02*
X0443780Y0256574D01*
X0444830D01*
X0445354Y0256049D01*
Y0253950D01*
X0444830Y0253425D01*
X0443780D01*
X0443255Y0253950D01*
X0440107Y0253425D02*
X0442206D01*
X0440107Y0255524D01*
Y0256049D01*
X0440631Y0256574D01*
X0441681D01*
X0442206Y0256049D01*
X0439057D02*
X0438532Y0256574D01*
X0437483D01*
X0436958Y0256049D01*
Y0255524D01*
X0437483Y0254999D01*
X0438008D01*
X0437483D01*
X0436958Y0254475D01*
Y0253950D01*
X0437483Y0253425D01*
X0438532D01*
X0439057Y0253950D01*
X0436797Y0236272D02*
X0437322Y0235748D01*
Y0234698D01*
X0436797Y0234173D01*
X0434698D01*
X0434173Y0234698D01*
Y0235748D01*
X0434698Y0236272D01*
X0434173Y0239421D02*
Y0237322D01*
X0436272Y0239421D01*
X0436797D01*
X0437322Y0238896D01*
Y0237847D01*
X0436797Y0237322D01*
X0434173Y0242569D02*
Y0240471D01*
X0436272Y0242569D01*
X0436797D01*
X0437322Y0242045D01*
Y0240995D01*
X0436797Y0240471D01*
X0464712Y0246482D02*
X0465237Y0247007D01*
X0466286D01*
X0466811Y0246482D01*
Y0244383D01*
X0466286Y0243858D01*
X0465237D01*
X0464712Y0244383D01*
X0461563Y0243858D02*
X0463662D01*
X0461563Y0245957D01*
Y0246482D01*
X0462088Y0247007D01*
X0463138D01*
X0463662Y0246482D01*
X0460514Y0243858D02*
X0459464D01*
X0459989D01*
Y0247007D01*
X0460514Y0246482D01*
X0463631Y0221246D02*
X0464156Y0221771D01*
X0465205D01*
X0465730Y0221246D01*
Y0219147D01*
X0465205Y0218622D01*
X0464156D01*
X0463631Y0219147D01*
X0462581Y0218622D02*
X0461532D01*
X0462057D01*
Y0221771D01*
X0462581Y0221246D01*
X0459958Y0219147D02*
X0459433Y0218622D01*
X0458383D01*
X0457859Y0219147D01*
Y0221246D01*
X0458383Y0221771D01*
X0459433D01*
X0459958Y0221246D01*
Y0220721D01*
X0459433Y0220196D01*
X0457859D01*
X0396600Y0228518D02*
X0397125Y0227993D01*
Y0226943D01*
X0396600Y0226419D01*
X0394501D01*
X0393976Y0226943D01*
Y0227993D01*
X0394501Y0228518D01*
X0393976Y0229567D02*
Y0230617D01*
Y0230092D01*
X0397125D01*
X0396600Y0229567D01*
X0397125Y0232191D02*
Y0234290D01*
X0396600D01*
X0394501Y0232191D01*
X0393976D01*
X0429137Y0197598D02*
X0429661Y0197074D01*
Y0196024D01*
X0429137Y0195499D01*
X0427037D01*
X0426513Y0196024D01*
Y0197074D01*
X0427037Y0197598D01*
X0426513Y0198648D02*
Y0199697D01*
Y0199173D01*
X0429661D01*
X0429137Y0198648D01*
Y0201272D02*
X0429661Y0201797D01*
Y0202846D01*
X0429137Y0203371D01*
X0427037D01*
X0426513Y0202846D01*
Y0201797D01*
X0427037Y0201272D01*
X0429137D01*
X0446208Y0289199D02*
X0446733Y0289723D01*
X0447782D01*
X0448307Y0289199D01*
Y0287100D01*
X0447782Y0286575D01*
X0446733D01*
X0446208Y0287100D01*
X0443059Y0289723D02*
X0444109Y0289199D01*
X0445158Y0288149D01*
Y0287100D01*
X0444634Y0286575D01*
X0443584D01*
X0443059Y0287100D01*
Y0287624D01*
X0443584Y0288149D01*
X0445158D01*
X0446011Y0276679D02*
X0446536Y0277204D01*
X0447585D01*
X0448110Y0276679D01*
Y0274580D01*
X0447585Y0274055D01*
X0446536D01*
X0446011Y0274580D01*
X0442863Y0277204D02*
X0444962D01*
Y0275629D01*
X0443912Y0276154D01*
X0443387D01*
X0442863Y0275629D01*
Y0274580D01*
X0443387Y0274055D01*
X0444437D01*
X0444962Y0274580D01*
X0411326Y0247506D02*
X0411851Y0248030D01*
X0412900D01*
X0413425Y0247506D01*
Y0245407D01*
X0412900Y0244882D01*
X0411851D01*
X0411326Y0245407D01*
X0408702Y0244882D02*
Y0248030D01*
X0410277Y0246456D01*
X0408178D01*
X0422269Y0251705D02*
X0422794Y0251181D01*
Y0250131D01*
X0422269Y0249606D01*
X0420170D01*
X0419646Y0250131D01*
Y0251181D01*
X0420170Y0251705D01*
X0422269Y0252755D02*
X0422794Y0253280D01*
Y0254329D01*
X0422269Y0254854D01*
X0421745D01*
X0421220Y0254329D01*
Y0253804D01*
Y0254329D01*
X0420695Y0254854D01*
X0420170D01*
X0419646Y0254329D01*
Y0253280D01*
X0420170Y0252755D01*
X0422389Y0300144D02*
X0422914Y0300668D01*
X0423963D01*
X0424488Y0300144D01*
Y0298044D01*
X0423963Y0297520D01*
X0422914D01*
X0422389Y0298044D01*
X0419241Y0297520D02*
X0421340D01*
X0419241Y0299619D01*
Y0300144D01*
X0419765Y0300668D01*
X0420815D01*
X0421340Y0300144D01*
X0424907Y0281036D02*
X0425432Y0280511D01*
Y0279462D01*
X0424907Y0278937D01*
X0422808D01*
X0422284Y0279462D01*
Y0280511D01*
X0422808Y0281036D01*
X0422284Y0282086D02*
Y0283135D01*
Y0282610D01*
X0425432D01*
X0424907Y0282086D01*
X0540509Y0164439D02*
Y0161815D01*
X0539984Y0161290D01*
X0538935D01*
X0538410Y0161815D01*
Y0164439D01*
X0537360Y0161290D02*
X0536311D01*
X0536836D01*
Y0164439D01*
X0537360Y0163914D01*
X0533162Y0161290D02*
Y0164439D01*
X0534736Y0162864D01*
X0532638D01*
X0538386Y0155038D02*
X0536287D01*
X0537336D01*
Y0151890D01*
X0533138Y0155038D02*
X0534188Y0154514D01*
X0535237Y0153464D01*
Y0152415D01*
X0534713Y0151890D01*
X0533663D01*
X0533138Y0152415D01*
Y0152939D01*
X0533663Y0153464D01*
X0535237D01*
X0549766Y0171033D02*
X0547667D01*
X0548717D01*
Y0167884D01*
X0544519Y0171033D02*
X0546618D01*
Y0169459D01*
X0545568Y0169983D01*
X0545043D01*
X0544519Y0169459D01*
Y0168409D01*
X0545043Y0167884D01*
X0546093D01*
X0546618Y0168409D01*
X0535433Y0175047D02*
X0538582D01*
Y0176621D01*
X0538057Y0177146D01*
X0537008D01*
X0536483Y0176621D01*
Y0175047D01*
Y0176097D02*
X0535433Y0177146D01*
X0538057Y0178196D02*
X0538582Y0178720D01*
Y0179770D01*
X0538057Y0180295D01*
X0537532D01*
X0537008Y0179770D01*
Y0179245D01*
Y0179770D01*
X0536483Y0180295D01*
X0535958D01*
X0535433Y0179770D01*
Y0178720D01*
X0535958Y0178196D01*
X0538582Y0183443D02*
X0538057Y0182394D01*
X0537008Y0181344D01*
X0535958D01*
X0535433Y0181869D01*
Y0182919D01*
X0535958Y0183443D01*
X0536483D01*
X0537008Y0182919D01*
Y0181344D01*
X0512402Y0177597D02*
Y0174974D01*
X0511877Y0174449D01*
X0510827D01*
X0510303Y0174974D01*
Y0177597D01*
X0509253Y0174449D02*
X0508204D01*
X0508728D01*
Y0177597D01*
X0509253Y0177073D01*
X0504530Y0174449D02*
X0506629D01*
X0504530Y0176548D01*
Y0177073D01*
X0505055Y0177597D01*
X0506105D01*
X0506629Y0177073D01*
X0519647Y0224015D02*
X0517548D01*
X0518598D01*
Y0220866D01*
X0514924D02*
Y0224015D01*
X0516499Y0222440D01*
X0514400D01*
X0510354Y0220866D02*
Y0224015D01*
X0508780D01*
X0508255Y0223490D01*
Y0222440D01*
X0508780Y0221916D01*
X0510354D01*
X0509305D02*
X0508255Y0220866D01*
X0507206Y0223490D02*
X0506681Y0224015D01*
X0505631D01*
X0505107Y0223490D01*
Y0222965D01*
X0505631Y0222440D01*
X0506156D01*
X0505631D01*
X0505107Y0221916D01*
Y0221391D01*
X0505631Y0220866D01*
X0506681D01*
X0507206Y0221391D01*
X0501958Y0220866D02*
X0504057D01*
X0501958Y0222965D01*
Y0223490D01*
X0502483Y0224015D01*
X0503532D01*
X0504057Y0223490D01*
X0532234Y0221693D02*
Y0224841D01*
X0530659D01*
X0530135Y0224317D01*
Y0223267D01*
X0530659Y0222742D01*
X0532234D01*
X0531184D02*
X0530135Y0221693D01*
X0529085Y0224317D02*
X0528560Y0224841D01*
X0527511D01*
X0526986Y0224317D01*
Y0223792D01*
X0527511Y0223267D01*
X0528036D01*
X0527511D01*
X0526986Y0222742D01*
Y0222218D01*
X0527511Y0221693D01*
X0528560D01*
X0529085Y0222218D01*
X0525937Y0221693D02*
X0524887D01*
X0525412D01*
Y0224841D01*
X0525937Y0224317D01*
X0531575Y0172874D02*
X0534724D01*
Y0174448D01*
X0534199Y0174973D01*
X0533149D01*
X0532624Y0174448D01*
Y0172874D01*
Y0173924D02*
X0531575Y0174973D01*
X0534199Y0176023D02*
X0534724Y0176547D01*
Y0177597D01*
X0534199Y0178122D01*
X0533674D01*
X0533149Y0177597D01*
Y0177072D01*
Y0177597D01*
X0532624Y0178122D01*
X0532100D01*
X0531575Y0177597D01*
Y0176547D01*
X0532100Y0176023D01*
X0534199Y0179171D02*
X0534724Y0179696D01*
Y0180745D01*
X0534199Y0181270D01*
X0532100D01*
X0531575Y0180745D01*
Y0179696D01*
X0532100Y0179171D01*
X0534199D01*
X0530788Y0172598D02*
X0527639D01*
Y0171024D01*
X0528164Y0170499D01*
X0529213D01*
X0529738Y0171024D01*
Y0172598D01*
Y0171549D02*
X0530788Y0170499D01*
Y0167351D02*
Y0169450D01*
X0528688Y0167351D01*
X0528164D01*
X0527639Y0167876D01*
Y0168925D01*
X0528164Y0169450D01*
Y0166301D02*
X0527639Y0165777D01*
Y0164727D01*
X0528164Y0164202D01*
X0528688D01*
X0529213Y0164727D01*
X0529738Y0164202D01*
X0530263D01*
X0530788Y0164727D01*
Y0165777D01*
X0530263Y0166301D01*
X0529738D01*
X0529213Y0165777D01*
X0528688Y0166301D01*
X0528164D01*
X0529213Y0165777D02*
Y0164727D01*
X0529921Y0213347D02*
Y0216495D01*
X0528347D01*
X0527822Y0215970D01*
Y0214921D01*
X0528347Y0214396D01*
X0529921D01*
X0528872D02*
X0527822Y0213347D01*
X0524674D02*
X0526773D01*
X0524674Y0215445D01*
Y0215970D01*
X0525199Y0216495D01*
X0526248D01*
X0526773Y0215970D01*
X0523624Y0216495D02*
X0521525D01*
Y0215970D01*
X0523624Y0213871D01*
Y0213347D01*
X0514291Y0151731D02*
Y0148583D01*
X0512192D01*
X0509044Y0151731D02*
X0510093Y0151207D01*
X0511143Y0150157D01*
Y0149107D01*
X0510618Y0148583D01*
X0509569D01*
X0509044Y0149107D01*
Y0149632D01*
X0509569Y0150157D01*
X0511143D01*
X0495144Y0188241D02*
X0495668Y0187716D01*
Y0186667D01*
X0495144Y0186142D01*
X0493045D01*
X0492520Y0186667D01*
Y0187716D01*
X0493045Y0188241D01*
X0492520Y0190865D02*
X0495668D01*
X0494094Y0189290D01*
Y0191389D01*
X0495144Y0192439D02*
X0495668Y0192964D01*
Y0194013D01*
X0495144Y0194538D01*
X0494619D01*
X0494094Y0194013D01*
Y0193488D01*
Y0194013D01*
X0493569Y0194538D01*
X0493045D01*
X0492520Y0194013D01*
Y0192964D01*
X0493045Y0192439D01*
X0522416Y0170499D02*
X0521891Y0171024D01*
Y0172074D01*
X0522416Y0172598D01*
X0524515D01*
X0525039Y0172074D01*
Y0171024D01*
X0524515Y0170499D01*
X0525039Y0167876D02*
X0521891D01*
X0523465Y0169450D01*
Y0167351D01*
X0525039Y0164202D02*
Y0166301D01*
X0522940Y0164202D01*
X0522416D01*
X0521891Y0164727D01*
Y0165777D01*
X0522416Y0166301D01*
X0516077Y0170617D02*
X0515552Y0171142D01*
Y0172192D01*
X0516077Y0172716D01*
X0518176D01*
X0518701Y0172192D01*
Y0171142D01*
X0518176Y0170617D01*
X0518701Y0167994D02*
X0515552D01*
X0517127Y0169568D01*
Y0167469D01*
X0518701Y0166419D02*
Y0165370D01*
Y0165895D01*
X0515552D01*
X0516077Y0166419D01*
X0496173Y0176317D02*
X0496698Y0175793D01*
Y0174743D01*
X0496173Y0174218D01*
X0494074D01*
X0493549Y0174743D01*
Y0175793D01*
X0494074Y0176317D01*
X0496173Y0177367D02*
X0496698Y0177892D01*
Y0178941D01*
X0496173Y0179466D01*
X0495649D01*
X0495124Y0178941D01*
Y0178416D01*
Y0178941D01*
X0494599Y0179466D01*
X0494074D01*
X0493549Y0178941D01*
Y0177892D01*
X0494074Y0177367D01*
Y0180515D02*
X0493549Y0181040D01*
Y0182090D01*
X0494074Y0182614D01*
X0496173D01*
X0496698Y0182090D01*
Y0181040D01*
X0496173Y0180515D01*
X0495649D01*
X0495124Y0181040D01*
Y0182614D01*
X0518879Y0207572D02*
X0519404Y0208097D01*
X0520453D01*
X0520978Y0207572D01*
Y0205473D01*
X0520453Y0204949D01*
X0519404D01*
X0518879Y0205473D01*
X0517830Y0207572D02*
X0517305Y0208097D01*
X0516255D01*
X0515731Y0207572D01*
Y0207048D01*
X0516255Y0206523D01*
X0516780D01*
X0516255D01*
X0515731Y0205998D01*
Y0205473D01*
X0516255Y0204949D01*
X0517305D01*
X0517830Y0205473D01*
X0512582Y0204949D02*
X0514681D01*
X0512582Y0207048D01*
Y0207572D01*
X0513107Y0208097D01*
X0514156D01*
X0514681Y0207572D01*
X0529829Y0207650D02*
X0530353Y0207125D01*
Y0206076D01*
X0529829Y0205551D01*
X0527730D01*
X0527205Y0206076D01*
Y0207125D01*
X0527730Y0207650D01*
X0529829Y0208700D02*
X0530353Y0209225D01*
Y0210274D01*
X0529829Y0210799D01*
X0529304D01*
X0528779Y0210274D01*
Y0209749D01*
Y0210274D01*
X0528254Y0210799D01*
X0527730D01*
X0527205Y0210274D01*
Y0209225D01*
X0527730Y0208700D01*
X0527205Y0211848D02*
Y0212898D01*
Y0212373D01*
X0530353D01*
X0529829Y0211848D01*
X0546693Y0311221D02*
X0549841D01*
Y0312795D01*
X0549317Y0313320D01*
X0548267D01*
X0547743Y0312795D01*
Y0311221D01*
Y0312270D02*
X0546693Y0313320D01*
Y0316468D02*
Y0314369D01*
X0548792Y0316468D01*
X0549317D01*
X0549841Y0315943D01*
Y0314894D01*
X0549317Y0314369D01*
X0549841Y0319617D02*
X0549317Y0318567D01*
X0548267Y0317518D01*
X0547218D01*
X0546693Y0318042D01*
Y0319092D01*
X0547218Y0319617D01*
X0547743D01*
X0548267Y0319092D01*
Y0317518D01*
X0481889Y0244331D02*
X0478740Y0246430D01*
X0481889D02*
X0478740Y0244331D01*
Y0247479D02*
Y0248529D01*
Y0248004D01*
X0481889D01*
X0481364Y0247479D01*
X0499645Y0377953D02*
X0497021D01*
X0496496Y0378478D01*
Y0379527D01*
X0497021Y0380052D01*
X0499645D01*
X0497021Y0381101D02*
X0496496Y0381626D01*
Y0382676D01*
X0497021Y0383201D01*
X0499120D01*
X0499645Y0382676D01*
Y0381626D01*
X0499120Y0381101D01*
X0498595D01*
X0498070Y0381626D01*
Y0383201D01*
X0537087Y0320550D02*
Y0317926D01*
X0536562Y0317402D01*
X0535512D01*
X0534988Y0317926D01*
Y0320550D01*
X0533938Y0320025D02*
X0533413Y0320550D01*
X0532364D01*
X0531839Y0320025D01*
Y0319501D01*
X0532364Y0318976D01*
X0531839Y0318451D01*
Y0317926D01*
X0532364Y0317402D01*
X0533413D01*
X0533938Y0317926D01*
Y0318451D01*
X0533413Y0318976D01*
X0533938Y0319501D01*
Y0320025D01*
X0533413Y0318976D02*
X0532364D01*
X0541416Y0243780D02*
X0538793D01*
X0538268Y0244304D01*
Y0245354D01*
X0538793Y0245879D01*
X0541416D01*
Y0246928D02*
Y0249027D01*
X0540892D01*
X0538793Y0246928D01*
X0538268D01*
X0486850Y0280826D02*
Y0278202D01*
X0486326Y0277677D01*
X0485276D01*
X0484751Y0278202D01*
Y0280826D01*
X0481603Y0277677D02*
X0483702D01*
X0481603Y0279776D01*
Y0280301D01*
X0482128Y0280826D01*
X0483177D01*
X0483702Y0280301D01*
X0487835Y0272243D02*
Y0269619D01*
X0487310Y0269094D01*
X0486260D01*
X0485736Y0269619D01*
Y0272243D01*
X0484686Y0269094D02*
X0483637D01*
X0484161D01*
Y0272243D01*
X0484686Y0271718D01*
X0492913Y0206574D02*
X0490814D01*
X0491864D01*
Y0203425D01*
X0487666D02*
X0489765D01*
X0487666Y0205524D01*
Y0206049D01*
X0488191Y0206574D01*
X0489240D01*
X0489765Y0206049D01*
X0496890Y0243031D02*
X0494791D01*
X0495840D01*
Y0239882D01*
X0493741D02*
X0492692D01*
X0493217D01*
Y0243031D01*
X0493741Y0242506D01*
X0521378Y0234173D02*
X0524527D01*
Y0235748D01*
X0524002Y0236272D01*
X0522952D01*
X0522428Y0235748D01*
Y0234173D01*
Y0235223D02*
X0521378Y0236272D01*
Y0239421D02*
Y0237322D01*
X0523477Y0239421D01*
X0524002D01*
X0524527Y0238896D01*
Y0237847D01*
X0524002Y0237322D01*
X0524527Y0242569D02*
Y0240471D01*
X0522952D01*
X0523477Y0241520D01*
Y0242045D01*
X0522952Y0242569D01*
X0521903D01*
X0521378Y0242045D01*
Y0240995D01*
X0521903Y0240471D01*
X0526772Y0230000D02*
Y0233149D01*
X0525197D01*
X0524673Y0232624D01*
Y0231574D01*
X0525197Y0231050D01*
X0526772D01*
X0525722D02*
X0524673Y0230000D01*
X0521524D02*
X0523623D01*
X0521524Y0232099D01*
Y0232624D01*
X0522049Y0233149D01*
X0523098D01*
X0523623Y0232624D01*
X0518900Y0230000D02*
Y0233149D01*
X0520474Y0231574D01*
X0518375D01*
X0526772Y0225827D02*
Y0228975D01*
X0525197D01*
X0524673Y0228451D01*
Y0227401D01*
X0525197Y0226876D01*
X0526772D01*
X0525722D02*
X0524673Y0225827D01*
X0521524D02*
X0523623D01*
X0521524Y0227926D01*
Y0228451D01*
X0522049Y0228975D01*
X0523098D01*
X0523623Y0228451D01*
X0520474D02*
X0519950Y0228975D01*
X0518900D01*
X0518375Y0228451D01*
Y0227926D01*
X0518900Y0227401D01*
X0519425D01*
X0518900D01*
X0518375Y0226876D01*
Y0226352D01*
X0518900Y0225827D01*
X0519950D01*
X0520474Y0226352D01*
X0493622Y0332244D02*
X0496771D01*
Y0333818D01*
X0496246Y0334343D01*
X0495196D01*
X0494672Y0333818D01*
Y0332244D01*
Y0333294D02*
X0493622Y0334343D01*
Y0335393D02*
Y0336442D01*
Y0335917D01*
X0496771D01*
X0496246Y0335393D01*
X0496771Y0338017D02*
Y0340116D01*
X0496246D01*
X0494147Y0338017D01*
X0493622D01*
X0484291Y0208622D02*
X0487440D01*
Y0210196D01*
X0486915Y0210721D01*
X0485866D01*
X0485341Y0210196D01*
Y0208622D01*
Y0209672D02*
X0484291Y0210721D01*
Y0211771D02*
Y0212820D01*
Y0212296D01*
X0487440D01*
X0486915Y0211771D01*
X0487440Y0216494D02*
X0486915Y0215444D01*
X0485866Y0214394D01*
X0484816D01*
X0484291Y0214919D01*
Y0215969D01*
X0484816Y0216494D01*
X0485341D01*
X0485866Y0215969D01*
Y0214394D01*
X0500079Y0195512D02*
Y0198660D01*
X0498504D01*
X0497980Y0198136D01*
Y0197086D01*
X0498504Y0196561D01*
X0500079D01*
X0499029D02*
X0497980Y0195512D01*
X0496930D02*
X0495881D01*
X0496406D01*
Y0198660D01*
X0496930Y0198136D01*
X0492207Y0198660D02*
X0494306D01*
Y0197086D01*
X0493257Y0197611D01*
X0492732D01*
X0492207Y0197086D01*
Y0196037D01*
X0492732Y0195512D01*
X0493782D01*
X0494306Y0196037D01*
X0493228Y0217559D02*
Y0220708D01*
X0491654D01*
X0491129Y0220183D01*
Y0219133D01*
X0491654Y0218609D01*
X0493228D01*
X0492179D02*
X0491129Y0217559D01*
X0490080D02*
X0489030D01*
X0489555D01*
Y0220708D01*
X0490080Y0220183D01*
X0485882Y0217559D02*
Y0220708D01*
X0487456Y0219133D01*
X0485357D01*
X0491618Y0202447D02*
X0488470D01*
Y0200873D01*
X0488994Y0200348D01*
X0490044D01*
X0490569Y0200873D01*
Y0202447D01*
Y0201398D02*
X0491618Y0200348D01*
Y0199299D02*
Y0198249D01*
Y0198774D01*
X0488470D01*
X0488994Y0199299D01*
Y0196675D02*
X0488470Y0196150D01*
Y0195101D01*
X0488994Y0194576D01*
X0489519D01*
X0490044Y0195101D01*
Y0195625D01*
Y0195101D01*
X0490569Y0194576D01*
X0491093D01*
X0491618Y0195101D01*
Y0196150D01*
X0491093Y0196675D01*
X0506024Y0204488D02*
X0509172D01*
Y0206063D01*
X0508647Y0206587D01*
X0507598D01*
X0507073Y0206063D01*
Y0204488D01*
Y0205538D02*
X0506024Y0206587D01*
Y0207637D02*
Y0208686D01*
Y0208161D01*
X0509172D01*
X0508647Y0207637D01*
X0506024Y0212360D02*
Y0210261D01*
X0508123Y0212360D01*
X0508647D01*
X0509172Y0211835D01*
Y0210785D01*
X0508647Y0210261D01*
X0486772Y0224921D02*
X0489920D01*
Y0226496D01*
X0489396Y0227020D01*
X0488346D01*
X0487821Y0226496D01*
Y0224921D01*
Y0225971D02*
X0486772Y0227020D01*
X0489396Y0228070D02*
X0489920Y0228595D01*
Y0229644D01*
X0489396Y0230169D01*
X0488871D01*
X0488346Y0229644D01*
X0487821Y0230169D01*
X0487296D01*
X0486772Y0229644D01*
Y0228595D01*
X0487296Y0228070D01*
X0487821D01*
X0488346Y0228595D01*
X0488871Y0228070D01*
X0489396D01*
X0488346Y0228595D02*
Y0229644D01*
X0491299Y0240197D02*
Y0243345D01*
X0489725D01*
X0489200Y0242821D01*
Y0241771D01*
X0489725Y0241246D01*
X0491299D01*
X0490250D02*
X0489200Y0240197D01*
X0488151Y0243345D02*
X0486052D01*
Y0242821D01*
X0488151Y0240722D01*
Y0240197D01*
X0508189Y0231654D02*
X0511338D01*
Y0233228D01*
X0510813Y0233753D01*
X0509763D01*
X0509238Y0233228D01*
Y0231654D01*
Y0232703D02*
X0508189Y0233753D01*
X0511338Y0236901D02*
X0510813Y0235852D01*
X0509763Y0234802D01*
X0508714D01*
X0508189Y0235327D01*
Y0236377D01*
X0508714Y0236901D01*
X0509238D01*
X0509763Y0236377D01*
Y0234802D01*
X0499173Y0224134D02*
X0502322D01*
Y0225708D01*
X0501797Y0226233D01*
X0500747D01*
X0500223Y0225708D01*
Y0224134D01*
Y0225183D02*
X0499173Y0226233D01*
X0502322Y0229382D02*
Y0227283D01*
X0500747D01*
X0501272Y0228332D01*
Y0228857D01*
X0500747Y0229382D01*
X0499698D01*
X0499173Y0228857D01*
Y0227807D01*
X0499698Y0227283D01*
X0504213Y0264291D02*
X0507361D01*
Y0265866D01*
X0506836Y0266390D01*
X0505787D01*
X0505262Y0265866D01*
Y0264291D01*
Y0265341D02*
X0504213Y0266390D01*
Y0269014D02*
X0507361D01*
X0505787Y0267440D01*
Y0269539D01*
X0492756Y0286772D02*
X0495904D01*
Y0288346D01*
X0495380Y0288871D01*
X0494330D01*
X0493806Y0288346D01*
Y0286772D01*
Y0287821D02*
X0492756Y0288871D01*
X0495380Y0289920D02*
X0495904Y0290445D01*
Y0291495D01*
X0495380Y0292019D01*
X0494855D01*
X0494330Y0291495D01*
Y0290970D01*
Y0291495D01*
X0493806Y0292019D01*
X0493281D01*
X0492756Y0291495D01*
Y0290445D01*
X0493281Y0289920D01*
X0477441Y0236364D02*
X0480590D01*
Y0237939D01*
X0480065Y0238463D01*
X0479015D01*
X0478490Y0237939D01*
Y0236364D01*
Y0237414D02*
X0477441Y0238463D01*
Y0241612D02*
Y0239513D01*
X0479540Y0241612D01*
X0480065D01*
X0480590Y0241087D01*
Y0240038D01*
X0480065Y0239513D01*
X0513937Y0285354D02*
Y0288503D01*
X0512363D01*
X0511838Y0287978D01*
Y0286929D01*
X0512363Y0286404D01*
X0513937D01*
X0512887D02*
X0511838Y0285354D01*
X0510788D02*
X0509739D01*
X0510264D01*
Y0288503D01*
X0510788Y0287978D01*
X0536969Y0255393D02*
Y0252244D01*
X0534869D01*
X0531721Y0255393D02*
X0533820D01*
Y0253818D01*
X0532770Y0254343D01*
X0532246D01*
X0531721Y0253818D01*
Y0252769D01*
X0532246Y0252244D01*
X0533295D01*
X0533820Y0252769D01*
X0525235Y0279252D02*
X0522087D01*
Y0281351D01*
Y0284500D02*
Y0282401D01*
X0524186Y0284500D01*
X0524711D01*
X0525235Y0283975D01*
Y0282925D01*
X0524711Y0282401D01*
X0499134Y0300668D02*
Y0297520D01*
X0497035D01*
X0495985D02*
X0494936D01*
X0495461D01*
Y0300668D01*
X0495985Y0300144D01*
X0530709Y0272755D02*
Y0269606D01*
X0529134D01*
X0528610Y0270131D01*
Y0272230D01*
X0529134Y0272755D01*
X0530709D01*
X0527560Y0269606D02*
X0526511D01*
X0527035D01*
Y0272755D01*
X0527560Y0272230D01*
X0491561Y0364816D02*
X0492086Y0364291D01*
Y0363241D01*
X0491561Y0362717D01*
X0489462D01*
X0488937Y0363241D01*
Y0364291D01*
X0489462Y0364816D01*
X0491561Y0365865D02*
X0492086Y0366390D01*
Y0367440D01*
X0491561Y0367964D01*
X0491036D01*
X0490511Y0367440D01*
Y0366915D01*
Y0367440D01*
X0489987Y0367964D01*
X0489462D01*
X0488937Y0367440D01*
Y0366390D01*
X0489462Y0365865D01*
X0492086Y0371113D02*
X0491561Y0370063D01*
X0490511Y0369014D01*
X0489462D01*
X0488937Y0369538D01*
Y0370588D01*
X0489462Y0371113D01*
X0489987D01*
X0490511Y0370588D01*
Y0369014D01*
X0519948Y0306010D02*
X0520473Y0306535D01*
X0521523D01*
X0522047Y0306010D01*
Y0303911D01*
X0521523Y0303386D01*
X0520473D01*
X0519948Y0303911D01*
X0518899Y0306010D02*
X0518374Y0306535D01*
X0517324D01*
X0516800Y0306010D01*
Y0305485D01*
X0517324Y0304960D01*
X0517849D01*
X0517324D01*
X0516800Y0304435D01*
Y0303911D01*
X0517324Y0303386D01*
X0518374D01*
X0518899Y0303911D01*
X0514176Y0303386D02*
Y0306535D01*
X0515750Y0304960D01*
X0513651D01*
X0539043Y0298766D02*
X0539568Y0299290D01*
X0540617D01*
X0541142Y0298766D01*
Y0296667D01*
X0540617Y0296142D01*
X0539568D01*
X0539043Y0296667D01*
X0537993Y0298766D02*
X0537468Y0299290D01*
X0536419D01*
X0535894Y0298766D01*
Y0298241D01*
X0536419Y0297716D01*
X0536944D01*
X0536419D01*
X0535894Y0297191D01*
Y0296667D01*
X0536419Y0296142D01*
X0537468D01*
X0537993Y0296667D01*
X0534845Y0298766D02*
X0534320Y0299290D01*
X0533270D01*
X0532746Y0298766D01*
Y0298241D01*
X0533270Y0297716D01*
X0533795D01*
X0533270D01*
X0532746Y0297191D01*
Y0296667D01*
X0533270Y0296142D01*
X0534320D01*
X0534845Y0296667D01*
X0535605Y0190145D02*
X0535080Y0190670D01*
Y0191719D01*
X0535605Y0192244D01*
X0537704D01*
X0538228Y0191719D01*
Y0190670D01*
X0537704Y0190145D01*
X0535605Y0189095D02*
X0535080Y0188571D01*
Y0187521D01*
X0535605Y0186996D01*
X0536129D01*
X0536654Y0187521D01*
Y0188046D01*
Y0187521D01*
X0537179Y0186996D01*
X0537704D01*
X0538228Y0187521D01*
Y0188571D01*
X0537704Y0189095D01*
X0535605Y0185947D02*
X0535080Y0185422D01*
Y0184373D01*
X0535605Y0183848D01*
X0537704D01*
X0538228Y0184373D01*
Y0185422D01*
X0537704Y0185947D01*
X0535605D01*
X0535408Y0199200D02*
X0534883Y0199725D01*
Y0200774D01*
X0535408Y0201299D01*
X0537507D01*
X0538032Y0200774D01*
Y0199725D01*
X0537507Y0199200D01*
X0538032Y0196052D02*
Y0198151D01*
X0535932Y0196052D01*
X0535408D01*
X0534883Y0196576D01*
Y0197626D01*
X0535408Y0198151D01*
X0537507Y0195002D02*
X0538032Y0194477D01*
Y0193428D01*
X0537507Y0192903D01*
X0535408D01*
X0534883Y0193428D01*
Y0194477D01*
X0535408Y0195002D01*
X0535932D01*
X0536457Y0194477D01*
Y0192903D01*
X0535053Y0208688D02*
X0534529Y0209213D01*
Y0210263D01*
X0535053Y0210787D01*
X0537152D01*
X0537677Y0210263D01*
Y0209213D01*
X0537152Y0208688D01*
X0537677Y0205540D02*
Y0207639D01*
X0535578Y0205540D01*
X0535053D01*
X0534529Y0206065D01*
Y0207114D01*
X0535053Y0207639D01*
Y0204490D02*
X0534529Y0203965D01*
Y0202916D01*
X0535053Y0202391D01*
X0535578D01*
X0536103Y0202916D01*
X0536628Y0202391D01*
X0537152D01*
X0537677Y0202916D01*
Y0203965D01*
X0537152Y0204490D01*
X0536628D01*
X0536103Y0203965D01*
X0535578Y0204490D01*
X0535053D01*
X0536103Y0203965D02*
Y0202916D01*
X0512073Y0258477D02*
X0512597Y0257952D01*
Y0256903D01*
X0512073Y0256378D01*
X0509974D01*
X0509449Y0256903D01*
Y0257952D01*
X0509974Y0258477D01*
X0509449Y0261626D02*
Y0259527D01*
X0511548Y0261626D01*
X0512073D01*
X0512597Y0261101D01*
Y0260051D01*
X0512073Y0259527D01*
X0509449Y0264249D02*
X0512597D01*
X0511023Y0262675D01*
Y0264774D01*
X0526720Y0256049D02*
X0527245Y0256574D01*
X0528294D01*
X0528819Y0256049D01*
Y0253950D01*
X0528294Y0253425D01*
X0527245D01*
X0526720Y0253950D01*
X0523571Y0253425D02*
X0525670D01*
X0523571Y0255524D01*
Y0256049D01*
X0524096Y0256574D01*
X0525146D01*
X0525670Y0256049D01*
X0522522D02*
X0521997Y0256574D01*
X0520947D01*
X0520423Y0256049D01*
Y0255524D01*
X0520947Y0254999D01*
X0521472D01*
X0520947D01*
X0520423Y0254475D01*
Y0253950D01*
X0520947Y0253425D01*
X0521997D01*
X0522522Y0253950D01*
X0520262Y0236272D02*
X0520786Y0235748D01*
Y0234698D01*
X0520262Y0234173D01*
X0518163D01*
X0517638Y0234698D01*
Y0235748D01*
X0518163Y0236272D01*
X0517638Y0239421D02*
Y0237322D01*
X0519737Y0239421D01*
X0520262D01*
X0520786Y0238896D01*
Y0237847D01*
X0520262Y0237322D01*
X0517638Y0242569D02*
Y0240471D01*
X0519737Y0242569D01*
X0520262D01*
X0520786Y0242045D01*
Y0240995D01*
X0520262Y0240471D01*
X0548177Y0246482D02*
X0548701Y0247007D01*
X0549751D01*
X0550276Y0246482D01*
Y0244383D01*
X0549751Y0243858D01*
X0548701D01*
X0548177Y0244383D01*
X0545028Y0243858D02*
X0547127D01*
X0545028Y0245957D01*
Y0246482D01*
X0545553Y0247007D01*
X0546602D01*
X0547127Y0246482D01*
X0543978Y0243858D02*
X0542929D01*
X0543454D01*
Y0247007D01*
X0543978Y0246482D01*
X0547096Y0221246D02*
X0547620Y0221771D01*
X0548670D01*
X0549195Y0221246D01*
Y0219147D01*
X0548670Y0218622D01*
X0547620D01*
X0547096Y0219147D01*
X0546046Y0218622D02*
X0544997D01*
X0545521D01*
Y0221771D01*
X0546046Y0221246D01*
X0543422Y0219147D02*
X0542898Y0218622D01*
X0541848D01*
X0541323Y0219147D01*
Y0221246D01*
X0541848Y0221771D01*
X0542898D01*
X0543422Y0221246D01*
Y0220721D01*
X0542898Y0220196D01*
X0541323D01*
X0480065Y0228518D02*
X0480590Y0227993D01*
Y0226943D01*
X0480065Y0226419D01*
X0477966D01*
X0477441Y0226943D01*
Y0227993D01*
X0477966Y0228518D01*
X0477441Y0229567D02*
Y0230617D01*
Y0230092D01*
X0480590D01*
X0480065Y0229567D01*
X0480590Y0232191D02*
Y0234290D01*
X0480065D01*
X0477966Y0232191D01*
X0477441D01*
X0512601Y0197598D02*
X0513126Y0197074D01*
Y0196024D01*
X0512601Y0195499D01*
X0510502D01*
X0509977Y0196024D01*
Y0197074D01*
X0510502Y0197598D01*
X0509977Y0198648D02*
Y0199697D01*
Y0199173D01*
X0513126D01*
X0512601Y0198648D01*
Y0201272D02*
X0513126Y0201797D01*
Y0202846D01*
X0512601Y0203371D01*
X0510502D01*
X0509977Y0202846D01*
Y0201797D01*
X0510502Y0201272D01*
X0512601D01*
X0529673Y0289199D02*
X0530197Y0289723D01*
X0531247D01*
X0531772Y0289199D01*
Y0287100D01*
X0531247Y0286575D01*
X0530197D01*
X0529673Y0287100D01*
X0526524Y0289723D02*
X0527574Y0289199D01*
X0528623Y0288149D01*
Y0287100D01*
X0528098Y0286575D01*
X0527049D01*
X0526524Y0287100D01*
Y0287624D01*
X0527049Y0288149D01*
X0528623D01*
X0529476Y0276679D02*
X0530000Y0277204D01*
X0531050D01*
X0531575Y0276679D01*
Y0274580D01*
X0531050Y0274055D01*
X0530000D01*
X0529476Y0274580D01*
X0526327Y0277204D02*
X0528426D01*
Y0275629D01*
X0527377Y0276154D01*
X0526852D01*
X0526327Y0275629D01*
Y0274580D01*
X0526852Y0274055D01*
X0527902D01*
X0528426Y0274580D01*
X0494791Y0247506D02*
X0495316Y0248030D01*
X0496365D01*
X0496890Y0247506D01*
Y0245407D01*
X0496365Y0244882D01*
X0495316D01*
X0494791Y0245407D01*
X0492167Y0244882D02*
Y0248030D01*
X0493741Y0246456D01*
X0491642D01*
X0505734Y0251705D02*
X0506259Y0251181D01*
Y0250131D01*
X0505734Y0249606D01*
X0503635D01*
X0503110Y0250131D01*
Y0251181D01*
X0503635Y0251705D01*
X0505734Y0252755D02*
X0506259Y0253280D01*
Y0254329D01*
X0505734Y0254854D01*
X0505209D01*
X0504685Y0254329D01*
Y0253804D01*
Y0254329D01*
X0504160Y0254854D01*
X0503635D01*
X0503110Y0254329D01*
Y0253280D01*
X0503635Y0252755D01*
X0505854Y0300144D02*
X0506379Y0300668D01*
X0507428D01*
X0507953Y0300144D01*
Y0298044D01*
X0507428Y0297520D01*
X0506379D01*
X0505854Y0298044D01*
X0502705Y0297520D02*
X0504804D01*
X0502705Y0299619D01*
Y0300144D01*
X0503230Y0300668D01*
X0504279D01*
X0504804Y0300144D01*
X0508372Y0281036D02*
X0508897Y0280511D01*
Y0279462D01*
X0508372Y0278937D01*
X0506273D01*
X0505748Y0279462D01*
Y0280511D01*
X0506273Y0281036D01*
X0505748Y0282086D02*
Y0283135D01*
Y0282610D01*
X0508897D01*
X0508372Y0282086D01*
D142*
X0197953Y0238032D02*
X0203031D01*
X0197953D02*
Y0241535D01*
X0203031Y0238032D02*
Y0241535D01*
X0197953D02*
X0203031D01*
X0281417Y0238032D02*
X0286496D01*
X0281417D02*
Y0241535D01*
X0286496Y0238032D02*
Y0241535D01*
X0281417D02*
X0286496D01*
X0364882Y0238032D02*
X0369961D01*
X0364882D02*
Y0241535D01*
X0369961Y0238032D02*
Y0241535D01*
X0364882D02*
X0369961D01*
X0448346Y0238032D02*
X0453425D01*
X0448346D02*
Y0241535D01*
X0453425Y0238032D02*
Y0241535D01*
X0448346D02*
X0453425D01*
X0531811Y0238032D02*
X0536890D01*
X0531811D02*
Y0241535D01*
X0536890Y0238032D02*
Y0241535D01*
X0531811D02*
X0536890D01*
M02*
