G04*
G04 #@! TF.GenerationSoftware,Altium Limited,Altium Designer,20.1.7 (139)*
G04*
G04 Layer_Color=8388736*
%FSAX25Y25*%
%MOIN*%
G70*
G04*
G04 #@! TF.SameCoordinates,F8038B2A-A6B4-4402-B74A-6C3D08F87057*
G04*
G04*
G04 #@! TF.FilePolarity,Negative*
G04*
G01*
G75*
%ADD10C,0.03937*%
%ADD16C,0.04724*%
%ADD21C,0.03937*%
%ADD81C,0.11811*%
%ADD82R,0.08674X0.06706*%
%ADD83C,0.33084*%
%ADD84C,0.03910*%
%ADD85C,0.04737*%
%ADD86C,0.06706*%
%ADD87O,0.05131X0.07690*%
%ADD88C,0.20485*%
%ADD89C,0.04343*%
%ADD90C,0.02769*%
D10*
X0056851Y0214172D02*
D03*
X0162364D02*
D03*
X0267878D02*
D03*
X0373391D02*
D03*
X0478904D02*
D03*
D16*
X0046458Y0072046D02*
D03*
X0052166Y0085275D02*
D03*
X0071418Y0127204D02*
D03*
X0076458Y0134330D02*
D03*
X0151971Y0072046D02*
D03*
X0157679Y0085275D02*
D03*
X0176932Y0127204D02*
D03*
X0181971Y0134330D02*
D03*
X0257484Y0072046D02*
D03*
X0263193Y0085275D02*
D03*
X0282445Y0127204D02*
D03*
X0287484Y0134330D02*
D03*
X0362997Y0072046D02*
D03*
X0368706Y0085275D02*
D03*
X0387958Y0127204D02*
D03*
X0392997Y0134330D02*
D03*
X0468510Y0072046D02*
D03*
X0474219Y0085275D02*
D03*
X0493471Y0127204D02*
D03*
X0498511Y0134330D02*
D03*
D21*
X0067757Y0212637D02*
G03*
X0070346Y0206386I0008839J0000000D01*
G01*
X0072263Y0204470D02*
G03*
X0080798Y0200934I0008535J0008535D01*
G01*
X0041745Y0172688D02*
G03*
X0040367Y0169361I0003327J-0003327D01*
G01*
X0050048Y0180991D02*
G03*
X0053584Y0189527I-0008535J0008535D01*
G01*
X0054883Y0199172D02*
G03*
X0053584Y0196036I0003137J-0003137D01*
G01*
X0054883Y0199172D02*
G03*
X0056694Y0203545I-0004372J0004372D01*
G01*
Y0203939D02*
G03*
X0054465Y0209319I-0007609J0000000D01*
G01*
X0070146Y0221286D02*
G03*
X0067757Y0215518I0005767J-0005767D01*
G01*
X0074775Y0224133D02*
G03*
X0071733Y0222873I0000000J-0004301D01*
G01*
X0051851Y0208582D02*
G03*
X0056851Y0213582I0000000J0005000D01*
G01*
X0040367Y0163189D02*
G03*
X0045367Y0158189I0005000J0000000D01*
G01*
X0070346Y0206386D02*
X0072263Y0204470D01*
X0080798Y0200934D02*
X0082821D01*
X0088406D01*
X0089947Y0199393D01*
Y0192536D02*
Y0199393D01*
Y0192536D02*
X0097228Y0185256D01*
Y0181635D02*
Y0185256D01*
X0078506Y0162913D02*
X0097228Y0181635D01*
X0078506Y0160563D02*
Y0162913D01*
X0076118Y0158175D02*
X0078506Y0160563D01*
X0040367Y0163189D02*
Y0169361D01*
X0041745Y0172688D02*
X0050048Y0180991D01*
X0053584Y0189527D02*
Y0196036D01*
X0056694Y0203545D02*
Y0203939D01*
X0067757Y0212637D02*
Y0215518D01*
X0070146Y0221286D02*
X0071733Y0222873D01*
X0074775Y0224133D02*
X0099528D01*
X0056851Y0213582D02*
Y0214172D01*
X0040367Y0208582D02*
X0051851D01*
X0045367Y0158189D02*
X0076118D01*
X0173270Y0212637D02*
G03*
X0175859Y0206386I0008839J0000000D01*
G01*
X0177776Y0204470D02*
G03*
X0186311Y0200934I0008535J0008535D01*
G01*
X0147258Y0172688D02*
G03*
X0145880Y0169361I0003327J-0003327D01*
G01*
X0155561Y0180991D02*
G03*
X0159097Y0189527I-0008535J0008535D01*
G01*
X0160396Y0199172D02*
G03*
X0159097Y0196036I0003137J-0003137D01*
G01*
X0160396Y0199172D02*
G03*
X0162207Y0203545I-0004372J0004372D01*
G01*
Y0203939D02*
G03*
X0159978Y0209319I-0007609J0000000D01*
G01*
X0175659Y0221286D02*
G03*
X0173270Y0215518I0005767J-0005767D01*
G01*
X0180288Y0224133D02*
G03*
X0177246Y0222873I0000000J-0004301D01*
G01*
X0157364Y0208582D02*
G03*
X0162364Y0213582I0000000J0005000D01*
G01*
X0145880Y0163189D02*
G03*
X0150880Y0158189I0005000J0000000D01*
G01*
X0175859Y0206386D02*
X0177776Y0204470D01*
X0186311Y0200934D02*
X0188334D01*
X0193920D01*
X0195460Y0199393D01*
Y0192536D02*
Y0199393D01*
Y0192536D02*
X0202741Y0185256D01*
Y0181635D02*
Y0185256D01*
X0184019Y0162913D02*
X0202741Y0181635D01*
X0184019Y0160563D02*
Y0162913D01*
X0181631Y0158175D02*
X0184019Y0160563D01*
X0145880Y0163189D02*
Y0169361D01*
X0147258Y0172688D02*
X0155561Y0180991D01*
X0159097Y0189527D02*
Y0196036D01*
X0162207Y0203545D02*
Y0203939D01*
X0173270Y0212637D02*
Y0215518D01*
X0175659Y0221286D02*
X0177246Y0222873D01*
X0180288Y0224133D02*
X0205042D01*
X0162364Y0213582D02*
Y0214172D01*
X0145880Y0208582D02*
X0157364D01*
X0150880Y0158189D02*
X0181631D01*
X0278783Y0212637D02*
G03*
X0281372Y0206386I0008839J0000000D01*
G01*
X0283289Y0204470D02*
G03*
X0291825Y0200934I0008535J0008535D01*
G01*
X0252772Y0172688D02*
G03*
X0251394Y0169361I0003327J-0003327D01*
G01*
X0261074Y0180991D02*
G03*
X0264610Y0189527I-0008535J0008535D01*
G01*
X0265909Y0199172D02*
G03*
X0264610Y0196036I0003137J-0003137D01*
G01*
X0265909Y0199172D02*
G03*
X0267720Y0203545I-0004372J0004372D01*
G01*
Y0203939D02*
G03*
X0265492Y0209319I-0007609J0000000D01*
G01*
X0281172Y0221286D02*
G03*
X0278783Y0215518I0005767J-0005767D01*
G01*
X0285801Y0224133D02*
G03*
X0282760Y0222873I0000000J-0004301D01*
G01*
X0262878Y0208582D02*
G03*
X0267878Y0213582I0000000J0005000D01*
G01*
X0251394Y0163189D02*
G03*
X0256394Y0158189I0005000J0000000D01*
G01*
X0281372Y0206386D02*
X0283289Y0204470D01*
X0291825Y0200934D02*
X0293847D01*
X0299433D01*
X0300974Y0199393D01*
Y0192536D02*
Y0199393D01*
Y0192536D02*
X0308254Y0185256D01*
Y0181635D02*
Y0185256D01*
X0289533Y0162913D02*
X0308254Y0181635D01*
X0289533Y0160563D02*
Y0162913D01*
X0287144Y0158175D02*
X0289533Y0160563D01*
X0251394Y0163189D02*
Y0169361D01*
X0252772Y0172688D02*
X0261074Y0180991D01*
X0264610Y0189527D02*
Y0196036D01*
X0267720Y0203545D02*
Y0203939D01*
X0278783Y0212637D02*
Y0215518D01*
X0281172Y0221286D02*
X0282760Y0222873D01*
X0285801Y0224133D02*
X0310555D01*
X0267878Y0213582D02*
Y0214172D01*
X0251394Y0208582D02*
X0262878D01*
X0256394Y0158189D02*
X0287144D01*
X0384296Y0212637D02*
G03*
X0386885Y0206386I0008839J0000000D01*
G01*
X0388802Y0204470D02*
G03*
X0397338Y0200934I0008535J0008535D01*
G01*
X0358285Y0172688D02*
G03*
X0356907Y0169361I0003327J-0003327D01*
G01*
X0366588Y0180991D02*
G03*
X0370123Y0189527I-0008535J0008535D01*
G01*
X0371423Y0199172D02*
G03*
X0370123Y0196036I0003137J-0003137D01*
G01*
X0371423Y0199172D02*
G03*
X0373234Y0203545I-0004372J0004372D01*
G01*
Y0203939D02*
G03*
X0371005Y0209319I-0007609J0000000D01*
G01*
X0386685Y0221286D02*
G03*
X0384296Y0215518I0005767J-0005767D01*
G01*
X0391314Y0224133D02*
G03*
X0388273Y0222873I0000000J-0004301D01*
G01*
X0368391Y0208582D02*
G03*
X0373391Y0213582I0000000J0005000D01*
G01*
X0356907Y0163189D02*
G03*
X0361907Y0158189I0005000J0000000D01*
G01*
X0386885Y0206386D02*
X0388802Y0204470D01*
X0397338Y0200934D02*
X0399360D01*
X0404946D01*
X0406487Y0199393D01*
Y0192536D02*
Y0199393D01*
Y0192536D02*
X0413767Y0185256D01*
Y0181635D02*
Y0185256D01*
X0395046Y0162913D02*
X0413767Y0181635D01*
X0395046Y0160563D02*
Y0162913D01*
X0392657Y0158175D02*
X0395046Y0160563D01*
X0356907Y0163189D02*
Y0169361D01*
X0358285Y0172688D02*
X0366588Y0180991D01*
X0370123Y0189527D02*
Y0196036D01*
X0373234Y0203545D02*
Y0203939D01*
X0384296Y0212637D02*
Y0215518D01*
X0386685Y0221286D02*
X0388273Y0222873D01*
X0391314Y0224133D02*
X0416068D01*
X0373391Y0213582D02*
Y0214172D01*
X0356907Y0208582D02*
X0368391D01*
X0361907Y0158189D02*
X0392657D01*
X0489810Y0212637D02*
G03*
X0492399Y0206386I0008839J0000000D01*
G01*
X0494315Y0204470D02*
G03*
X0502851Y0200934I0008535J0008535D01*
G01*
X0463798Y0172688D02*
G03*
X0462420Y0169361I0003327J-0003327D01*
G01*
X0472101Y0180991D02*
G03*
X0475636Y0189527I-0008535J0008535D01*
G01*
X0476936Y0199172D02*
G03*
X0475636Y0196036I0003137J-0003137D01*
G01*
X0476936Y0199172D02*
G03*
X0478747Y0203545I-0004372J0004372D01*
G01*
Y0203939D02*
G03*
X0476518Y0209319I-0007609J0000000D01*
G01*
X0492199Y0221286D02*
G03*
X0489810Y0215518I0005767J-0005767D01*
G01*
X0496828Y0224133D02*
G03*
X0493786Y0222873I0000000J-0004301D01*
G01*
X0473904Y0208582D02*
G03*
X0478904Y0213582I0000000J0005000D01*
G01*
X0462420Y0163189D02*
G03*
X0467420Y0158189I0005000J0000000D01*
G01*
X0492399Y0206386D02*
X0494315Y0204470D01*
X0502851Y0200934D02*
X0504874D01*
X0510459D01*
X0512000Y0199393D01*
Y0192536D02*
Y0199393D01*
Y0192536D02*
X0519281Y0185256D01*
Y0181635D02*
Y0185256D01*
X0500559Y0162913D02*
X0519281Y0181635D01*
X0500559Y0160563D02*
Y0162913D01*
X0498171Y0158175D02*
X0500559Y0160563D01*
X0462420Y0163189D02*
Y0169361D01*
X0463798Y0172688D02*
X0472101Y0180991D01*
X0475636Y0189527D02*
Y0196036D01*
X0478747Y0203545D02*
Y0203939D01*
X0489810Y0212637D02*
Y0215518D01*
X0492199Y0221286D02*
X0493786Y0222873D01*
X0496828Y0224133D02*
X0521581D01*
X0478904Y0213582D02*
Y0214172D01*
X0462420Y0208582D02*
X0473904D01*
X0467420Y0158189D02*
X0498171D01*
D81*
X0039370Y0367913D02*
D03*
X0533543Y0014764D02*
D03*
X0531890Y0367913D02*
D03*
X0039370Y0014764D02*
D03*
D82*
X0114706Y0107002D02*
D03*
X0111890Y0146221D02*
D03*
Y0138347D02*
D03*
Y0122599D02*
D03*
X0111969Y0114725D02*
D03*
X0111890Y0130473D02*
D03*
X0111969Y0154095D02*
D03*
X0111969Y0295827D02*
D03*
X0111890Y0272205D02*
D03*
X0111969Y0256457D02*
D03*
X0111890Y0264331D02*
D03*
Y0280079D02*
D03*
Y0287953D02*
D03*
X0220219Y0107002D02*
D03*
X0217403Y0146221D02*
D03*
Y0138347D02*
D03*
Y0122599D02*
D03*
X0217482Y0114725D02*
D03*
X0217403Y0130473D02*
D03*
X0217482Y0154095D02*
D03*
X0217482Y0295827D02*
D03*
X0217403Y0272205D02*
D03*
X0217482Y0256457D02*
D03*
X0217403Y0264331D02*
D03*
Y0280079D02*
D03*
Y0287953D02*
D03*
X0325732Y0107002D02*
D03*
X0322916Y0146221D02*
D03*
Y0138347D02*
D03*
Y0122599D02*
D03*
X0322995Y0114725D02*
D03*
X0322916Y0130473D02*
D03*
X0322995Y0154095D02*
D03*
X0322995Y0295827D02*
D03*
X0322916Y0272205D02*
D03*
X0322995Y0256457D02*
D03*
X0322916Y0264331D02*
D03*
Y0280079D02*
D03*
Y0287953D02*
D03*
X0431245Y0107002D02*
D03*
X0428430Y0146221D02*
D03*
Y0138347D02*
D03*
Y0122599D02*
D03*
X0428508Y0114725D02*
D03*
X0428430Y0130473D02*
D03*
X0428508Y0154095D02*
D03*
X0428508Y0295827D02*
D03*
X0428430Y0272205D02*
D03*
X0428508Y0256457D02*
D03*
X0428430Y0264331D02*
D03*
Y0280079D02*
D03*
Y0287953D02*
D03*
X0536759Y0107002D02*
D03*
X0533943Y0146221D02*
D03*
Y0138347D02*
D03*
Y0122599D02*
D03*
X0534021Y0114725D02*
D03*
X0533943Y0130473D02*
D03*
X0534021Y0154095D02*
D03*
X0534022Y0295827D02*
D03*
X0533943Y0272205D02*
D03*
X0534022Y0256457D02*
D03*
X0533943Y0264331D02*
D03*
Y0280079D02*
D03*
Y0287953D02*
D03*
D83*
X0053544Y0049605D02*
D03*
X0096064D02*
D03*
X0159057D02*
D03*
X0201577D02*
D03*
X0264571D02*
D03*
X0307090D02*
D03*
X0370084D02*
D03*
X0412604D02*
D03*
X0475597D02*
D03*
X0518117D02*
D03*
D84*
X0035532Y0125708D02*
D03*
X0040532D02*
D03*
X0035532Y0120708D02*
D03*
X0040532D02*
D03*
X0035532Y0115708D02*
D03*
X0040532D02*
D03*
X0141046Y0125708D02*
D03*
X0146046D02*
D03*
X0141046Y0120708D02*
D03*
X0146046D02*
D03*
X0141046Y0115708D02*
D03*
X0146046D02*
D03*
X0246559Y0125708D02*
D03*
X0251559D02*
D03*
X0246559Y0120708D02*
D03*
X0251559D02*
D03*
X0246559Y0115708D02*
D03*
X0251559D02*
D03*
X0352072Y0125708D02*
D03*
X0357072D02*
D03*
X0352072Y0120708D02*
D03*
X0357072D02*
D03*
X0352072Y0115708D02*
D03*
X0357072D02*
D03*
X0457585Y0125708D02*
D03*
X0462585D02*
D03*
X0457585Y0120708D02*
D03*
X0462585D02*
D03*
X0457585Y0115708D02*
D03*
X0462585D02*
D03*
D85*
X0014764Y0014764D02*
D03*
X0556890D02*
D03*
Y0367913D02*
D03*
X0014764D02*
D03*
X0085551Y0313780D02*
D03*
X0191064D02*
D03*
X0296578D02*
D03*
X0402091D02*
D03*
X0507604D02*
D03*
D86*
X0053150Y0313779D02*
D03*
X0068111Y0111810D02*
D03*
X0072442Y0036613D02*
D03*
X0074292Y0150708D02*
D03*
X0064450D02*
D03*
X0158664Y0313779D02*
D03*
X0173624Y0111810D02*
D03*
X0177955Y0036613D02*
D03*
X0179806Y0150708D02*
D03*
X0169963D02*
D03*
X0264177Y0313779D02*
D03*
X0279138Y0111810D02*
D03*
X0283468Y0036613D02*
D03*
X0285319Y0150708D02*
D03*
X0275476D02*
D03*
X0369690Y0313779D02*
D03*
X0384651Y0111810D02*
D03*
X0388982Y0036613D02*
D03*
X0390832Y0150708D02*
D03*
X0380989D02*
D03*
X0475203Y0313779D02*
D03*
X0490164Y0111810D02*
D03*
X0494495Y0036613D02*
D03*
X0496345Y0150708D02*
D03*
X0486503D02*
D03*
D87*
X0111694Y0084842D02*
D03*
X0106694D02*
D03*
X0217207D02*
D03*
X0212207D02*
D03*
X0322720D02*
D03*
X0317720D02*
D03*
X0428233D02*
D03*
X0423234D02*
D03*
X0533747D02*
D03*
X0528747D02*
D03*
D88*
X0045749Y0335393D02*
D03*
Y0142558D02*
D03*
X0151262Y0335393D02*
D03*
Y0142558D02*
D03*
X0256775Y0335393D02*
D03*
Y0142558D02*
D03*
X0362289Y0335393D02*
D03*
Y0142558D02*
D03*
X0467802Y0335393D02*
D03*
Y0142558D02*
D03*
D89*
X0038032Y0130708D02*
D03*
X0042032Y0110708D02*
D03*
X0034032D02*
D03*
X0143546Y0130708D02*
D03*
X0147546Y0110708D02*
D03*
X0139546D02*
D03*
X0249059Y0130708D02*
D03*
X0253059Y0110708D02*
D03*
X0245059D02*
D03*
X0354572Y0130708D02*
D03*
X0358572Y0110708D02*
D03*
X0350572D02*
D03*
X0460085Y0130708D02*
D03*
X0464085Y0110708D02*
D03*
X0456085D02*
D03*
D90*
X0077302Y0195131D02*
D03*
X0182815D02*
D03*
X0288328D02*
D03*
X0393842D02*
D03*
X0499355D02*
D03*
M02*
