M48
;Layer_Color=9474304
;FILE_FORMAT=2:5
INCH
;TYPE=PLATED
T1F00S00C0.01181
T2F00S00C0.04331
T3F00S00C0.04724
T4F00S00C0.11811
%
T01
X0046331Y0046418
X0044362Y0050355
X0052236Y0042481
X0087669
X0091606
X0095543
X0089638Y0046418
X0087669Y0050355
X0121968Y0052087
X0146724Y0050355
X0148693Y0046418
X0154598Y0042481
X0190032
X0193969
X0197906
X0192000Y0046418
X0190032Y0050355
X0224331Y0052087
X0249087Y0050355
X0251055Y0046418
X0256961Y0042481
X0292394
X0296331
X0300268
X0294362Y0046418
X0292394Y0050355
X0326693Y0052087
X0351449Y0050355
X0353417Y0046418
X0359323Y0042481
X0394756
X0398693
X0402630
X0396725Y0046418
X0394756Y0050355
X0429055Y0052087
X0453811Y0050355
X0455780Y0046418
X0461685Y0042481
X0497118
X0501055
X0504992
X0499087Y0046418
X0497118Y0050355
X0531417Y0052087
X0532551Y0058229
Y0066103
X0531417Y0069685
X0532551Y0073977
X0531417Y0076732
Y0083780
Y0090827
X0530583Y0093662
X0526646
X0528614Y0097599
X0531417Y0097874
X0530583Y0101536
X0526646
X0531417Y0104882
X0530583Y0109410
X0531417Y0111890
Y0118898
X0528740Y0143307
X0528909Y0151083
X0526063Y0168543
Y0171772
X0526279Y0174705
X0532551Y0176339
Y0184213
X0531378Y0191575
X0530583Y0196024
X0531496Y0199921
X0526614Y0198858
X0525827Y0193110
X0525787Y0189606
X0525492Y0210433
X0531299Y0169134
X0528614Y0089725
X0524677
X0520740
X0516803
X0512866
X0508929
X0504992
X0501055
X0497118
X0494370Y0092520
X0499087Y0093662
X0503024
X0506961
X0510898
X0514835
X0518772
X0522709
X0520740Y0097599
X0524677
X0522709Y0101536
X0518772
X0514835
X0510898
X0506961
X0508929Y0097599
X0512866
X0516803
X0520740Y0105473
Y0113347
X0521220Y0115866
X0524705Y0116339
X0524685Y0119016
X0514835Y0117284
X0508929Y0113347
X0504992
X0497118
X0493181
X0489244
X0485307
X0487276Y0117284
X0491213
X0489244Y0121221
X0485307
X0487276Y0125158
X0491213
X0489244Y0129095
X0485307
X0477433
X0473496
X0475465Y0125158
X0479402
X0477433Y0121221
X0473496
X0465256Y0120669
X0460531Y0121949
X0455780Y0117284
X0453110Y0119449
X0452913Y0128740
X0452835Y0136102
X0452756Y0143543
X0458563Y0142225
Y0133169
X0469475Y0137671
X0471528Y0140906
X0475465
X0478543Y0141929
X0481299Y0145768
Y0149213
X0481370Y0152717
X0477433
X0480433Y0158110
X0481370Y0160591
X0473622Y0161319
X0473425Y0170276
X0476476Y0173622
X0479528Y0178937
X0482302Y0182138
X0480040Y0186574
X0475044Y0191969
X0477756Y0196378
X0477441Y0199921
X0472008Y0199961
X0468012Y0202461
X0468701Y0205610
X0466575Y0209567
X0475039Y0208465
X0477874Y0208425
X0479528Y0211516
X0489665Y0212106
X0490197Y0209331
X0487600Y0208375
X0492480Y0211496
X0495472Y0212480
X0499094Y0212165
X0502087Y0210236
X0503819Y0206614
X0503976Y0202638
X0503110Y0200000
X0505709Y0199134
X0508929Y0199961
X0508661Y0204725
X0514272Y0203150
X0516043Y0205414
X0522834Y0198756
X0508543Y0191850
X0504252Y0191890
X0499685Y0191929
X0496063Y0191890
X0494980Y0196063
X0497665
X0500748Y0198583
X0492402Y0198032
X0490118Y0200079
X0489244Y0192087
X0490630Y0186102
X0492953Y0186496
X0491220Y0183622
X0499213Y0182126
X0500394Y0173858
X0503543Y0166890
X0511122Y0164567
X0510000Y0160630
X0510630Y0155118
X0510757Y0151445
X0513857Y0152351
X0517794
Y0156288
X0513857
X0505472Y0152638
X0497874Y0155236
X0496417Y0145354
X0491929Y0143110
X0490945Y0147165
X0484842Y0138662
X0482775Y0136614
X0499087Y0125158
X0502992Y0123780
X0501055Y0121221
X0509134Y0127441
X0512697Y0126477
X0514961Y0133071
X0516614Y0136732
X0513779Y0140906
X0517976Y0145658
X0512866Y0168465
X0514835Y0172402
X0513110Y0179213
X0512866Y0184213
X0511713Y0186516
X0510039Y0176614
X0489370Y0173527
X0488189Y0168071
X0491500Y0162112
X0479134Y0167421
X0462106Y0167323
X0458563Y0164665
Y0158169
X0461969Y0155512
X0466811Y0153071
X0458563Y0151378
X0452756Y0150906
X0453811Y0160591
Y0168465
Y0176339
Y0184213
X0458858Y0185669
X0461102Y0186929
X0458819Y0189409
X0458760Y0193504
Y0196555
X0456614Y0198110
X0453811Y0199961
X0452756Y0202441
Y0209803
X0461260Y0200079
X0467953Y0196299
X0465622Y0192087
X0453811
X0458898Y0181575
X0464075Y0176969
X0430189Y0176339
Y0184213
X0429016Y0191575
X0428221Y0196024
X0429134Y0199921
X0424252Y0198858
X0420472Y0198756
X0423464Y0193110
X0423425Y0189606
X0423917Y0174705
X0423701Y0171772
Y0168543
X0428937Y0169134
X0410504Y0168465
X0408760Y0164567
X0407638Y0160630
X0408268Y0155118
X0408394Y0151445
X0411494Y0152351
X0415431
Y0156288
X0411494
X0403110Y0152638
X0395512Y0155236
X0394055Y0145354
X0389567Y0143110
X0388583Y0147165
X0378937Y0145768
Y0149213
X0379008Y0152717
X0375071
X0378071Y0158110
X0379008Y0160591
X0371260Y0161319
X0371063Y0170276
X0374114Y0173622
X0377165Y0178937
X0379940Y0182138
X0377678Y0186574
X0372682Y0191969
X0375394Y0196378
X0375079Y0199921
X0369646Y0199961
X0372677Y0208465
X0375512Y0208425
X0377165Y0211516
X0387303Y0212106
X0387835Y0209331
X0385238Y0208375
X0390118Y0211496
X0393110Y0212480
X0396732Y0212165
X0399724Y0210236
X0401457Y0206614
X0401614Y0202638
X0400748Y0200000
X0403346Y0199134
X0406567Y0199961
X0406299Y0204725
X0411909Y0203150
X0413681Y0205414
X0423130Y0210433
X0406181Y0191850
X0401890Y0191890
X0397323Y0191929
X0393701Y0191890
X0392618Y0196063
X0395303
X0398386Y0198583
X0390039Y0198032
X0387756Y0200079
X0386882Y0192087
X0388268Y0186102
X0390591Y0186496
X0388858Y0183622
X0396850Y0182126
X0398031Y0173858
X0401181Y0166890
X0407677Y0176614
X0410748Y0179213
X0410504Y0184213
X0409350Y0186516
X0412472Y0172402
X0387008Y0173527
X0385827Y0168071
X0389138Y0162112
X0376772Y0167421
X0376181Y0141929
X0373102Y0140906
X0369165
X0371134Y0129095
X0375071
X0377039Y0125158
X0373102
X0371134Y0121221
X0375071
X0382945
X0386882
X0388850Y0125158
X0384913
X0382945Y0129095
X0386882
X0396725Y0125158
X0400630Y0123780
X0398693Y0121221
X0402630Y0113347
X0406567
X0412472Y0117284
X0418858Y0115866
X0418378Y0113347
X0422342Y0116339
X0422323Y0119016
X0429055Y0118898
Y0111890
X0428221Y0109410
X0429055Y0104882
X0428221Y0101536
X0424284
X0420346
X0416409
X0412472
X0408535
X0404599
X0406567Y0097599
X0410504
X0414441
X0418378
X0422315
X0426252
X0429055Y0097874
X0428221Y0093662
X0429055Y0090827
X0426252Y0089725
X0422315
X0418378
X0414441
X0410504
X0406567
X0402630
X0398693
X0394756
X0392008Y0092520
X0396725Y0093662
X0400662
X0404599
X0408535
X0412472
X0416409
X0420346
X0424284
X0429055Y0083780
Y0076732
X0430189Y0073977
X0429055Y0069685
X0430189Y0066103
Y0058229
X0419365Y0066373
X0416443Y0063451
X0418378Y0081851
X0406567
X0408535Y0085788
X0404599
X0392788
X0390819Y0081851
X0386882
X0382945
X0379008
X0375071
X0371134
X0373102Y0085788
X0377039
X0380976
X0379008Y0089725
X0375071
X0371134
X0373102Y0093662
X0377039
X0380976
X0384913
X0382945Y0097599
X0379008
X0375071
X0371134
X0373102Y0101536
X0377039
X0380976
X0384913
X0388850
X0392788
X0390819Y0105473
X0386882
X0382945
X0379008
X0380976Y0109410
X0384913
X0388850
X0392788
X0390819Y0113347
X0394756
X0386882
X0382945
X0384913Y0117284
X0388850
X0375071Y0113347
X0371134Y0105473
X0369165Y0101536
Y0093662
Y0085788
Y0077914
X0384913Y0070040
X0388850
X0392788
X0396725
X0394756Y0066103
X0390819
X0386882
X0388850Y0062166
X0392788
X0390819Y0058229
X0386882
X0453811Y0066103
X0455780Y0070040
X0453811Y0073977
X0457748
X0461685
X0459717Y0077914
X0455780
X0454626Y0081299
X0457748Y0081851
X0461685
X0459449Y0087205
X0457748Y0089725
X0461685
X0459717Y0093662
X0454134Y0093504
X0453811Y0089725
X0455780Y0085788
X0453811Y0097599
X0457748
X0460138Y0099410
X0469559Y0097599
X0473496
X0477433
X0481370
X0485307
X0487276Y0101536
X0491213
X0495150
X0493181Y0105473
X0489244
X0485307
X0481370
X0483339Y0109410
X0487276
X0491213
X0495150
X0483339Y0101536
X0479402
X0475465
X0471528
X0469559Y0105473
X0473496
X0477433Y0113347
X0464272Y0114665
X0464665Y0111417
X0457775Y0114173
X0471528Y0093662
X0475465
X0479402
X0483339
X0487276
X0481370Y0089725
X0477433
X0473496
X0469559
X0471528Y0085788
X0475465
X0479402
X0483339
X0481370Y0081851
X0485307
X0489244
X0493181
X0495150Y0085788
X0506961
X0510898
X0508929Y0081851
X0520740
X0521727Y0066373
X0518805Y0063451
X0497118Y0066103
X0493181
X0489244
X0491213Y0070040
X0495150
X0499087
X0495150Y0062166
X0491213
X0489244Y0058229
X0493181
X0487276Y0070040
X0470905Y0066138
Y0062871
X0471528Y0077914
X0469559Y0081851
X0473496
X0477433
X0418378Y0105473
X0410335Y0126477
X0406772Y0127441
X0412598Y0133071
X0414252Y0136732
X0411417Y0140906
X0415614Y0145658
X0426378Y0143307
X0426547Y0151083
X0382480Y0138662
X0380413Y0136614
X0367113Y0137671
X0356201Y0133169
X0350472Y0136102
X0350551Y0128740
X0350748Y0119449
X0353417Y0117284
X0355413Y0114173
X0361909Y0114665
X0362303Y0111417
X0362894Y0120669
X0358169Y0121949
X0356201Y0142225
X0350394Y0143543
Y0150906
X0356201Y0151378
Y0158169
X0359606Y0155512
X0364449Y0153071
X0359744Y0167323
X0356201Y0164665
X0351449Y0168465
Y0176339
Y0184213
X0356496Y0185669
X0358740Y0186929
X0356457Y0189409
X0356398Y0193504
Y0196555
X0354252Y0198110
X0351449Y0199961
X0350394Y0202441
Y0209803
X0364212Y0209567
X0366338Y0205610
X0365650Y0202461
X0365591Y0196299
X0363260Y0192087
X0351449
X0358898Y0200079
X0356535Y0181575
X0361713Y0176969
X0351449Y0160591
X0326575Y0169134
X0321339Y0168543
Y0171772
X0321555Y0174705
X0327827Y0176339
Y0184213
X0326654Y0191575
X0325858Y0196024
X0326772Y0199921
X0321890Y0198858
X0318110Y0198756
X0321102Y0193110
X0321063Y0189606
X0306988Y0186516
X0308142Y0184213
X0308386Y0179213
X0305315Y0176614
X0310110Y0172402
X0308142Y0168465
X0306398Y0164567
X0305276Y0160630
X0305906Y0155118
X0306032Y0151445
X0309132Y0152351
X0313069
Y0156288
X0309132
X0300748Y0152638
X0293150Y0155236
X0291693Y0145354
X0287205Y0143110
X0286220Y0147165
X0276575Y0145768
Y0149213
X0276646Y0152717
X0272709
X0275709Y0158110
X0276646Y0160591
X0268898Y0161319
X0268701Y0170276
X0271752Y0173622
X0274803Y0178937
X0277577Y0182138
X0275316Y0186574
X0270320Y0191969
X0273031Y0196378
X0272716Y0199921
X0267283Y0199961
X0263287Y0202461
X0263976Y0205610
X0261850Y0209567
X0270315Y0208465
X0273150Y0208425
X0274803Y0211516
X0284941Y0212106
X0285472Y0209331
X0282876Y0208375
X0287756Y0211496
X0290748Y0212480
X0294370Y0212165
X0297362Y0210236
X0299095Y0206614
X0299252Y0202638
X0298386Y0200000
X0300984Y0199134
X0304205Y0199961
X0303937Y0204725
X0309547Y0203150
X0311319Y0205414
X0320768Y0210433
X0303819Y0191850
X0299528Y0191890
X0294961Y0191929
X0291339Y0191890
X0290256Y0196063
X0292940
X0296024Y0198583
X0287677Y0198032
X0285394Y0200079
X0284520Y0192087
X0285906Y0186102
X0288228Y0186496
X0286496Y0183622
X0294488Y0182126
X0295669Y0173858
X0298819Y0166890
X0283465Y0168071
X0284646Y0173527
X0286776Y0162112
X0274409Y0167421
X0257382Y0167323
X0253839Y0164665
Y0158169
X0257244Y0155512
X0262087Y0153071
X0253839Y0151378
X0248031Y0150906
Y0143543
X0253839Y0142225
Y0133169
X0248110Y0136102
X0248189Y0128740
X0248386Y0119449
X0251055Y0117284
X0253051Y0114173
X0259547Y0114665
X0259941Y0111417
X0260531Y0120669
X0255807Y0121949
X0268772Y0121221
X0272709
X0274677Y0125158
X0270740
X0268772Y0129095
X0272709
X0280583
X0284520
X0286488Y0125158
X0282551
X0280583Y0121221
X0284520
X0286488Y0117284
X0282551
X0280583Y0113347
X0284520
X0288457
X0292394
X0290425Y0109410
X0286488
X0282551
X0278614
X0276646Y0105473
X0280583
X0284520
X0288457
X0290425Y0101536
X0286488
X0282551
X0278614
X0274677
X0270740
X0266803
X0264835Y0105473
X0268772
Y0097599
X0272709
X0276646
X0280583
X0282551Y0093662
X0278614
X0274677
X0270740
X0266803
X0264835Y0097599
Y0089725
X0268772
X0272709
X0276646
X0278614Y0085788
X0274677
X0270740
X0266803
X0264835Y0081851
X0268772
X0272709
X0276646
X0280583
X0284520
X0288457
X0290425Y0085788
X0292394Y0089725
X0296331
X0300268
X0304205
X0308142
X0312079
X0316016
X0319953
X0323890
X0326693Y0090827
X0325858Y0093662
X0321921
X0317984
X0314047
X0310110
X0306173
X0302236
X0298299
X0294362
X0289646Y0092520
X0302236Y0085788
X0306173
X0304205Y0081851
X0316016
X0326693Y0083780
Y0076732
X0327827Y0073977
X0326693Y0069685
X0327827Y0066103
Y0058229
X0317002Y0066373
X0314081Y0063451
X0292394Y0066103
X0288457
X0284520
X0286488Y0070040
X0290425
X0294362
X0290425Y0062166
X0286488
X0284520Y0058229
X0288457
X0282551Y0070040
X0266181Y0066138
Y0062871
X0266803Y0077914
X0254992
X0251055
X0249902Y0081299
X0253024Y0081851
X0256961
X0254724Y0087205
X0253024Y0089725
X0256961
X0254992Y0093662
X0249409Y0093504
X0249087Y0089725
X0251055Y0085788
X0249087Y0097599
X0253024
X0255413Y0099410
X0256961Y0073977
X0253024
X0249087
X0251055Y0070040
X0249087Y0066103
X0225465
X0224331Y0069685
X0225465Y0073977
X0224331Y0076732
Y0083780
Y0090827
X0223496Y0093662
X0219559
X0215622
X0213654Y0097599
X0217591
X0221528
X0224331Y0097874
X0223496Y0101536
X0219559
X0215622
X0213654Y0105473
Y0113347
X0214134Y0115866
X0217618Y0116339
X0217598Y0119016
X0224331Y0118898
Y0111890
X0223496Y0109410
X0224331Y0104882
X0221528Y0089725
X0217591
X0213654
Y0081851
X0214640Y0066373
X0225465Y0058229
X0221654Y0143307
X0221822Y0151083
X0218976Y0168543
Y0171772
X0219193Y0174705
X0225465Y0176339
Y0184213
X0224291Y0191575
X0223496Y0196024
X0224409Y0199921
X0219528Y0198858
X0215748Y0198756
X0218740Y0193110
X0218701Y0189606
X0218406Y0210433
X0248031Y0209803
Y0202441
X0249087Y0199961
X0251890Y0198110
X0254035Y0196555
Y0193504
X0254095Y0189409
X0254134Y0185669
X0256378Y0186929
X0254173Y0181575
X0249087Y0184213
Y0192087
X0260898
X0263228Y0196299
X0256535Y0200079
X0259350Y0176969
X0249087Y0176339
Y0168465
Y0160591
X0224213Y0169134
X0266803Y0140906
X0270740
X0273819Y0141929
X0278051Y0136614
X0280118Y0138662
X0264751Y0137671
X0272709Y0113347
X0300268
X0304205
X0310110Y0117284
X0316496Y0115866
X0316016Y0113347
X0319980Y0116339
X0319961Y0119016
X0326693Y0118898
Y0111890
X0325858Y0109410
X0326693Y0104882
X0325858Y0101536
X0321921
X0317984
X0314047
X0310110
X0306173
X0302236
X0304205Y0097599
X0308142
X0312079
X0316016
X0319953
X0323890
X0326693Y0097874
X0316016Y0105473
X0307972Y0126477
X0304409Y0127441
X0298268Y0123780
X0296331Y0121221
X0294362Y0125158
X0310236Y0133071
X0311890Y0136732
X0309055Y0140906
X0313252Y0145658
X0324016Y0143307
X0324184Y0151083
X0351449Y0097599
X0355386
X0357776Y0099410
X0357354Y0093662
X0351772Y0093504
X0351449Y0089725
X0355386
X0359323
X0357087Y0087205
X0353417Y0085788
X0352264Y0081299
X0355386Y0081851
X0359323
X0357354Y0077914
X0353417
X0351449Y0073977
X0355386
X0359323
X0353417Y0070040
X0351449Y0066103
X0368543Y0066138
Y0062871
X0367197Y0081851
Y0089725
Y0097599
Y0105473
X0211685Y0101536
X0207748
X0203811
X0199874
X0201843Y0097599
X0205780
X0209717
X0211685Y0093662
X0207748
X0203811
X0199874
X0195937
X0192000
X0187284Y0092520
X0190032Y0089725
X0193969
X0197906
X0201843
X0205780
X0209717
X0203811Y0085788
X0199874
X0201843Y0081851
X0186095
X0182158
X0178221
X0174284
X0170347
X0166410
X0162472
X0164441Y0085788
X0168378
X0172315
X0176252
X0174284Y0089725
X0170347
X0166410
X0162472
X0164441Y0093662
X0168378
X0172315
X0176252
X0180189
X0178221Y0097599
X0174284
X0170347
X0166410
X0162472
X0164441Y0101536
X0168378
X0172315
X0176252
X0180189
X0184126
X0188063
X0186095Y0105473
X0182158
X0178221
X0174284
X0176252Y0109410
X0180189
X0184126
X0188063
X0186095Y0113347
X0190032
X0197906
X0201843
X0207748Y0117284
X0205610Y0126477
X0202047Y0127441
X0195905Y0123780
X0193969Y0121221
X0192000Y0125158
X0184126
X0180189
X0178221Y0129095
X0182158
Y0121221
X0178221
X0180189Y0117284
X0184126
X0182158Y0113347
X0178221
X0170347
Y0121221
X0166410
X0168378Y0125158
X0172315
X0170347Y0129095
X0166410
X0162389Y0137671
X0164441Y0140906
X0168378
X0171457Y0141929
X0174213Y0145768
Y0149213
X0174284Y0152717
X0170347
X0173346Y0158110
X0174284Y0160591
X0166535Y0161319
X0166339Y0170276
X0169390Y0173622
X0172441Y0178937
X0175215Y0182138
X0172954Y0186574
X0167958Y0191969
X0170669Y0196378
X0170354Y0199921
X0164921Y0199961
X0160925Y0202461
X0161614Y0205610
X0159488Y0209567
X0167953Y0208465
X0170787Y0208425
X0172441Y0211516
X0182579Y0212106
X0183110Y0209331
X0180514Y0208375
X0185394Y0211496
X0188386Y0212480
X0192008Y0212165
X0195000Y0210236
X0196732Y0206614
X0196890Y0202638
X0196024Y0200000
X0198622Y0199134
X0201843Y0199961
X0201575Y0204725
X0207185Y0203150
X0208957Y0205414
X0201457Y0191850
X0197165Y0191890
X0192598Y0191929
X0188976Y0191890
X0187894Y0196063
X0190578
X0193661Y0198583
X0185315Y0198032
X0183031Y0200079
X0182158Y0192087
X0183543Y0186102
X0185866Y0186496
X0184134Y0183622
X0192126Y0182126
X0193307Y0173858
X0196457Y0166890
X0204035Y0164567
X0202913Y0160630
X0203543Y0155118
X0203670Y0151445
X0206770Y0152351
X0210707
Y0156288
X0206770
X0198386Y0152638
X0190787Y0155236
X0189331Y0145354
X0184843Y0143110
X0183858Y0147165
X0177756Y0138662
X0175689Y0136614
X0151476Y0133169
X0145748Y0136102
X0145827Y0128740
X0146024Y0119449
X0148693Y0117284
X0150689Y0114173
X0157185Y0114665
X0157579Y0111417
X0158169Y0120669
X0153445Y0121949
X0151476Y0142225
X0145669Y0143543
Y0150906
X0151476Y0151378
Y0158169
X0154882Y0155512
X0159724Y0153071
X0155020Y0167323
X0151476Y0164665
X0146724Y0168465
Y0176339
Y0184213
X0151772Y0185669
X0154016Y0186929
X0151732Y0189409
X0151673Y0193504
Y0196555
X0149528Y0198110
X0146724Y0199961
X0145669Y0202441
Y0209803
X0154173Y0200079
X0160866Y0196299
X0158536Y0192087
X0146724
X0151811Y0181575
X0156988Y0176969
X0172047Y0167421
X0181102Y0168071
X0182283Y0173527
X0184413Y0162112
X0205780Y0168465
X0207748Y0172402
X0206024Y0179213
X0205780Y0184213
X0204626Y0186516
X0202953Y0176614
X0210890Y0145658
X0206693Y0140906
X0209528Y0136732
X0207874Y0133071
X0188063Y0085788
Y0070040
X0192000
X0190032Y0066103
X0186095
X0182158
X0184126Y0070040
X0180189
X0184126Y0062166
X0188063
X0186095Y0058229
X0182158
X0163819Y0062871
Y0066138
X0164441Y0077914
X0152630
X0148693
X0147539Y0081299
X0150662Y0081851
X0154598
X0152362Y0087205
X0150662Y0089725
X0154598
X0152630Y0093662
X0147047Y0093504
X0146724Y0089725
X0148693Y0085788
X0146724Y0097599
X0150662
X0153051Y0099410
X0162472Y0105473
X0166410
X0154598Y0073977
X0150662
X0146724
X0148693Y0070040
X0146724Y0066103
X0123102
X0121968Y0069685
X0123102Y0073977
X0121968Y0076732
Y0083780
Y0090827
X0121134Y0093662
X0117197
X0113260
X0109323
X0105386
X0101449
X0097512
X0093575
X0089638
X0084921Y0092520
X0087669Y0089725
X0091606
X0095543
X0099480
X0103418
X0107354
X0111292
X0115228
X0119166
Y0097599
X0121968Y0097874
X0121134Y0101536
X0117197
X0113260
X0109323
X0105386
X0101449
X0097512
X0099480Y0097599
X0103418
X0107354
X0111292
X0115228
X0111292Y0105473
Y0113347
X0111772Y0115866
X0115256Y0116339
X0115236Y0119016
X0121968Y0118898
Y0111890
X0121134Y0109410
X0121968Y0104882
X0105386Y0117284
X0099480Y0113347
X0095543
X0087669
X0083732
X0079795
X0075858
X0077827Y0117284
X0081764
X0079795Y0121221
X0075858
X0077827Y0125158
X0081764
X0079795Y0129095
X0075858
X0067984
X0064047
X0066016Y0125158
X0069953
X0067984Y0121221
X0064047
X0067984Y0113347
X0073890Y0109410
X0077827
X0081764
X0085701
X0083732Y0105473
X0079795
X0075858
X0071921
X0073890Y0101536
X0077827
X0081764
X0085701
X0075858Y0097599
X0071921
X0067984
X0064047
X0060110
X0062079Y0101536
X0066016
X0069953
Y0093662
X0073890
X0077827
X0071921Y0089725
X0067984
X0064047
X0060110
X0062079Y0093662
X0066016
Y0085788
X0069953
X0073890
X0071921Y0081851
X0075858
X0079795
X0083732
X0085701Y0085788
X0097512
X0101449
X0099480Y0081851
X0111292
X0112278Y0066373
X0109356Y0063451
X0123102Y0058229
X0083732
X0079795
X0081764Y0062166
X0085701
X0083732Y0066103
X0087669
X0089638Y0070040
X0085701
X0081764
X0077827
X0079795Y0066103
X0061457Y0066138
Y0062871
X0062079Y0077914
X0060110Y0081851
X0064047
X0067984
X0062079Y0085788
X0060110Y0105473
X0064047
X0060027Y0137671
X0062079Y0140906
X0066016
X0069095Y0141929
X0071850Y0145768
Y0149213
X0071921Y0152717
X0067984
X0070984Y0158110
X0071921Y0160591
X0064173Y0161319
X0063976Y0170276
X0067028Y0173622
X0070079Y0178937
X0072853Y0182138
X0070591Y0186574
X0065595Y0191969
X0068307Y0196378
X0067992Y0199921
X0062559Y0199961
X0058563Y0202461
X0059252Y0205610
X0057126Y0209567
X0065591Y0208465
X0068425Y0208425
X0070079Y0211516
X0080216Y0212106
X0080748Y0209331
X0078151Y0208375
X0083031Y0211496
X0086024Y0212480
X0089646Y0212165
X0092638Y0210236
X0094370Y0206614
X0094528Y0202638
X0093661Y0200000
X0096260Y0199134
X0099480Y0199961
X0099213Y0204725
X0104823Y0203150
X0106595Y0205414
X0113386Y0198756
X0117165Y0198858
X0122047Y0199921
X0121134Y0196024
X0121929Y0191575
X0116378Y0193110
X0116339Y0189606
X0123102Y0184213
Y0176339
X0116831Y0174705
X0116614Y0171772
Y0168543
X0121850Y0169134
X0103418Y0168465
X0101673Y0164567
X0100551Y0160630
X0101181Y0155118
X0101308Y0151445
X0104408Y0152351
X0108345
Y0156288
X0104408
X0096024Y0152638
X0088425Y0155236
X0086968Y0145354
X0082480Y0143110
X0081496Y0147165
X0075394Y0138662
X0073327Y0136614
X0089638Y0125158
X0093543Y0123780
X0091606Y0121221
X0099685Y0127441
X0103248Y0126477
X0105512Y0133071
X0107165Y0136732
X0104331Y0140906
X0108528Y0145658
X0119291Y0143307
X0119460Y0151083
X0105386Y0172402
X0103661Y0179213
X0103418Y0184213
X0102264Y0186516
X0099094Y0191850
X0094803Y0191890
X0090236Y0191929
X0086614Y0191890
X0085532Y0196063
X0088216
X0091299Y0198583
X0082953Y0198032
X0080669Y0200079
X0079795Y0192087
X0081181Y0186102
X0083504Y0186496
X0081772Y0183622
X0089764Y0182126
X0090945Y0173858
X0094095Y0166890
X0100591Y0176614
X0079921Y0173527
X0078740Y0168071
X0082051Y0162112
X0069685Y0167421
X0057362Y0153071
X0058504Y0196299
X0116043Y0210433
X0146724Y0160591
X0211718Y0063451
X0052236Y0073977
X0048299
X0044362
X0046331Y0077914
X0050268
X0048299Y0081851
X0045177Y0081299
X0046331Y0085788
X0050000Y0087205
X0048299Y0089725
X0052236
X0050268Y0093662
X0044685Y0093504
X0044362Y0089725
Y0097599
X0048299
X0050689Y0099410
X0055216Y0111417
X0054823Y0114665
X0055807Y0120669
X0051083Y0121949
X0046331Y0117284
X0043661Y0119449
X0043465Y0128740
X0043386Y0136102
X0043307Y0143543
X0049114Y0142225
Y0133169
Y0151378
X0043307Y0150906
X0044362Y0160591
X0049114Y0158169
X0052520Y0155512
X0052658Y0167323
X0049114Y0164665
X0044362Y0168465
Y0176339
Y0184213
X0049409Y0185669
X0051653Y0186929
X0049370Y0189409
X0049311Y0193504
Y0196555
X0047165Y0198110
X0044362Y0199961
X0043307Y0202441
Y0209803
X0051811Y0200079
X0056173Y0192087
X0044362
X0049449Y0181575
X0054626Y0176969
X0048327Y0114173
X0052236Y0081851
X0046331Y0070040
X0044362Y0066103
X0043307Y0217244
Y0224685
Y0232126
X0049528Y0231732
X0056102Y0229725
X0055748Y0225055
X0055236Y0234960
X0050729Y0244035
X0044362Y0247205
Y0255079
Y0262953
X0046331Y0266890
X0044362Y0270827
Y0278701
X0048299
X0052480Y0279606
X0053639Y0285792
X0055158Y0288307
X0054094Y0292677
X0053661Y0302559
X0051281Y0301439
X0044362Y0302323
X0043307Y0305748
X0044362Y0310197
X0048299
X0052236
X0054205Y0314134
X0050268
X0046331
X0044362Y0318071
X0048299
X0046331Y0322008
X0048299Y0325945
X0048425Y0333386
X0050748
X0053150
X0055512
Y0335748
X0053937Y0338228
X0050669
X0048425
Y0335748
X0048299Y0341693
X0043307Y0342599
X0051968Y0347835
X0054724Y0345866
X0054205Y0353504
X0050268
X0046331
X0052236Y0357441
X0056173
X0055079Y0359843
X0044362Y0294449
X0043307Y0290945
X0044362Y0286575
X0043307Y0283583
X0048622Y0286851
X0054565Y0262383
X0054606Y0259252
X0054430Y0254440
X0051772Y0256221
X0044362Y0239331
X0059328Y0236221
X0064370Y0239882
X0064252Y0242992
X0068464Y0240193
X0072539Y0236221
X0072441Y0233071
X0071614Y0226102
X0077953Y0227362
X0077954Y0223752
X0080807Y0223622
X0077953Y0220374
X0085701Y0219646
X0083732Y0215709
X0087669
X0093575Y0219646
X0097512
X0097559Y0216850
X0098819Y0213622
X0101449Y0219646
X0099480Y0223583
X0101181Y0225689
X0099480Y0231457
X0101449Y0235394
X0107354Y0239331
X0114272Y0244587
X0118307Y0243996
X0118209Y0249114
X0123102Y0255079
X0121134Y0259016
X0118705Y0261231
X0110000Y0260276
X0105669Y0258582
X0102165Y0256024
X0103898Y0254055
X0097512Y0251142
X0095543Y0247205
X0091606
X0093575Y0243268
X0090118Y0241181
X0085905Y0240473
X0083858Y0238740
X0086024Y0236772
X0085669Y0231417
X0083169Y0229134
X0091606Y0223583
X0095543
X0111407Y0220866
X0115354Y0227953
X0116142Y0233169
X0145669Y0232126
X0151890Y0231732
X0158465Y0229725
X0158110Y0225055
X0162244Y0223937
X0164882Y0223937
X0169606Y0218425
X0173976Y0226102
X0180315Y0227362
X0180316Y0223752
X0183169Y0223622
X0180315Y0220374
X0188063Y0219646
X0186095Y0215709
X0190032
X0195937Y0219646
X0199874
X0199921Y0216850
X0201181Y0213622
X0203811Y0219646
X0201843Y0223583
X0203543Y0225689
X0201843Y0231457
X0203811Y0235394
X0209717Y0239331
X0195937Y0243268
X0192480Y0241181
X0188268Y0240473
X0186221Y0238740
X0188386Y0236772
X0188031Y0231417
X0185531Y0229134
X0193969Y0223583
X0197906
Y0247205
X0193969
X0199874Y0251142
X0206260Y0254055
X0204527Y0256024
X0208031Y0258582
X0212362Y0260276
X0205079Y0266654
X0200118Y0266063
X0198424Y0264070
X0200748Y0270984
X0196693Y0273583
X0192480Y0272008
X0183760Y0277067
X0179921Y0278070
X0184547Y0282973
X0186665Y0285076
X0186969Y0293465
X0189529Y0293385
X0191143Y0295314
X0193426Y0297322
X0196516Y0297461
X0196951Y0294895
X0195946Y0300314
X0197206Y0303464
X0197836Y0306653
Y0309605
Y0312558
Y0315511
X0200590Y0315512
X0205591
X0207748Y0314134
X0210630Y0315512
X0209717Y0310197
X0205780
X0201843
X0209842Y0305610
X0210039Y0300787
X0205610Y0294858
X0203346Y0292717
X0205217Y0285630
X0204921Y0282284
X0199947Y0283732
X0197720Y0285959
X0183937Y0293228
X0179803Y0292795
X0177559Y0290866
X0175630Y0288937
X0170236Y0283386
X0165079Y0278189
X0163189Y0276496
X0154842Y0279606
X0150662Y0278701
X0146724
X0145669Y0283583
X0146724Y0286575
X0150984Y0286851
X0156001Y0285792
X0157520Y0288307
X0161772Y0288042
X0165748Y0290000
X0168315Y0296260
X0164252Y0300216
X0162697Y0302668
X0160433Y0301654
X0156024Y0302559
X0153644Y0301439
X0146724Y0302323
X0145669Y0305748
X0146724Y0310197
X0150662
X0154598
X0156567Y0314134
X0152630
X0148693
X0146724Y0318071
X0150662
X0148693Y0322008
X0150662Y0325945
X0150787Y0333386
X0153110
X0155512
X0157874
Y0335748
X0156299Y0338228
X0153032
X0150787
Y0335748
X0150662Y0341693
X0145669Y0342599
X0154331Y0347835
X0157087Y0345866
X0160630Y0343695
X0166142Y0343504
X0168378Y0345630
X0172315
X0176811Y0345394
Y0340394
X0174284Y0341693
X0170347
X0172315Y0337756
X0168378
X0170347Y0333819
X0174284
X0176811Y0332874
Y0335394
Y0327835
Y0322835
Y0317835
X0176252Y0314134
X0172315
X0168378
X0164441
X0162472Y0310197
X0166410
X0170347
X0174284
X0179686Y0310157
X0179725Y0313109
X0179765Y0316062
X0189056Y0316298
X0189017Y0313346
Y0310393
Y0307440
X0187244Y0302795
X0184882Y0301142
X0182126Y0301102
X0179016Y0300866
X0174284Y0302323
X0166339Y0303858
X0156457Y0292677
X0146724Y0294449
X0145669Y0290945
X0146724Y0270827
X0148693Y0266890
X0146724Y0262953
Y0255079
Y0247205
Y0239331
X0153091Y0244035
X0154134Y0256221
X0156792Y0254440
X0156968Y0259252
X0156928Y0262383
X0165059Y0261024
X0167598Y0263347
X0168386Y0256536
X0170512Y0254370
X0162441Y0247953
X0166614Y0242992
X0166732Y0239882
X0170827Y0240193
X0174902Y0236221
X0174803Y0233071
X0161690Y0236221
X0157598Y0234960
X0145669Y0224685
Y0217244
X0179488Y0245433
X0181732Y0243189
X0184291Y0241929
X0183504Y0249016
X0182047Y0258977
Y0262244
X0173150Y0266693
X0174449Y0268937
X0170945Y0268661
X0191464Y0257110
X0112110Y0271468
X0112303Y0284339
X0113740Y0290984
X0113661Y0294488
X0113406Y0297756
X0107677Y0300787
X0107480Y0305610
X0107354Y0310197
X0111292
X0115228
X0119166
X0123102
X0121134Y0314134
X0118347Y0315512
X0113307
X0108268
X0105386Y0314134
X0103228Y0315512
X0098228
X0095473Y0315511
Y0312558
Y0309605
Y0306653
X0094843Y0303464
X0093584Y0300314
X0094154Y0297461
X0094589Y0294895
X0091064Y0297322
X0088780Y0295314
X0087166Y0293385
X0084606Y0293465
X0081575Y0293228
X0077441Y0292795
X0075197Y0290866
X0073268Y0288937
X0067874Y0283386
X0062717Y0278189
X0060827Y0276496
X0059409Y0288042
X0063386Y0290000
X0065953Y0296260
X0061890Y0300216
X0060334Y0302668
X0058071Y0301654
X0063976Y0303858
X0064047Y0310197
X0067984
X0071921
X0077324Y0310157
X0077363Y0313109
X0077403Y0316062
X0074449Y0317835
X0073890Y0314134
X0069953
X0066016
X0062079
X0060110Y0310197
X0071921Y0302323
X0076653Y0300866
X0079764Y0301102
X0082520Y0301142
X0084882Y0302795
X0086654Y0307440
Y0310393
Y0313346
X0086694Y0316298
X0074449Y0322835
Y0327835
Y0332874
Y0335394
X0071921Y0333819
X0067984
X0069953Y0337756
X0066016
X0067984Y0341693
X0071921
X0074449Y0340394
Y0345394
X0069953Y0345630
X0066016
X0063779Y0343504
X0058268Y0343695
X0058268Y0328937
X0067984Y0349568
X0071921
X0074449Y0350433
Y0355433
X0071921Y0357441
X0067984
X0064047
X0060110
X0062402Y0359843
X0069685
X0074449Y0360472
X0069953Y0353504
X0066016
X0099480Y0310197
X0103418
X0103248Y0294858
X0100984Y0292717
X0102854Y0285630
X0102559Y0282284
X0097584Y0283732
X0095357Y0285959
X0084303Y0285076
X0082185Y0282973
X0081398Y0277067
X0077559Y0278070
X0072087Y0268937
X0070787Y0266693
X0068583Y0268661
X0065236Y0263347
X0062697Y0261024
X0066024Y0256536
X0068150Y0254370
X0060079Y0247953
X0077126Y0245433
X0079370Y0243189
X0081929Y0241929
X0081142Y0249016
X0079685Y0258977
Y0262244
X0089102Y0257110
X0096062Y0264070
X0097756Y0266063
X0098386Y0270984
X0094331Y0273583
X0090118Y0272008
X0102717Y0266654
X0121848Y0294291
X0121850Y0299291
X0160630Y0328937
X0156567Y0353504
X0152630
X0148693
X0154598Y0357441
X0158536
X0157441Y0359843
X0164764
X0166410Y0357441
X0170347
X0174284
X0176811Y0355433
Y0350433
X0174284Y0349568
X0170347
X0172315Y0353504
X0168378
X0162472Y0357441
X0172047Y0359843
X0176811Y0360472
X0062520Y0223937
X0059882Y0223937
X0067244Y0218425
X0213770Y0220866
X0217717Y0227953
X0218504Y0233169
X0220669Y0243996
X0216634Y0244587
X0220571Y0249114
X0225465Y0255079
X0223496Y0259016
X0221067Y0261231
X0214472Y0271468
X0214665Y0284339
X0216102Y0290984
X0216024Y0294488
X0215768Y0297756
X0224213Y0299291
X0224210Y0294291
X0225465Y0310197
X0221528
X0217591
X0213654
X0215669Y0315512
X0220709
X0223496Y0314134
X0251055
X0254992
X0258929
X0256961Y0310197
X0253024
X0249087
X0248031Y0305748
X0249087Y0302323
X0256006Y0301439
X0258386Y0302559
X0262795Y0301654
X0265059Y0302668
X0266614Y0300216
X0268701Y0303858
X0268772Y0310197
X0272709
X0276646
X0282048Y0310157
X0282087Y0313109
X0282127Y0316062
X0279173Y0317835
X0278614Y0314134
X0274677
X0270740
X0266803
X0264835Y0310197
X0276646Y0302323
X0281378Y0300866
X0284488Y0301102
X0287244Y0301142
X0289606Y0302795
X0291379Y0307440
Y0310393
Y0313346
X0291418Y0316298
X0300198Y0315511
X0302953Y0315512
X0307953
X0310110Y0314134
X0312992Y0315512
X0318032
X0323071
X0325858Y0314134
X0323890Y0310197
X0327827
X0319953
X0316016
X0312079
X0308142
X0304205
X0300198Y0309605
Y0306653
X0299568Y0303464
X0298308Y0300314
X0298878Y0297461
X0299313Y0294895
X0295788Y0297322
X0293505Y0295314
X0291891Y0293385
X0289331Y0293465
X0286299Y0293228
X0282165Y0292795
X0279921Y0290866
X0277992Y0288937
X0272598Y0283386
X0267441Y0278189
X0265551Y0276496
X0257205Y0279606
X0253024Y0278701
X0249087
X0248031Y0283583
X0249087Y0286575
X0253346Y0286851
X0258364Y0285792
X0259882Y0288307
X0264134Y0288042
X0268110Y0290000
X0270677Y0296260
X0258819Y0292677
X0249087Y0294449
X0248031Y0290945
X0249087Y0270827
X0251055Y0266890
X0249087Y0262953
Y0255079
Y0247205
Y0239331
X0248031Y0232126
X0254252Y0231732
X0260827Y0229725
X0260472Y0225055
X0264606Y0223937
X0267244Y0223937
X0271969Y0218425
X0276339Y0226102
X0282677Y0227362
X0282678Y0223752
X0285531Y0223622
X0282677Y0220374
X0290425Y0219646
X0288457Y0215709
X0292394
X0298299Y0219646
X0302236
X0302283Y0216850
X0303543Y0213622
X0306173Y0219646
X0304205Y0223583
X0305906Y0225689
X0304205Y0231457
X0306173Y0235394
X0312079Y0239331
X0318996Y0244587
X0323031Y0243996
X0322933Y0249114
X0327827Y0255079
X0325858Y0259016
X0323429Y0261231
X0314724Y0260276
X0310394Y0258582
X0306890Y0256024
X0308622Y0254055
X0302236Y0251142
X0300268Y0247205
X0296331
X0298299Y0243268
X0294843Y0241181
X0290630Y0240473
X0288583Y0238740
X0290748Y0236772
X0290394Y0231417
X0287894Y0229134
X0296331Y0223583
X0300268
X0316132Y0220866
X0320079Y0227953
X0320866Y0233169
X0350394Y0232126
X0356614Y0231732
X0363189Y0229725
X0362835Y0225055
X0366968Y0223937
X0366414Y0236221
X0362323Y0234960
X0357816Y0244035
X0351449Y0247205
Y0255079
Y0262953
X0353417Y0266890
X0351449Y0270827
Y0278701
X0355386
X0359567Y0279606
X0360726Y0285792
X0362244Y0288307
X0366496Y0288042
X0361181Y0292677
X0360748Y0302559
X0358368Y0301439
X0365157Y0301654
X0367421Y0302668
X0367197Y0310197
X0359323
X0355386
X0351449
X0350394Y0305748
X0351449Y0302323
Y0294449
X0350394Y0290945
X0351449Y0286575
X0350394Y0283583
X0355709Y0286851
X0367913Y0276496
X0361652Y0262383
X0361693Y0259252
X0361516Y0254440
X0358858Y0256221
X0367165Y0247953
X0351449Y0239331
X0350394Y0224685
Y0217244
X0316834Y0271468
X0317027Y0284339
X0318464Y0290984
X0318386Y0294488
X0318130Y0297756
X0312402Y0300787
X0312205Y0305610
X0307972Y0294858
X0305709Y0292717
X0307579Y0285630
X0307283Y0282284
X0302309Y0283732
X0300082Y0285959
X0289027Y0285076
X0286909Y0282973
X0286122Y0277067
X0282283Y0278070
X0276811Y0268937
X0275512Y0266693
X0273307Y0268661
X0269961Y0263347
X0267421Y0261024
X0270748Y0256536
X0272874Y0254370
X0259154Y0254440
X0256496Y0256221
X0259331Y0259252
X0259290Y0262383
X0264803Y0247953
X0268976Y0242992
X0269094Y0239882
X0273189Y0240193
X0277264Y0236221
X0277165Y0233071
X0264052Y0236221
X0259961Y0234960
X0255453Y0244035
X0248031Y0224685
Y0217244
X0281850Y0245433
X0284095Y0243189
X0286653Y0241929
X0285866Y0249016
X0284409Y0258977
Y0262244
X0293826Y0257110
X0300786Y0264070
X0302480Y0266063
X0303110Y0270984
X0299055Y0273583
X0294843Y0272008
X0307441Y0266654
X0326573Y0294291
X0326575Y0299291
X0300198Y0312558
X0279173Y0322835
Y0327835
Y0332874
Y0335394
X0276646Y0333819
X0272709
X0274677Y0337756
X0270740
X0272709Y0341693
X0276646
X0279173Y0340394
Y0345394
X0274677Y0345630
X0270740
X0268504Y0343504
X0262992Y0343695
X0259449Y0345866
X0256693Y0347835
X0254992Y0353504
X0258929
X0256961Y0357441
X0260898
X0259803Y0359843
X0267126
X0268772Y0357441
X0272709
X0276646
X0279173Y0355433
Y0350433
X0276646Y0349568
X0272709
X0274677Y0353504
X0270740
X0264835Y0357441
X0274409Y0359843
X0279173Y0360472
X0251055Y0353504
X0253024Y0341693
X0253150Y0338228
X0255394
X0258661
X0260236Y0335748
Y0333386
X0257874
X0255472
X0253150
Y0335748
X0253024Y0325945
X0251055Y0322008
X0249087Y0318071
X0253024
X0262992Y0328937
X0248031Y0342599
X0350394
X0355386Y0341693
X0355512Y0338228
X0357756
X0361024
X0362598Y0335748
Y0333386
X0360236
X0357835
X0355512
Y0335748
X0355386Y0325945
X0353417Y0322008
X0351449Y0318071
X0355386
X0357354Y0314134
X0361291
X0353417
X0365354Y0328937
X0365354Y0343695
X0361811Y0345866
X0359055Y0347835
X0357354Y0353504
X0361291
X0359323Y0357441
X0363260
X0362165Y0359843
X0367197Y0357441
X0353417Y0353504
X0373102
X0377039
X0375071Y0357441
X0379008
X0381535Y0355433
Y0350433
X0379008Y0349568
X0375071
X0377039Y0345630
X0373102
X0370866Y0343504
X0375071Y0341693
X0379008
X0381535Y0340394
Y0335394
Y0332874
X0379008Y0333819
X0375071
X0377039Y0337756
X0373102
X0381535Y0345394
Y0360472
X0376772Y0359843
X0369488
X0371134Y0357441
X0381535Y0327835
Y0322835
Y0317835
X0380976Y0314134
X0377039
X0373102
X0369165
X0371134Y0310197
X0375071
X0379008
X0384410Y0310157
X0384450Y0313109
X0384489Y0316062
X0393780Y0316298
X0393741Y0313346
Y0310393
Y0307440
X0391968Y0302795
X0389606Y0301142
X0386850Y0301102
X0383740Y0300866
X0379008Y0302323
X0371063Y0303858
X0368976Y0300216
X0373039Y0296260
X0370472Y0290000
X0380354Y0288937
X0382283Y0290866
X0384527Y0292795
X0388661Y0293228
X0391693Y0293465
X0394253Y0293385
X0395867Y0295314
X0398150Y0297322
X0401240Y0297461
X0401675Y0294895
X0400670Y0300314
X0401930Y0303464
X0402560Y0306653
Y0309605
Y0312558
Y0315511
X0405315Y0315512
X0410315
X0412472Y0314134
X0415354Y0315512
X0420394
X0425433
X0428221Y0314134
X0426252Y0310197
X0430189
X0422315
X0418378
X0414441
X0410504
X0406567
X0414567Y0305610
X0414764Y0300787
X0420492Y0297756
X0420748Y0294488
X0420827Y0290984
X0419390Y0284339
X0409941Y0285630
X0409646Y0282284
X0404671Y0283732
X0402444Y0285959
X0391389Y0285076
X0389272Y0282973
X0388484Y0277067
X0384646Y0278070
X0379173Y0268937
X0377874Y0266693
X0375669Y0268661
X0372323Y0263347
X0369783Y0261024
X0373110Y0256536
X0375236Y0254370
X0375551Y0240193
X0371457Y0239882
X0371339Y0242992
X0379626Y0236221
X0379527Y0233071
X0378701Y0226102
X0385039Y0227362
X0385040Y0223752
X0387894Y0223622
X0385039Y0220374
X0392788Y0219646
X0390819Y0215709
X0394756
X0400662Y0219646
X0404599
X0404646Y0216850
X0405905Y0213622
X0408535Y0219646
X0406567Y0223583
X0408268Y0225689
X0406567Y0231457
X0408535Y0235394
X0414441Y0239331
X0421358Y0244587
X0425394Y0243996
X0425295Y0249114
X0430189Y0255079
X0428221Y0259016
X0425791Y0261231
X0417087Y0260276
X0412756Y0258582
X0409252Y0256024
X0410984Y0254055
X0404599Y0251142
X0402630Y0247205
X0398693
X0400662Y0243268
X0397205Y0241181
X0392992Y0240473
X0390945Y0238740
X0393110Y0236772
X0392756Y0231417
X0390256Y0229134
X0398693Y0223583
X0402630
X0418494Y0220866
X0422441Y0227953
X0423228Y0233169
X0452756Y0232126
X0458976Y0231732
X0465551Y0229725
X0465197Y0225055
X0469331Y0223937
X0471968Y0223937
X0476693Y0218425
X0481063Y0226102
X0487401Y0227362
X0487402Y0223752
X0490256Y0223622
X0487401Y0220374
X0495150Y0219646
X0493181Y0215709
X0497118
X0503024Y0219646
X0506961
X0507008Y0216850
X0508268Y0213622
X0510898Y0219646
X0508929Y0223583
X0510630Y0225689
X0508929Y0231457
X0510898Y0235394
X0516803Y0239331
X0523720Y0244587
X0524803Y0227953
X0520856Y0220866
X0504992Y0223583
X0501055
X0495118Y0231417
X0492618Y0229134
X0493307Y0238740
X0495354Y0240473
X0495472Y0236772
X0499567Y0241181
X0503024Y0243268
X0501055Y0247205
X0504992
X0506961Y0251142
X0513346Y0254055
X0511614Y0256024
X0515118Y0258582
X0519449Y0260276
X0521559Y0271468
X0521752Y0284339
X0523189Y0290984
X0523110Y0294488
X0522854Y0297756
X0517126Y0300787
X0516929Y0305610
X0516803Y0310197
X0520740
X0524677
X0522756Y0315512
X0517717
X0514835Y0314134
X0512677Y0315512
X0507677
X0504922Y0315511
Y0312558
Y0309605
Y0306653
X0504292Y0303464
X0503032Y0300314
X0503603Y0297461
X0504038Y0294895
X0500513Y0297322
X0498229Y0295314
X0496615Y0293385
X0494055Y0293465
X0491024Y0293228
X0486890Y0292795
X0484646Y0290866
X0482717Y0288937
X0477323Y0283386
X0472165Y0278189
X0470275Y0276496
X0461929Y0279606
X0457748Y0278701
X0453811
X0452756Y0283583
X0453811Y0286575
X0458071Y0286851
X0463088Y0285792
X0464606Y0288307
X0468858Y0288042
X0472835Y0290000
X0475401Y0296260
X0471339Y0300216
X0469783Y0302668
X0467520Y0301654
X0463110Y0302559
X0460730Y0301439
X0453811Y0302323
X0452756Y0305748
X0453811Y0310197
X0457748
X0461685
X0463654Y0314134
X0459717
X0455780
X0453811Y0318071
X0457748
X0455780Y0322008
X0457748Y0325945
X0457874Y0333386
X0460197
X0462598
X0464961
Y0335748
X0463386Y0338228
X0460118
X0457874
Y0335748
X0457748Y0341693
X0452756Y0342599
X0461417Y0347835
X0464173Y0345866
X0467717Y0343695
X0473228Y0343504
X0475465Y0345630
X0479402
X0483898Y0345394
Y0340394
X0481370Y0341693
X0477433
X0479402Y0337756
X0475465
X0477433Y0333819
X0481370
X0483898Y0332874
Y0335394
Y0327835
Y0322835
Y0317835
X0483339Y0314134
X0479402
X0475465
X0471528
X0469559Y0310197
X0473496
X0477433
X0481370
X0486772Y0310157
X0486812Y0313109
X0486851Y0316062
X0496143Y0316298
X0496103Y0313346
Y0310393
Y0307440
X0494331Y0302795
X0491968Y0301142
X0489213Y0301102
X0486102Y0300866
X0481370Y0302323
X0473425Y0303858
X0463543Y0292677
X0453811Y0294449
X0452756Y0290945
X0453811Y0270827
X0455780Y0266890
X0453811Y0262953
Y0255079
Y0247205
Y0239331
X0460178Y0244035
X0461220Y0256221
X0463878Y0254440
X0464055Y0259252
X0464014Y0262383
X0472146Y0261024
X0474685Y0263347
X0475472Y0256536
X0477598Y0254370
X0469527Y0247953
X0473701Y0242992
X0473819Y0239882
X0477913Y0240193
X0481988Y0236221
X0481890Y0233071
X0468777Y0236221
X0464685Y0234960
X0452756Y0224685
Y0217244
X0486575Y0245433
X0488819Y0243189
X0491378Y0241929
X0490590Y0249016
X0489134Y0258977
Y0262244
X0480236Y0266693
X0481535Y0268937
X0478031Y0268661
X0487008Y0278070
X0490846Y0277067
X0491634Y0282973
X0493752Y0285076
X0504806Y0285959
X0507033Y0283732
X0512008Y0282284
X0512303Y0285630
X0510433Y0292717
X0512697Y0294858
X0512866Y0310197
X0508929
X0507835Y0270984
X0507205Y0266063
X0505510Y0264070
X0512165Y0266654
X0503780Y0273583
X0499567Y0272008
X0498551Y0257110
X0419196Y0271468
X0409803Y0266654
X0404843Y0266063
X0403148Y0264070
X0405472Y0270984
X0401417Y0273583
X0397205Y0272008
X0396188Y0257110
X0386772Y0258977
Y0262244
X0388228Y0249016
X0386457Y0243189
X0389016Y0241929
X0384213Y0245433
X0369606Y0223937
X0374331Y0218425
X0369803Y0278189
X0374961Y0283386
X0408071Y0292717
X0410335Y0294858
X0428935Y0294291
X0428937Y0299291
X0467717Y0328937
X0463654Y0353504
X0459717
X0455780
X0461685Y0357441
X0465622
X0464528Y0359843
X0471850
X0473496Y0357441
X0477433
X0481370
X0483898Y0355433
Y0350433
X0481370Y0349568
X0477433
X0479402Y0353504
X0475465
X0469559Y0357441
X0479134Y0359843
X0483898Y0360472
X0527795Y0315512
X0530583Y0314134
X0528614Y0310197
X0532551
X0531299Y0299291
X0531297Y0294291
X0530583Y0259016
X0528153Y0261231
X0532551Y0255079
X0527657Y0249114
X0527756Y0243996
X0525591Y0233169
T02
X0393837Y0204422
X0496199
X0291475
X0189113
X0086751
T03
X0411732Y0058740
X0470905Y0057874
X0514094Y0058740
X0368543Y0057874
X0309370Y0058740
X0266181Y0057874
X0207008Y0058740
X0163819Y0057874
X0104646Y0058740
X0061457Y0057874
T04
X0020276Y0020394
X0551417Y0019921
X0552520Y0382874
X0020118Y0382323
M30
