M48
;Layer_Color=9474304
;FILE_FORMAT=2:5
INCH
;TYPE=PLATED
T1F00S00C0.01181
T2F00S00C0.04724
T3F00S00C0.11811
%
T01
X0377954Y0396062
X0381891
X0383514Y0401455
X0379588Y0405381
X0374017Y0403936
X0375985Y0399999
X0374017Y0411810
Y0419684
X0375985Y0423621
X0408396Y0421691
X0423986Y0424919
X0423317Y0432240
X0428868Y0440825
X0433549Y0440300
X0440797Y0441534
X0439843Y0448354
X0434419Y0449880
X0430167Y0448935
X0432333Y0465274
X0442914Y0462992
X0440946Y0459055
X0445393Y0468197
X0451939Y0467911
X0452805Y0465234
X0454726Y0462992
Y0447243
X0454951Y0428640
X0454726Y0423621
Y0415747
X0442175Y0418305
X0442096Y0421494
X0438317Y0417596
X0431624Y0412400
X0427844Y0409998
X0431104Y0399999
X0435041
X0433072Y0396062
X0437009
X0440946
X0429135
X0425198
X0421261
X0417324
X0413387
X0409450
X0405513
X0407481Y0399999
X0411418
X0454726
X0444667Y0432112
X0443435Y0434526
X0481499Y0423621
X0479530Y0419684
Y0411810
Y0403936
X0481499Y0399999
X0483467Y0396062
X0487404
X0489027Y0401455
X0485101Y0405381
X0512995Y0399999
X0516932
X0514963Y0396062
X0518900
X0522837
X0526774
X0530711
X0534648
X0538585
X0542522
X0546459
X0540554Y0399999
X0536617
X0537137Y0412400
X0533358Y0409998
X0543830Y0417596
X0547688Y0418305
X0547610Y0421494
X0550180Y0432112
X0548948Y0434526
X0546310Y0441534
X0545356Y0448354
X0539932Y0449880
X0535680Y0448935
X0534381Y0440825
X0539062Y0440300
X0528830Y0432240
X0529499Y0424919
X0513909Y0421691
X0511026Y0396062
X0560239Y0399999
Y0415747
Y0423621
X0560464Y0428640
X0560239Y0447243
Y0462992
X0558318Y0465234
X0557452Y0467911
X0550906Y0468197
X0548428Y0462992
X0546459Y0459055
X0537846Y0465274
X0587012Y0423621
X0585043Y0419684
Y0411810
Y0403936
X0587012Y0399999
X0588980Y0396062
X0592917
X0594540Y0401455
X0590614Y0405381
X0618508Y0399999
X0622445
X0620476Y0396062
X0624413
X0616539
X0619422Y0421691
X0635013Y0424919
X0634343Y0432240
X0639894Y0440825
X0644576Y0440300
X0651824Y0441534
X0650869Y0448354
X0645446Y0449880
X0641194Y0448935
X0643359Y0465274
X0653941Y0462992
X0651972Y0459055
X0656420Y0468197
X0662965Y0467911
X0663832Y0465234
X0665752Y0462992
Y0447243
X0665977Y0428640
X0665752Y0423621
Y0415747
X0653202Y0418305
X0653123Y0421494
X0649343Y0417596
X0642650Y0412400
X0638871Y0409998
X0642130Y0399999
X0646067
X0644098Y0396062
X0648035
X0651972
X0640161
X0636224
X0632287
X0628350
X0665752Y0399999
X0692525
X0690556Y0403936
X0696127Y0405381
X0700053Y0401455
X0698430Y0396062
X0694493
X0690556Y0411810
Y0419684
X0692525Y0423621
X0724935Y0421691
X0740526Y0424919
X0739856Y0432240
X0745408Y0440825
X0750089Y0440300
X0757337Y0441534
X0756382Y0448354
X0750959Y0449880
X0746707Y0448935
X0748872Y0465274
X0759454Y0462992
X0757486Y0459055
X0761933Y0468197
X0768479Y0467911
X0769345Y0465234
X0771265Y0462992
Y0447243
X0771490Y0428640
X0771265Y0423621
Y0415747
X0758715Y0418305
X0758636Y0421494
X0754856Y0417596
X0748164Y0412400
X0744384Y0409998
X0747643Y0399999
X0751580
X0749612Y0396062
X0753549
X0757486
X0745675
X0741738
X0737801
X0733864
X0729927
X0725990
X0722053
X0724021Y0399999
X0727958
X0771265
X0761206Y0432112
X0759975Y0434526
X0654461
X0655693Y0432112
X0660210Y0469053
X0661252Y0476074
X0664889Y0482047
X0665387Y0489088
X0665499Y0497096
X0651641Y0495421
X0647486Y0505500
X0665114Y0513293
X0694598Y0469768
X0765723Y0469053
X0766765Y0476074
X0770402Y0482047
X0770900Y0489088
X0771013Y0497096
X0757154Y0495421
X0752999Y0505500
X0770628Y0513293
X0559601
X0559986Y0497096
X0559873Y0489088
X0559376Y0482047
X0555739Y0476074
X0554696Y0469053
X0546128Y0495421
X0541973Y0505500
X0589085Y0469768
X0483571
X0449183Y0469053
X0450226Y0476074
X0453862Y0482047
X0454360Y0489088
X0454473Y0497096
X0440614Y0495421
X0436459Y0505500
X0454088Y0513293
X0378058Y0469768
T02
X0391860Y0412478
X0497373
X0602887
X0708400
X0751707Y0579762
X0646194
X0540681
X0435167
T03
X0359182Y0368778
X0785245
Y0624684
X0359182
M30
