G04*
G04 #@! TF.GenerationSoftware,Altium Limited,Altium Designer,20.1.14 (287)*
G04*
G04 Layer_Color=128*
%FSAX25Y25*%
%MOIN*%
G70*
G04*
G04 #@! TF.SameCoordinates,1876172F-CBA1-4FB9-98D7-45F53F2F45AF*
G04*
G04*
G04 #@! TF.FilePolarity,Positive*
G04*
G01*
G75*
%ADD14R,0.03543X0.02362*%
%ADD18R,0.01968X0.02362*%
%ADD19R,0.03937X0.03150*%
%ADD20R,0.02362X0.01968*%
%ADD33R,0.07087X0.08661*%
%ADD34R,0.09843X0.07087*%
%ADD35R,0.02362X0.02520*%
%ADD36R,0.02520X0.02362*%
%ADD37R,0.02087X0.04921*%
%ADD38R,0.02362X0.08661*%
%ADD39R,0.02362X0.08661*%
%ADD40R,0.05709X0.01181*%
%ADD41R,0.01968X0.01575*%
%ADD42R,0.01181X0.01575*%
%ADD43R,0.07874X0.05906*%
D14*
X0374144Y0434132D02*
D03*
Y0428227D02*
D03*
Y0445943D02*
D03*
Y0440037D02*
D03*
Y0457951D02*
D03*
Y0452045D02*
D03*
Y0469762D02*
D03*
Y0463856D02*
D03*
X0479657Y0434132D02*
D03*
Y0428227D02*
D03*
Y0445943D02*
D03*
Y0440037D02*
D03*
Y0457951D02*
D03*
Y0452045D02*
D03*
Y0469762D02*
D03*
Y0463856D02*
D03*
X0585170Y0434132D02*
D03*
Y0428227D02*
D03*
Y0445943D02*
D03*
Y0440037D02*
D03*
Y0457951D02*
D03*
Y0452045D02*
D03*
Y0469762D02*
D03*
Y0463856D02*
D03*
X0690683Y0434132D02*
D03*
Y0428227D02*
D03*
Y0445943D02*
D03*
Y0440037D02*
D03*
Y0457951D02*
D03*
Y0452045D02*
D03*
Y0469762D02*
D03*
Y0463856D02*
D03*
D18*
X0440010Y0475589D02*
D03*
X0443947D02*
D03*
X0438277Y0507085D02*
D03*
X0442214D02*
D03*
X0438317Y0516022D02*
D03*
X0442254D02*
D03*
X0438277Y0498187D02*
D03*
X0442214D02*
D03*
X0412293Y0417045D02*
D03*
X0408356D02*
D03*
X0389695Y0436494D02*
D03*
X0385758D02*
D03*
X0389695Y0432203D02*
D03*
X0385758D02*
D03*
X0383593Y0425864D02*
D03*
X0379656D02*
D03*
X0413632Y0404486D02*
D03*
X0417569D02*
D03*
X0431506Y0443699D02*
D03*
X0435443D02*
D03*
X0427569D02*
D03*
X0423632D02*
D03*
X0423317Y0434880D02*
D03*
X0427254D02*
D03*
X0427254Y0439250D02*
D03*
X0423317D02*
D03*
X0450758Y0408345D02*
D03*
X0446821D02*
D03*
X0450010Y0396963D02*
D03*
X0446073D02*
D03*
X0423671Y0400156D02*
D03*
X0427608D02*
D03*
X0545523Y0475589D02*
D03*
X0549460D02*
D03*
X0543791Y0507085D02*
D03*
X0547728D02*
D03*
X0543830Y0516022D02*
D03*
X0547767D02*
D03*
X0543791Y0498187D02*
D03*
X0547728D02*
D03*
X0517806Y0417045D02*
D03*
X0513869D02*
D03*
X0495208Y0436494D02*
D03*
X0491271D02*
D03*
X0495208Y0432203D02*
D03*
X0491271D02*
D03*
X0489106Y0425864D02*
D03*
X0485169D02*
D03*
X0519145Y0404486D02*
D03*
X0523082D02*
D03*
X0537019Y0443699D02*
D03*
X0540956D02*
D03*
X0533082D02*
D03*
X0529145D02*
D03*
X0528830Y0434880D02*
D03*
X0532767D02*
D03*
X0532767Y0439250D02*
D03*
X0528830D02*
D03*
X0556271Y0408345D02*
D03*
X0552334D02*
D03*
X0555523Y0396963D02*
D03*
X0551586D02*
D03*
X0529184Y0400156D02*
D03*
X0533121D02*
D03*
X0651036Y0475589D02*
D03*
X0654973D02*
D03*
X0649304Y0507085D02*
D03*
X0653241D02*
D03*
X0649343Y0516022D02*
D03*
X0653280D02*
D03*
X0649304Y0498187D02*
D03*
X0653241D02*
D03*
X0623320Y0417045D02*
D03*
X0619383D02*
D03*
X0600721Y0436494D02*
D03*
X0596784D02*
D03*
X0600721Y0432203D02*
D03*
X0596784D02*
D03*
X0594619Y0425864D02*
D03*
X0590682D02*
D03*
X0624658Y0404486D02*
D03*
X0628595D02*
D03*
X0642532Y0443699D02*
D03*
X0646469D02*
D03*
X0638595D02*
D03*
X0634658D02*
D03*
X0634343Y0434880D02*
D03*
X0638280D02*
D03*
X0638280Y0439250D02*
D03*
X0634343D02*
D03*
X0661784Y0408345D02*
D03*
X0657847D02*
D03*
X0661036Y0396963D02*
D03*
X0657099D02*
D03*
X0634698Y0400156D02*
D03*
X0638635D02*
D03*
X0756550Y0475589D02*
D03*
X0760487D02*
D03*
X0754817Y0507085D02*
D03*
X0758754D02*
D03*
X0754856Y0516022D02*
D03*
X0758793D02*
D03*
X0754817Y0498187D02*
D03*
X0758754D02*
D03*
X0728833Y0417045D02*
D03*
X0724896D02*
D03*
X0706235Y0436494D02*
D03*
X0702297D02*
D03*
X0706235Y0432203D02*
D03*
X0702297D02*
D03*
X0700132Y0425864D02*
D03*
X0696195D02*
D03*
X0730171Y0404486D02*
D03*
X0734108D02*
D03*
X0748045Y0443699D02*
D03*
X0751982D02*
D03*
X0744108D02*
D03*
X0740171D02*
D03*
X0739856Y0434880D02*
D03*
X0743794D02*
D03*
X0743793Y0439250D02*
D03*
X0739856D02*
D03*
X0767298Y0408345D02*
D03*
X0763361D02*
D03*
X0766549Y0396963D02*
D03*
X0762612D02*
D03*
X0740211Y0400156D02*
D03*
X0744148D02*
D03*
D19*
X0413238Y0442911D02*
D03*
X0403789Y0446652D02*
D03*
Y0439171D02*
D03*
X0432372Y0408778D02*
D03*
X0422923Y0412518D02*
D03*
Y0405037D02*
D03*
X0518751Y0442911D02*
D03*
X0509303Y0446652D02*
D03*
Y0439171D02*
D03*
X0537885Y0408778D02*
D03*
X0528436Y0412518D02*
D03*
Y0405037D02*
D03*
X0624265Y0442911D02*
D03*
X0614816Y0446652D02*
D03*
Y0439171D02*
D03*
X0643398Y0408778D02*
D03*
X0633950Y0412518D02*
D03*
Y0405037D02*
D03*
X0729778Y0442911D02*
D03*
X0720329Y0446652D02*
D03*
Y0439171D02*
D03*
X0748912Y0408778D02*
D03*
X0739463Y0412518D02*
D03*
Y0405037D02*
D03*
D20*
X0393907Y0444801D02*
D03*
Y0440864D02*
D03*
X0434144Y0502597D02*
D03*
Y0498660D02*
D03*
Y0511534D02*
D03*
Y0515471D02*
D03*
X0454970Y0407990D02*
D03*
Y0404053D02*
D03*
X0397884Y0430825D02*
D03*
Y0434762D02*
D03*
X0398317Y0440864D02*
D03*
Y0444801D02*
D03*
X0408238Y0412557D02*
D03*
Y0408620D02*
D03*
X0417372Y0412636D02*
D03*
Y0408699D02*
D03*
X0499421Y0444801D02*
D03*
Y0440864D02*
D03*
X0539657Y0502597D02*
D03*
Y0498660D02*
D03*
Y0511534D02*
D03*
Y0515471D02*
D03*
X0560484Y0407990D02*
D03*
Y0404053D02*
D03*
X0503397Y0430825D02*
D03*
Y0434762D02*
D03*
X0503830Y0440864D02*
D03*
Y0444801D02*
D03*
X0513751Y0412557D02*
D03*
Y0408620D02*
D03*
X0522885Y0412636D02*
D03*
Y0408699D02*
D03*
X0604934Y0444801D02*
D03*
Y0440864D02*
D03*
X0645170Y0502597D02*
D03*
Y0498660D02*
D03*
Y0511534D02*
D03*
Y0515471D02*
D03*
X0665997Y0407990D02*
D03*
Y0404053D02*
D03*
X0608910Y0430825D02*
D03*
Y0434762D02*
D03*
X0609343Y0440864D02*
D03*
Y0444801D02*
D03*
X0619265Y0412557D02*
D03*
Y0408620D02*
D03*
X0628398Y0412636D02*
D03*
Y0408699D02*
D03*
X0710447Y0444801D02*
D03*
Y0440864D02*
D03*
X0750683Y0502597D02*
D03*
Y0498660D02*
D03*
Y0511534D02*
D03*
Y0515471D02*
D03*
X0771510Y0407990D02*
D03*
Y0404053D02*
D03*
X0714424Y0430825D02*
D03*
Y0434762D02*
D03*
X0714856Y0440864D02*
D03*
Y0444801D02*
D03*
X0724778Y0412557D02*
D03*
Y0408620D02*
D03*
X0733912Y0412636D02*
D03*
Y0408699D02*
D03*
D33*
X0435625Y0434255D02*
D03*
X0541138D02*
D03*
X0646652D02*
D03*
X0752165D02*
D03*
D34*
X0424061Y0415265D02*
D03*
X0529574D02*
D03*
X0635088D02*
D03*
X0740601D02*
D03*
D35*
X0419537Y0400156D02*
D03*
X0415758D02*
D03*
X0408002Y0425785D02*
D03*
X0411782D02*
D03*
X0438435Y0502636D02*
D03*
X0442214D02*
D03*
X0438474Y0511534D02*
D03*
X0442254D02*
D03*
X0389655Y0440904D02*
D03*
X0385876D02*
D03*
X0525051Y0400156D02*
D03*
X0521271D02*
D03*
X0513515Y0425785D02*
D03*
X0517295D02*
D03*
X0543948Y0502636D02*
D03*
X0547728D02*
D03*
X0543988Y0511534D02*
D03*
X0547767D02*
D03*
X0495169Y0440904D02*
D03*
X0491389D02*
D03*
X0630564Y0400156D02*
D03*
X0626784D02*
D03*
X0619028Y0425785D02*
D03*
X0622808D02*
D03*
X0649461Y0502636D02*
D03*
X0653241D02*
D03*
X0649501Y0511534D02*
D03*
X0653280D02*
D03*
X0600682Y0440904D02*
D03*
X0596902D02*
D03*
X0736077Y0400156D02*
D03*
X0732298D02*
D03*
X0724542Y0425785D02*
D03*
X0728321D02*
D03*
X0754975Y0502636D02*
D03*
X0758754D02*
D03*
X0755014Y0511534D02*
D03*
X0758794D02*
D03*
X0706195Y0440904D02*
D03*
X0702416D02*
D03*
D36*
X0407963Y0430077D02*
D03*
Y0433856D02*
D03*
X0402923Y0430077D02*
D03*
Y0433856D02*
D03*
X0380049Y0430274D02*
D03*
Y0434053D02*
D03*
X0412923Y0408660D02*
D03*
Y0412439D02*
D03*
X0441703Y0414290D02*
D03*
Y0410510D02*
D03*
X0437175Y0414290D02*
D03*
Y0410510D02*
D03*
X0414813Y0433384D02*
D03*
Y0437163D02*
D03*
X0513476Y0430077D02*
D03*
Y0433856D02*
D03*
X0508436Y0430077D02*
D03*
Y0433856D02*
D03*
X0485562Y0430274D02*
D03*
Y0434053D02*
D03*
X0518436Y0408660D02*
D03*
Y0412439D02*
D03*
X0547216Y0414290D02*
D03*
Y0410510D02*
D03*
X0542688Y0414290D02*
D03*
Y0410510D02*
D03*
X0520326Y0433384D02*
D03*
Y0437163D02*
D03*
X0618989Y0430077D02*
D03*
Y0433856D02*
D03*
X0613950Y0430077D02*
D03*
Y0433856D02*
D03*
X0591076Y0430274D02*
D03*
Y0434053D02*
D03*
X0623950Y0408660D02*
D03*
Y0412439D02*
D03*
X0652729Y0414290D02*
D03*
Y0410510D02*
D03*
X0648202Y0414290D02*
D03*
Y0410510D02*
D03*
X0625839Y0433384D02*
D03*
Y0437163D02*
D03*
X0724502Y0430077D02*
D03*
Y0433856D02*
D03*
X0719463Y0430077D02*
D03*
Y0433856D02*
D03*
X0696589Y0430274D02*
D03*
Y0434053D02*
D03*
X0729463Y0408660D02*
D03*
Y0412439D02*
D03*
X0758242Y0414290D02*
D03*
Y0410510D02*
D03*
X0753715Y0414290D02*
D03*
Y0410510D02*
D03*
X0731353Y0433384D02*
D03*
Y0437163D02*
D03*
D37*
X0442529Y0483010D02*
D03*
Y0491474D02*
D03*
X0548043Y0483010D02*
D03*
Y0491474D02*
D03*
X0653556Y0483010D02*
D03*
Y0491474D02*
D03*
X0759069Y0483010D02*
D03*
Y0491474D02*
D03*
D38*
X0397903Y0401455D02*
D03*
X0392903D02*
D03*
X0387903D02*
D03*
X0402904Y0421927D02*
D03*
X0397903D02*
D03*
X0392903D02*
D03*
X0387903D02*
D03*
X0503417Y0401455D02*
D03*
X0498417D02*
D03*
X0493417D02*
D03*
X0508417Y0421927D02*
D03*
X0503417D02*
D03*
X0498417D02*
D03*
X0493417D02*
D03*
X0608930Y0401455D02*
D03*
X0603930D02*
D03*
X0598930D02*
D03*
X0613930Y0421927D02*
D03*
X0608930D02*
D03*
X0603930D02*
D03*
X0598930D02*
D03*
X0714443Y0401455D02*
D03*
X0709443D02*
D03*
X0704443D02*
D03*
X0719443Y0421927D02*
D03*
X0714443D02*
D03*
X0709443D02*
D03*
X0704443D02*
D03*
D39*
X0402904Y0401455D02*
D03*
X0508417D02*
D03*
X0613930D02*
D03*
X0719443D02*
D03*
D40*
X0419301Y0420352D02*
D03*
Y0422321D02*
D03*
Y0424290D02*
D03*
Y0426258D02*
D03*
Y0428227D02*
D03*
X0436624D02*
D03*
Y0426258D02*
D03*
Y0424290D02*
D03*
Y0422321D02*
D03*
Y0420352D02*
D03*
X0524814D02*
D03*
Y0422321D02*
D03*
Y0424290D02*
D03*
Y0426258D02*
D03*
Y0428227D02*
D03*
X0542137D02*
D03*
Y0426258D02*
D03*
Y0424290D02*
D03*
Y0422321D02*
D03*
Y0420352D02*
D03*
X0630328D02*
D03*
Y0422321D02*
D03*
Y0424290D02*
D03*
Y0426258D02*
D03*
Y0428227D02*
D03*
X0647650D02*
D03*
Y0426258D02*
D03*
Y0424290D02*
D03*
Y0422321D02*
D03*
Y0420352D02*
D03*
X0735841D02*
D03*
Y0422321D02*
D03*
Y0424290D02*
D03*
Y0426258D02*
D03*
Y0428227D02*
D03*
X0753164D02*
D03*
Y0426258D02*
D03*
Y0424290D02*
D03*
Y0422321D02*
D03*
Y0420352D02*
D03*
D41*
X0450837Y0404408D02*
D03*
X0446270D02*
D03*
X0450837Y0400471D02*
D03*
X0446270D02*
D03*
X0556350Y0404408D02*
D03*
X0551783D02*
D03*
X0556350Y0400471D02*
D03*
X0551783D02*
D03*
X0661863Y0404408D02*
D03*
X0657296D02*
D03*
X0661863Y0400471D02*
D03*
X0657296D02*
D03*
X0767376Y0404408D02*
D03*
X0762809D02*
D03*
X0767376Y0400471D02*
D03*
X0762809D02*
D03*
D42*
X0448553Y0404408D02*
D03*
Y0400471D02*
D03*
X0554066Y0404408D02*
D03*
Y0400471D02*
D03*
X0659580Y0404408D02*
D03*
Y0400471D02*
D03*
X0765093Y0404408D02*
D03*
Y0400471D02*
D03*
D43*
X0451309Y0475589D02*
D03*
Y0499211D02*
D03*
Y0514959D02*
D03*
Y0507085D02*
D03*
Y0491337D02*
D03*
Y0483463D02*
D03*
X0556822Y0475589D02*
D03*
Y0499211D02*
D03*
Y0514959D02*
D03*
Y0507085D02*
D03*
Y0491337D02*
D03*
Y0483463D02*
D03*
X0662335Y0475589D02*
D03*
Y0499211D02*
D03*
Y0514959D02*
D03*
Y0507085D02*
D03*
Y0491337D02*
D03*
Y0483463D02*
D03*
X0767849Y0475589D02*
D03*
Y0499211D02*
D03*
Y0514959D02*
D03*
Y0507085D02*
D03*
Y0491337D02*
D03*
Y0483463D02*
D03*
M02*
