M48
;Layer_Color=9474304
;FILE_FORMAT=2:5
INCH
;TYPE=PLATED
T1F00S00C0.01181
T2F00S00C0.04331
T3F00S00C0.04724
T4F00S00C0.11811
;TYPE=NON_PLATED
T5F00S00C0.03917
%
T01
X0142394Y0145039
X0147315
X0171921
X0176842
X0181764
X0186685
X0184224Y0149961
X0179303
X0174382
X0176842Y0154882
X0225858Y0145039
X0230780
X0255386
X0260307
X0265228
X0270150
X0267689Y0149961
X0262768
X0257846
X0260307Y0154882
X0309323Y0145039
X0314244
X0338850
X0343772
X0348693
X0353614
X0351153Y0149961
X0346232
X0341311
X0343772Y0154882
X0392787Y0145039
X0397709
X0422315
X0427236
X0432158
X0437079
X0434618Y0149961
X0429697
X0424776
X0427236Y0154882
X0476252Y0145039
X0481173
X0505780
X0510701
X0515622
X0520543
X0518083Y0149961
X0513161
X0508240
X0510701Y0154882
X0513161Y0159803
X0510701Y0164725
X0513161Y0169646
X0510120Y0184224
X0506183
Y0188161
X0510120
X0513161Y0189331
X0503319
X0503427Y0191969
X0497402Y0195158
Y0197480
X0494803
X0494725Y0195197
X0493476Y0189331
X0487598Y0188662
X0487618Y0198740
X0491016Y0204095
X0486095Y0213937
X0483634Y0218858
X0490709Y0219528
X0488819Y0221457
X0494488Y0221850
X0493071Y0217795
X0499646Y0213617
X0499724Y0222559
X0498760Y0232146
X0502240Y0234866
X0508032Y0235197
X0511024Y0235236
X0508071Y0231417
X0510701Y0243465
X0515622
X0520543
X0523004Y0238543
X0518083
X0525236Y0246732
X0525465Y0253307
X0528228Y0252126
X0530945Y0252047
X0533740Y0252087
X0536654Y0252008
X0532846Y0258228
X0527925
X0525591Y0259646
X0523740Y0257559
X0521063Y0256339
X0517913Y0255984
X0515276Y0256614
X0513161Y0258228
X0511850Y0260394
X0511260Y0262717
X0511417Y0265236
X0512323Y0267717
X0513858Y0269882
X0514907Y0272549
Y0275518
Y0278486
X0515011Y0281453
X0514907Y0284946
Y0287915
X0513376Y0290458
X0510407
X0507439Y0290497
X0504376
X0501408Y0290458
X0498439Y0290497
X0500157Y0284645
X0497992Y0280787
Y0276299
Y0271811
X0503465Y0271614
X0503319Y0268071
X0502677Y0261536
X0494016Y0259016
X0491508Y0259243
X0474921Y0257244
Y0262638
Y0268032
Y0273425
Y0278819
Y0284213
Y0289606
Y0295000
X0469067Y0297599
Y0307441
Y0287756
Y0277913
Y0268071
Y0258228
Y0248386
X0474921Y0246457
Y0251850
Y0241063
Y0235630
Y0230157
Y0224764
Y0219370
Y0213976
Y0208583
Y0203189
Y0197795
Y0192402
Y0187008
Y0181614
Y0176221
Y0170787
X0478713Y0169646
X0481173Y0174567
X0469067Y0218858
Y0228701
Y0238543
X0481969Y0234803
X0490158Y0230866
X0488583Y0240945
X0495669Y0240433
X0502520Y0249843
X0520543Y0253307
X0526772Y0262559
X0526811Y0265433
X0527925Y0268071
X0525472Y0268858
X0532846Y0268071
X0535307Y0272992
X0530386
X0532846Y0277913
X0527925
X0522929Y0280298
Y0284137
X0525465Y0282835
X0530386
X0535307
X0532846Y0287756
X0527925
X0530386Y0292677
X0535307
X0532846Y0297599
X0527925
X0523004
X0521210Y0295678
X0522503Y0293005
X0525465Y0292677
X0519127Y0297793
X0516496Y0299167
X0505893Y0299270
X0502950Y0299661
X0498898Y0300630
X0498780Y0304291
X0498661Y0307559
X0495937Y0302520
X0509213Y0305157
X0525315Y0309409
X0550071Y0312362
X0552531Y0307441
X0550071Y0302520
X0547301Y0302087
X0547610Y0297599
X0552531
X0550071Y0292677
X0552531Y0287756
X0547610
X0550071Y0282835
X0552531Y0277913
X0547610
X0550071Y0272992
X0552531Y0268071
X0547610
X0550071Y0263150
X0552531Y0258228
X0547610
X0550071Y0253307
X0552531Y0248386
X0547610
X0550071Y0243465
X0552531Y0238543
X0547610
X0550071Y0233622
X0552531Y0228701
X0550071Y0223780
X0545150
X0535305Y0224055
Y0226378
X0532706
X0532627Y0224095
X0534134Y0236850
X0535307Y0263150
X0530386
X0510701Y0272992
X0503504Y0275354
X0510701Y0282835
X0482008Y0282913
X0486459Y0312155
X0511220Y0215453
Y0212894
X0527953Y0213779
X0527150Y0195484
X0532846Y0199173
X0537768
X0535307Y0194252
X0542480Y0202165
X0552531Y0218858
X0550787Y0174449
X0548228Y0174252
X0526653Y0185803
X0467323Y0174449
X0464764Y0174252
X0451842Y0194252
X0454303Y0199173
X0449382
X0443686Y0195484
X0443189Y0185803
X0429697Y0189331
X0426655Y0188161
X0422718
Y0184224
X0426655
X0419854Y0189331
X0419962Y0191969
X0413937Y0195158
Y0197480
X0411339
X0411260Y0195197
X0410012Y0189331
X0404134Y0188662
X0404154Y0198740
X0407551Y0204095
X0402630Y0213937
X0400169Y0218858
X0407244Y0219528
X0405354Y0221457
X0411024Y0221850
X0409606Y0217795
X0416181Y0213617
X0416260Y0222559
X0415295Y0232146
X0418776Y0234866
X0424567Y0235197
X0427559Y0235236
X0424606Y0231417
X0427236Y0243465
X0432158
X0437079
X0439539Y0238543
X0434618
X0441772Y0246732
X0442000Y0253307
X0444764Y0252126
X0447480Y0252047
X0450276Y0252087
X0453189Y0252008
X0449382Y0258228
X0444461
X0442126Y0259646
X0440276Y0257559
X0437598Y0256339
X0434449Y0255984
X0431811Y0256614
X0429697Y0258228
X0428386Y0260394
X0427795Y0262717
X0427953Y0265236
X0428858Y0267717
X0430394Y0269882
X0431442Y0272549
Y0275518
Y0278486
X0431547Y0281453
X0431442Y0284946
Y0287915
X0429911Y0290458
X0426943
X0423974Y0290497
X0420911
X0417943Y0290458
X0414975Y0290497
X0416693Y0284645
X0414528Y0280787
Y0276299
Y0271811
X0420000Y0271614
X0419854Y0268071
X0419213Y0261536
X0410551Y0259016
X0408043Y0259243
X0391457Y0257244
Y0262638
Y0268032
Y0273425
Y0278819
Y0284213
Y0289606
Y0295000
X0385602Y0297599
X0380681
X0380372Y0302087
X0383142Y0302520
X0385602Y0307441
X0383142Y0312362
Y0292677
X0385602Y0287756
X0380681
X0383142Y0282835
X0385602Y0277913
X0380681
X0383142Y0272992
X0385602Y0268071
X0380681
X0383142Y0263150
X0385602Y0258228
X0380681
X0383142Y0253307
X0385602Y0248386
X0380681
X0383142Y0243465
X0385602Y0238543
X0380681
X0383142Y0233622
X0385602Y0228701
X0391457Y0230157
Y0224764
Y0219370
Y0213976
Y0208583
Y0203189
Y0197795
Y0192402
Y0187008
Y0181614
Y0176221
Y0170787
X0395248Y0169646
X0397709Y0174567
X0383858Y0174449
X0381299Y0174252
X0368378Y0194252
X0370839Y0199173
X0365917
X0360221Y0195484
X0359724Y0185803
X0346232Y0189331
X0343191Y0188161
X0339254
Y0184224
X0343191
X0336390Y0189331
X0336498Y0191969
X0330472Y0195158
Y0197480
X0327874
X0327795Y0195197
X0326547Y0189331
X0320669Y0188662
X0320689Y0198740
X0324087Y0204095
X0319165Y0213937
X0316705Y0218858
X0323780Y0219528
X0321890Y0221457
X0327559Y0221850
X0326142Y0217795
X0332717Y0213617
X0332795Y0222559
X0331831Y0232146
X0335311Y0234866
X0341102Y0235197
X0344094Y0235236
X0341142Y0231417
X0343772Y0243465
X0348693
X0353614
X0356075Y0238543
X0351153
X0358307Y0246732
X0358535Y0253307
X0361299Y0252126
X0364016Y0252047
X0366811Y0252087
X0369724Y0252008
X0365917Y0258228
X0360996
X0358661Y0259646
X0356811Y0257559
X0354134Y0256339
X0350984Y0255984
X0348346Y0256614
X0346232Y0258228
X0344921Y0260394
X0344331Y0262717
X0344488Y0265236
X0345394Y0267717
X0346929Y0269882
X0347978Y0272549
Y0275518
Y0278486
X0348082Y0281453
X0347978Y0284946
Y0287915
X0346447Y0290458
X0343478
X0340510Y0290497
X0337447
X0334478Y0290458
X0331510Y0290497
X0333228Y0284645
X0331063Y0280787
Y0276299
Y0271811
X0336535Y0271614
X0336390Y0268071
X0335748Y0261536
X0327087Y0259016
X0324579Y0259243
X0335591Y0249843
X0328740Y0240433
X0321654Y0240945
X0323228Y0230866
X0315039Y0234803
X0315079Y0282913
X0343772Y0282835
Y0272992
X0336575Y0275354
X0355999Y0280298
Y0284137
X0358535Y0282835
X0363457
X0368378
X0365917Y0287756
X0360996
X0363457Y0292677
X0368378
X0365917Y0297599
X0360996
X0356075
X0354281Y0295678
X0355573Y0293005
X0358535Y0292677
X0352198Y0297793
X0349567Y0299167
X0338963Y0299270
X0336021Y0299661
X0331968Y0300630
X0331850Y0304291
X0331732Y0307559
X0329008Y0302520
X0342284Y0305157
X0358386Y0309409
X0360996Y0277913
X0365917
X0368378Y0272992
X0363457
X0365917Y0268071
X0360996
X0358543Y0268858
X0359882Y0265433
X0359842Y0262559
X0363457Y0263150
X0368378
X0353614Y0253307
X0367205Y0236850
X0368376Y0226378
Y0224055
X0365698Y0224095
X0365777Y0226378
X0378221Y0223780
X0383142
X0385602Y0218858
X0391457Y0235630
Y0241063
Y0246457
Y0251850
X0398504Y0234803
X0406693Y0230866
X0405118Y0240945
X0412205Y0240433
X0419055Y0249843
X0437079Y0253307
X0443307Y0262559
X0443347Y0265433
X0444461Y0268071
X0442008Y0268858
X0449382Y0268071
X0451842Y0272992
X0446921
X0449382Y0277913
X0444461
X0439464Y0280298
Y0284137
X0442000Y0282835
X0446921
X0451842
X0449382Y0287756
X0444461
X0446921Y0292677
X0451842
X0449382Y0297599
X0444461
X0439539
X0437745Y0295678
X0439038Y0293005
X0442000Y0292677
X0435662Y0297793
X0433031Y0299167
X0422428Y0299270
X0419485Y0299661
X0415433Y0300630
X0415315Y0304291
X0415197Y0307559
X0412472Y0302520
X0425748Y0305157
X0441850Y0309409
X0466606Y0312362
Y0302520
X0463836Y0302087
X0464146Y0297599
X0466606Y0292677
X0464146Y0287756
X0466606Y0282835
X0464146Y0277913
X0466606Y0272992
X0464146Y0268071
X0466606Y0263150
X0464146Y0258228
X0466606Y0253307
X0464146Y0248386
X0466606Y0243465
X0464146Y0238543
X0466606Y0233622
Y0223780
X0461685
X0451840Y0224055
Y0226378
X0449242
X0449163Y0224095
X0450669Y0236850
X0451842Y0263150
X0446921
X0427236Y0272992
X0420039Y0275354
X0427236Y0282835
X0398543Y0282913
X0402995Y0312155
X0319530
X0344291Y0215453
Y0212894
X0361024Y0213779
X0375551Y0202165
X0346232Y0169646
X0343772Y0164725
X0346232Y0159803
X0314244Y0174567
X0429697Y0169646
X0427236Y0164725
X0429697Y0159803
X0427756Y0212894
Y0215453
X0444488Y0213779
X0459016Y0202165
X0307992Y0203189
Y0208583
Y0213976
Y0219370
Y0224764
Y0230157
Y0235630
Y0241063
Y0246457
Y0251850
Y0257244
Y0262638
Y0268032
Y0273425
Y0278819
Y0284213
Y0289606
Y0295000
X0302138Y0297599
X0297217
X0296907Y0302087
X0299677Y0302520
X0302138Y0307441
X0299677Y0312362
Y0292677
X0302138Y0287756
X0297217
X0299677Y0282835
X0302138Y0277913
X0297217
X0299677Y0272992
X0302138Y0268071
X0297217
X0299677Y0263150
X0302138Y0258228
X0297217
X0299677Y0253307
X0302138Y0248386
X0297217
X0299677Y0243465
X0302138Y0238543
X0297217
X0299677Y0233622
X0302138Y0228701
X0299677Y0223780
X0294756
X0284911Y0224055
Y0226378
X0282313
X0282234Y0224095
X0283740Y0236850
X0272610Y0238543
X0267689
X0270150Y0243465
X0265228
X0260307
X0260630Y0235236
X0257638Y0235197
X0257677Y0231417
X0251846Y0234866
X0248366Y0232146
X0239764Y0230866
X0238425Y0221457
X0240315Y0219528
X0242677Y0217795
X0244094Y0221850
X0249331Y0222559
X0249252Y0213617
X0260827Y0212894
Y0215453
X0277559Y0213779
X0276757Y0195484
X0282453Y0199173
X0287374
X0284913Y0194252
X0292087Y0202165
X0307992Y0197795
Y0192402
Y0187008
Y0181614
Y0176221
Y0170787
X0311784Y0169646
X0300394Y0174449
X0297835Y0174252
X0276260Y0185803
X0262768Y0189331
X0259726Y0188161
X0255789
Y0184224
X0259726
X0252925Y0189331
X0253033Y0191969
X0247008Y0195158
Y0197480
X0244409
X0244331Y0195197
X0243083Y0189331
X0237205Y0188662
X0237224Y0198740
X0240622Y0204095
X0235701Y0213937
X0233240Y0218858
X0224528Y0219370
Y0224764
Y0230157
Y0235630
Y0241063
Y0246457
Y0251850
Y0257244
Y0262638
Y0268032
Y0273425
Y0278819
Y0284213
Y0289606
Y0295000
X0218673Y0297599
X0213752
X0213442Y0302087
X0216213Y0302520
X0218673Y0307441
X0216213Y0312362
Y0292677
X0218673Y0287756
X0213752
X0216213Y0282835
X0218673Y0277913
X0213752
X0216213Y0272992
X0218673Y0268071
X0213752
X0216213Y0263150
X0218673Y0258228
X0213752
X0216213Y0253307
X0218673Y0248386
X0213752
X0216213Y0243465
X0218673Y0238543
X0213752
X0216213Y0233622
X0218673Y0228701
X0216213Y0223780
X0211291
X0201446Y0224055
Y0226378
X0198848
X0198769Y0224095
X0200276Y0236850
X0189146Y0238543
X0184224
X0186685Y0243465
X0181764
X0176842
X0177165Y0235236
X0174173Y0235197
X0174213Y0231417
X0168382Y0234866
X0164901Y0232146
X0156299Y0230866
X0156850Y0219528
X0159213Y0217795
X0160630Y0221850
X0165866Y0222559
X0165787Y0213617
X0177362Y0212894
Y0215453
X0194095Y0213779
X0193292Y0195484
X0198988Y0199173
X0203909
X0201449Y0194252
X0208622Y0202165
X0224528Y0203189
Y0208583
Y0213976
X0218673Y0218858
X0224528Y0197795
Y0192402
Y0187008
Y0181614
Y0176221
Y0170787
X0228319Y0169646
X0230780Y0174567
X0216929Y0174449
X0214370Y0174252
X0192795Y0185803
X0179303Y0189331
X0176261Y0188161
X0172325
Y0184224
X0176261
X0169461Y0189331
X0169569Y0191969
X0163543Y0195158
Y0197480
X0160945
X0160866Y0195197
X0159618Y0189331
X0157158Y0204095
X0161811Y0240433
X0168661Y0249843
X0168819Y0261536
X0169461Y0268071
X0169606Y0271614
X0169646Y0275354
X0164134Y0276299
Y0271811
Y0280787
X0166299Y0284645
X0167549Y0290458
X0164581Y0290497
X0170518
X0173581
X0176549Y0290458
X0179517
X0181049Y0287915
Y0284946
X0181153Y0281453
X0181049Y0278486
Y0275518
Y0272549
X0180000Y0269882
X0178465Y0267717
X0177559Y0265236
X0177402Y0262717
X0177992Y0260394
X0179303Y0258228
X0181417Y0256614
X0184055Y0255984
X0187205Y0256339
X0186685Y0253307
X0191606
X0194370Y0252126
X0197087Y0252047
X0199882Y0252087
X0202795Y0252008
X0198988Y0258228
X0194067
X0191732Y0259646
X0189882Y0257559
X0192913Y0262559
X0192953Y0265433
X0194067Y0268071
X0191614Y0268858
X0198988Y0268071
X0201449Y0272992
X0196528
X0198988Y0277913
X0194067
X0189070Y0280298
Y0284137
X0191606Y0282835
X0196528
X0201449
X0198988Y0287756
X0194067
X0196528Y0292677
X0201449
X0198988Y0297599
X0194067
X0189146
X0187351Y0295678
X0188644Y0293005
X0191606Y0292677
X0185269Y0297793
X0182638Y0299167
X0172034Y0299270
X0169091Y0299661
X0165039Y0300630
X0164921Y0304291
X0164803Y0307559
X0162079Y0302520
X0175354Y0305157
X0191457Y0309409
X0176842Y0282835
Y0272992
X0196528Y0263150
X0201449
X0191378Y0246732
X0160158Y0259016
X0157650Y0259243
X0241114
X0243622Y0259016
X0252283Y0261536
X0252925Y0268071
X0253071Y0271614
X0253110Y0275354
X0247598Y0276299
Y0271811
Y0280787
X0249764Y0284645
X0251014Y0290458
X0248046Y0290497
X0253982
X0257045
X0260014Y0290458
X0262982
X0264513Y0287915
Y0284946
X0264617Y0281453
X0264513Y0278486
Y0275518
Y0272549
X0263465Y0269882
X0261929Y0267717
X0261024Y0265236
X0260866Y0262717
X0261457Y0260394
X0262768Y0258228
X0264882Y0256614
X0267520Y0255984
X0270669Y0256339
X0270150Y0253307
X0275071
X0277835Y0252126
X0280551Y0252047
X0283347Y0252087
X0286260Y0252008
X0282453Y0258228
X0277532
X0275197Y0259646
X0273346Y0257559
X0276378Y0262559
X0276417Y0265433
X0277532Y0268071
X0275079Y0268858
X0282453Y0268071
X0284913Y0272992
X0279992
X0282453Y0277913
X0277532
X0272535Y0280298
Y0284137
X0275071Y0282835
X0279992
X0284913
X0282453Y0287756
X0277532
X0279992Y0292677
X0284913
X0282453Y0297599
X0277532
X0272610
X0270816Y0295678
X0272109Y0293005
X0275071Y0292677
X0268733Y0297793
X0266102Y0299167
X0255499Y0299270
X0252556Y0299661
X0248504Y0300630
X0248386Y0304291
X0248268Y0307559
X0245543Y0302520
X0258819Y0305157
X0274921Y0309409
X0260307Y0282835
Y0272992
X0279992Y0263150
X0284913
X0274843Y0246732
X0252126Y0249843
X0245276Y0240433
X0238189Y0240945
X0231575Y0234803
X0231614Y0282913
X0236066Y0312155
X0302138Y0218858
X0262768Y0169646
X0260307Y0164725
X0262768Y0159803
X0179303
X0176842Y0164725
X0179303Y0169646
X0144854
X0141063Y0170787
Y0176221
Y0181614
Y0187008
Y0192402
Y0197795
Y0203189
Y0208583
Y0213976
Y0219370
Y0224764
Y0230157
Y0235630
Y0241063
Y0246457
Y0251850
Y0257244
Y0262638
Y0268032
Y0273425
Y0278819
Y0284213
Y0289606
Y0295000
X0148150Y0282913
X0152601Y0312155
X0154725Y0240945
X0148110Y0234803
X0149776Y0218858
X0152236Y0213937
X0154961Y0221457
X0153760Y0198740
X0153740Y0188662
X0147315Y0174567
X0146142Y0315564
X0150591Y0316102
X0148743Y0318687
X0142394Y0322205
X0144854Y0327126
X0147315Y0332047
X0142394
X0144854Y0336969
X0147315Y0341890
X0142394
X0144854Y0346811
X0147315Y0351732
X0152236
X0149776Y0356654
X0144854
X0147315Y0361575
X0142394
X0144854Y0366496
X0147315Y0371417
X0142394
X0144854Y0376339
X0147315Y0381260
X0142394
X0144854Y0386181
X0147315Y0391103
X0142394
X0144854Y0396024
X0147315Y0400945
X0142394
X0144854Y0405866
X0147315Y0410787
X0150906Y0410709
X0149776Y0415709
X0154697
X0152236Y0420630
X0147315
X0142394
X0144854Y0425551
X0149776
X0154697
X0152236Y0430473
X0147315
X0142394
X0144854Y0435394
X0149776
X0154697
X0152236Y0440315
X0147315
X0142394
X0144854Y0445236
X0149776
X0154697
X0152236Y0450158
X0147315
X0142394
X0144854Y0455079
X0149776
X0154697
X0144854Y0415709
X0142394Y0410787
X0154961Y0398780
X0153583Y0396693
X0153071Y0394213
X0154726Y0385197
X0155669Y0372874
X0152874Y0343740
X0155079Y0327913
X0142394Y0351732
X0165748Y0351024
Y0347599
Y0344173
Y0340748
X0162677Y0340551
X0162146Y0337362
X0162599Y0346850
X0165748Y0354449
X0171181Y0355315
X0169252Y0357638
X0176063Y0354449
X0179488
X0182913
X0184882Y0348780
X0180354Y0343898
X0185000Y0338858
X0180315Y0334134
X0185079Y0328937
X0184055Y0322874
X0178386
X0175591Y0323937
X0172441Y0323346
X0169646Y0322953
X0163858Y0327795
X0165630Y0330551
X0190118Y0333858
X0190039Y0343819
X0194921Y0347599
X0196339Y0349882
X0194921Y0354449
X0194036Y0356764
X0191496Y0354449
X0189146Y0356654
X0197401Y0355236
X0205394Y0353110
X0205472Y0343622
X0206457Y0334213
X0206575Y0330984
X0205472Y0324685
X0206496Y0318819
X0203972Y0318373
X0195827Y0322756
X0195787Y0325433
X0196339Y0327953
X0189724Y0322874
X0216213Y0322205
X0218673Y0327126
X0216213Y0332047
X0218673Y0336969
X0216213Y0341890
X0218673Y0346811
X0216213Y0351732
X0218673Y0356654
X0216213Y0361575
X0218673Y0366496
X0216213Y0371417
X0218673Y0376339
X0216213Y0381260
X0218673Y0386181
X0216213Y0391103
X0218673Y0396024
X0216213Y0400945
X0218673Y0405866
X0213752
X0216213Y0410787
X0211291
X0213752Y0415709
X0218673
X0228319
X0233240
X0238161
X0243083
X0248004
X0252925
X0252520Y0409449
X0255386Y0410787
X0257846Y0405866
X0260307Y0400945
X0255386
X0257846Y0396024
X0262768
X0266757Y0396407
Y0393438
X0266796Y0390470
X0268065Y0387786
X0266732Y0385433
X0266757Y0382678
X0267024Y0379721
X0268001Y0376918
X0269612Y0374425
X0271645Y0372262
X0273669Y0370090
X0274335Y0367197
X0270551Y0367480
X0267047Y0367599
X0266378Y0354449
X0262953
X0259528
X0254646Y0355315
X0252717Y0357638
X0249213Y0354449
Y0351024
Y0347599
Y0344173
Y0340748
X0246142Y0340551
X0245610Y0337362
X0246063Y0346850
X0236339Y0343740
X0230780Y0341890
X0225858
X0228319Y0346811
X0230780Y0351732
X0235701
X0233240Y0356654
X0228319
X0230780Y0361575
X0225858
X0228319Y0366496
X0230780Y0371417
X0225858
X0228319Y0376339
X0230780Y0381260
X0225858
X0228319Y0386181
X0230780Y0391103
X0225858
X0228319Y0396024
X0230780Y0400945
X0225858
X0228319Y0405866
X0230780Y0410787
X0234370Y0410709
X0240622Y0410787
X0245543
Y0420630
X0250465
X0255386
X0252925Y0425551
X0248004
X0243083
X0238161
X0233240
X0228319
X0230780Y0430473
X0235701
X0240622
X0245543
X0250465
X0255386
X0252925Y0435394
X0248004
X0243083
X0238161
X0233240
X0228319
X0230780Y0440315
X0235701
X0240622
X0245543
X0250465
X0255386
X0252925Y0445236
X0248004
X0243083
X0238161
X0233240
X0228319
X0230780Y0450158
X0235701
X0240622
X0245543
X0250465
X0255386
X0252925Y0455079
X0248004
X0243083
X0238161
X0233240
X0228319
X0225858Y0450158
Y0440315
Y0430473
Y0420630
X0230780
X0235701
X0240622
X0241142Y0398898
X0238425Y0398780
X0237047Y0396693
X0236535Y0394213
X0238190Y0385197
X0239134Y0372874
X0243634Y0368807
X0241339Y0365433
X0243268Y0361693
X0249547Y0366713
X0249016Y0375157
X0256653Y0374803
X0261811Y0383465
X0262768Y0386181
X0260307Y0391103
X0274331Y0391417
X0274567Y0397087
X0274374Y0399834
X0277008Y0398976
X0276546Y0402238
X0266796Y0401392
X0266757Y0404360
Y0407329
Y0410297
Y0413266
Y0416234
X0274764Y0415669
X0277532Y0415709
X0282453
X0284921Y0413071
X0294756Y0410787
X0299677
X0302138Y0415709
X0297217
Y0405866
X0302138
X0299677Y0400945
X0302138Y0396024
X0299677Y0391103
X0302138Y0386181
X0299677Y0381260
X0302138Y0376339
X0299677Y0371417
X0302138Y0366496
X0299677Y0361575
X0302138Y0356654
X0299677Y0351732
X0302138Y0346811
X0299677Y0341890
X0302138Y0336969
X0299677Y0332047
X0302138Y0327126
X0299677Y0322205
X0302138Y0317284
X0309323Y0322205
X0311784Y0327126
X0309323Y0332047
X0311784Y0336969
X0309323Y0341890
X0311784Y0346811
X0309323Y0351732
X0311784Y0356654
X0309323Y0361575
X0311784Y0366496
X0309323Y0371417
X0311784Y0376339
X0309323Y0381260
X0311784Y0386181
X0309323Y0391103
X0311784Y0396024
X0309323Y0400945
X0311784Y0405866
X0309323Y0410787
X0311784Y0415709
X0309323Y0420630
X0311784Y0425551
X0309323Y0430473
X0311784Y0435394
X0309323Y0440315
X0311784Y0445236
X0309323Y0450158
X0311784Y0455079
X0283425Y0392599
X0283858Y0385433
X0274852Y0381799
X0276168Y0379138
X0278267Y0377039
X0280212Y0374797
X0281475Y0372110
X0281937Y0369178
X0280866Y0355236
X0278386Y0354449
X0277500Y0356764
X0274961Y0354449
X0272610Y0356654
X0268347Y0348780
X0263819Y0343898
X0268465Y0338858
X0263779Y0334134
X0268543Y0328937
X0267520Y0322874
X0261850
X0259055Y0323937
X0255906Y0323346
X0253110Y0322953
X0247323Y0327795
X0249095Y0330551
X0238543Y0327913
X0228319Y0327126
X0230780Y0332047
X0225858
X0228319Y0336969
X0225858Y0351732
Y0322205
X0232207Y0318687
X0234055Y0316102
X0229606Y0315564
X0218673Y0317284
X0273189Y0322874
X0279291Y0322756
X0279252Y0325433
X0279803Y0327953
X0273583Y0333858
X0273504Y0343819
X0278386Y0347599
X0279803Y0349882
X0288858Y0353110
X0288937Y0343622
X0289921Y0334213
X0290039Y0330984
X0288937Y0324685
X0289961Y0318819
X0287437Y0318373
X0290039Y0376759
X0251181Y0383465
X0247913Y0398937
X0225858Y0410787
X0201457Y0413071
X0198988Y0415709
X0194067
X0191299Y0415669
X0183293Y0416234
Y0413266
Y0410297
Y0407329
Y0404360
X0183331Y0401392
X0183293Y0396407
Y0393438
X0183331Y0390470
X0184600Y0387786
X0183268Y0385433
X0183293Y0382678
X0183559Y0379721
X0184536Y0376918
X0186148Y0374425
X0188180Y0372262
X0190204Y0370090
X0190870Y0367197
X0187087Y0367480
X0183583Y0367599
X0198472Y0369178
X0198011Y0372110
X0196748Y0374797
X0194802Y0377039
X0192703Y0379138
X0191388Y0381799
X0190866Y0391417
X0191102Y0397087
X0190909Y0399834
X0193543Y0398976
X0193081Y0402238
X0199961Y0392599
X0200394Y0385433
X0206575Y0376759
X0178347Y0383465
X0179303Y0386181
X0176842Y0391103
X0179303Y0396024
X0174382
X0176842Y0400945
X0171921
X0174382Y0405866
X0171921Y0410787
X0169055Y0409449
X0169461Y0415709
X0164539
X0159618
X0162079Y0420630
X0167000
X0171921
X0169461Y0425551
X0164539
X0159618
X0162079Y0430473
X0167000
X0171921
X0169461Y0435394
X0164539
X0159618
X0162079Y0440315
X0167000
X0171921
X0169461Y0445236
X0164539
X0159618
X0162079Y0450158
X0167000
X0171921
X0169461Y0455079
X0164539
X0159618
X0157158Y0450158
Y0440315
Y0430473
Y0420630
Y0410787
X0162079
X0164449Y0398937
X0157677Y0398898
X0167717Y0383465
X0165551Y0375157
X0173189Y0374803
X0166083Y0366713
X0160169Y0368807
X0157874Y0365433
X0159803Y0361693
X0314244Y0361575
X0316705Y0356654
X0319165Y0351732
X0314244
Y0341890
X0319803Y0343740
X0329528Y0346850
X0332677Y0347599
Y0351024
Y0354449
X0338110Y0355315
X0336181Y0357638
X0342992Y0354449
X0346417
X0349843
X0351811Y0348780
X0347284Y0343898
X0351929Y0338858
X0347244Y0334134
X0352008Y0328937
X0350984Y0322874
X0345315
X0342520Y0323937
X0339370Y0323346
X0336575Y0322953
X0330787Y0327795
X0332559Y0330551
X0329075Y0337362
X0329606Y0340551
X0332677Y0340748
Y0344173
X0333012Y0366713
X0327098Y0368807
X0324803Y0365433
X0326732Y0361693
X0322598Y0372874
X0314244Y0371417
Y0381260
Y0391103
X0320000Y0394213
X0320512Y0396693
X0321890Y0398780
X0324606Y0398898
X0331378Y0398937
X0338850Y0400945
X0343772
X0350260Y0401392
X0350222Y0404360
Y0407329
Y0410297
Y0413266
Y0416234
X0358228Y0415669
X0360996Y0415709
X0365917
X0368386Y0413071
X0378221Y0410787
X0383142
X0385602Y0415709
X0380681
Y0405866
X0385602
X0383142Y0400945
X0385602Y0396024
X0383142Y0391103
X0385602Y0386181
X0383142Y0381260
X0385602Y0376339
X0383142Y0371417
X0385602Y0366496
X0383142Y0361575
X0385602Y0356654
X0383142Y0351732
X0385602Y0346811
X0383142Y0341890
X0385602Y0336969
X0383142Y0332047
X0385602Y0327126
X0383142Y0322205
X0385602Y0317284
X0392787Y0322205
X0395248Y0327126
X0397709Y0332047
X0392787
X0395248Y0336969
X0397709Y0341890
X0392787
X0395248Y0346811
X0397709Y0351732
X0402630
X0400169Y0356654
X0395248
X0397709Y0361575
X0392787
X0395248Y0366496
X0397709Y0371417
X0392787
X0395248Y0376339
X0397709Y0381260
X0392787
X0395248Y0386181
X0397709Y0391103
X0392787
X0395248Y0396024
X0397709Y0400945
X0392787
X0395248Y0405866
X0397709Y0410787
X0401299Y0410709
X0400169Y0415709
X0405091
X0410012
X0414933
X0419854
X0419449Y0409449
X0422315Y0410787
X0424776Y0405866
X0427236Y0400945
X0422315
X0424776Y0396024
X0429697
X0433686Y0396407
Y0393438
X0433725Y0390470
X0434994Y0387786
X0433661Y0385433
X0433686Y0382678
X0433953Y0379721
X0434930Y0376918
X0436541Y0374425
X0438574Y0372262
X0440598Y0370090
X0441264Y0367197
X0437480Y0367480
X0433976Y0367599
X0433307Y0354449
X0429882
X0426457
X0421575Y0355315
X0419646Y0357638
X0416142Y0354449
Y0351024
Y0347599
Y0344173
Y0340748
X0413071Y0340551
X0412539Y0337362
X0412992Y0346850
X0403268Y0343740
X0405472Y0327913
X0414252Y0327795
X0416024Y0330551
X0420039Y0322953
X0422835Y0323346
X0425984Y0323937
X0428780Y0322874
X0434449
X0440118
X0446220Y0322756
X0446181Y0325433
X0446732Y0327953
X0440512Y0333858
X0435472Y0328937
X0430709Y0334134
X0435394Y0338858
X0430748Y0343898
X0435276Y0348780
X0440433Y0343819
X0445315Y0347599
X0446732Y0349882
X0445315Y0354449
X0444429Y0356764
X0441890Y0354449
X0439539Y0356654
X0447795Y0355236
X0455787Y0353110
X0455866Y0343622
X0456850Y0334213
X0456968Y0330984
X0455866Y0324685
X0456890Y0318819
X0454366Y0318373
X0466606Y0322205
Y0332047
Y0341890
Y0351732
Y0361575
Y0371417
Y0381260
Y0391103
Y0400945
X0464146Y0405866
X0466606Y0410787
X0461685
X0464146Y0415709
X0449382
X0444461
X0441693Y0415669
X0433686Y0416234
Y0413266
Y0410297
Y0407329
Y0404360
X0433725Y0401392
X0441303Y0399834
X0441496Y0397087
X0443937Y0398976
X0443475Y0402238
X0441260Y0391417
X0441782Y0381799
X0443097Y0379138
X0445196Y0377039
X0447141Y0374797
X0448404Y0372110
X0448866Y0369178
X0456968Y0376759
X0450787Y0385433
X0450354Y0392599
X0451850Y0413071
X0422315Y0420630
X0417394
X0412472
X0407551
X0402630
X0397709
X0392787
X0395248Y0425551
X0400169
X0405091
X0410012
X0414933
X0419854
X0422315Y0430473
X0417394
X0412472
X0407551
X0402630
X0397709
X0392787
X0395248Y0435394
X0400169
X0405091
X0410012
X0414933
X0419854
X0422315Y0440315
X0417394
X0412472
X0407551
X0402630
X0397709
X0392787
X0395248Y0445236
X0400169
X0405091
X0410012
X0414933
X0419854
X0422315Y0450158
X0417394
X0412472
X0407551
X0402630
X0397709
X0392787
X0395248Y0455079
X0400169
X0405091
X0410012
X0414933
X0419854
X0412472Y0410787
X0407551
X0408071Y0398898
X0405354Y0398780
X0403976Y0396693
X0403465Y0394213
X0405119Y0385197
X0406063Y0372874
X0410563Y0368807
X0408268Y0365433
X0410197Y0361693
X0416476Y0366713
X0415945Y0375157
X0423583Y0374803
X0428740Y0383465
X0429697Y0386181
X0427236Y0391103
X0418110Y0383465
X0414843Y0398937
X0392787Y0410787
X0395248Y0415709
X0360010Y0402238
X0360472Y0398976
X0357838Y0399834
X0358032Y0397087
X0357795Y0391417
X0350260Y0390470
X0350222Y0393438
Y0396407
X0346232Y0396024
X0341311
X0343772Y0391103
X0346232Y0386181
X0345276Y0383465
X0350222Y0382678
X0350197Y0385433
X0351529Y0387786
X0350488Y0379721
X0351465Y0376918
X0353077Y0374425
X0355110Y0372262
X0357133Y0370090
X0357799Y0367197
X0354016Y0367480
X0350512Y0367599
X0365401Y0369178
X0364940Y0372110
X0363677Y0374797
X0361732Y0377039
X0359632Y0379138
X0358317Y0381799
X0367323Y0385433
X0366890Y0392599
X0373504Y0376759
X0372323Y0353110
X0372402Y0343622
X0373386Y0334213
X0373504Y0330984
X0372402Y0324685
X0373425Y0318819
X0370902Y0318373
X0362756Y0322756
X0362717Y0325433
X0363268Y0327953
X0356654Y0322874
X0357047Y0333858
X0356968Y0343819
X0361850Y0347599
X0363268Y0349882
X0361850Y0354449
X0360965Y0356764
X0358425Y0354449
X0356075Y0356654
X0364331Y0355236
X0392787Y0351732
X0399137Y0318687
X0400984Y0316102
X0396535Y0315564
X0317520Y0316102
X0315672Y0318687
X0313071Y0315564
X0314244Y0332047
X0322008Y0327913
X0321655Y0385197
X0334646Y0383465
X0332480Y0375157
X0340118Y0374803
X0341311Y0405866
X0338850Y0410787
X0335984Y0409449
X0336390Y0415709
X0331469
X0326547
X0321626
X0316705
X0317835Y0410709
X0314244Y0410787
X0324087
X0329008
Y0420630
X0333929
X0338850
X0336390Y0425551
X0331469
X0326547
X0321626
X0316705
X0319165Y0430473
X0324087
X0329008
X0333929
X0338850
X0336390Y0435394
X0331469
X0326547
X0321626
X0316705
X0319165Y0440315
X0324087
X0329008
X0333929
X0338850
X0336390Y0445236
X0331469
X0326547
X0321626
X0316705
X0319165Y0450158
X0324087
X0329008
X0333929
X0338850
X0336390Y0455079
X0331469
X0326547
X0321626
X0316705
X0314244Y0450158
Y0440315
Y0430473
Y0420630
X0319165
X0324087
X0314244Y0400945
X0469067Y0405866
X0478713
X0481173Y0410787
X0484764Y0410709
X0483634Y0415709
X0488555
X0493476
X0498398
X0503319
X0502913Y0409449
X0505780Y0410787
X0508240Y0405866
X0510701Y0400945
X0505780
X0508240Y0396024
X0513161
X0517151Y0396407
Y0393438
X0517190Y0390470
X0518458Y0387786
X0517126Y0385433
X0517151Y0382678
X0517418Y0379721
X0518395Y0376918
X0520006Y0374425
X0522039Y0372262
X0524062Y0370090
X0524729Y0367197
X0520945Y0367480
X0517441Y0367599
X0516772Y0354449
X0513346
X0509921
X0505039Y0355315
X0503110Y0357638
X0499606Y0354449
Y0351024
Y0347599
Y0344173
Y0340748
X0496535Y0340551
X0496004Y0337362
X0496457Y0346850
X0486732Y0343740
X0481173Y0341890
X0476252
X0478713Y0346811
X0481173Y0351732
X0486095
X0483634Y0356654
X0478713
X0481173Y0361575
X0476252
X0478713Y0366496
X0481173Y0371417
X0476252
X0478713Y0376339
X0481173Y0381260
X0476252
X0478713Y0386181
X0481173Y0391103
X0476252
X0478713Y0396024
X0481173Y0400945
X0476252
Y0410787
X0478713Y0415709
X0481173Y0420630
X0486095
X0491016
X0495937
X0500858
X0505780
X0503319Y0425551
X0498398
X0493476
X0488555
X0483634
X0478713
X0481173Y0430473
X0486095
X0491016
X0495937
X0500858
X0505780
X0503319Y0435394
X0498398
X0493476
X0488555
X0483634
X0478713
X0481173Y0440315
X0486095
X0491016
X0495937
X0500858
X0505780
X0503319Y0445236
X0498398
X0493476
X0488555
X0483634
X0478713
X0481173Y0450158
X0486095
X0491016
X0495937
X0500858
X0505780
X0503319Y0455079
X0498398
X0493476
X0488555
X0483634
X0478713
X0476252Y0450158
Y0440315
Y0430473
Y0420630
X0469067Y0415709
Y0396024
Y0386181
Y0376339
Y0366496
Y0356654
Y0346811
Y0336969
X0478713
X0481173Y0332047
X0476252
X0478713Y0327126
X0476252Y0322205
X0482601Y0318687
X0484449Y0316102
X0480000Y0315564
X0469067Y0317284
Y0327126
X0488937Y0327913
X0497717Y0327795
X0499488Y0330551
X0503504Y0322953
X0506299Y0323346
X0509449Y0323937
X0512244Y0322874
X0517913
X0523583
X0529685Y0322756
X0529646Y0325433
X0530197Y0327953
X0523976Y0333858
X0518937Y0328937
X0514173Y0334134
X0518858Y0338858
X0514213Y0343898
X0518740Y0348780
X0523898Y0343819
X0528780Y0347599
X0530197Y0349882
X0528780Y0354449
X0527894Y0356764
X0525354Y0354449
X0523004Y0356654
X0531260Y0355236
X0539252Y0353110
X0539331Y0343622
X0540315Y0334213
X0540433Y0330984
X0539331Y0324685
X0540354Y0318819
X0537831Y0318373
X0552531Y0317284
X0550071Y0322205
X0552531Y0327126
X0550071Y0332047
X0552531Y0336969
X0550071Y0341890
X0552531Y0346811
X0550071Y0351732
X0552531Y0356654
X0550071Y0361575
X0552531Y0366496
X0550071Y0371417
X0552531Y0376339
X0550071Y0381260
X0552531Y0386181
X0550071Y0391103
X0552531Y0396024
X0550071Y0400945
X0552531Y0405866
X0547610
X0550071Y0410787
X0545150
X0547610Y0415709
X0552531
X0532846
X0527925
X0525157Y0415669
X0517151Y0416234
Y0413266
Y0410297
Y0407329
Y0404360
X0517190Y0401392
X0524767Y0399834
X0524961Y0397087
X0527402Y0398976
X0526939Y0402238
X0524724Y0391417
X0525246Y0381799
X0526562Y0379138
X0528661Y0377039
X0530606Y0374797
X0531869Y0372110
X0532330Y0369178
X0540433Y0376759
X0534252Y0385433
X0533819Y0392599
X0535315Y0413071
X0495937Y0410787
X0491016
X0491535Y0398898
X0488819Y0398780
X0487441Y0396693
X0486929Y0394213
X0488584Y0385197
X0489528Y0372874
X0494028Y0368807
X0491732Y0365433
X0493661Y0361693
X0499941Y0366713
X0499409Y0375157
X0507047Y0374803
X0512205Y0383465
X0513161Y0386181
X0510701Y0391103
X0501575Y0383465
X0498307Y0398937
X0476252Y0351732
T02
X0518937Y0263819
X0435472
X0352008
X0268543
X0185079
T03
X0493347Y0158465
X0536536Y0159331
X0453071
X0409882Y0158465
X0369606Y0159331
X0326417Y0158465
X0286142Y0159331
X0242953Y0158465
X0202677Y0159331
X0159488Y0158465
T04
X0120276Y0120394
X0575984
X0576299Y0482835
X0120118Y0482323
T05
X0481118Y0183740
X0489118
X0485118Y0203740
X0401654
X0397654Y0183740
X0405654
X0322189
X0314189
X0318189Y0203740
X0234724
X0230724Y0183740
X0238724
X0155260
X0147260
X0151260Y0203740
M30
