G04*
G04 #@! TF.GenerationSoftware,Altium Limited,Altium Designer,20.0.13 (296)*
G04*
G04 Layer_Color=65535*
%FSAX25Y25*%
%MOIN*%
G70*
G01*
G75*
%ADD16C,0.00787*%
%ADD18C,0.03937*%
%ADD19C,0.01181*%
%ADD75C,0.01000*%
%ADD76C,0.00400*%
%ADD77C,0.00402*%
%ADD78C,0.00591*%
D16*
X0135079Y0033683D02*
X0136391D01*
X0135735D01*
Y0036307D01*
X0135079D01*
X0138358D02*
Y0033683D01*
Y0034995D01*
X0139014Y0035651D01*
X0139670Y0036307D01*
X0140326D01*
X0142294Y0033683D02*
Y0036307D01*
X0144262D01*
X0144918Y0035651D01*
Y0033683D01*
X0146886Y0036307D02*
X0148198D01*
X0148854Y0035651D01*
Y0033683D01*
X0146886D01*
X0146230Y0034339D01*
X0146886Y0034995D01*
X0148854D01*
X0150166Y0033683D02*
X0152134D01*
X0152790Y0034339D01*
X0152134Y0034995D01*
X0150822D01*
X0150166Y0035651D01*
X0150822Y0036307D01*
X0152790D01*
X0154102Y0033683D02*
Y0034339D01*
X0154757D01*
Y0033683D01*
X0154102D01*
X0159349D02*
X0158037D01*
X0157381Y0034339D01*
Y0035651D01*
X0158037Y0036307D01*
X0159349D01*
X0160005Y0035651D01*
Y0034995D01*
X0157381D01*
X0161317Y0036307D02*
Y0034339D01*
X0161973Y0033683D01*
X0163941D01*
Y0036307D01*
X0135079Y0031006D02*
Y0027070D01*
X0137703D01*
X0139014D02*
X0140326D01*
X0139670D01*
Y0029694D01*
X0139014D01*
X0142950Y0027070D02*
X0144262D01*
X0144918Y0027726D01*
Y0029038D01*
X0144262Y0029694D01*
X0142950D01*
X0142294Y0029038D01*
Y0027726D01*
X0142950Y0027070D01*
X0146230D02*
Y0029694D01*
X0148198D01*
X0148854Y0029038D01*
Y0027070D01*
X0150166Y0026414D02*
X0152790D01*
X0154102Y0031006D02*
X0156725D01*
X0155413D01*
Y0027070D01*
X0158037Y0029694D02*
Y0027070D01*
Y0028382D01*
X0158693Y0029038D01*
X0159349Y0029694D01*
X0160005D01*
X0162629D02*
X0163941D01*
X0164597Y0029038D01*
Y0027070D01*
X0162629D01*
X0161973Y0027726D01*
X0162629Y0028382D01*
X0164597D01*
X0168533Y0029694D02*
X0166565D01*
X0165909Y0029038D01*
Y0027726D01*
X0166565Y0027070D01*
X0168533D01*
X0169844D02*
Y0031006D01*
Y0028382D02*
X0171812Y0029694D01*
X0169844Y0028382D02*
X0171812Y0027070D01*
X0175748D02*
X0174436D01*
X0173780Y0027726D01*
Y0029038D01*
X0174436Y0029694D01*
X0175748D01*
X0176404Y0029038D01*
Y0028382D01*
X0173780D01*
X0177716Y0029694D02*
Y0027070D01*
Y0028382D01*
X0178372Y0029038D01*
X0179028Y0029694D01*
X0179684D01*
X0135079Y0023737D02*
Y0021113D01*
X0136391Y0019802D01*
X0137703Y0021113D01*
Y0023737D01*
X0139014Y0019802D02*
X0140326D01*
X0139670D01*
Y0023737D01*
X0139014Y0023081D01*
X0142294Y0019802D02*
Y0020458D01*
X0142950D01*
Y0019802D01*
X0142294D01*
X0147542D02*
Y0023737D01*
X0145574Y0021769D01*
X0148198D01*
X0137047Y0013189D02*
Y0017125D01*
X0135079Y0015157D01*
X0137703D01*
X0139014Y0017125D02*
X0141638D01*
Y0016469D01*
X0139014Y0013845D01*
Y0013189D01*
X0142950D02*
X0145574Y0015813D01*
X0146886Y0013189D02*
X0148198D01*
X0147542D01*
Y0017125D01*
X0146886Y0016469D01*
X0150166Y0013845D02*
X0150822Y0013189D01*
X0152134D01*
X0152790Y0013845D01*
Y0016469D01*
X0152134Y0017125D01*
X0150822D01*
X0150166Y0016469D01*
Y0015813D01*
X0150822Y0015157D01*
X0152790D01*
X0046593Y0235918D02*
X0118247D01*
Y0164265D02*
Y0235918D01*
X0046593Y0166627D02*
Y0235918D01*
Y0166627D02*
X0048955Y0164265D01*
X0118247D01*
X0055704Y0305178D02*
Y0300456D01*
X0058853D01*
X0060427Y0305178D02*
X0062001D01*
X0061214D01*
Y0300456D01*
X0060427D01*
X0062001D01*
X0066724Y0305178D02*
X0065150D01*
X0064363Y0304391D01*
Y0301243D01*
X0065150Y0300456D01*
X0066724D01*
X0067511Y0301243D01*
Y0304391D01*
X0066724Y0305178D01*
X0069086Y0300456D02*
Y0305178D01*
X0072234Y0300456D01*
Y0305178D01*
X0078531D02*
X0081680D01*
X0080106D01*
Y0300456D01*
X0083254D02*
Y0305178D01*
X0085616D01*
X0086403Y0304391D01*
Y0302817D01*
X0085616Y0302030D01*
X0083254D01*
X0084829D02*
X0086403Y0300456D01*
X0087977D02*
Y0303604D01*
X0089551Y0305178D01*
X0091126Y0303604D01*
Y0300456D01*
Y0302817D01*
X0087977D01*
X0095849Y0304391D02*
X0095061Y0305178D01*
X0093487D01*
X0092700Y0304391D01*
Y0301243D01*
X0093487Y0300456D01*
X0095061D01*
X0095849Y0301243D01*
X0097423Y0305178D02*
Y0300456D01*
Y0302030D01*
X0100572Y0305178D01*
X0098210Y0302817D01*
X0100572Y0300456D01*
X0105294Y0305178D02*
X0102146D01*
Y0300456D01*
X0105294D01*
X0102146Y0302817D02*
X0103720D01*
X0106869Y0300456D02*
Y0305178D01*
X0109230D01*
X0110017Y0304391D01*
Y0302817D01*
X0109230Y0302030D01*
X0106869D01*
X0108443D02*
X0110017Y0300456D01*
X0074989Y0297621D02*
Y0294473D01*
X0076564Y0292898D01*
X0078138Y0294473D01*
Y0297621D01*
X0079712Y0292898D02*
X0081286D01*
X0080499D01*
Y0297621D01*
X0079712Y0296834D01*
X0083648Y0292898D02*
Y0293686D01*
X0084435D01*
Y0292898D01*
X0083648D01*
X0089945D02*
Y0297621D01*
X0087584Y0295260D01*
X0090732D01*
X0065543Y0285341D02*
X0067118D01*
X0066331D01*
Y0288490D01*
X0065543D01*
X0069479D02*
Y0285341D01*
Y0286915D01*
X0070266Y0287703D01*
X0071053Y0288490D01*
X0071841D01*
X0074202Y0285341D02*
Y0288490D01*
X0076564D01*
X0077351Y0287703D01*
Y0285341D01*
X0079712Y0288490D02*
X0081286D01*
X0082073Y0287703D01*
Y0285341D01*
X0079712D01*
X0078925Y0286128D01*
X0079712Y0286915D01*
X0082073D01*
X0083648Y0285341D02*
X0086009D01*
X0086796Y0286128D01*
X0086009Y0286915D01*
X0084435D01*
X0083648Y0287703D01*
X0084435Y0288490D01*
X0086796D01*
X0088371Y0285341D02*
Y0286128D01*
X0089158D01*
Y0285341D01*
X0088371D01*
X0094668D02*
X0093094D01*
X0092306Y0286128D01*
Y0287703D01*
X0093094Y0288490D01*
X0094668D01*
X0095455Y0287703D01*
Y0286915D01*
X0092306D01*
X0097029Y0288490D02*
Y0286128D01*
X0097816Y0285341D01*
X0100178D01*
Y0288490D01*
X0148955Y0235918D02*
X0220609D01*
Y0164265D02*
Y0235918D01*
X0148955Y0166627D02*
Y0235918D01*
Y0166627D02*
X0151318Y0164265D01*
X0220609D01*
X0158066Y0305178D02*
Y0300456D01*
X0161215D01*
X0162789Y0305178D02*
X0164363D01*
X0163576D01*
Y0300456D01*
X0162789D01*
X0164363D01*
X0169086Y0305178D02*
X0167512D01*
X0166725Y0304391D01*
Y0301243D01*
X0167512Y0300456D01*
X0169086D01*
X0169873Y0301243D01*
Y0304391D01*
X0169086Y0305178D01*
X0171448Y0300456D02*
Y0305178D01*
X0174596Y0300456D01*
Y0305178D01*
X0180894D02*
X0184042D01*
X0182468D01*
Y0300456D01*
X0185616D02*
Y0305178D01*
X0187978D01*
X0188765Y0304391D01*
Y0302817D01*
X0187978Y0302030D01*
X0185616D01*
X0187191D02*
X0188765Y0300456D01*
X0190339D02*
Y0303604D01*
X0191914Y0305178D01*
X0193488Y0303604D01*
Y0300456D01*
Y0302817D01*
X0190339D01*
X0198211Y0304391D02*
X0197424Y0305178D01*
X0195849D01*
X0195062Y0304391D01*
Y0301243D01*
X0195849Y0300456D01*
X0197424D01*
X0198211Y0301243D01*
X0199785Y0305178D02*
Y0300456D01*
Y0302030D01*
X0202934Y0305178D01*
X0200572Y0302817D01*
X0202934Y0300456D01*
X0207657Y0305178D02*
X0204508D01*
Y0300456D01*
X0207657D01*
X0204508Y0302817D02*
X0206082D01*
X0209231Y0300456D02*
Y0305178D01*
X0211592D01*
X0212379Y0304391D01*
Y0302817D01*
X0211592Y0302030D01*
X0209231D01*
X0210805D02*
X0212379Y0300456D01*
X0177351Y0297621D02*
Y0294473D01*
X0178926Y0292898D01*
X0180500Y0294473D01*
Y0297621D01*
X0182074Y0292898D02*
X0183649D01*
X0182861D01*
Y0297621D01*
X0182074Y0296834D01*
X0186010Y0292898D02*
Y0293686D01*
X0186797D01*
Y0292898D01*
X0186010D01*
X0192307D02*
Y0297621D01*
X0189946Y0295260D01*
X0193094D01*
X0167906Y0285341D02*
X0169480D01*
X0168693D01*
Y0288490D01*
X0167906D01*
X0171841D02*
Y0285341D01*
Y0286915D01*
X0172628Y0287703D01*
X0173416Y0288490D01*
X0174203D01*
X0176564Y0285341D02*
Y0288490D01*
X0178926D01*
X0179713Y0287703D01*
Y0285341D01*
X0182074Y0288490D02*
X0183649D01*
X0184436Y0287703D01*
Y0285341D01*
X0182074D01*
X0181287Y0286128D01*
X0182074Y0286915D01*
X0184436D01*
X0186010Y0285341D02*
X0188371D01*
X0189159Y0286128D01*
X0188371Y0286915D01*
X0186797D01*
X0186010Y0287703D01*
X0186797Y0288490D01*
X0189159D01*
X0190733Y0285341D02*
Y0286128D01*
X0191520D01*
Y0285341D01*
X0190733D01*
X0197030D02*
X0195456D01*
X0194669Y0286128D01*
Y0287703D01*
X0195456Y0288490D01*
X0197030D01*
X0197817Y0287703D01*
Y0286915D01*
X0194669D01*
X0199391Y0288490D02*
Y0286128D01*
X0200179Y0285341D01*
X0202540D01*
Y0288490D01*
X0251318Y0235918D02*
X0322971D01*
Y0164265D02*
Y0235918D01*
X0251318Y0166627D02*
Y0235918D01*
Y0166627D02*
X0253680Y0164265D01*
X0322971D01*
X0260429Y0305178D02*
Y0300456D01*
X0263577D01*
X0265151Y0305178D02*
X0266726D01*
X0265938D01*
Y0300456D01*
X0265151D01*
X0266726D01*
X0271448Y0305178D02*
X0269874D01*
X0269087Y0304391D01*
Y0301243D01*
X0269874Y0300456D01*
X0271448D01*
X0272236Y0301243D01*
Y0304391D01*
X0271448Y0305178D01*
X0273810Y0300456D02*
Y0305178D01*
X0276959Y0300456D01*
Y0305178D01*
X0283256D02*
X0286404D01*
X0284830D01*
Y0300456D01*
X0287979D02*
Y0305178D01*
X0290340D01*
X0291127Y0304391D01*
Y0302817D01*
X0290340Y0302030D01*
X0287979D01*
X0289553D02*
X0291127Y0300456D01*
X0292702D02*
Y0303604D01*
X0294276Y0305178D01*
X0295850Y0303604D01*
Y0300456D01*
Y0302817D01*
X0292702D01*
X0300573Y0304391D02*
X0299786Y0305178D01*
X0298212D01*
X0297424Y0304391D01*
Y0301243D01*
X0298212Y0300456D01*
X0299786D01*
X0300573Y0301243D01*
X0302147Y0305178D02*
Y0300456D01*
Y0302030D01*
X0305296Y0305178D01*
X0302934Y0302817D01*
X0305296Y0300456D01*
X0310019Y0305178D02*
X0306870D01*
Y0300456D01*
X0310019D01*
X0306870Y0302817D02*
X0308444D01*
X0311593Y0300456D02*
Y0305178D01*
X0313954D01*
X0314742Y0304391D01*
Y0302817D01*
X0313954Y0302030D01*
X0311593D01*
X0313167D02*
X0314742Y0300456D01*
X0279714Y0297621D02*
Y0294473D01*
X0281288Y0292898D01*
X0282862Y0294473D01*
Y0297621D01*
X0284436Y0292898D02*
X0286011D01*
X0285224D01*
Y0297621D01*
X0284436Y0296834D01*
X0288372Y0292898D02*
Y0293686D01*
X0289159D01*
Y0292898D01*
X0288372D01*
X0294669D02*
Y0297621D01*
X0292308Y0295260D01*
X0295457D01*
X0270268Y0285341D02*
X0271842D01*
X0271055D01*
Y0288490D01*
X0270268D01*
X0274203D02*
Y0285341D01*
Y0286915D01*
X0274991Y0287703D01*
X0275778Y0288490D01*
X0276565D01*
X0278926Y0285341D02*
Y0288490D01*
X0281288D01*
X0282075Y0287703D01*
Y0285341D01*
X0284436Y0288490D02*
X0286011D01*
X0286798Y0287703D01*
Y0285341D01*
X0284436D01*
X0283649Y0286128D01*
X0284436Y0286915D01*
X0286798D01*
X0288372Y0285341D02*
X0290734D01*
X0291521Y0286128D01*
X0290734Y0286915D01*
X0289159D01*
X0288372Y0287703D01*
X0289159Y0288490D01*
X0291521D01*
X0293095Y0285341D02*
Y0286128D01*
X0293882D01*
Y0285341D01*
X0293095D01*
X0299392D02*
X0297818D01*
X0297031Y0286128D01*
Y0287703D01*
X0297818Y0288490D01*
X0299392D01*
X0300179Y0287703D01*
Y0286915D01*
X0297031D01*
X0301754Y0288490D02*
Y0286128D01*
X0302541Y0285341D01*
X0304902D01*
Y0288490D01*
X0353680Y0235918D02*
X0425333D01*
Y0164265D02*
Y0235918D01*
X0353680Y0166627D02*
Y0235918D01*
Y0166627D02*
X0356042Y0164265D01*
X0425333D01*
X0362791Y0305178D02*
Y0300456D01*
X0365939D01*
X0367513Y0305178D02*
X0369088D01*
X0368301D01*
Y0300456D01*
X0367513D01*
X0369088D01*
X0373811Y0305178D02*
X0372236D01*
X0371449Y0304391D01*
Y0301243D01*
X0372236Y0300456D01*
X0373811D01*
X0374598Y0301243D01*
Y0304391D01*
X0373811Y0305178D01*
X0376172Y0300456D02*
Y0305178D01*
X0379321Y0300456D01*
Y0305178D01*
X0385618D02*
X0388767D01*
X0387192D01*
Y0300456D01*
X0390341D02*
Y0305178D01*
X0392702D01*
X0393489Y0304391D01*
Y0302817D01*
X0392702Y0302030D01*
X0390341D01*
X0391915D02*
X0393489Y0300456D01*
X0395064D02*
Y0303604D01*
X0396638Y0305178D01*
X0398212Y0303604D01*
Y0300456D01*
Y0302817D01*
X0395064D01*
X0402935Y0304391D02*
X0402148Y0305178D01*
X0400574D01*
X0399787Y0304391D01*
Y0301243D01*
X0400574Y0300456D01*
X0402148D01*
X0402935Y0301243D01*
X0404509Y0305178D02*
Y0300456D01*
Y0302030D01*
X0407658Y0305178D01*
X0405297Y0302817D01*
X0407658Y0300456D01*
X0412381Y0305178D02*
X0409232D01*
Y0300456D01*
X0412381D01*
X0409232Y0302817D02*
X0410807D01*
X0413955Y0300456D02*
Y0305178D01*
X0416317D01*
X0417104Y0304391D01*
Y0302817D01*
X0416317Y0302030D01*
X0413955D01*
X0415529D02*
X0417104Y0300456D01*
X0382076Y0297621D02*
Y0294473D01*
X0383650Y0292898D01*
X0385224Y0294473D01*
Y0297621D01*
X0386799Y0292898D02*
X0388373D01*
X0387586D01*
Y0297621D01*
X0386799Y0296834D01*
X0390734Y0292898D02*
Y0293686D01*
X0391522D01*
Y0292898D01*
X0390734D01*
X0397032D02*
Y0297621D01*
X0394670Y0295260D01*
X0397819D01*
X0372630Y0285341D02*
X0374204D01*
X0373417D01*
Y0288490D01*
X0372630D01*
X0376566D02*
Y0285341D01*
Y0286915D01*
X0377353Y0287703D01*
X0378140Y0288490D01*
X0378927D01*
X0381289Y0285341D02*
Y0288490D01*
X0383650D01*
X0384437Y0287703D01*
Y0285341D01*
X0386799Y0288490D02*
X0388373D01*
X0389160Y0287703D01*
Y0285341D01*
X0386799D01*
X0386012Y0286128D01*
X0386799Y0286915D01*
X0389160D01*
X0390734Y0285341D02*
X0393096D01*
X0393883Y0286128D01*
X0393096Y0286915D01*
X0391522D01*
X0390734Y0287703D01*
X0391522Y0288490D01*
X0393883D01*
X0395457Y0285341D02*
Y0286128D01*
X0396244D01*
Y0285341D01*
X0395457D01*
X0401754D02*
X0400180D01*
X0399393Y0286128D01*
Y0287703D01*
X0400180Y0288490D01*
X0401754D01*
X0402542Y0287703D01*
Y0286915D01*
X0399393D01*
X0404116Y0288490D02*
Y0286128D01*
X0404903Y0285341D01*
X0407265D01*
Y0288490D01*
X0456042Y0235918D02*
X0527696D01*
Y0164265D02*
Y0235918D01*
X0456042Y0166627D02*
Y0235918D01*
Y0166627D02*
X0458404Y0164265D01*
X0527696D01*
X0465153Y0305178D02*
Y0300456D01*
X0468301D01*
X0469876Y0305178D02*
X0471450D01*
X0470663D01*
Y0300456D01*
X0469876D01*
X0471450D01*
X0476173Y0305178D02*
X0474599D01*
X0473811Y0304391D01*
Y0301243D01*
X0474599Y0300456D01*
X0476173D01*
X0476960Y0301243D01*
Y0304391D01*
X0476173Y0305178D01*
X0478534Y0300456D02*
Y0305178D01*
X0481683Y0300456D01*
Y0305178D01*
X0487980D02*
X0491129D01*
X0489554D01*
Y0300456D01*
X0492703D02*
Y0305178D01*
X0495064D01*
X0495852Y0304391D01*
Y0302817D01*
X0495064Y0302030D01*
X0492703D01*
X0494277D02*
X0495852Y0300456D01*
X0497426D02*
Y0303604D01*
X0499000Y0305178D01*
X0500574Y0303604D01*
Y0300456D01*
Y0302817D01*
X0497426D01*
X0505297Y0304391D02*
X0504510Y0305178D01*
X0502936D01*
X0502149Y0304391D01*
Y0301243D01*
X0502936Y0300456D01*
X0504510D01*
X0505297Y0301243D01*
X0506872Y0305178D02*
Y0300456D01*
Y0302030D01*
X0510020Y0305178D01*
X0507659Y0302817D01*
X0510020Y0300456D01*
X0514743Y0305178D02*
X0511594D01*
Y0300456D01*
X0514743D01*
X0511594Y0302817D02*
X0513169D01*
X0516317Y0300456D02*
Y0305178D01*
X0518679D01*
X0519466Y0304391D01*
Y0302817D01*
X0518679Y0302030D01*
X0516317D01*
X0517892D02*
X0519466Y0300456D01*
X0484438Y0297621D02*
Y0294473D01*
X0486012Y0292898D01*
X0487586Y0294473D01*
Y0297621D01*
X0489161Y0292898D02*
X0490735D01*
X0489948D01*
Y0297621D01*
X0489161Y0296834D01*
X0493097Y0292898D02*
Y0293686D01*
X0493884D01*
Y0292898D01*
X0493097D01*
X0499394D02*
Y0297621D01*
X0497032Y0295260D01*
X0500181D01*
X0474992Y0285341D02*
X0476567D01*
X0475779D01*
Y0288490D01*
X0474992D01*
X0478928D02*
Y0285341D01*
Y0286915D01*
X0479715Y0287703D01*
X0480502Y0288490D01*
X0481289D01*
X0483651Y0285341D02*
Y0288490D01*
X0486012D01*
X0486799Y0287703D01*
Y0285341D01*
X0489161Y0288490D02*
X0490735D01*
X0491522Y0287703D01*
Y0285341D01*
X0489161D01*
X0488374Y0286128D01*
X0489161Y0286915D01*
X0491522D01*
X0493097Y0285341D02*
X0495458D01*
X0496245Y0286128D01*
X0495458Y0286915D01*
X0493884D01*
X0493097Y0287703D01*
X0493884Y0288490D01*
X0496245D01*
X0497819Y0285341D02*
Y0286128D01*
X0498607D01*
Y0285341D01*
X0497819D01*
X0504117D02*
X0502542D01*
X0501755Y0286128D01*
Y0287703D01*
X0502542Y0288490D01*
X0504117D01*
X0504904Y0287703D01*
Y0286915D01*
X0501755D01*
X0506478Y0288490D02*
Y0286128D01*
X0507265Y0285341D01*
X0509627D01*
Y0288490D01*
D18*
X0069213Y0020669D02*
X0100669D01*
X0094370Y0014370D02*
X0100669Y0020669D01*
X0094370Y0026969D02*
X0100669Y0020669D01*
X0013819Y0070472D02*
X0020118Y0076772D01*
X0026417Y0070472D01*
X0020118Y0045315D02*
Y0076772D01*
D19*
X0055157Y0103380D02*
X0052796D01*
X0051615Y0102199D01*
Y0097476D01*
X0052796Y0096296D01*
X0055157D01*
X0056338Y0097476D01*
Y0102199D01*
X0055157Y0103380D01*
X0058699Y0096296D02*
Y0103380D01*
X0062242D01*
X0063422Y0102199D01*
Y0099838D01*
X0062242Y0098657D01*
X0058699D01*
X0070507Y0103380D02*
X0065784D01*
Y0096296D01*
X0070507D01*
X0065784Y0099838D02*
X0068145D01*
X0072868Y0096296D02*
Y0103380D01*
X0077591Y0096296D01*
Y0103380D01*
X0084675Y0102199D02*
X0083495Y0103380D01*
X0081133D01*
X0079952Y0102199D01*
Y0097476D01*
X0081133Y0096296D01*
X0083495D01*
X0084675Y0097476D01*
X0090579Y0103380D02*
X0088217D01*
X0087037Y0102199D01*
Y0097476D01*
X0088217Y0096296D01*
X0090579D01*
X0091760Y0097476D01*
Y0102199D01*
X0090579Y0103380D01*
X0094121D02*
Y0096296D01*
X0098844D01*
X0101205Y0103380D02*
Y0096296D01*
X0105928D01*
X0108290D02*
Y0101019D01*
X0110651Y0103380D01*
X0113013Y0101019D01*
Y0096296D01*
Y0099838D01*
X0108290D01*
X0115374Y0096296D02*
Y0103380D01*
X0118916D01*
X0120097Y0102199D01*
Y0099838D01*
X0118916Y0098657D01*
X0115374D01*
X0117735D02*
X0120097Y0096296D01*
X0056338Y0090863D02*
X0055157Y0092044D01*
X0052796D01*
X0051615Y0090863D01*
Y0089683D01*
X0052796Y0088502D01*
X0055157D01*
X0056338Y0087321D01*
Y0086141D01*
X0055157Y0084960D01*
X0052796D01*
X0051615Y0086141D01*
X0058699Y0084960D02*
Y0092044D01*
X0061061Y0089683D01*
X0063422Y0092044D01*
Y0084960D01*
X0065784D02*
Y0089683D01*
X0068145Y0092044D01*
X0070507Y0089683D01*
Y0084960D01*
Y0088502D01*
X0065784D01*
X0072868Y0084960D02*
Y0092044D01*
X0076410D01*
X0077591Y0090863D01*
Y0088502D01*
X0076410Y0087321D01*
X0072868D01*
X0075230D02*
X0077591Y0084960D01*
X0079952Y0092044D02*
X0084675D01*
X0082314D01*
Y0084960D01*
X0087037D02*
Y0092044D01*
X0090579D01*
X0091760Y0090863D01*
Y0088502D01*
X0090579Y0087321D01*
X0087037D01*
X0094121Y0084960D02*
Y0089683D01*
X0096482Y0092044D01*
X0098844Y0089683D01*
Y0084960D01*
Y0088502D01*
X0094121D01*
X0101205Y0084960D02*
Y0092044D01*
X0104747D01*
X0105928Y0090863D01*
Y0088502D01*
X0104747Y0087321D01*
X0101205D01*
X0103567D02*
X0105928Y0084960D01*
X0108290Y0092044D02*
Y0084960D01*
Y0087321D01*
X0113013Y0092044D01*
X0109470Y0088502D01*
X0113013Y0084960D01*
X0120097Y0090863D02*
X0118916Y0092044D01*
X0116555D01*
X0115374Y0090863D01*
Y0089683D01*
X0116555Y0088502D01*
X0118916D01*
X0120097Y0087321D01*
Y0086141D01*
X0118916Y0084960D01*
X0116555D01*
X0115374Y0086141D01*
X0157519Y0103380D02*
X0155158D01*
X0153977Y0102199D01*
Y0097476D01*
X0155158Y0096296D01*
X0157519D01*
X0158700Y0097476D01*
Y0102199D01*
X0157519Y0103380D01*
X0161062Y0096296D02*
Y0103380D01*
X0164604D01*
X0165785Y0102199D01*
Y0099838D01*
X0164604Y0098657D01*
X0161062D01*
X0172869Y0103380D02*
X0168146D01*
Y0096296D01*
X0172869D01*
X0168146Y0099838D02*
X0170507D01*
X0175230Y0096296D02*
Y0103380D01*
X0179953Y0096296D01*
Y0103380D01*
X0187037Y0102199D02*
X0185857Y0103380D01*
X0183495D01*
X0182315Y0102199D01*
Y0097476D01*
X0183495Y0096296D01*
X0185857D01*
X0187037Y0097476D01*
X0192941Y0103380D02*
X0190580D01*
X0189399Y0102199D01*
Y0097476D01*
X0190580Y0096296D01*
X0192941D01*
X0194122Y0097476D01*
Y0102199D01*
X0192941Y0103380D01*
X0196483D02*
Y0096296D01*
X0201206D01*
X0203568Y0103380D02*
Y0096296D01*
X0208290D01*
X0210652D02*
Y0101019D01*
X0213013Y0103380D01*
X0215375Y0101019D01*
Y0096296D01*
Y0099838D01*
X0210652D01*
X0217736Y0096296D02*
Y0103380D01*
X0221278D01*
X0222459Y0102199D01*
Y0099838D01*
X0221278Y0098657D01*
X0217736D01*
X0220098D02*
X0222459Y0096296D01*
X0158700Y0090863D02*
X0157519Y0092044D01*
X0155158D01*
X0153977Y0090863D01*
Y0089683D01*
X0155158Y0088502D01*
X0157519D01*
X0158700Y0087321D01*
Y0086141D01*
X0157519Y0084960D01*
X0155158D01*
X0153977Y0086141D01*
X0161062Y0084960D02*
Y0092044D01*
X0163423Y0089683D01*
X0165785Y0092044D01*
Y0084960D01*
X0168146D02*
Y0089683D01*
X0170507Y0092044D01*
X0172869Y0089683D01*
Y0084960D01*
Y0088502D01*
X0168146D01*
X0175230Y0084960D02*
Y0092044D01*
X0178772D01*
X0179953Y0090863D01*
Y0088502D01*
X0178772Y0087321D01*
X0175230D01*
X0177592D02*
X0179953Y0084960D01*
X0182315Y0092044D02*
X0187037D01*
X0184676D01*
Y0084960D01*
X0189399D02*
Y0092044D01*
X0192941D01*
X0194122Y0090863D01*
Y0088502D01*
X0192941Y0087321D01*
X0189399D01*
X0196483Y0084960D02*
Y0089683D01*
X0198845Y0092044D01*
X0201206Y0089683D01*
Y0084960D01*
Y0088502D01*
X0196483D01*
X0203568Y0084960D02*
Y0092044D01*
X0207110D01*
X0208290Y0090863D01*
Y0088502D01*
X0207110Y0087321D01*
X0203568D01*
X0205929D02*
X0208290Y0084960D01*
X0210652Y0092044D02*
Y0084960D01*
Y0087321D01*
X0215375Y0092044D01*
X0211833Y0088502D01*
X0215375Y0084960D01*
X0222459Y0090863D02*
X0221278Y0092044D01*
X0218917D01*
X0217736Y0090863D01*
Y0089683D01*
X0218917Y0088502D01*
X0221278D01*
X0222459Y0087321D01*
Y0086141D01*
X0221278Y0084960D01*
X0218917D01*
X0217736Y0086141D01*
X0259882Y0103380D02*
X0257520D01*
X0256340Y0102199D01*
Y0097476D01*
X0257520Y0096296D01*
X0259882D01*
X0261062Y0097476D01*
Y0102199D01*
X0259882Y0103380D01*
X0263424Y0096296D02*
Y0103380D01*
X0266966D01*
X0268147Y0102199D01*
Y0099838D01*
X0266966Y0098657D01*
X0263424D01*
X0275231Y0103380D02*
X0270508D01*
Y0096296D01*
X0275231D01*
X0270508Y0099838D02*
X0272869D01*
X0277592Y0096296D02*
Y0103380D01*
X0282315Y0096296D01*
Y0103380D01*
X0289400Y0102199D02*
X0288219Y0103380D01*
X0285858D01*
X0284677Y0102199D01*
Y0097476D01*
X0285858Y0096296D01*
X0288219D01*
X0289400Y0097476D01*
X0295303Y0103380D02*
X0292942D01*
X0291761Y0102199D01*
Y0097476D01*
X0292942Y0096296D01*
X0295303D01*
X0296484Y0097476D01*
Y0102199D01*
X0295303Y0103380D01*
X0298845D02*
Y0096296D01*
X0303568D01*
X0305930Y0103380D02*
Y0096296D01*
X0310653D01*
X0313014D02*
Y0101019D01*
X0315375Y0103380D01*
X0317737Y0101019D01*
Y0096296D01*
Y0099838D01*
X0313014D01*
X0320098Y0096296D02*
Y0103380D01*
X0323640D01*
X0324821Y0102199D01*
Y0099838D01*
X0323640Y0098657D01*
X0320098D01*
X0322460D02*
X0324821Y0096296D01*
X0261062Y0090863D02*
X0259882Y0092044D01*
X0257520D01*
X0256340Y0090863D01*
Y0089683D01*
X0257520Y0088502D01*
X0259882D01*
X0261062Y0087321D01*
Y0086141D01*
X0259882Y0084960D01*
X0257520D01*
X0256340Y0086141D01*
X0263424Y0084960D02*
Y0092044D01*
X0265785Y0089683D01*
X0268147Y0092044D01*
Y0084960D01*
X0270508D02*
Y0089683D01*
X0272869Y0092044D01*
X0275231Y0089683D01*
Y0084960D01*
Y0088502D01*
X0270508D01*
X0277592Y0084960D02*
Y0092044D01*
X0281135D01*
X0282315Y0090863D01*
Y0088502D01*
X0281135Y0087321D01*
X0277592D01*
X0279954D02*
X0282315Y0084960D01*
X0284677Y0092044D02*
X0289400D01*
X0287038D01*
Y0084960D01*
X0291761D02*
Y0092044D01*
X0295303D01*
X0296484Y0090863D01*
Y0088502D01*
X0295303Y0087321D01*
X0291761D01*
X0298845Y0084960D02*
Y0089683D01*
X0301207Y0092044D01*
X0303568Y0089683D01*
Y0084960D01*
Y0088502D01*
X0298845D01*
X0305930Y0084960D02*
Y0092044D01*
X0309472D01*
X0310653Y0090863D01*
Y0088502D01*
X0309472Y0087321D01*
X0305930D01*
X0308291D02*
X0310653Y0084960D01*
X0313014Y0092044D02*
Y0084960D01*
Y0087321D01*
X0317737Y0092044D01*
X0314195Y0088502D01*
X0317737Y0084960D01*
X0324821Y0090863D02*
X0323640Y0092044D01*
X0321279D01*
X0320098Y0090863D01*
Y0089683D01*
X0321279Y0088502D01*
X0323640D01*
X0324821Y0087321D01*
Y0086141D01*
X0323640Y0084960D01*
X0321279D01*
X0320098Y0086141D01*
X0362244Y0103380D02*
X0359882D01*
X0358702Y0102199D01*
Y0097476D01*
X0359882Y0096296D01*
X0362244D01*
X0363424Y0097476D01*
Y0102199D01*
X0362244Y0103380D01*
X0365786Y0096296D02*
Y0103380D01*
X0369328D01*
X0370509Y0102199D01*
Y0099838D01*
X0369328Y0098657D01*
X0365786D01*
X0377593Y0103380D02*
X0372870D01*
Y0096296D01*
X0377593D01*
X0372870Y0099838D02*
X0375232D01*
X0379955Y0096296D02*
Y0103380D01*
X0384678Y0096296D01*
Y0103380D01*
X0391762Y0102199D02*
X0390581Y0103380D01*
X0388220D01*
X0387039Y0102199D01*
Y0097476D01*
X0388220Y0096296D01*
X0390581D01*
X0391762Y0097476D01*
X0397665Y0103380D02*
X0395304D01*
X0394123Y0102199D01*
Y0097476D01*
X0395304Y0096296D01*
X0397665D01*
X0398846Y0097476D01*
Y0102199D01*
X0397665Y0103380D01*
X0401208D02*
Y0096296D01*
X0405931D01*
X0408292Y0103380D02*
Y0096296D01*
X0413015D01*
X0415376D02*
Y0101019D01*
X0417738Y0103380D01*
X0420099Y0101019D01*
Y0096296D01*
Y0099838D01*
X0415376D01*
X0422461Y0096296D02*
Y0103380D01*
X0426003D01*
X0427183Y0102199D01*
Y0099838D01*
X0426003Y0098657D01*
X0422461D01*
X0424822D02*
X0427183Y0096296D01*
X0363424Y0090863D02*
X0362244Y0092044D01*
X0359882D01*
X0358702Y0090863D01*
Y0089683D01*
X0359882Y0088502D01*
X0362244D01*
X0363424Y0087321D01*
Y0086141D01*
X0362244Y0084960D01*
X0359882D01*
X0358702Y0086141D01*
X0365786Y0084960D02*
Y0092044D01*
X0368147Y0089683D01*
X0370509Y0092044D01*
Y0084960D01*
X0372870D02*
Y0089683D01*
X0375232Y0092044D01*
X0377593Y0089683D01*
Y0084960D01*
Y0088502D01*
X0372870D01*
X0379955Y0084960D02*
Y0092044D01*
X0383497D01*
X0384678Y0090863D01*
Y0088502D01*
X0383497Y0087321D01*
X0379955D01*
X0382316D02*
X0384678Y0084960D01*
X0387039Y0092044D02*
X0391762D01*
X0389400D01*
Y0084960D01*
X0394123D02*
Y0092044D01*
X0397665D01*
X0398846Y0090863D01*
Y0088502D01*
X0397665Y0087321D01*
X0394123D01*
X0401208Y0084960D02*
Y0089683D01*
X0403569Y0092044D01*
X0405931Y0089683D01*
Y0084960D01*
Y0088502D01*
X0401208D01*
X0408292Y0084960D02*
Y0092044D01*
X0411834D01*
X0413015Y0090863D01*
Y0088502D01*
X0411834Y0087321D01*
X0408292D01*
X0410653D02*
X0413015Y0084960D01*
X0415376Y0092044D02*
Y0084960D01*
Y0087321D01*
X0420099Y0092044D01*
X0416557Y0088502D01*
X0420099Y0084960D01*
X0427183Y0090863D02*
X0426003Y0092044D01*
X0423641D01*
X0422461Y0090863D01*
Y0089683D01*
X0423641Y0088502D01*
X0426003D01*
X0427183Y0087321D01*
Y0086141D01*
X0426003Y0084960D01*
X0423641D01*
X0422461Y0086141D01*
X0464606Y0103380D02*
X0462245D01*
X0461064Y0102199D01*
Y0097476D01*
X0462245Y0096296D01*
X0464606D01*
X0465787Y0097476D01*
Y0102199D01*
X0464606Y0103380D01*
X0468148Y0096296D02*
Y0103380D01*
X0471690D01*
X0472871Y0102199D01*
Y0099838D01*
X0471690Y0098657D01*
X0468148D01*
X0479955Y0103380D02*
X0475233D01*
Y0096296D01*
X0479955D01*
X0475233Y0099838D02*
X0477594D01*
X0482317Y0096296D02*
Y0103380D01*
X0487040Y0096296D01*
Y0103380D01*
X0494124Y0102199D02*
X0492943Y0103380D01*
X0490582D01*
X0489401Y0102199D01*
Y0097476D01*
X0490582Y0096296D01*
X0492943D01*
X0494124Y0097476D01*
X0500028Y0103380D02*
X0497666D01*
X0496486Y0102199D01*
Y0097476D01*
X0497666Y0096296D01*
X0500028D01*
X0501208Y0097476D01*
Y0102199D01*
X0500028Y0103380D01*
X0503570D02*
Y0096296D01*
X0508293D01*
X0510654Y0103380D02*
Y0096296D01*
X0515377D01*
X0517738D02*
Y0101019D01*
X0520100Y0103380D01*
X0522461Y0101019D01*
Y0096296D01*
Y0099838D01*
X0517738D01*
X0524823Y0096296D02*
Y0103380D01*
X0528365D01*
X0529546Y0102199D01*
Y0099838D01*
X0528365Y0098657D01*
X0524823D01*
X0527184D02*
X0529546Y0096296D01*
X0465787Y0090863D02*
X0464606Y0092044D01*
X0462245D01*
X0461064Y0090863D01*
Y0089683D01*
X0462245Y0088502D01*
X0464606D01*
X0465787Y0087321D01*
Y0086141D01*
X0464606Y0084960D01*
X0462245D01*
X0461064Y0086141D01*
X0468148Y0084960D02*
Y0092044D01*
X0470510Y0089683D01*
X0472871Y0092044D01*
Y0084960D01*
X0475233D02*
Y0089683D01*
X0477594Y0092044D01*
X0479955Y0089683D01*
Y0084960D01*
Y0088502D01*
X0475233D01*
X0482317Y0084960D02*
Y0092044D01*
X0485859D01*
X0487040Y0090863D01*
Y0088502D01*
X0485859Y0087321D01*
X0482317D01*
X0484678D02*
X0487040Y0084960D01*
X0489401Y0092044D02*
X0494124D01*
X0491763D01*
Y0084960D01*
X0496486D02*
Y0092044D01*
X0500028D01*
X0501208Y0090863D01*
Y0088502D01*
X0500028Y0087321D01*
X0496486D01*
X0503570Y0084960D02*
Y0089683D01*
X0505931Y0092044D01*
X0508293Y0089683D01*
Y0084960D01*
Y0088502D01*
X0503570D01*
X0510654Y0084960D02*
Y0092044D01*
X0514196D01*
X0515377Y0090863D01*
Y0088502D01*
X0514196Y0087321D01*
X0510654D01*
X0513016D02*
X0515377Y0084960D01*
X0517738Y0092044D02*
Y0084960D01*
Y0087321D01*
X0522461Y0092044D01*
X0518919Y0088502D01*
X0522461Y0084960D01*
X0529546Y0090863D02*
X0528365Y0092044D01*
X0526003D01*
X0524823Y0090863D01*
Y0089683D01*
X0526003Y0088502D01*
X0528365D01*
X0529546Y0087321D01*
Y0086141D01*
X0528365Y0084960D01*
X0526003D01*
X0524823Y0086141D01*
D75*
X0040981Y0142499D02*
X0053981D01*
Y0117499D02*
Y0142499D01*
X0040981Y0117499D02*
X0053981D01*
X0040981D02*
Y0142499D01*
X0143343D02*
X0156343D01*
Y0117499D02*
Y0142499D01*
X0143343Y0117499D02*
X0156343D01*
X0143343D02*
Y0142499D01*
X0245706D02*
X0258706D01*
Y0117499D02*
Y0142499D01*
X0245706Y0117499D02*
X0258706D01*
X0245706D02*
Y0142499D01*
X0348068D02*
X0361068D01*
Y0117499D02*
Y0142499D01*
X0348068Y0117499D02*
X0361068D01*
X0348068D02*
Y0142499D01*
X0450430D02*
X0463430D01*
Y0117499D02*
Y0142499D01*
X0450430Y0117499D02*
X0463430D01*
X0450430D02*
Y0142499D01*
D76*
X0063146Y0124205D02*
X0064746D01*
X0063146Y0123805D02*
X0064746D01*
X0063546Y0123405D02*
X0065146D01*
X0063546Y0123005D02*
X0065546D01*
X0063946Y0122605D02*
X0065546D01*
X0064346Y0122205D02*
X0065946D01*
X0059946Y0132205D02*
X0061146D01*
X0059946Y0131805D02*
X0061146D01*
X0059946Y0131405D02*
X0061146D01*
X0059946Y0131005D02*
X0061546D01*
X0060346Y0130605D02*
X0061546D01*
X0060346Y0130205D02*
X0061546D01*
X0060346Y0129805D02*
X0061946D01*
X0060746Y0129405D02*
X0061946D01*
X0060746Y0129005D02*
X0062346D01*
X0060746Y0128605D02*
X0062346D01*
X0061146Y0128205D02*
X0062346D01*
X0061146Y0127805D02*
X0062746D01*
X0061146Y0127405D02*
X0062746D01*
X0061546Y0127005D02*
X0063146D01*
X0061546Y0126605D02*
X0063146D01*
X0061946Y0126205D02*
X0063546D01*
X0061946Y0125805D02*
X0063546D01*
X0062346Y0125405D02*
X0063946D01*
X0062346Y0125005D02*
X0063946D01*
X0059946Y0137005D02*
X0060346D01*
X0059146Y0136605D02*
X0060346D01*
X0059146Y0136205D02*
X0060346D01*
X0059146Y0135805D02*
X0060346D01*
X0059146Y0135405D02*
X0060346D01*
X0059146Y0135005D02*
X0060746D01*
X0059546Y0134605D02*
X0060746D01*
X0059546Y0134205D02*
X0060746D01*
X0059546Y0133805D02*
X0060746D01*
X0059546Y0133405D02*
X0060746D01*
X0059546Y0133005D02*
X0060746D01*
X0070346Y0116205D02*
X0072746D01*
X0070746Y0115805D02*
X0073546D01*
X0070346Y0124205D02*
X0072346D01*
X0070746Y0123805D02*
X0072746D01*
X0071146Y0123405D02*
X0073146D01*
X0071546Y0123005D02*
X0073546D01*
X0071946Y0122605D02*
X0073946D01*
X0066746Y0119405D02*
X0068746D01*
X0067146Y0119005D02*
X0069146D01*
X0067546Y0118605D02*
X0069546D01*
X0067946Y0118205D02*
X0069946D01*
X0068346Y0117805D02*
X0070346D01*
X0068746Y0117405D02*
X0071146D01*
X0069146Y0117005D02*
X0071546D01*
X0070746Y0132205D02*
X0071946D01*
X0072746D02*
X0073546D01*
X0071146Y0131805D02*
X0071946D01*
X0072746D02*
X0073546D01*
X0071146Y0131405D02*
X0072346D01*
X0073146D02*
X0073946D01*
X0071146Y0131005D02*
X0072346D01*
X0071546Y0130605D02*
X0072346D01*
X0066746Y0130205D02*
X0067946D01*
X0071946D02*
X0072746D01*
X0066746Y0129805D02*
X0068346D01*
X0071946D02*
X0072746D01*
X0067146Y0129405D02*
X0068346D01*
X0072346D02*
X0072746D01*
X0067146Y0129005D02*
X0068746D01*
X0067546Y0128605D02*
X0069146D01*
X0067546Y0128205D02*
X0069146D01*
X0067946Y0127805D02*
X0069546D01*
X0067946Y0127405D02*
X0069546D01*
X0068346Y0127005D02*
X0069946D01*
X0068346Y0126605D02*
X0070346D01*
X0068746Y0126205D02*
X0070346D01*
X0069146Y0125805D02*
X0070746D01*
X0069546Y0125405D02*
X0071146D01*
X0069546Y0125005D02*
X0071546D01*
X0069546Y0140205D02*
X0072346D01*
X0069546Y0139805D02*
X0072346D01*
X0069546Y0139405D02*
X0072346D01*
X0069546Y0139005D02*
X0072346D01*
X0069546Y0138605D02*
X0071946D01*
X0069546Y0138205D02*
X0071946D01*
X0069546Y0137805D02*
X0071946D01*
X0069546Y0137405D02*
X0071946D01*
X0069546Y0137005D02*
X0071946D01*
X0069546Y0136605D02*
X0071946D01*
X0069946Y0136205D02*
X0071946D01*
X0069946Y0135805D02*
X0071546D01*
X0069946Y0135405D02*
X0071546D01*
X0069946Y0135005D02*
X0071546D01*
X0069946Y0134605D02*
X0071546D01*
X0070346Y0134205D02*
X0071946D01*
X0070346Y0133805D02*
X0071946D01*
X0070346Y0133405D02*
X0071946D01*
X0070346Y0133005D02*
X0071946D01*
X0070346Y0143405D02*
X0073946D01*
X0070346Y0143005D02*
X0073946D01*
X0069946Y0142605D02*
X0073546D01*
X0069946Y0142205D02*
X0073546D01*
X0069946Y0141805D02*
X0073146D01*
X0069946Y0141405D02*
X0073146D01*
X0069946Y0141005D02*
X0072746D01*
X0075146Y0113405D02*
X0076346D01*
X0075146Y0120205D02*
X0077146D01*
X0075946Y0119805D02*
X0076746D01*
X0074746Y0128605D02*
X0076746D01*
X0074746Y0128205D02*
X0077546D01*
X0075146Y0127805D02*
X0077946D01*
X0075546Y0127405D02*
X0078746D01*
X0075946Y0127005D02*
X0079546D01*
X0076346Y0126605D02*
X0080346D01*
X0076746Y0126205D02*
X0081546D01*
X0084746Y0122205D02*
X0089946D01*
X0094746Y0129005D02*
X0097146D01*
X0094346Y0128605D02*
X0097146D01*
X0091546Y0127005D02*
X0095546D01*
X0090746Y0126605D02*
X0095546D01*
X0093546Y0125805D02*
X0097546D01*
X0093946Y0125405D02*
X0097146D01*
X0093546Y0125005D02*
X0096346D01*
X0095546Y0148205D02*
X0097946D01*
X0095946Y0147805D02*
X0097946D01*
X0094746Y0156205D02*
X0097546D01*
X0091546Y0150205D02*
X0095946D01*
X0092746Y0149805D02*
X0096346D01*
X0093546Y0149405D02*
X0096746D01*
X0094346Y0149005D02*
X0097146D01*
X0096346Y0163405D02*
X0096746D01*
X0096346Y0163005D02*
X0097546D01*
X0094746Y0157405D02*
X0095546D01*
X0094746Y0157005D02*
X0096346D01*
X0100746Y0140205D02*
X0102746D01*
X0100746Y0139805D02*
X0102746D01*
X0100746Y0139405D02*
X0102746D01*
X0100746Y0139005D02*
X0102746D01*
X0100746Y0138605D02*
X0102746D01*
X0100346Y0138205D02*
X0102746D01*
X0100346Y0137805D02*
X0102746D01*
X0100346Y0137405D02*
X0102746D01*
X0100346Y0137005D02*
X0102746D01*
X0099946Y0136605D02*
X0102746D01*
X0099946Y0136205D02*
X0102746D01*
X0099946Y0135805D02*
X0102746D01*
X0099546Y0135405D02*
X0102746D01*
X0099546Y0135005D02*
X0102746D01*
X0099146Y0134605D02*
X0102746D01*
X0099146Y0134205D02*
X0102346D01*
X0098746Y0133805D02*
X0102346D01*
X0098746Y0133405D02*
X0102346D01*
X0103546Y0148205D02*
X0105146D01*
X0103546Y0147805D02*
X0105146D01*
X0099946Y0147405D02*
X0100346D01*
X0103946D02*
X0105546D01*
X0099946Y0147005D02*
X0100346D01*
X0104346D02*
X0105546D01*
X0099946Y0146605D02*
X0100746D01*
X0104346D02*
X0105946D01*
X0099946Y0146205D02*
X0100746D01*
X0104346D02*
X0105946D01*
X0100346Y0145805D02*
X0101146D01*
X0104746D02*
X0105946D01*
X0100346Y0145405D02*
X0101546D01*
X0098746Y0145005D02*
X0099546D01*
X0100346D02*
X0101546D01*
X0099146Y0144605D02*
X0099946D01*
X0100346D02*
X0101546D01*
X0099546Y0144205D02*
X0099946D01*
X0100746D02*
X0101946D01*
X0100746Y0143805D02*
X0101946D01*
X0100746Y0143405D02*
X0101946D01*
X0100746Y0143005D02*
X0102346D01*
X0100746Y0142605D02*
X0102346D01*
X0100746Y0142205D02*
X0102346D01*
X0100746Y0141805D02*
X0102746D01*
X0100746Y0141405D02*
X0102746D01*
X0100746Y0141005D02*
X0102746D01*
X0098746Y0153805D02*
X0100746D01*
X0099146Y0153405D02*
X0101146D01*
X0099546Y0153005D02*
X0101546D01*
X0099946Y0152605D02*
X0101946D01*
X0100346Y0152205D02*
X0102346D01*
X0100746Y0151805D02*
X0102746D01*
X0101146Y0151405D02*
X0103146D01*
X0101546Y0151005D02*
X0103546D01*
X0101946Y0150605D02*
X0103546D01*
X0102346Y0150205D02*
X0103946D01*
X0102346Y0149805D02*
X0104346D01*
X0102746Y0149405D02*
X0104346D01*
X0103146Y0149005D02*
X0104746D01*
X0098746Y0161005D02*
X0101146D01*
X0099146Y0160605D02*
X0101946D01*
X0099946Y0160205D02*
X0102346D01*
X0100746Y0159805D02*
X0103146D01*
X0101146Y0159405D02*
X0103546D01*
X0101546Y0159005D02*
X0103946D01*
X0102346Y0158605D02*
X0104346D01*
X0102746Y0158205D02*
X0104746D01*
X0103146Y0157805D02*
X0105146D01*
X0103546Y0157405D02*
X0105546D01*
X0103946Y0157005D02*
X0105946D01*
X0112346Y0140205D02*
X0113546D01*
X0110346Y0148205D02*
X0111546D01*
X0110346Y0147805D02*
X0111946D01*
X0110346Y0147405D02*
X0111946D01*
X0110746Y0147005D02*
X0111946D01*
X0110746Y0146605D02*
X0112346D01*
X0110746Y0146205D02*
X0112346D01*
X0111146Y0145805D02*
X0112346D01*
X0111146Y0145405D02*
X0112746D01*
X0111146Y0145005D02*
X0112746D01*
X0111546Y0144605D02*
X0112746D01*
X0111546Y0144205D02*
X0112746D01*
X0111546Y0143805D02*
X0112746D01*
X0111546Y0143405D02*
X0113146D01*
X0111946Y0143005D02*
X0113146D01*
X0111946Y0142605D02*
X0113146D01*
X0111946Y0142205D02*
X0113146D01*
X0111946Y0141805D02*
X0113146D01*
X0111946Y0141405D02*
X0113146D01*
X0111946Y0141005D02*
X0113546D01*
X0106746Y0154205D02*
X0108346D01*
X0107146Y0153805D02*
X0108746D01*
X0107146Y0153405D02*
X0109146D01*
X0107546Y0153005D02*
X0109146D01*
X0107946Y0152605D02*
X0109546D01*
X0107946Y0152205D02*
X0109546D01*
X0108346Y0151805D02*
X0109946D01*
X0108746Y0151405D02*
X0110346D01*
X0108746Y0151005D02*
X0110346D01*
X0109146Y0150605D02*
X0110746D01*
X0109146Y0150205D02*
X0110746D01*
X0109546Y0149805D02*
X0111146D01*
X0109546Y0149405D02*
X0111146D01*
X0109946Y0149005D02*
X0111146D01*
X0062746Y0124605D02*
X0064346D01*
X0059546Y0132605D02*
X0061146D01*
X0069946Y0124605D02*
X0071946D01*
X0069946Y0116605D02*
X0072346D01*
X0069946Y0140605D02*
X0072746D01*
X0070746Y0132605D02*
X0071946D01*
X0094346Y0156605D02*
X0097146D01*
X0094746Y0148605D02*
X0097546D01*
X0103146D02*
X0104746D01*
X0100746Y0140605D02*
X0102746D01*
X0109946Y0148605D02*
X0111546D01*
X0111946Y0140605D02*
X0113546D01*
X0071546Y0115405D02*
X0074346D01*
X0071946Y0115005D02*
X0075146D01*
X0072746Y0114605D02*
X0075946D01*
X0073546Y0114205D02*
X0076346D01*
X0074346Y0113805D02*
X0076346D01*
X0072346Y0122205D02*
X0074746D01*
X0064746Y0121805D02*
X0066346D01*
X0072746D02*
X0075146D01*
X0064746Y0121405D02*
X0066746D01*
X0073546D02*
X0075946D01*
X0065146Y0121005D02*
X0067146D01*
X0073946D02*
X0076346D01*
X0065546Y0120605D02*
X0067546D01*
X0074346D02*
X0077146D01*
X0065946Y0120205D02*
X0067946D01*
X0066346Y0119805D02*
X0068346D01*
X0065946Y0132205D02*
X0067546D01*
X0065946Y0131805D02*
X0067546D01*
X0066346Y0131405D02*
X0067546D01*
X0066346Y0131005D02*
X0067946D01*
X0073146D02*
X0074346D01*
X0066346Y0130605D02*
X0067946D01*
X0073546D02*
X0074746D01*
X0073546Y0130205D02*
X0075146D01*
X0073946Y0129805D02*
X0075546D01*
X0073946Y0129405D02*
X0075946D01*
X0074346Y0129005D02*
X0076346D01*
X0065146Y0137005D02*
X0066346D01*
X0065146Y0136605D02*
X0066346D01*
X0065146Y0136205D02*
X0066346D01*
X0065146Y0135805D02*
X0066346D01*
X0065146Y0135405D02*
X0066746D01*
X0065546Y0135005D02*
X0066746D01*
X0065546Y0134605D02*
X0066746D01*
X0065546Y0134205D02*
X0066746D01*
X0065546Y0133805D02*
X0066746D01*
X0065546Y0133405D02*
X0067146D01*
X0065946Y0133005D02*
X0067146D01*
X0072346Y0147805D02*
X0077946D01*
X0072346Y0147405D02*
X0077546D01*
X0071946Y0147005D02*
X0076746D01*
X0071546Y0146605D02*
X0076346D01*
X0071546Y0146205D02*
X0075946D01*
X0071146Y0145805D02*
X0075946D01*
X0071146Y0145405D02*
X0075546D01*
X0070746Y0145005D02*
X0075146D01*
X0070746Y0144605D02*
X0074746D01*
X0070746Y0144205D02*
X0074346D01*
X0070346Y0143805D02*
X0074346D01*
X0079146Y0124205D02*
X0095146D01*
X0079946Y0123805D02*
X0094746D01*
X0080746Y0123405D02*
X0093946D01*
X0081546Y0123005D02*
X0092746D01*
X0082746Y0122605D02*
X0091546D01*
X0097946Y0132205D02*
X0101946D01*
X0097546Y0131805D02*
X0101546D01*
X0097146Y0131405D02*
X0101546D01*
X0097146Y0131005D02*
X0101546D01*
X0096746Y0130605D02*
X0101146D01*
X0096346Y0130205D02*
X0101146D01*
X0095946Y0129805D02*
X0100746D01*
X0095546Y0129405D02*
X0100346D01*
X0097946Y0129005D02*
X0100346D01*
X0097946Y0128605D02*
X0099946D01*
X0093946Y0128205D02*
X0099546D01*
X0093146Y0127805D02*
X0099546D01*
X0092346Y0127405D02*
X0099146D01*
X0096346Y0127005D02*
X0098746D01*
X0096346Y0126605D02*
X0098346D01*
X0089546Y0126205D02*
X0097946D01*
X0087546Y0125805D02*
X0093146D01*
X0105946Y0140205D02*
X0107546D01*
X0106346Y0139805D02*
X0107546D01*
X0098346Y0133005D02*
X0102346D01*
X0096346Y0147405D02*
X0098346D01*
X0097146Y0147005D02*
X0098746D01*
X0097546Y0146605D02*
X0098746D01*
X0097946Y0146205D02*
X0099146D01*
X0097946Y0145805D02*
X0099146D01*
X0098346Y0145405D02*
X0099546D01*
X0104746D02*
X0106346D01*
X0105146Y0145005D02*
X0106346D01*
X0105146Y0144605D02*
X0106346D01*
X0105146Y0144205D02*
X0106746D01*
X0105546Y0143805D02*
X0106746D01*
X0105546Y0143405D02*
X0106746D01*
X0105546Y0143005D02*
X0107146D01*
X0105546Y0142605D02*
X0107146D01*
X0105946Y0142205D02*
X0107146D01*
X0105946Y0141805D02*
X0107146D01*
X0105946Y0141405D02*
X0107146D01*
X0105946Y0141005D02*
X0107146D01*
X0104746Y0156205D02*
X0106746D01*
X0095546Y0155805D02*
X0098346D01*
X0105146D02*
X0107146D01*
X0096346Y0155405D02*
X0098746D01*
X0105546D02*
X0107546D01*
X0096746Y0155005D02*
X0099546D01*
X0105946D02*
X0107946D01*
X0097546Y0154605D02*
X0099946D01*
X0106346D02*
X0107946D01*
X0081546Y0154205D02*
X0089146D01*
X0097946D02*
X0100346D01*
X0080346Y0153805D02*
X0090346D01*
X0079146Y0153405D02*
X0091546D01*
X0087146Y0151005D02*
X0095146D01*
X0090346Y0150605D02*
X0095546D01*
X0095946Y0162605D02*
X0098746D01*
X0096346Y0162205D02*
X0099146D01*
X0097146Y0161805D02*
X0099946D01*
X0097946Y0161405D02*
X0100746D01*
X0065946Y0132605D02*
X0067146D01*
X0078746Y0124605D02*
X0095946D01*
X0104346Y0156605D02*
X0106346D01*
X0105946Y0140605D02*
X0107546D01*
X0098346Y0132605D02*
X0101946D01*
X0077146Y0125805D02*
X0083546D01*
X0077546Y0125405D02*
X0092746D01*
X0077946Y0125005D02*
X0093146D01*
X0072746Y0148205D02*
X0078346D01*
Y0153005D02*
X0092346D01*
X0077546Y0152605D02*
X0093146D01*
X0076746Y0152205D02*
X0093546D01*
X0075146Y0151005D02*
X0086746D01*
X0074746Y0150605D02*
X0083546D01*
X0074346Y0150205D02*
X0082346D01*
X0073946Y0149805D02*
X0081146D01*
X0073546Y0149405D02*
X0080346D01*
X0073146Y0149005D02*
X0079546D01*
X0073146Y0148605D02*
X0079146D01*
X0076346Y0151805D02*
X0094346D01*
X0075946Y0151405D02*
X0094746D01*
X0165508Y0124205D02*
X0167108D01*
X0165508Y0123805D02*
X0167108D01*
X0165908Y0123405D02*
X0167508D01*
X0165908Y0123005D02*
X0167908D01*
X0166308Y0122605D02*
X0167908D01*
X0166708Y0122205D02*
X0168308D01*
X0162308Y0132205D02*
X0163508D01*
X0162308Y0131805D02*
X0163508D01*
X0162308Y0131405D02*
X0163508D01*
X0162308Y0131005D02*
X0163908D01*
X0162708Y0130605D02*
X0163908D01*
X0162708Y0130205D02*
X0163908D01*
X0162708Y0129805D02*
X0164308D01*
X0163108Y0129405D02*
X0164308D01*
X0163108Y0129005D02*
X0164708D01*
X0163108Y0128605D02*
X0164708D01*
X0163508Y0128205D02*
X0164708D01*
X0163508Y0127805D02*
X0165108D01*
X0163508Y0127405D02*
X0165108D01*
X0163908Y0127005D02*
X0165508D01*
X0163908Y0126605D02*
X0165508D01*
X0164308Y0126205D02*
X0165908D01*
X0164308Y0125805D02*
X0165908D01*
X0164708Y0125405D02*
X0166308D01*
X0164708Y0125005D02*
X0166308D01*
X0162308Y0137005D02*
X0162708D01*
X0161508Y0136605D02*
X0162708D01*
X0161508Y0136205D02*
X0162708D01*
X0161508Y0135805D02*
X0162708D01*
X0161508Y0135405D02*
X0162708D01*
X0161508Y0135005D02*
X0163108D01*
X0161908Y0134605D02*
X0163108D01*
X0161908Y0134205D02*
X0163108D01*
X0161908Y0133805D02*
X0163108D01*
X0161908Y0133405D02*
X0163108D01*
X0161908Y0133005D02*
X0163108D01*
X0172708Y0116205D02*
X0175108D01*
X0173108Y0115805D02*
X0175908D01*
X0172708Y0124205D02*
X0174708D01*
X0173108Y0123805D02*
X0175108D01*
X0173508Y0123405D02*
X0175508D01*
X0173908Y0123005D02*
X0175908D01*
X0174308Y0122605D02*
X0176308D01*
X0169108Y0119405D02*
X0171108D01*
X0169508Y0119005D02*
X0171508D01*
X0169908Y0118605D02*
X0171908D01*
X0170308Y0118205D02*
X0172308D01*
X0170708Y0117805D02*
X0172708D01*
X0171108Y0117405D02*
X0173508D01*
X0171508Y0117005D02*
X0173908D01*
X0173108Y0132205D02*
X0174308D01*
X0175108D02*
X0175908D01*
X0173508Y0131805D02*
X0174308D01*
X0175108D02*
X0175908D01*
X0173508Y0131405D02*
X0174708D01*
X0175508D02*
X0176308D01*
X0173508Y0131005D02*
X0174708D01*
X0173908Y0130605D02*
X0174708D01*
X0169108Y0130205D02*
X0170308D01*
X0174308D02*
X0175108D01*
X0169108Y0129805D02*
X0170708D01*
X0174308D02*
X0175108D01*
X0169508Y0129405D02*
X0170708D01*
X0174708D02*
X0175108D01*
X0169508Y0129005D02*
X0171108D01*
X0169908Y0128605D02*
X0171508D01*
X0169908Y0128205D02*
X0171508D01*
X0170308Y0127805D02*
X0171908D01*
X0170308Y0127405D02*
X0171908D01*
X0170708Y0127005D02*
X0172308D01*
X0170708Y0126605D02*
X0172708D01*
X0171108Y0126205D02*
X0172708D01*
X0171508Y0125805D02*
X0173108D01*
X0171908Y0125405D02*
X0173508D01*
X0171908Y0125005D02*
X0173908D01*
X0171908Y0140205D02*
X0174708D01*
X0171908Y0139805D02*
X0174708D01*
X0171908Y0139405D02*
X0174708D01*
X0171908Y0139005D02*
X0174708D01*
X0171908Y0138605D02*
X0174308D01*
X0171908Y0138205D02*
X0174308D01*
X0171908Y0137805D02*
X0174308D01*
X0171908Y0137405D02*
X0174308D01*
X0171908Y0137005D02*
X0174308D01*
X0171908Y0136605D02*
X0174308D01*
X0172308Y0136205D02*
X0174308D01*
X0172308Y0135805D02*
X0173908D01*
X0172308Y0135405D02*
X0173908D01*
X0172308Y0135005D02*
X0173908D01*
X0172308Y0134605D02*
X0173908D01*
X0172708Y0134205D02*
X0174308D01*
X0172708Y0133805D02*
X0174308D01*
X0172708Y0133405D02*
X0174308D01*
X0172708Y0133005D02*
X0174308D01*
X0172708Y0143405D02*
X0176308D01*
X0172708Y0143005D02*
X0176308D01*
X0172308Y0142605D02*
X0175908D01*
X0172308Y0142205D02*
X0175908D01*
X0172308Y0141805D02*
X0175508D01*
X0172308Y0141405D02*
X0175508D01*
X0172308Y0141005D02*
X0175108D01*
X0177508Y0113405D02*
X0178708D01*
X0177508Y0120205D02*
X0179508D01*
X0178308Y0119805D02*
X0179108D01*
X0177108Y0128605D02*
X0179108D01*
X0177108Y0128205D02*
X0179908D01*
X0177508Y0127805D02*
X0180308D01*
X0177908Y0127405D02*
X0181108D01*
X0178308Y0127005D02*
X0181908D01*
X0178708Y0126605D02*
X0182708D01*
X0179108Y0126205D02*
X0183908D01*
X0187108Y0122205D02*
X0192308D01*
X0197108Y0129005D02*
X0199508D01*
X0196708Y0128605D02*
X0199508D01*
X0193908Y0127005D02*
X0197908D01*
X0193108Y0126605D02*
X0197908D01*
X0195908Y0125805D02*
X0199908D01*
X0196308Y0125405D02*
X0199508D01*
X0195908Y0125005D02*
X0198708D01*
X0197908Y0148205D02*
X0200308D01*
X0198308Y0147805D02*
X0200308D01*
X0197108Y0156205D02*
X0199908D01*
X0193908Y0150205D02*
X0198308D01*
X0195108Y0149805D02*
X0198708D01*
X0195908Y0149405D02*
X0199108D01*
X0196708Y0149005D02*
X0199508D01*
X0198708Y0163405D02*
X0199108D01*
X0198708Y0163005D02*
X0199908D01*
X0197108Y0157405D02*
X0197908D01*
X0197108Y0157005D02*
X0198708D01*
X0203108Y0140205D02*
X0205108D01*
X0203108Y0139805D02*
X0205108D01*
X0203108Y0139405D02*
X0205108D01*
X0203108Y0139005D02*
X0205108D01*
X0203108Y0138605D02*
X0205108D01*
X0202708Y0138205D02*
X0205108D01*
X0202708Y0137805D02*
X0205108D01*
X0202708Y0137405D02*
X0205108D01*
X0202708Y0137005D02*
X0205108D01*
X0202308Y0136605D02*
X0205108D01*
X0202308Y0136205D02*
X0205108D01*
X0202308Y0135805D02*
X0205108D01*
X0201908Y0135405D02*
X0205108D01*
X0201908Y0135005D02*
X0205108D01*
X0201508Y0134605D02*
X0205108D01*
X0201508Y0134205D02*
X0204708D01*
X0201108Y0133805D02*
X0204708D01*
X0201108Y0133405D02*
X0204708D01*
X0205908Y0148205D02*
X0207508D01*
X0205908Y0147805D02*
X0207508D01*
X0202308Y0147405D02*
X0202708D01*
X0206308D02*
X0207908D01*
X0202308Y0147005D02*
X0202708D01*
X0206708D02*
X0207908D01*
X0202308Y0146605D02*
X0203108D01*
X0206708D02*
X0208308D01*
X0202308Y0146205D02*
X0203108D01*
X0206708D02*
X0208308D01*
X0202708Y0145805D02*
X0203508D01*
X0207108D02*
X0208308D01*
X0202708Y0145405D02*
X0203908D01*
X0201108Y0145005D02*
X0201908D01*
X0202708D02*
X0203908D01*
X0201508Y0144605D02*
X0202308D01*
X0202708D02*
X0203908D01*
X0201908Y0144205D02*
X0202308D01*
X0203108D02*
X0204308D01*
X0203108Y0143805D02*
X0204308D01*
X0203108Y0143405D02*
X0204308D01*
X0203108Y0143005D02*
X0204708D01*
X0203108Y0142605D02*
X0204708D01*
X0203108Y0142205D02*
X0204708D01*
X0203108Y0141805D02*
X0205108D01*
X0203108Y0141405D02*
X0205108D01*
X0203108Y0141005D02*
X0205108D01*
X0201108Y0153805D02*
X0203108D01*
X0201508Y0153405D02*
X0203508D01*
X0201908Y0153005D02*
X0203908D01*
X0202308Y0152605D02*
X0204308D01*
X0202708Y0152205D02*
X0204708D01*
X0203108Y0151805D02*
X0205108D01*
X0203508Y0151405D02*
X0205508D01*
X0203908Y0151005D02*
X0205908D01*
X0204308Y0150605D02*
X0205908D01*
X0204708Y0150205D02*
X0206308D01*
X0204708Y0149805D02*
X0206708D01*
X0205108Y0149405D02*
X0206708D01*
X0205508Y0149005D02*
X0207108D01*
X0201108Y0161005D02*
X0203508D01*
X0201508Y0160605D02*
X0204308D01*
X0202308Y0160205D02*
X0204708D01*
X0203108Y0159805D02*
X0205508D01*
X0203508Y0159405D02*
X0205908D01*
X0203908Y0159005D02*
X0206308D01*
X0204708Y0158605D02*
X0206708D01*
X0205108Y0158205D02*
X0207108D01*
X0205508Y0157805D02*
X0207508D01*
X0205908Y0157405D02*
X0207908D01*
X0206308Y0157005D02*
X0208308D01*
X0214708Y0140205D02*
X0215908D01*
X0212708Y0148205D02*
X0213908D01*
X0212708Y0147805D02*
X0214308D01*
X0212708Y0147405D02*
X0214308D01*
X0213108Y0147005D02*
X0214308D01*
X0213108Y0146605D02*
X0214708D01*
X0213108Y0146205D02*
X0214708D01*
X0213508Y0145805D02*
X0214708D01*
X0213508Y0145405D02*
X0215108D01*
X0213508Y0145005D02*
X0215108D01*
X0213908Y0144605D02*
X0215108D01*
X0213908Y0144205D02*
X0215108D01*
X0213908Y0143805D02*
X0215108D01*
X0213908Y0143405D02*
X0215508D01*
X0214308Y0143005D02*
X0215508D01*
X0214308Y0142605D02*
X0215508D01*
X0214308Y0142205D02*
X0215508D01*
X0214308Y0141805D02*
X0215508D01*
X0214308Y0141405D02*
X0215508D01*
X0214308Y0141005D02*
X0215908D01*
X0209108Y0154205D02*
X0210708D01*
X0209508Y0153805D02*
X0211108D01*
X0209508Y0153405D02*
X0211508D01*
X0209908Y0153005D02*
X0211508D01*
X0210308Y0152605D02*
X0211908D01*
X0210308Y0152205D02*
X0211908D01*
X0210708Y0151805D02*
X0212308D01*
X0211108Y0151405D02*
X0212708D01*
X0211108Y0151005D02*
X0212708D01*
X0211508Y0150605D02*
X0213108D01*
X0211508Y0150205D02*
X0213108D01*
X0211908Y0149805D02*
X0213508D01*
X0211908Y0149405D02*
X0213508D01*
X0212308Y0149005D02*
X0213508D01*
X0165108Y0124605D02*
X0166708D01*
X0161908Y0132605D02*
X0163508D01*
X0172308Y0124605D02*
X0174308D01*
X0172308Y0116605D02*
X0174708D01*
X0172308Y0140605D02*
X0175108D01*
X0173108Y0132605D02*
X0174308D01*
X0196708Y0156605D02*
X0199508D01*
X0197108Y0148605D02*
X0199908D01*
X0205508D02*
X0207108D01*
X0203108Y0140605D02*
X0205108D01*
X0212308Y0148605D02*
X0213908D01*
X0214308Y0140605D02*
X0215908D01*
X0173908Y0115405D02*
X0176708D01*
X0174308Y0115005D02*
X0177508D01*
X0175108Y0114605D02*
X0178308D01*
X0175908Y0114205D02*
X0178708D01*
X0176708Y0113805D02*
X0178708D01*
X0174708Y0122205D02*
X0177108D01*
X0167108Y0121805D02*
X0168708D01*
X0175108D02*
X0177508D01*
X0167108Y0121405D02*
X0169108D01*
X0175908D02*
X0178308D01*
X0167508Y0121005D02*
X0169508D01*
X0176308D02*
X0178708D01*
X0167908Y0120605D02*
X0169908D01*
X0176708D02*
X0179508D01*
X0168308Y0120205D02*
X0170308D01*
X0168708Y0119805D02*
X0170708D01*
X0168308Y0132205D02*
X0169908D01*
X0168308Y0131805D02*
X0169908D01*
X0168708Y0131405D02*
X0169908D01*
X0168708Y0131005D02*
X0170308D01*
X0175508D02*
X0176708D01*
X0168708Y0130605D02*
X0170308D01*
X0175908D02*
X0177108D01*
X0175908Y0130205D02*
X0177508D01*
X0176308Y0129805D02*
X0177908D01*
X0176308Y0129405D02*
X0178308D01*
X0176708Y0129005D02*
X0178708D01*
X0167508Y0137005D02*
X0168708D01*
X0167508Y0136605D02*
X0168708D01*
X0167508Y0136205D02*
X0168708D01*
X0167508Y0135805D02*
X0168708D01*
X0167508Y0135405D02*
X0169108D01*
X0167908Y0135005D02*
X0169108D01*
X0167908Y0134605D02*
X0169108D01*
X0167908Y0134205D02*
X0169108D01*
X0167908Y0133805D02*
X0169108D01*
X0167908Y0133405D02*
X0169508D01*
X0168308Y0133005D02*
X0169508D01*
X0174708Y0147805D02*
X0180308D01*
X0174708Y0147405D02*
X0179908D01*
X0174308Y0147005D02*
X0179108D01*
X0173908Y0146605D02*
X0178708D01*
X0173908Y0146205D02*
X0178308D01*
X0173508Y0145805D02*
X0178308D01*
X0173508Y0145405D02*
X0177908D01*
X0173108Y0145005D02*
X0177508D01*
X0173108Y0144605D02*
X0177108D01*
X0173108Y0144205D02*
X0176708D01*
X0172708Y0143805D02*
X0176708D01*
X0181508Y0124205D02*
X0197508D01*
X0182308Y0123805D02*
X0197108D01*
X0183108Y0123405D02*
X0196308D01*
X0183908Y0123005D02*
X0195108D01*
X0185108Y0122605D02*
X0193908D01*
X0200308Y0132205D02*
X0204308D01*
X0199908Y0131805D02*
X0203908D01*
X0199508Y0131405D02*
X0203908D01*
X0199508Y0131005D02*
X0203908D01*
X0199108Y0130605D02*
X0203508D01*
X0198708Y0130205D02*
X0203508D01*
X0198308Y0129805D02*
X0203108D01*
X0197908Y0129405D02*
X0202708D01*
X0200308Y0129005D02*
X0202708D01*
X0200308Y0128605D02*
X0202308D01*
X0196308Y0128205D02*
X0201908D01*
X0195508Y0127805D02*
X0201908D01*
X0194708Y0127405D02*
X0201508D01*
X0198708Y0127005D02*
X0201108D01*
X0198708Y0126605D02*
X0200708D01*
X0191908Y0126205D02*
X0200308D01*
X0189908Y0125805D02*
X0195508D01*
X0208308Y0140205D02*
X0209908D01*
X0208708Y0139805D02*
X0209908D01*
X0200708Y0133005D02*
X0204708D01*
X0198708Y0147405D02*
X0200708D01*
X0199508Y0147005D02*
X0201108D01*
X0199908Y0146605D02*
X0201108D01*
X0200308Y0146205D02*
X0201508D01*
X0200308Y0145805D02*
X0201508D01*
X0200708Y0145405D02*
X0201908D01*
X0207108D02*
X0208708D01*
X0207508Y0145005D02*
X0208708D01*
X0207508Y0144605D02*
X0208708D01*
X0207508Y0144205D02*
X0209108D01*
X0207908Y0143805D02*
X0209108D01*
X0207908Y0143405D02*
X0209108D01*
X0207908Y0143005D02*
X0209508D01*
X0207908Y0142605D02*
X0209508D01*
X0208308Y0142205D02*
X0209508D01*
X0208308Y0141805D02*
X0209508D01*
X0208308Y0141405D02*
X0209508D01*
X0208308Y0141005D02*
X0209508D01*
X0207108Y0156205D02*
X0209108D01*
X0197908Y0155805D02*
X0200708D01*
X0207508D02*
X0209508D01*
X0198708Y0155405D02*
X0201108D01*
X0207908D02*
X0209908D01*
X0199108Y0155005D02*
X0201908D01*
X0208308D02*
X0210308D01*
X0199908Y0154605D02*
X0202308D01*
X0208708D02*
X0210308D01*
X0183908Y0154205D02*
X0191508D01*
X0200308D02*
X0202708D01*
X0182708Y0153805D02*
X0192708D01*
X0181508Y0153405D02*
X0193908D01*
X0189508Y0151005D02*
X0197508D01*
X0192708Y0150605D02*
X0197908D01*
X0198308Y0162605D02*
X0201108D01*
X0198708Y0162205D02*
X0201508D01*
X0199508Y0161805D02*
X0202308D01*
X0200308Y0161405D02*
X0203108D01*
X0168308Y0132605D02*
X0169508D01*
X0181108Y0124605D02*
X0198308D01*
X0206708Y0156605D02*
X0208708D01*
X0208308Y0140605D02*
X0209908D01*
X0200708Y0132605D02*
X0204308D01*
X0179508Y0125805D02*
X0185908D01*
X0179908Y0125405D02*
X0195108D01*
X0180308Y0125005D02*
X0195508D01*
X0175108Y0148205D02*
X0180708D01*
Y0153005D02*
X0194708D01*
X0179908Y0152605D02*
X0195508D01*
X0179108Y0152205D02*
X0195908D01*
X0177508Y0151005D02*
X0189108D01*
X0177108Y0150605D02*
X0185908D01*
X0176708Y0150205D02*
X0184708D01*
X0176308Y0149805D02*
X0183508D01*
X0175908Y0149405D02*
X0182708D01*
X0175508Y0149005D02*
X0181908D01*
X0175508Y0148605D02*
X0181508D01*
X0178708Y0151805D02*
X0196708D01*
X0178308Y0151405D02*
X0197108D01*
X0267870Y0124205D02*
X0269470D01*
X0267870Y0123805D02*
X0269470D01*
X0268270Y0123405D02*
X0269870D01*
X0268270Y0123005D02*
X0270270D01*
X0268670Y0122605D02*
X0270270D01*
X0269070Y0122205D02*
X0270670D01*
X0264670Y0132205D02*
X0265870D01*
X0264670Y0131805D02*
X0265870D01*
X0264670Y0131405D02*
X0265870D01*
X0264670Y0131005D02*
X0266270D01*
X0265070Y0130605D02*
X0266270D01*
X0265070Y0130205D02*
X0266270D01*
X0265070Y0129805D02*
X0266670D01*
X0265470Y0129405D02*
X0266670D01*
X0265470Y0129005D02*
X0267070D01*
X0265470Y0128605D02*
X0267070D01*
X0265870Y0128205D02*
X0267070D01*
X0265870Y0127805D02*
X0267470D01*
X0265870Y0127405D02*
X0267470D01*
X0266270Y0127005D02*
X0267870D01*
X0266270Y0126605D02*
X0267870D01*
X0266670Y0126205D02*
X0268270D01*
X0266670Y0125805D02*
X0268270D01*
X0267070Y0125405D02*
X0268670D01*
X0267070Y0125005D02*
X0268670D01*
X0264670Y0137005D02*
X0265070D01*
X0263870Y0136605D02*
X0265070D01*
X0263870Y0136205D02*
X0265070D01*
X0263870Y0135805D02*
X0265070D01*
X0263870Y0135405D02*
X0265070D01*
X0263870Y0135005D02*
X0265470D01*
X0264270Y0134605D02*
X0265470D01*
X0264270Y0134205D02*
X0265470D01*
X0264270Y0133805D02*
X0265470D01*
X0264270Y0133405D02*
X0265470D01*
X0264270Y0133005D02*
X0265470D01*
X0275070Y0116205D02*
X0277470D01*
X0275470Y0115805D02*
X0278270D01*
X0275070Y0124205D02*
X0277070D01*
X0275470Y0123805D02*
X0277470D01*
X0275870Y0123405D02*
X0277870D01*
X0276270Y0123005D02*
X0278270D01*
X0276670Y0122605D02*
X0278670D01*
X0271470Y0119405D02*
X0273470D01*
X0271870Y0119005D02*
X0273870D01*
X0272270Y0118605D02*
X0274270D01*
X0272670Y0118205D02*
X0274670D01*
X0273070Y0117805D02*
X0275070D01*
X0273470Y0117405D02*
X0275870D01*
X0273870Y0117005D02*
X0276270D01*
X0275470Y0132205D02*
X0276670D01*
X0277470D02*
X0278270D01*
X0275870Y0131805D02*
X0276670D01*
X0277470D02*
X0278270D01*
X0275870Y0131405D02*
X0277070D01*
X0277870D02*
X0278670D01*
X0275870Y0131005D02*
X0277070D01*
X0276270Y0130605D02*
X0277070D01*
X0271470Y0130205D02*
X0272670D01*
X0276670D02*
X0277470D01*
X0271470Y0129805D02*
X0273070D01*
X0276670D02*
X0277470D01*
X0271870Y0129405D02*
X0273070D01*
X0277070D02*
X0277470D01*
X0271870Y0129005D02*
X0273470D01*
X0272270Y0128605D02*
X0273870D01*
X0272270Y0128205D02*
X0273870D01*
X0272670Y0127805D02*
X0274270D01*
X0272670Y0127405D02*
X0274270D01*
X0273070Y0127005D02*
X0274670D01*
X0273070Y0126605D02*
X0275070D01*
X0273470Y0126205D02*
X0275070D01*
X0273870Y0125805D02*
X0275470D01*
X0274270Y0125405D02*
X0275870D01*
X0274270Y0125005D02*
X0276270D01*
X0274270Y0140205D02*
X0277070D01*
X0274270Y0139805D02*
X0277070D01*
X0274270Y0139405D02*
X0277070D01*
X0274270Y0139005D02*
X0277070D01*
X0274270Y0138605D02*
X0276670D01*
X0274270Y0138205D02*
X0276670D01*
X0274270Y0137805D02*
X0276670D01*
X0274270Y0137405D02*
X0276670D01*
X0274270Y0137005D02*
X0276670D01*
X0274270Y0136605D02*
X0276670D01*
X0274670Y0136205D02*
X0276670D01*
X0274670Y0135805D02*
X0276270D01*
X0274670Y0135405D02*
X0276270D01*
X0274670Y0135005D02*
X0276270D01*
X0274670Y0134605D02*
X0276270D01*
X0275070Y0134205D02*
X0276670D01*
X0275070Y0133805D02*
X0276670D01*
X0275070Y0133405D02*
X0276670D01*
X0275070Y0133005D02*
X0276670D01*
X0275070Y0143405D02*
X0278670D01*
X0275070Y0143005D02*
X0278670D01*
X0274670Y0142605D02*
X0278270D01*
X0274670Y0142205D02*
X0278270D01*
X0274670Y0141805D02*
X0277870D01*
X0274670Y0141405D02*
X0277870D01*
X0274670Y0141005D02*
X0277470D01*
X0279870Y0113405D02*
X0281070D01*
X0279870Y0120205D02*
X0281870D01*
X0280670Y0119805D02*
X0281470D01*
X0279470Y0128605D02*
X0281470D01*
X0279470Y0128205D02*
X0282270D01*
X0279870Y0127805D02*
X0282670D01*
X0280270Y0127405D02*
X0283470D01*
X0280670Y0127005D02*
X0284270D01*
X0281070Y0126605D02*
X0285070D01*
X0281470Y0126205D02*
X0286270D01*
X0289470Y0122205D02*
X0294670D01*
X0299470Y0129005D02*
X0301870D01*
X0299070Y0128605D02*
X0301870D01*
X0296270Y0127005D02*
X0300270D01*
X0295470Y0126605D02*
X0300270D01*
X0298270Y0125805D02*
X0302270D01*
X0298670Y0125405D02*
X0301870D01*
X0298270Y0125005D02*
X0301070D01*
X0300270Y0148205D02*
X0302670D01*
X0300670Y0147805D02*
X0302670D01*
X0299470Y0156205D02*
X0302270D01*
X0296270Y0150205D02*
X0300670D01*
X0297470Y0149805D02*
X0301070D01*
X0298270Y0149405D02*
X0301470D01*
X0299070Y0149005D02*
X0301870D01*
X0301070Y0163405D02*
X0301470D01*
X0301070Y0163005D02*
X0302270D01*
X0299470Y0157405D02*
X0300270D01*
X0299470Y0157005D02*
X0301070D01*
X0305470Y0140205D02*
X0307470D01*
X0305470Y0139805D02*
X0307470D01*
X0305470Y0139405D02*
X0307470D01*
X0305470Y0139005D02*
X0307470D01*
X0305470Y0138605D02*
X0307470D01*
X0305070Y0138205D02*
X0307470D01*
X0305070Y0137805D02*
X0307470D01*
X0305070Y0137405D02*
X0307470D01*
X0305070Y0137005D02*
X0307470D01*
X0304670Y0136605D02*
X0307470D01*
X0304670Y0136205D02*
X0307470D01*
X0304670Y0135805D02*
X0307470D01*
X0304270Y0135405D02*
X0307470D01*
X0304270Y0135005D02*
X0307470D01*
X0303870Y0134605D02*
X0307470D01*
X0303870Y0134205D02*
X0307070D01*
X0303470Y0133805D02*
X0307070D01*
X0303470Y0133405D02*
X0307070D01*
X0308270Y0148205D02*
X0309870D01*
X0308270Y0147805D02*
X0309870D01*
X0304670Y0147405D02*
X0305070D01*
X0308670D02*
X0310270D01*
X0304670Y0147005D02*
X0305070D01*
X0309070D02*
X0310270D01*
X0304670Y0146605D02*
X0305470D01*
X0309070D02*
X0310670D01*
X0304670Y0146205D02*
X0305470D01*
X0309070D02*
X0310670D01*
X0305070Y0145805D02*
X0305870D01*
X0309470D02*
X0310670D01*
X0305070Y0145405D02*
X0306270D01*
X0303470Y0145005D02*
X0304270D01*
X0305070D02*
X0306270D01*
X0303870Y0144605D02*
X0304670D01*
X0305070D02*
X0306270D01*
X0304270Y0144205D02*
X0304670D01*
X0305470D02*
X0306670D01*
X0305470Y0143805D02*
X0306670D01*
X0305470Y0143405D02*
X0306670D01*
X0305470Y0143005D02*
X0307070D01*
X0305470Y0142605D02*
X0307070D01*
X0305470Y0142205D02*
X0307070D01*
X0305470Y0141805D02*
X0307470D01*
X0305470Y0141405D02*
X0307470D01*
X0305470Y0141005D02*
X0307470D01*
X0303470Y0153805D02*
X0305470D01*
X0303870Y0153405D02*
X0305870D01*
X0304270Y0153005D02*
X0306270D01*
X0304670Y0152605D02*
X0306670D01*
X0305070Y0152205D02*
X0307070D01*
X0305470Y0151805D02*
X0307470D01*
X0305870Y0151405D02*
X0307870D01*
X0306270Y0151005D02*
X0308270D01*
X0306670Y0150605D02*
X0308270D01*
X0307070Y0150205D02*
X0308670D01*
X0307070Y0149805D02*
X0309070D01*
X0307470Y0149405D02*
X0309070D01*
X0307870Y0149005D02*
X0309470D01*
X0303470Y0161005D02*
X0305870D01*
X0303870Y0160605D02*
X0306670D01*
X0304670Y0160205D02*
X0307070D01*
X0305470Y0159805D02*
X0307870D01*
X0305870Y0159405D02*
X0308270D01*
X0306270Y0159005D02*
X0308670D01*
X0307070Y0158605D02*
X0309070D01*
X0307470Y0158205D02*
X0309470D01*
X0307870Y0157805D02*
X0309870D01*
X0308270Y0157405D02*
X0310270D01*
X0308670Y0157005D02*
X0310670D01*
X0317070Y0140205D02*
X0318270D01*
X0315070Y0148205D02*
X0316270D01*
X0315070Y0147805D02*
X0316670D01*
X0315070Y0147405D02*
X0316670D01*
X0315470Y0147005D02*
X0316670D01*
X0315470Y0146605D02*
X0317070D01*
X0315470Y0146205D02*
X0317070D01*
X0315870Y0145805D02*
X0317070D01*
X0315870Y0145405D02*
X0317470D01*
X0315870Y0145005D02*
X0317470D01*
X0316270Y0144605D02*
X0317470D01*
X0316270Y0144205D02*
X0317470D01*
X0316270Y0143805D02*
X0317470D01*
X0316270Y0143405D02*
X0317870D01*
X0316670Y0143005D02*
X0317870D01*
X0316670Y0142605D02*
X0317870D01*
X0316670Y0142205D02*
X0317870D01*
X0316670Y0141805D02*
X0317870D01*
X0316670Y0141405D02*
X0317870D01*
X0316670Y0141005D02*
X0318270D01*
X0311470Y0154205D02*
X0313070D01*
X0311870Y0153805D02*
X0313470D01*
X0311870Y0153405D02*
X0313870D01*
X0312270Y0153005D02*
X0313870D01*
X0312670Y0152605D02*
X0314270D01*
X0312670Y0152205D02*
X0314270D01*
X0313070Y0151805D02*
X0314670D01*
X0313470Y0151405D02*
X0315070D01*
X0313470Y0151005D02*
X0315070D01*
X0313870Y0150605D02*
X0315470D01*
X0313870Y0150205D02*
X0315470D01*
X0314270Y0149805D02*
X0315870D01*
X0314270Y0149405D02*
X0315870D01*
X0314670Y0149005D02*
X0315870D01*
X0267470Y0124605D02*
X0269070D01*
X0264270Y0132605D02*
X0265870D01*
X0274670Y0124605D02*
X0276670D01*
X0274670Y0116605D02*
X0277070D01*
X0274670Y0140605D02*
X0277470D01*
X0275470Y0132605D02*
X0276670D01*
X0299070Y0156605D02*
X0301870D01*
X0299470Y0148605D02*
X0302270D01*
X0307870D02*
X0309470D01*
X0305470Y0140605D02*
X0307470D01*
X0314670Y0148605D02*
X0316270D01*
X0316670Y0140605D02*
X0318270D01*
X0276270Y0115405D02*
X0279070D01*
X0276670Y0115005D02*
X0279870D01*
X0277470Y0114605D02*
X0280670D01*
X0278270Y0114205D02*
X0281070D01*
X0279070Y0113805D02*
X0281070D01*
X0277070Y0122205D02*
X0279470D01*
X0269470Y0121805D02*
X0271070D01*
X0277470D02*
X0279870D01*
X0269470Y0121405D02*
X0271470D01*
X0278270D02*
X0280670D01*
X0269870Y0121005D02*
X0271870D01*
X0278670D02*
X0281070D01*
X0270270Y0120605D02*
X0272270D01*
X0279070D02*
X0281870D01*
X0270670Y0120205D02*
X0272670D01*
X0271070Y0119805D02*
X0273070D01*
X0270670Y0132205D02*
X0272270D01*
X0270670Y0131805D02*
X0272270D01*
X0271070Y0131405D02*
X0272270D01*
X0271070Y0131005D02*
X0272670D01*
X0277870D02*
X0279070D01*
X0271070Y0130605D02*
X0272670D01*
X0278270D02*
X0279470D01*
X0278270Y0130205D02*
X0279870D01*
X0278670Y0129805D02*
X0280270D01*
X0278670Y0129405D02*
X0280670D01*
X0279070Y0129005D02*
X0281070D01*
X0269870Y0137005D02*
X0271070D01*
X0269870Y0136605D02*
X0271070D01*
X0269870Y0136205D02*
X0271070D01*
X0269870Y0135805D02*
X0271070D01*
X0269870Y0135405D02*
X0271470D01*
X0270270Y0135005D02*
X0271470D01*
X0270270Y0134605D02*
X0271470D01*
X0270270Y0134205D02*
X0271470D01*
X0270270Y0133805D02*
X0271470D01*
X0270270Y0133405D02*
X0271870D01*
X0270670Y0133005D02*
X0271870D01*
X0277070Y0147805D02*
X0282670D01*
X0277070Y0147405D02*
X0282270D01*
X0276670Y0147005D02*
X0281470D01*
X0276270Y0146605D02*
X0281070D01*
X0276270Y0146205D02*
X0280670D01*
X0275870Y0145805D02*
X0280670D01*
X0275870Y0145405D02*
X0280270D01*
X0275470Y0145005D02*
X0279870D01*
X0275470Y0144605D02*
X0279470D01*
X0275470Y0144205D02*
X0279070D01*
X0275070Y0143805D02*
X0279070D01*
X0283870Y0124205D02*
X0299870D01*
X0284670Y0123805D02*
X0299470D01*
X0285470Y0123405D02*
X0298670D01*
X0286270Y0123005D02*
X0297470D01*
X0287470Y0122605D02*
X0296270D01*
X0302670Y0132205D02*
X0306670D01*
X0302270Y0131805D02*
X0306270D01*
X0301870Y0131405D02*
X0306270D01*
X0301870Y0131005D02*
X0306270D01*
X0301470Y0130605D02*
X0305870D01*
X0301070Y0130205D02*
X0305870D01*
X0300670Y0129805D02*
X0305470D01*
X0300270Y0129405D02*
X0305070D01*
X0302670Y0129005D02*
X0305070D01*
X0302670Y0128605D02*
X0304670D01*
X0298670Y0128205D02*
X0304270D01*
X0297870Y0127805D02*
X0304270D01*
X0297070Y0127405D02*
X0303870D01*
X0301070Y0127005D02*
X0303470D01*
X0301070Y0126605D02*
X0303070D01*
X0294270Y0126205D02*
X0302670D01*
X0292270Y0125805D02*
X0297870D01*
X0310670Y0140205D02*
X0312270D01*
X0311070Y0139805D02*
X0312270D01*
X0303070Y0133005D02*
X0307070D01*
X0301070Y0147405D02*
X0303070D01*
X0301870Y0147005D02*
X0303470D01*
X0302270Y0146605D02*
X0303470D01*
X0302670Y0146205D02*
X0303870D01*
X0302670Y0145805D02*
X0303870D01*
X0303070Y0145405D02*
X0304270D01*
X0309470D02*
X0311070D01*
X0309870Y0145005D02*
X0311070D01*
X0309870Y0144605D02*
X0311070D01*
X0309870Y0144205D02*
X0311470D01*
X0310270Y0143805D02*
X0311470D01*
X0310270Y0143405D02*
X0311470D01*
X0310270Y0143005D02*
X0311870D01*
X0310270Y0142605D02*
X0311870D01*
X0310670Y0142205D02*
X0311870D01*
X0310670Y0141805D02*
X0311870D01*
X0310670Y0141405D02*
X0311870D01*
X0310670Y0141005D02*
X0311870D01*
X0309470Y0156205D02*
X0311470D01*
X0300270Y0155805D02*
X0303070D01*
X0309870D02*
X0311870D01*
X0301070Y0155405D02*
X0303470D01*
X0310270D02*
X0312270D01*
X0301470Y0155005D02*
X0304270D01*
X0310670D02*
X0312670D01*
X0302270Y0154605D02*
X0304670D01*
X0311070D02*
X0312670D01*
X0286270Y0154205D02*
X0293870D01*
X0302670D02*
X0305070D01*
X0285070Y0153805D02*
X0295070D01*
X0283870Y0153405D02*
X0296270D01*
X0291870Y0151005D02*
X0299870D01*
X0295070Y0150605D02*
X0300270D01*
X0300670Y0162605D02*
X0303470D01*
X0301070Y0162205D02*
X0303870D01*
X0301870Y0161805D02*
X0304670D01*
X0302670Y0161405D02*
X0305470D01*
X0270670Y0132605D02*
X0271870D01*
X0283470Y0124605D02*
X0300670D01*
X0309070Y0156605D02*
X0311070D01*
X0310670Y0140605D02*
X0312270D01*
X0303070Y0132605D02*
X0306670D01*
X0281870Y0125805D02*
X0288270D01*
X0282270Y0125405D02*
X0297470D01*
X0282670Y0125005D02*
X0297870D01*
X0277470Y0148205D02*
X0283070D01*
Y0153005D02*
X0297070D01*
X0282270Y0152605D02*
X0297870D01*
X0281470Y0152205D02*
X0298270D01*
X0279870Y0151005D02*
X0291470D01*
X0279470Y0150605D02*
X0288270D01*
X0279070Y0150205D02*
X0287070D01*
X0278670Y0149805D02*
X0285870D01*
X0278270Y0149405D02*
X0285070D01*
X0277870Y0149005D02*
X0284270D01*
X0277870Y0148605D02*
X0283870D01*
X0281070Y0151805D02*
X0299070D01*
X0280670Y0151405D02*
X0299470D01*
X0370232Y0124205D02*
X0371832D01*
X0370232Y0123805D02*
X0371832D01*
X0370632Y0123405D02*
X0372232D01*
X0370632Y0123005D02*
X0372632D01*
X0371032Y0122605D02*
X0372632D01*
X0371432Y0122205D02*
X0373032D01*
X0367032Y0132205D02*
X0368232D01*
X0367032Y0131805D02*
X0368232D01*
X0367032Y0131405D02*
X0368232D01*
X0367032Y0131005D02*
X0368632D01*
X0367432Y0130605D02*
X0368632D01*
X0367432Y0130205D02*
X0368632D01*
X0367432Y0129805D02*
X0369032D01*
X0367832Y0129405D02*
X0369032D01*
X0367832Y0129005D02*
X0369432D01*
X0367832Y0128605D02*
X0369432D01*
X0368232Y0128205D02*
X0369432D01*
X0368232Y0127805D02*
X0369832D01*
X0368232Y0127405D02*
X0369832D01*
X0368632Y0127005D02*
X0370232D01*
X0368632Y0126605D02*
X0370232D01*
X0369032Y0126205D02*
X0370632D01*
X0369032Y0125805D02*
X0370632D01*
X0369432Y0125405D02*
X0371032D01*
X0369432Y0125005D02*
X0371032D01*
X0367032Y0137005D02*
X0367432D01*
X0366232Y0136605D02*
X0367432D01*
X0366232Y0136205D02*
X0367432D01*
X0366232Y0135805D02*
X0367432D01*
X0366232Y0135405D02*
X0367432D01*
X0366232Y0135005D02*
X0367832D01*
X0366632Y0134605D02*
X0367832D01*
X0366632Y0134205D02*
X0367832D01*
X0366632Y0133805D02*
X0367832D01*
X0366632Y0133405D02*
X0367832D01*
X0366632Y0133005D02*
X0367832D01*
X0377432Y0116205D02*
X0379832D01*
X0377832Y0115805D02*
X0380632D01*
X0377432Y0124205D02*
X0379432D01*
X0377832Y0123805D02*
X0379832D01*
X0378232Y0123405D02*
X0380232D01*
X0378632Y0123005D02*
X0380632D01*
X0379032Y0122605D02*
X0381032D01*
X0373832Y0119405D02*
X0375832D01*
X0374232Y0119005D02*
X0376232D01*
X0374632Y0118605D02*
X0376632D01*
X0375032Y0118205D02*
X0377032D01*
X0375432Y0117805D02*
X0377432D01*
X0375832Y0117405D02*
X0378232D01*
X0376232Y0117005D02*
X0378632D01*
X0377832Y0132205D02*
X0379032D01*
X0379832D02*
X0380632D01*
X0378232Y0131805D02*
X0379032D01*
X0379832D02*
X0380632D01*
X0378232Y0131405D02*
X0379432D01*
X0380232D02*
X0381032D01*
X0378232Y0131005D02*
X0379432D01*
X0378632Y0130605D02*
X0379432D01*
X0373832Y0130205D02*
X0375032D01*
X0379032D02*
X0379832D01*
X0373832Y0129805D02*
X0375432D01*
X0379032D02*
X0379832D01*
X0374232Y0129405D02*
X0375432D01*
X0379432D02*
X0379832D01*
X0374232Y0129005D02*
X0375832D01*
X0374632Y0128605D02*
X0376232D01*
X0374632Y0128205D02*
X0376232D01*
X0375032Y0127805D02*
X0376632D01*
X0375032Y0127405D02*
X0376632D01*
X0375432Y0127005D02*
X0377032D01*
X0375432Y0126605D02*
X0377432D01*
X0375832Y0126205D02*
X0377432D01*
X0376232Y0125805D02*
X0377832D01*
X0376632Y0125405D02*
X0378232D01*
X0376632Y0125005D02*
X0378632D01*
X0376632Y0140205D02*
X0379432D01*
X0376632Y0139805D02*
X0379432D01*
X0376632Y0139405D02*
X0379432D01*
X0376632Y0139005D02*
X0379432D01*
X0376632Y0138605D02*
X0379032D01*
X0376632Y0138205D02*
X0379032D01*
X0376632Y0137805D02*
X0379032D01*
X0376632Y0137405D02*
X0379032D01*
X0376632Y0137005D02*
X0379032D01*
X0376632Y0136605D02*
X0379032D01*
X0377032Y0136205D02*
X0379032D01*
X0377032Y0135805D02*
X0378632D01*
X0377032Y0135405D02*
X0378632D01*
X0377032Y0135005D02*
X0378632D01*
X0377032Y0134605D02*
X0378632D01*
X0377432Y0134205D02*
X0379032D01*
X0377432Y0133805D02*
X0379032D01*
X0377432Y0133405D02*
X0379032D01*
X0377432Y0133005D02*
X0379032D01*
X0377432Y0143405D02*
X0381032D01*
X0377432Y0143005D02*
X0381032D01*
X0377032Y0142605D02*
X0380632D01*
X0377032Y0142205D02*
X0380632D01*
X0377032Y0141805D02*
X0380232D01*
X0377032Y0141405D02*
X0380232D01*
X0377032Y0141005D02*
X0379832D01*
X0382232Y0113405D02*
X0383432D01*
X0382232Y0120205D02*
X0384232D01*
X0383032Y0119805D02*
X0383832D01*
X0381832Y0128605D02*
X0383832D01*
X0381832Y0128205D02*
X0384632D01*
X0382232Y0127805D02*
X0385032D01*
X0382632Y0127405D02*
X0385832D01*
X0383032Y0127005D02*
X0386632D01*
X0383432Y0126605D02*
X0387432D01*
X0383832Y0126205D02*
X0388632D01*
X0391832Y0122205D02*
X0397032D01*
X0401832Y0129005D02*
X0404232D01*
X0401432Y0128605D02*
X0404232D01*
X0398632Y0127005D02*
X0402632D01*
X0397832Y0126605D02*
X0402632D01*
X0400632Y0125805D02*
X0404632D01*
X0401032Y0125405D02*
X0404232D01*
X0400632Y0125005D02*
X0403432D01*
X0402632Y0148205D02*
X0405032D01*
X0403032Y0147805D02*
X0405032D01*
X0401832Y0156205D02*
X0404632D01*
X0398632Y0150205D02*
X0403032D01*
X0399832Y0149805D02*
X0403432D01*
X0400632Y0149405D02*
X0403832D01*
X0401432Y0149005D02*
X0404232D01*
X0403432Y0163405D02*
X0403832D01*
X0403432Y0163005D02*
X0404632D01*
X0401832Y0157405D02*
X0402632D01*
X0401832Y0157005D02*
X0403432D01*
X0407832Y0140205D02*
X0409832D01*
X0407832Y0139805D02*
X0409832D01*
X0407832Y0139405D02*
X0409832D01*
X0407832Y0139005D02*
X0409832D01*
X0407832Y0138605D02*
X0409832D01*
X0407432Y0138205D02*
X0409832D01*
X0407432Y0137805D02*
X0409832D01*
X0407432Y0137405D02*
X0409832D01*
X0407432Y0137005D02*
X0409832D01*
X0407032Y0136605D02*
X0409832D01*
X0407032Y0136205D02*
X0409832D01*
X0407032Y0135805D02*
X0409832D01*
X0406632Y0135405D02*
X0409832D01*
X0406632Y0135005D02*
X0409832D01*
X0406232Y0134605D02*
X0409832D01*
X0406232Y0134205D02*
X0409432D01*
X0405832Y0133805D02*
X0409432D01*
X0405832Y0133405D02*
X0409432D01*
X0410632Y0148205D02*
X0412232D01*
X0410632Y0147805D02*
X0412232D01*
X0407032Y0147405D02*
X0407432D01*
X0411032D02*
X0412632D01*
X0407032Y0147005D02*
X0407432D01*
X0411432D02*
X0412632D01*
X0407032Y0146605D02*
X0407832D01*
X0411432D02*
X0413032D01*
X0407032Y0146205D02*
X0407832D01*
X0411432D02*
X0413032D01*
X0407432Y0145805D02*
X0408232D01*
X0411832D02*
X0413032D01*
X0407432Y0145405D02*
X0408632D01*
X0405832Y0145005D02*
X0406632D01*
X0407432D02*
X0408632D01*
X0406232Y0144605D02*
X0407032D01*
X0407432D02*
X0408632D01*
X0406632Y0144205D02*
X0407032D01*
X0407832D02*
X0409032D01*
X0407832Y0143805D02*
X0409032D01*
X0407832Y0143405D02*
X0409032D01*
X0407832Y0143005D02*
X0409432D01*
X0407832Y0142605D02*
X0409432D01*
X0407832Y0142205D02*
X0409432D01*
X0407832Y0141805D02*
X0409832D01*
X0407832Y0141405D02*
X0409832D01*
X0407832Y0141005D02*
X0409832D01*
X0405832Y0153805D02*
X0407832D01*
X0406232Y0153405D02*
X0408232D01*
X0406632Y0153005D02*
X0408632D01*
X0407032Y0152605D02*
X0409032D01*
X0407432Y0152205D02*
X0409432D01*
X0407832Y0151805D02*
X0409832D01*
X0408232Y0151405D02*
X0410232D01*
X0408632Y0151005D02*
X0410632D01*
X0409032Y0150605D02*
X0410632D01*
X0409432Y0150205D02*
X0411032D01*
X0409432Y0149805D02*
X0411432D01*
X0409832Y0149405D02*
X0411432D01*
X0410232Y0149005D02*
X0411832D01*
X0405832Y0161005D02*
X0408232D01*
X0406232Y0160605D02*
X0409032D01*
X0407032Y0160205D02*
X0409432D01*
X0407832Y0159805D02*
X0410232D01*
X0408232Y0159405D02*
X0410632D01*
X0408632Y0159005D02*
X0411032D01*
X0409432Y0158605D02*
X0411432D01*
X0409832Y0158205D02*
X0411832D01*
X0410232Y0157805D02*
X0412232D01*
X0410632Y0157405D02*
X0412632D01*
X0411032Y0157005D02*
X0413032D01*
X0419432Y0140205D02*
X0420632D01*
X0417432Y0148205D02*
X0418632D01*
X0417432Y0147805D02*
X0419032D01*
X0417432Y0147405D02*
X0419032D01*
X0417832Y0147005D02*
X0419032D01*
X0417832Y0146605D02*
X0419432D01*
X0417832Y0146205D02*
X0419432D01*
X0418232Y0145805D02*
X0419432D01*
X0418232Y0145405D02*
X0419832D01*
X0418232Y0145005D02*
X0419832D01*
X0418632Y0144605D02*
X0419832D01*
X0418632Y0144205D02*
X0419832D01*
X0418632Y0143805D02*
X0419832D01*
X0418632Y0143405D02*
X0420232D01*
X0419032Y0143005D02*
X0420232D01*
X0419032Y0142605D02*
X0420232D01*
X0419032Y0142205D02*
X0420232D01*
X0419032Y0141805D02*
X0420232D01*
X0419032Y0141405D02*
X0420232D01*
X0419032Y0141005D02*
X0420632D01*
X0413832Y0154205D02*
X0415432D01*
X0414232Y0153805D02*
X0415832D01*
X0414232Y0153405D02*
X0416232D01*
X0414632Y0153005D02*
X0416232D01*
X0415032Y0152605D02*
X0416632D01*
X0415032Y0152205D02*
X0416632D01*
X0415432Y0151805D02*
X0417032D01*
X0415832Y0151405D02*
X0417432D01*
X0415832Y0151005D02*
X0417432D01*
X0416232Y0150605D02*
X0417832D01*
X0416232Y0150205D02*
X0417832D01*
X0416632Y0149805D02*
X0418232D01*
X0416632Y0149405D02*
X0418232D01*
X0417032Y0149005D02*
X0418232D01*
X0369832Y0124605D02*
X0371432D01*
X0366632Y0132605D02*
X0368232D01*
X0377032Y0124605D02*
X0379032D01*
X0377032Y0116605D02*
X0379432D01*
X0377032Y0140605D02*
X0379832D01*
X0377832Y0132605D02*
X0379032D01*
X0401432Y0156605D02*
X0404232D01*
X0401832Y0148605D02*
X0404632D01*
X0410232D02*
X0411832D01*
X0407832Y0140605D02*
X0409832D01*
X0417032Y0148605D02*
X0418632D01*
X0419032Y0140605D02*
X0420632D01*
X0378632Y0115405D02*
X0381432D01*
X0379032Y0115005D02*
X0382232D01*
X0379832Y0114605D02*
X0383032D01*
X0380632Y0114205D02*
X0383432D01*
X0381432Y0113805D02*
X0383432D01*
X0379432Y0122205D02*
X0381832D01*
X0371832Y0121805D02*
X0373432D01*
X0379832D02*
X0382232D01*
X0371832Y0121405D02*
X0373832D01*
X0380632D02*
X0383032D01*
X0372232Y0121005D02*
X0374232D01*
X0381032D02*
X0383432D01*
X0372632Y0120605D02*
X0374632D01*
X0381432D02*
X0384232D01*
X0373032Y0120205D02*
X0375032D01*
X0373432Y0119805D02*
X0375432D01*
X0373032Y0132205D02*
X0374632D01*
X0373032Y0131805D02*
X0374632D01*
X0373432Y0131405D02*
X0374632D01*
X0373432Y0131005D02*
X0375032D01*
X0380232D02*
X0381432D01*
X0373432Y0130605D02*
X0375032D01*
X0380632D02*
X0381832D01*
X0380632Y0130205D02*
X0382232D01*
X0381032Y0129805D02*
X0382632D01*
X0381032Y0129405D02*
X0383032D01*
X0381432Y0129005D02*
X0383432D01*
X0372232Y0137005D02*
X0373432D01*
X0372232Y0136605D02*
X0373432D01*
X0372232Y0136205D02*
X0373432D01*
X0372232Y0135805D02*
X0373432D01*
X0372232Y0135405D02*
X0373832D01*
X0372632Y0135005D02*
X0373832D01*
X0372632Y0134605D02*
X0373832D01*
X0372632Y0134205D02*
X0373832D01*
X0372632Y0133805D02*
X0373832D01*
X0372632Y0133405D02*
X0374232D01*
X0373032Y0133005D02*
X0374232D01*
X0379432Y0147805D02*
X0385032D01*
X0379432Y0147405D02*
X0384632D01*
X0379032Y0147005D02*
X0383832D01*
X0378632Y0146605D02*
X0383432D01*
X0378632Y0146205D02*
X0383032D01*
X0378232Y0145805D02*
X0383032D01*
X0378232Y0145405D02*
X0382632D01*
X0377832Y0145005D02*
X0382232D01*
X0377832Y0144605D02*
X0381832D01*
X0377832Y0144205D02*
X0381432D01*
X0377432Y0143805D02*
X0381432D01*
X0386232Y0124205D02*
X0402232D01*
X0387032Y0123805D02*
X0401832D01*
X0387832Y0123405D02*
X0401032D01*
X0388632Y0123005D02*
X0399832D01*
X0389832Y0122605D02*
X0398632D01*
X0405032Y0132205D02*
X0409032D01*
X0404632Y0131805D02*
X0408632D01*
X0404232Y0131405D02*
X0408632D01*
X0404232Y0131005D02*
X0408632D01*
X0403832Y0130605D02*
X0408232D01*
X0403432Y0130205D02*
X0408232D01*
X0403032Y0129805D02*
X0407832D01*
X0402632Y0129405D02*
X0407432D01*
X0405032Y0129005D02*
X0407432D01*
X0405032Y0128605D02*
X0407032D01*
X0401032Y0128205D02*
X0406632D01*
X0400232Y0127805D02*
X0406632D01*
X0399432Y0127405D02*
X0406232D01*
X0403432Y0127005D02*
X0405832D01*
X0403432Y0126605D02*
X0405432D01*
X0396632Y0126205D02*
X0405032D01*
X0394632Y0125805D02*
X0400232D01*
X0413032Y0140205D02*
X0414632D01*
X0413432Y0139805D02*
X0414632D01*
X0405432Y0133005D02*
X0409432D01*
X0403432Y0147405D02*
X0405432D01*
X0404232Y0147005D02*
X0405832D01*
X0404632Y0146605D02*
X0405832D01*
X0405032Y0146205D02*
X0406232D01*
X0405032Y0145805D02*
X0406232D01*
X0405432Y0145405D02*
X0406632D01*
X0411832D02*
X0413432D01*
X0412232Y0145005D02*
X0413432D01*
X0412232Y0144605D02*
X0413432D01*
X0412232Y0144205D02*
X0413832D01*
X0412632Y0143805D02*
X0413832D01*
X0412632Y0143405D02*
X0413832D01*
X0412632Y0143005D02*
X0414232D01*
X0412632Y0142605D02*
X0414232D01*
X0413032Y0142205D02*
X0414232D01*
X0413032Y0141805D02*
X0414232D01*
X0413032Y0141405D02*
X0414232D01*
X0413032Y0141005D02*
X0414232D01*
X0411832Y0156205D02*
X0413832D01*
X0402632Y0155805D02*
X0405432D01*
X0412232D02*
X0414232D01*
X0403432Y0155405D02*
X0405832D01*
X0412632D02*
X0414632D01*
X0403832Y0155005D02*
X0406632D01*
X0413032D02*
X0415032D01*
X0404632Y0154605D02*
X0407032D01*
X0413432D02*
X0415032D01*
X0388632Y0154205D02*
X0396232D01*
X0405032D02*
X0407432D01*
X0387432Y0153805D02*
X0397432D01*
X0386232Y0153405D02*
X0398632D01*
X0394232Y0151005D02*
X0402232D01*
X0397432Y0150605D02*
X0402632D01*
X0403032Y0162605D02*
X0405832D01*
X0403432Y0162205D02*
X0406232D01*
X0404232Y0161805D02*
X0407032D01*
X0405032Y0161405D02*
X0407832D01*
X0373032Y0132605D02*
X0374232D01*
X0385832Y0124605D02*
X0403032D01*
X0411432Y0156605D02*
X0413432D01*
X0413032Y0140605D02*
X0414632D01*
X0405432Y0132605D02*
X0409032D01*
X0384232Y0125805D02*
X0390632D01*
X0384632Y0125405D02*
X0399832D01*
X0385032Y0125005D02*
X0400232D01*
X0379832Y0148205D02*
X0385432D01*
Y0153005D02*
X0399432D01*
X0384632Y0152605D02*
X0400232D01*
X0383832Y0152205D02*
X0400632D01*
X0382232Y0151005D02*
X0393832D01*
X0381832Y0150605D02*
X0390632D01*
X0381432Y0150205D02*
X0389432D01*
X0381032Y0149805D02*
X0388232D01*
X0380632Y0149405D02*
X0387432D01*
X0380232Y0149005D02*
X0386632D01*
X0380232Y0148605D02*
X0386232D01*
X0383432Y0151805D02*
X0401432D01*
X0383032Y0151405D02*
X0401832D01*
X0472595Y0124205D02*
X0474195D01*
X0472595Y0123805D02*
X0474195D01*
X0472995Y0123405D02*
X0474595D01*
X0472995Y0123005D02*
X0474995D01*
X0473395Y0122605D02*
X0474995D01*
X0473795Y0122205D02*
X0475395D01*
X0469395Y0132205D02*
X0470595D01*
X0469395Y0131805D02*
X0470595D01*
X0469395Y0131405D02*
X0470595D01*
X0469395Y0131005D02*
X0470995D01*
X0469795Y0130605D02*
X0470995D01*
X0469795Y0130205D02*
X0470995D01*
X0469795Y0129805D02*
X0471395D01*
X0470195Y0129405D02*
X0471395D01*
X0470195Y0129005D02*
X0471795D01*
X0470195Y0128605D02*
X0471795D01*
X0470595Y0128205D02*
X0471795D01*
X0470595Y0127805D02*
X0472195D01*
X0470595Y0127405D02*
X0472195D01*
X0470995Y0127005D02*
X0472595D01*
X0470995Y0126605D02*
X0472595D01*
X0471395Y0126205D02*
X0472995D01*
X0471395Y0125805D02*
X0472995D01*
X0471795Y0125405D02*
X0473395D01*
X0471795Y0125005D02*
X0473395D01*
X0469395Y0137005D02*
X0469795D01*
X0468595Y0136605D02*
X0469795D01*
X0468595Y0136205D02*
X0469795D01*
X0468595Y0135805D02*
X0469795D01*
X0468595Y0135405D02*
X0469795D01*
X0468595Y0135005D02*
X0470195D01*
X0468995Y0134605D02*
X0470195D01*
X0468995Y0134205D02*
X0470195D01*
X0468995Y0133805D02*
X0470195D01*
X0468995Y0133405D02*
X0470195D01*
X0468995Y0133005D02*
X0470195D01*
X0479795Y0116205D02*
X0482195D01*
X0480195Y0115805D02*
X0482995D01*
X0479795Y0124205D02*
X0481795D01*
X0480195Y0123805D02*
X0482195D01*
X0480595Y0123405D02*
X0482595D01*
X0480995Y0123005D02*
X0482995D01*
X0481395Y0122605D02*
X0483395D01*
X0476195Y0119405D02*
X0478195D01*
X0476595Y0119005D02*
X0478595D01*
X0476995Y0118605D02*
X0478995D01*
X0477395Y0118205D02*
X0479395D01*
X0477795Y0117805D02*
X0479795D01*
X0478195Y0117405D02*
X0480595D01*
X0478595Y0117005D02*
X0480995D01*
X0480195Y0132205D02*
X0481395D01*
X0482195D02*
X0482995D01*
X0480595Y0131805D02*
X0481395D01*
X0482195D02*
X0482995D01*
X0480595Y0131405D02*
X0481795D01*
X0482595D02*
X0483395D01*
X0480595Y0131005D02*
X0481795D01*
X0480995Y0130605D02*
X0481795D01*
X0476195Y0130205D02*
X0477395D01*
X0481395D02*
X0482195D01*
X0476195Y0129805D02*
X0477795D01*
X0481395D02*
X0482195D01*
X0476595Y0129405D02*
X0477795D01*
X0481795D02*
X0482195D01*
X0476595Y0129005D02*
X0478195D01*
X0476995Y0128605D02*
X0478595D01*
X0476995Y0128205D02*
X0478595D01*
X0477395Y0127805D02*
X0478995D01*
X0477395Y0127405D02*
X0478995D01*
X0477795Y0127005D02*
X0479395D01*
X0477795Y0126605D02*
X0479795D01*
X0478195Y0126205D02*
X0479795D01*
X0478595Y0125805D02*
X0480195D01*
X0478995Y0125405D02*
X0480595D01*
X0478995Y0125005D02*
X0480995D01*
X0478995Y0140205D02*
X0481795D01*
X0478995Y0139805D02*
X0481795D01*
X0478995Y0139405D02*
X0481795D01*
X0478995Y0139005D02*
X0481795D01*
X0478995Y0138605D02*
X0481395D01*
X0478995Y0138205D02*
X0481395D01*
X0478995Y0137805D02*
X0481395D01*
X0478995Y0137405D02*
X0481395D01*
X0478995Y0137005D02*
X0481395D01*
X0478995Y0136605D02*
X0481395D01*
X0479395Y0136205D02*
X0481395D01*
X0479395Y0135805D02*
X0480995D01*
X0479395Y0135405D02*
X0480995D01*
X0479395Y0135005D02*
X0480995D01*
X0479395Y0134605D02*
X0480995D01*
X0479795Y0134205D02*
X0481395D01*
X0479795Y0133805D02*
X0481395D01*
X0479795Y0133405D02*
X0481395D01*
X0479795Y0133005D02*
X0481395D01*
X0479795Y0143405D02*
X0483395D01*
X0479795Y0143005D02*
X0483395D01*
X0479395Y0142605D02*
X0482995D01*
X0479395Y0142205D02*
X0482995D01*
X0479395Y0141805D02*
X0482595D01*
X0479395Y0141405D02*
X0482595D01*
X0479395Y0141005D02*
X0482195D01*
X0484595Y0113405D02*
X0485795D01*
X0484595Y0120205D02*
X0486595D01*
X0485395Y0119805D02*
X0486195D01*
X0484195Y0128605D02*
X0486195D01*
X0484195Y0128205D02*
X0486995D01*
X0484595Y0127805D02*
X0487395D01*
X0484995Y0127405D02*
X0488195D01*
X0485395Y0127005D02*
X0488995D01*
X0485795Y0126605D02*
X0489795D01*
X0486195Y0126205D02*
X0490995D01*
X0494195Y0122205D02*
X0499395D01*
X0504195Y0129005D02*
X0506595D01*
X0503795Y0128605D02*
X0506595D01*
X0500995Y0127005D02*
X0504995D01*
X0500195Y0126605D02*
X0504995D01*
X0502995Y0125805D02*
X0506995D01*
X0503395Y0125405D02*
X0506595D01*
X0502995Y0125005D02*
X0505795D01*
X0504995Y0148205D02*
X0507395D01*
X0505395Y0147805D02*
X0507395D01*
X0504195Y0156205D02*
X0506995D01*
X0500995Y0150205D02*
X0505395D01*
X0502195Y0149805D02*
X0505795D01*
X0502995Y0149405D02*
X0506195D01*
X0503795Y0149005D02*
X0506595D01*
X0505795Y0163405D02*
X0506195D01*
X0505795Y0163005D02*
X0506995D01*
X0504195Y0157405D02*
X0504995D01*
X0504195Y0157005D02*
X0505795D01*
X0510195Y0140205D02*
X0512195D01*
X0510195Y0139805D02*
X0512195D01*
X0510195Y0139405D02*
X0512195D01*
X0510195Y0139005D02*
X0512195D01*
X0510195Y0138605D02*
X0512195D01*
X0509795Y0138205D02*
X0512195D01*
X0509795Y0137805D02*
X0512195D01*
X0509795Y0137405D02*
X0512195D01*
X0509795Y0137005D02*
X0512195D01*
X0509395Y0136605D02*
X0512195D01*
X0509395Y0136205D02*
X0512195D01*
X0509395Y0135805D02*
X0512195D01*
X0508995Y0135405D02*
X0512195D01*
X0508995Y0135005D02*
X0512195D01*
X0508595Y0134605D02*
X0512195D01*
X0508595Y0134205D02*
X0511795D01*
X0508195Y0133805D02*
X0511795D01*
X0508195Y0133405D02*
X0511795D01*
X0512995Y0148205D02*
X0514595D01*
X0512995Y0147805D02*
X0514595D01*
X0509395Y0147405D02*
X0509795D01*
X0513395D02*
X0514995D01*
X0509395Y0147005D02*
X0509795D01*
X0513795D02*
X0514995D01*
X0509395Y0146605D02*
X0510195D01*
X0513795D02*
X0515395D01*
X0509395Y0146205D02*
X0510195D01*
X0513795D02*
X0515395D01*
X0509795Y0145805D02*
X0510595D01*
X0514195D02*
X0515395D01*
X0509795Y0145405D02*
X0510995D01*
X0508195Y0145005D02*
X0508995D01*
X0509795D02*
X0510995D01*
X0508595Y0144605D02*
X0509395D01*
X0509795D02*
X0510995D01*
X0508995Y0144205D02*
X0509395D01*
X0510195D02*
X0511395D01*
X0510195Y0143805D02*
X0511395D01*
X0510195Y0143405D02*
X0511395D01*
X0510195Y0143005D02*
X0511795D01*
X0510195Y0142605D02*
X0511795D01*
X0510195Y0142205D02*
X0511795D01*
X0510195Y0141805D02*
X0512195D01*
X0510195Y0141405D02*
X0512195D01*
X0510195Y0141005D02*
X0512195D01*
X0508195Y0153805D02*
X0510195D01*
X0508595Y0153405D02*
X0510595D01*
X0508995Y0153005D02*
X0510995D01*
X0509395Y0152605D02*
X0511395D01*
X0509795Y0152205D02*
X0511795D01*
X0510195Y0151805D02*
X0512195D01*
X0510595Y0151405D02*
X0512595D01*
X0510995Y0151005D02*
X0512995D01*
X0511395Y0150605D02*
X0512995D01*
X0511795Y0150205D02*
X0513395D01*
X0511795Y0149805D02*
X0513795D01*
X0512195Y0149405D02*
X0513795D01*
X0512595Y0149005D02*
X0514195D01*
X0508195Y0161005D02*
X0510595D01*
X0508595Y0160605D02*
X0511395D01*
X0509395Y0160205D02*
X0511795D01*
X0510195Y0159805D02*
X0512595D01*
X0510595Y0159405D02*
X0512995D01*
X0510995Y0159005D02*
X0513395D01*
X0511795Y0158605D02*
X0513795D01*
X0512195Y0158205D02*
X0514195D01*
X0512595Y0157805D02*
X0514595D01*
X0512995Y0157405D02*
X0514995D01*
X0513395Y0157005D02*
X0515395D01*
X0521795Y0140205D02*
X0522995D01*
X0519795Y0148205D02*
X0520995D01*
X0519795Y0147805D02*
X0521395D01*
X0519795Y0147405D02*
X0521395D01*
X0520195Y0147005D02*
X0521395D01*
X0520195Y0146605D02*
X0521795D01*
X0520195Y0146205D02*
X0521795D01*
X0520595Y0145805D02*
X0521795D01*
X0520595Y0145405D02*
X0522195D01*
X0520595Y0145005D02*
X0522195D01*
X0520995Y0144605D02*
X0522195D01*
X0520995Y0144205D02*
X0522195D01*
X0520995Y0143805D02*
X0522195D01*
X0520995Y0143405D02*
X0522595D01*
X0521395Y0143005D02*
X0522595D01*
X0521395Y0142605D02*
X0522595D01*
X0521395Y0142205D02*
X0522595D01*
X0521395Y0141805D02*
X0522595D01*
X0521395Y0141405D02*
X0522595D01*
X0521395Y0141005D02*
X0522995D01*
X0516195Y0154205D02*
X0517795D01*
X0516595Y0153805D02*
X0518195D01*
X0516595Y0153405D02*
X0518595D01*
X0516995Y0153005D02*
X0518595D01*
X0517395Y0152605D02*
X0518995D01*
X0517395Y0152205D02*
X0518995D01*
X0517795Y0151805D02*
X0519395D01*
X0518195Y0151405D02*
X0519795D01*
X0518195Y0151005D02*
X0519795D01*
X0518595Y0150605D02*
X0520195D01*
X0518595Y0150205D02*
X0520195D01*
X0518995Y0149805D02*
X0520595D01*
X0518995Y0149405D02*
X0520595D01*
X0519395Y0149005D02*
X0520595D01*
X0472195Y0124605D02*
X0473795D01*
X0468995Y0132605D02*
X0470595D01*
X0479395Y0124605D02*
X0481395D01*
X0479395Y0116605D02*
X0481795D01*
X0479395Y0140605D02*
X0482195D01*
X0480195Y0132605D02*
X0481395D01*
X0503795Y0156605D02*
X0506595D01*
X0504195Y0148605D02*
X0506995D01*
X0512595D02*
X0514195D01*
X0510195Y0140605D02*
X0512195D01*
X0519395Y0148605D02*
X0520995D01*
X0521395Y0140605D02*
X0522995D01*
X0480995Y0115405D02*
X0483795D01*
X0481395Y0115005D02*
X0484595D01*
X0482195Y0114605D02*
X0485395D01*
X0482995Y0114205D02*
X0485795D01*
X0483795Y0113805D02*
X0485795D01*
X0481795Y0122205D02*
X0484195D01*
X0474195Y0121805D02*
X0475795D01*
X0482195D02*
X0484595D01*
X0474195Y0121405D02*
X0476195D01*
X0482995D02*
X0485395D01*
X0474595Y0121005D02*
X0476595D01*
X0483395D02*
X0485795D01*
X0474995Y0120605D02*
X0476995D01*
X0483795D02*
X0486595D01*
X0475395Y0120205D02*
X0477395D01*
X0475795Y0119805D02*
X0477795D01*
X0475395Y0132205D02*
X0476995D01*
X0475395Y0131805D02*
X0476995D01*
X0475795Y0131405D02*
X0476995D01*
X0475795Y0131005D02*
X0477395D01*
X0482595D02*
X0483795D01*
X0475795Y0130605D02*
X0477395D01*
X0482995D02*
X0484195D01*
X0482995Y0130205D02*
X0484595D01*
X0483395Y0129805D02*
X0484995D01*
X0483395Y0129405D02*
X0485395D01*
X0483795Y0129005D02*
X0485795D01*
X0474595Y0137005D02*
X0475795D01*
X0474595Y0136605D02*
X0475795D01*
X0474595Y0136205D02*
X0475795D01*
X0474595Y0135805D02*
X0475795D01*
X0474595Y0135405D02*
X0476195D01*
X0474995Y0135005D02*
X0476195D01*
X0474995Y0134605D02*
X0476195D01*
X0474995Y0134205D02*
X0476195D01*
X0474995Y0133805D02*
X0476195D01*
X0474995Y0133405D02*
X0476595D01*
X0475395Y0133005D02*
X0476595D01*
X0481795Y0147805D02*
X0487395D01*
X0481795Y0147405D02*
X0486995D01*
X0481395Y0147005D02*
X0486195D01*
X0480995Y0146605D02*
X0485795D01*
X0480995Y0146205D02*
X0485395D01*
X0480595Y0145805D02*
X0485395D01*
X0480595Y0145405D02*
X0484995D01*
X0480195Y0145005D02*
X0484595D01*
X0480195Y0144605D02*
X0484195D01*
X0480195Y0144205D02*
X0483795D01*
X0479795Y0143805D02*
X0483795D01*
X0488595Y0124205D02*
X0504595D01*
X0489395Y0123805D02*
X0504195D01*
X0490195Y0123405D02*
X0503395D01*
X0490995Y0123005D02*
X0502195D01*
X0492195Y0122605D02*
X0500995D01*
X0507395Y0132205D02*
X0511395D01*
X0506995Y0131805D02*
X0510995D01*
X0506595Y0131405D02*
X0510995D01*
X0506595Y0131005D02*
X0510995D01*
X0506195Y0130605D02*
X0510595D01*
X0505795Y0130205D02*
X0510595D01*
X0505395Y0129805D02*
X0510195D01*
X0504995Y0129405D02*
X0509795D01*
X0507395Y0129005D02*
X0509795D01*
X0507395Y0128605D02*
X0509395D01*
X0503395Y0128205D02*
X0508995D01*
X0502595Y0127805D02*
X0508995D01*
X0501795Y0127405D02*
X0508595D01*
X0505795Y0127005D02*
X0508195D01*
X0505795Y0126605D02*
X0507795D01*
X0498995Y0126205D02*
X0507395D01*
X0496995Y0125805D02*
X0502595D01*
X0515395Y0140205D02*
X0516995D01*
X0515795Y0139805D02*
X0516995D01*
X0507795Y0133005D02*
X0511795D01*
X0505795Y0147405D02*
X0507795D01*
X0506595Y0147005D02*
X0508195D01*
X0506995Y0146605D02*
X0508195D01*
X0507395Y0146205D02*
X0508595D01*
X0507395Y0145805D02*
X0508595D01*
X0507795Y0145405D02*
X0508995D01*
X0514195D02*
X0515795D01*
X0514595Y0145005D02*
X0515795D01*
X0514595Y0144605D02*
X0515795D01*
X0514595Y0144205D02*
X0516195D01*
X0514995Y0143805D02*
X0516195D01*
X0514995Y0143405D02*
X0516195D01*
X0514995Y0143005D02*
X0516595D01*
X0514995Y0142605D02*
X0516595D01*
X0515395Y0142205D02*
X0516595D01*
X0515395Y0141805D02*
X0516595D01*
X0515395Y0141405D02*
X0516595D01*
X0515395Y0141005D02*
X0516595D01*
X0514195Y0156205D02*
X0516195D01*
X0504995Y0155805D02*
X0507795D01*
X0514595D02*
X0516595D01*
X0505795Y0155405D02*
X0508195D01*
X0514995D02*
X0516995D01*
X0506195Y0155005D02*
X0508995D01*
X0515395D02*
X0517395D01*
X0506995Y0154605D02*
X0509395D01*
X0515795D02*
X0517395D01*
X0490995Y0154205D02*
X0498595D01*
X0507395D02*
X0509795D01*
X0489795Y0153805D02*
X0499795D01*
X0488595Y0153405D02*
X0500995D01*
X0496595Y0151005D02*
X0504595D01*
X0499795Y0150605D02*
X0504995D01*
X0505395Y0162605D02*
X0508195D01*
X0505795Y0162205D02*
X0508595D01*
X0506595Y0161805D02*
X0509395D01*
X0507395Y0161405D02*
X0510195D01*
X0475395Y0132605D02*
X0476595D01*
X0488195Y0124605D02*
X0505395D01*
X0513795Y0156605D02*
X0515795D01*
X0515395Y0140605D02*
X0516995D01*
X0507795Y0132605D02*
X0511395D01*
X0486595Y0125805D02*
X0492995D01*
X0486995Y0125405D02*
X0502195D01*
X0487395Y0125005D02*
X0502595D01*
X0482195Y0148205D02*
X0487795D01*
Y0153005D02*
X0501795D01*
X0486995Y0152605D02*
X0502595D01*
X0486195Y0152205D02*
X0502995D01*
X0484595Y0151005D02*
X0496195D01*
X0484195Y0150605D02*
X0492995D01*
X0483795Y0150205D02*
X0491795D01*
X0483395Y0149805D02*
X0490595D01*
X0482995Y0149405D02*
X0489795D01*
X0482595Y0149005D02*
X0488995D01*
X0482595Y0148605D02*
X0488595D01*
X0485795Y0151805D02*
X0503795D01*
X0485395Y0151405D02*
X0504195D01*
D77*
X0084346Y0154605D02*
X0086346D01*
X0186708D02*
X0188708D01*
X0289070D02*
X0291070D01*
X0391432D02*
X0393432D01*
X0493795D02*
X0495795D01*
D78*
X0047538Y0237375D02*
Y0239474D01*
X0048588Y0240523D01*
X0049637Y0239474D01*
Y0237375D01*
Y0238949D01*
X0047538D01*
X0050687Y0237375D02*
X0051736D01*
X0051212D01*
Y0240523D01*
X0050687Y0239999D01*
X0149900Y0237375D02*
Y0239474D01*
X0150950Y0240523D01*
X0151999Y0239474D01*
Y0237375D01*
Y0238949D01*
X0149900D01*
X0153049Y0237375D02*
X0154098D01*
X0153574D01*
Y0240523D01*
X0153049Y0239999D01*
X0252262Y0237375D02*
Y0239474D01*
X0253312Y0240523D01*
X0254362Y0239474D01*
Y0237375D01*
Y0238949D01*
X0252262D01*
X0255411Y0237375D02*
X0256461D01*
X0255936D01*
Y0240523D01*
X0255411Y0239999D01*
X0354625Y0237375D02*
Y0239474D01*
X0355674Y0240523D01*
X0356724Y0239474D01*
Y0237375D01*
Y0238949D01*
X0354625D01*
X0357773Y0237375D02*
X0358823D01*
X0358298D01*
Y0240523D01*
X0357773Y0239999D01*
X0456987Y0237375D02*
Y0239474D01*
X0458036Y0240523D01*
X0459086Y0239474D01*
Y0237375D01*
Y0238949D01*
X0456987D01*
X0460136Y0237375D02*
X0461185D01*
X0460660D01*
Y0240523D01*
X0460136Y0239999D01*
M02*
