G04*
G04 #@! TF.GenerationSoftware,Altium Limited,Altium Designer,20.0.13 (296)*
G04*
G04 Layer_Color=16711935*
%FSAX25Y25*%
%MOIN*%
G70*
G01*
G75*
%ADD24C,0.01575*%
%ADD32R,0.01968X0.02362*%
%ADD80C,0.11811*%
%ADD84C,0.04737*%
%ADD85C,0.06706*%
%ADD86C,0.20485*%
%ADD87C,0.04343*%
%ADD89R,0.34520X0.06102*%
%ADD90R,0.06417X1.23189*%
%ADD91R,0.60551X0.05669*%
%ADD92R,0.05668X1.20551*%
%ADD93R,0.26377X0.06024*%
G04:AMPARAMS|DCode=94|XSize=49.34mil|YSize=94.61mil|CornerRadius=14.34mil|HoleSize=0mil|Usage=FLASHONLY|Rotation=0.000|XOffset=0mil|YOffset=0mil|HoleType=Round|Shape=RoundedRectangle|*
%AMROUNDEDRECTD94*
21,1,0.04934,0.06594,0,0,0.0*
21,1,0.02067,0.09461,0,0,0.0*
1,1,0.02867,0.01034,-0.03297*
1,1,0.02867,-0.01034,-0.03297*
1,1,0.02867,-0.01034,0.03297*
1,1,0.02867,0.01034,0.03297*
%
%ADD94ROUNDEDRECTD94*%
%ADD95R,0.04737X0.04737*%
%ADD96R,0.03162X0.04343*%
G04:AMPARAMS|DCode=97|XSize=32.41mil|YSize=30.44mil|CornerRadius=0mil|HoleSize=0mil|Usage=FLASHONLY|Rotation=315.000|XOffset=0mil|YOffset=0mil|HoleType=Round|Shape=Rectangle|*
%AMROTATEDRECTD97*
4,1,4,-0.02222,0.00070,-0.00070,0.02222,0.02222,-0.00070,0.00070,-0.02222,-0.02222,0.00070,0.0*
%
%ADD97ROTATEDRECTD97*%

%ADD98R,0.02769X0.03162*%
%ADD99R,0.16548X0.14580*%
%ADD100R,0.01575X0.03150*%
G04:AMPARAMS|DCode=101|XSize=17.84mil|YSize=41.47mil|CornerRadius=6.46mil|HoleSize=0mil|Usage=FLASHONLY|Rotation=180.000|XOffset=0mil|YOffset=0mil|HoleType=Round|Shape=RoundedRectangle|*
%AMROUNDEDRECTD101*
21,1,0.01784,0.02854,0,0,180.0*
21,1,0.00492,0.04147,0,0,180.0*
1,1,0.01292,-0.00246,0.01427*
1,1,0.01292,0.00246,0.01427*
1,1,0.01292,0.00246,-0.01427*
1,1,0.01292,-0.00246,-0.01427*
%
%ADD101ROUNDEDRECTD101*%
%ADD102R,0.03162X0.03320*%
%ADD103R,0.01772X0.01772*%
%ADD104R,0.01772X0.01772*%
%ADD105R,0.03950X0.03950*%
%ADD106R,0.03320X0.03162*%
%ADD107R,0.05918X0.07887*%
%ADD108R,0.05918X0.04343*%
%ADD109R,0.07414X0.06784*%
%ADD110R,0.03162X0.02769*%
%ADD111R,0.03950X0.03950*%
%ADD112R,0.06902X0.09068*%
%ADD113R,0.04540X0.02690*%
%ADD114C,0.01378*%
%ADD115P,0.05586X4X270.0*%
G04:AMPARAMS|DCode=116|XSize=27.69mil|YSize=74.93mil|CornerRadius=0mil|HoleSize=0mil|Usage=FLASHONLY|Rotation=45.000|XOffset=0mil|YOffset=0mil|HoleType=Round|Shape=Rectangle|*
%AMROTATEDRECTD116*
4,1,4,0.01670,-0.03628,-0.03628,0.01670,-0.01670,0.03628,0.03628,-0.01670,0.01670,-0.03628,0.0*
%
%ADD116ROTATEDRECTD116*%

G04:AMPARAMS|DCode=117|XSize=27.69mil|YSize=74.93mil|CornerRadius=0mil|HoleSize=0mil|Usage=FLASHONLY|Rotation=135.000|XOffset=0mil|YOffset=0mil|HoleType=Round|Shape=Rectangle|*
%AMROTATEDRECTD117*
4,1,4,0.03628,0.01670,-0.01670,-0.03628,-0.03628,-0.01670,0.01670,0.03628,0.03628,0.01670,0.0*
%
%ADD117ROTATEDRECTD117*%

G04:AMPARAMS|DCode=118|XSize=67.06mil|YSize=67.06mil|CornerRadius=9.91mil|HoleSize=0mil|Usage=FLASHONLY|Rotation=135.000|XOffset=0mil|YOffset=0mil|HoleType=Round|Shape=RoundedRectangle|*
%AMROUNDEDRECTD118*
21,1,0.06706,0.04724,0,0,135.0*
21,1,0.04724,0.06706,0,0,135.0*
1,1,0.01981,0.00000,0.03341*
1,1,0.01981,0.03341,0.00000*
1,1,0.01981,0.00000,-0.03341*
1,1,0.01981,-0.03341,0.00000*
%
%ADD118ROUNDEDRECTD118*%
%ADD119P,0.09483X4X180.0*%
G04:AMPARAMS|DCode=120|XSize=33.2mil|YSize=31.62mil|CornerRadius=0mil|HoleSize=0mil|Usage=FLASHONLY|Rotation=135.000|XOffset=0mil|YOffset=0mil|HoleType=Round|Shape=Rectangle|*
%AMROTATEDRECTD120*
4,1,4,0.02292,-0.00056,0.00056,-0.02292,-0.02292,0.00056,-0.00056,0.02292,0.02292,-0.00056,0.0*
%
%ADD120ROTATEDRECTD120*%

%ADD121R,0.01968X0.01575*%
%ADD122R,0.04528X0.04528*%
%ADD123R,0.01772X0.02461*%
%ADD124R,0.02461X0.01772*%
G04:AMPARAMS|DCode=125|XSize=32.41mil|YSize=30.44mil|CornerRadius=0mil|HoleSize=0mil|Usage=FLASHONLY|Rotation=225.000|XOffset=0mil|YOffset=0mil|HoleType=Round|Shape=Rectangle|*
%AMROTATEDRECTD125*
4,1,4,0.00070,0.02222,0.02222,0.00070,-0.00070,-0.02222,-0.02222,-0.00070,0.00070,0.02222,0.0*
%
%ADD125ROTATEDRECTD125*%

%ADD126R,0.02769X0.01981*%
%ADD127R,0.02690X0.04540*%
%ADD128R,0.06706X0.07099*%
%ADD129R,0.19304X0.06706*%
%ADD130R,0.03740X0.01772*%
%ADD131R,0.03162X0.05131*%
%ADD132R,0.01981X0.02572*%
G04:AMPARAMS|DCode=133|XSize=31.62mil|YSize=27.69mil|CornerRadius=0mil|HoleSize=0mil|Usage=FLASHONLY|Rotation=225.000|XOffset=0mil|YOffset=0mil|HoleType=Round|Shape=Rectangle|*
%AMROTATEDRECTD133*
4,1,4,0.00139,0.02097,0.02097,0.00139,-0.00139,-0.02097,-0.02097,-0.00139,0.00139,0.02097,0.0*
%
%ADD133ROTATEDRECTD133*%

%ADD134R,0.02769X0.02769*%
%ADD135R,0.01575X0.01575*%
G04:AMPARAMS|DCode=136|XSize=21.78mil|YSize=27.69mil|CornerRadius=0mil|HoleSize=0mil|Usage=FLASHONLY|Rotation=225.000|XOffset=0mil|YOffset=0mil|HoleType=Round|Shape=Rectangle|*
%AMROTATEDRECTD136*
4,1,4,-0.00209,0.01749,0.01749,-0.00209,0.00209,-0.01749,-0.01749,0.00209,-0.00209,0.01749,0.0*
%
%ADD136ROTATEDRECTD136*%

%ADD137R,0.07493X0.03556*%
%ADD138C,0.08674*%
G36*
X0509072Y0288608D02*
X0509097Y0288606D01*
X0509097Y0288606D01*
X0509097D01*
X0509123Y0288601D01*
X0509149Y0288596D01*
X0509149Y0288596D01*
X0509149Y0288596D01*
X0509177Y0288586D01*
X0509198Y0288579D01*
X0509198Y0288579D01*
X0509199Y0288579D01*
X0509228Y0288565D01*
X0509245Y0288556D01*
X0509245Y0288556D01*
X0509245Y0288556D01*
X0509263Y0288544D01*
X0509289Y0288527D01*
X0509289Y0288527D01*
X0509289Y0288527D01*
X0509301Y0288517D01*
X0509329Y0288492D01*
X0509329Y0288492D01*
X0509329Y0288492D01*
X0509673Y0288148D01*
X0509673Y0288148D01*
X0509673Y0288148D01*
X0509708Y0288108D01*
X0509727Y0288079D01*
X0509737Y0288065D01*
X0509737Y0288065D01*
D01*
X0509737Y0288063D01*
X0509760Y0288018D01*
X0509761Y0288015D01*
X0509777Y0287968D01*
X0509783Y0287937D01*
X0509787Y0287916D01*
X0509791Y0287864D01*
Y0287864D01*
Y0287864D01*
X0509791Y0287225D01*
X0509787Y0287172D01*
X0509783Y0287152D01*
X0509777Y0287121D01*
X0509760Y0287071D01*
X0509737Y0287024D01*
D01*
X0509737Y0287024D01*
X0509727Y0287009D01*
X0509708Y0286981D01*
X0509673Y0286941D01*
X0509673Y0286941D01*
X0509673Y0286941D01*
X0509634Y0286907D01*
X0509605Y0286887D01*
X0509590Y0286877D01*
X0509590Y0286877D01*
D01*
X0509543Y0286854D01*
X0509493Y0286837D01*
X0509462Y0286831D01*
X0509442Y0286827D01*
X0509390Y0286824D01*
X0508307D01*
X0508255Y0286827D01*
X0508203Y0286837D01*
X0508154Y0286854D01*
X0508107Y0286877D01*
X0508063Y0286907D01*
X0508024Y0286941D01*
X0507989Y0286981D01*
X0507960Y0287024D01*
X0507937Y0287071D01*
X0507920Y0287121D01*
X0507910Y0287172D01*
X0507906Y0287225D01*
Y0288209D01*
X0507908Y0288236D01*
X0507910Y0288261D01*
X0507910Y0288261D01*
Y0288261D01*
X0507915Y0288286D01*
X0507920Y0288312D01*
X0507920Y0288313D01*
X0507920Y0288313D01*
X0507926Y0288331D01*
X0507937Y0288362D01*
X0507937Y0288362D01*
X0507937Y0288362D01*
X0507947Y0288383D01*
X0507960Y0288409D01*
X0507960Y0288409D01*
X0507960Y0288409D01*
X0507972Y0288427D01*
X0507989Y0288453D01*
X0507989Y0288453D01*
X0507989Y0288453D01*
X0507999Y0288464D01*
X0508024Y0288492D01*
X0508024Y0288492D01*
X0508024Y0288492D01*
X0508051Y0288516D01*
X0508063Y0288527D01*
X0508063Y0288527D01*
X0508063Y0288527D01*
X0508089Y0288544D01*
X0508107Y0288556D01*
X0508107Y0288556D01*
X0508107Y0288556D01*
X0508132Y0288569D01*
X0508154Y0288579D01*
X0508154Y0288579D01*
X0508154Y0288579D01*
X0508185Y0288590D01*
X0508203Y0288596D01*
X0508203Y0288596D01*
X0508203Y0288596D01*
X0508229Y0288601D01*
X0508255Y0288606D01*
X0508255D01*
X0508255Y0288606D01*
X0508280Y0288608D01*
X0508307Y0288610D01*
X0509045Y0288610D01*
X0509045D01*
X0509045D01*
X0509072Y0288608D01*
D02*
G37*
G36*
X0406710D02*
X0406735Y0288606D01*
X0406735Y0288606D01*
X0406735D01*
X0406761Y0288601D01*
X0406787Y0288596D01*
X0406787Y0288596D01*
X0406787Y0288596D01*
X0406815Y0288586D01*
X0406836Y0288579D01*
X0406836Y0288579D01*
X0406836Y0288579D01*
X0406866Y0288565D01*
X0406883Y0288556D01*
X0406883Y0288556D01*
X0406883Y0288556D01*
X0406901Y0288544D01*
X0406927Y0288527D01*
X0406927Y0288527D01*
X0406927Y0288527D01*
X0406939Y0288517D01*
X0406966Y0288492D01*
X0406966Y0288492D01*
X0406966Y0288492D01*
X0407311Y0288148D01*
X0407311Y0288148D01*
X0407311Y0288148D01*
X0407346Y0288108D01*
X0407365Y0288079D01*
X0407375Y0288065D01*
X0407375Y0288065D01*
D01*
X0407375Y0288063D01*
X0407398Y0288018D01*
X0407399Y0288015D01*
X0407415Y0287968D01*
X0407421Y0287937D01*
X0407425Y0287916D01*
X0407428Y0287864D01*
Y0287864D01*
Y0287864D01*
X0407428Y0287225D01*
X0407425Y0287172D01*
X0407421Y0287152D01*
X0407415Y0287121D01*
X0407398Y0287071D01*
X0407375Y0287024D01*
D01*
X0407375Y0287024D01*
X0407365Y0287009D01*
X0407346Y0286981D01*
X0407311Y0286941D01*
X0407311Y0286941D01*
X0407311Y0286941D01*
X0407271Y0286907D01*
X0407243Y0286887D01*
X0407228Y0286877D01*
X0407228Y0286877D01*
D01*
X0407181Y0286854D01*
X0407131Y0286837D01*
X0407100Y0286831D01*
X0407080Y0286827D01*
X0407027Y0286824D01*
X0405945D01*
X0405893Y0286827D01*
X0405841Y0286837D01*
X0405791Y0286854D01*
X0405744Y0286877D01*
X0405701Y0286907D01*
X0405661Y0286941D01*
X0405627Y0286981D01*
X0405598Y0287024D01*
X0405575Y0287071D01*
X0405558Y0287121D01*
X0405547Y0287172D01*
X0405544Y0287225D01*
Y0288209D01*
X0405546Y0288236D01*
X0405547Y0288261D01*
X0405547Y0288261D01*
Y0288261D01*
X0405552Y0288286D01*
X0405558Y0288312D01*
X0405558Y0288313D01*
X0405558Y0288313D01*
X0405564Y0288331D01*
X0405575Y0288362D01*
X0405575Y0288362D01*
X0405575Y0288362D01*
X0405585Y0288383D01*
X0405598Y0288409D01*
X0405598Y0288409D01*
X0405598Y0288409D01*
X0405610Y0288427D01*
X0405627Y0288453D01*
X0405627Y0288453D01*
X0405627Y0288453D01*
X0405637Y0288464D01*
X0405661Y0288492D01*
X0405661Y0288492D01*
X0405661Y0288492D01*
X0405689Y0288516D01*
X0405701Y0288527D01*
X0405701Y0288527D01*
X0405701Y0288527D01*
X0405727Y0288544D01*
X0405744Y0288556D01*
X0405744Y0288556D01*
X0405744Y0288556D01*
X0405770Y0288569D01*
X0405791Y0288579D01*
X0405791Y0288579D01*
X0405791Y0288579D01*
X0405822Y0288590D01*
X0405841Y0288596D01*
X0405841Y0288596D01*
X0405841Y0288596D01*
X0405867Y0288601D01*
X0405893Y0288606D01*
X0405893D01*
X0405893Y0288606D01*
X0405917Y0288608D01*
X0405945Y0288610D01*
X0406683Y0288610D01*
X0406683D01*
X0406683D01*
X0406710Y0288608D01*
D02*
G37*
G36*
X0304348D02*
X0304373Y0288606D01*
X0304373Y0288606D01*
X0304373D01*
X0304398Y0288601D01*
X0304424Y0288596D01*
X0304424Y0288596D01*
X0304424Y0288596D01*
X0304453Y0288586D01*
X0304474Y0288579D01*
X0304474Y0288579D01*
X0304474Y0288579D01*
X0304504Y0288565D01*
X0304521Y0288556D01*
X0304521Y0288556D01*
X0304521Y0288556D01*
X0304539Y0288544D01*
X0304565Y0288527D01*
X0304565Y0288527D01*
X0304565Y0288527D01*
X0304576Y0288517D01*
X0304604Y0288492D01*
X0304604Y0288492D01*
X0304604Y0288492D01*
X0304949Y0288148D01*
X0304949Y0288148D01*
X0304949Y0288148D01*
X0304983Y0288108D01*
X0305003Y0288079D01*
X0305012Y0288065D01*
X0305012Y0288065D01*
D01*
X0305013Y0288063D01*
X0305036Y0288018D01*
X0305037Y0288015D01*
X0305053Y0287968D01*
X0305059Y0287937D01*
X0305063Y0287916D01*
X0305066Y0287864D01*
Y0287864D01*
Y0287864D01*
X0305066Y0287225D01*
X0305063Y0287172D01*
X0305059Y0287152D01*
X0305052Y0287121D01*
X0305036Y0287071D01*
X0305012Y0287024D01*
D01*
X0305012Y0287024D01*
X0305003Y0287009D01*
X0304983Y0286981D01*
X0304949Y0286941D01*
X0304949Y0286941D01*
X0304949Y0286941D01*
X0304909Y0286907D01*
X0304880Y0286887D01*
X0304866Y0286877D01*
X0304866Y0286877D01*
D01*
X0304819Y0286854D01*
X0304769Y0286837D01*
X0304738Y0286831D01*
X0304718Y0286827D01*
X0304665Y0286824D01*
X0303583D01*
X0303530Y0286827D01*
X0303479Y0286837D01*
X0303429Y0286854D01*
X0303382Y0286877D01*
X0303339Y0286907D01*
X0303299Y0286941D01*
X0303265Y0286981D01*
X0303236Y0287024D01*
X0303212Y0287071D01*
X0303196Y0287121D01*
X0303185Y0287172D01*
X0303182Y0287225D01*
Y0288209D01*
X0303184Y0288236D01*
X0303185Y0288261D01*
X0303185Y0288261D01*
Y0288261D01*
X0303190Y0288286D01*
X0303195Y0288312D01*
X0303195Y0288313D01*
X0303196Y0288313D01*
X0303202Y0288331D01*
X0303212Y0288362D01*
X0303212Y0288362D01*
X0303212Y0288362D01*
X0303223Y0288383D01*
X0303236Y0288409D01*
X0303236Y0288409D01*
X0303236Y0288409D01*
X0303247Y0288427D01*
X0303265Y0288453D01*
X0303265Y0288453D01*
X0303265Y0288453D01*
X0303275Y0288464D01*
X0303299Y0288492D01*
X0303299Y0288492D01*
X0303299Y0288492D01*
X0303327Y0288516D01*
X0303339Y0288527D01*
X0303339Y0288527D01*
X0303339Y0288527D01*
X0303364Y0288544D01*
X0303382Y0288556D01*
X0303382Y0288556D01*
X0303382Y0288556D01*
X0303408Y0288569D01*
X0303429Y0288579D01*
X0303429Y0288579D01*
X0303429Y0288579D01*
X0303460Y0288590D01*
X0303479Y0288596D01*
X0303479Y0288596D01*
X0303479Y0288596D01*
X0303505Y0288601D01*
X0303530Y0288606D01*
X0303530D01*
X0303530Y0288606D01*
X0303555Y0288608D01*
X0303583Y0288610D01*
X0304321Y0288610D01*
X0304321D01*
X0304321D01*
X0304348Y0288608D01*
D02*
G37*
G36*
X0201986D02*
X0202011Y0288606D01*
X0202011Y0288606D01*
X0202011D01*
X0202036Y0288601D01*
X0202062Y0288596D01*
X0202062Y0288596D01*
X0202062Y0288596D01*
X0202090Y0288586D01*
X0202112Y0288579D01*
X0202112Y0288579D01*
X0202112Y0288579D01*
X0202142Y0288565D01*
X0202159Y0288556D01*
X0202159Y0288556D01*
X0202159Y0288556D01*
X0202177Y0288544D01*
X0202203Y0288527D01*
X0202203Y0288527D01*
X0202203Y0288527D01*
X0202214Y0288517D01*
X0202242Y0288492D01*
X0202242Y0288492D01*
X0202242Y0288492D01*
X0202587Y0288148D01*
X0202587Y0288148D01*
X0202587Y0288148D01*
X0202621Y0288108D01*
X0202641Y0288079D01*
X0202650Y0288065D01*
X0202650Y0288065D01*
D01*
X0202651Y0288063D01*
X0202674Y0288018D01*
X0202674Y0288015D01*
X0202690Y0287968D01*
X0202697Y0287937D01*
X0202701Y0287916D01*
X0202704Y0287864D01*
Y0287864D01*
Y0287864D01*
X0202704Y0287225D01*
X0202701Y0287172D01*
X0202696Y0287152D01*
X0202690Y0287121D01*
X0202674Y0287071D01*
X0202650Y0287024D01*
D01*
X0202650Y0287024D01*
X0202641Y0287009D01*
X0202621Y0286981D01*
X0202587Y0286941D01*
X0202587Y0286941D01*
X0202587Y0286941D01*
X0202547Y0286907D01*
X0202518Y0286887D01*
X0202504Y0286877D01*
X0202504Y0286877D01*
D01*
X0202456Y0286854D01*
X0202407Y0286837D01*
X0202376Y0286831D01*
X0202356Y0286827D01*
X0202303Y0286824D01*
X0201220D01*
X0201168Y0286827D01*
X0201117Y0286837D01*
X0201067Y0286854D01*
X0201020Y0286877D01*
X0200976Y0286907D01*
X0200937Y0286941D01*
X0200902Y0286981D01*
X0200873Y0287024D01*
X0200850Y0287071D01*
X0200833Y0287121D01*
X0200823Y0287172D01*
X0200820Y0287225D01*
Y0288209D01*
X0200821Y0288236D01*
X0200823Y0288261D01*
X0200823Y0288261D01*
Y0288261D01*
X0200828Y0288286D01*
X0200833Y0288312D01*
X0200833Y0288313D01*
X0200833Y0288313D01*
X0200840Y0288331D01*
X0200850Y0288362D01*
X0200850Y0288362D01*
X0200850Y0288362D01*
X0200861Y0288383D01*
X0200873Y0288409D01*
X0200873Y0288409D01*
X0200873Y0288409D01*
X0200885Y0288427D01*
X0200902Y0288453D01*
X0200902Y0288453D01*
X0200902Y0288453D01*
X0200913Y0288464D01*
X0200937Y0288492D01*
X0200937Y0288492D01*
X0200937Y0288492D01*
X0200965Y0288516D01*
X0200976Y0288527D01*
X0200976Y0288527D01*
X0200976Y0288527D01*
X0201002Y0288544D01*
X0201020Y0288556D01*
X0201020Y0288556D01*
X0201020Y0288556D01*
X0201046Y0288569D01*
X0201067Y0288579D01*
X0201067Y0288579D01*
X0201067Y0288579D01*
X0201098Y0288590D01*
X0201117Y0288596D01*
X0201117Y0288596D01*
X0201117Y0288596D01*
X0201143Y0288601D01*
X0201168Y0288606D01*
X0201168D01*
X0201168Y0288606D01*
X0201193Y0288608D01*
X0201220Y0288610D01*
X0201958Y0288610D01*
X0201958D01*
X0201958D01*
X0201986Y0288608D01*
D02*
G37*
G36*
X0099624D02*
X0099649Y0288606D01*
X0099649Y0288606D01*
X0099649D01*
X0099674Y0288601D01*
X0099700Y0288596D01*
X0099700Y0288596D01*
X0099700Y0288596D01*
X0099728Y0288586D01*
X0099750Y0288579D01*
X0099750Y0288579D01*
X0099750Y0288579D01*
X0099779Y0288565D01*
X0099797Y0288556D01*
X0099797Y0288556D01*
X0099797Y0288556D01*
X0099814Y0288544D01*
X0099840Y0288527D01*
X0099840Y0288527D01*
X0099840Y0288527D01*
X0099852Y0288517D01*
X0099880Y0288492D01*
X0099880Y0288492D01*
X0099880Y0288492D01*
X0100224Y0288148D01*
X0100224Y0288148D01*
X0100224Y0288148D01*
X0100259Y0288108D01*
X0100278Y0288079D01*
X0100288Y0288065D01*
X0100288Y0288065D01*
D01*
X0100289Y0288063D01*
X0100311Y0288018D01*
X0100312Y0288015D01*
X0100328Y0287968D01*
X0100334Y0287937D01*
X0100338Y0287916D01*
X0100342Y0287864D01*
Y0287864D01*
Y0287864D01*
X0100342Y0287225D01*
X0100338Y0287172D01*
X0100334Y0287152D01*
X0100328Y0287121D01*
X0100311Y0287071D01*
X0100288Y0287024D01*
D01*
X0100288Y0287024D01*
X0100278Y0287009D01*
X0100259Y0286981D01*
X0100224Y0286941D01*
X0100224Y0286941D01*
X0100224Y0286941D01*
X0100185Y0286907D01*
X0100156Y0286887D01*
X0100141Y0286877D01*
X0100141Y0286877D01*
D01*
X0100094Y0286854D01*
X0100045Y0286837D01*
X0100014Y0286831D01*
X0099993Y0286827D01*
X0099941Y0286824D01*
X0098858D01*
X0098806Y0286827D01*
X0098755Y0286837D01*
X0098705Y0286854D01*
X0098658Y0286877D01*
X0098614Y0286907D01*
X0098575Y0286941D01*
X0098540Y0286981D01*
X0098511Y0287024D01*
X0098488Y0287071D01*
X0098471Y0287121D01*
X0098461Y0287172D01*
X0098457Y0287225D01*
Y0288209D01*
X0098459Y0288236D01*
X0098461Y0288261D01*
X0098461Y0288261D01*
Y0288261D01*
X0098466Y0288286D01*
X0098471Y0288312D01*
X0098471Y0288313D01*
X0098471Y0288313D01*
X0098477Y0288331D01*
X0098488Y0288362D01*
X0098488Y0288362D01*
X0098488Y0288362D01*
X0098498Y0288383D01*
X0098511Y0288409D01*
X0098511Y0288409D01*
X0098511Y0288409D01*
X0098523Y0288427D01*
X0098540Y0288453D01*
X0098540Y0288453D01*
X0098540Y0288453D01*
X0098550Y0288464D01*
X0098575Y0288492D01*
X0098575Y0288492D01*
X0098575Y0288492D01*
X0098602Y0288516D01*
X0098614Y0288527D01*
X0098614Y0288527D01*
X0098614Y0288527D01*
X0098640Y0288544D01*
X0098658Y0288556D01*
X0098658Y0288556D01*
X0098658Y0288556D01*
X0098684Y0288569D01*
X0098705Y0288579D01*
X0098705Y0288579D01*
X0098705Y0288579D01*
X0098736Y0288590D01*
X0098755Y0288596D01*
X0098755Y0288596D01*
X0098755Y0288596D01*
X0098781Y0288601D01*
X0098806Y0288606D01*
X0098806D01*
X0098806Y0288606D01*
X0098831Y0288608D01*
X0098858Y0288610D01*
X0099596Y0288610D01*
X0099596D01*
X0099596D01*
X0099624Y0288608D01*
D02*
G37*
G36*
X0523675Y0211066D02*
X0523706Y0211060D01*
X0523727Y0211056D01*
X0523727Y0211056D01*
D01*
X0523776Y0211039D01*
X0523823Y0211016D01*
X0523867Y0210986D01*
X0523904Y0210954D01*
X0523906Y0210952D01*
Y0210952D01*
X0523907D01*
X0523909Y0210949D01*
X0523941Y0210912D01*
X0523970Y0210869D01*
X0523993Y0210822D01*
X0524010Y0210772D01*
D01*
X0524010Y0210772D01*
X0524014Y0210752D01*
X0524020Y0210721D01*
X0524024Y0210668D01*
Y0210668D01*
Y0210668D01*
X0524024Y0207598D01*
X0524022Y0207573D01*
X0524020Y0207546D01*
X0524020Y0207546D01*
X0524020Y0207546D01*
X0524016Y0207522D01*
X0524010Y0207495D01*
X0524010Y0207495D01*
X0524010Y0207495D01*
X0524003Y0207474D01*
X0523993Y0207445D01*
X0523993Y0207445D01*
X0523993Y0207445D01*
X0523983Y0207424D01*
X0523970Y0207398D01*
X0523970Y0207398D01*
X0523970Y0207398D01*
X0523954Y0207374D01*
X0523941Y0207354D01*
X0523941Y0207354D01*
X0523941Y0207354D01*
X0523922Y0207333D01*
X0523907Y0207315D01*
X0523906Y0207315D01*
X0523906Y0207315D01*
X0523888Y0207299D01*
X0523867Y0207280D01*
X0523867Y0207280D01*
X0523867Y0207280D01*
X0523847Y0207267D01*
X0523823Y0207251D01*
X0523823Y0207251D01*
X0523823Y0207251D01*
X0523798Y0207239D01*
X0523776Y0207228D01*
X0523776Y0207228D01*
X0523776Y0207228D01*
X0523748Y0207218D01*
X0523727Y0207211D01*
X0523727Y0207211D01*
X0523727Y0207211D01*
X0523699Y0207206D01*
X0523675Y0207201D01*
X0523675Y0207201D01*
X0523675Y0207201D01*
X0523649Y0207199D01*
X0523623Y0207197D01*
X0516773Y0207193D01*
X0516773Y0207193D01*
X0516773Y0207193D01*
X0516753Y0207194D01*
X0516721Y0207196D01*
X0516721Y0207196D01*
X0516721D01*
X0516696Y0207201D01*
X0516670Y0207206D01*
X0516670Y0207206D01*
X0516669Y0207206D01*
X0516643Y0207215D01*
X0516620Y0207223D01*
X0516620Y0207223D01*
X0516620Y0207223D01*
X0516603Y0207231D01*
X0516573Y0207246D01*
X0516573Y0207246D01*
X0516573Y0207246D01*
X0516556Y0207257D01*
X0516529Y0207275D01*
X0516529Y0207275D01*
X0516529Y0207276D01*
X0516512Y0207291D01*
X0516490Y0207310D01*
X0516490Y0207310D01*
X0516490Y0207310D01*
X0516471Y0207332D01*
X0516455Y0207349D01*
X0516455Y0207349D01*
X0516455Y0207349D01*
X0516437Y0207376D01*
X0516426Y0207393D01*
X0516426Y0207393D01*
X0516426Y0207393D01*
X0516411Y0207423D01*
X0516403Y0207440D01*
X0516403Y0207440D01*
X0516403Y0207440D01*
X0516395Y0207463D01*
X0516386Y0207489D01*
X0516386Y0207490D01*
X0516386Y0207490D01*
X0516381Y0207516D01*
X0516376Y0207541D01*
Y0207541D01*
X0516376Y0207541D01*
X0516373Y0207573D01*
X0516372Y0207593D01*
X0516372Y0207593D01*
X0516372Y0207593D01*
X0516371Y0210078D01*
X0516371Y0210078D01*
X0516371Y0210078D01*
X0516373Y0210107D01*
X0516375Y0210130D01*
X0516375Y0210130D01*
X0516375Y0210131D01*
X0516380Y0210154D01*
X0516385Y0210182D01*
X0516385Y0210182D01*
X0516385Y0210182D01*
X0516391Y0210200D01*
X0516402Y0210231D01*
X0516402Y0210231D01*
X0516402Y0210232D01*
X0516414Y0210255D01*
X0516425Y0210278D01*
X0516425Y0210278D01*
X0516425Y0210279D01*
X0516443Y0210306D01*
X0516454Y0210322D01*
X0516454Y0210322D01*
X0516455Y0210322D01*
X0516474Y0210345D01*
X0516489Y0210361D01*
X0516489Y0210362D01*
X0516489Y0210362D01*
X0517081Y0210952D01*
X0517098Y0210967D01*
X0517120Y0210986D01*
X0517120Y0210986D01*
X0517120Y0210987D01*
X0517140Y0211000D01*
X0517163Y0211016D01*
X0517164Y0211016D01*
X0517164Y0211016D01*
X0517187Y0211027D01*
X0517210Y0211039D01*
X0517210Y0211039D01*
X0517211Y0211039D01*
X0517229Y0211045D01*
X0517260Y0211056D01*
X0517260Y0211056D01*
X0517260Y0211056D01*
X0517279Y0211059D01*
X0517311Y0211066D01*
X0517312Y0211066D01*
X0517312Y0211066D01*
X0517336Y0211067D01*
X0517364Y0211069D01*
X0523623Y0211069D01*
X0523623D01*
X0523623D01*
X0523675Y0211066D01*
D02*
G37*
G36*
X0421313D02*
X0421344Y0211060D01*
X0421364Y0211056D01*
X0421365Y0211056D01*
D01*
X0421414Y0211039D01*
X0421461Y0211016D01*
X0421505Y0210986D01*
X0421542Y0210954D01*
X0421544Y0210952D01*
Y0210952D01*
X0421544D01*
X0421547Y0210949D01*
X0421579Y0210912D01*
X0421608Y0210869D01*
X0421631Y0210822D01*
X0421648Y0210772D01*
D01*
X0421648Y0210772D01*
X0421652Y0210752D01*
X0421658Y0210721D01*
X0421662Y0210668D01*
Y0210668D01*
Y0210668D01*
X0421662Y0207598D01*
X0421660Y0207573D01*
X0421658Y0207546D01*
X0421658Y0207546D01*
X0421658Y0207546D01*
X0421653Y0207522D01*
X0421648Y0207495D01*
X0421648Y0207495D01*
X0421648Y0207495D01*
X0421641Y0207474D01*
X0421631Y0207445D01*
X0421631Y0207445D01*
X0421631Y0207445D01*
X0421621Y0207424D01*
X0421608Y0207398D01*
X0421608Y0207398D01*
X0421608Y0207398D01*
X0421592Y0207374D01*
X0421579Y0207354D01*
X0421579Y0207354D01*
X0421579Y0207354D01*
X0421560Y0207333D01*
X0421544Y0207315D01*
X0421544Y0207315D01*
X0421544Y0207315D01*
X0421526Y0207299D01*
X0421505Y0207280D01*
X0421505Y0207280D01*
X0421505Y0207280D01*
X0421485Y0207267D01*
X0421461Y0207251D01*
X0421461Y0207251D01*
X0421461Y0207251D01*
X0421436Y0207239D01*
X0421414Y0207228D01*
X0421414Y0207228D01*
X0421414Y0207228D01*
X0421386Y0207218D01*
X0421365Y0207211D01*
X0421364Y0207211D01*
X0421364Y0207211D01*
X0421337Y0207206D01*
X0421313Y0207201D01*
X0421313Y0207201D01*
X0421313Y0207201D01*
X0421287Y0207199D01*
X0421261Y0207197D01*
X0414411Y0207193D01*
X0414411Y0207193D01*
X0414411Y0207193D01*
X0414391Y0207194D01*
X0414359Y0207196D01*
X0414359Y0207196D01*
X0414359D01*
X0414334Y0207201D01*
X0414307Y0207206D01*
X0414307Y0207206D01*
X0414307Y0207206D01*
X0414281Y0207215D01*
X0414258Y0207223D01*
X0414258Y0207223D01*
X0414257Y0207223D01*
X0414241Y0207231D01*
X0414211Y0207246D01*
X0414211Y0207246D01*
X0414211Y0207246D01*
X0414194Y0207257D01*
X0414167Y0207275D01*
X0414167Y0207275D01*
X0414167Y0207276D01*
X0414150Y0207291D01*
X0414128Y0207310D01*
X0414127Y0207310D01*
X0414127Y0207310D01*
X0414108Y0207332D01*
X0414093Y0207349D01*
X0414093Y0207349D01*
X0414093Y0207349D01*
X0414075Y0207376D01*
X0414064Y0207393D01*
X0414064Y0207393D01*
X0414064Y0207393D01*
X0414049Y0207423D01*
X0414041Y0207440D01*
X0414041Y0207440D01*
X0414041Y0207440D01*
X0414033Y0207463D01*
X0414024Y0207489D01*
X0414024Y0207490D01*
X0414024Y0207490D01*
X0414018Y0207516D01*
X0414013Y0207541D01*
Y0207541D01*
X0414013Y0207541D01*
X0414011Y0207573D01*
X0414010Y0207593D01*
X0414010Y0207593D01*
X0414010Y0207593D01*
X0414009Y0210078D01*
X0414009Y0210078D01*
X0414009Y0210078D01*
X0414011Y0210107D01*
X0414013Y0210130D01*
X0414013Y0210130D01*
X0414013Y0210131D01*
X0414018Y0210154D01*
X0414023Y0210182D01*
X0414023Y0210182D01*
X0414023Y0210182D01*
X0414029Y0210200D01*
X0414040Y0210231D01*
X0414040Y0210231D01*
X0414040Y0210232D01*
X0414051Y0210255D01*
X0414063Y0210278D01*
X0414063Y0210278D01*
X0414063Y0210279D01*
X0414081Y0210306D01*
X0414092Y0210322D01*
X0414092Y0210322D01*
X0414092Y0210322D01*
X0414112Y0210345D01*
X0414127Y0210361D01*
X0414127Y0210362D01*
X0414127Y0210362D01*
X0414718Y0210952D01*
X0414736Y0210967D01*
X0414757Y0210986D01*
X0414758Y0210986D01*
X0414758Y0210987D01*
X0414778Y0211000D01*
X0414801Y0211016D01*
X0414801Y0211016D01*
X0414801Y0211016D01*
X0414824Y0211027D01*
X0414848Y0211039D01*
X0414848Y0211039D01*
X0414849Y0211039D01*
X0414866Y0211045D01*
X0414898Y0211056D01*
X0414898Y0211056D01*
X0414898Y0211056D01*
X0414917Y0211059D01*
X0414949Y0211066D01*
X0414949Y0211066D01*
X0414950Y0211066D01*
X0414974Y0211067D01*
X0415002Y0211069D01*
X0421261Y0211069D01*
X0421261D01*
X0421261D01*
X0421313Y0211066D01*
D02*
G37*
G36*
X0318951D02*
X0318982Y0211060D01*
X0319002Y0211056D01*
X0319002Y0211056D01*
D01*
X0319052Y0211039D01*
X0319099Y0211016D01*
X0319143Y0210986D01*
X0319179Y0210954D01*
X0319182Y0210952D01*
Y0210952D01*
X0319182D01*
X0319184Y0210949D01*
X0319217Y0210912D01*
X0319246Y0210869D01*
X0319269Y0210822D01*
X0319286Y0210772D01*
D01*
X0319286Y0210772D01*
X0319290Y0210752D01*
X0319296Y0210721D01*
X0319300Y0210668D01*
Y0210668D01*
Y0210668D01*
X0319299Y0207598D01*
X0319298Y0207573D01*
X0319296Y0207546D01*
X0319296Y0207546D01*
X0319296Y0207546D01*
X0319291Y0207522D01*
X0319286Y0207495D01*
X0319286Y0207495D01*
X0319286Y0207495D01*
X0319279Y0207474D01*
X0319269Y0207445D01*
X0319269Y0207445D01*
X0319269Y0207445D01*
X0319258Y0207424D01*
X0319246Y0207398D01*
X0319246Y0207398D01*
X0319246Y0207398D01*
X0319230Y0207374D01*
X0319217Y0207354D01*
X0319217Y0207354D01*
X0319216Y0207354D01*
X0319198Y0207333D01*
X0319182Y0207315D01*
X0319182Y0207315D01*
X0319182Y0207315D01*
X0319164Y0207299D01*
X0319143Y0207280D01*
X0319143Y0207280D01*
X0319143Y0207280D01*
X0319123Y0207267D01*
X0319099Y0207251D01*
X0319099Y0207251D01*
X0319099Y0207251D01*
X0319074Y0207239D01*
X0319052Y0207228D01*
X0319052Y0207228D01*
X0319052Y0207228D01*
X0319023Y0207218D01*
X0319003Y0207211D01*
X0319002Y0207211D01*
X0319002Y0207211D01*
X0318975Y0207206D01*
X0318951Y0207201D01*
X0318951Y0207201D01*
X0318951Y0207201D01*
X0318924Y0207199D01*
X0318899Y0207197D01*
X0312049Y0207193D01*
X0312049Y0207193D01*
X0312049Y0207193D01*
X0312028Y0207194D01*
X0311997Y0207196D01*
X0311997Y0207196D01*
X0311996D01*
X0311972Y0207201D01*
X0311945Y0207206D01*
X0311945Y0207206D01*
X0311945Y0207206D01*
X0311919Y0207215D01*
X0311895Y0207223D01*
X0311895Y0207223D01*
X0311895Y0207223D01*
X0311879Y0207231D01*
X0311848Y0207246D01*
X0311848Y0207246D01*
X0311848Y0207246D01*
X0311832Y0207257D01*
X0311805Y0207275D01*
X0311805Y0207275D01*
X0311805Y0207276D01*
X0311787Y0207291D01*
X0311765Y0207310D01*
X0311765Y0207310D01*
X0311765Y0207310D01*
X0311746Y0207332D01*
X0311731Y0207349D01*
X0311731Y0207349D01*
X0311731Y0207349D01*
X0311713Y0207376D01*
X0311702Y0207393D01*
X0311702Y0207393D01*
X0311701Y0207393D01*
X0311687Y0207423D01*
X0311678Y0207440D01*
X0311678Y0207440D01*
X0311678Y0207440D01*
X0311670Y0207463D01*
X0311662Y0207489D01*
X0311662Y0207490D01*
X0311662Y0207490D01*
X0311656Y0207516D01*
X0311651Y0207541D01*
Y0207541D01*
X0311651Y0207541D01*
X0311649Y0207573D01*
X0311648Y0207593D01*
X0311648Y0207593D01*
X0311648Y0207593D01*
X0311647Y0210078D01*
X0311647Y0210078D01*
X0311647Y0210078D01*
X0311649Y0210107D01*
X0311651Y0210130D01*
X0311651Y0210130D01*
X0311651Y0210131D01*
X0311655Y0210154D01*
X0311661Y0210182D01*
X0311661Y0210182D01*
X0311661Y0210182D01*
X0311667Y0210200D01*
X0311678Y0210231D01*
X0311678Y0210231D01*
X0311678Y0210232D01*
X0311689Y0210255D01*
X0311701Y0210278D01*
X0311701Y0210278D01*
X0311701Y0210279D01*
X0311719Y0210306D01*
X0311730Y0210322D01*
X0311730Y0210322D01*
X0311730Y0210322D01*
X0311750Y0210345D01*
X0311765Y0210361D01*
X0311765Y0210362D01*
X0311765Y0210362D01*
X0312356Y0210952D01*
X0312373Y0210967D01*
X0312395Y0210986D01*
X0312396Y0210986D01*
X0312396Y0210987D01*
X0312415Y0211000D01*
X0312439Y0211016D01*
X0312439Y0211016D01*
X0312439Y0211016D01*
X0312462Y0211027D01*
X0312486Y0211039D01*
X0312486Y0211039D01*
X0312486Y0211039D01*
X0312504Y0211045D01*
X0312536Y0211056D01*
X0312536Y0211056D01*
X0312536Y0211056D01*
X0312554Y0211059D01*
X0312587Y0211066D01*
X0312587Y0211066D01*
X0312587Y0211066D01*
X0312611Y0211067D01*
X0312639Y0211069D01*
X0318899Y0211069D01*
X0318899D01*
X0318899D01*
X0318951Y0211066D01*
D02*
G37*
G36*
X0216589D02*
X0216619Y0211060D01*
X0216640Y0211056D01*
X0216640Y0211056D01*
D01*
X0216690Y0211039D01*
X0216737Y0211016D01*
X0216780Y0210986D01*
X0216817Y0210954D01*
X0216820Y0210952D01*
Y0210952D01*
X0216820D01*
X0216822Y0210949D01*
X0216854Y0210912D01*
X0216884Y0210869D01*
X0216907Y0210822D01*
X0216924Y0210772D01*
D01*
X0216924Y0210772D01*
X0216928Y0210752D01*
X0216934Y0210721D01*
X0216937Y0210668D01*
Y0210668D01*
Y0210668D01*
X0216937Y0207598D01*
X0216935Y0207573D01*
X0216934Y0207546D01*
X0216934Y0207546D01*
X0216934Y0207546D01*
X0216929Y0207522D01*
X0216923Y0207495D01*
X0216923Y0207495D01*
X0216923Y0207495D01*
X0216916Y0207474D01*
X0216907Y0207445D01*
X0216907Y0207445D01*
X0216907Y0207445D01*
X0216896Y0207424D01*
X0216884Y0207398D01*
X0216883Y0207398D01*
X0216883Y0207398D01*
X0216868Y0207374D01*
X0216854Y0207354D01*
X0216854Y0207354D01*
X0216854Y0207354D01*
X0216836Y0207333D01*
X0216820Y0207315D01*
X0216820Y0207315D01*
X0216820Y0207315D01*
X0216802Y0207299D01*
X0216780Y0207280D01*
X0216780Y0207280D01*
X0216780Y0207280D01*
X0216761Y0207267D01*
X0216737Y0207251D01*
X0216737Y0207251D01*
X0216737Y0207251D01*
X0216711Y0207239D01*
X0216690Y0207228D01*
X0216690Y0207228D01*
X0216690Y0207228D01*
X0216661Y0207218D01*
X0216640Y0207211D01*
X0216640Y0207211D01*
X0216640Y0207211D01*
X0216613Y0207206D01*
X0216589Y0207201D01*
X0216589Y0207201D01*
X0216589Y0207201D01*
X0216562Y0207199D01*
X0216536Y0207197D01*
X0209687Y0207193D01*
X0209687Y0207193D01*
X0209687Y0207193D01*
X0209666Y0207194D01*
X0209634Y0207196D01*
X0209634Y0207196D01*
X0209634D01*
X0209610Y0207201D01*
X0209583Y0207206D01*
X0209583Y0207206D01*
X0209583Y0207206D01*
X0209557Y0207215D01*
X0209533Y0207223D01*
X0209533Y0207223D01*
X0209533Y0207223D01*
X0209517Y0207231D01*
X0209486Y0207246D01*
X0209486Y0207246D01*
X0209486Y0207246D01*
X0209470Y0207257D01*
X0209443Y0207275D01*
X0209443Y0207275D01*
X0209442Y0207276D01*
X0209425Y0207291D01*
X0209403Y0207310D01*
X0209403Y0207310D01*
X0209403Y0207310D01*
X0209384Y0207332D01*
X0209369Y0207349D01*
X0209369Y0207349D01*
X0209368Y0207349D01*
X0209351Y0207376D01*
X0209339Y0207393D01*
X0209339Y0207393D01*
X0209339Y0207393D01*
X0209325Y0207423D01*
X0209316Y0207440D01*
X0209316Y0207440D01*
X0209316Y0207440D01*
X0209308Y0207463D01*
X0209299Y0207489D01*
X0209299Y0207490D01*
X0209299Y0207490D01*
X0209294Y0207516D01*
X0209289Y0207541D01*
Y0207541D01*
X0209289Y0207541D01*
X0209287Y0207573D01*
X0209286Y0207593D01*
X0209286Y0207593D01*
X0209286Y0207593D01*
X0209285Y0210078D01*
X0209285Y0210078D01*
X0209285Y0210078D01*
X0209287Y0210107D01*
X0209288Y0210130D01*
X0209288Y0210130D01*
X0209288Y0210131D01*
X0209293Y0210154D01*
X0209299Y0210182D01*
X0209299Y0210182D01*
X0209299Y0210182D01*
X0209305Y0210200D01*
X0209315Y0210231D01*
X0209315Y0210231D01*
X0209316Y0210232D01*
X0209327Y0210255D01*
X0209339Y0210278D01*
X0209339Y0210278D01*
X0209339Y0210279D01*
X0209357Y0210306D01*
X0209368Y0210322D01*
X0209368Y0210322D01*
X0209368Y0210322D01*
X0209387Y0210345D01*
X0209402Y0210361D01*
X0209402Y0210362D01*
X0209403Y0210362D01*
X0209994Y0210952D01*
X0210011Y0210967D01*
X0210033Y0210986D01*
X0210033Y0210986D01*
X0210033Y0210987D01*
X0210053Y0211000D01*
X0210077Y0211016D01*
X0210077Y0211016D01*
X0210077Y0211016D01*
X0210100Y0211027D01*
X0210124Y0211039D01*
X0210124Y0211039D01*
X0210124Y0211039D01*
X0210142Y0211045D01*
X0210173Y0211056D01*
X0210174Y0211056D01*
X0210174Y0211056D01*
X0210192Y0211059D01*
X0210225Y0211066D01*
X0210225Y0211066D01*
X0210225Y0211066D01*
X0210249Y0211067D01*
X0210277Y0211069D01*
X0216536Y0211069D01*
X0216536D01*
X0216536D01*
X0216589Y0211066D01*
D02*
G37*
G36*
X0114227D02*
X0114257Y0211060D01*
X0114278Y0211056D01*
X0114278Y0211056D01*
D01*
X0114328Y0211039D01*
X0114375Y0211016D01*
X0114418Y0210986D01*
X0114455Y0210954D01*
X0114458Y0210952D01*
Y0210952D01*
X0114458D01*
X0114460Y0210949D01*
X0114492Y0210912D01*
X0114521Y0210869D01*
X0114545Y0210822D01*
X0114561Y0210772D01*
D01*
X0114561Y0210772D01*
X0114566Y0210752D01*
X0114572Y0210721D01*
X0114575Y0210668D01*
Y0210668D01*
Y0210668D01*
X0114575Y0207598D01*
X0114573Y0207573D01*
X0114571Y0207546D01*
X0114571Y0207546D01*
X0114571Y0207546D01*
X0114567Y0207522D01*
X0114561Y0207495D01*
X0114561Y0207495D01*
X0114561Y0207495D01*
X0114554Y0207474D01*
X0114544Y0207445D01*
X0114544Y0207445D01*
X0114544Y0207445D01*
X0114534Y0207424D01*
X0114521Y0207398D01*
X0114521Y0207398D01*
X0114521Y0207398D01*
X0114505Y0207374D01*
X0114492Y0207354D01*
X0114492Y0207354D01*
X0114492Y0207354D01*
X0114473Y0207333D01*
X0114458Y0207315D01*
X0114458Y0207315D01*
X0114457Y0207315D01*
X0114440Y0207299D01*
X0114418Y0207280D01*
X0114418Y0207280D01*
X0114418Y0207280D01*
X0114399Y0207267D01*
X0114375Y0207251D01*
X0114375Y0207251D01*
X0114374Y0207251D01*
X0114349Y0207239D01*
X0114328Y0207228D01*
X0114328Y0207228D01*
X0114327Y0207228D01*
X0114299Y0207218D01*
X0114278Y0207211D01*
X0114278Y0207211D01*
X0114278Y0207211D01*
X0114251Y0207206D01*
X0114227Y0207201D01*
X0114226Y0207201D01*
X0114226Y0207201D01*
X0114200Y0207199D01*
X0114174Y0207197D01*
X0107325Y0207193D01*
X0107325Y0207193D01*
X0107324Y0207193D01*
X0107304Y0207194D01*
X0107272Y0207196D01*
X0107272Y0207196D01*
X0107272D01*
X0107248Y0207201D01*
X0107221Y0207206D01*
X0107221Y0207206D01*
X0107221Y0207206D01*
X0107194Y0207215D01*
X0107171Y0207223D01*
X0107171Y0207223D01*
X0107171Y0207223D01*
X0107154Y0207231D01*
X0107124Y0207246D01*
X0107124Y0207246D01*
X0107124Y0207246D01*
X0107107Y0207257D01*
X0107080Y0207275D01*
X0107080Y0207275D01*
X0107080Y0207276D01*
X0107063Y0207291D01*
X0107041Y0207310D01*
X0107041Y0207310D01*
X0107041Y0207310D01*
X0107022Y0207332D01*
X0107006Y0207349D01*
X0107006Y0207349D01*
X0107006Y0207349D01*
X0106989Y0207376D01*
X0106977Y0207393D01*
X0106977Y0207393D01*
X0106977Y0207393D01*
X0106962Y0207423D01*
X0106954Y0207440D01*
X0106954Y0207440D01*
X0106954Y0207440D01*
X0106946Y0207463D01*
X0106937Y0207489D01*
X0106937Y0207490D01*
X0106937Y0207490D01*
X0106932Y0207516D01*
X0106927Y0207541D01*
Y0207541D01*
X0106927Y0207541D01*
X0106925Y0207573D01*
X0106923Y0207593D01*
X0106923Y0207593D01*
X0106923Y0207593D01*
X0106923Y0210078D01*
X0106923Y0210078D01*
X0106923Y0210078D01*
X0106925Y0210107D01*
X0106926Y0210130D01*
X0106926Y0210130D01*
X0106926Y0210131D01*
X0106931Y0210154D01*
X0106936Y0210182D01*
X0106937Y0210182D01*
X0106937Y0210182D01*
X0106943Y0210200D01*
X0106953Y0210231D01*
X0106953Y0210231D01*
X0106953Y0210232D01*
X0106965Y0210255D01*
X0106976Y0210278D01*
X0106976Y0210278D01*
X0106977Y0210279D01*
X0106995Y0210306D01*
X0107006Y0210322D01*
X0107006Y0210322D01*
X0107006Y0210322D01*
X0107025Y0210345D01*
X0107040Y0210361D01*
X0107040Y0210362D01*
X0107040Y0210362D01*
X0107632Y0210952D01*
X0107649Y0210967D01*
X0107671Y0210986D01*
X0107671Y0210986D01*
X0107671Y0210987D01*
X0107691Y0211000D01*
X0107715Y0211016D01*
X0107715Y0211016D01*
X0107715Y0211016D01*
X0107738Y0211027D01*
X0107762Y0211039D01*
X0107762Y0211039D01*
X0107762Y0211039D01*
X0107780Y0211045D01*
X0107811Y0211056D01*
X0107811Y0211056D01*
X0107812Y0211056D01*
X0107830Y0211059D01*
X0107863Y0211066D01*
X0107863Y0211066D01*
X0107863Y0211066D01*
X0107887Y0211067D01*
X0107915Y0211069D01*
X0114174Y0211069D01*
X0114174D01*
X0114174D01*
X0114227Y0211066D01*
D02*
G37*
D24*
X0088484Y0140433D02*
D03*
Y0142205D02*
D03*
Y0143976D02*
D03*
X0090256Y0140433D02*
D03*
Y0142205D02*
D03*
Y0143976D02*
D03*
X0048583Y0271949D02*
D03*
Y0270177D02*
D03*
X0050354Y0271949D02*
D03*
Y0270177D02*
D03*
X0052126Y0271949D02*
D03*
Y0270177D02*
D03*
X0190846Y0140433D02*
D03*
Y0142205D02*
D03*
Y0143976D02*
D03*
X0192618Y0140433D02*
D03*
Y0142205D02*
D03*
Y0143976D02*
D03*
X0150945Y0271949D02*
D03*
Y0270177D02*
D03*
X0152717Y0271949D02*
D03*
Y0270177D02*
D03*
X0154488Y0271949D02*
D03*
Y0270177D02*
D03*
X0293209Y0140433D02*
D03*
Y0142205D02*
D03*
Y0143976D02*
D03*
X0294980Y0140433D02*
D03*
Y0142205D02*
D03*
Y0143976D02*
D03*
X0253307Y0271949D02*
D03*
Y0270177D02*
D03*
X0255079Y0271949D02*
D03*
Y0270177D02*
D03*
X0256850Y0271949D02*
D03*
Y0270177D02*
D03*
X0395571Y0140433D02*
D03*
Y0142205D02*
D03*
Y0143976D02*
D03*
X0397342Y0140433D02*
D03*
Y0142205D02*
D03*
Y0143976D02*
D03*
X0355669Y0271949D02*
D03*
Y0270177D02*
D03*
X0357441Y0271949D02*
D03*
Y0270177D02*
D03*
X0359213Y0271949D02*
D03*
Y0270177D02*
D03*
X0497933Y0140433D02*
D03*
Y0142205D02*
D03*
Y0143976D02*
D03*
X0499705Y0140433D02*
D03*
Y0142205D02*
D03*
Y0143976D02*
D03*
X0458032Y0271949D02*
D03*
Y0270177D02*
D03*
X0459803Y0271949D02*
D03*
Y0270177D02*
D03*
X0461575Y0271949D02*
D03*
Y0270177D02*
D03*
D32*
X0052126Y0287638D02*
D03*
Y0283465D02*
D03*
X0056063Y0287638D02*
D03*
Y0283465D02*
D03*
X0111261Y0132283D02*
D03*
Y0128110D02*
D03*
X0115198Y0132283D02*
D03*
Y0128110D02*
D03*
X0154488Y0287638D02*
D03*
Y0283465D02*
D03*
X0158425Y0287638D02*
D03*
Y0283465D02*
D03*
X0213623Y0132283D02*
D03*
Y0128110D02*
D03*
X0217560Y0132283D02*
D03*
Y0128110D02*
D03*
X0256850Y0287638D02*
D03*
Y0283465D02*
D03*
X0260787Y0287638D02*
D03*
Y0283465D02*
D03*
X0315985Y0132283D02*
D03*
Y0128110D02*
D03*
X0319922Y0132283D02*
D03*
Y0128110D02*
D03*
X0359213Y0287638D02*
D03*
Y0283465D02*
D03*
X0363150Y0287638D02*
D03*
Y0283465D02*
D03*
X0418347Y0132283D02*
D03*
Y0128110D02*
D03*
X0422284Y0132283D02*
D03*
Y0128110D02*
D03*
X0461575Y0287638D02*
D03*
Y0283465D02*
D03*
X0465512Y0287638D02*
D03*
Y0283465D02*
D03*
X0520710Y0132283D02*
D03*
Y0128110D02*
D03*
X0524647Y0132283D02*
D03*
Y0128110D02*
D03*
D80*
X0525669Y0020118D02*
D03*
X0047441Y0382323D02*
D03*
Y0020394D02*
D03*
X0523898Y0382441D02*
D03*
D84*
X0020276Y0020394D02*
D03*
X0551417Y0019921D02*
D03*
X0552520Y0382874D02*
D03*
X0020118Y0382323D02*
D03*
X0095000Y0323071D02*
D03*
X0197362D02*
D03*
X0299724D02*
D03*
X0402087D02*
D03*
X0504449D02*
D03*
D85*
X0083741Y0159999D02*
D03*
X0073899D02*
D03*
X0186103D02*
D03*
X0176261D02*
D03*
X0288465D02*
D03*
X0278623D02*
D03*
X0390828D02*
D03*
X0380985D02*
D03*
X0493190D02*
D03*
X0483347D02*
D03*
D86*
X0055198Y0344684D02*
D03*
Y0151849D02*
D03*
X0157560Y0344684D02*
D03*
Y0151849D02*
D03*
X0259922Y0344684D02*
D03*
Y0151849D02*
D03*
X0362284Y0344684D02*
D03*
Y0151849D02*
D03*
X0464646Y0344684D02*
D03*
Y0151849D02*
D03*
D87*
X0047481Y0139999D02*
D03*
X0051481Y0119999D02*
D03*
X0043481D02*
D03*
X0149843Y0139999D02*
D03*
X0153843Y0119999D02*
D03*
X0145843D02*
D03*
X0252206Y0139999D02*
D03*
X0256206Y0119999D02*
D03*
X0248206D02*
D03*
X0354568Y0139999D02*
D03*
X0358568Y0119999D02*
D03*
X0350568D02*
D03*
X0456930Y0139999D02*
D03*
X0460930Y0119999D02*
D03*
X0452930D02*
D03*
D89*
X0056630Y0299823D02*
D03*
X0158992D02*
D03*
X0261354D02*
D03*
X0363717D02*
D03*
X0466079D02*
D03*
D90*
X0042579Y0239114D02*
D03*
X0144941D02*
D03*
X0247303D02*
D03*
X0349665D02*
D03*
X0452028D02*
D03*
D91*
X0081064Y0180354D02*
D03*
X0183426D02*
D03*
X0285788D02*
D03*
X0388151D02*
D03*
X0490513D02*
D03*
D92*
X0123150Y0237795D02*
D03*
X0225512D02*
D03*
X0327874D02*
D03*
X0430237D02*
D03*
X0532599D02*
D03*
D93*
X0112796Y0299862D02*
D03*
X0215158D02*
D03*
X0317520D02*
D03*
X0419882D02*
D03*
X0522245D02*
D03*
D94*
X0097777Y0309170D02*
D03*
X0086162D02*
D03*
X0200139D02*
D03*
X0188524D02*
D03*
X0302501D02*
D03*
X0290887D02*
D03*
X0404863D02*
D03*
X0393249D02*
D03*
X0507225D02*
D03*
X0495611D02*
D03*
D95*
X0091969Y0303264D02*
D03*
X0101536Y0092558D02*
D03*
X0094450D02*
D03*
X0194332Y0303264D02*
D03*
X0203899Y0092558D02*
D03*
X0196812D02*
D03*
X0296694Y0303264D02*
D03*
X0306261Y0092558D02*
D03*
X0299174D02*
D03*
X0399056Y0303264D02*
D03*
X0408623Y0092558D02*
D03*
X0401536D02*
D03*
X0501418Y0303264D02*
D03*
X0510985Y0092558D02*
D03*
X0503898D02*
D03*
D96*
X0068151Y0333779D02*
D03*
X0074056D02*
D03*
X0170513D02*
D03*
X0176418D02*
D03*
X0272875D02*
D03*
X0278780D02*
D03*
X0375237D02*
D03*
X0381143D02*
D03*
X0477599D02*
D03*
X0483505D02*
D03*
D97*
X0066113Y0274024D02*
D03*
X0063496Y0271407D02*
D03*
X0168475Y0274024D02*
D03*
X0165858Y0271407D02*
D03*
X0270837Y0274024D02*
D03*
X0268220Y0271407D02*
D03*
X0373199Y0274024D02*
D03*
X0370582Y0271407D02*
D03*
X0475561Y0274024D02*
D03*
X0472944Y0271407D02*
D03*
D98*
X0057402Y0190511D02*
D03*
X0053465D02*
D03*
X0115710Y0276928D02*
D03*
X0111773D02*
D03*
X0077678Y0309802D02*
D03*
X0073741D02*
D03*
X0115962Y0171109D02*
D03*
X0119899D02*
D03*
X0056693Y0279528D02*
D03*
X0052756D02*
D03*
X0111773Y0281180D02*
D03*
X0115710D02*
D03*
X0073308Y0305472D02*
D03*
X0069371D02*
D03*
X0077639Y0098385D02*
D03*
X0081576D02*
D03*
X0068426Y0098346D02*
D03*
X0072363D02*
D03*
X0045946Y0054231D02*
D03*
X0049883D02*
D03*
X0045946Y0058523D02*
D03*
X0049883D02*
D03*
X0119686Y0123857D02*
D03*
X0115749D02*
D03*
X0118505Y0132952D02*
D03*
X0122442D02*
D03*
X0053228Y0235551D02*
D03*
X0057165D02*
D03*
X0118505Y0128621D02*
D03*
X0122442D02*
D03*
X0057284Y0200000D02*
D03*
X0053347D02*
D03*
X0062913Y0192755D02*
D03*
X0066614D02*
D03*
X0070984D02*
D03*
X0074764D02*
D03*
X0086182Y0147834D02*
D03*
X0090119D02*
D03*
X0084883Y0140668D02*
D03*
X0080946D02*
D03*
X0159765Y0190511D02*
D03*
X0155828D02*
D03*
X0218072Y0276928D02*
D03*
X0214135D02*
D03*
X0180040Y0309802D02*
D03*
X0176103D02*
D03*
X0218324Y0171109D02*
D03*
X0222261D02*
D03*
X0159055Y0279528D02*
D03*
X0155118D02*
D03*
X0214135Y0281180D02*
D03*
X0218072D02*
D03*
X0175670Y0305472D02*
D03*
X0171733D02*
D03*
X0180001Y0098385D02*
D03*
X0183938D02*
D03*
X0170788Y0098346D02*
D03*
X0174725D02*
D03*
X0148308Y0054231D02*
D03*
X0152245D02*
D03*
X0148308Y0058523D02*
D03*
X0152245D02*
D03*
X0222048Y0123857D02*
D03*
X0218111D02*
D03*
X0220867Y0132952D02*
D03*
X0224804D02*
D03*
X0155591Y0235551D02*
D03*
X0159528D02*
D03*
X0220867Y0128621D02*
D03*
X0224804D02*
D03*
X0159646Y0200000D02*
D03*
X0155709D02*
D03*
X0165276Y0192755D02*
D03*
X0168976D02*
D03*
X0173346D02*
D03*
X0177126D02*
D03*
X0188544Y0147834D02*
D03*
X0192481D02*
D03*
X0187245Y0140668D02*
D03*
X0183308D02*
D03*
X0262127Y0190511D02*
D03*
X0258190D02*
D03*
X0320434Y0276928D02*
D03*
X0316497D02*
D03*
X0282402Y0309802D02*
D03*
X0278466D02*
D03*
X0320686Y0171109D02*
D03*
X0324623D02*
D03*
X0261417Y0279528D02*
D03*
X0257480D02*
D03*
X0316497Y0281180D02*
D03*
X0320434D02*
D03*
X0278032Y0305472D02*
D03*
X0274095D02*
D03*
X0282363Y0098385D02*
D03*
X0286300D02*
D03*
X0273150Y0098346D02*
D03*
X0277087D02*
D03*
X0250670Y0054231D02*
D03*
X0254607D02*
D03*
X0250670Y0058523D02*
D03*
X0254607D02*
D03*
X0324410Y0123857D02*
D03*
X0320473D02*
D03*
X0323229Y0132952D02*
D03*
X0327166D02*
D03*
X0257953Y0235551D02*
D03*
X0261890D02*
D03*
X0323229Y0128621D02*
D03*
X0327166D02*
D03*
X0262008Y0200000D02*
D03*
X0258071D02*
D03*
X0267638Y0192755D02*
D03*
X0271339D02*
D03*
X0275709D02*
D03*
X0279488D02*
D03*
X0290906Y0147834D02*
D03*
X0294843D02*
D03*
X0289607Y0140668D02*
D03*
X0285670D02*
D03*
X0364489Y0190511D02*
D03*
X0360552D02*
D03*
X0422796Y0276928D02*
D03*
X0418859D02*
D03*
X0384765Y0309802D02*
D03*
X0380828D02*
D03*
X0423048Y0171109D02*
D03*
X0426985D02*
D03*
X0363779Y0279528D02*
D03*
X0359842D02*
D03*
X0418859Y0281180D02*
D03*
X0422796D02*
D03*
X0380395Y0305472D02*
D03*
X0376458D02*
D03*
X0384725Y0098385D02*
D03*
X0388662D02*
D03*
X0375513Y0098346D02*
D03*
X0379450D02*
D03*
X0353032Y0054231D02*
D03*
X0356969D02*
D03*
X0353032Y0058523D02*
D03*
X0356969D02*
D03*
X0426772Y0123857D02*
D03*
X0422835D02*
D03*
X0425591Y0132952D02*
D03*
X0429528D02*
D03*
X0360315Y0235551D02*
D03*
X0364252D02*
D03*
X0425591Y0128621D02*
D03*
X0429528D02*
D03*
X0364370Y0200000D02*
D03*
X0360433D02*
D03*
X0370000Y0192755D02*
D03*
X0373701D02*
D03*
X0378071D02*
D03*
X0381850D02*
D03*
X0393269Y0147834D02*
D03*
X0397206D02*
D03*
X0391969Y0140668D02*
D03*
X0388032D02*
D03*
X0466851Y0190511D02*
D03*
X0462914D02*
D03*
X0525158Y0276928D02*
D03*
X0521221D02*
D03*
X0487127Y0309802D02*
D03*
X0483190D02*
D03*
X0525410Y0171109D02*
D03*
X0529347D02*
D03*
X0466142Y0279528D02*
D03*
X0462205D02*
D03*
X0521221Y0281180D02*
D03*
X0525158D02*
D03*
X0482757Y0305472D02*
D03*
X0478820D02*
D03*
X0487087Y0098385D02*
D03*
X0491024D02*
D03*
X0477875Y0098346D02*
D03*
X0481812D02*
D03*
X0455395Y0054231D02*
D03*
X0459332D02*
D03*
X0455395Y0058523D02*
D03*
X0459332D02*
D03*
X0529135Y0123857D02*
D03*
X0525198D02*
D03*
X0527954Y0132952D02*
D03*
X0531891D02*
D03*
X0462677Y0235551D02*
D03*
X0466614D02*
D03*
X0527954Y0128621D02*
D03*
X0531891D02*
D03*
X0466732Y0200000D02*
D03*
X0462795D02*
D03*
X0472362Y0192755D02*
D03*
X0476063D02*
D03*
X0480433D02*
D03*
X0484213D02*
D03*
X0495631Y0147834D02*
D03*
X0499568D02*
D03*
X0494332Y0140668D02*
D03*
X0490395D02*
D03*
D99*
X0077363Y0121101D02*
D03*
X0062913Y0323032D02*
D03*
X0077363Y0046772D02*
D03*
X0179725Y0121101D02*
D03*
X0165276Y0323032D02*
D03*
X0179725Y0046772D02*
D03*
X0282087Y0121101D02*
D03*
X0267638Y0323032D02*
D03*
X0282087Y0046772D02*
D03*
X0384450Y0121101D02*
D03*
X0370000Y0323032D02*
D03*
X0384450Y0046772D02*
D03*
X0486812Y0121101D02*
D03*
X0472362Y0323032D02*
D03*
X0486812Y0046772D02*
D03*
D100*
X0111733Y0205038D02*
D03*
X0109765Y0213306D02*
D03*
X0107796Y0205038D02*
D03*
X0109765D02*
D03*
X0113702D02*
D03*
Y0213306D02*
D03*
X0111733D02*
D03*
X0107796D02*
D03*
X0214095Y0205038D02*
D03*
X0212127Y0213306D02*
D03*
X0210158Y0205038D02*
D03*
X0212127D02*
D03*
X0216064D02*
D03*
Y0213306D02*
D03*
X0214095D02*
D03*
X0210158D02*
D03*
X0316458Y0205038D02*
D03*
X0314489Y0213306D02*
D03*
X0312521Y0205038D02*
D03*
X0314489D02*
D03*
X0318426D02*
D03*
Y0213306D02*
D03*
X0316458D02*
D03*
X0312521D02*
D03*
X0418820Y0205038D02*
D03*
X0416851Y0213306D02*
D03*
X0414883Y0205038D02*
D03*
X0416851D02*
D03*
X0420788D02*
D03*
Y0213306D02*
D03*
X0418820D02*
D03*
X0414883D02*
D03*
X0521182Y0205038D02*
D03*
X0519213Y0213306D02*
D03*
X0517245Y0205038D02*
D03*
X0519213D02*
D03*
X0523150D02*
D03*
Y0213306D02*
D03*
X0521182D02*
D03*
X0517245D02*
D03*
D101*
X0066812Y0070590D02*
D03*
X0068780Y0082007D02*
D03*
X0066812D02*
D03*
X0064843D02*
D03*
X0062875D02*
D03*
Y0070590D02*
D03*
X0064843D02*
D03*
X0068780D02*
D03*
X0169174D02*
D03*
X0171143Y0082007D02*
D03*
X0169174D02*
D03*
X0167206D02*
D03*
X0165237D02*
D03*
Y0070590D02*
D03*
X0167206D02*
D03*
X0171143D02*
D03*
X0271536D02*
D03*
X0273505Y0082007D02*
D03*
X0271536D02*
D03*
X0269568D02*
D03*
X0267599D02*
D03*
Y0070590D02*
D03*
X0269568D02*
D03*
X0273505D02*
D03*
X0373899D02*
D03*
X0375867Y0082007D02*
D03*
X0373899D02*
D03*
X0371930D02*
D03*
X0369962D02*
D03*
Y0070590D02*
D03*
X0371930D02*
D03*
X0375867D02*
D03*
X0476261D02*
D03*
X0478229Y0082007D02*
D03*
X0476261D02*
D03*
X0474292D02*
D03*
X0472324D02*
D03*
Y0070590D02*
D03*
X0474292D02*
D03*
X0478229D02*
D03*
D102*
X0081182Y0293818D02*
D03*
X0077206D02*
D03*
X0048504Y0293780D02*
D03*
X0052284D02*
D03*
X0077678Y0314212D02*
D03*
X0073899D02*
D03*
X0068151Y0066574D02*
D03*
X0071930D02*
D03*
X0063662Y0088857D02*
D03*
X0067442D02*
D03*
X0105985Y0217283D02*
D03*
X0109765D02*
D03*
X0053387Y0194920D02*
D03*
X0057166D02*
D03*
X0094253Y0127479D02*
D03*
X0090473D02*
D03*
X0183544Y0293818D02*
D03*
X0179568D02*
D03*
X0150866Y0293780D02*
D03*
X0154646D02*
D03*
X0180040Y0314212D02*
D03*
X0176261D02*
D03*
X0170513Y0066574D02*
D03*
X0174292D02*
D03*
X0166024Y0088857D02*
D03*
X0169804D02*
D03*
X0208347Y0217283D02*
D03*
X0212127D02*
D03*
X0155749Y0194920D02*
D03*
X0159529D02*
D03*
X0196615Y0127479D02*
D03*
X0192835D02*
D03*
X0285906Y0293818D02*
D03*
X0281930D02*
D03*
X0253228Y0293780D02*
D03*
X0257008D02*
D03*
X0282402Y0314212D02*
D03*
X0278623D02*
D03*
X0272875Y0066574D02*
D03*
X0276654D02*
D03*
X0268387Y0088857D02*
D03*
X0272166D02*
D03*
X0310710Y0217283D02*
D03*
X0314489D02*
D03*
X0258111Y0194920D02*
D03*
X0261891D02*
D03*
X0298977Y0127479D02*
D03*
X0295198D02*
D03*
X0388269Y0293818D02*
D03*
X0384292D02*
D03*
X0355591Y0293780D02*
D03*
X0359370D02*
D03*
X0384765Y0314212D02*
D03*
X0380985D02*
D03*
X0375237Y0066574D02*
D03*
X0379017D02*
D03*
X0370749Y0088857D02*
D03*
X0374528D02*
D03*
X0413072Y0217283D02*
D03*
X0416851D02*
D03*
X0360473Y0194920D02*
D03*
X0364253D02*
D03*
X0401339Y0127479D02*
D03*
X0397560D02*
D03*
X0490631Y0293818D02*
D03*
X0486654D02*
D03*
X0457953Y0293780D02*
D03*
X0461732D02*
D03*
X0487127Y0314212D02*
D03*
X0483347D02*
D03*
X0477599Y0066574D02*
D03*
X0481379D02*
D03*
X0473111Y0088857D02*
D03*
X0476891D02*
D03*
X0515434Y0217283D02*
D03*
X0519213D02*
D03*
X0462836Y0194920D02*
D03*
X0466615D02*
D03*
X0503702Y0127479D02*
D03*
X0499922D02*
D03*
D103*
X0101378Y0287717D02*
D03*
X0103347D02*
D03*
Y0293622D02*
D03*
X0101378Y0293622D02*
D03*
X0203740Y0287717D02*
D03*
X0205709D02*
D03*
Y0293622D02*
D03*
X0203740Y0293622D02*
D03*
X0306102Y0287717D02*
D03*
X0308071D02*
D03*
Y0293622D02*
D03*
X0306102Y0293622D02*
D03*
X0408464Y0287717D02*
D03*
X0410433D02*
D03*
Y0293622D02*
D03*
X0408464Y0293622D02*
D03*
X0510827Y0287717D02*
D03*
X0512795D02*
D03*
Y0293622D02*
D03*
X0510827Y0293622D02*
D03*
D104*
X0105315Y0287717D02*
D03*
Y0289685D02*
D03*
Y0291654D02*
D03*
Y0293622D02*
D03*
X0099410D02*
D03*
Y0291654D02*
D03*
Y0289685D02*
D03*
Y0287717D02*
D03*
X0207677D02*
D03*
Y0289685D02*
D03*
Y0291654D02*
D03*
Y0293622D02*
D03*
X0201772D02*
D03*
Y0291654D02*
D03*
Y0289685D02*
D03*
Y0287717D02*
D03*
X0310039D02*
D03*
Y0289685D02*
D03*
Y0291654D02*
D03*
Y0293622D02*
D03*
X0304134D02*
D03*
Y0291654D02*
D03*
Y0289685D02*
D03*
Y0287717D02*
D03*
X0412402D02*
D03*
Y0289685D02*
D03*
Y0291654D02*
D03*
Y0293622D02*
D03*
X0406496D02*
D03*
Y0291654D02*
D03*
Y0289685D02*
D03*
Y0287717D02*
D03*
X0514764D02*
D03*
Y0289685D02*
D03*
Y0291654D02*
D03*
Y0293622D02*
D03*
X0508858D02*
D03*
Y0291654D02*
D03*
Y0289685D02*
D03*
Y0287717D02*
D03*
D105*
X0110591Y0285906D02*
D03*
Y0291811D02*
D03*
X0103072Y0205905D02*
D03*
Y0211810D02*
D03*
X0078741Y0093109D02*
D03*
Y0087204D02*
D03*
X0072757Y0093149D02*
D03*
Y0087243D02*
D03*
X0104804Y0139251D02*
D03*
Y0145157D02*
D03*
X0069056Y0140590D02*
D03*
Y0134684D02*
D03*
X0075670Y0140629D02*
D03*
Y0134723D02*
D03*
X0212953Y0285906D02*
D03*
Y0291811D02*
D03*
X0205434Y0205905D02*
D03*
Y0211810D02*
D03*
X0181103Y0093109D02*
D03*
Y0087204D02*
D03*
X0175119Y0093149D02*
D03*
Y0087243D02*
D03*
X0207166Y0139251D02*
D03*
Y0145157D02*
D03*
X0171418Y0140590D02*
D03*
Y0134684D02*
D03*
X0178032Y0140629D02*
D03*
Y0134723D02*
D03*
X0315315Y0285906D02*
D03*
Y0291811D02*
D03*
X0307796Y0205905D02*
D03*
Y0211810D02*
D03*
X0283466Y0093109D02*
D03*
Y0087204D02*
D03*
X0277481Y0093149D02*
D03*
Y0087243D02*
D03*
X0309528Y0139251D02*
D03*
Y0145157D02*
D03*
X0273780Y0140590D02*
D03*
Y0134684D02*
D03*
X0280395Y0140629D02*
D03*
Y0134723D02*
D03*
X0417677Y0285906D02*
D03*
Y0291811D02*
D03*
X0410158Y0205905D02*
D03*
Y0211810D02*
D03*
X0385828Y0093109D02*
D03*
Y0087204D02*
D03*
X0379843Y0093149D02*
D03*
Y0087243D02*
D03*
X0411891Y0139251D02*
D03*
Y0145157D02*
D03*
X0376143Y0140590D02*
D03*
Y0134684D02*
D03*
X0382757Y0140629D02*
D03*
Y0134723D02*
D03*
X0520039Y0285906D02*
D03*
Y0291811D02*
D03*
X0512521Y0205905D02*
D03*
Y0211810D02*
D03*
X0488190Y0093109D02*
D03*
Y0087204D02*
D03*
X0482206Y0093149D02*
D03*
Y0087243D02*
D03*
X0514253Y0139251D02*
D03*
Y0145157D02*
D03*
X0478505Y0140590D02*
D03*
Y0134684D02*
D03*
X0485119Y0140629D02*
D03*
Y0134723D02*
D03*
D106*
X0116181Y0289724D02*
D03*
Y0285945D02*
D03*
X0083584Y0080944D02*
D03*
Y0084724D02*
D03*
X0085828Y0100550D02*
D03*
Y0096771D02*
D03*
X0057087Y0290747D02*
D03*
Y0294527D02*
D03*
X0048898Y0244409D02*
D03*
Y0248189D02*
D03*
X0112088Y0272834D02*
D03*
Y0269054D02*
D03*
X0049906Y0220794D02*
D03*
Y0217015D02*
D03*
X0111497Y0119960D02*
D03*
Y0123739D02*
D03*
X0074016Y0204252D02*
D03*
Y0208032D02*
D03*
X0049902Y0207007D02*
D03*
Y0210787D02*
D03*
X0113190Y0159566D02*
D03*
Y0155787D02*
D03*
X0110119Y0139842D02*
D03*
Y0143621D02*
D03*
X0218543Y0289724D02*
D03*
Y0285945D02*
D03*
X0185946Y0080944D02*
D03*
Y0084724D02*
D03*
X0188190Y0100550D02*
D03*
Y0096771D02*
D03*
X0159450Y0290747D02*
D03*
Y0294527D02*
D03*
X0151260Y0244409D02*
D03*
Y0248189D02*
D03*
X0214450Y0272834D02*
D03*
Y0269054D02*
D03*
X0152269Y0220794D02*
D03*
Y0217015D02*
D03*
X0213859Y0119960D02*
D03*
Y0123739D02*
D03*
X0176378Y0204252D02*
D03*
Y0208032D02*
D03*
X0152265Y0207007D02*
D03*
Y0210787D02*
D03*
X0215552Y0159566D02*
D03*
Y0155787D02*
D03*
X0212481Y0139842D02*
D03*
Y0143621D02*
D03*
X0320905Y0289724D02*
D03*
Y0285945D02*
D03*
X0288308Y0080944D02*
D03*
Y0084724D02*
D03*
X0290552Y0100550D02*
D03*
Y0096771D02*
D03*
X0261812Y0290747D02*
D03*
Y0294527D02*
D03*
X0253622Y0244409D02*
D03*
Y0248189D02*
D03*
X0316812Y0272834D02*
D03*
Y0269054D02*
D03*
X0254631Y0220794D02*
D03*
Y0217015D02*
D03*
X0316221Y0119960D02*
D03*
Y0123739D02*
D03*
X0278740Y0204252D02*
D03*
Y0208032D02*
D03*
X0254627Y0207007D02*
D03*
Y0210787D02*
D03*
X0317914Y0159566D02*
D03*
Y0155787D02*
D03*
X0314843Y0139842D02*
D03*
Y0143621D02*
D03*
X0423268Y0289724D02*
D03*
Y0285945D02*
D03*
X0390670Y0080944D02*
D03*
Y0084724D02*
D03*
X0392914Y0100550D02*
D03*
Y0096771D02*
D03*
X0364174Y0290747D02*
D03*
Y0294527D02*
D03*
X0355984Y0244409D02*
D03*
Y0248189D02*
D03*
X0419174Y0272834D02*
D03*
Y0269054D02*
D03*
X0356993Y0220794D02*
D03*
Y0217015D02*
D03*
X0418584Y0119960D02*
D03*
Y0123739D02*
D03*
X0381102Y0204252D02*
D03*
Y0208032D02*
D03*
X0356989Y0207007D02*
D03*
Y0210787D02*
D03*
X0420276Y0159566D02*
D03*
Y0155787D02*
D03*
X0417206Y0139842D02*
D03*
Y0143621D02*
D03*
X0525630Y0289724D02*
D03*
Y0285945D02*
D03*
X0493032Y0080944D02*
D03*
Y0084724D02*
D03*
X0495276Y0100550D02*
D03*
Y0096771D02*
D03*
X0466536Y0290747D02*
D03*
Y0294527D02*
D03*
X0458346Y0244409D02*
D03*
Y0248189D02*
D03*
X0521536Y0272834D02*
D03*
Y0269054D02*
D03*
X0459355Y0220794D02*
D03*
Y0217015D02*
D03*
X0520946Y0119960D02*
D03*
Y0123739D02*
D03*
X0483464Y0204252D02*
D03*
Y0208032D02*
D03*
X0459351Y0207007D02*
D03*
Y0210787D02*
D03*
X0522639Y0159566D02*
D03*
Y0155787D02*
D03*
X0519568Y0139842D02*
D03*
Y0143621D02*
D03*
D107*
X0085551Y0323071D02*
D03*
X0095000D02*
D03*
X0112323D02*
D03*
X0125315D02*
D03*
X0085551Y0356929D02*
D03*
X0125315D02*
D03*
X0112323D02*
D03*
X0187913Y0323071D02*
D03*
X0197362D02*
D03*
X0214685D02*
D03*
X0227677D02*
D03*
X0187913Y0356929D02*
D03*
X0227677D02*
D03*
X0214685D02*
D03*
X0290276Y0323071D02*
D03*
X0299724D02*
D03*
X0317047D02*
D03*
X0330039D02*
D03*
X0290276Y0356929D02*
D03*
X0330039D02*
D03*
X0317047D02*
D03*
X0392638Y0323071D02*
D03*
X0402087D02*
D03*
X0419409D02*
D03*
X0432402D02*
D03*
X0392638Y0356929D02*
D03*
X0432402D02*
D03*
X0419409D02*
D03*
X0495000Y0323071D02*
D03*
X0504449D02*
D03*
X0521772D02*
D03*
X0534764D02*
D03*
X0495000Y0356929D02*
D03*
X0534764D02*
D03*
X0521772D02*
D03*
D108*
X0085867Y0075117D02*
D03*
Y0067637D02*
D03*
X0077403Y0075078D02*
D03*
Y0067598D02*
D03*
X0188229Y0075117D02*
D03*
Y0067637D02*
D03*
X0179765Y0075078D02*
D03*
Y0067598D02*
D03*
X0290591Y0075117D02*
D03*
Y0067637D02*
D03*
X0282127Y0075078D02*
D03*
Y0067598D02*
D03*
X0392954Y0075117D02*
D03*
Y0067637D02*
D03*
X0384489Y0075078D02*
D03*
Y0067598D02*
D03*
X0495316Y0075117D02*
D03*
Y0067637D02*
D03*
X0486851Y0075078D02*
D03*
Y0067598D02*
D03*
D109*
X0096418Y0067932D02*
D03*
Y0083405D02*
D03*
X0198780Y0067932D02*
D03*
Y0083405D02*
D03*
X0301143Y0067932D02*
D03*
Y0083405D02*
D03*
X0403505Y0067932D02*
D03*
Y0083405D02*
D03*
X0505867Y0067932D02*
D03*
Y0083405D02*
D03*
D110*
X0108702Y0099881D02*
D03*
Y0103818D02*
D03*
X0087993Y0092637D02*
D03*
Y0088700D02*
D03*
Y0084802D02*
D03*
Y0080865D02*
D03*
X0048504Y0277677D02*
D03*
Y0281614D02*
D03*
X0048110Y0263150D02*
D03*
Y0259213D02*
D03*
X0048504Y0289528D02*
D03*
Y0285591D02*
D03*
X0104410Y0279842D02*
D03*
Y0283779D02*
D03*
X0057087Y0070944D02*
D03*
Y0067007D02*
D03*
X0106576Y0128188D02*
D03*
Y0132125D02*
D03*
X0107127Y0123739D02*
D03*
Y0119802D02*
D03*
X0074016Y0217559D02*
D03*
Y0213622D02*
D03*
X0061102Y0229173D02*
D03*
Y0233110D02*
D03*
X0049370Y0235354D02*
D03*
Y0239291D02*
D03*
Y0229134D02*
D03*
Y0225197D02*
D03*
X0049292Y0190944D02*
D03*
Y0194881D02*
D03*
X0084804Y0136574D02*
D03*
Y0132637D02*
D03*
X0211064Y0099881D02*
D03*
Y0103818D02*
D03*
X0190355Y0092637D02*
D03*
Y0088700D02*
D03*
Y0084802D02*
D03*
Y0080865D02*
D03*
X0150866Y0277677D02*
D03*
Y0281614D02*
D03*
X0150472Y0263150D02*
D03*
Y0259213D02*
D03*
X0150866Y0289528D02*
D03*
Y0285591D02*
D03*
X0206773Y0279842D02*
D03*
Y0283779D02*
D03*
X0159450Y0070944D02*
D03*
Y0067007D02*
D03*
X0208938Y0128188D02*
D03*
Y0132125D02*
D03*
X0209489Y0123739D02*
D03*
Y0119802D02*
D03*
X0176378Y0217559D02*
D03*
Y0213622D02*
D03*
X0163465Y0229173D02*
D03*
Y0233110D02*
D03*
X0151732Y0235354D02*
D03*
Y0239291D02*
D03*
Y0229134D02*
D03*
Y0225197D02*
D03*
X0151654Y0190944D02*
D03*
Y0194881D02*
D03*
X0187166Y0136574D02*
D03*
Y0132637D02*
D03*
X0313426Y0099881D02*
D03*
Y0103818D02*
D03*
X0292717Y0092637D02*
D03*
Y0088700D02*
D03*
Y0084802D02*
D03*
Y0080865D02*
D03*
X0253228Y0277677D02*
D03*
Y0281614D02*
D03*
X0252835Y0263150D02*
D03*
Y0259213D02*
D03*
X0253228Y0289528D02*
D03*
Y0285591D02*
D03*
X0309135Y0279842D02*
D03*
Y0283779D02*
D03*
X0261812Y0070944D02*
D03*
Y0067007D02*
D03*
X0311300Y0128188D02*
D03*
Y0132125D02*
D03*
X0311851Y0123739D02*
D03*
Y0119802D02*
D03*
X0278740Y0217559D02*
D03*
Y0213622D02*
D03*
X0265827Y0229173D02*
D03*
Y0233110D02*
D03*
X0254095Y0235354D02*
D03*
Y0239291D02*
D03*
Y0229134D02*
D03*
Y0225197D02*
D03*
X0254017Y0190944D02*
D03*
Y0194881D02*
D03*
X0289528Y0136574D02*
D03*
Y0132637D02*
D03*
X0415788Y0099881D02*
D03*
Y0103818D02*
D03*
X0395080Y0092637D02*
D03*
Y0088700D02*
D03*
Y0084802D02*
D03*
Y0080865D02*
D03*
X0355591Y0277677D02*
D03*
Y0281614D02*
D03*
X0355197Y0263150D02*
D03*
Y0259213D02*
D03*
X0355591Y0289528D02*
D03*
Y0285591D02*
D03*
X0411497Y0279842D02*
D03*
Y0283779D02*
D03*
X0364174Y0070944D02*
D03*
Y0067007D02*
D03*
X0413662Y0128188D02*
D03*
Y0132125D02*
D03*
X0414214Y0123739D02*
D03*
Y0119802D02*
D03*
X0381102Y0217559D02*
D03*
Y0213622D02*
D03*
X0368189Y0229173D02*
D03*
Y0233110D02*
D03*
X0356457Y0235354D02*
D03*
Y0239291D02*
D03*
Y0229134D02*
D03*
Y0225197D02*
D03*
X0356379Y0190944D02*
D03*
Y0194881D02*
D03*
X0391891Y0136574D02*
D03*
Y0132637D02*
D03*
X0518151Y0099881D02*
D03*
Y0103818D02*
D03*
X0497442Y0092637D02*
D03*
Y0088700D02*
D03*
Y0084802D02*
D03*
Y0080865D02*
D03*
X0457953Y0277677D02*
D03*
Y0281614D02*
D03*
X0457559Y0263150D02*
D03*
Y0259213D02*
D03*
X0457953Y0289528D02*
D03*
Y0285591D02*
D03*
X0513859Y0279842D02*
D03*
Y0283779D02*
D03*
X0466536Y0070944D02*
D03*
Y0067007D02*
D03*
X0516024Y0128188D02*
D03*
Y0132125D02*
D03*
X0516576Y0123739D02*
D03*
Y0119802D02*
D03*
X0483464Y0217559D02*
D03*
Y0213622D02*
D03*
X0470551Y0229173D02*
D03*
Y0233110D02*
D03*
X0458819Y0235354D02*
D03*
Y0239291D02*
D03*
Y0229134D02*
D03*
Y0225197D02*
D03*
X0458741Y0190944D02*
D03*
Y0194881D02*
D03*
X0494253Y0136574D02*
D03*
Y0132637D02*
D03*
D111*
X0113623Y0165499D02*
D03*
X0119922D02*
D03*
X0096379Y0132834D02*
D03*
X0090473D02*
D03*
X0215985Y0165499D02*
D03*
X0222284D02*
D03*
X0198741Y0132834D02*
D03*
X0192835D02*
D03*
X0318347Y0165499D02*
D03*
X0324647D02*
D03*
X0301103Y0132834D02*
D03*
X0295198D02*
D03*
X0420710Y0165499D02*
D03*
X0427009D02*
D03*
X0403465Y0132834D02*
D03*
X0397560D02*
D03*
X0523072Y0165499D02*
D03*
X0529371D02*
D03*
X0505828Y0132834D02*
D03*
X0499922D02*
D03*
D112*
X0109568Y0092046D02*
D03*
X0119568Y0066456D02*
D03*
X0109568D02*
D03*
X0119568Y0092046D02*
D03*
X0211930D02*
D03*
X0221930Y0066456D02*
D03*
X0211930D02*
D03*
X0221930Y0092046D02*
D03*
X0314292D02*
D03*
X0324292Y0066456D02*
D03*
X0314292D02*
D03*
X0324292Y0092046D02*
D03*
X0416654D02*
D03*
X0426654Y0066456D02*
D03*
X0416654D02*
D03*
X0426654Y0092046D02*
D03*
X0519017D02*
D03*
X0529017Y0066456D02*
D03*
X0519017D02*
D03*
X0529017Y0092046D02*
D03*
D113*
X0093111Y0098464D02*
D03*
Y0105944D02*
D03*
X0103741D02*
D03*
Y0098464D02*
D03*
X0093111Y0102204D02*
D03*
X0118426Y0155826D02*
D03*
X0126064Y0152007D02*
D03*
Y0159645D02*
D03*
X0195473Y0098464D02*
D03*
Y0105944D02*
D03*
X0206103D02*
D03*
Y0098464D02*
D03*
X0195473Y0102204D02*
D03*
X0220788Y0155826D02*
D03*
X0228426Y0152007D02*
D03*
Y0159645D02*
D03*
X0297835Y0098464D02*
D03*
Y0105944D02*
D03*
X0308466D02*
D03*
Y0098464D02*
D03*
X0297835Y0102204D02*
D03*
X0323150Y0155826D02*
D03*
X0330788Y0152007D02*
D03*
Y0159645D02*
D03*
X0400198Y0098464D02*
D03*
Y0105944D02*
D03*
X0410828D02*
D03*
Y0098464D02*
D03*
X0400198Y0102204D02*
D03*
X0425513Y0155826D02*
D03*
X0433150Y0152007D02*
D03*
Y0159645D02*
D03*
X0502560Y0098464D02*
D03*
Y0105944D02*
D03*
X0513190D02*
D03*
Y0098464D02*
D03*
X0502560Y0102204D02*
D03*
X0527875Y0155826D02*
D03*
X0535513Y0152007D02*
D03*
Y0159645D02*
D03*
D114*
X0055748Y0204370D02*
D03*
X0057717D02*
D03*
X0059685D02*
D03*
X0061654D02*
D03*
X0063622D02*
D03*
X0065591D02*
D03*
X0067559D02*
D03*
X0069528D02*
D03*
Y0206339D02*
D03*
X0057717Y0208307D02*
D03*
X0059685D02*
D03*
X0061654D02*
D03*
X0063622D02*
D03*
X0065591D02*
D03*
X0069528D02*
D03*
X0057717Y0210276D02*
D03*
X0059685D02*
D03*
X0063622D02*
D03*
X0069528D02*
D03*
X0057717Y0212244D02*
D03*
X0065591D02*
D03*
X0069528D02*
D03*
X0057717Y0214213D02*
D03*
X0059685D02*
D03*
X0063622D02*
D03*
X0065591D02*
D03*
X0069528D02*
D03*
X0057717Y0216181D02*
D03*
X0059685D02*
D03*
X0061654D02*
D03*
X0063622D02*
D03*
X0065591D02*
D03*
X0069528D02*
D03*
Y0218150D02*
D03*
X0055748Y0220118D02*
D03*
X0057717D02*
D03*
X0059685D02*
D03*
X0061654D02*
D03*
X0063622D02*
D03*
X0065591D02*
D03*
X0067559D02*
D03*
X0069528D02*
D03*
X0053780Y0204370D02*
D03*
Y0206339D02*
D03*
Y0208307D02*
D03*
Y0210276D02*
D03*
Y0212244D02*
D03*
Y0214213D02*
D03*
Y0216181D02*
D03*
Y0218150D02*
D03*
Y0220118D02*
D03*
X0158110Y0204370D02*
D03*
X0160079D02*
D03*
X0162047D02*
D03*
X0164016D02*
D03*
X0165984D02*
D03*
X0167953D02*
D03*
X0169921D02*
D03*
X0171890D02*
D03*
Y0206339D02*
D03*
X0160079Y0208307D02*
D03*
X0162047D02*
D03*
X0164016D02*
D03*
X0165984D02*
D03*
X0167953D02*
D03*
X0171890D02*
D03*
X0160079Y0210276D02*
D03*
X0162047D02*
D03*
X0165984D02*
D03*
X0171890D02*
D03*
X0160079Y0212244D02*
D03*
X0167953D02*
D03*
X0171890D02*
D03*
X0160079Y0214213D02*
D03*
X0162047D02*
D03*
X0165984D02*
D03*
X0167953D02*
D03*
X0171890D02*
D03*
X0160079Y0216181D02*
D03*
X0162047D02*
D03*
X0164016D02*
D03*
X0165984D02*
D03*
X0167953D02*
D03*
X0171890D02*
D03*
Y0218150D02*
D03*
X0158110Y0220118D02*
D03*
X0160079D02*
D03*
X0162047D02*
D03*
X0164016D02*
D03*
X0165984D02*
D03*
X0167953D02*
D03*
X0169921D02*
D03*
X0171890D02*
D03*
X0156142Y0204370D02*
D03*
Y0206339D02*
D03*
Y0208307D02*
D03*
Y0210276D02*
D03*
Y0212244D02*
D03*
Y0214213D02*
D03*
Y0216181D02*
D03*
Y0218150D02*
D03*
Y0220118D02*
D03*
X0260472Y0204370D02*
D03*
X0262441D02*
D03*
X0264409D02*
D03*
X0266378D02*
D03*
X0268346D02*
D03*
X0270315D02*
D03*
X0272283D02*
D03*
X0274252D02*
D03*
Y0206339D02*
D03*
X0262441Y0208307D02*
D03*
X0264409D02*
D03*
X0266378D02*
D03*
X0268346D02*
D03*
X0270315D02*
D03*
X0274252D02*
D03*
X0262441Y0210276D02*
D03*
X0264409D02*
D03*
X0268346D02*
D03*
X0274252D02*
D03*
X0262441Y0212244D02*
D03*
X0270315D02*
D03*
X0274252D02*
D03*
X0262441Y0214213D02*
D03*
X0264409D02*
D03*
X0268346D02*
D03*
X0270315D02*
D03*
X0274252D02*
D03*
X0262441Y0216181D02*
D03*
X0264409D02*
D03*
X0266378D02*
D03*
X0268346D02*
D03*
X0270315D02*
D03*
X0274252D02*
D03*
Y0218150D02*
D03*
X0260472Y0220118D02*
D03*
X0262441D02*
D03*
X0264409D02*
D03*
X0266378D02*
D03*
X0268346D02*
D03*
X0270315D02*
D03*
X0272283D02*
D03*
X0274252D02*
D03*
X0258504Y0204370D02*
D03*
Y0206339D02*
D03*
Y0208307D02*
D03*
Y0210276D02*
D03*
Y0212244D02*
D03*
Y0214213D02*
D03*
Y0216181D02*
D03*
Y0218150D02*
D03*
Y0220118D02*
D03*
X0362835Y0204370D02*
D03*
X0364803D02*
D03*
X0366772D02*
D03*
X0368740D02*
D03*
X0370709D02*
D03*
X0372677D02*
D03*
X0374646D02*
D03*
X0376614D02*
D03*
Y0206339D02*
D03*
X0364803Y0208307D02*
D03*
X0366772D02*
D03*
X0368740D02*
D03*
X0370709D02*
D03*
X0372677D02*
D03*
X0376614D02*
D03*
X0364803Y0210276D02*
D03*
X0366772D02*
D03*
X0370709D02*
D03*
X0376614D02*
D03*
X0364803Y0212244D02*
D03*
X0372677D02*
D03*
X0376614D02*
D03*
X0364803Y0214213D02*
D03*
X0366772D02*
D03*
X0370709D02*
D03*
X0372677D02*
D03*
X0376614D02*
D03*
X0364803Y0216181D02*
D03*
X0366772D02*
D03*
X0368740D02*
D03*
X0370709D02*
D03*
X0372677D02*
D03*
X0376614D02*
D03*
Y0218150D02*
D03*
X0362835Y0220118D02*
D03*
X0364803D02*
D03*
X0366772D02*
D03*
X0368740D02*
D03*
X0370709D02*
D03*
X0372677D02*
D03*
X0374646D02*
D03*
X0376614D02*
D03*
X0360866Y0204370D02*
D03*
Y0206339D02*
D03*
Y0208307D02*
D03*
Y0210276D02*
D03*
Y0212244D02*
D03*
Y0214213D02*
D03*
Y0216181D02*
D03*
Y0218150D02*
D03*
Y0220118D02*
D03*
X0465197Y0204370D02*
D03*
X0467165D02*
D03*
X0469134D02*
D03*
X0471102D02*
D03*
X0473071D02*
D03*
X0475039D02*
D03*
X0477008D02*
D03*
X0478976D02*
D03*
Y0206339D02*
D03*
X0467165Y0208307D02*
D03*
X0469134D02*
D03*
X0471102D02*
D03*
X0473071D02*
D03*
X0475039D02*
D03*
X0478976D02*
D03*
X0467165Y0210276D02*
D03*
X0469134D02*
D03*
X0473071D02*
D03*
X0478976D02*
D03*
X0467165Y0212244D02*
D03*
X0475039D02*
D03*
X0478976D02*
D03*
X0467165Y0214213D02*
D03*
X0469134D02*
D03*
X0473071D02*
D03*
X0475039D02*
D03*
X0478976D02*
D03*
X0467165Y0216181D02*
D03*
X0469134D02*
D03*
X0471102D02*
D03*
X0473071D02*
D03*
X0475039D02*
D03*
X0478976D02*
D03*
Y0218150D02*
D03*
X0465197Y0220118D02*
D03*
X0467165D02*
D03*
X0469134D02*
D03*
X0471102D02*
D03*
X0473071D02*
D03*
X0475039D02*
D03*
X0477008D02*
D03*
X0478976D02*
D03*
X0463228Y0204370D02*
D03*
Y0206339D02*
D03*
Y0208307D02*
D03*
Y0210276D02*
D03*
Y0212244D02*
D03*
Y0214213D02*
D03*
Y0216181D02*
D03*
Y0218150D02*
D03*
Y0220118D02*
D03*
D115*
X0102874Y0222951D02*
D03*
X0107050Y0227126D02*
D03*
X0205236Y0222951D02*
D03*
X0209412Y0227126D02*
D03*
X0307598Y0222951D02*
D03*
X0311774Y0227126D02*
D03*
X0409960Y0222951D02*
D03*
X0414136Y0227126D02*
D03*
X0512322Y0222951D02*
D03*
X0516498Y0227126D02*
D03*
D116*
X0114316Y0244611D02*
D03*
X0112089Y0242384D02*
D03*
X0109834Y0240129D02*
D03*
X0107606Y0237902D02*
D03*
X0105379Y0235675D02*
D03*
X0103152Y0233448D02*
D03*
X0100953Y0231249D02*
D03*
X0098698Y0228994D02*
D03*
X0096471Y0226766D02*
D03*
X0094272Y0224567D02*
D03*
X0092017Y0222312D02*
D03*
X0089817Y0220113D02*
D03*
X0056948Y0252955D02*
D03*
X0059178Y0255185D02*
D03*
X0061411Y0257417D02*
D03*
X0063629Y0259636D02*
D03*
X0065856Y0261863D02*
D03*
X0068084Y0264090D02*
D03*
X0070302Y0266298D02*
D03*
X0072557Y0268553D02*
D03*
X0074784Y0270780D02*
D03*
X0076984Y0272979D02*
D03*
X0079239Y0275234D02*
D03*
X0081466Y0277461D02*
D03*
X0216678Y0244611D02*
D03*
X0214451Y0242384D02*
D03*
X0212196Y0240129D02*
D03*
X0209969Y0237902D02*
D03*
X0207741Y0235675D02*
D03*
X0205514Y0233448D02*
D03*
X0203315Y0231249D02*
D03*
X0201060Y0228994D02*
D03*
X0198833Y0226766D02*
D03*
X0196634Y0224567D02*
D03*
X0194379Y0222312D02*
D03*
X0192180Y0220113D02*
D03*
X0159310Y0252955D02*
D03*
X0161540Y0255185D02*
D03*
X0163773Y0257417D02*
D03*
X0165992Y0259636D02*
D03*
X0168219Y0261863D02*
D03*
X0170446Y0264090D02*
D03*
X0172664Y0266298D02*
D03*
X0174919Y0268553D02*
D03*
X0177147Y0270780D02*
D03*
X0179346Y0272979D02*
D03*
X0181601Y0275234D02*
D03*
X0183828Y0277461D02*
D03*
X0319040Y0244611D02*
D03*
X0316813Y0242384D02*
D03*
X0314558Y0240129D02*
D03*
X0312331Y0237902D02*
D03*
X0310104Y0235675D02*
D03*
X0307877Y0233448D02*
D03*
X0305677Y0231249D02*
D03*
X0303422Y0228994D02*
D03*
X0301195Y0226766D02*
D03*
X0298996Y0224567D02*
D03*
X0296741Y0222312D02*
D03*
X0294542Y0220113D02*
D03*
X0261672Y0252955D02*
D03*
X0263902Y0255185D02*
D03*
X0266135Y0257417D02*
D03*
X0268354Y0259636D02*
D03*
X0270581Y0261863D02*
D03*
X0272808Y0264090D02*
D03*
X0275027Y0266298D02*
D03*
X0277282Y0268553D02*
D03*
X0279509Y0270780D02*
D03*
X0281708Y0272979D02*
D03*
X0283963Y0275234D02*
D03*
X0286190Y0277461D02*
D03*
X0421402Y0244611D02*
D03*
X0419175Y0242384D02*
D03*
X0416920Y0240129D02*
D03*
X0414693Y0237902D02*
D03*
X0412466Y0235675D02*
D03*
X0410239Y0233448D02*
D03*
X0408040Y0231249D02*
D03*
X0405785Y0228994D02*
D03*
X0403557Y0226766D02*
D03*
X0401358Y0224567D02*
D03*
X0399103Y0222312D02*
D03*
X0396904Y0220113D02*
D03*
X0364035Y0252955D02*
D03*
X0366265Y0255185D02*
D03*
X0368497Y0257417D02*
D03*
X0370716Y0259636D02*
D03*
X0372943Y0261863D02*
D03*
X0375170Y0264090D02*
D03*
X0377389Y0266298D02*
D03*
X0379644Y0268553D02*
D03*
X0381871Y0270780D02*
D03*
X0384070Y0272979D02*
D03*
X0386325Y0275234D02*
D03*
X0388552Y0277461D02*
D03*
X0523764Y0244611D02*
D03*
X0521537Y0242384D02*
D03*
X0519282Y0240129D02*
D03*
X0517055Y0237902D02*
D03*
X0514828Y0235675D02*
D03*
X0512601Y0233448D02*
D03*
X0510402Y0231249D02*
D03*
X0508147Y0228994D02*
D03*
X0505920Y0226766D02*
D03*
X0503720Y0224567D02*
D03*
X0501465Y0222312D02*
D03*
X0499266Y0220113D02*
D03*
X0466397Y0252955D02*
D03*
X0468627Y0255185D02*
D03*
X0470859Y0257417D02*
D03*
X0473078Y0259636D02*
D03*
X0475305Y0261863D02*
D03*
X0477532Y0264090D02*
D03*
X0479751Y0266298D02*
D03*
X0482006Y0268553D02*
D03*
X0484233Y0270780D02*
D03*
X0486432Y0272979D02*
D03*
X0488687Y0275234D02*
D03*
X0490914Y0277461D02*
D03*
D117*
X0082705Y0221352D02*
D03*
X0080472Y0223585D02*
D03*
X0078245Y0225812D02*
D03*
X0076018Y0228039D02*
D03*
X0073791Y0230266D02*
D03*
X0071564Y0232493D02*
D03*
X0069336Y0234720D02*
D03*
X0067112Y0236950D02*
D03*
X0064885Y0239177D02*
D03*
X0062655Y0241401D02*
D03*
X0060408Y0243648D02*
D03*
X0058067Y0245989D02*
D03*
X0088537Y0276236D02*
D03*
X0090792Y0273981D02*
D03*
X0092991Y0271782D02*
D03*
X0095218Y0269555D02*
D03*
X0097445Y0267328D02*
D03*
X0099672Y0265101D02*
D03*
X0101899Y0262874D02*
D03*
X0104127Y0260646D02*
D03*
X0106354Y0258419D02*
D03*
X0108581Y0256192D02*
D03*
X0110808Y0253965D02*
D03*
X0113063Y0251710D02*
D03*
X0185067Y0221352D02*
D03*
X0182834Y0223585D02*
D03*
X0180607Y0225812D02*
D03*
X0178380Y0228039D02*
D03*
X0176153Y0230266D02*
D03*
X0173926Y0232493D02*
D03*
X0171698Y0234720D02*
D03*
X0169474Y0236950D02*
D03*
X0167247Y0239177D02*
D03*
X0165017Y0241401D02*
D03*
X0162771Y0243648D02*
D03*
X0160429Y0245989D02*
D03*
X0190899Y0276236D02*
D03*
X0193154Y0273981D02*
D03*
X0195353Y0271782D02*
D03*
X0197580Y0269555D02*
D03*
X0199807Y0267328D02*
D03*
X0202034Y0265101D02*
D03*
X0204262Y0262874D02*
D03*
X0206489Y0260646D02*
D03*
X0208716Y0258419D02*
D03*
X0210943Y0256192D02*
D03*
X0213170Y0253965D02*
D03*
X0215425Y0251710D02*
D03*
X0287429Y0221352D02*
D03*
X0285196Y0223585D02*
D03*
X0282969Y0225812D02*
D03*
X0280742Y0228039D02*
D03*
X0278515Y0230266D02*
D03*
X0276288Y0232493D02*
D03*
X0274061Y0234720D02*
D03*
X0271836Y0236950D02*
D03*
X0269609Y0239177D02*
D03*
X0267379Y0241401D02*
D03*
X0265133Y0243648D02*
D03*
X0262792Y0245989D02*
D03*
X0293261Y0276236D02*
D03*
X0295516Y0273981D02*
D03*
X0297715Y0271782D02*
D03*
X0299942Y0269555D02*
D03*
X0302170Y0267328D02*
D03*
X0304397Y0265101D02*
D03*
X0306624Y0262874D02*
D03*
X0308851Y0260646D02*
D03*
X0311078Y0258419D02*
D03*
X0313305Y0256192D02*
D03*
X0315532Y0253965D02*
D03*
X0317787Y0251710D02*
D03*
X0389791Y0221352D02*
D03*
X0387558Y0223585D02*
D03*
X0385331Y0225812D02*
D03*
X0383104Y0228039D02*
D03*
X0380877Y0230266D02*
D03*
X0378650Y0232493D02*
D03*
X0376423Y0234720D02*
D03*
X0374199Y0236950D02*
D03*
X0371972Y0239177D02*
D03*
X0369742Y0241401D02*
D03*
X0367495Y0243648D02*
D03*
X0365154Y0245989D02*
D03*
X0395623Y0276236D02*
D03*
X0397878Y0273981D02*
D03*
X0400078Y0271782D02*
D03*
X0402305Y0269555D02*
D03*
X0404532Y0267328D02*
D03*
X0406759Y0265101D02*
D03*
X0408986Y0262874D02*
D03*
X0411213Y0260646D02*
D03*
X0413440Y0258419D02*
D03*
X0415667Y0256192D02*
D03*
X0417894Y0253965D02*
D03*
X0420149Y0251710D02*
D03*
X0492153Y0221352D02*
D03*
X0489921Y0223585D02*
D03*
X0487694Y0225812D02*
D03*
X0485466Y0228039D02*
D03*
X0483239Y0230266D02*
D03*
X0481012Y0232493D02*
D03*
X0478785Y0234720D02*
D03*
X0476561Y0236950D02*
D03*
X0474334Y0239177D02*
D03*
X0472104Y0241401D02*
D03*
X0469857Y0243648D02*
D03*
X0467516Y0245989D02*
D03*
X0497986Y0276236D02*
D03*
X0500241Y0273981D02*
D03*
X0502440Y0271782D02*
D03*
X0504667Y0269555D02*
D03*
X0506894Y0267328D02*
D03*
X0509121Y0265101D02*
D03*
X0511348Y0262874D02*
D03*
X0513575Y0260646D02*
D03*
X0515802Y0258419D02*
D03*
X0518029Y0256192D02*
D03*
X0520257Y0253965D02*
D03*
X0522512Y0251710D02*
D03*
D118*
X0099541Y0248779D02*
D03*
X0201904D02*
D03*
X0304266D02*
D03*
X0406628D02*
D03*
X0508990D02*
D03*
D119*
X0092582Y0255738D02*
D03*
X0085622Y0262698D02*
D03*
X0092582Y0241819D02*
D03*
X0085622Y0248779D02*
D03*
X0078662Y0255738D02*
D03*
X0085692Y0234790D02*
D03*
X0078662Y0241819D02*
D03*
X0071703Y0248779D02*
D03*
X0194944Y0255738D02*
D03*
X0187984Y0262698D02*
D03*
X0194944Y0241819D02*
D03*
X0187984Y0248779D02*
D03*
X0181025Y0255738D02*
D03*
X0188054Y0234790D02*
D03*
X0181025Y0241819D02*
D03*
X0174065Y0248779D02*
D03*
X0297306Y0255738D02*
D03*
X0290347Y0262698D02*
D03*
X0297306Y0241819D02*
D03*
X0290347Y0248779D02*
D03*
X0283387Y0255738D02*
D03*
X0290416Y0234790D02*
D03*
X0283387Y0241819D02*
D03*
X0276427Y0248779D02*
D03*
X0399668Y0255738D02*
D03*
X0392709Y0262698D02*
D03*
X0399668Y0241819D02*
D03*
X0392709Y0248779D02*
D03*
X0385749Y0255738D02*
D03*
X0392778Y0234790D02*
D03*
X0385749Y0241819D02*
D03*
X0378789Y0248779D02*
D03*
X0502031Y0255738D02*
D03*
X0495071Y0262698D02*
D03*
X0502031Y0241819D02*
D03*
X0495071Y0248779D02*
D03*
X0488111Y0255738D02*
D03*
X0495140Y0234790D02*
D03*
X0488111Y0241819D02*
D03*
X0481151Y0248779D02*
D03*
D120*
X0110830Y0230907D02*
D03*
X0113503Y0233579D02*
D03*
X0113310Y0225868D02*
D03*
X0115983Y0228540D02*
D03*
X0213192Y0230907D02*
D03*
X0215865Y0233579D02*
D03*
X0215672Y0225868D02*
D03*
X0218345Y0228540D02*
D03*
X0315554Y0230907D02*
D03*
X0318227Y0233579D02*
D03*
X0318035Y0225868D02*
D03*
X0320707Y0228540D02*
D03*
X0417917Y0230907D02*
D03*
X0420589Y0233579D02*
D03*
X0420397Y0225868D02*
D03*
X0423069Y0228540D02*
D03*
X0520279Y0230907D02*
D03*
X0522951Y0233579D02*
D03*
X0522759Y0225868D02*
D03*
X0525432Y0228540D02*
D03*
D121*
X0052126Y0285551D02*
D03*
X0056063D02*
D03*
X0111261Y0130196D02*
D03*
X0115198D02*
D03*
X0154488Y0285551D02*
D03*
X0158425D02*
D03*
X0213623Y0130196D02*
D03*
X0217560D02*
D03*
X0256850Y0285551D02*
D03*
X0260787D02*
D03*
X0315985Y0130196D02*
D03*
X0319922D02*
D03*
X0359213Y0285551D02*
D03*
X0363150D02*
D03*
X0418347Y0130196D02*
D03*
X0422284D02*
D03*
X0461575Y0285551D02*
D03*
X0465512D02*
D03*
X0520710Y0130196D02*
D03*
X0524647D02*
D03*
D122*
X0067481Y0291023D02*
D03*
X0169843D02*
D03*
X0272206D02*
D03*
X0374568D02*
D03*
X0476930D02*
D03*
D123*
X0065513Y0287098D02*
D03*
X0067481Y0287235D02*
D03*
X0069450Y0287098D02*
D03*
Y0294950D02*
D03*
X0067481Y0294812D02*
D03*
X0065513Y0294950D02*
D03*
X0167875Y0287098D02*
D03*
X0169843Y0287235D02*
D03*
X0171812Y0287098D02*
D03*
Y0294950D02*
D03*
X0169843Y0294812D02*
D03*
X0167875Y0294950D02*
D03*
X0270237Y0287098D02*
D03*
X0272206Y0287235D02*
D03*
X0274174Y0287098D02*
D03*
Y0294950D02*
D03*
X0272206Y0294812D02*
D03*
X0270237Y0294950D02*
D03*
X0372599Y0287098D02*
D03*
X0374568Y0287235D02*
D03*
X0376536Y0287098D02*
D03*
Y0294950D02*
D03*
X0374568Y0294812D02*
D03*
X0372599Y0294950D02*
D03*
X0474962Y0287098D02*
D03*
X0476930Y0287235D02*
D03*
X0478898Y0287098D02*
D03*
Y0294950D02*
D03*
X0476930Y0294812D02*
D03*
X0474962Y0294950D02*
D03*
D124*
X0071406Y0289054D02*
D03*
X0071269Y0291023D02*
D03*
X0071406Y0292991D02*
D03*
X0063556D02*
D03*
X0063694Y0291023D02*
D03*
X0063556Y0289054D02*
D03*
X0173769D02*
D03*
X0173631Y0291023D02*
D03*
X0173769Y0292991D02*
D03*
X0165918D02*
D03*
X0166056Y0291023D02*
D03*
X0165918Y0289054D02*
D03*
X0276131D02*
D03*
X0275993Y0291023D02*
D03*
X0276131Y0292991D02*
D03*
X0268280D02*
D03*
X0268418Y0291023D02*
D03*
X0268280Y0289054D02*
D03*
X0378493D02*
D03*
X0378355Y0291023D02*
D03*
X0378493Y0292991D02*
D03*
X0370643D02*
D03*
X0370780Y0291023D02*
D03*
X0370643Y0289054D02*
D03*
X0480855D02*
D03*
X0480717Y0291023D02*
D03*
X0480855Y0292991D02*
D03*
X0473005D02*
D03*
X0473143Y0291023D02*
D03*
X0473005Y0289054D02*
D03*
D125*
X0059930Y0269125D02*
D03*
X0057314Y0271742D02*
D03*
X0162293Y0269125D02*
D03*
X0159676Y0271742D02*
D03*
X0264655Y0269125D02*
D03*
X0262038Y0271742D02*
D03*
X0367017Y0269125D02*
D03*
X0364400Y0271742D02*
D03*
X0469379Y0269125D02*
D03*
X0466762Y0271742D02*
D03*
D126*
X0055827Y0260984D02*
D03*
X0055827Y0263150D02*
D03*
Y0265315D02*
D03*
X0051890Y0260984D02*
D03*
Y0263150D02*
D03*
X0051890Y0265315D02*
D03*
X0158189Y0260984D02*
D03*
X0158189Y0263150D02*
D03*
Y0265315D02*
D03*
X0154252Y0260984D02*
D03*
Y0263150D02*
D03*
X0154252Y0265315D02*
D03*
X0260551Y0260984D02*
D03*
X0260551Y0263150D02*
D03*
Y0265315D02*
D03*
X0256614Y0260984D02*
D03*
Y0263150D02*
D03*
X0256614Y0265315D02*
D03*
X0362913Y0260984D02*
D03*
X0362913Y0263150D02*
D03*
Y0265315D02*
D03*
X0358976Y0260984D02*
D03*
Y0263150D02*
D03*
X0358976Y0265315D02*
D03*
X0465275Y0260984D02*
D03*
X0465275Y0263150D02*
D03*
Y0265315D02*
D03*
X0461339Y0260984D02*
D03*
Y0263150D02*
D03*
X0461339Y0265315D02*
D03*
D127*
X0044528Y0328542D02*
D03*
X0052166D02*
D03*
X0048347Y0320905D02*
D03*
X0052127Y0306889D02*
D03*
X0044489D02*
D03*
X0048308Y0314527D02*
D03*
X0051891Y0063483D02*
D03*
X0044253D02*
D03*
X0048072Y0071121D02*
D03*
X0146891Y0328542D02*
D03*
X0154528D02*
D03*
X0150710Y0320905D02*
D03*
X0154489Y0306889D02*
D03*
X0146851D02*
D03*
X0150670Y0314527D02*
D03*
X0154253Y0063483D02*
D03*
X0146615D02*
D03*
X0150434Y0071121D02*
D03*
X0249253Y0328542D02*
D03*
X0256891D02*
D03*
X0253072Y0320905D02*
D03*
X0256851Y0306889D02*
D03*
X0249214D02*
D03*
X0253032Y0314527D02*
D03*
X0256615Y0063483D02*
D03*
X0248977D02*
D03*
X0252796Y0071121D02*
D03*
X0351615Y0328542D02*
D03*
X0359253D02*
D03*
X0355434Y0320905D02*
D03*
X0359213Y0306889D02*
D03*
X0351576D02*
D03*
X0355395Y0314527D02*
D03*
X0358977Y0063483D02*
D03*
X0351340D02*
D03*
X0355158Y0071121D02*
D03*
X0453977Y0328542D02*
D03*
X0461615D02*
D03*
X0457796Y0320905D02*
D03*
X0461576Y0306889D02*
D03*
X0453938D02*
D03*
X0457757Y0314527D02*
D03*
X0461340Y0063483D02*
D03*
X0453702D02*
D03*
X0457521Y0071121D02*
D03*
D128*
X0065828Y0076298D02*
D03*
X0168190D02*
D03*
X0270552D02*
D03*
X0372914D02*
D03*
X0475277D02*
D03*
D129*
X0050788Y0092716D02*
D03*
Y0078542D02*
D03*
X0153150Y0092716D02*
D03*
Y0078542D02*
D03*
X0255513Y0092716D02*
D03*
Y0078542D02*
D03*
X0357875Y0092716D02*
D03*
Y0078542D02*
D03*
X0460237Y0092716D02*
D03*
Y0078542D02*
D03*
D130*
X0062639Y0307165D02*
D03*
Y0309133D02*
D03*
Y0311102D02*
D03*
X0057127D02*
D03*
Y0309133D02*
D03*
Y0307165D02*
D03*
X0165001D02*
D03*
Y0309133D02*
D03*
Y0311102D02*
D03*
X0159489D02*
D03*
Y0309133D02*
D03*
Y0307165D02*
D03*
X0267363D02*
D03*
Y0309133D02*
D03*
Y0311102D02*
D03*
X0261851D02*
D03*
Y0309133D02*
D03*
Y0307165D02*
D03*
X0369725D02*
D03*
Y0309133D02*
D03*
Y0311102D02*
D03*
X0364213D02*
D03*
Y0309133D02*
D03*
Y0307165D02*
D03*
X0472087D02*
D03*
Y0309133D02*
D03*
Y0311102D02*
D03*
X0466576D02*
D03*
Y0309133D02*
D03*
Y0307165D02*
D03*
D131*
X0069318Y0224410D02*
D03*
X0063806D02*
D03*
X0171680D02*
D03*
X0166168D02*
D03*
X0274042D02*
D03*
X0268530D02*
D03*
X0376404D02*
D03*
X0370893D02*
D03*
X0478766D02*
D03*
X0473255D02*
D03*
D132*
X0053268Y0226634D02*
D03*
X0055236D02*
D03*
X0057205D02*
D03*
X0053268Y0231949D02*
D03*
X0055236D02*
D03*
X0057205D02*
D03*
X0155630Y0226634D02*
D03*
X0157598D02*
D03*
X0159567D02*
D03*
X0155630Y0231949D02*
D03*
X0157598D02*
D03*
X0159567D02*
D03*
X0257992Y0226634D02*
D03*
X0259961D02*
D03*
X0261929D02*
D03*
X0257992Y0231949D02*
D03*
X0259961D02*
D03*
X0261929D02*
D03*
X0360354Y0226634D02*
D03*
X0362323D02*
D03*
X0364291D02*
D03*
X0360354Y0231949D02*
D03*
X0362323D02*
D03*
X0364291D02*
D03*
X0462716Y0226634D02*
D03*
X0464685D02*
D03*
X0466653D02*
D03*
X0462716Y0231949D02*
D03*
X0464685D02*
D03*
X0466653D02*
D03*
D133*
X0109306Y0265064D02*
D03*
X0106522Y0267848D02*
D03*
X0211668Y0265064D02*
D03*
X0208885Y0267848D02*
D03*
X0314031Y0265064D02*
D03*
X0311247Y0267848D02*
D03*
X0416393Y0265064D02*
D03*
X0413609Y0267848D02*
D03*
X0518755Y0265064D02*
D03*
X0515971Y0267848D02*
D03*
D134*
X0110749Y0209172D02*
D03*
X0213111D02*
D03*
X0315473D02*
D03*
X0417836D02*
D03*
X0520198D02*
D03*
D135*
X0062953Y0201378D02*
D03*
Y0199213D02*
D03*
Y0197047D02*
D03*
X0060591D02*
D03*
Y0199213D02*
D03*
Y0201378D02*
D03*
X0165315D02*
D03*
Y0199213D02*
D03*
Y0197047D02*
D03*
X0162953D02*
D03*
Y0199213D02*
D03*
Y0201378D02*
D03*
X0267677D02*
D03*
Y0199213D02*
D03*
Y0197047D02*
D03*
X0265315D02*
D03*
Y0199213D02*
D03*
Y0201378D02*
D03*
X0370039D02*
D03*
Y0199213D02*
D03*
Y0197047D02*
D03*
X0367677D02*
D03*
Y0199213D02*
D03*
Y0201378D02*
D03*
X0472402D02*
D03*
Y0199213D02*
D03*
Y0197047D02*
D03*
X0470039D02*
D03*
Y0199213D02*
D03*
Y0201378D02*
D03*
D136*
X0084260Y0194992D02*
D03*
X0086765Y0192487D02*
D03*
X0186622Y0194992D02*
D03*
X0189128Y0192487D02*
D03*
X0288984Y0194992D02*
D03*
X0291490Y0192487D02*
D03*
X0391347Y0194992D02*
D03*
X0393852Y0192487D02*
D03*
X0493709Y0194992D02*
D03*
X0496214Y0192487D02*
D03*
D137*
X0096969Y0145354D02*
D03*
Y0139055D02*
D03*
X0199331Y0145354D02*
D03*
Y0139055D02*
D03*
X0301693Y0145354D02*
D03*
Y0139055D02*
D03*
X0404055Y0145354D02*
D03*
Y0139055D02*
D03*
X0506417Y0145354D02*
D03*
Y0139055D02*
D03*
D138*
X0086751Y0204422D02*
D03*
X0189113D02*
D03*
X0291475D02*
D03*
X0393837D02*
D03*
X0496199D02*
D03*
M02*
