G04*
G04 #@! TF.GenerationSoftware,Altium Limited,Altium Designer,20.0.13 (296)*
G04*
G04 Layer_Color=8421504*
%FSAX25Y25*%
%MOIN*%
G70*
G01*
G75*
%ADD10C,0.03937*%
%ADD13R,0.07874X0.05906*%
%ADD79C,0.00039*%
G36*
X0518433Y0074285D02*
X0520210Y0073773D01*
X0521915Y0073057D01*
X0523524Y0072146D01*
X0525016Y0071053D01*
X0526369Y0069792D01*
X0527566Y0068383D01*
X0528590Y0066842D01*
X0529426Y0065193D01*
X0530063Y0063457D01*
X0530493Y0061658D01*
X0530710Y0059822D01*
Y0058897D01*
X0530710Y0057972D01*
X0530493Y0056136D01*
X0530063Y0054337D01*
X0529426Y0052601D01*
X0528590Y0050951D01*
X0527566Y0049411D01*
X0526369Y0048001D01*
X0525016Y0046741D01*
X0523524Y0045648D01*
X0521915Y0044737D01*
X0520210Y0044020D01*
X0518433Y0043508D01*
X0517521Y0043358D01*
X0517521Y0043358D01*
Y0074436D01*
X0518433Y0074285D01*
D02*
G37*
G36*
X0475913D02*
X0477690Y0073773D01*
X0479395Y0073057D01*
X0481005Y0072146D01*
X0482496Y0071053D01*
X0483850Y0069792D01*
X0485046Y0068383D01*
X0486070Y0066842D01*
X0486906Y0065193D01*
X0487544Y0063457D01*
X0487973Y0061658D01*
X0488190Y0059822D01*
Y0058897D01*
X0488190Y0057972D01*
X0487973Y0056136D01*
X0487544Y0054337D01*
X0486906Y0052601D01*
X0486070Y0050951D01*
X0485046Y0049411D01*
X0483850Y0048001D01*
X0482496Y0046741D01*
X0481005Y0045648D01*
X0479395Y0044737D01*
X0477690Y0044020D01*
X0475913Y0043508D01*
X0475001Y0043358D01*
X0475001Y0043358D01*
Y0074436D01*
X0475913Y0074285D01*
D02*
G37*
G36*
X0416071D02*
X0417848Y0073773D01*
X0419553Y0073057D01*
X0421162Y0072146D01*
X0422654Y0071053D01*
X0424007Y0069792D01*
X0425204Y0068383D01*
X0426228Y0066842D01*
X0427064Y0065193D01*
X0427701Y0063457D01*
X0428131Y0061658D01*
X0428347Y0059822D01*
Y0058897D01*
X0428347Y0057972D01*
X0428131Y0056136D01*
X0427701Y0054337D01*
X0427064Y0052601D01*
X0426228Y0050951D01*
X0425204Y0049411D01*
X0424007Y0048001D01*
X0422654Y0046741D01*
X0421162Y0045648D01*
X0419553Y0044737D01*
X0417848Y0044020D01*
X0416071Y0043508D01*
X0415158Y0043358D01*
X0415158Y0043358D01*
Y0074436D01*
X0416071Y0074285D01*
D02*
G37*
G36*
X0373551D02*
X0375328Y0073773D01*
X0377033Y0073057D01*
X0378642Y0072146D01*
X0380134Y0071053D01*
X0381488Y0069792D01*
X0382684Y0068383D01*
X0383708Y0066842D01*
X0384544Y0065193D01*
X0385181Y0063457D01*
X0385611Y0061658D01*
X0385828Y0059822D01*
Y0058897D01*
X0385828Y0057972D01*
X0385611Y0056136D01*
X0385181Y0054337D01*
X0384544Y0052601D01*
X0383708Y0050951D01*
X0382684Y0049411D01*
X0381488Y0048001D01*
X0380134Y0046741D01*
X0378642Y0045648D01*
X0377033Y0044737D01*
X0375328Y0044020D01*
X0373551Y0043508D01*
X0372639Y0043358D01*
X0372639Y0043358D01*
Y0074436D01*
X0373551Y0074285D01*
D02*
G37*
G36*
X0313708D02*
X0315486Y0073773D01*
X0317191Y0073057D01*
X0318800Y0072146D01*
X0320292Y0071053D01*
X0321645Y0069792D01*
X0322842Y0068383D01*
X0323865Y0066842D01*
X0324701Y0065193D01*
X0325339Y0063457D01*
X0325769Y0061658D01*
X0325985Y0059822D01*
Y0058897D01*
X0325985Y0057972D01*
X0325769Y0056136D01*
X0325339Y0054337D01*
X0324701Y0052601D01*
X0323865Y0050951D01*
X0322842Y0049411D01*
X0321645Y0048001D01*
X0320292Y0046741D01*
X0318800Y0045648D01*
X0317191Y0044737D01*
X0315486Y0044020D01*
X0313709Y0043508D01*
X0312796Y0043358D01*
X0312796Y0043358D01*
Y0074436D01*
X0313708Y0074285D01*
D02*
G37*
G36*
X0271189D02*
X0272966Y0073773D01*
X0274671Y0073057D01*
X0276280Y0072146D01*
X0277772Y0071053D01*
X0279125Y0069792D01*
X0280322Y0068383D01*
X0281346Y0066842D01*
X0282182Y0065193D01*
X0282819Y0063457D01*
X0283249Y0061658D01*
X0283466Y0059822D01*
Y0058897D01*
X0283466Y0057972D01*
X0283249Y0056136D01*
X0282819Y0054337D01*
X0282182Y0052601D01*
X0281346Y0050951D01*
X0280322Y0049411D01*
X0279125Y0048001D01*
X0277772Y0046741D01*
X0276280Y0045648D01*
X0274671Y0044737D01*
X0272966Y0044020D01*
X0271189Y0043508D01*
X0270276Y0043358D01*
X0270276Y0043358D01*
Y0074436D01*
X0271189Y0074285D01*
D02*
G37*
G36*
X0211346D02*
X0213123Y0073773D01*
X0214828Y0073057D01*
X0216438Y0072146D01*
X0217929Y0071053D01*
X0219283Y0069792D01*
X0220480Y0068383D01*
X0221503Y0066842D01*
X0222339Y0065193D01*
X0222977Y0063457D01*
X0223407Y0061658D01*
X0223623Y0059822D01*
Y0058897D01*
X0223623Y0057972D01*
X0223407Y0056136D01*
X0222977Y0054337D01*
X0222339Y0052601D01*
X0221503Y0050951D01*
X0220480Y0049411D01*
X0219283Y0048001D01*
X0217929Y0046741D01*
X0216438Y0045648D01*
X0214828Y0044737D01*
X0213123Y0044020D01*
X0211346Y0043508D01*
X0210434Y0043358D01*
X0210434Y0043358D01*
Y0074436D01*
X0211346Y0074285D01*
D02*
G37*
G36*
X0168827D02*
X0170604Y0073773D01*
X0172309Y0073057D01*
X0173918Y0072146D01*
X0175410Y0071053D01*
X0176763Y0069792D01*
X0177960Y0068383D01*
X0178983Y0066842D01*
X0179820Y0065193D01*
X0180457Y0063457D01*
X0180887Y0061658D01*
X0181103Y0059822D01*
Y0058897D01*
X0181103Y0057972D01*
X0180887Y0056136D01*
X0180457Y0054337D01*
X0179820Y0052601D01*
X0178983Y0050951D01*
X0177960Y0049411D01*
X0176763Y0048001D01*
X0175410Y0046741D01*
X0173918Y0045648D01*
X0172309Y0044737D01*
X0170604Y0044020D01*
X0168827Y0043508D01*
X0167914Y0043358D01*
X0167914Y0043358D01*
Y0074436D01*
X0168827Y0074285D01*
D02*
G37*
G36*
X0108984D02*
X0110761Y0073773D01*
X0112466Y0073057D01*
X0114076Y0072146D01*
X0115567Y0071053D01*
X0116921Y0069792D01*
X0118117Y0068383D01*
X0119141Y0066842D01*
X0119977Y0065193D01*
X0120615Y0063457D01*
X0121045Y0061658D01*
X0121261Y0059822D01*
Y0058897D01*
X0121261Y0057972D01*
X0121045Y0056136D01*
X0120615Y0054337D01*
X0119977Y0052601D01*
X0119141Y0050951D01*
X0118117Y0049411D01*
X0116921Y0048001D01*
X0115567Y0046741D01*
X0114076Y0045648D01*
X0112466Y0044737D01*
X0110761Y0044020D01*
X0108984Y0043508D01*
X0108072Y0043358D01*
X0108072Y0043358D01*
Y0074436D01*
X0108984Y0074285D01*
D02*
G37*
G36*
X0066465D02*
X0068242Y0073773D01*
X0069946Y0073057D01*
X0071556Y0072146D01*
X0073048Y0071053D01*
X0074401Y0069792D01*
X0075598Y0068383D01*
X0076621Y0066842D01*
X0077457Y0065193D01*
X0078095Y0063457D01*
X0078525Y0061658D01*
X0078741Y0059822D01*
Y0058897D01*
X0078741Y0057972D01*
X0078525Y0056136D01*
X0078095Y0054337D01*
X0077457Y0052601D01*
X0076621Y0050951D01*
X0075598Y0049411D01*
X0074401Y0048001D01*
X0073048Y0046741D01*
X0071556Y0045648D01*
X0069946Y0044737D01*
X0068242Y0044020D01*
X0066465Y0043508D01*
X0065552Y0043358D01*
X0065552Y0043358D01*
Y0074436D01*
X0066465Y0074285D01*
D02*
G37*
G36*
X0512402Y0043358D02*
X0511490Y0043508D01*
X0509713Y0044020D01*
X0508008Y0044737D01*
X0506399Y0045648D01*
X0504907Y0046741D01*
X0503553Y0048001D01*
X0502357Y0049411D01*
X0501333Y0050951D01*
X0500497Y0052601D01*
X0499860Y0054337D01*
X0499430Y0056135D01*
X0499213Y0057972D01*
Y0058897D01*
Y0058897D01*
X0499213Y0059821D01*
X0499430Y0061658D01*
X0499860Y0063457D01*
X0500497Y0065193D01*
X0501333Y0066842D01*
X0502357Y0068382D01*
X0503553Y0069792D01*
X0504907Y0071053D01*
X0506399Y0072146D01*
X0508008Y0073057D01*
X0509713Y0073773D01*
X0511490Y0074285D01*
X0512402Y0074436D01*
X0512402Y0074436D01*
X0512402Y0043358D01*
D02*
G37*
G36*
X0469883D02*
X0468970Y0043508D01*
X0467193Y0044020D01*
X0465488Y0044737D01*
X0463879Y0045648D01*
X0462387Y0046741D01*
X0461034Y0048001D01*
X0459837Y0049411D01*
X0458814Y0050951D01*
X0457977Y0052601D01*
X0457340Y0054337D01*
X0456910Y0056135D01*
X0456694Y0057972D01*
Y0058897D01*
Y0058897D01*
X0456694Y0059821D01*
X0456910Y0061658D01*
X0457340Y0063457D01*
X0457977Y0065193D01*
X0458814Y0066842D01*
X0459837Y0068382D01*
X0461034Y0069792D01*
X0462387Y0071053D01*
X0463879Y0072146D01*
X0465488Y0073057D01*
X0467193Y0073773D01*
X0468970Y0074285D01*
X0469883Y0074436D01*
X0469883Y0074436D01*
X0469883Y0043358D01*
D02*
G37*
G36*
X0410040D02*
X0409128Y0043508D01*
X0407351Y0044020D01*
X0405646Y0044737D01*
X0404037Y0045648D01*
X0402545Y0046741D01*
X0401191Y0048001D01*
X0399995Y0049411D01*
X0398971Y0050951D01*
X0398135Y0052601D01*
X0397498Y0054337D01*
X0397068Y0056135D01*
X0396851Y0057972D01*
Y0058897D01*
Y0058897D01*
X0396851Y0059821D01*
X0397068Y0061658D01*
X0397497Y0063457D01*
X0398135Y0065193D01*
X0398971Y0066842D01*
X0399995Y0068382D01*
X0401191Y0069792D01*
X0402545Y0071053D01*
X0404037Y0072146D01*
X0405646Y0073057D01*
X0407351Y0073773D01*
X0409128Y0074285D01*
X0410040Y0074436D01*
X0410040Y0074436D01*
X0410040Y0043358D01*
D02*
G37*
G36*
X0367521D02*
X0366608Y0043508D01*
X0364831Y0044020D01*
X0363126Y0044737D01*
X0361517Y0045648D01*
X0360025Y0046741D01*
X0358672Y0048001D01*
X0357475Y0049411D01*
X0356451Y0050951D01*
X0355615Y0052601D01*
X0354978Y0054337D01*
X0354548Y0056135D01*
X0354331Y0057972D01*
Y0058897D01*
Y0058897D01*
X0354331Y0059821D01*
X0354548Y0061658D01*
X0354978Y0063457D01*
X0355615Y0065193D01*
X0356451Y0066842D01*
X0357475Y0068382D01*
X0358672Y0069792D01*
X0360025Y0071053D01*
X0361517Y0072146D01*
X0363126Y0073057D01*
X0364831Y0073773D01*
X0366608Y0074285D01*
X0367520Y0074436D01*
X0367521Y0074436D01*
X0367521Y0043358D01*
D02*
G37*
G36*
X0307678D02*
X0306766Y0043508D01*
X0304989Y0044020D01*
X0303284Y0044737D01*
X0301674Y0045648D01*
X0300183Y0046741D01*
X0298829Y0048001D01*
X0297632Y0049411D01*
X0296609Y0050951D01*
X0295773Y0052601D01*
X0295135Y0054337D01*
X0294705Y0056135D01*
X0294489Y0057972D01*
Y0058897D01*
Y0058897D01*
X0294489Y0059821D01*
X0294705Y0061658D01*
X0295135Y0063457D01*
X0295773Y0065193D01*
X0296609Y0066842D01*
X0297632Y0068382D01*
X0298829Y0069792D01*
X0300183Y0071053D01*
X0301674Y0072146D01*
X0303284Y0073057D01*
X0304989Y0073773D01*
X0306766Y0074285D01*
X0307678Y0074436D01*
X0307678Y0074436D01*
X0307678Y0043358D01*
D02*
G37*
G36*
X0265158D02*
X0264246Y0043508D01*
X0262469Y0044020D01*
X0260764Y0044737D01*
X0259155Y0045648D01*
X0257663Y0046741D01*
X0256310Y0048001D01*
X0255113Y0049411D01*
X0254089Y0050951D01*
X0253253Y0052601D01*
X0252616Y0054337D01*
X0252186Y0056135D01*
X0251969Y0057972D01*
Y0058897D01*
Y0058897D01*
X0251969Y0059821D01*
X0252186Y0061658D01*
X0252616Y0063457D01*
X0253253Y0065193D01*
X0254089Y0066842D01*
X0255113Y0068382D01*
X0256309Y0069792D01*
X0257663Y0071053D01*
X0259155Y0072146D01*
X0260764Y0073057D01*
X0262469Y0073773D01*
X0264246Y0074285D01*
X0265158Y0074436D01*
X0265158Y0074436D01*
X0265158Y0043358D01*
D02*
G37*
G36*
X0205316D02*
X0204403Y0043508D01*
X0202626Y0044020D01*
X0200922Y0044737D01*
X0199312Y0045648D01*
X0197820Y0046741D01*
X0196467Y0048001D01*
X0195270Y0049411D01*
X0194247Y0050951D01*
X0193411Y0052601D01*
X0192773Y0054337D01*
X0192343Y0056135D01*
X0192127Y0057972D01*
Y0058897D01*
Y0058897D01*
X0192127Y0059821D01*
X0192343Y0061658D01*
X0192773Y0063457D01*
X0193411Y0065193D01*
X0194247Y0066842D01*
X0195270Y0068382D01*
X0196467Y0069792D01*
X0197820Y0071053D01*
X0199312Y0072146D01*
X0200922Y0073057D01*
X0202626Y0073773D01*
X0204403Y0074285D01*
X0205316Y0074436D01*
X0205316Y0074436D01*
X0205316Y0043358D01*
D02*
G37*
G36*
X0162796D02*
X0161884Y0043508D01*
X0160107Y0044020D01*
X0158402Y0044737D01*
X0156792Y0045648D01*
X0155301Y0046741D01*
X0153947Y0048001D01*
X0152751Y0049411D01*
X0151727Y0050951D01*
X0150891Y0052601D01*
X0150253Y0054337D01*
X0149823Y0056135D01*
X0149607Y0057972D01*
Y0058897D01*
Y0058897D01*
X0149607Y0059821D01*
X0149823Y0061658D01*
X0150253Y0063457D01*
X0150891Y0065193D01*
X0151727Y0066842D01*
X0152751Y0068382D01*
X0153947Y0069792D01*
X0155301Y0071053D01*
X0156792Y0072146D01*
X0158402Y0073057D01*
X0160107Y0073773D01*
X0161884Y0074285D01*
X0162796Y0074436D01*
X0162796Y0074436D01*
X0162796Y0043358D01*
D02*
G37*
G36*
X0102954D02*
X0102041Y0043508D01*
X0100264Y0044020D01*
X0098559Y0044737D01*
X0096950Y0045648D01*
X0095458Y0046741D01*
X0094105Y0048001D01*
X0092908Y0049411D01*
X0091884Y0050951D01*
X0091048Y0052601D01*
X0090411Y0054337D01*
X0089981Y0056135D01*
X0089765Y0057972D01*
Y0058897D01*
Y0058897D01*
X0089765Y0059821D01*
X0089981Y0061658D01*
X0090411Y0063457D01*
X0091048Y0065193D01*
X0091884Y0066842D01*
X0092908Y0068382D01*
X0094105Y0069792D01*
X0095458Y0071053D01*
X0096950Y0072146D01*
X0098559Y0073057D01*
X0100264Y0073773D01*
X0102041Y0074285D01*
X0102954Y0074436D01*
X0102954Y0074436D01*
X0102954Y0043358D01*
D02*
G37*
G36*
X0060434D02*
X0059522Y0043508D01*
X0057745Y0044020D01*
X0056040Y0044737D01*
X0054430Y0045648D01*
X0052939Y0046741D01*
X0051585Y0048001D01*
X0050388Y0049411D01*
X0049365Y0050951D01*
X0048529Y0052601D01*
X0047891Y0054337D01*
X0047461Y0056135D01*
X0047245Y0057972D01*
Y0058897D01*
Y0058897D01*
X0047245Y0059821D01*
X0047461Y0061658D01*
X0047891Y0063457D01*
X0048529Y0065193D01*
X0049365Y0066842D01*
X0050388Y0068382D01*
X0051585Y0069792D01*
X0052938Y0071053D01*
X0054430Y0072146D01*
X0056040Y0073057D01*
X0057744Y0073773D01*
X0059522Y0074285D01*
X0060434Y0074436D01*
X0060434Y0074436D01*
X0060434Y0043358D01*
D02*
G37*
D10*
X0047244Y0382323D02*
D03*
X0525669Y0019331D02*
D03*
X0524016Y0382323D02*
D03*
X0047244Y0020394D02*
D03*
D13*
X0124578Y0143209D02*
D03*
Y0158957D02*
D03*
X0121417Y0305118D02*
D03*
X0124578Y0151083D02*
D03*
Y0127461D02*
D03*
Y0135335D02*
D03*
X0121417Y0281496D02*
D03*
Y0265748D02*
D03*
Y0273622D02*
D03*
Y0289370D02*
D03*
Y0297244D02*
D03*
X0226940Y0143209D02*
D03*
Y0158957D02*
D03*
X0223780Y0305118D02*
D03*
X0226940Y0151083D02*
D03*
Y0127461D02*
D03*
Y0135335D02*
D03*
X0223780Y0281496D02*
D03*
Y0265748D02*
D03*
Y0273622D02*
D03*
Y0289370D02*
D03*
Y0297244D02*
D03*
X0329303Y0143209D02*
D03*
Y0158957D02*
D03*
X0326142Y0305118D02*
D03*
X0329303Y0151083D02*
D03*
Y0127461D02*
D03*
Y0135335D02*
D03*
X0326142Y0281496D02*
D03*
Y0265748D02*
D03*
Y0273622D02*
D03*
Y0289370D02*
D03*
Y0297244D02*
D03*
X0431665Y0143209D02*
D03*
Y0158957D02*
D03*
X0428504Y0305118D02*
D03*
X0431665Y0151083D02*
D03*
Y0127461D02*
D03*
Y0135335D02*
D03*
X0428504Y0281496D02*
D03*
Y0265748D02*
D03*
Y0273622D02*
D03*
Y0289370D02*
D03*
Y0297244D02*
D03*
X0534027Y0143209D02*
D03*
Y0158957D02*
D03*
X0530866Y0305118D02*
D03*
X0534027Y0151083D02*
D03*
Y0127461D02*
D03*
Y0135335D02*
D03*
X0530866Y0281496D02*
D03*
Y0265748D02*
D03*
Y0273622D02*
D03*
Y0289370D02*
D03*
Y0297244D02*
D03*
D79*
X0044981Y0134999D02*
D03*
X0049981D02*
D03*
X0044981Y0129999D02*
D03*
X0049981D02*
D03*
X0044981Y0124999D02*
D03*
X0049981D02*
D03*
X0147343Y0134999D02*
D03*
X0152343D02*
D03*
X0147343Y0129999D02*
D03*
X0152343D02*
D03*
X0147343Y0124999D02*
D03*
X0152343D02*
D03*
X0249706Y0134999D02*
D03*
X0254706D02*
D03*
X0249706Y0129999D02*
D03*
X0254706D02*
D03*
X0249706Y0124999D02*
D03*
X0254706D02*
D03*
X0352068Y0134999D02*
D03*
X0357068D02*
D03*
X0352068Y0129999D02*
D03*
X0357068D02*
D03*
X0352068Y0124999D02*
D03*
X0357068D02*
D03*
X0454430Y0134999D02*
D03*
X0459430D02*
D03*
X0454430Y0129999D02*
D03*
X0459430D02*
D03*
X0454430Y0124999D02*
D03*
X0459430D02*
D03*
M02*
