M48
;Layer_Color=9474304
;FILE_FORMAT=2:5
INCH
;TYPE=PLATED
T1F00S00C0.01181
T2F00S00C0.01575
T3F00S00C0.02756
T4F00S00C0.03543
T5F00S00C0.04331
T6F00S00C0.04724
T7F00S00C0.09843
T8F00S00C0.11811
;TYPE=NON_PLATED
T9F00S00C0.03917
%
T01
X0045981Y0047464
X0043379Y0051015
X0041832Y0054964
X0049283Y0044449
X0053383Y0042109
X0058985Y0040861
X0062985Y0040810
X0067536Y0041310
X0083465Y0042361
Y0045117
Y0047873
Y0050629
X0088241Y0048412
X0088653Y0044449
X0093575
X0091245Y0041810
X0096544Y0041511
X0101595Y0040960
X0107249Y0040861
X0112800Y0041763
X0118181Y0044449
X0148343Y0047464
X0145741Y0051015
X0144194Y0054964
X0151646Y0044449
X0155745Y0042109
X0161347Y0040861
X0165347Y0040810
X0169898Y0041310
X0185828Y0042361
Y0045117
Y0047873
Y0050629
X0190603Y0048412
X0191016Y0044449
X0195937
X0193607Y0041810
X0198906Y0041511
X0203958Y0040960
X0209611Y0040861
X0215162Y0041763
X0220543Y0044449
X0250706Y0047464
X0248103Y0051015
X0246556Y0054964
X0254008Y0044449
X0258107Y0042109
X0263709Y0040861
X0267709Y0040810
X0272261Y0041310
X0288190Y0042361
Y0045117
Y0047873
Y0050629
X0292966Y0048412
X0293378Y0044449
X0298299
X0295969Y0041810
X0301269Y0041511
X0306320Y0040960
X0311973Y0040861
X0317525Y0041763
X0322905Y0044449
X0353068Y0047464
X0350465Y0051015
X0348918Y0054964
X0356370Y0044449
X0360469Y0042109
X0366072Y0040861
X0370072Y0040810
X0374623Y0041310
X0390552Y0042361
Y0045117
Y0047873
Y0050629
X0395328Y0048412
X0395740Y0044449
X0400661
X0398332Y0041810
X0403631Y0041511
X0408682Y0040960
X0414335Y0040861
X0419887Y0041763
X0425268Y0044449
X0455430Y0047464
X0452828Y0051015
X0451280Y0054964
X0458732Y0044449
X0462832Y0042109
X0468434Y0040861
X0472434Y0040810
X0476985Y0041310
X0492914Y0042361
Y0045117
Y0047873
Y0050629
X0497690Y0048412
X0498102Y0044449
X0503023
X0500694Y0041810
X0505993Y0041511
X0511044Y0040960
X0516698Y0040861
X0522249Y0041763
X0527630Y0044449
X0535012Y0059213
X0535103Y0064318
X0535012Y0069055
X0532551Y0073977
X0527630
X0530090Y0078898
X0529528Y0082519
X0526772
Y0085275
X0529528
X0532551Y0083819
X0535012Y0088740
Y0098583
X0530090
X0525169
X0527630Y0103504
X0532551
X0532910Y0115775
X0536595
X0535012Y0118268
X0535993Y0121873
X0536851Y0125708
X0536891Y0129015
X0536733Y0135393
X0532796Y0136849
X0525709Y0136653
X0525828Y0140235
X0527099Y0146486
X0527048Y0150708
X0531536Y0149802
X0531458Y0152519
X0531733Y0157322
X0535434Y0157165
X0535017Y0164468
X0535012Y0167481
X0535040Y0170735
X0528032Y0180511
X0528072Y0183660
Y0188385
Y0197794
Y0202479
Y0207165
Y0211849
X0526434Y0162298
X0526070Y0159645
X0531773Y0143228
X0536812Y0143267
X0531753Y0122704
X0527646Y0120893
X0530090Y0118268
X0529178Y0115775
X0525446
X0525169Y0118268
Y0078898
X0535012
X0520248
X0515327
X0508269Y0078582
Y0075826
X0505513
Y0078582
X0517787Y0083819
X0522709
Y0103504
X0518186Y0106554
X0518072Y0115775
X0521757
X0514339
X0507036Y0106586
X0507945Y0103504
X0505280Y0101979
X0498662Y0104290
X0495906
X0493151
X0488678Y0106212
X0484800
X0481335Y0106168
X0477458Y0106251
X0476926Y0115661
X0474383
X0471721Y0115586
X0465473Y0115275
X0462351
X0459265
X0456143
X0456458Y0105964
X0458732Y0103504
X0453811
X0451178Y0106294
X0451095Y0100188
X0455513Y0099054
X0466114Y0098583
X0472135Y0098661
X0474777
X0470867Y0094723
X0470135Y0088275
X0465182Y0088172
X0458229
X0453811Y0073977
X0454489Y0071377
X0451339Y0072913
X0450430Y0065318
X0450528Y0060216
X0432650Y0059213
X0432741Y0064318
X0432650Y0069055
X0430189Y0073977
X0425268
X0427728Y0078898
X0427166Y0082519
X0424410
Y0085275
X0427166
X0430189Y0083819
X0432650Y0088740
Y0098583
X0427728
X0422807
X0425268Y0103504
X0430189
X0420346
X0415824Y0106554
X0415709Y0115775
X0419395
X0423084
X0422807Y0118268
X0427728
X0426816Y0115775
X0430548
X0434233
X0432650Y0118268
X0433631Y0121873
X0434489Y0125708
X0434528Y0129015
X0434371Y0135393
X0430434Y0136849
X0423347Y0136653
X0423465Y0140235
X0424737Y0146486
X0424686Y0150708
X0422442Y0153031
X0429095Y0152519
X0429174Y0149802
X0429410Y0143228
X0434450Y0143267
X0433072Y0157165
X0429371Y0157322
X0423707Y0159645
X0424072Y0162298
X0432654Y0164468
X0432650Y0167481
X0432678Y0170735
X0425670Y0180511
X0425709Y0183660
Y0188385
Y0197794
Y0202479
Y0207165
Y0211849
X0413072Y0211361
Y0209172
X0410119Y0202558
X0413410Y0199492
X0413387Y0197086
X0415355Y0195353
X0414568Y0191653
X0410504Y0192087
X0412964Y0187165
X0408043
X0403122
X0398201
X0393279
X0392481Y0189605
X0395198
X0397088Y0191417
X0396773Y0193975
X0395709Y0196220
X0397875Y0197283
X0399883Y0198739
X0401418Y0200786
X0401969Y0203385
X0401851Y0206023
X0400985Y0208542
X0399410Y0210511
X0397363Y0211849
X0392206Y0212401
X0389765Y0211495
X0387796Y0209920
X0386497Y0207834
X0385710Y0205432
Y0202952
X0386497Y0200786
X0387836Y0198857
X0386536Y0196810
X0383859
X0381182
X0378505
X0375828
X0373150
Y0199487
Y0202165
X0376055Y0201929
X0374253Y0206535
X0378584Y0211456
X0381103Y0210983
X0385897Y0211772
X0369606Y0212047
X0369804Y0189054
X0372481
X0375198
X0377875
X0380552Y0189015
X0383111Y0188976
X0385788Y0189251
X0388151Y0189920
X0388358Y0187165
X0390513Y0190983
X0390819Y0182244
X0395740
X0400661
X0403122Y0177323
X0408043
X0410504Y0182244
X0415442Y0172661
X0413997Y0168865
X0412114Y0166996
X0408809Y0161702
X0406340Y0162440
X0404594Y0160695
X0400749Y0160414
X0399883Y0149999
X0402363
X0404859Y0150040
X0407560Y0150826
X0408770Y0145354
X0409017Y0142322
X0408060Y0135637
X0407144Y0133047
X0407147Y0129779
X0404706Y0127409
X0403450Y0136109
X0411812Y0135668
X0415198Y0135590
X0418119Y0135983
X0410504Y0133032
X0414455Y0145348
X0415158Y0152440
X0417403Y0157598
X0395473Y0150710
X0392757
X0389580
X0387603Y0144625
X0385259Y0146592
X0382444Y0143777
X0379924Y0141257
X0379375Y0137539
X0379430Y0130594
X0385776Y0130287
X0388151Y0132479
X0387914Y0136574
X0392993Y0143621
X0371654Y0143149
X0370438Y0133786
X0370473Y0129763
X0370324Y0127539
Y0124491
Y0121409
X0369359Y0115586
X0372021Y0115661
X0374564
X0375095Y0106251
X0378973Y0106168
X0382438Y0106212
X0386316
X0390788Y0104290
X0393544
X0396300
X0402918Y0101979
X0405583Y0103504
X0404674Y0106586
X0411977Y0115775
X0420710Y0123857
X0425284Y0120893
X0429391Y0122704
X0454430Y0124999
X0452103Y0127428
X0456820Y0127531
X0454430Y0134999
X0464062Y0137041
X0472800Y0133786
X0472835Y0129763
X0472686Y0127539
Y0124491
Y0121409
X0466536Y0118936
X0463653Y0123189
X0464257Y0106625
X0485828Y0102204
X0484469Y0098385
X0479576Y0090066
X0490402Y0090176
X0493072Y0087519
X0490080Y0080944
X0487521Y0082834
X0483544
X0486851Y0078956
X0480828Y0078208
X0477245Y0078267
X0473308
X0482205Y0075629
X0486801Y0072036
X0491064Y0075078
X0490079Y0064054
X0488139Y0130287
X0490513Y0132479
X0490276Y0136574
X0489965Y0144625
X0487621Y0146592
X0484806Y0143777
X0482286Y0141257
X0481737Y0137539
X0481792Y0130594
X0474017Y0143149
X0495355Y0143621
X0495119Y0150710
X0497835
X0502245Y0149999
X0504725
X0507221Y0150040
X0509922Y0150826
X0511132Y0145354
X0511379Y0142322
X0510422Y0135637
X0509506Y0133047
X0509509Y0129779
X0507068Y0127409
X0505812Y0136109
X0514174Y0135668
X0517560Y0135590
X0520481Y0135983
X0512866Y0133032
X0516817Y0145348
X0517520Y0152440
X0519765Y0157598
X0524804Y0153031
X0511171Y0161702
X0508702Y0162440
X0506956Y0160695
X0503111Y0160414
X0503023Y0172402
X0505484Y0177323
X0510405
X0512866Y0182244
X0515327Y0187165
X0510405
X0505484
X0500563
X0495642
X0494843Y0189605
X0497560
X0499450Y0191417
X0499135Y0193975
X0498072Y0196220
X0500237Y0197283
X0502245Y0198739
X0503780Y0200786
X0504332Y0203385
X0504213Y0206023
X0503347Y0208542
X0501772Y0210511
X0499725Y0211849
X0494568Y0212401
X0492127Y0211495
X0490158Y0209920
X0488859Y0207834
X0488072Y0205432
Y0202952
X0488859Y0200786
X0490198Y0198857
X0488899Y0196810
X0486221
X0483544
X0480867
X0478190
X0475513
Y0199487
Y0202165
X0478417Y0201929
X0476615Y0206535
X0480946Y0211456
X0483465Y0210983
X0488260Y0211772
X0471968Y0212047
X0469232Y0212028
X0465473Y0206653
X0460709Y0203582
X0460631Y0200826
X0458780Y0197519
X0466654Y0197715
X0469843Y0194960
Y0192676
X0469883Y0190078
X0472166Y0189054
X0474843
X0477560
X0480237
X0482914Y0189015
X0485473Y0188976
X0488151Y0189251
X0490513Y0189920
X0490720Y0187165
X0492875Y0190983
X0493181Y0182244
X0498102
X0503023
Y0192087
X0505484Y0197008
X0515749Y0197086
X0515772Y0199492
X0517717Y0195353
X0516930Y0191653
X0512866Y0192087
X0512481Y0202558
X0515434Y0209172
Y0211361
X0517804Y0172661
X0516359Y0168865
X0514476Y0166996
X0495642Y0167481
X0490720
X0485799
X0488260Y0172402
X0493181
X0495642Y0177323
X0490720
X0485799
X0480878
X0475957
X0471035
X0466114
X0468575Y0182244
X0473496
X0478417
X0483338
X0488260
X0463653
X0466114Y0187165
X0458741Y0187225
X0463653Y0172402
X0450450Y0146542
X0491942Y0150710
X0523072Y0123857
X0432650Y0078898
X0422807
X0417886
X0412964
X0405906Y0078582
Y0075826
X0403151
Y0078582
X0415425Y0083819
X0420346
X0390709Y0087519
X0388040Y0090176
X0387717Y0080944
X0385158Y0082834
X0381182
X0384489Y0078956
X0378466Y0078208
X0374883Y0078267
X0370946
X0379843Y0075629
X0384439Y0072036
X0388702Y0075078
X0387717Y0064054
X0377214Y0090066
X0382107Y0098385
X0383465Y0102204
X0372414Y0098661
X0369773
X0383437Y0167481
X0388358
X0393279
X0390819Y0172402
X0385897
X0388358Y0177323
X0393279
X0383437
X0378516
X0373594
X0376055Y0182244
X0380976
X0385897
X0371134
X0400661Y0192087
X0403122Y0197008
X0400661Y0172402
X0368673Y0177323
X0363752
X0366213Y0182244
X0361291
X0363752Y0187165
X0367521Y0190078
X0367481Y0192676
Y0194960
X0364292Y0197715
X0356418Y0197519
X0358269Y0200826
X0358347Y0203582
X0363111Y0206653
X0366870Y0212028
X0356379Y0187225
X0361291Y0172402
X0330316Y0170735
X0330287Y0167481
X0330292Y0164468
X0330710Y0157165
X0327009Y0157322
X0326733Y0152519
X0326812Y0149802
X0322324Y0150708
X0322375Y0146486
X0321103Y0140235
X0320985Y0136653
X0315757Y0135983
X0312836Y0135590
X0309450Y0135668
X0305698Y0135637
X0304782Y0133047
X0304784Y0129779
X0302343Y0127409
X0301087Y0136109
X0308142Y0133032
X0306654Y0142322
X0306407Y0145354
X0312092Y0145348
X0312796Y0152440
X0315040Y0157598
X0321345Y0159645
X0321709Y0162298
X0320080Y0153031
X0327048Y0143228
X0332087Y0143267
X0332009Y0135393
X0328072Y0136849
X0332166Y0129015
X0332127Y0125708
X0331269Y0121873
X0330287Y0118268
X0331871Y0115775
X0328186
X0324454
X0325366Y0118268
X0320445
X0320721Y0115775
X0317032
X0313347
X0309615
X0313461Y0106554
X0317984Y0103504
X0322905
X0327827
X0330287Y0098583
X0325366
X0320445
X0322048Y0085275
Y0082519
X0324804
Y0085275
X0327827Y0083819
X0330287Y0088740
Y0078898
X0325366
X0320445
X0315524
X0310602
X0303544Y0078582
Y0075826
X0300788
Y0078582
X0313063Y0083819
X0317984
X0322905Y0073977
X0327827
X0330287Y0069055
X0330379Y0064318
X0330287Y0059213
X0348166Y0060216
X0348068Y0065318
X0348977Y0072913
X0351449Y0073977
X0352127Y0071377
X0355867Y0088172
X0362820
X0367773Y0088275
X0368505Y0094723
X0363752Y0098583
X0361895Y0106625
X0354095Y0105964
X0356370Y0103504
X0351449
X0348816Y0106294
X0348733Y0100188
X0353151Y0099054
X0353780Y0115275
X0356902
X0359989
X0363111
X0364174Y0118936
X0361291Y0123189
X0352068Y0124999
X0349741Y0127428
X0354458Y0127531
X0352068Y0134999
X0361700Y0137041
X0348088Y0146542
X0327028Y0122704
X0322922Y0120893
X0318347Y0123857
X0302312Y0106586
X0303220Y0103504
X0300556Y0101979
X0293938Y0104290
X0291182
X0288426
X0283954Y0106212
X0280076
X0276611Y0106168
X0272733Y0106251
X0272202Y0115661
X0269658
X0266997Y0115586
X0260749Y0115275
X0257627
X0254540
X0251418
X0251733Y0105964
X0254008Y0103504
X0249086
X0246454Y0106294
X0246371Y0100188
X0250788Y0099054
X0261390Y0098583
X0267410Y0098661
X0270052
X0266143Y0094723
X0265410Y0088275
X0260458Y0088172
X0253505
X0249086Y0073977
X0249765Y0071377
X0246615Y0072913
X0245706Y0065318
X0245804Y0060216
X0227925Y0059213
X0228017Y0064318
X0227925Y0069055
X0225465Y0073977
X0220543
X0223004Y0078898
X0222442Y0082519
X0219686
Y0085275
X0222442
X0225465Y0083819
X0227925Y0088740
Y0098583
X0223004
X0218083
X0220543Y0103504
X0225465
X0215622
X0214670Y0115775
X0218359
X0218083Y0118268
X0223004
X0222092Y0115775
X0225824
X0229509
X0227925Y0118268
X0228906Y0121873
X0229765Y0125708
X0229804Y0129015
X0229647Y0135393
X0225710Y0136849
X0218623Y0136653
X0218741Y0140235
X0220013Y0146486
X0219962Y0150708
X0217717Y0153031
X0224371Y0152519
X0224450Y0149802
X0224686Y0143228
X0229725Y0143267
X0228347Y0157165
X0224647Y0157322
X0218983Y0159645
X0219347Y0162298
X0227930Y0164468
X0227925Y0167481
X0227954Y0170735
X0220946Y0180511
X0220985Y0183660
Y0188385
Y0197794
Y0202479
Y0207165
Y0211849
X0255985Y0203582
X0255906Y0200826
X0254056Y0197519
X0261930Y0197715
X0265119Y0194960
Y0192676
X0265158Y0190078
X0267442Y0189054
X0270119
X0272835
X0275513
X0278190Y0189015
X0280749Y0188976
X0283426Y0189251
X0285788Y0189920
X0285996Y0187165
X0290917
X0290119Y0189605
X0292835
X0294725Y0191417
X0294410Y0193975
X0293347Y0196220
X0295513Y0197283
X0297521Y0198739
X0299056Y0200786
X0299607Y0203385
X0299489Y0206023
X0298623Y0208542
X0297048Y0210511
X0295001Y0211849
X0289843Y0212401
X0287403Y0211495
X0285434Y0209920
X0284135Y0207834
X0283347Y0205432
Y0202952
X0284135Y0200786
X0285473Y0198857
X0284174Y0196810
X0281497
X0278820
X0276143
X0273465
X0270788
Y0199487
Y0202165
X0273693Y0201929
X0271891Y0206535
X0276221Y0211456
X0278741Y0210983
X0283535Y0211772
X0267244Y0212047
X0264508Y0212028
X0260749Y0206653
X0261390Y0187165
X0263850Y0182244
X0268772
X0273693
X0278614
X0283535
X0288457
X0293378
X0298299
X0300760Y0187165
X0305681
X0310602
X0312206Y0191653
X0312993Y0195353
X0311024Y0197086
X0311047Y0199492
X0307757Y0202558
X0310710Y0209172
Y0211361
X0323347Y0211849
Y0207165
Y0202479
Y0197794
Y0188385
Y0183660
X0323308Y0180511
X0308142Y0182244
X0305681Y0177323
X0300760
X0298299Y0172402
X0288457
X0283535
X0285996Y0177323
X0290917
Y0167481
X0285996
X0281075
Y0177323
X0276153
X0271232
X0266311
X0261390
X0258929Y0182244
Y0172402
X0254017Y0187225
X0288151Y0190983
X0298299Y0192087
X0300760Y0197008
X0308142Y0192087
X0295838Y0187165
X0298387Y0160414
X0302232Y0160695
X0303977Y0162440
X0306447Y0161702
X0309752Y0166996
X0311635Y0168865
X0313080Y0172661
X0305198Y0150826
X0302497Y0150040
X0300001Y0149999
X0297520
X0293111Y0150710
X0290395
X0287217
X0285241Y0144625
X0282897Y0146592
X0280082Y0143777
X0277562Y0141257
X0277013Y0137539
X0277068Y0130594
X0283414Y0130287
X0285788Y0132479
X0285552Y0136574
X0290631Y0143621
X0269292Y0143149
X0268076Y0133786
X0268111Y0129763
X0267962Y0127539
Y0124491
Y0121409
X0261812Y0118936
X0258929Y0123189
X0249706Y0124999
X0247379Y0127428
X0252095Y0127531
X0249706Y0134999
X0259337Y0137041
X0245725Y0146542
X0213395Y0135983
X0215985Y0123857
X0220560Y0120893
X0224666Y0122704
X0212678Y0157598
X0215622Y0083819
X0218083Y0078898
X0213161
X0227925
X0268584Y0078267
X0272521
X0276103Y0078208
X0277481Y0075629
X0282127Y0078956
X0282796Y0082834
X0278820
X0285355Y0080944
X0286339Y0075078
X0282077Y0072036
X0285355Y0064054
X0285678Y0090176
X0288347Y0087519
X0274851Y0090066
X0279745Y0098385
X0281103Y0102204
X0259532Y0106625
X0211099Y0106554
X0210985Y0115775
X0207253
X0199950Y0106586
X0200858Y0103504
X0198194Y0101979
X0191576Y0104290
X0188820
X0186064
X0181591Y0106212
X0177714
X0174249Y0106168
X0170371Y0106251
X0169840Y0115661
X0167296
X0164635Y0115586
X0158387Y0115275
X0155265
X0152178
X0149056
X0149371Y0105964
X0151646Y0103504
X0146724
X0144091Y0106294
X0144009Y0100188
X0148426Y0099054
X0159028Y0098583
X0165048Y0098661
X0167690
X0163780Y0094723
X0163048Y0088275
X0158095Y0088172
X0151143
X0146724Y0073977
X0147403Y0071377
X0144253Y0072913
X0143343Y0065318
X0143442Y0060216
X0125563Y0059213
X0125654Y0064318
X0125563Y0069055
X0123102Y0073977
X0118181
X0120642Y0078898
X0120080Y0082519
X0117324
Y0085275
X0120080
X0123102Y0083819
X0125563Y0088740
Y0098583
X0120642
X0115720
X0118181Y0103504
X0123102
X0113260
X0108737Y0106554
X0108623Y0115775
X0112308
X0115997
X0115720Y0118268
X0120642
X0119729Y0115775
X0123462
X0127147
X0125563Y0118268
X0126544Y0121873
X0127402Y0125708
X0127442Y0129015
X0127284Y0135393
X0123347Y0136849
X0116261Y0136653
X0116379Y0140235
X0117650Y0146486
X0117599Y0150708
X0115355Y0153031
X0122009Y0152519
X0122088Y0149802
X0122324Y0143228
X0127363Y0143267
X0125985Y0157165
X0122284Y0157322
X0116621Y0159645
X0116985Y0162298
X0125568Y0164468
X0125563Y0167481
X0125592Y0170735
X0118584Y0180511
X0118623Y0183660
Y0188385
Y0197794
Y0202479
Y0207165
Y0211849
X0105985Y0211361
Y0209172
X0103032Y0202558
X0106323Y0199492
X0106300Y0197086
X0108269Y0195353
X0107481Y0191653
X0103417Y0192087
X0105878Y0187165
X0100957
X0096035
X0091114
X0086193
X0085395Y0189605
X0088111
X0090001Y0191417
X0089686Y0193975
X0088623Y0196220
X0090788Y0197283
X0092796Y0198739
X0094332Y0200786
X0094883Y0203385
X0094765Y0206023
X0093899Y0208542
X0092324Y0210511
X0090276Y0211849
X0085119Y0212401
X0082678Y0211495
X0080710Y0209920
X0079410Y0207834
X0078623Y0205432
Y0202952
X0079410Y0200786
X0080749Y0198857
X0079450Y0196810
X0076773
X0074095
X0071418
X0068741
X0066064
Y0199487
Y0202165
X0068968Y0201929
X0067166Y0206535
X0071497Y0211456
X0074017Y0210983
X0078811Y0211772
X0062520Y0212047
X0059784Y0212028
X0057206Y0197715
X0060395Y0194960
Y0192676
X0060434Y0190078
X0062717Y0189054
X0065395
X0068111
X0070788
X0073466Y0189015
X0076025Y0188976
X0078702Y0189251
X0081064Y0189920
X0081272Y0187165
X0083426Y0190983
X0083732Y0182244
X0088653
X0093575
X0096035Y0177323
X0100957
X0103417Y0182244
X0108355Y0172661
X0106910Y0168865
X0105027Y0166996
X0101723Y0161702
X0099253Y0162440
X0097507Y0160695
X0093662Y0160414
X0092796Y0149999
X0095276
X0097773Y0150040
X0100473Y0150826
X0101683Y0145354
X0101930Y0142322
X0100973Y0135637
X0100057Y0133047
X0100060Y0129779
X0097619Y0127409
X0096363Y0136109
X0104725Y0135668
X0108111Y0135590
X0111032Y0135983
X0103417Y0133032
X0107368Y0145348
X0108072Y0152440
X0110316Y0157598
X0088387Y0150710
X0085670
X0082493
X0080517Y0144625
X0078172Y0146592
X0075357Y0143777
X0072838Y0141257
X0072288Y0137539
X0072343Y0130594
X0078690Y0130287
X0081064Y0132479
X0080828Y0136574
X0085906Y0143621
X0064568Y0143149
X0063351Y0133786
X0063387Y0129763
X0063237Y0127539
Y0124491
Y0121409
X0062273Y0115586
X0064934Y0115661
X0067477
X0068009Y0106251
X0071887Y0106168
X0075351Y0106212
X0079229
X0083702Y0104290
X0086458
X0089214
X0095832Y0101979
X0098496Y0103504
X0097588Y0106586
X0104891Y0115775
X0113623Y0123857
X0118198Y0120893
X0122304Y0122704
X0147343Y0124999
X0145017Y0127428
X0149733Y0127531
X0147343Y0134999
X0156975Y0137041
X0165714Y0133786
X0165749Y0129763
X0165599Y0127539
Y0124491
Y0121409
X0159450Y0118936
X0156567Y0123189
X0157170Y0106625
X0178741Y0102204
X0177383Y0098385
X0172489Y0090066
X0183316Y0090176
X0185985Y0087519
X0182993Y0080944
X0180434Y0082834
X0176458
X0179765Y0078956
X0173741Y0078208
X0170158Y0078267
X0166221
X0175119Y0075629
X0179715Y0072036
X0183977Y0075078
X0182993Y0064054
X0198426Y0075826
X0201182
Y0078582
X0198426
X0208240Y0078898
X0210701Y0083819
X0210473Y0135590
X0207087Y0135668
X0203335Y0135637
X0202419Y0133047
X0202422Y0129779
X0199981Y0127409
X0198725Y0136109
X0205779Y0133032
X0204292Y0142322
X0204045Y0145354
X0209730Y0145348
X0210434Y0152440
X0202835Y0150826
X0200135Y0150040
X0197639Y0149999
X0195158
X0190749Y0150710
X0188032
X0184855
X0182879Y0144625
X0180534Y0146592
X0177719Y0143777
X0175200Y0141257
X0174651Y0137539
X0174706Y0130594
X0181052Y0130287
X0183426Y0132479
X0183190Y0136574
X0188269Y0143621
X0166930Y0143149
X0143363Y0146542
X0156567Y0172402
X0159028Y0177323
X0163949
X0168870
X0173791
X0178712
X0183634
X0188555
X0191016Y0182244
X0195937
X0198398Y0187165
X0203319
X0208240
X0209843Y0191653
X0210631Y0195353
X0208662Y0197086
X0208685Y0199492
X0205395Y0202558
X0197245Y0203385
X0197127Y0206023
X0196261Y0208542
X0194686Y0210511
X0192639Y0211849
X0187481Y0212401
X0185040Y0211495
X0183072Y0209920
X0181773Y0207834
X0180985Y0205432
Y0202952
X0181773Y0200786
X0183111Y0198857
X0181812Y0196810
X0179135
X0176458
X0173780
X0171103
X0168426
Y0199487
Y0202165
X0171331Y0201929
X0169528Y0206535
X0173859Y0211456
X0176379Y0210983
X0181173Y0211772
X0164882Y0212047
X0162146Y0212028
X0158387Y0206653
X0153623Y0203582
X0153544Y0200826
X0151694Y0197519
X0159568Y0197715
X0162757Y0194960
Y0192676
X0162796Y0190078
X0165080Y0189054
X0167757
X0170473
X0173151
X0175828Y0189015
X0178387Y0188976
X0181064Y0189251
X0183426Y0189920
X0183634Y0187165
X0188555
X0187757Y0189605
X0190473
X0192363Y0191417
X0192048Y0193975
X0190985Y0196220
X0193150Y0197283
X0195158Y0198739
X0196694Y0200786
X0198398Y0197008
X0195937Y0192087
X0193476Y0187165
X0185788Y0190983
X0186094Y0182244
X0181173
X0176252
X0171331
X0166409
X0161488
X0156567
X0159028Y0187165
X0151654Y0187225
X0181173Y0172402
X0186094
X0188555Y0167481
X0183634
X0178712
X0195937Y0172402
X0198398Y0177323
X0203319
X0205779Y0182244
Y0192087
X0208347Y0209172
Y0211361
X0210717Y0172661
X0209273Y0168865
X0207389Y0166996
X0204085Y0161702
X0201615Y0162440
X0199870Y0160695
X0196025Y0160414
X0093575Y0172402
X0083732
X0078811
X0081272Y0177323
X0086193
Y0167481
X0081272
X0076350
Y0177323
X0071429
X0066508
X0061586
X0056665
X0059126Y0182244
X0064047
X0068968
X0073890
X0078811
X0093575Y0192087
X0096035Y0197008
X0056665Y0187165
X0057087Y0118936
X0056665Y0098583
X0062686Y0098661
X0065328
X0061418Y0094723
X0060686Y0088275
X0070127Y0090066
X0080954Y0090176
X0083623Y0087519
X0080631Y0080944
X0078072Y0082834
X0074095
X0077403Y0078956
X0071379Y0078208
X0067796Y0078267
X0063859
X0072757Y0075629
X0077352Y0072036
X0081615Y0075078
X0080631Y0064054
X0096064Y0075826
X0098820
Y0078582
X0096064
X0105878Y0078898
X0110799
X0115720
X0113260Y0083819
X0108338
X0125563Y0078898
X0075021Y0098385
X0076379Y0102204
X0054808Y0106625
X0047009Y0105964
X0049283Y0103504
X0044362
X0041729Y0106294
X0041647Y0100188
X0046064Y0099054
X0048781Y0088172
X0055733
X0044362Y0073977
X0045040Y0071377
X0041891Y0072913
X0040981Y0065318
X0041080Y0060216
X0046694Y0115275
X0049816
X0052903
X0056024
X0054205Y0123189
X0044981Y0124999
X0042654Y0127428
X0047371Y0127531
X0044981Y0134999
X0054613Y0137041
X0041001Y0146542
X0054205Y0172402
Y0182244
X0049292Y0187225
X0049332Y0197519
X0051182Y0200826
X0051261Y0203582
X0056024Y0206653
Y0217873
X0052560Y0222873
X0051497Y0226771
X0050050Y0232903
X0044859Y0237495
X0044343Y0246566
X0044362Y0251142
X0049283
X0054205
X0052479Y0248486
X0050945Y0244842
X0055985Y0243936
X0051744Y0256063
X0046823
X0044362Y0260984
X0049529Y0267716
X0053308Y0268897
X0054843Y0274133
X0051064Y0275314
X0047284Y0274881
X0043714Y0277007
X0044362Y0280669
X0044481Y0283964
X0044454Y0287578
X0044362Y0290512
X0044371Y0293499
X0044362Y0300355
X0049283
X0054205
X0054332Y0290156
X0051395Y0289460
X0049902Y0213901
X0046823Y0216693
X0059506Y0224231
X0063780Y0228504
X0066300Y0229093
X0071379Y0227833
X0073544Y0225629
X0071615Y0215629
X0067284Y0217873
X0064746Y0234584
X0062519Y0236811
X0059784Y0235846
X0056658Y0240086
X0063662Y0246968
X0063925Y0250757
X0066143Y0245039
X0072698Y0242956
X0073383Y0248420
X0076350Y0246221
X0081272
X0082142Y0252259
X0075485Y0252129
X0072328Y0255145
X0081024Y0264487
X0082560Y0266455
X0084568Y0271101
X0085607Y0281109
X0088068Y0282129
X0090182Y0283916
X0092332Y0286050
X0095473Y0283188
X0097061Y0287369
X0095098Y0290726
X0095591Y0293290
X0095836Y0298735
X0095997Y0302373
X0098496Y0300355
X0103417
X0105878Y0305276
X0108338Y0310197
X0113260
X0118181
X0118662Y0306613
X0115497Y0302145
X0116115Y0298987
X0115720Y0295433
X0113233Y0297523
X0113260Y0300355
X0110799Y0295433
X0108044Y0295125
X0107560Y0288857
X0110591Y0288976
X0108072Y0282499
X0109410Y0278896
X0109292Y0276290
X0109332Y0272715
X0104253Y0269132
X0101812Y0276023
X0102094Y0280060
X0097598Y0276653
X0097639Y0271889
X0095158Y0262755
X0097127Y0260747
X0099062Y0258878
X0096062Y0252259
X0089102Y0259218
X0089102Y0245299
X0085584Y0241747
X0082177Y0238304
X0077560Y0233699
X0091367Y0232042
X0091114Y0236378
X0096035
X0099155Y0237574
X0103417Y0241299
X0103300Y0244964
X0107332Y0245440
X0113741Y0248779
X0117521Y0249960
X0110552Y0258227
X0109296Y0261259
X0118328Y0264405
X0118308Y0267519
X0118387Y0271653
X0118493Y0275515
X0118308Y0279527
X0118418Y0283416
X0118820Y0287755
X0118832Y0291448
X0121417Y0297244
X0123102Y0310197
X0122048Y0316771
X0125985
X0118111
X0114174
X0110237
X0106300
X0102363
X0099213
X0090867Y0317164
X0088111Y0317204
X0080710Y0317361
X0079292Y0319881
X0078741Y0322676
Y0326613
Y0330550
Y0334487
Y0338424
Y0342361
X0078723Y0346298
X0078741Y0350235
Y0354172
Y0358109
X0071429Y0354488
X0066508
X0068968Y0349567
X0073890
X0076350Y0344646
X0071429
X0066508
X0073890Y0339725
X0071429Y0334803
X0073890Y0329882
X0076350Y0324961
X0073890Y0320040
X0076615Y0306456
X0078717Y0303594
X0077363Y0301298
X0078517Y0298802
X0073890Y0300355
X0068938Y0300353
X0064047Y0300355
X0059126
X0061064Y0289526
X0059017Y0287283
X0059449Y0282913
X0063229Y0283266
X0065111Y0278310
X0058690Y0277255
X0058745Y0274853
X0058587Y0262590
X0065757Y0268724
X0068084Y0271094
X0070084Y0283763
X0072808Y0285558
X0075477Y0287074
X0074052Y0292121
X0082269Y0288401
X0084839Y0290594
X0085068Y0293066
X0087584Y0292975
X0087973Y0298621
X0085158Y0298598
X0085273Y0302050
X0088131Y0302692
X0103417Y0310197
X0146724Y0300355
X0151646
X0156567
X0161488
X0166409
X0171300Y0300353
X0176252Y0300355
X0179725Y0301298
X0180879Y0298802
X0181080Y0303594
X0178977Y0306456
X0187635Y0302050
X0190493Y0302692
X0190336Y0298621
X0187521Y0298598
X0187430Y0293066
X0189946Y0292975
X0187202Y0290594
X0184631Y0288401
X0177840Y0287074
X0175170Y0285558
X0172446Y0283763
X0165591Y0283266
X0161811Y0282913
X0161379Y0287283
X0163426Y0289526
X0156694Y0290156
X0153758Y0289460
X0146724Y0290512
X0146733Y0293499
X0146816Y0287578
X0146843Y0283964
X0146724Y0280669
X0146076Y0277007
X0149647Y0274881
X0153426Y0275314
X0157206Y0274133
X0161107Y0274853
X0161052Y0277255
X0167473Y0278310
X0170446Y0271094
X0168119Y0268724
X0155670Y0268897
X0151891Y0267716
X0146724Y0260984
X0149185Y0256063
X0154106
X0156567Y0251142
X0154841Y0248486
X0153307Y0244842
X0158347Y0243936
X0159021Y0240086
X0162146Y0235846
X0164881Y0236811
X0167108Y0234584
X0168662Y0229093
X0166143Y0228504
X0173741Y0227833
X0175906Y0225629
X0173977Y0215629
X0169647Y0217873
X0158387
X0154922Y0222873
X0153859Y0226771
X0152412Y0232903
X0147221Y0237495
X0146706Y0246566
X0146724Y0251142
X0151646
X0166287Y0250757
X0166024Y0246968
X0168505Y0245039
X0175060Y0242956
X0175745Y0248420
X0178712Y0246221
X0183634
X0184504Y0252259
X0177847Y0252129
X0174690Y0255145
X0183387Y0264487
X0184922Y0266455
X0186930Y0271101
X0187969Y0281109
X0190430Y0282129
X0192544Y0283916
X0194694Y0286050
X0197835Y0283188
X0199423Y0287369
X0197460Y0290726
X0197954Y0293290
X0198198Y0298735
X0198359Y0302373
X0200858Y0300355
X0205779
X0208240Y0305276
X0210701Y0310197
X0205779
X0204725Y0316771
X0201576
X0208662
X0193229Y0317164
X0190473Y0317204
X0183072Y0317361
X0181654Y0319881
X0181103Y0322676
Y0326613
Y0330550
Y0334487
Y0338424
Y0342361
X0181085Y0346298
X0181103Y0350235
Y0354172
Y0358109
X0173791Y0354488
X0168870
X0171331Y0349567
X0176252
X0178712Y0344646
X0173791
X0168870
X0176252Y0339725
X0173791Y0334803
X0176252Y0329882
X0178712Y0324961
X0176252Y0320040
X0176414Y0292121
X0179235Y0277600
X0199960Y0276653
X0200001Y0271889
X0204174Y0276023
X0204456Y0280060
X0210434Y0282499
X0211772Y0278896
X0211654Y0276290
X0211694Y0272715
X0206615Y0269132
X0211658Y0261259
X0201424Y0258878
X0199489Y0260747
X0197520Y0262755
X0191464Y0259218
X0198424Y0252259
X0191464Y0245299
X0187946Y0241747
X0184539Y0238304
X0179922Y0233699
X0193729Y0232042
X0193476Y0236378
X0198398
X0201517Y0237574
X0205779Y0241299
X0205662Y0244964
X0209694Y0245440
X0209406Y0221534
X0208001Y0219401
X0205276Y0219054
X0200190Y0220605
X0201615Y0222680
X0198268Y0218778
X0196182Y0216810
X0190198Y0212519
X0191891Y0226731
X0191359Y0229334
X0161869Y0224231
X0152265Y0213901
X0149185Y0216693
X0118623Y0215078
X0118702Y0223778
X0112592Y0221110
X0107044Y0221534
X0105639Y0219401
X0102914Y0219054
X0097828Y0220605
X0099253Y0222680
X0095906Y0218778
X0093820Y0216810
X0087836Y0212519
X0089529Y0226731
X0088997Y0229334
X0112639Y0229445
X0112748Y0237215
X0160950Y0262590
X0209922Y0288857
X0210406Y0295125
X0076872Y0277600
X0220670Y0279527
X0220780Y0283416
X0221182Y0287755
X0221194Y0291448
X0218083Y0295433
X0218477Y0298987
X0217859Y0302145
X0215622Y0300355
X0215595Y0297523
X0213161Y0295433
X0212954Y0288976
X0223780Y0297244
X0221024Y0306613
X0220543Y0310197
X0225465
X0224410Y0316771
X0228347
X0220473
X0216536
X0212599
X0215622Y0310197
X0220855Y0275515
X0220749Y0271653
X0220670Y0267519
X0220690Y0264405
X0212914Y0258227
X0216103Y0248779
X0219883Y0249960
X0215110Y0237215
X0215001Y0229445
X0214954Y0221110
X0221064Y0223778
X0220985Y0215078
X0251547Y0216693
X0254627Y0213901
X0260749Y0217873
X0257284Y0222873
X0256221Y0226771
X0254774Y0232903
X0249584Y0237495
X0249068Y0246566
X0249086Y0251142
X0254008
X0258929
X0257204Y0248486
X0255669Y0244842
X0260710Y0243936
X0261383Y0240086
X0264508Y0235846
X0267243Y0236811
X0269470Y0234584
X0271024Y0229093
X0268505Y0228504
X0276103Y0227833
X0278269Y0225629
X0276340Y0215629
X0272009Y0217873
X0264231Y0224231
X0268387Y0246968
X0268649Y0250757
X0270867Y0245039
X0277422Y0242956
X0278107Y0248420
X0281075Y0246221
X0285996
X0286867Y0252259
X0280209Y0252129
X0277052Y0255145
X0285749Y0264487
X0287284Y0266455
X0289292Y0271101
X0290332Y0281109
X0292792Y0282129
X0294906Y0283916
X0297056Y0286050
X0300198Y0283188
X0301785Y0287369
X0299823Y0290726
X0300316Y0293290
X0300560Y0298735
X0300721Y0302373
X0303220Y0300355
X0308142
X0310602Y0305276
X0313063Y0310197
X0317984
X0322905
X0323387Y0306613
X0320221Y0302145
X0320840Y0298987
X0320445Y0295433
X0317958Y0297523
X0317984Y0300355
X0315524Y0295433
X0312769Y0295125
X0312284Y0288857
X0315316Y0288976
X0312796Y0282499
X0314135Y0278896
X0314017Y0276290
X0314056Y0272715
X0308977Y0269132
X0306536Y0276023
X0306818Y0280060
X0302323Y0276653
X0302363Y0271889
X0299883Y0262755
X0301851Y0260747
X0303786Y0258878
X0300786Y0252259
X0293826Y0259218
X0293826Y0245299
X0290308Y0241747
X0286901Y0238304
X0282284Y0233699
X0296091Y0232042
X0295838Y0236378
X0300760
X0303879Y0237574
X0308142Y0241299
X0308025Y0244964
X0312056Y0245440
X0318465Y0248779
X0322245Y0249960
X0315277Y0258227
X0314020Y0261259
X0323052Y0264405
X0323032Y0267519
X0323111Y0271653
X0323217Y0275515
X0323032Y0279527
X0323143Y0283416
X0323544Y0287755
X0323556Y0291448
X0326142Y0297244
X0327827Y0310197
X0326773Y0316771
X0330710
X0322835
X0318899
X0314962
X0311024
X0307087
X0303938
X0295591Y0317164
X0292835Y0317204
X0285434Y0317361
X0284017Y0319881
X0283466Y0322676
Y0326613
Y0330550
Y0334487
Y0338424
Y0342361
X0283448Y0346298
X0283466Y0350235
Y0354172
Y0358109
X0276153Y0354488
X0271232
X0273693Y0349567
X0278614
X0281075Y0344646
X0276153
X0271232
X0278614Y0339725
X0276153Y0334803
X0278614Y0329882
X0281075Y0324961
X0278614Y0320040
X0281340Y0306456
X0283442Y0303594
X0282087Y0301298
X0283241Y0298802
X0278614Y0300355
X0273662Y0300353
X0268772Y0300355
X0263850
X0258929
X0254008
X0249086
X0249095Y0293499
X0249086Y0290512
X0249178Y0287578
X0249206Y0283964
X0249086Y0280669
X0248438Y0277007
X0252009Y0274881
X0255788Y0275314
X0259568Y0274133
X0263469Y0274853
X0263414Y0277255
X0264174Y0282913
X0267954Y0283266
X0269835Y0278310
X0272808Y0271094
X0270481Y0268724
X0258032Y0268897
X0254253Y0267716
X0249086Y0260984
X0251547Y0256063
X0256468
X0263312Y0262590
X0263741Y0287283
X0265788Y0289526
X0259056Y0290156
X0256120Y0289460
X0274808Y0283763
X0277532Y0285558
X0280202Y0287074
X0278777Y0292121
X0286993Y0288401
X0289564Y0290594
X0289792Y0293066
X0292308Y0292975
X0292698Y0298621
X0289883Y0298598
X0289997Y0302050
X0292855Y0302692
X0308142Y0310197
X0351449Y0300355
X0356370
X0361291
X0366213
X0368150Y0289526
X0366103Y0287283
X0366536Y0282913
X0365776Y0277255
X0365832Y0274853
X0361930Y0274133
X0358151Y0275314
X0354371Y0274881
X0350800Y0277007
X0351449Y0280669
X0351568Y0283964
X0351540Y0287578
X0351449Y0290512
X0351458Y0293499
X0358482Y0289460
X0361418Y0290156
X0360395Y0268897
X0356615Y0267716
X0351449Y0260984
X0353909Y0256063
X0358831
X0361291Y0251142
X0359566Y0248486
X0358031Y0244842
X0363072Y0243936
X0363745Y0240086
X0366870Y0235846
X0366593Y0224231
X0359647Y0222873
X0358584Y0226771
X0357136Y0232903
X0351946Y0237495
X0351430Y0246566
X0351449Y0251142
X0356370
X0365674Y0262590
X0363111Y0217873
X0356989Y0213901
X0353909Y0216693
X0323347Y0215078
X0323426Y0223778
X0317316Y0221110
X0311769Y0221534
X0310363Y0219401
X0307639Y0219054
X0302552Y0220605
X0303977Y0222680
X0300631Y0218778
X0298544Y0216810
X0292560Y0212519
X0294253Y0226731
X0293721Y0229334
X0317363Y0229445
X0317473Y0237215
X0281597Y0277600
X0372198Y0278310
X0370316Y0283266
X0377170Y0283763
X0379895Y0285558
X0382564Y0287074
X0381139Y0292121
X0380976Y0300355
X0384450Y0301298
X0385603Y0298802
X0385804Y0303594
X0383702Y0306456
X0392359Y0302050
X0395217Y0302692
X0395060Y0298621
X0392245Y0298598
X0392154Y0293066
X0394670Y0292975
X0391926Y0290594
X0389355Y0288401
X0392694Y0281109
X0395154Y0282129
X0397269Y0283916
X0399418Y0286050
X0402560Y0283188
X0404147Y0287369
X0402185Y0290726
X0402678Y0293290
X0402922Y0298735
X0403084Y0302373
X0405583Y0300355
X0410504
X0412964Y0305276
X0415425Y0310197
X0420346
X0425268
X0425749Y0306613
X0422584Y0302145
X0423202Y0298987
X0422807Y0295433
X0420320Y0297523
X0420346Y0300355
X0417886Y0295433
X0415131Y0295125
X0414647Y0288857
X0417678Y0288976
X0415158Y0282499
X0416497Y0278896
X0416379Y0276290
X0416418Y0272715
X0411339Y0269132
X0408898Y0276023
X0409180Y0280060
X0404685Y0276653
X0404725Y0271889
X0402245Y0262755
X0404213Y0260747
X0406149Y0258878
X0403148Y0252259
X0396188Y0259218
X0388111Y0264487
X0389647Y0266455
X0391654Y0271101
X0383959Y0277600
X0375170Y0271094
X0372843Y0268724
X0371011Y0250757
X0370749Y0246968
X0373229Y0245039
X0379784Y0242956
X0380469Y0248420
X0383437Y0246221
X0388358
X0389229Y0252259
X0382572Y0252129
X0379414Y0255145
X0396188Y0245299
X0392670Y0241747
X0389264Y0238304
X0384647Y0233699
X0378465Y0227833
X0380631Y0225629
X0373387Y0229093
X0370867Y0228504
X0371832Y0234584
X0369605Y0236811
X0374371Y0217873
X0378702Y0215629
X0394922Y0212519
X0400906Y0216810
X0402993Y0218778
X0404914Y0220605
X0406340Y0222680
X0410001Y0219054
X0412725Y0219401
X0414131Y0221534
X0419678Y0221110
X0419725Y0229445
X0419835Y0237215
X0420828Y0248779
X0424607Y0249960
X0414418Y0245440
X0410387Y0244964
X0410504Y0241299
X0406241Y0237574
X0403122Y0236378
X0398201
X0398454Y0232042
X0396084Y0229334
X0396615Y0226731
X0425788Y0223778
X0425709Y0215078
X0456272Y0216693
X0459351Y0213901
X0465473Y0217873
X0462009Y0222873
X0460946Y0226771
X0459498Y0232903
X0454308Y0237495
X0453792Y0246566
X0453811Y0251142
X0458732
X0463653
X0461928Y0248486
X0460394Y0244842
X0465434Y0243936
X0466107Y0240086
X0469232Y0235846
X0471967Y0236811
X0474194Y0234584
X0475749Y0229093
X0473229Y0228504
X0480828Y0227833
X0482993Y0225629
X0481064Y0215629
X0476733Y0217873
X0468955Y0224231
X0473111Y0246968
X0473374Y0250757
X0475591Y0245039
X0482147Y0242956
X0482832Y0248420
X0485799Y0246221
X0490720
X0491591Y0252259
X0484934Y0252129
X0481777Y0255145
X0490473Y0264487
X0492009Y0266455
X0494017Y0271101
X0495056Y0281109
X0497517Y0282129
X0499631Y0283916
X0501780Y0286050
X0504922Y0283188
X0506509Y0287369
X0504547Y0290726
X0505040Y0293290
X0505284Y0298735
X0505446Y0302373
X0507945Y0300355
X0512866
X0515327Y0305276
X0517787Y0310197
X0522709
X0523623Y0316771
X0519686
X0515749
X0511812
X0508662
X0500316Y0317164
X0497560Y0317204
X0490158Y0317361
X0488741Y0319881
X0488190Y0322676
Y0326613
Y0330550
Y0334487
Y0338424
Y0342361
X0488172Y0346298
X0488190Y0350235
Y0354172
Y0358109
X0480878Y0354488
X0475957
X0478417Y0349567
X0483338
X0485799Y0344646
X0480878
X0475957
X0483338Y0339725
X0480878Y0334803
X0483338Y0329882
X0485799Y0324961
X0483338Y0320040
X0486064Y0306456
X0488166Y0303594
X0486812Y0301298
X0487965Y0298802
X0483338Y0300355
X0478387Y0300353
X0473496Y0300355
X0468575
X0463653
X0458732
X0453811
X0453820Y0293499
X0453811Y0290512
X0453902Y0287578
X0453930Y0283964
X0453811Y0280669
X0453162Y0277007
X0456733Y0274881
X0460513Y0275314
X0464292Y0274133
X0468194Y0274853
X0468139Y0277255
X0468898Y0282913
X0472678Y0283266
X0474560Y0278310
X0477532Y0271094
X0475206Y0268724
X0462757Y0268897
X0458977Y0267716
X0453811Y0260984
X0456272Y0256063
X0461193
X0468036Y0262590
X0468465Y0287283
X0470513Y0289526
X0463780Y0290156
X0460844Y0289460
X0479532Y0283763
X0482257Y0285558
X0484926Y0287074
X0483501Y0292121
X0491717Y0288401
X0494288Y0290594
X0494517Y0293066
X0497032Y0292975
X0497422Y0298621
X0494607Y0298598
X0494721Y0302050
X0497580Y0302692
X0512866Y0310197
X0522709Y0300355
X0522682Y0297523
X0520248Y0295433
X0517493Y0295125
X0517009Y0288857
X0520040Y0288976
X0517521Y0282499
X0518859Y0278896
X0518741Y0276290
X0518780Y0272715
X0513701Y0269132
X0511261Y0276023
X0511543Y0280060
X0507047Y0276653
X0507088Y0271889
X0504607Y0262755
X0506576Y0260747
X0508511Y0258878
X0505510Y0252259
X0498551Y0259218
X0498551Y0245299
X0495032Y0241747
X0491626Y0238304
X0487009Y0233699
X0500816Y0232042
X0500563Y0236378
X0505484
X0508603Y0237574
X0512866Y0241299
X0512749Y0244964
X0516780Y0245440
X0523190Y0248779
X0522197Y0237215
X0522087Y0229445
X0522040Y0221110
X0516493Y0221534
X0515088Y0219401
X0512363Y0219054
X0507276Y0220605
X0508702Y0222680
X0505355Y0218778
X0503269Y0216810
X0497284Y0212519
X0498977Y0226731
X0498446Y0229334
X0520001Y0258227
X0518745Y0261259
X0524946Y0302145
X0486321Y0277600
X0425580Y0275515
X0425473Y0271653
X0425395Y0267519
X0425414Y0264405
X0416382Y0261259
X0417639Y0258227
X0425395Y0279527
X0425505Y0283416
X0425906Y0287755
X0425918Y0291448
X0428504Y0297244
X0430189Y0310197
X0429135Y0316771
X0433072
X0425198
X0421261
X0417324
X0413387
X0409450
X0406300
X0397954Y0317164
X0395198Y0317204
X0387796Y0317361
X0386379Y0319881
X0385828Y0322676
Y0326613
Y0330550
Y0334487
Y0338424
Y0342361
X0385810Y0346298
X0385828Y0350235
Y0354172
Y0358109
X0378516Y0354488
X0373594
X0376055Y0349567
X0380976
X0383437Y0344646
X0378516
X0373594
X0380976Y0339725
X0378516Y0334803
X0380976Y0329882
X0383437Y0324961
X0380976Y0320040
X0376024Y0300353
X0371134Y0300355
X0410504Y0310197
X0527630
X0528111Y0306613
X0532551Y0310197
X0531497Y0316771
X0535434
X0527560
X0525564Y0298987
X0525169Y0295433
X0528280Y0291448
X0528269Y0287755
X0527867Y0283416
X0527757Y0279527
X0527942Y0275515
X0527836Y0271653
X0527757Y0267519
X0527776Y0264405
X0526969Y0249960
X0528150Y0223778
X0528072Y0215078
X0530866Y0297244
T02
X0399135Y0110354
X0404017Y0110393
X0465985Y0110511
X0471103
X0501497Y0110354
X0506379Y0110393
X0368741Y0110511
X0363623
X0301654Y0110393
X0296773Y0110354
X0266379Y0110511
X0261261
X0199292Y0110393
X0194410Y0110354
X0164017Y0110511
X0158898
X0096930Y0110393
X0092048Y0110354
X0061655Y0110511
X0056536
T03
X0095000Y0323071
X0197362
X0299724
X0402087
X0504449
T04
X0380985Y0159999
X0390828
X0483347
X0493190
X0288465
X0278623
X0186103
X0176261
X0083741
X0073899
T05
X0393837Y0204422
X0496199
X0291475
X0189113
X0086751
T06
X0370080Y0058897
X0412599
X0472442
X0514961
X0310237
X0267717
X0207875
X0165355
X0105513
X0062993
T07
X0464646Y0151849
X0362284
X0259922
X0157560
X0055198
Y0344684
X0157560
X0259922
X0362284
X0464646
T08
X0020276Y0020394
X0551417Y0019921
X0552520Y0382874
X0020118Y0382323
T09
X0452930Y0119999
X0460930
X0456930Y0139999
X0354568
X0358568Y0119999
X0350568
X0256206
X0248206
X0252206Y0139999
X0149843
X0153843Y0119999
X0145843
X0051481
X0043481
X0047481Y0139999
M30
