M48
;Layer_Color=9474304
;FILE_FORMAT=2:5
INCH
;TYPE=PLATED
T1F00S00C0.01181
T2F00S00C0.04331
T3F00S00C0.04724
T4F00S00C0.11811
%
T01
X0142394Y0142638
X0146331
X0150268
X0144362Y0146575
X0142394Y0150512
X0185701
X0187670Y0146575
X0185701Y0142638
X0189638
X0193575
X0213260
X0217197
X0220000Y0145236
Y0152244
X0226252Y0150512
X0228221Y0146575
X0226252Y0142638
X0230189
X0234126
X0269559
X0273496
X0277433
X0271528Y0146575
X0269559Y0150512
X0297118Y0142638
X0301055
X0303858Y0145236
Y0152244
X0310110Y0150512
X0312079Y0146575
X0310110Y0142638
X0314048
X0317985
X0353418
X0357355
X0361292
X0355386Y0146575
X0353418Y0150512
X0380977Y0142638
X0384914
X0387717Y0145236
Y0152244
X0393969Y0150512
X0395937Y0146575
X0393969Y0142638
X0397906
X0401843
X0437276
X0441213
X0445150
X0439244Y0146575
X0437276Y0150512
X0464835Y0142638
X0468772
X0471575Y0145236
Y0152244
X0477827Y0150512
X0479796Y0146575
X0477827Y0142638
X0481764
X0485701
X0521134
X0525071
X0529008
X0523103Y0146575
X0521134Y0150512
X0548693Y0142638
X0552630
X0555433Y0145236
Y0152244
Y0169843
Y0176890
Y0183937
Y0190984
X0554599Y0193819
X0550662
X0546725
X0542788
X0538851
X0534914
X0530977
X0527040
X0523103
X0518386Y0192677
X0521134Y0189882
X0525071
X0529008
X0532945
X0536882
X0540819
X0544756
X0548693
X0552630
Y0197756
X0555433Y0198031
X0554599Y0201693
X0550662
X0546725
X0542788
X0538851
X0534914
X0530977
X0532945Y0197756
X0536882
X0540819
X0544756
X0548693
X0544756Y0205630
Y0213504
X0545236Y0216024
X0548721Y0216496
X0548701Y0219173
X0555433Y0219055
Y0212047
X0554599Y0209567
X0555433Y0205039
X0538851Y0217441
X0532945Y0213504
X0529008
Y0221378
X0525071
X0523103Y0225315
X0515229
X0511292
X0509323Y0229252
X0513260
Y0221378
X0509323
X0511292Y0217441
X0515229
X0513260Y0213504
X0517197
X0521134
X0519166Y0209567
X0515229
X0511292
X0507355
X0505386Y0205630
X0509323
X0513260
X0517197
X0519166Y0201693
X0515229
X0511292
X0507355
X0503418
X0499481
X0495544
X0493575Y0205630
X0497512
Y0197756
X0501449
X0505386
X0509323
X0511292Y0193819
X0507355
X0503418
X0499481
X0495544
X0493575Y0197756
Y0189882
X0497512
X0501449
X0505386
X0507355Y0185945
X0503418
X0499481
X0495544
X0493575Y0182008
X0497512
X0501449
X0505386
X0509323
X0513260
X0517197
X0519166Y0185945
X0530977
X0534914
X0532945Y0182008
X0544756
X0545743Y0166530
X0542821Y0163608
X0521134Y0166260
X0517197
X0513260
X0515229Y0170197
X0519166
X0523103
X0519166Y0162323
X0515229
X0513260Y0158386
X0517197
X0511292Y0170197
X0494921Y0166296
Y0163029
X0495544Y0178071
X0483733
X0479796
X0478642Y0181457
X0481764Y0182008
X0485701
X0483465Y0187362
X0481764Y0189882
X0485701
X0483733Y0193819
X0478150Y0193661
X0477827Y0189882
X0479796Y0185945
X0471575Y0183937
Y0176890
Y0169843
X0479796Y0170197
X0477827Y0174134
X0481764
X0485701
X0477827Y0166260
X0471575Y0190984
X0470741Y0193819
X0471575Y0198031
X0468772Y0197756
X0470741Y0201693
X0471575Y0205039
X0470741Y0209567
X0471575Y0212047
Y0219055
X0477126Y0219606
X0479796Y0217441
X0481792Y0214331
X0488288Y0214823
X0488681Y0211575
X0489272Y0220827
X0484548Y0222106
X0482579Y0233327
X0476851Y0236260
X0476929Y0228898
X0476772Y0243701
X0482579Y0242382
Y0251536
X0476772Y0251063
X0469066Y0251240
X0468898Y0243465
X0477827Y0260748
X0482579Y0258327
Y0264823
X0486122Y0267480
X0477827Y0268622
X0471457Y0269291
X0477827Y0276497
Y0284370
X0482874Y0285827
X0482835Y0289567
X0482776Y0293661
Y0296713
X0480630Y0298268
X0477827Y0300118
X0476772Y0302599
Y0309961
X0490591Y0309724
X0492717Y0305768
X0492028Y0302618
X0491969Y0296457
X0489638Y0292245
X0499060Y0292126
X0501851Y0288780
X0501772Y0296535
X0501457Y0300079
X0496024Y0300118
X0485276Y0300236
X0471654Y0300079
X0471536Y0291732
X0477827Y0292245
X0482914Y0281732
X0488091Y0277126
X0500492Y0273780
X0497441Y0270433
X0503150Y0267579
X0511654Y0267677
X0513386Y0273684
X0524410Y0274016
X0523229Y0282283
X0515197Y0284149
X0515229Y0288307
X0512481Y0294961
X0514134Y0300236
X0516418Y0298189
X0519166Y0296182
X0524134Y0298268
X0526654Y0300079
X0527992Y0302795
X0527835Y0306772
X0526103Y0310394
X0523110Y0312323
X0516496Y0311654
X0513681Y0312264
X0514213Y0309488
X0511616Y0308532
X0501890Y0308583
X0499055Y0308622
X0503544Y0311673
X0506318Y0284213
X0503544Y0279095
X0505386Y0260748
X0504449Y0258268
X0505386Y0252874
X0505315Y0249370
Y0245925
X0502559Y0242087
X0499481Y0241063
X0495544
X0493491Y0237828
X0497512Y0229252
X0501449
X0503418Y0225315
X0499481
X0497512Y0221378
X0501449
Y0213504
X0509323
X0508858Y0238819
X0506792Y0236772
X0515945Y0243268
X0520079Y0243169
X0520000Y0247323
X0514961
X0524607Y0243169
X0531851Y0248228
X0534773Y0251603
X0534646Y0255276
X0537873Y0256445
X0541810
Y0252508
X0537873
X0541993Y0245815
X0540630Y0236890
X0538977Y0233228
X0536713Y0226634
X0552756Y0243465
X0552925Y0251240
X0550079Y0268701
Y0271929
X0550295Y0274862
X0555315Y0269291
X0536882Y0268622
X0535138Y0264724
X0534016Y0260787
X0534055Y0276772
X0534914Y0280434
X0537126Y0279370
X0536882Y0284370
X0535729Y0286673
X0532945Y0300118
X0530020Y0298386
X0527040Y0296182
X0532677Y0304882
X0538288Y0303307
X0540059Y0305571
X0546559Y0297606
X0551144Y0295925
X0549843Y0293268
X0549803Y0289764
X0555394Y0291732
X0555512Y0300079
X0549508Y0310591
X0538851Y0272559
X0515516Y0262269
X0521890Y0255394
X0501449Y0252874
X0490827Y0253228
X0497638Y0261476
X0484154Y0199567
X0481764Y0197756
X0477827
X0468772Y0189882
X0464835
X0460898
X0456961
X0453024
X0449087
X0445150
X0441213
X0437276
X0434528Y0192677
X0439244Y0193819
X0443181
X0447118
X0451055
X0454992
X0458929
X0462866
X0466804
X0464835Y0197756
X0460898
X0456961
X0453024
X0449087
X0451055Y0201693
X0454992
X0458929
X0462866
X0466804
X0460898Y0205630
Y0213504
X0461378Y0216024
X0464862Y0216496
X0464843Y0219173
X0454992Y0217441
X0449087Y0213504
X0445150
Y0221378
X0441213
X0439244Y0225315
X0431370
X0427433
X0425465Y0229252
X0429402
Y0221378
X0425465
X0427433Y0217441
X0431370
X0429402Y0213504
X0433339
X0437276
X0435307Y0209567
X0431370
X0427433
X0423496
X0421528Y0205630
X0425465
X0429402
X0433339
X0435307Y0201693
X0431370
X0427433
X0423496
X0419559
X0415622
X0411685
X0409717Y0205630
X0413654
Y0197756
X0417591
X0421528
X0425465
X0427433Y0193819
X0423496
X0419559
X0415622
X0411685
X0409717Y0197756
Y0189882
X0413654
X0417591
X0421528
X0423496Y0185945
X0419559
X0415622
X0411685
X0409717Y0182008
X0413654
X0417591
X0421528
X0425465
X0429402
X0433339
X0435307Y0185945
X0447118
X0451055
X0449087Y0182008
X0460898
X0461884Y0166530
X0458963Y0163608
X0437276Y0166260
X0433339
X0429402
X0431370Y0170197
X0435307
X0439244
X0435307Y0162323
X0431370
X0429402Y0158386
X0433339
X0427433Y0170197
X0411063Y0166296
Y0163029
X0411685Y0178071
X0399874
X0395937
X0394784Y0181457
X0397906Y0182008
X0401843
X0399606Y0187362
X0397906Y0189882
X0401843
X0399874Y0193819
X0394292Y0193661
X0393969Y0189882
X0395937Y0185945
X0387717Y0183937
Y0176890
Y0169843
X0395937Y0170197
X0393969Y0174134
X0397906
X0401843
X0393969Y0166260
X0378026Y0166530
X0375104Y0163608
X0377040Y0182008
Y0189882
X0380977
X0384914
X0387717Y0190984
X0386882Y0193819
X0382945
X0379008
X0375071
X0371134
X0367197
X0363260
X0359323
X0355386
X0350670Y0192677
X0353418Y0189882
X0357355
X0361292
X0365229
X0369166
X0373103
Y0197756
X0377040
X0380977
X0384914
X0387717Y0198031
X0386882Y0201693
X0382945
X0379008
X0375071
X0371134
X0367197
X0363260
X0365229Y0197756
X0369166
X0367197Y0185945
X0363260
X0365229Y0182008
X0349481
X0345544
X0341607
X0337670
X0333733
X0329796
X0325858
X0327827Y0185945
X0331764
X0335701
X0339638
X0337670Y0189882
X0333733
X0329796
X0325858
X0327827Y0193819
X0331764
X0335701
X0339638
X0343575
X0341607Y0197756
X0337670
X0333733
X0329796
X0325858
X0327827Y0201693
X0331764
X0335701
X0339638
X0343575
X0347512
X0351449
X0349481Y0205630
X0345544
X0341607
X0337670
X0339638Y0209567
X0343575
X0347512
X0351449
X0349481Y0213504
X0353418
X0361292
X0365229
X0371134Y0217441
X0377520Y0216024
X0377040Y0213504
X0381004Y0216496
X0380984Y0219173
X0387717Y0219055
X0393268Y0219606
X0395937Y0217441
X0397933Y0214331
X0404429Y0214823
X0404823Y0211575
X0405414Y0220827
X0400689Y0222106
X0398721Y0233327
X0392992Y0236260
X0393071Y0228898
X0392914Y0243701
X0398721Y0242382
Y0251536
X0392914Y0251063
X0385208Y0251240
X0385040Y0243465
X0374276Y0245815
X0374093Y0252508
Y0256445
X0370156
Y0252508
X0367056Y0251603
X0366929Y0255276
X0366299Y0260787
X0367421Y0264724
X0369166Y0268622
X0371134Y0272559
X0369410Y0279370
X0367197Y0280434
X0366339Y0276772
X0369166Y0284370
X0368012Y0286673
X0365229Y0300118
X0362303Y0298386
X0358937Y0300079
X0360276Y0302795
X0360118Y0306772
X0358386Y0310394
X0355394Y0312323
X0348780Y0311654
X0345965Y0312264
X0346496Y0309488
X0343900Y0308532
X0334173Y0308583
X0331339Y0308622
X0335827Y0311673
X0333740Y0300079
X0334055Y0296535
X0331344Y0292126
X0334134Y0288780
X0338601Y0284213
X0335827Y0279095
X0332776Y0273780
X0329725Y0270433
X0335433Y0267579
X0343937Y0267677
X0345670Y0273684
X0356693Y0274016
X0355512Y0282283
X0347481Y0284149
X0347512Y0288307
X0344764Y0294961
X0346417Y0300236
X0348701Y0298189
X0351449Y0296182
X0356417Y0298268
X0359323Y0296182
X0364961Y0304882
X0370571Y0303307
X0372343Y0305571
X0378842Y0297606
X0383428Y0295925
X0382126Y0293268
X0382087Y0289764
X0387677Y0291732
X0393969Y0292245
X0398918Y0293661
Y0296713
X0396772Y0298268
X0393969Y0300118
X0392914Y0302599
Y0309961
X0381791Y0310591
X0387795Y0300079
X0401417Y0300236
X0408170Y0302618
X0408858Y0305768
X0406733Y0309724
X0415197Y0308622
X0418032Y0308583
X0419685Y0311673
X0429823Y0312264
X0430354Y0309488
X0427758Y0308532
X0432638Y0311654
X0439252Y0312323
X0442244Y0310394
X0443977Y0306772
X0444134Y0302795
X0442796Y0300079
X0443181Y0296182
X0440276Y0298268
X0446162Y0298386
X0449087Y0300118
X0448819Y0304882
X0454429Y0303307
X0456201Y0305571
X0462701Y0297606
X0467286Y0295925
X0465984Y0293268
X0465945Y0289764
X0466437Y0274862
X0466221Y0271929
Y0268701
X0453024Y0268622
X0451280Y0264724
X0450158Y0260787
X0450788Y0255276
X0450914Y0251603
X0454014Y0252508
X0457951
Y0256445
X0454014
X0447992Y0248228
X0440748Y0243169
X0436221
X0436142Y0247323
X0431103
X0432087Y0243268
X0425000Y0238819
X0422933Y0236772
X0418701Y0242087
X0415622Y0241063
X0411685
X0409633Y0237828
X0413654Y0229252
X0417591
X0419559Y0225315
X0415622
X0413654Y0221378
X0417591
Y0213504
X0425465
X0447118Y0201693
X0452854Y0226634
X0455118Y0233228
X0456772Y0236890
X0458134Y0245815
X0438032Y0255394
X0431658Y0262269
X0427796Y0267677
X0429528Y0273684
X0440551Y0274016
X0439370Y0282283
X0431339Y0284149
X0431370Y0288307
X0428622Y0294961
X0430276Y0300236
X0432559Y0298189
X0435307Y0296182
X0417914Y0296535
X0417599Y0300079
X0412166Y0300118
X0408110Y0296457
X0405780Y0292245
X0398977Y0289567
X0399016Y0285827
X0399055Y0281732
X0393969Y0284370
Y0276497
Y0268622
X0387599Y0269291
X0382362Y0268701
Y0271929
X0382579Y0274862
X0404233Y0277126
X0402264Y0267480
X0398721Y0264823
Y0258327
X0393969Y0260748
X0406969Y0253228
X0417591Y0252874
X0421528
X0421457Y0249370
Y0245925
X0420591Y0258268
X0421528Y0260748
X0413780Y0261476
X0413583Y0270433
X0416634Y0273780
X0419685Y0279095
X0422460Y0284213
X0417992Y0288780
X0415202Y0292126
X0419292Y0267579
X0450197Y0276772
X0451055Y0280434
X0453268Y0279370
X0453024Y0284370
X0451870Y0286673
X0454992Y0272559
X0465650Y0310591
X0322874Y0309724
X0325000Y0305768
X0324311Y0302618
X0324252Y0296457
X0321921Y0292245
X0315059Y0293661
Y0296713
X0312914Y0298268
X0317559Y0300236
X0328307Y0300118
X0315118Y0289567
X0315158Y0285827
X0315197Y0281732
X0320374Y0277126
X0318406Y0267480
X0314862Y0264823
Y0258327
Y0251536
Y0242382
Y0233327
X0316831Y0222106
X0321555Y0220827
X0320571Y0214823
X0320965Y0211575
X0314075Y0214331
X0314048Y0197756
X0316437Y0199567
X0316016Y0193819
X0314048Y0189882
X0317985
X0315748Y0187362
X0314048Y0182008
X0317985
X0316016Y0178071
X0314048Y0174134
X0317985
X0327827Y0178071
X0327205Y0166296
Y0163029
X0347512Y0162323
X0351449
X0349481Y0166260
X0353418
X0355386Y0170197
X0351449
X0347512
X0343575
X0345544Y0166260
Y0158386
X0349481
X0351449Y0185945
X0345544Y0213504
X0341607
X0343575Y0217441
X0347512
X0345544Y0221378
X0341607
X0343575Y0225315
X0347512
X0345544Y0229252
X0341607
X0333733
X0329796
X0331764Y0225315
X0335701
X0333733Y0221378
X0329796
X0333733Y0213504
X0329796Y0205630
X0325858
X0325775Y0237828
X0327827Y0241063
X0331764
X0334843Y0242087
X0337599Y0245925
Y0249370
X0337670Y0252874
X0333733
X0336733Y0258268
X0337670Y0260748
X0329921Y0261476
X0323110Y0253228
X0347244Y0247323
X0352284
X0352362Y0243169
X0348229Y0243268
X0356890Y0243169
X0364134Y0248228
X0354173Y0255394
X0347799Y0262269
X0341142Y0238819
X0339075Y0236772
X0355386Y0225315
X0357355Y0221378
X0361292
X0368996Y0226634
X0371260Y0233228
X0372914Y0236890
X0377040Y0205630
X0387717Y0205039
X0386882Y0209567
X0387717Y0212047
X0393969Y0197756
X0397906
X0400295Y0199567
X0310110Y0197756
X0310433Y0193661
X0310110Y0189882
X0312079Y0185945
X0310925Y0181457
X0312079Y0178071
X0310110Y0174134
X0312079Y0170197
X0310110Y0166260
X0303858Y0169843
Y0176890
Y0183937
Y0190984
X0303024Y0193819
X0299087
X0295150
X0291213
X0287276
X0283339
X0279402
X0275465
X0271528
X0266811Y0192677
X0269559Y0189882
X0273496
X0277433
X0281370
X0285307
X0289244
X0293181
X0297118
X0301055
Y0197756
X0303858Y0198031
X0303024Y0201693
X0299087
X0295150
X0291213
X0287276
X0283339
X0279402
X0281370Y0197756
X0285307
X0289244
X0293181
X0297118
X0293181Y0205630
Y0213504
X0293662Y0216024
X0297146Y0216496
X0297126Y0219173
X0303858Y0219055
X0309410Y0219606
X0312079Y0217441
X0303858Y0212047
X0303024Y0209567
X0303858Y0205039
X0287276Y0217441
X0281370Y0213504
X0277433
Y0221378
X0273496
X0271528Y0225315
X0263654
X0259717
X0257748Y0229252
X0261685
Y0221378
X0257748
X0259717Y0217441
X0263654
X0261685Y0213504
X0265622
X0269559
X0267591Y0209567
X0263654
X0259717
X0255780
X0253811Y0205630
X0257748
X0261685
X0265622
X0267591Y0201693
X0263654
X0259717
X0255780
X0251843
X0247906
X0243969
X0242000Y0205630
X0245937
Y0197756
X0249874
X0253811
X0257748
X0259717Y0193819
X0255780
X0251843
X0247906
X0243969
X0242000Y0197756
Y0189882
X0245937
X0249874
X0253811
X0255780Y0185945
X0251843
X0247906
X0243969
X0242000Y0182008
X0245937
X0249874
X0253811
X0257748
X0261685
X0265622
X0267591Y0185945
X0279402
X0283339
X0281370Y0182008
X0293181
X0294168Y0166530
X0291246Y0163608
X0269559Y0166260
X0265622
X0261685
X0263654Y0170197
X0267591
X0271528
X0267591Y0162323
X0263654
X0261685Y0158386
X0265622
X0259717Y0170197
X0243347Y0166296
Y0163029
X0243969Y0178071
X0232158
X0228221
X0227067Y0181457
X0230189Y0182008
X0234126
X0231890Y0187362
X0230189Y0189882
X0234126
X0232158Y0193819
X0226575Y0193661
X0226252Y0189882
X0228221Y0185945
X0220000Y0183937
Y0176890
Y0169843
X0228221Y0170197
X0226252Y0174134
X0230189
X0234126
X0226252Y0166260
X0210310Y0166530
X0207388Y0163608
X0209323Y0182008
Y0189882
X0213260
X0217197
X0220000Y0190984
X0219166Y0193819
X0215229
X0211292
X0207355
X0203418
X0199480
X0195544
X0191606
X0187670
X0182953Y0192677
X0185701Y0189882
X0189638
X0193575
X0197512
X0201449
X0205386
Y0197756
X0209323
X0213260
X0217197
X0220000Y0198031
X0219166Y0201693
X0215229
X0211292
X0207355
X0203418
X0199480
X0195544
X0197512Y0197756
X0201449
X0199480Y0185945
X0195544
X0197512Y0182008
X0181764
X0177827
X0173890
X0169953
X0166016
X0162079
X0158142
X0160110Y0185945
X0164048
X0167984
X0171922
X0169953Y0189882
X0166016
X0162079
X0158142
X0160110Y0193819
X0164048
X0167984
X0171922
X0175858
X0173890Y0197756
X0169953
X0166016
X0162079
X0158142
X0160110Y0201693
X0164048
X0167984
X0171922
X0175858
X0179796
X0183732
X0181764Y0205630
X0177827
X0173890
X0169953
X0171922Y0209567
X0175858
X0179796
X0183732
X0181764Y0213504
X0185701
X0193575
X0197512
X0203418Y0217441
X0209803Y0216024
X0209323Y0213504
X0213287Y0216496
X0213268Y0219173
X0220000Y0219055
X0225551Y0219606
X0228221Y0217441
X0230217Y0214331
X0236713Y0214823
X0237106Y0211575
X0237697Y0220827
X0232973Y0222106
X0231004Y0233327
X0225276Y0236260
X0225355Y0228898
X0225197Y0243701
X0231004Y0242382
Y0251536
X0225197Y0251063
X0217492Y0251240
X0217323Y0243465
X0206559Y0245815
X0206377Y0252508
Y0256445
X0202439
Y0252508
X0199339Y0251603
X0199213Y0255276
X0198583Y0260787
X0199705Y0264724
X0201449Y0268622
X0203418Y0272559
X0201693Y0279370
X0199480Y0280434
X0198622Y0276772
X0201449Y0284370
X0200295Y0286673
X0197512Y0300118
X0194587Y0298386
X0191221Y0300079
X0192559Y0302795
X0192402Y0306772
X0190669Y0310394
X0187677Y0312323
X0181063Y0311654
X0178248Y0312264
X0178780Y0309488
X0176183Y0308532
X0166457Y0308583
X0163622Y0308622
X0168110Y0311673
X0166024Y0300079
X0166339Y0296535
X0163627Y0292126
X0166417Y0288780
X0170885Y0284213
X0168110Y0279095
X0165059Y0273780
X0162008Y0270433
X0167717Y0267579
X0176221Y0267677
X0177953Y0273684
X0188977Y0274016
X0187795Y0282283
X0179764Y0284149
X0179796Y0288307
X0177047Y0294961
X0178701Y0300236
X0180984Y0298189
X0183732Y0296182
X0188701Y0298268
X0191606Y0296182
X0197244Y0304882
X0202854Y0303307
X0204626Y0305571
X0211126Y0297606
X0215711Y0295925
X0214410Y0293268
X0214370Y0289764
X0219961Y0291732
X0226252Y0292245
X0231201Y0293661
Y0296713
X0229055Y0298268
X0226252Y0300118
X0225197Y0302599
Y0309961
X0214075Y0310591
X0220079Y0300079
X0233701Y0300236
X0240453Y0302618
X0241142Y0305768
X0239016Y0309724
X0247481Y0308622
X0250315Y0308583
X0251969Y0311673
X0262106Y0312264
X0262638Y0309488
X0260041Y0308532
X0264921Y0311654
X0271536Y0312323
X0274528Y0310394
X0276260Y0306772
X0276417Y0302795
X0275079Y0300079
X0275465Y0296182
X0272559Y0298268
X0278445Y0298386
X0281370Y0300118
X0281102Y0304882
X0286713Y0303307
X0288484Y0305571
X0294984Y0297606
X0299570Y0295925
X0298268Y0293268
X0298229Y0289764
X0303819Y0291732
X0310110Y0292245
Y0300118
X0309055Y0302599
Y0309961
X0297933Y0310591
X0303937Y0300079
X0310110Y0284370
Y0276497
Y0268622
X0303740Y0269291
X0298504Y0268701
Y0271929
X0298721Y0274862
X0287276Y0272559
X0285307Y0268622
X0283563Y0264724
X0282441Y0260787
X0283071Y0255276
X0283198Y0251603
X0286298Y0252508
X0290235
Y0256445
X0286298
X0280276Y0248228
X0273032Y0243169
X0268504
X0268425Y0247323
X0263386
X0264370Y0243268
X0257284Y0238819
X0255217Y0236772
X0250984Y0242087
X0247906Y0241063
X0243969
X0241916Y0237828
X0245937Y0229252
X0249874
X0251843Y0225315
X0247906
X0245937Y0221378
X0249874
Y0213504
X0257748
X0253740Y0245925
Y0249370
X0253811Y0252874
X0249874
X0252874Y0258268
X0253811Y0260748
X0246063Y0261476
X0245866Y0270433
X0248918Y0273780
X0251969Y0279095
X0254743Y0284213
X0263622Y0284149
X0263654Y0288307
X0260906Y0294961
X0262559Y0300236
X0264843Y0298189
X0267591Y0296182
X0250197Y0296535
X0249882Y0300079
X0244449Y0300118
X0240394Y0296457
X0238063Y0292245
X0231260Y0289567
X0231299Y0285827
X0231339Y0281732
X0226252Y0284370
Y0276497
Y0268622
X0219882Y0269291
X0214646Y0268701
Y0271929
X0214862Y0274862
X0236516Y0277126
X0234547Y0267480
X0231004Y0264823
Y0258327
X0226252Y0260748
X0239252Y0253228
X0251575Y0267579
X0260079Y0267677
X0261811Y0273684
X0272835Y0274016
X0271654Y0282283
X0283339Y0280434
X0285551Y0279370
X0285307Y0284370
X0284154Y0286673
X0282481Y0276772
X0263941Y0262269
X0270315Y0255394
X0290418Y0245815
X0289055Y0236890
X0287402Y0233228
X0285138Y0226634
X0309213Y0228898
X0309134Y0236260
X0309055Y0243701
Y0251063
X0301350Y0251240
X0301181Y0243465
X0310110Y0260748
X0250276Y0288780
X0247485Y0292126
X0160591Y0300118
X0156595Y0302618
X0157284Y0305768
X0156535Y0296457
X0162205Y0261476
X0169953Y0260748
X0169016Y0258268
X0169953Y0252874
X0169882Y0249370
Y0245925
X0167126Y0242087
X0164048Y0241063
X0160110
X0158058Y0237828
X0162079Y0229252
X0166016
X0167984Y0225315
X0164048
X0162079Y0221378
X0166016
X0173890
X0177827
X0179796Y0225315
X0175858
X0173890Y0229252
X0177827
X0187670Y0225315
X0189638Y0221378
X0193575
X0201280Y0226634
X0203543Y0233228
X0205197Y0236890
X0196417Y0248228
X0189173Y0243169
X0184646
X0184567Y0247323
X0179528
X0180512Y0243268
X0173425Y0238819
X0171358Y0236772
X0166016Y0252874
X0186457Y0255394
X0180083Y0262269
X0179796Y0217441
X0175858
X0173890Y0213504
X0177827
X0166016
X0162079Y0205630
X0158142
X0160110Y0178071
X0159488Y0166296
Y0163029
X0179796Y0162323
X0183732
X0181764Y0166260
X0185701
X0187670Y0170197
X0183732
X0179796
X0175858
X0177827Y0166260
Y0158386
X0181764
X0183732Y0185945
X0209323Y0205630
X0220000Y0205039
X0219166Y0209567
X0220000Y0212047
X0226252Y0197756
X0230189
X0232579Y0199567
X0148721
X0146331Y0197756
X0142394
X0142717Y0193661
X0142394Y0189882
X0146331
X0150268
X0148032Y0187362
X0144362Y0185945
X0143209Y0181457
X0146331Y0182008
X0150268
X0148299Y0178071
X0144362
X0142394Y0174134
X0146331
X0150268
X0144362Y0170197
X0142394Y0166260
X0148299Y0193819
X0146358Y0214331
X0144362Y0217441
X0141693Y0219606
X0141496Y0228898
X0141417Y0236260
X0141339Y0243701
X0147146Y0242382
Y0233327
X0149114Y0222106
X0153839Y0220827
X0152854Y0214823
X0153248Y0211575
X0155394Y0253228
X0147146Y0251536
X0141339Y0251063
X0142394Y0260748
X0147146Y0258327
Y0264823
X0150689Y0267480
X0142394Y0268622
Y0276497
Y0284370
X0147441Y0285827
X0147402Y0289567
X0147343Y0293661
Y0296713
X0145197Y0298268
X0142394Y0300118
X0141339Y0302599
Y0309961
X0155158Y0309724
X0149843Y0300236
X0154205Y0292245
X0142394
X0147480Y0281732
X0152658Y0277126
X0153780Y0325213
X0154134Y0329882
X0153268Y0335118
X0147559Y0331890
X0141339Y0332283
Y0324843
Y0317402
X0142394Y0339489
Y0347363
Y0355237
Y0363111
X0144362Y0367048
X0142394Y0370985
Y0378859
X0146331
X0150512Y0379764
X0151671Y0385950
X0153189Y0388465
X0152126Y0392835
X0151693Y0402716
X0149313Y0401596
X0156103Y0401811
X0150268Y0410355
X0146331
X0142394
X0141339Y0405906
X0142394Y0402481
Y0394607
X0141339Y0391102
X0142394Y0386733
X0141339Y0383740
X0146654Y0387008
X0148299Y0414292
X0152236
X0144362
X0142394Y0418229
X0146331
X0144362Y0422166
X0146331Y0426103
X0146457Y0433543
X0148780
X0151181
X0153543
Y0435906
X0151969Y0438386
X0148701
X0146457
Y0435906
X0146331Y0441851
X0141339Y0442756
X0150000Y0447992
X0152756Y0446024
X0152236Y0453662
X0148299
X0144362
X0141339Y0457520
X0145748Y0459921
X0150268Y0457599
X0154205
X0153110Y0460000
X0152597Y0362540
X0152638Y0359409
X0152461Y0354597
X0149803Y0356378
X0148761Y0344192
X0158110Y0348110
X0162284Y0343150
X0162402Y0340039
X0166496Y0340351
X0170571Y0336378
X0170473Y0333228
X0169646Y0326260
X0175984Y0327520
X0175985Y0323910
X0178839Y0323780
X0175984Y0320532
X0183732Y0319804
X0181764Y0315867
X0185701
X0184055Y0312638
X0196851Y0313780
X0195591Y0317008
X0195544Y0319804
X0199480
X0197512Y0323741
X0199213Y0325847
X0197512Y0331615
X0199480Y0335552
X0205386Y0339489
X0212303Y0344744
X0216339Y0344154
X0216240Y0349272
X0226252Y0347363
Y0355237
Y0363111
X0228221Y0367048
X0226252Y0370985
Y0378859
X0230189
X0234370Y0379764
X0235529Y0385950
X0237047Y0388465
X0241299Y0388200
X0245276Y0390158
X0247843Y0396417
X0243780Y0400374
X0242224Y0402825
X0239961Y0401811
X0235551Y0402716
X0233171Y0401596
X0226252Y0402481
X0225197Y0405906
X0226252Y0410355
X0230189
X0234126
X0236095Y0414292
X0232158
X0228221
X0226252Y0418229
X0230189
X0228221Y0422166
X0230189Y0426103
X0230315Y0433543
X0232638
X0235039
X0237402
Y0435906
X0235827Y0438386
X0232559
X0230315
Y0435906
X0230189Y0441851
X0225197Y0442756
X0233858Y0447992
X0236614Y0446024
X0240158Y0443852
X0245669Y0443661
X0247906Y0445788
X0251843
X0256339Y0445551
Y0440551
X0253811Y0441851
X0249874
X0251843Y0437914
X0247906
X0249874Y0433977
X0253811
X0256339Y0433032
Y0435551
Y0427992
Y0422992
Y0417992
X0255780Y0414292
X0251843
X0247906
X0243969
X0242000Y0410355
X0245937
X0249874
X0253811
X0257748
X0258543Y0401024
X0261654Y0401260
X0264410Y0401299
X0266772Y0402953
X0267638Y0405748
X0267520Y0409134
X0268071Y0415669
X0265551
X0275079
X0275551Y0412717
X0275945Y0409528
X0275465Y0406418
X0275788Y0403465
X0274882Y0400906
X0273307Y0398465
X0276044Y0397618
X0276479Y0395052
X0271299Y0396220
X0269016Y0394370
X0266496Y0393622
X0263465Y0393386
X0259331Y0392953
X0257087Y0391024
X0255158Y0389094
X0252126Y0385866
X0249764Y0383543
X0244606Y0378346
X0242717Y0376654
X0250473Y0368819
X0253976Y0369094
X0252677Y0366850
X0247126Y0363504
X0244587Y0361181
X0247914Y0356693
X0250040Y0354528
X0236320Y0354597
X0233662Y0356378
X0236496Y0359409
X0236455Y0362540
X0241969Y0348110
X0246142Y0343150
X0246260Y0340039
X0250354Y0340351
X0254429Y0336378
X0254331Y0333228
X0253504Y0326260
X0259843Y0327520
X0259844Y0323910
X0262697Y0323780
X0259843Y0320532
X0267591Y0319804
X0265622Y0315867
X0269559
X0267914Y0312638
X0280709Y0313780
X0279449Y0317008
X0279402Y0319804
X0283339
X0281370Y0323741
X0283071Y0325847
X0281370Y0331615
X0283339Y0335552
X0289244Y0339489
X0296162Y0344744
X0300197Y0344154
X0300099Y0349272
X0310110Y0347363
Y0355237
Y0363111
X0312079Y0367048
X0310110Y0370985
Y0378859
X0309055Y0383740
X0310110Y0386733
X0309055Y0391102
X0310110Y0394607
X0303738Y0394449
X0303740Y0399449
X0310110Y0402481
X0309055Y0405906
X0310110Y0410355
X0312079Y0414292
X0310110Y0418229
X0312079Y0422166
X0303024Y0414292
X0300236Y0415669
X0295197
X0290158
X0287276Y0414292
X0285118Y0415669
X0280118
X0281370Y0410355
X0285307
X0289244
X0293181
X0297118
X0301055
X0289370Y0405768
X0289567Y0400945
X0295295Y0397913
X0295551Y0394646
X0295630Y0391142
X0294193Y0384497
X0284744Y0385787
X0284449Y0382441
X0279474Y0383890
X0277247Y0386117
X0266193Y0385233
X0264075Y0383130
X0263288Y0377224
X0259449Y0378228
X0271162Y0378996
X0273662Y0377244
X0276024Y0374370
X0272008Y0372165
X0279528Y0370827
X0279646Y0366220
X0277952Y0364227
X0284606Y0366811
X0287559Y0363032
X0285630Y0357913
X0287677Y0355984
X0279402Y0351300
X0277433Y0347363
X0273496
X0275465Y0343426
X0272008Y0341339
X0267795Y0340630
X0265748Y0338898
X0267914Y0336929
X0267559Y0331575
X0265059Y0329291
X0273496Y0323741
X0277433
X0275465Y0319804
X0293297Y0321024
X0297244Y0328110
X0298032Y0333327
X0309055Y0332283
Y0324843
Y0317402
X0310110Y0339489
X0300594Y0361389
X0294000Y0371626
X0285138Y0395015
X0282874Y0392874
X0271575Y0405473
X0263858Y0405354
X0253811Y0402481
X0235984Y0392835
X0230512Y0387008
X0226252Y0386733
X0225197Y0383740
Y0391102
X0226252Y0394607
X0219880Y0394449
X0219882Y0399449
X0211437Y0397913
X0211693Y0394646
X0211772Y0391142
X0210335Y0384497
X0200886Y0385787
X0200591Y0382441
X0195616Y0383890
X0193389Y0386117
X0192621Y0395052
X0192185Y0397618
X0189449Y0398465
X0191024Y0400906
X0191929Y0403465
X0191606Y0406418
X0192087Y0409528
X0191693Y0412717
X0191221Y0415669
X0196260
X0201260
X0203418Y0414292
X0206299Y0415669
X0211339
X0216378
X0219166Y0414292
X0217197Y0410355
X0213260
X0209323
X0205386
X0201449
X0197512
X0205512Y0405768
X0205709Y0400945
X0201280Y0395015
X0199016Y0392874
X0187441Y0396220
X0185158Y0394370
X0182638Y0393622
X0179606Y0393386
X0175473Y0392953
X0173229Y0391024
X0171299Y0389094
X0168268Y0385866
X0165906Y0383543
X0160748Y0378346
X0158858Y0376654
X0157441Y0388200
X0161417Y0390158
X0163984Y0396417
X0159921Y0400374
X0158366Y0402825
X0158142Y0410355
X0162079
X0166016
X0169953
X0173890
X0171922Y0414292
X0167984
X0164048
X0160110
X0172480Y0417992
Y0422992
Y0427992
Y0433032
Y0435551
X0169953Y0433977
X0166016
X0167984Y0437914
X0164048
X0166016Y0441851
X0169953
X0172480Y0440551
Y0445551
X0167984Y0445788
X0164048
X0161811Y0443661
X0156299Y0443852
X0156299Y0429095
X0166016Y0449725
X0169953
X0172480Y0450591
Y0455591
X0169953Y0457599
X0166016
X0162079
X0158142
X0160433Y0460000
X0167717
X0172480Y0460630
X0167984Y0453662
X0164048
X0181693Y0415669
X0184213
X0183661Y0409134
X0183780Y0405748
X0182913Y0402953
X0180551Y0401299
X0177795Y0401260
X0174685Y0401024
X0169953Y0402481
X0180000Y0405354
X0187717Y0405473
X0182334Y0385233
X0180217Y0383130
X0179429Y0377224
X0175591Y0378228
X0187303Y0378996
X0189803Y0377244
X0192166Y0374370
X0188150Y0372165
X0195669Y0370827
X0195788Y0366220
X0194093Y0364227
X0200748Y0366811
X0203701Y0363032
X0201772Y0357913
X0203819Y0355984
X0195544Y0351300
X0193575Y0347363
X0189638
X0191606Y0343426
X0188150Y0341339
X0183937Y0340630
X0181890Y0338898
X0184055Y0336929
X0183701Y0331575
X0181201Y0329291
X0189638Y0323741
X0193575
X0191606Y0319804
X0209439Y0321024
X0213386Y0328110
X0214173Y0333327
X0225197Y0332283
X0231417Y0331890
X0237992Y0329882
X0237638Y0325213
X0241772Y0324095
X0244409Y0324094
X0249134Y0318583
X0225197Y0317402
Y0324843
X0226252Y0339489
X0232619Y0344192
X0237126Y0335118
X0241218Y0336378
X0259016Y0345591
X0261260Y0343347
X0263819Y0342087
X0263032Y0349173
X0261575Y0359134
Y0362402
X0270992Y0357267
X0269559Y0355237
X0216736Y0361389
X0210141Y0371626
X0187134Y0357267
X0185701Y0355237
X0177717Y0359134
Y0362402
X0168819Y0366850
X0170118Y0369094
X0166614Y0368819
X0163268Y0363504
X0160729Y0361181
X0164055Y0356693
X0166181Y0354528
X0175158Y0345591
X0177402Y0343347
X0179961Y0342087
X0179173Y0349173
X0157359Y0336378
X0157913Y0324095
X0160551Y0324094
X0165276Y0318583
X0240158Y0429095
X0236095Y0453662
X0232158
X0228221
X0225197Y0457520
X0229606Y0459921
X0234126Y0457599
X0238063
X0236969Y0460000
X0244291
X0245937Y0457599
X0249874
X0253811
X0256339Y0455591
Y0450591
X0253811Y0449725
X0249874
X0251843Y0453662
X0247906
X0242000Y0457599
X0251575Y0460000
X0256339Y0460630
X0309055Y0457520
X0312079Y0453662
X0309055Y0442756
X0314048Y0441851
X0314173Y0438386
X0316418
X0319685
X0321260Y0435906
Y0433543
X0318898
X0316496
X0314173
Y0435906
X0314048Y0426103
Y0418229
X0316016Y0414292
X0319953
X0317985Y0410355
X0314048
X0317030Y0401596
X0319410Y0402716
X0323819Y0401811
X0326082Y0402825
X0327638Y0400374
X0331701Y0396417
X0329134Y0390158
X0325158Y0388200
X0320906Y0388465
X0319388Y0385950
X0314370Y0387008
X0314048Y0378859
X0318229Y0379764
X0326575Y0376654
X0328465Y0378346
X0333622Y0383543
X0335984Y0385866
X0339016Y0389094
X0340945Y0391024
X0343189Y0392953
X0347323Y0393386
X0350355Y0393622
X0352874Y0394370
X0355158Y0396220
X0357166Y0398465
X0359902Y0397618
X0360337Y0395052
X0358740Y0400906
X0359646Y0403465
X0359323Y0406418
X0359803Y0409528
X0359410Y0412717
X0358937Y0415669
X0363977
X0368976
X0371134Y0414292
X0374016Y0415669
X0379055
X0384095
X0386882Y0414292
X0384914Y0410355
X0380977
X0377040
X0373103
X0369166
X0365229
X0373229Y0405768
X0373425Y0400945
X0379154Y0397913
X0379410Y0394646
X0379488Y0391142
X0378051Y0384497
X0368602Y0385787
X0368307Y0382441
X0363333Y0383890
X0361105Y0386117
X0350051Y0385233
X0347933Y0383130
X0347146Y0377224
X0343307Y0378228
X0355020Y0378996
X0357520Y0377244
X0359882Y0374370
X0355866Y0372165
X0363386Y0370827
X0363504Y0366220
X0361810Y0364227
X0368465Y0366811
X0371417Y0363032
X0369488Y0357913
X0371536Y0355984
X0363260Y0351300
X0361292Y0347363
X0357355
X0359323Y0343426
X0355866Y0341339
X0351654Y0340630
X0349606Y0338898
X0351772Y0336929
X0351417Y0331575
X0348918Y0329291
X0343701Y0327520
X0343702Y0323910
X0346555Y0323780
X0343701Y0320532
X0351449Y0319804
X0349481Y0315867
X0353418
X0351772Y0312638
X0364567Y0313780
X0363307Y0317008
X0363260Y0319804
X0367197
X0365229Y0323741
X0366929Y0325847
X0365229Y0331615
X0367197Y0335552
X0373103Y0339489
X0380020Y0344744
X0384055Y0344154
X0383957Y0349272
X0393969Y0347363
Y0355237
Y0363111
X0395937Y0367048
X0393969Y0370985
Y0378859
X0397906
X0402087Y0379764
X0403246Y0385950
X0404764Y0388465
X0409016Y0388200
X0412992Y0390158
X0415559Y0396417
X0411496Y0400374
X0409941Y0402825
X0407677Y0401811
X0403268Y0402716
X0400888Y0401596
X0393969Y0402481
X0392914Y0405906
X0393969Y0410355
X0397906
X0401843
X0403811Y0414292
X0399874
X0395937
X0393969Y0418229
X0397906
X0395937Y0422166
X0397906Y0426103
X0398032Y0433543
X0400354
X0402756
X0405118
Y0435906
X0403544Y0438386
X0400276
X0398032
Y0435906
X0397906Y0441851
X0392914Y0442756
X0401575Y0447992
X0404331Y0446024
X0407874Y0443852
X0413386Y0443661
X0415622Y0445788
X0419559
X0424055Y0445551
Y0440551
X0421528Y0441851
X0417591
X0419559Y0437914
X0415622
X0417591Y0433977
X0421528
X0424055Y0433032
Y0435551
Y0427992
Y0422992
Y0417992
X0423496Y0414292
X0419559
X0415622
X0411685
X0409717Y0410355
X0413654
X0417591
X0421528
X0425465
X0426260Y0401024
X0429370Y0401260
X0432126Y0401299
X0434488Y0402953
X0435355Y0405748
X0435236Y0409134
X0435788Y0415669
X0433268
X0442796
X0443268Y0412717
X0443662Y0409528
X0443181Y0406418
X0443504Y0403465
X0442599Y0400906
X0441024Y0398465
X0443760Y0397618
X0444195Y0395052
X0439016Y0396220
X0436732Y0394370
X0434213Y0393622
X0431181Y0393386
X0427047Y0392953
X0424803Y0391024
X0422874Y0389094
X0419843Y0385866
X0417481Y0383543
X0412323Y0378346
X0410433Y0376654
X0418189Y0368819
X0421693Y0369094
X0420394Y0366850
X0414843Y0363504
X0412303Y0361181
X0415630Y0356693
X0417756Y0354528
X0404036Y0354597
X0401378Y0356378
X0404213Y0359409
X0404172Y0362540
X0409685Y0348110
X0413859Y0343150
X0413976Y0340039
X0418071Y0340351
X0422146Y0336378
X0422048Y0333228
X0421221Y0326260
X0427559Y0327520
X0427560Y0323910
X0430414Y0323780
X0427559Y0320532
X0435307Y0319804
X0433339Y0315867
X0437276
X0435630Y0312638
X0448425Y0313780
X0447166Y0317008
X0447118Y0319804
X0451055
X0449087Y0323741
X0450788Y0325847
X0449087Y0331615
X0451055Y0335552
X0456961Y0339489
X0463878Y0344744
X0467914Y0344154
X0467815Y0349272
X0468311Y0361389
X0455276Y0363032
X0452323Y0366811
X0447362Y0366220
X0445668Y0364227
X0447244Y0370827
X0443740Y0374370
X0441378Y0377244
X0438878Y0378996
X0439725Y0372165
X0431004Y0377224
X0427166Y0378228
X0431791Y0383130
X0433909Y0385233
X0444964Y0386117
X0447191Y0383890
X0452166Y0382441
X0452461Y0385787
X0450591Y0392874
X0452854Y0395015
X0457284Y0400945
X0457087Y0405768
X0456961Y0410355
X0460898
X0464835
X0462914Y0415669
X0467953
X0457874
X0454992Y0414292
X0452835Y0415669
X0447835
X0449087Y0410355
X0453024
X0439292Y0405473
X0431575Y0405354
X0421528Y0402481
X0403701Y0392835
X0398229Y0387008
X0393969Y0386733
X0392914Y0383740
Y0391102
X0393969Y0394607
X0387596Y0394449
X0387599Y0399449
X0368996Y0395015
X0366733Y0392874
X0355433Y0405473
X0351496Y0405748
X0351378Y0409134
X0350630Y0402953
X0348268Y0401299
X0345512Y0401260
X0342402Y0401024
X0337670Y0402481
Y0410355
X0341607
X0339638Y0414292
X0335701
X0331764
X0327827
X0325858Y0410355
X0329796
X0333733
X0340197Y0417992
Y0422992
Y0427992
Y0433032
Y0435551
X0337670Y0433977
X0333733
X0335701Y0437914
X0331764
X0333733Y0441851
X0337670
X0340197Y0440551
Y0445551
X0335701Y0445788
X0331764
X0329528Y0443661
X0324016Y0443852
X0320473Y0446024
X0317717Y0447992
X0316016Y0453662
X0319953
X0317985Y0457599
X0321921
X0320827Y0460000
X0328150
X0329796Y0457599
X0333733
X0337670
X0340197Y0455591
Y0450591
X0337670Y0449725
X0333733
X0335701Y0453662
X0331764
X0325858Y0457599
X0335433Y0460000
X0340197Y0460630
X0313465Y0459921
X0324016Y0429095
X0349410Y0415669
X0351929
X0347717Y0405354
X0319843Y0392835
X0320314Y0362540
X0320355Y0359409
X0320178Y0354597
X0317520Y0356378
X0316477Y0344192
X0325827Y0348110
X0330000Y0343150
X0330118Y0340039
X0334213Y0340351
X0338288Y0336378
X0338189Y0333228
X0337362Y0326260
X0328268Y0324094
X0325630Y0324095
X0321496Y0325213
X0321851Y0329882
X0320984Y0335118
X0325076Y0336378
X0315276Y0331890
X0332992Y0318583
X0359323Y0319804
X0357355Y0323741
X0361292
X0377156Y0321024
X0381102Y0328110
X0381890Y0333327
X0392914Y0332283
X0399134Y0331890
X0405709Y0329882
X0405354Y0325213
X0409488Y0324095
X0412126Y0324094
X0416851Y0318583
X0392914Y0317402
Y0324843
X0393969Y0339489
X0400336Y0344192
X0404843Y0335118
X0408934Y0336378
X0426732Y0345591
X0428977Y0343347
X0431536Y0342087
X0433465Y0338898
X0435512Y0340630
X0435630Y0336929
X0435276Y0331575
X0432776Y0329291
X0441213Y0323741
X0445150
X0443181Y0319804
X0461014Y0321024
X0464961Y0328110
X0465748Y0333327
X0443181Y0343426
X0439725Y0341339
X0441213Y0347363
X0445150
X0447118Y0351300
X0453347Y0357913
X0455394Y0355984
X0438708Y0357267
X0437276Y0355237
X0429292Y0359134
Y0362402
X0430748Y0349173
X0461716Y0371626
X0461910Y0384497
X0463347Y0391142
X0463268Y0394646
X0463012Y0397913
X0407874Y0429095
X0403811Y0453662
X0399874
X0395937
X0392914Y0457520
X0397323Y0459921
X0401843Y0457599
X0405780
X0404685Y0460000
X0412008
X0413654Y0457599
X0417591
X0421528
X0424055Y0455591
Y0450591
X0421528Y0449725
X0417591
X0419559Y0453662
X0415622
X0409717Y0457599
X0419292Y0460000
X0424055Y0460630
X0377858Y0371626
X0384453Y0361389
X0354850Y0357267
X0353418Y0355237
X0345433Y0359134
Y0362402
X0336536Y0366850
X0337835Y0369094
X0334331Y0368819
X0330984Y0363504
X0328445Y0361181
X0331772Y0356693
X0333898Y0354528
X0342874Y0345591
X0345118Y0343347
X0347677Y0342087
X0346890Y0349173
X0477827Y0347363
Y0355237
Y0363111
X0479796Y0367048
X0477827Y0370985
Y0378859
X0481764
X0485945Y0379764
X0487104Y0385950
X0488622Y0388465
X0492874Y0388200
X0496851Y0390158
X0499418Y0396417
X0495355Y0400374
X0493799Y0402825
X0491536Y0401811
X0487126Y0402716
X0484746Y0401596
X0477827Y0402481
X0476772Y0405906
X0477827Y0410355
X0481764
X0485701
X0487670Y0414292
X0483733
X0479796
X0477827Y0418229
X0481764
X0479796Y0422166
X0481764Y0426103
X0481890Y0433543
X0484213
X0486614
X0488977
Y0435906
X0487402Y0438386
X0484134
X0481890
Y0435906
X0481764Y0441851
X0476772Y0442756
X0485433Y0447992
X0488189Y0446024
X0491733Y0443852
X0497244Y0443661
X0499481Y0445788
X0503418
X0507914Y0445551
Y0440551
X0505386Y0441851
X0501449
X0503418Y0437914
X0499481
X0501449Y0433977
X0505386
X0507914Y0433032
Y0435551
Y0427992
Y0422992
Y0417992
X0507355Y0414292
X0503418
X0499481
X0495544
X0493575Y0410355
X0497512
X0501449
X0505386
X0509323
X0510118Y0401024
X0513229Y0401260
X0515984Y0401299
X0518347Y0402953
X0519213Y0405748
X0519095Y0409134
X0519646Y0415669
X0517126
X0526654
X0527126Y0412717
X0527520Y0409528
X0527040Y0406418
X0527362Y0403465
X0526457Y0400906
X0524882Y0398465
X0527619Y0397618
X0528054Y0395052
X0522874Y0396220
X0520591Y0394370
X0518071Y0393622
X0515040Y0393386
X0510906Y0392953
X0508662Y0391024
X0506733Y0389094
X0503701Y0385866
X0501339Y0383543
X0496181Y0378346
X0494292Y0376654
X0502047Y0368819
X0505551Y0369094
X0504252Y0366850
X0498701Y0363504
X0496162Y0361181
X0499488Y0356693
X0501614Y0354528
X0487895Y0354597
X0485237Y0356378
X0488071Y0359409
X0488030Y0362540
X0493543Y0348110
X0497717Y0343150
X0497835Y0340039
X0501929Y0340351
X0506004Y0336378
X0505906Y0333228
X0505079Y0326260
X0511418Y0327520
X0511418Y0323910
X0514272Y0323780
X0511418Y0320532
X0519166Y0319804
X0517197Y0315867
X0521134
X0519488Y0312638
X0532284Y0313780
X0531024Y0317008
X0530977Y0319804
X0534914
X0532945Y0323741
X0534646Y0325847
X0532945Y0331615
X0534914Y0335552
X0540819Y0339489
X0547737Y0344744
X0551772Y0344154
X0551674Y0349272
X0552169Y0361389
X0539134Y0363032
X0536181Y0366811
X0531221Y0366220
X0529526Y0364227
X0531103Y0370827
X0527599Y0374370
X0525237Y0377244
X0522737Y0378996
X0523583Y0372165
X0514862Y0377224
X0511024Y0378228
X0515650Y0383130
X0517768Y0385233
X0528822Y0386117
X0531049Y0383890
X0536024Y0382441
X0536319Y0385787
X0534449Y0392874
X0536713Y0395015
X0541142Y0400945
X0540945Y0405768
X0540819Y0410355
X0544756
X0548693
X0552630
X0554599Y0414292
X0551811Y0415669
X0546772
X0541733
X0538851Y0414292
X0536693Y0415669
X0531693
X0532945Y0410355
X0536882
X0523150Y0405473
X0515433Y0405354
X0505386Y0402481
X0487559Y0392835
X0482087Y0387008
X0477827Y0386733
X0476772Y0383740
Y0391102
X0477827Y0394607
X0471455Y0394449
X0471457Y0399449
X0468772Y0410355
X0470741Y0414292
X0491733Y0429095
X0487670Y0453662
X0483733
X0479796
X0476772Y0457520
X0481181Y0459921
X0485701Y0457599
X0489638
X0488544Y0460000
X0495866
X0497512Y0457599
X0501449
X0505386
X0507914Y0455591
Y0450591
X0505386Y0449725
X0501449
X0503418Y0453662
X0499481
X0493575Y0457599
X0503150Y0460000
X0507914Y0460630
X0546870Y0397913
X0547126Y0394646
X0547205Y0391142
X0545768Y0384497
X0545575Y0371626
X0539252Y0355984
X0537205Y0357913
X0530977Y0351300
X0529008Y0347363
X0525071
X0527040Y0343426
X0523583Y0341339
X0519370Y0340630
X0517323Y0338898
X0519488Y0336929
X0519134Y0331575
X0516634Y0329291
X0525071Y0323741
X0529008
X0527040Y0319804
X0544872Y0321024
X0548819Y0328110
X0549607Y0333327
X0515394Y0342087
X0512835Y0343347
X0510591Y0345591
X0514607Y0349173
X0513150Y0359134
Y0362402
X0522567Y0357267
X0521134Y0355237
X0492793Y0336378
X0488701Y0335118
X0489567Y0329882
X0489213Y0325213
X0493347Y0324095
X0495985Y0324094
X0500709Y0318583
X0476772Y0317402
Y0324843
Y0332283
X0482992Y0331890
X0477827Y0339489
X0484194Y0344192
X0555313Y0394449
X0555315Y0399449
T02
X0520571Y0304882
X0436713
X0352854
X0268996
X0185138
T03
X0494921Y0158031
X0538110Y0158898
X0454252
X0411063Y0158031
X0370394Y0158898
X0327205Y0158031
X0286536Y0158898
X0243347Y0158031
X0202677Y0158898
X0159488Y0158031
T04
X0120276Y0120394
X0575984
X0576299Y0482835
X0120118Y0482323
M30
