G04*
G04 #@! TF.GenerationSoftware,Altium Limited,Altium Designer,20.1.14 (287)*
G04*
G04 Layer_Color=32896*
%FSAX25Y25*%
%MOIN*%
G70*
G04*
G04 #@! TF.SameCoordinates,1876172F-CBA1-4FB9-98D7-45F53F2F45AF*
G04*
G04*
G04 #@! TF.FilePolarity,Positive*
G04*
G01*
G75*
%ADD27C,0.01181*%
%ADD28C,0.00787*%
%ADD44C,0.00394*%
%ADD45C,0.00598*%
%ADD73C,0.00984*%
%ADD74C,0.01000*%
D27*
X0420332Y0417990D02*
G03*
X0420332Y0417990I-0000440J0000000D01*
G01*
X0525845D02*
G03*
X0525845Y0417990I-0000440J0000000D01*
G01*
X0631358D02*
G03*
X0631358Y0417990I-0000440J0000000D01*
G01*
X0736871D02*
G03*
X0736871Y0417990I-0000440J0000000D01*
G01*
D28*
X0431135Y0418385D02*
G03*
X0424819Y0418384I-0003158J-0000198D01*
G01*
X0445207Y0482124D02*
Y0492360D01*
X0444380Y0482124D02*
X0445207D01*
X0444380Y0492360D02*
X0445207D01*
X0439852D02*
X0440679D01*
X0439852Y0482124D02*
Y0492360D01*
Y0482124D02*
X0440679D01*
X0445207Y0484250D02*
X0446388D01*
X0438671D02*
X0439852D01*
X0371144Y0425679D02*
X0377144D01*
Y0436679D01*
X0371144D02*
X0377144D01*
X0371144Y0425679D02*
Y0436679D01*
Y0437490D02*
X0377144D01*
Y0448490D01*
X0371144D02*
X0377144D01*
X0371144Y0437490D02*
Y0448490D01*
Y0449498D02*
X0377144D01*
Y0460498D01*
X0371144D02*
X0377144D01*
X0371144Y0449498D02*
Y0460498D01*
Y0461309D02*
X0377144D01*
Y0472309D01*
X0371144D02*
X0377144D01*
X0371144Y0461309D02*
Y0472309D01*
X0406348Y0436514D02*
X0411663D01*
Y0440352D01*
Y0445471D02*
Y0449309D01*
X0406348D02*
X0411663D01*
X0425482Y0402380D02*
X0430797D01*
Y0406219D01*
Y0411337D02*
Y0415175D01*
X0425482D02*
X0430797D01*
X0421880Y0418211D02*
X0434085D01*
Y0430415D01*
X0421880D02*
X0434085D01*
X0421880Y0418211D02*
Y0430415D01*
X0536648Y0418385D02*
G03*
X0530332Y0418384I-0003158J-0000198D01*
G01*
X0550720Y0482124D02*
Y0492360D01*
X0549893Y0482124D02*
X0550720D01*
X0549893Y0492360D02*
X0550720D01*
X0545365D02*
X0546192D01*
X0545365Y0482124D02*
Y0492360D01*
Y0482124D02*
X0546192D01*
X0550720Y0484250D02*
X0551901D01*
X0544184D02*
X0545365D01*
X0476657Y0425679D02*
X0482657D01*
Y0436679D01*
X0476657D02*
X0482657D01*
X0476657Y0425679D02*
Y0436679D01*
Y0437490D02*
X0482657D01*
Y0448490D01*
X0476657D02*
X0482657D01*
X0476657Y0437490D02*
Y0448490D01*
Y0449498D02*
X0482657D01*
Y0460498D01*
X0476657D02*
X0482657D01*
X0476657Y0449498D02*
Y0460498D01*
Y0461309D02*
X0482657D01*
Y0472309D01*
X0476657D02*
X0482657D01*
X0476657Y0461309D02*
Y0472309D01*
X0511862Y0436514D02*
X0517177D01*
Y0440352D01*
Y0445471D02*
Y0449309D01*
X0511862D02*
X0517177D01*
X0530996Y0402380D02*
X0536310D01*
Y0406219D01*
Y0411337D02*
Y0415175D01*
X0530996D02*
X0536310D01*
X0527393Y0418211D02*
X0539598D01*
Y0430415D01*
X0527393D02*
X0539598D01*
X0527393Y0418211D02*
Y0430415D01*
X0642162Y0418385D02*
G03*
X0635846Y0418384I-0003158J-0000198D01*
G01*
X0656233Y0482124D02*
Y0492360D01*
X0655406Y0482124D02*
X0656233D01*
X0655406Y0492360D02*
X0656233D01*
X0650879D02*
X0651706D01*
X0650879Y0482124D02*
Y0492360D01*
Y0482124D02*
X0651706D01*
X0656233Y0484250D02*
X0657414D01*
X0649698D02*
X0650879D01*
X0582170Y0425679D02*
X0588170D01*
Y0436679D01*
X0582170D02*
X0588170D01*
X0582170Y0425679D02*
Y0436679D01*
Y0437490D02*
X0588170D01*
Y0448490D01*
X0582170D02*
X0588170D01*
X0582170Y0437490D02*
Y0448490D01*
Y0449498D02*
X0588170D01*
Y0460498D01*
X0582170D02*
X0588170D01*
X0582170Y0449498D02*
Y0460498D01*
Y0461309D02*
X0588170D01*
Y0472309D01*
X0582170D02*
X0588170D01*
X0582170Y0461309D02*
Y0472309D01*
X0617375Y0436514D02*
X0622690D01*
Y0440352D01*
Y0445471D02*
Y0449309D01*
X0617375D02*
X0622690D01*
X0636509Y0402380D02*
X0641824D01*
Y0406219D01*
Y0411337D02*
Y0415175D01*
X0636509D02*
X0641824D01*
X0632906Y0418211D02*
X0645111D01*
Y0430415D01*
X0632906D02*
X0645111D01*
X0632906Y0418211D02*
Y0430415D01*
X0747675Y0418385D02*
G03*
X0741359Y0418384I-0003158J-0000198D01*
G01*
X0761746Y0482124D02*
Y0492360D01*
X0760920Y0482124D02*
X0761746D01*
X0760920Y0492360D02*
X0761746D01*
X0756392D02*
X0757219D01*
X0756392Y0482124D02*
Y0492360D01*
Y0482124D02*
X0757219D01*
X0761746Y0484250D02*
X0762927D01*
X0755211D02*
X0756392D01*
X0687683Y0425679D02*
X0693683D01*
Y0436679D01*
X0687683D02*
X0693683D01*
X0687683Y0425679D02*
Y0436679D01*
Y0437490D02*
X0693683D01*
Y0448490D01*
X0687683D02*
X0693683D01*
X0687683Y0437490D02*
Y0448490D01*
Y0449498D02*
X0693683D01*
Y0460498D01*
X0687683D02*
X0693683D01*
X0687683Y0449498D02*
Y0460498D01*
Y0461309D02*
X0693683D01*
Y0472309D01*
X0687683D02*
X0693683D01*
X0687683Y0461309D02*
Y0472309D01*
X0722888Y0436514D02*
X0728203D01*
Y0440352D01*
Y0445471D02*
Y0449309D01*
X0722888D02*
X0728203D01*
X0742022Y0402380D02*
X0747337D01*
Y0406219D01*
Y0411337D02*
Y0415175D01*
X0742022D02*
X0747337D01*
X0738419Y0418211D02*
X0750624D01*
Y0430415D01*
X0738419D02*
X0750624D01*
X0738419Y0418211D02*
Y0430415D01*
D44*
X0405246Y0413135D02*
G03*
X0405246Y0410247I0000000J-0001444D01*
G01*
X0413809Y0398089D02*
Y0402222D01*
X0421486D01*
Y0398089D02*
Y0402222D01*
X0413809Y0398089D02*
X0421486D01*
X0405896Y0435805D02*
X0410030D01*
Y0428128D02*
Y0435805D01*
X0405896Y0428128D02*
X0410030D01*
X0405896D02*
Y0435805D01*
X0400856D02*
X0404990D01*
Y0428128D02*
Y0435805D01*
X0400856Y0428128D02*
X0404990D01*
X0400856D02*
Y0435805D01*
X0413730Y0423719D02*
Y0427852D01*
X0406053Y0423719D02*
X0413730D01*
X0406053D02*
Y0427852D01*
X0413730D01*
X0438238Y0477557D02*
X0445718D01*
X0438238Y0473620D02*
Y0477557D01*
Y0473620D02*
X0445718D01*
Y0477557D01*
X0444163Y0500569D02*
Y0504703D01*
X0436486Y0500569D02*
X0444163D01*
X0436486D02*
Y0504703D01*
X0444163D01*
X0436506Y0509053D02*
X0443986D01*
X0436506Y0505116D02*
Y0509053D01*
Y0505116D02*
X0443986D01*
Y0509053D01*
X0444203Y0509467D02*
Y0513600D01*
X0436526Y0509467D02*
X0444203D01*
X0436526D02*
Y0513600D01*
X0444203D01*
X0436545Y0517990D02*
X0444026D01*
X0436545Y0514053D02*
Y0517990D01*
Y0514053D02*
X0444026D01*
Y0517990D01*
X0436506Y0500156D02*
X0443986D01*
X0436506Y0496219D02*
Y0500156D01*
Y0496219D02*
X0443986D01*
Y0500156D01*
X0414065Y0415077D02*
Y0419014D01*
X0406585Y0415077D02*
X0414065D01*
X0406585D02*
Y0419014D01*
X0414065D01*
X0391939Y0446573D02*
X0395876D01*
Y0439093D02*
Y0446573D01*
X0391939Y0439093D02*
X0395876D01*
X0391939D02*
Y0446573D01*
X0383927Y0442971D02*
X0391604D01*
X0383927Y0438837D02*
Y0442971D01*
Y0438837D02*
X0391604D01*
Y0442971D01*
X0391466Y0434526D02*
Y0438463D01*
X0383986Y0434526D02*
X0391466D01*
X0383986D02*
Y0438463D01*
X0391466D01*
Y0430234D02*
Y0434171D01*
X0383986Y0430234D02*
X0391466D01*
X0383986D02*
Y0434171D01*
X0391466D01*
X0382116Y0428325D02*
Y0436002D01*
X0377982D02*
X0382116D01*
X0377982Y0428325D02*
Y0436002D01*
Y0428325D02*
X0382116D01*
X0385364Y0423896D02*
Y0427833D01*
X0377884Y0423896D02*
X0385364D01*
X0377884D02*
Y0427833D01*
X0385364D01*
X0411860Y0402518D02*
Y0406455D01*
X0419341D01*
Y0402518D02*
Y0406455D01*
X0411860Y0402518D02*
X0419341D01*
X0429734Y0441730D02*
Y0445667D01*
X0437215D01*
Y0441730D02*
Y0445667D01*
X0429734Y0441730D02*
X0437215D01*
X0429341D02*
Y0445667D01*
X0421860Y0441730D02*
X0429341D01*
X0421860D02*
Y0445667D01*
X0429341D01*
X0414990Y0406711D02*
Y0414388D01*
X0410856D02*
X0414990D01*
X0410856Y0406711D02*
Y0414388D01*
Y0406711D02*
X0414990D01*
X0405246Y0413135D02*
Y0416612D01*
Y0406770D02*
Y0410248D01*
X0385561Y0406770D02*
Y0416612D01*
X0405246D01*
X0385561Y0406770D02*
X0405246D01*
X0432175Y0504368D02*
X0436112D01*
Y0496888D02*
Y0504368D01*
X0432175Y0496888D02*
X0436112D01*
X0432175D02*
Y0504368D01*
Y0509762D02*
X0436112D01*
X0432175D02*
Y0517242D01*
X0436112D01*
Y0509762D02*
Y0517242D01*
X0421545Y0432911D02*
Y0436848D01*
X0429026D01*
Y0432911D02*
Y0436848D01*
X0421545Y0432911D02*
X0429026D01*
Y0437282D02*
Y0441219D01*
X0421545Y0437282D02*
X0429026D01*
X0421545D02*
Y0441219D01*
X0429026D01*
X0452529Y0406376D02*
Y0410313D01*
X0445049Y0406376D02*
X0452529D01*
X0445049D02*
Y0410313D01*
X0452529D01*
X0445797Y0399683D02*
Y0405195D01*
X0451309Y0399683D02*
Y0405195D01*
X0439636Y0408561D02*
Y0416238D01*
Y0408561D02*
X0443770D01*
Y0416238D01*
X0439636D02*
X0443770D01*
X0435108Y0408561D02*
Y0416238D01*
Y0408561D02*
X0439242D01*
Y0416238D01*
X0435108D02*
X0439242D01*
X0453002Y0409762D02*
X0456939D01*
Y0402282D02*
Y0409762D01*
X0453002Y0402282D02*
X0456939D01*
X0453002D02*
Y0409762D01*
X0451782Y0394994D02*
Y0398932D01*
X0444301Y0394994D02*
X0451782D01*
X0444301D02*
Y0398932D01*
X0451782D01*
X0395915Y0429053D02*
X0399852D01*
X0395915D02*
Y0436534D01*
X0399852D01*
Y0429053D02*
Y0436534D01*
X0416880Y0431435D02*
Y0439112D01*
X0412746D02*
X0416880D01*
X0412746Y0431435D02*
Y0439112D01*
Y0431435D02*
X0416880D01*
X0396348Y0439093D02*
X0400285D01*
X0396348D02*
Y0446573D01*
X0400285D01*
Y0439093D02*
Y0446573D01*
X0421900Y0398187D02*
Y0402124D01*
X0429380D01*
Y0398187D02*
Y0402124D01*
X0421900Y0398187D02*
X0429380D01*
X0406270Y0414329D02*
X0410207D01*
Y0406848D02*
Y0414329D01*
X0406270Y0406848D02*
X0410207D01*
X0406270D02*
Y0414329D01*
X0415404Y0414408D02*
X0419341D01*
Y0406927D02*
Y0414408D01*
X0415404Y0406927D02*
X0419341D01*
X0415404D02*
Y0414408D01*
X0510759Y0413135D02*
G03*
X0510759Y0410247I0000000J-0001444D01*
G01*
X0519322Y0398089D02*
Y0402222D01*
X0526999D01*
Y0398089D02*
Y0402222D01*
X0519322Y0398089D02*
X0526999D01*
X0511409Y0435805D02*
X0515543D01*
Y0428128D02*
Y0435805D01*
X0511409Y0428128D02*
X0515543D01*
X0511409D02*
Y0435805D01*
X0506369D02*
X0510503D01*
Y0428128D02*
Y0435805D01*
X0506369Y0428128D02*
X0510503D01*
X0506369D02*
Y0435805D01*
X0519243Y0423719D02*
Y0427852D01*
X0511566Y0423719D02*
X0519243D01*
X0511566D02*
Y0427852D01*
X0519243D01*
X0543751Y0477557D02*
X0551232D01*
X0543751Y0473620D02*
Y0477557D01*
Y0473620D02*
X0551232D01*
Y0477557D01*
X0549677Y0500569D02*
Y0504703D01*
X0541999Y0500569D02*
X0549677D01*
X0541999D02*
Y0504703D01*
X0549677D01*
X0542019Y0509053D02*
X0549499D01*
X0542019Y0505116D02*
Y0509053D01*
Y0505116D02*
X0549499D01*
Y0509053D01*
X0549716Y0509467D02*
Y0513600D01*
X0542039Y0509467D02*
X0549716D01*
X0542039D02*
Y0513600D01*
X0549716D01*
X0542058Y0517990D02*
X0549539D01*
X0542058Y0514053D02*
Y0517990D01*
Y0514053D02*
X0549539D01*
Y0517990D01*
X0542019Y0500156D02*
X0549499D01*
X0542019Y0496219D02*
Y0500156D01*
Y0496219D02*
X0549499D01*
Y0500156D01*
X0519578Y0415077D02*
Y0419014D01*
X0512098Y0415077D02*
X0519578D01*
X0512098D02*
Y0419014D01*
X0519578D01*
X0497452Y0446573D02*
X0501389D01*
Y0439093D02*
Y0446573D01*
X0497452Y0439093D02*
X0501389D01*
X0497452D02*
Y0446573D01*
X0489440Y0442971D02*
X0497118D01*
X0489440Y0438837D02*
Y0442971D01*
Y0438837D02*
X0497118D01*
Y0442971D01*
X0496980Y0434526D02*
Y0438463D01*
X0489499Y0434526D02*
X0496980D01*
X0489499D02*
Y0438463D01*
X0496980D01*
Y0430234D02*
Y0434171D01*
X0489499Y0430234D02*
X0496980D01*
X0489499D02*
Y0434171D01*
X0496980D01*
X0487629Y0428325D02*
Y0436002D01*
X0483496D02*
X0487629D01*
X0483496Y0428325D02*
Y0436002D01*
Y0428325D02*
X0487629D01*
X0490877Y0423896D02*
Y0427833D01*
X0483397Y0423896D02*
X0490877D01*
X0483397D02*
Y0427833D01*
X0490877D01*
X0517373Y0402518D02*
Y0406455D01*
X0524854D01*
Y0402518D02*
Y0406455D01*
X0517373Y0402518D02*
X0524854D01*
X0535247Y0441730D02*
Y0445667D01*
X0542728D01*
Y0441730D02*
Y0445667D01*
X0535247Y0441730D02*
X0542728D01*
X0534854D02*
Y0445667D01*
X0527373Y0441730D02*
X0534854D01*
X0527373D02*
Y0445667D01*
X0534854D01*
X0520503Y0406711D02*
Y0414388D01*
X0516369D02*
X0520503D01*
X0516369Y0406711D02*
Y0414388D01*
Y0406711D02*
X0520503D01*
X0510759Y0413135D02*
Y0416612D01*
Y0406770D02*
Y0410248D01*
X0491074Y0406770D02*
Y0416612D01*
X0510759D01*
X0491074Y0406770D02*
X0510759D01*
X0537688Y0504368D02*
X0541625D01*
Y0496888D02*
Y0504368D01*
X0537688Y0496888D02*
X0541625D01*
X0537688D02*
Y0504368D01*
Y0509762D02*
X0541625D01*
X0537688D02*
Y0517242D01*
X0541625D01*
Y0509762D02*
Y0517242D01*
X0527058Y0432911D02*
Y0436848D01*
X0534539D01*
Y0432911D02*
Y0436848D01*
X0527058Y0432911D02*
X0534539D01*
Y0437282D02*
Y0441219D01*
X0527058Y0437282D02*
X0534539D01*
X0527058D02*
Y0441219D01*
X0534539D01*
X0558043Y0406376D02*
Y0410313D01*
X0550562Y0406376D02*
X0558043D01*
X0550562D02*
Y0410313D01*
X0558043D01*
X0551310Y0399683D02*
Y0405195D01*
X0556822Y0399683D02*
Y0405195D01*
X0545149Y0408561D02*
Y0416238D01*
Y0408561D02*
X0549283D01*
Y0416238D01*
X0545149D02*
X0549283D01*
X0540622Y0408561D02*
Y0416238D01*
Y0408561D02*
X0544755D01*
Y0416238D01*
X0540622D02*
X0544755D01*
X0558515Y0409762D02*
X0562452D01*
Y0402282D02*
Y0409762D01*
X0558515Y0402282D02*
X0562452D01*
X0558515D02*
Y0409762D01*
X0557295Y0394994D02*
Y0398932D01*
X0549814Y0394994D02*
X0557295D01*
X0549814D02*
Y0398932D01*
X0557295D01*
X0501429Y0429053D02*
X0505366D01*
X0501429D02*
Y0436534D01*
X0505366D01*
Y0429053D02*
Y0436534D01*
X0522393Y0431435D02*
Y0439112D01*
X0518259D02*
X0522393D01*
X0518259Y0431435D02*
Y0439112D01*
Y0431435D02*
X0522393D01*
X0501862Y0439093D02*
X0505799D01*
X0501862D02*
Y0446573D01*
X0505799D01*
Y0439093D02*
Y0446573D01*
X0527413Y0398187D02*
Y0402124D01*
X0534893D01*
Y0398187D02*
Y0402124D01*
X0527413Y0398187D02*
X0534893D01*
X0511783Y0414329D02*
X0515720D01*
Y0406848D02*
Y0414329D01*
X0511783Y0406848D02*
X0515720D01*
X0511783D02*
Y0414329D01*
X0520917Y0414408D02*
X0524854D01*
Y0406927D02*
Y0414408D01*
X0520917Y0406927D02*
X0524854D01*
X0520917D02*
Y0414408D01*
X0616272Y0413135D02*
G03*
X0616272Y0410247I0000000J-0001444D01*
G01*
X0624835Y0398089D02*
Y0402222D01*
X0632513D01*
Y0398089D02*
Y0402222D01*
X0624835Y0398089D02*
X0632513D01*
X0616922Y0435805D02*
X0621056D01*
Y0428128D02*
Y0435805D01*
X0616922Y0428128D02*
X0621056D01*
X0616922D02*
Y0435805D01*
X0611883D02*
X0616017D01*
Y0428128D02*
Y0435805D01*
X0611883Y0428128D02*
X0616017D01*
X0611883D02*
Y0435805D01*
X0624757Y0423719D02*
Y0427852D01*
X0617080Y0423719D02*
X0624757D01*
X0617080D02*
Y0427852D01*
X0624757D01*
X0649265Y0477557D02*
X0656745D01*
X0649265Y0473620D02*
Y0477557D01*
Y0473620D02*
X0656745D01*
Y0477557D01*
X0655190Y0500569D02*
Y0504703D01*
X0647513Y0500569D02*
X0655190D01*
X0647513D02*
Y0504703D01*
X0655190D01*
X0647532Y0509053D02*
X0655013D01*
X0647532Y0505116D02*
Y0509053D01*
Y0505116D02*
X0655013D01*
Y0509053D01*
X0655229Y0509467D02*
Y0513600D01*
X0647552Y0509467D02*
X0655229D01*
X0647552D02*
Y0513600D01*
X0655229D01*
X0647572Y0517990D02*
X0655052D01*
X0647572Y0514053D02*
Y0517990D01*
Y0514053D02*
X0655052D01*
Y0517990D01*
X0647532Y0500156D02*
X0655013D01*
X0647532Y0496219D02*
Y0500156D01*
Y0496219D02*
X0655013D01*
Y0500156D01*
X0625091Y0415077D02*
Y0419014D01*
X0617611Y0415077D02*
X0625091D01*
X0617611D02*
Y0419014D01*
X0625091D01*
X0602965Y0446573D02*
X0606902D01*
Y0439093D02*
Y0446573D01*
X0602965Y0439093D02*
X0606902D01*
X0602965D02*
Y0446573D01*
X0594954Y0442971D02*
X0602631D01*
X0594954Y0438837D02*
Y0442971D01*
Y0438837D02*
X0602631D01*
Y0442971D01*
X0602493Y0434526D02*
Y0438463D01*
X0595013Y0434526D02*
X0602493D01*
X0595013D02*
Y0438463D01*
X0602493D01*
Y0430234D02*
Y0434171D01*
X0595013Y0430234D02*
X0602493D01*
X0595013D02*
Y0434171D01*
X0602493D01*
X0593143Y0428325D02*
Y0436002D01*
X0589009D02*
X0593143D01*
X0589009Y0428325D02*
Y0436002D01*
Y0428325D02*
X0593143D01*
X0596391Y0423896D02*
Y0427833D01*
X0588910Y0423896D02*
X0596391D01*
X0588910D02*
Y0427833D01*
X0596391D01*
X0622887Y0402518D02*
Y0406455D01*
X0630367D01*
Y0402518D02*
Y0406455D01*
X0622887Y0402518D02*
X0630367D01*
X0640761Y0441730D02*
Y0445667D01*
X0648241D01*
Y0441730D02*
Y0445667D01*
X0640761Y0441730D02*
X0648241D01*
X0640367D02*
Y0445667D01*
X0632887Y0441730D02*
X0640367D01*
X0632887D02*
Y0445667D01*
X0640367D01*
X0626017Y0406711D02*
Y0414388D01*
X0621883D02*
X0626017D01*
X0621883Y0406711D02*
Y0414388D01*
Y0406711D02*
X0626017D01*
X0616272Y0413135D02*
Y0416612D01*
Y0406770D02*
Y0410248D01*
X0596587Y0406770D02*
Y0416612D01*
X0616272D01*
X0596587Y0406770D02*
X0616272D01*
X0643202Y0504368D02*
X0647139D01*
Y0496888D02*
Y0504368D01*
X0643202Y0496888D02*
X0647139D01*
X0643202D02*
Y0504368D01*
Y0509762D02*
X0647139D01*
X0643202D02*
Y0517242D01*
X0647139D01*
Y0509762D02*
Y0517242D01*
X0632572Y0432911D02*
Y0436848D01*
X0640052D01*
Y0432911D02*
Y0436848D01*
X0632572Y0432911D02*
X0640052D01*
Y0437282D02*
Y0441219D01*
X0632572Y0437282D02*
X0640052D01*
X0632572D02*
Y0441219D01*
X0640052D01*
X0663556Y0406376D02*
Y0410313D01*
X0656076Y0406376D02*
X0663556D01*
X0656076D02*
Y0410313D01*
X0663556D01*
X0656824Y0399683D02*
Y0405195D01*
X0662335Y0399683D02*
Y0405195D01*
X0650662Y0408561D02*
Y0416238D01*
Y0408561D02*
X0654796D01*
Y0416238D01*
X0650662D02*
X0654796D01*
X0646135Y0408561D02*
Y0416238D01*
Y0408561D02*
X0650269D01*
Y0416238D01*
X0646135D02*
X0650269D01*
X0664028Y0409762D02*
X0667965D01*
Y0402282D02*
Y0409762D01*
X0664028Y0402282D02*
X0667965D01*
X0664028D02*
Y0409762D01*
X0662808Y0394994D02*
Y0398932D01*
X0655328Y0394994D02*
X0662808D01*
X0655328D02*
Y0398932D01*
X0662808D01*
X0606942Y0429053D02*
X0610879D01*
X0606942D02*
Y0436534D01*
X0610879D01*
Y0429053D02*
Y0436534D01*
X0627906Y0431435D02*
Y0439112D01*
X0623772D02*
X0627906D01*
X0623772Y0431435D02*
Y0439112D01*
Y0431435D02*
X0627906D01*
X0607375Y0439093D02*
X0611312D01*
X0607375D02*
Y0446573D01*
X0611312D01*
Y0439093D02*
Y0446573D01*
X0632926Y0398187D02*
Y0402124D01*
X0640406D01*
Y0398187D02*
Y0402124D01*
X0632926Y0398187D02*
X0640406D01*
X0617296Y0414329D02*
X0621233D01*
Y0406848D02*
Y0414329D01*
X0617296Y0406848D02*
X0621233D01*
X0617296D02*
Y0414329D01*
X0626430Y0414408D02*
X0630367D01*
Y0406927D02*
Y0414408D01*
X0626430Y0406927D02*
X0630367D01*
X0626430D02*
Y0414408D01*
X0721786Y0413135D02*
G03*
X0721786Y0410247I0000000J-0001444D01*
G01*
X0730349Y0398089D02*
Y0402222D01*
X0738026D01*
Y0398089D02*
Y0402222D01*
X0730349Y0398089D02*
X0738026D01*
X0722435Y0435805D02*
X0726569D01*
Y0428128D02*
Y0435805D01*
X0722435Y0428128D02*
X0726569D01*
X0722435D02*
Y0435805D01*
X0717396D02*
X0721530D01*
Y0428128D02*
Y0435805D01*
X0717396Y0428128D02*
X0721530D01*
X0717396D02*
Y0435805D01*
X0730270Y0423719D02*
Y0427852D01*
X0722593Y0423719D02*
X0730270D01*
X0722593D02*
Y0427852D01*
X0730270D01*
X0754778Y0477557D02*
X0762258D01*
X0754778Y0473620D02*
Y0477557D01*
Y0473620D02*
X0762258D01*
Y0477557D01*
X0760703Y0500569D02*
Y0504703D01*
X0753026Y0500569D02*
X0760703D01*
X0753026D02*
Y0504703D01*
X0760703D01*
X0753046Y0509053D02*
X0760526D01*
X0753046Y0505116D02*
Y0509053D01*
Y0505116D02*
X0760526D01*
Y0509053D01*
X0760742Y0509467D02*
Y0513600D01*
X0753065Y0509467D02*
X0760742D01*
X0753065D02*
Y0513600D01*
X0760742D01*
X0753085Y0517990D02*
X0760565D01*
X0753085Y0514053D02*
Y0517990D01*
Y0514053D02*
X0760565D01*
Y0517990D01*
X0753046Y0500156D02*
X0760526D01*
X0753046Y0496219D02*
Y0500156D01*
Y0496219D02*
X0760526D01*
Y0500156D01*
X0730605Y0415077D02*
Y0419014D01*
X0723124Y0415077D02*
X0730605D01*
X0723124D02*
Y0419014D01*
X0730605D01*
X0708479Y0446573D02*
X0712416D01*
Y0439093D02*
Y0446573D01*
X0708479Y0439093D02*
X0712416D01*
X0708479D02*
Y0446573D01*
X0700467Y0442971D02*
X0708144D01*
X0700467Y0438837D02*
Y0442971D01*
Y0438837D02*
X0708144D01*
Y0442971D01*
X0708006Y0434526D02*
Y0438463D01*
X0700526Y0434526D02*
X0708006D01*
X0700526D02*
Y0438463D01*
X0708006D01*
Y0430234D02*
Y0434171D01*
X0700526Y0430234D02*
X0708006D01*
X0700526D02*
Y0434171D01*
X0708006D01*
X0698656Y0428325D02*
Y0436002D01*
X0694522D02*
X0698656D01*
X0694522Y0428325D02*
Y0436002D01*
Y0428325D02*
X0698656D01*
X0701904Y0423896D02*
Y0427833D01*
X0694423Y0423896D02*
X0701904D01*
X0694423D02*
Y0427833D01*
X0701904D01*
X0728400Y0402518D02*
Y0406455D01*
X0735880D01*
Y0402518D02*
Y0406455D01*
X0728400Y0402518D02*
X0735880D01*
X0746274Y0441730D02*
Y0445667D01*
X0753754D01*
Y0441730D02*
Y0445667D01*
X0746274Y0441730D02*
X0753754D01*
X0745880D02*
Y0445667D01*
X0738400Y0441730D02*
X0745880D01*
X0738400D02*
Y0445667D01*
X0745880D01*
X0731530Y0406711D02*
Y0414388D01*
X0727396D02*
X0731530D01*
X0727396Y0406711D02*
Y0414388D01*
Y0406711D02*
X0731530D01*
X0721786Y0413135D02*
Y0416612D01*
Y0406770D02*
Y0410248D01*
X0702101Y0406770D02*
Y0416612D01*
X0721786D01*
X0702101Y0406770D02*
X0721786D01*
X0748715Y0504368D02*
X0752652D01*
Y0496888D02*
Y0504368D01*
X0748715Y0496888D02*
X0752652D01*
X0748715D02*
Y0504368D01*
Y0509762D02*
X0752652D01*
X0748715D02*
Y0517242D01*
X0752652D01*
Y0509762D02*
Y0517242D01*
X0738085Y0432911D02*
Y0436848D01*
X0745565D01*
Y0432911D02*
Y0436848D01*
X0738085Y0432911D02*
X0745565D01*
Y0437282D02*
Y0441219D01*
X0738085Y0437282D02*
X0745565D01*
X0738085D02*
Y0441219D01*
X0745565D01*
X0769069Y0406376D02*
Y0410313D01*
X0761589Y0406376D02*
X0769069D01*
X0761589D02*
Y0410313D01*
X0769069D01*
X0762337Y0399683D02*
Y0405195D01*
X0767849Y0399683D02*
Y0405195D01*
X0756176Y0408561D02*
Y0416238D01*
Y0408561D02*
X0760309D01*
Y0416238D01*
X0756176D02*
X0760309D01*
X0751648Y0408561D02*
Y0416238D01*
Y0408561D02*
X0755782D01*
Y0416238D01*
X0751648D02*
X0755782D01*
X0769542Y0409762D02*
X0773479D01*
Y0402282D02*
Y0409762D01*
X0769542Y0402282D02*
X0773479D01*
X0769542D02*
Y0409762D01*
X0768321Y0394994D02*
Y0398932D01*
X0760841Y0394994D02*
X0768321D01*
X0760841D02*
Y0398932D01*
X0768321D01*
X0712455Y0429053D02*
X0716392D01*
X0712455D02*
Y0436534D01*
X0716392D01*
Y0429053D02*
Y0436534D01*
X0733420Y0431435D02*
Y0439112D01*
X0729286D02*
X0733420D01*
X0729286Y0431435D02*
Y0439112D01*
Y0431435D02*
X0733420D01*
X0712888Y0439093D02*
X0716825D01*
X0712888D02*
Y0446573D01*
X0716825D01*
Y0439093D02*
Y0446573D01*
X0738439Y0398187D02*
Y0402124D01*
X0745920D01*
Y0398187D02*
Y0402124D01*
X0738439Y0398187D02*
X0745920D01*
X0722809Y0414329D02*
X0726746D01*
Y0406848D02*
Y0414329D01*
X0722809Y0406848D02*
X0726746D01*
X0722809D02*
Y0414329D01*
X0731943Y0414408D02*
X0735880D01*
Y0406927D02*
Y0414408D01*
X0731943Y0406927D02*
X0735880D01*
X0731943D02*
Y0414408D01*
D45*
X0438671Y0486115D02*
X0435522D01*
Y0487689D01*
X0436047Y0488213D01*
X0438146D01*
X0438671Y0487689D01*
Y0486115D01*
Y0489263D02*
Y0491362D01*
X0438146D01*
X0436047Y0489263D01*
X0435522D01*
X0444641Y0518896D02*
Y0522045D01*
X0443067D01*
X0442542Y0521520D01*
Y0520471D01*
X0443067Y0519946D01*
X0444641D01*
X0443591D02*
X0442542Y0518896D01*
X0439918D02*
Y0522045D01*
X0441492Y0520471D01*
X0439393D01*
X0436769Y0518896D02*
Y0522045D01*
X0438344Y0520471D01*
X0436245D01*
X0435586Y0505353D02*
Y0508502D01*
X0434012D01*
X0433487Y0507977D01*
Y0506927D01*
X0434012Y0506402D01*
X0435586D01*
X0434536D02*
X0433487Y0505353D01*
X0430863D02*
Y0508502D01*
X0432437Y0506927D01*
X0430338D01*
X0429289Y0507977D02*
X0428764Y0508502D01*
X0427714D01*
X0427190Y0507977D01*
Y0507452D01*
X0427714Y0506927D01*
X0428239D01*
X0427714D01*
X0427190Y0506402D01*
Y0505878D01*
X0427714Y0505353D01*
X0428764D01*
X0429289Y0505878D01*
X0437187Y0474014D02*
Y0477163D01*
X0435613D01*
X0435088Y0476638D01*
Y0475589D01*
X0435613Y0475064D01*
X0437187D01*
X0436138D02*
X0435088Y0474014D01*
X0432464D02*
Y0477163D01*
X0434038Y0475589D01*
X0431939D01*
X0430890Y0474014D02*
X0429840D01*
X0430365D01*
Y0477163D01*
X0430890Y0476638D01*
X0411846Y0422465D02*
X0412371Y0422990D01*
X0413421D01*
X0413945Y0422465D01*
Y0420366D01*
X0413421Y0419841D01*
X0412371D01*
X0411846Y0420366D01*
X0410797Y0419841D02*
X0409747D01*
X0410272D01*
Y0422990D01*
X0410797Y0422465D01*
X0406599Y0419841D02*
Y0422990D01*
X0408173Y0421415D01*
X0406074D01*
X0431033Y0504708D02*
X0427884D01*
Y0503134D01*
X0428409Y0502609D01*
X0429459D01*
X0429983Y0503134D01*
Y0504708D01*
Y0503658D02*
X0431033Y0502609D01*
X0428409Y0501559D02*
X0427884Y0501035D01*
Y0499985D01*
X0428409Y0499460D01*
X0428934D01*
X0429459Y0499985D01*
Y0500510D01*
Y0499985D01*
X0429983Y0499460D01*
X0430508D01*
X0431033Y0499985D01*
Y0501035D01*
X0430508Y0501559D01*
X0428409Y0498411D02*
X0427884Y0497886D01*
Y0496837D01*
X0428409Y0496312D01*
X0428934D01*
X0429459Y0496837D01*
X0429983Y0496312D01*
X0430508D01*
X0431033Y0496837D01*
Y0497886D01*
X0430508Y0498411D01*
X0429983D01*
X0429459Y0497886D01*
X0428934Y0498411D01*
X0428409D01*
X0429459Y0497886D02*
Y0496837D01*
X0431230Y0517228D02*
X0428081D01*
Y0515653D01*
X0428606Y0515129D01*
X0429656D01*
X0430180Y0515653D01*
Y0517228D01*
Y0516178D02*
X0431230Y0515129D01*
X0428606Y0514079D02*
X0428081Y0513554D01*
Y0512505D01*
X0428606Y0511980D01*
X0429131D01*
X0429656Y0512505D01*
Y0513030D01*
Y0512505D01*
X0430180Y0511980D01*
X0430705D01*
X0431230Y0512505D01*
Y0513554D01*
X0430705Y0514079D01*
X0428081Y0510931D02*
Y0508832D01*
X0428606D01*
X0430705Y0510931D01*
X0431230D01*
X0384589Y0409149D02*
X0381965D01*
X0381441Y0409673D01*
Y0410723D01*
X0381965Y0411248D01*
X0384589D01*
X0381441Y0414396D02*
Y0412297D01*
X0383540Y0414396D01*
X0384065D01*
X0384589Y0413871D01*
Y0412822D01*
X0384065Y0412297D01*
X0440928Y0433344D02*
Y0430720D01*
X0440403Y0430196D01*
X0439354D01*
X0438829Y0430720D01*
Y0433344D01*
X0437779Y0430196D02*
X0436730D01*
X0437254D01*
Y0433344D01*
X0437779Y0432819D01*
X0417909Y0449250D02*
X0415810D01*
X0416860D01*
Y0446101D01*
X0413186D02*
Y0449250D01*
X0414761Y0447675D01*
X0412662D01*
X0441900Y0404814D02*
Y0402715D01*
Y0403764D01*
X0445049D01*
Y0401665D02*
Y0400616D01*
Y0401140D01*
X0441900D01*
X0442425Y0401665D01*
X0378199Y0438517D02*
X0381348D01*
Y0440091D01*
X0380823Y0440616D01*
X0379774D01*
X0379249Y0440091D01*
Y0438517D01*
Y0439566D02*
X0378199Y0440616D01*
Y0443764D02*
Y0441665D01*
X0380298Y0443764D01*
X0380823D01*
X0381348Y0443239D01*
Y0442190D01*
X0380823Y0441665D01*
X0381348Y0446913D02*
Y0444814D01*
X0379774D01*
X0380298Y0445863D01*
Y0446388D01*
X0379774Y0446913D01*
X0378724D01*
X0378199Y0446388D01*
Y0445338D01*
X0378724Y0444814D01*
X0407176Y0398031D02*
X0410324D01*
Y0399605D01*
X0409799Y0400130D01*
X0408750D01*
X0408225Y0399605D01*
Y0398031D01*
Y0399080D02*
X0407176Y0400130D01*
Y0401180D02*
Y0402229D01*
Y0401704D01*
X0410324D01*
X0409799Y0401180D01*
X0410324Y0403803D02*
Y0405902D01*
X0409799D01*
X0407700Y0403803D01*
X0407176D01*
X0443106Y0394959D02*
Y0398108D01*
X0441532D01*
X0441007Y0397583D01*
Y0396534D01*
X0441532Y0396009D01*
X0443106D01*
X0442057D02*
X0441007Y0394959D01*
X0439958Y0398108D02*
X0437858D01*
Y0397583D01*
X0439958Y0395484D01*
Y0394959D01*
X0453317Y0411154D02*
X0456466D01*
Y0412728D01*
X0455941Y0413253D01*
X0454892D01*
X0454367Y0412728D01*
Y0411154D01*
Y0412203D02*
X0453317Y0413253D01*
X0456466Y0416401D02*
X0455941Y0415352D01*
X0454892Y0414302D01*
X0453842D01*
X0453317Y0414827D01*
Y0415877D01*
X0453842Y0416401D01*
X0454367D01*
X0454892Y0415877D01*
Y0414302D01*
X0435547Y0433345D02*
Y0436494D01*
X0433973D01*
X0433448Y0435969D01*
Y0434919D01*
X0433973Y0434395D01*
X0435547D01*
X0434497D02*
X0433448Y0433345D01*
X0430299Y0436494D02*
X0432398D01*
Y0434919D01*
X0431349Y0435444D01*
X0430824D01*
X0430299Y0434919D01*
Y0433870D01*
X0430824Y0433345D01*
X0431874D01*
X0432398Y0433870D01*
X0451019Y0411180D02*
Y0414328D01*
X0449445D01*
X0448920Y0413804D01*
Y0412754D01*
X0449445Y0412229D01*
X0451019D01*
X0449970D02*
X0448920Y0411180D01*
X0446297D02*
Y0414328D01*
X0447871Y0412754D01*
X0445772D01*
X0435547Y0437676D02*
Y0440824D01*
X0433973D01*
X0433448Y0440300D01*
Y0439250D01*
X0433973Y0438725D01*
X0435547D01*
X0434497D02*
X0433448Y0437676D01*
X0432398Y0440300D02*
X0431874Y0440824D01*
X0430824D01*
X0430299Y0440300D01*
Y0439775D01*
X0430824Y0439250D01*
X0431349D01*
X0430824D01*
X0430299Y0438725D01*
Y0438201D01*
X0430824Y0437676D01*
X0431874D01*
X0432398Y0438201D01*
X0427949Y0446455D02*
Y0449604D01*
X0426374D01*
X0425849Y0449079D01*
Y0448030D01*
X0426374Y0447505D01*
X0427949D01*
X0426899D02*
X0425849Y0446455D01*
X0422701D02*
X0424800D01*
X0422701Y0448554D01*
Y0449079D01*
X0423226Y0449604D01*
X0424275D01*
X0424800Y0449079D01*
X0436164Y0446416D02*
Y0449565D01*
X0434590D01*
X0434065Y0449040D01*
Y0447990D01*
X0434590Y0447466D01*
X0436164D01*
X0435114D02*
X0434065Y0446416D01*
X0433015D02*
X0431966D01*
X0432491D01*
Y0449565D01*
X0433015Y0449040D01*
X0457345Y0519290D02*
Y0522439D01*
X0455771D01*
X0455246Y0521914D01*
Y0520864D01*
X0455771Y0520339D01*
X0457345D01*
X0454197Y0519290D02*
X0453147D01*
X0453672D01*
Y0522439D01*
X0454197Y0521914D01*
X0388854Y0446402D02*
X0389379Y0446927D01*
X0390429D01*
X0390953Y0446402D01*
Y0444303D01*
X0390429Y0443778D01*
X0389379D01*
X0388854Y0444303D01*
X0387805Y0443778D02*
X0386755D01*
X0387280D01*
Y0446927D01*
X0387805Y0446402D01*
X0385181D02*
X0384656Y0446927D01*
X0383607D01*
X0383082Y0446402D01*
Y0444303D01*
X0383607Y0443778D01*
X0384656D01*
X0385181Y0444303D01*
Y0446402D01*
X0418291Y0396756D02*
X0418815Y0397281D01*
X0419865D01*
X0420390Y0396756D01*
Y0394657D01*
X0419865Y0394132D01*
X0418815D01*
X0418291Y0394657D01*
X0415142Y0397281D02*
X0416191Y0396756D01*
X0417241Y0395707D01*
Y0394657D01*
X0416716Y0394132D01*
X0415667D01*
X0415142Y0394657D01*
Y0395182D01*
X0415667Y0395707D01*
X0417241D01*
X0440390Y0404513D02*
X0440915Y0403988D01*
Y0402938D01*
X0440390Y0402414D01*
X0438291D01*
X0437766Y0402938D01*
Y0403988D01*
X0438291Y0404513D01*
X0437766Y0407661D02*
Y0405562D01*
X0439865Y0407661D01*
X0440390D01*
X0440915Y0407136D01*
Y0406087D01*
X0440390Y0405562D01*
X0436335Y0405274D02*
X0436860Y0404749D01*
Y0403699D01*
X0436335Y0403175D01*
X0434236D01*
X0433711Y0403699D01*
Y0404749D01*
X0434236Y0405274D01*
X0433711Y0406323D02*
Y0407373D01*
Y0406848D01*
X0436860D01*
X0436335Y0406323D01*
X0544184Y0486115D02*
X0541035D01*
Y0487689D01*
X0541560Y0488213D01*
X0543659D01*
X0544184Y0487689D01*
Y0486115D01*
Y0489263D02*
Y0491362D01*
X0543659D01*
X0541560Y0489263D01*
X0541035D01*
X0550154Y0518896D02*
Y0522045D01*
X0548580D01*
X0548055Y0521520D01*
Y0520471D01*
X0548580Y0519946D01*
X0550154D01*
X0549105D02*
X0548055Y0518896D01*
X0545431D02*
Y0522045D01*
X0547006Y0520471D01*
X0544907D01*
X0542283Y0518896D02*
Y0522045D01*
X0543857Y0520471D01*
X0541758D01*
X0541099Y0505353D02*
Y0508502D01*
X0539525D01*
X0539000Y0507977D01*
Y0506927D01*
X0539525Y0506402D01*
X0541099D01*
X0540050D02*
X0539000Y0505353D01*
X0536376D02*
Y0508502D01*
X0537951Y0506927D01*
X0535851D01*
X0534802Y0507977D02*
X0534277Y0508502D01*
X0533228D01*
X0532703Y0507977D01*
Y0507452D01*
X0533228Y0506927D01*
X0533752D01*
X0533228D01*
X0532703Y0506402D01*
Y0505878D01*
X0533228Y0505353D01*
X0534277D01*
X0534802Y0505878D01*
X0542700Y0474014D02*
Y0477163D01*
X0541126D01*
X0540601Y0476638D01*
Y0475589D01*
X0541126Y0475064D01*
X0542700D01*
X0541651D02*
X0540601Y0474014D01*
X0537977D02*
Y0477163D01*
X0539552Y0475589D01*
X0537453D01*
X0536403Y0474014D02*
X0535354D01*
X0535878D01*
Y0477163D01*
X0536403Y0476638D01*
X0517360Y0422465D02*
X0517884Y0422990D01*
X0518934D01*
X0519459Y0422465D01*
Y0420366D01*
X0518934Y0419841D01*
X0517884D01*
X0517360Y0420366D01*
X0516310Y0419841D02*
X0515261D01*
X0515785D01*
Y0422990D01*
X0516310Y0422465D01*
X0512112Y0419841D02*
Y0422990D01*
X0513686Y0421415D01*
X0511587D01*
X0536546Y0504708D02*
X0533397D01*
Y0503134D01*
X0533922Y0502609D01*
X0534972D01*
X0535497Y0503134D01*
Y0504708D01*
Y0503658D02*
X0536546Y0502609D01*
X0533922Y0501559D02*
X0533397Y0501035D01*
Y0499985D01*
X0533922Y0499460D01*
X0534447D01*
X0534972Y0499985D01*
Y0500510D01*
Y0499985D01*
X0535497Y0499460D01*
X0536021D01*
X0536546Y0499985D01*
Y0501035D01*
X0536021Y0501559D01*
X0533922Y0498411D02*
X0533397Y0497886D01*
Y0496837D01*
X0533922Y0496312D01*
X0534447D01*
X0534972Y0496837D01*
X0535497Y0496312D01*
X0536021D01*
X0536546Y0496837D01*
Y0497886D01*
X0536021Y0498411D01*
X0535497D01*
X0534972Y0497886D01*
X0534447Y0498411D01*
X0533922D01*
X0534972Y0497886D02*
Y0496837D01*
X0536743Y0517228D02*
X0533594D01*
Y0515653D01*
X0534119Y0515129D01*
X0535169D01*
X0535694Y0515653D01*
Y0517228D01*
Y0516178D02*
X0536743Y0515129D01*
X0534119Y0514079D02*
X0533594Y0513554D01*
Y0512505D01*
X0534119Y0511980D01*
X0534644D01*
X0535169Y0512505D01*
Y0513030D01*
Y0512505D01*
X0535694Y0511980D01*
X0536218D01*
X0536743Y0512505D01*
Y0513554D01*
X0536218Y0514079D01*
X0533594Y0510931D02*
Y0508832D01*
X0534119D01*
X0536218Y0510931D01*
X0536743D01*
X0490103Y0409149D02*
X0487479D01*
X0486954Y0409673D01*
Y0410723D01*
X0487479Y0411248D01*
X0490103D01*
X0486954Y0414396D02*
Y0412297D01*
X0489053Y0414396D01*
X0489578D01*
X0490103Y0413871D01*
Y0412822D01*
X0489578Y0412297D01*
X0546441Y0433344D02*
Y0430720D01*
X0545916Y0430196D01*
X0544867D01*
X0544342Y0430720D01*
Y0433344D01*
X0543292Y0430196D02*
X0542243D01*
X0542768D01*
Y0433344D01*
X0543292Y0432819D01*
X0523422Y0449250D02*
X0521323D01*
X0522373D01*
Y0446101D01*
X0518700D02*
Y0449250D01*
X0520274Y0447675D01*
X0518175D01*
X0547413Y0404814D02*
Y0402715D01*
Y0403764D01*
X0550562D01*
Y0401665D02*
Y0400616D01*
Y0401140D01*
X0547413D01*
X0547938Y0401665D01*
X0483712Y0438517D02*
X0486861D01*
Y0440091D01*
X0486336Y0440616D01*
X0485287D01*
X0484762Y0440091D01*
Y0438517D01*
Y0439566D02*
X0483712Y0440616D01*
Y0443764D02*
Y0441665D01*
X0485812Y0443764D01*
X0486336D01*
X0486861Y0443239D01*
Y0442190D01*
X0486336Y0441665D01*
X0486861Y0446913D02*
Y0444814D01*
X0485287D01*
X0485812Y0445863D01*
Y0446388D01*
X0485287Y0446913D01*
X0484237D01*
X0483712Y0446388D01*
Y0445338D01*
X0484237Y0444814D01*
X0512689Y0398031D02*
X0515837D01*
Y0399605D01*
X0515313Y0400130D01*
X0514263D01*
X0513738Y0399605D01*
Y0398031D01*
Y0399080D02*
X0512689Y0400130D01*
Y0401180D02*
Y0402229D01*
Y0401704D01*
X0515837D01*
X0515313Y0401180D01*
X0515837Y0403803D02*
Y0405902D01*
X0515313D01*
X0513214Y0403803D01*
X0512689D01*
X0548619Y0394959D02*
Y0398108D01*
X0547045D01*
X0546520Y0397583D01*
Y0396534D01*
X0547045Y0396009D01*
X0548619D01*
X0547570D02*
X0546520Y0394959D01*
X0545471Y0398108D02*
X0543372D01*
Y0397583D01*
X0545471Y0395484D01*
Y0394959D01*
X0558831Y0411154D02*
X0561979D01*
Y0412728D01*
X0561454Y0413253D01*
X0560405D01*
X0559880Y0412728D01*
Y0411154D01*
Y0412203D02*
X0558831Y0413253D01*
X0561979Y0416401D02*
X0561454Y0415352D01*
X0560405Y0414302D01*
X0559355D01*
X0558831Y0414827D01*
Y0415877D01*
X0559355Y0416401D01*
X0559880D01*
X0560405Y0415877D01*
Y0414302D01*
X0541060Y0433345D02*
Y0436494D01*
X0539486D01*
X0538961Y0435969D01*
Y0434919D01*
X0539486Y0434395D01*
X0541060D01*
X0540011D02*
X0538961Y0433345D01*
X0535813Y0436494D02*
X0537912D01*
Y0434919D01*
X0536862Y0435444D01*
X0536337D01*
X0535813Y0434919D01*
Y0433870D01*
X0536337Y0433345D01*
X0537387D01*
X0537912Y0433870D01*
X0556533Y0411180D02*
Y0414328D01*
X0554958D01*
X0554434Y0413804D01*
Y0412754D01*
X0554958Y0412229D01*
X0556533D01*
X0555483D02*
X0554434Y0411180D01*
X0551810D02*
Y0414328D01*
X0553384Y0412754D01*
X0551285D01*
X0541060Y0437676D02*
Y0440824D01*
X0539486D01*
X0538961Y0440300D01*
Y0439250D01*
X0539486Y0438725D01*
X0541060D01*
X0540011D02*
X0538961Y0437676D01*
X0537912Y0440300D02*
X0537387Y0440824D01*
X0536337D01*
X0535813Y0440300D01*
Y0439775D01*
X0536337Y0439250D01*
X0536862D01*
X0536337D01*
X0535813Y0438725D01*
Y0438201D01*
X0536337Y0437676D01*
X0537387D01*
X0537912Y0438201D01*
X0533462Y0446455D02*
Y0449604D01*
X0531887D01*
X0531363Y0449079D01*
Y0448030D01*
X0531887Y0447505D01*
X0533462D01*
X0532412D02*
X0531363Y0446455D01*
X0528214D02*
X0530313D01*
X0528214Y0448554D01*
Y0449079D01*
X0528739Y0449604D01*
X0529788D01*
X0530313Y0449079D01*
X0541677Y0446416D02*
Y0449565D01*
X0540103D01*
X0539578Y0449040D01*
Y0447990D01*
X0540103Y0447466D01*
X0541677D01*
X0540628D02*
X0539578Y0446416D01*
X0538529D02*
X0537479D01*
X0538004D01*
Y0449565D01*
X0538529Y0449040D01*
X0562858Y0519290D02*
Y0522439D01*
X0561284D01*
X0560759Y0521914D01*
Y0520864D01*
X0561284Y0520339D01*
X0562858D01*
X0559710Y0519290D02*
X0558660D01*
X0559185D01*
Y0522439D01*
X0559710Y0521914D01*
X0494368Y0446402D02*
X0494892Y0446927D01*
X0495942D01*
X0496467Y0446402D01*
Y0444303D01*
X0495942Y0443778D01*
X0494892D01*
X0494368Y0444303D01*
X0493318Y0443778D02*
X0492269D01*
X0492793D01*
Y0446927D01*
X0493318Y0446402D01*
X0490694D02*
X0490169Y0446927D01*
X0489120D01*
X0488595Y0446402D01*
Y0444303D01*
X0489120Y0443778D01*
X0490169D01*
X0490694Y0444303D01*
Y0446402D01*
X0523804Y0396756D02*
X0524328Y0397281D01*
X0525378D01*
X0525903Y0396756D01*
Y0394657D01*
X0525378Y0394132D01*
X0524328D01*
X0523804Y0394657D01*
X0520655Y0397281D02*
X0521705Y0396756D01*
X0522754Y0395707D01*
Y0394657D01*
X0522229Y0394132D01*
X0521180D01*
X0520655Y0394657D01*
Y0395182D01*
X0521180Y0395707D01*
X0522754D01*
X0545903Y0404513D02*
X0546428Y0403988D01*
Y0402938D01*
X0545903Y0402414D01*
X0543804D01*
X0543279Y0402938D01*
Y0403988D01*
X0543804Y0404513D01*
X0543279Y0407661D02*
Y0405562D01*
X0545378Y0407661D01*
X0545903D01*
X0546428Y0407136D01*
Y0406087D01*
X0545903Y0405562D01*
X0541848Y0405274D02*
X0542373Y0404749D01*
Y0403699D01*
X0541848Y0403175D01*
X0539749D01*
X0539224Y0403699D01*
Y0404749D01*
X0539749Y0405274D01*
X0539224Y0406323D02*
Y0407373D01*
Y0406848D01*
X0542373D01*
X0541848Y0406323D01*
X0649697Y0486115D02*
X0646549D01*
Y0487689D01*
X0647073Y0488213D01*
X0649172D01*
X0649697Y0487689D01*
Y0486115D01*
Y0489263D02*
Y0491362D01*
X0649172D01*
X0647073Y0489263D01*
X0646549D01*
X0655667Y0518896D02*
Y0522045D01*
X0654093D01*
X0653568Y0521520D01*
Y0520471D01*
X0654093Y0519946D01*
X0655667D01*
X0654618D02*
X0653568Y0518896D01*
X0650945D02*
Y0522045D01*
X0652519Y0520471D01*
X0650420D01*
X0647796Y0518896D02*
Y0522045D01*
X0649370Y0520471D01*
X0647271D01*
X0646612Y0505353D02*
Y0508502D01*
X0645038D01*
X0644513Y0507977D01*
Y0506927D01*
X0645038Y0506402D01*
X0646612D01*
X0645563D02*
X0644513Y0505353D01*
X0641889D02*
Y0508502D01*
X0643464Y0506927D01*
X0641365D01*
X0640315Y0507977D02*
X0639790Y0508502D01*
X0638741D01*
X0638216Y0507977D01*
Y0507452D01*
X0638741Y0506927D01*
X0639266D01*
X0638741D01*
X0638216Y0506402D01*
Y0505878D01*
X0638741Y0505353D01*
X0639790D01*
X0640315Y0505878D01*
X0648213Y0474014D02*
Y0477163D01*
X0646639D01*
X0646114Y0476638D01*
Y0475589D01*
X0646639Y0475064D01*
X0648213D01*
X0647164D02*
X0646114Y0474014D01*
X0643491D02*
Y0477163D01*
X0645065Y0475589D01*
X0642966D01*
X0641916Y0474014D02*
X0640867D01*
X0641392D01*
Y0477163D01*
X0641916Y0476638D01*
X0622873Y0422465D02*
X0623398Y0422990D01*
X0624447D01*
X0624972Y0422465D01*
Y0420366D01*
X0624447Y0419841D01*
X0623398D01*
X0622873Y0420366D01*
X0621823Y0419841D02*
X0620774D01*
X0621299D01*
Y0422990D01*
X0621823Y0422465D01*
X0617625Y0419841D02*
Y0422990D01*
X0619200Y0421415D01*
X0617100D01*
X0642059Y0504708D02*
X0638911D01*
Y0503134D01*
X0639435Y0502609D01*
X0640485D01*
X0641010Y0503134D01*
Y0504708D01*
Y0503658D02*
X0642059Y0502609D01*
X0639435Y0501559D02*
X0638911Y0501035D01*
Y0499985D01*
X0639435Y0499460D01*
X0639960D01*
X0640485Y0499985D01*
Y0500510D01*
Y0499985D01*
X0641010Y0499460D01*
X0641535D01*
X0642059Y0499985D01*
Y0501035D01*
X0641535Y0501559D01*
X0639435Y0498411D02*
X0638911Y0497886D01*
Y0496837D01*
X0639435Y0496312D01*
X0639960D01*
X0640485Y0496837D01*
X0641010Y0496312D01*
X0641535D01*
X0642059Y0496837D01*
Y0497886D01*
X0641535Y0498411D01*
X0641010D01*
X0640485Y0497886D01*
X0639960Y0498411D01*
X0639435D01*
X0640485Y0497886D02*
Y0496837D01*
X0642256Y0517228D02*
X0639108D01*
Y0515653D01*
X0639632Y0515129D01*
X0640682D01*
X0641207Y0515653D01*
Y0517228D01*
Y0516178D02*
X0642256Y0515129D01*
X0639632Y0514079D02*
X0639108Y0513554D01*
Y0512505D01*
X0639632Y0511980D01*
X0640157D01*
X0640682Y0512505D01*
Y0513030D01*
Y0512505D01*
X0641207Y0511980D01*
X0641731D01*
X0642256Y0512505D01*
Y0513554D01*
X0641731Y0514079D01*
X0639108Y0510931D02*
Y0508832D01*
X0639632D01*
X0641731Y0510931D01*
X0642256D01*
X0595616Y0409149D02*
X0592992D01*
X0592467Y0409673D01*
Y0410723D01*
X0592992Y0411248D01*
X0595616D01*
X0592467Y0414396D02*
Y0412297D01*
X0594566Y0414396D01*
X0595091D01*
X0595616Y0413871D01*
Y0412822D01*
X0595091Y0412297D01*
X0651954Y0433344D02*
Y0430720D01*
X0651429Y0430196D01*
X0650380D01*
X0649855Y0430720D01*
Y0433344D01*
X0648806Y0430196D02*
X0647756D01*
X0648281D01*
Y0433344D01*
X0648806Y0432819D01*
X0628936Y0449250D02*
X0626837D01*
X0627886D01*
Y0446101D01*
X0624213D02*
Y0449250D01*
X0625787Y0447675D01*
X0623688D01*
X0652926Y0404814D02*
Y0402715D01*
Y0403764D01*
X0656075D01*
Y0401665D02*
Y0400616D01*
Y0401140D01*
X0652926D01*
X0653451Y0401665D01*
X0589226Y0438517D02*
X0592374D01*
Y0440091D01*
X0591850Y0440616D01*
X0590800D01*
X0590275Y0440091D01*
Y0438517D01*
Y0439566D02*
X0589226Y0440616D01*
Y0443764D02*
Y0441665D01*
X0591325Y0443764D01*
X0591850D01*
X0592374Y0443239D01*
Y0442190D01*
X0591850Y0441665D01*
X0592374Y0446913D02*
Y0444814D01*
X0590800D01*
X0591325Y0445863D01*
Y0446388D01*
X0590800Y0446913D01*
X0589750D01*
X0589226Y0446388D01*
Y0445338D01*
X0589750Y0444814D01*
X0618202Y0398031D02*
X0621351D01*
Y0399605D01*
X0620826Y0400130D01*
X0619776D01*
X0619252Y0399605D01*
Y0398031D01*
Y0399080D02*
X0618202Y0400130D01*
Y0401180D02*
Y0402229D01*
Y0401704D01*
X0621351D01*
X0620826Y0401180D01*
X0621351Y0403803D02*
Y0405902D01*
X0620826D01*
X0618727Y0403803D01*
X0618202D01*
X0654133Y0394959D02*
Y0398108D01*
X0652558D01*
X0652033Y0397583D01*
Y0396534D01*
X0652558Y0396009D01*
X0654133D01*
X0653083D02*
X0652033Y0394959D01*
X0650984Y0398108D02*
X0648885D01*
Y0397583D01*
X0650984Y0395484D01*
Y0394959D01*
X0664344Y0411154D02*
X0667492D01*
Y0412728D01*
X0666968Y0413253D01*
X0665918D01*
X0665393Y0412728D01*
Y0411154D01*
Y0412203D02*
X0664344Y0413253D01*
X0667492Y0416401D02*
X0666968Y0415352D01*
X0665918Y0414302D01*
X0664869D01*
X0664344Y0414827D01*
Y0415877D01*
X0664869Y0416401D01*
X0665393D01*
X0665918Y0415877D01*
Y0414302D01*
X0646573Y0433345D02*
Y0436494D01*
X0644999D01*
X0644474Y0435969D01*
Y0434919D01*
X0644999Y0434395D01*
X0646573D01*
X0645524D02*
X0644474Y0433345D01*
X0641326Y0436494D02*
X0643425D01*
Y0434919D01*
X0642375Y0435444D01*
X0641851D01*
X0641326Y0434919D01*
Y0433870D01*
X0641851Y0433345D01*
X0642900D01*
X0643425Y0433870D01*
X0662046Y0411180D02*
Y0414328D01*
X0660472D01*
X0659947Y0413804D01*
Y0412754D01*
X0660472Y0412229D01*
X0662046D01*
X0660996D02*
X0659947Y0411180D01*
X0657323D02*
Y0414328D01*
X0658897Y0412754D01*
X0656798D01*
X0646573Y0437676D02*
Y0440824D01*
X0644999D01*
X0644474Y0440300D01*
Y0439250D01*
X0644999Y0438725D01*
X0646573D01*
X0645524D02*
X0644474Y0437676D01*
X0643425Y0440300D02*
X0642900Y0440824D01*
X0641851D01*
X0641326Y0440300D01*
Y0439775D01*
X0641851Y0439250D01*
X0642375D01*
X0641851D01*
X0641326Y0438725D01*
Y0438201D01*
X0641851Y0437676D01*
X0642900D01*
X0643425Y0438201D01*
X0638975Y0446455D02*
Y0449604D01*
X0637401D01*
X0636876Y0449079D01*
Y0448030D01*
X0637401Y0447505D01*
X0638975D01*
X0637925D02*
X0636876Y0446455D01*
X0633727D02*
X0635826D01*
X0633727Y0448554D01*
Y0449079D01*
X0634252Y0449604D01*
X0635302D01*
X0635826Y0449079D01*
X0647190Y0446416D02*
Y0449565D01*
X0645616D01*
X0645091Y0449040D01*
Y0447990D01*
X0645616Y0447466D01*
X0647190D01*
X0646141D02*
X0645091Y0446416D01*
X0644042D02*
X0642992D01*
X0643517D01*
Y0449565D01*
X0644042Y0449040D01*
X0668371Y0519290D02*
Y0522439D01*
X0666797D01*
X0666272Y0521914D01*
Y0520864D01*
X0666797Y0520339D01*
X0668371D01*
X0665223Y0519290D02*
X0664173D01*
X0664698D01*
Y0522439D01*
X0665223Y0521914D01*
X0599881Y0446402D02*
X0600406Y0446927D01*
X0601455D01*
X0601980Y0446402D01*
Y0444303D01*
X0601455Y0443778D01*
X0600406D01*
X0599881Y0444303D01*
X0598831Y0443778D02*
X0597782D01*
X0598307D01*
Y0446927D01*
X0598831Y0446402D01*
X0596207D02*
X0595683Y0446927D01*
X0594633D01*
X0594108Y0446402D01*
Y0444303D01*
X0594633Y0443778D01*
X0595683D01*
X0596207Y0444303D01*
Y0446402D01*
X0629317Y0396756D02*
X0629842Y0397281D01*
X0630891D01*
X0631416Y0396756D01*
Y0394657D01*
X0630891Y0394132D01*
X0629842D01*
X0629317Y0394657D01*
X0626168Y0397281D02*
X0627218Y0396756D01*
X0628267Y0395707D01*
Y0394657D01*
X0627743Y0394132D01*
X0626693D01*
X0626168Y0394657D01*
Y0395182D01*
X0626693Y0395707D01*
X0628267D01*
X0651416Y0404513D02*
X0651941Y0403988D01*
Y0402938D01*
X0651416Y0402414D01*
X0649317D01*
X0648793Y0402938D01*
Y0403988D01*
X0649317Y0404513D01*
X0648793Y0407661D02*
Y0405562D01*
X0650892Y0407661D01*
X0651416D01*
X0651941Y0407136D01*
Y0406087D01*
X0651416Y0405562D01*
X0647361Y0405274D02*
X0647886Y0404749D01*
Y0403699D01*
X0647361Y0403175D01*
X0645262D01*
X0644737Y0403699D01*
Y0404749D01*
X0645262Y0405274D01*
X0644737Y0406323D02*
Y0407373D01*
Y0406848D01*
X0647886D01*
X0647361Y0406323D01*
X0755210Y0486115D02*
X0752062D01*
Y0487689D01*
X0752587Y0488213D01*
X0754686D01*
X0755210Y0487689D01*
Y0486115D01*
Y0489263D02*
Y0491362D01*
X0754686D01*
X0752587Y0489263D01*
X0752062D01*
X0761181Y0518896D02*
Y0522045D01*
X0759606D01*
X0759082Y0521520D01*
Y0520471D01*
X0759606Y0519946D01*
X0761181D01*
X0760131D02*
X0759082Y0518896D01*
X0756458D02*
Y0522045D01*
X0758032Y0520471D01*
X0755933D01*
X0753309Y0518896D02*
Y0522045D01*
X0754883Y0520471D01*
X0752784D01*
X0752126Y0505353D02*
Y0508502D01*
X0750551D01*
X0750027Y0507977D01*
Y0506927D01*
X0750551Y0506402D01*
X0752126D01*
X0751076D02*
X0750027Y0505353D01*
X0747403D02*
Y0508502D01*
X0748977Y0506927D01*
X0746878D01*
X0745828Y0507977D02*
X0745304Y0508502D01*
X0744254D01*
X0743729Y0507977D01*
Y0507452D01*
X0744254Y0506927D01*
X0744779D01*
X0744254D01*
X0743729Y0506402D01*
Y0505878D01*
X0744254Y0505353D01*
X0745304D01*
X0745828Y0505878D01*
X0753727Y0474014D02*
Y0477163D01*
X0752152D01*
X0751628Y0476638D01*
Y0475589D01*
X0752152Y0475064D01*
X0753727D01*
X0752677D02*
X0751628Y0474014D01*
X0749004D02*
Y0477163D01*
X0750578Y0475589D01*
X0748479D01*
X0747430Y0474014D02*
X0746380D01*
X0746905D01*
Y0477163D01*
X0747430Y0476638D01*
X0728386Y0422465D02*
X0728911Y0422990D01*
X0729960D01*
X0730485Y0422465D01*
Y0420366D01*
X0729960Y0419841D01*
X0728911D01*
X0728386Y0420366D01*
X0727337Y0419841D02*
X0726287D01*
X0726812D01*
Y0422990D01*
X0727337Y0422465D01*
X0723139Y0419841D02*
Y0422990D01*
X0724713Y0421415D01*
X0722614D01*
X0747573Y0504708D02*
X0744424D01*
Y0503134D01*
X0744949Y0502609D01*
X0745998D01*
X0746523Y0503134D01*
Y0504708D01*
Y0503658D02*
X0747573Y0502609D01*
X0744949Y0501559D02*
X0744424Y0501035D01*
Y0499985D01*
X0744949Y0499460D01*
X0745473D01*
X0745998Y0499985D01*
Y0500510D01*
Y0499985D01*
X0746523Y0499460D01*
X0747048D01*
X0747573Y0499985D01*
Y0501035D01*
X0747048Y0501559D01*
X0744949Y0498411D02*
X0744424Y0497886D01*
Y0496837D01*
X0744949Y0496312D01*
X0745473D01*
X0745998Y0496837D01*
X0746523Y0496312D01*
X0747048D01*
X0747573Y0496837D01*
Y0497886D01*
X0747048Y0498411D01*
X0746523D01*
X0745998Y0497886D01*
X0745473Y0498411D01*
X0744949D01*
X0745998Y0497886D02*
Y0496837D01*
X0747769Y0517228D02*
X0744621D01*
Y0515653D01*
X0745146Y0515129D01*
X0746195D01*
X0746720Y0515653D01*
Y0517228D01*
Y0516178D02*
X0747769Y0515129D01*
X0745146Y0514079D02*
X0744621Y0513554D01*
Y0512505D01*
X0745146Y0511980D01*
X0745670D01*
X0746195Y0512505D01*
Y0513030D01*
Y0512505D01*
X0746720Y0511980D01*
X0747245D01*
X0747769Y0512505D01*
Y0513554D01*
X0747245Y0514079D01*
X0744621Y0510931D02*
Y0508832D01*
X0745146D01*
X0747245Y0510931D01*
X0747769D01*
X0701129Y0409149D02*
X0698505D01*
X0697980Y0409673D01*
Y0410723D01*
X0698505Y0411248D01*
X0701129D01*
X0697980Y0414396D02*
Y0412297D01*
X0700079Y0414396D01*
X0700604D01*
X0701129Y0413871D01*
Y0412822D01*
X0700604Y0412297D01*
X0757467Y0433344D02*
Y0430720D01*
X0756943Y0430196D01*
X0755893D01*
X0755368Y0430720D01*
Y0433344D01*
X0754319Y0430196D02*
X0753269D01*
X0753794D01*
Y0433344D01*
X0754319Y0432819D01*
X0734449Y0449250D02*
X0732350D01*
X0733399D01*
Y0446101D01*
X0729726D02*
Y0449250D01*
X0731300Y0447675D01*
X0729201D01*
X0758440Y0404814D02*
Y0402715D01*
Y0403764D01*
X0761588D01*
Y0401665D02*
Y0400616D01*
Y0401140D01*
X0758440D01*
X0758964Y0401665D01*
X0694739Y0438517D02*
X0697888D01*
Y0440091D01*
X0697363Y0440616D01*
X0696313D01*
X0695788Y0440091D01*
Y0438517D01*
Y0439566D02*
X0694739Y0440616D01*
Y0443764D02*
Y0441665D01*
X0696838Y0443764D01*
X0697363D01*
X0697888Y0443239D01*
Y0442190D01*
X0697363Y0441665D01*
X0697888Y0446913D02*
Y0444814D01*
X0696313D01*
X0696838Y0445863D01*
Y0446388D01*
X0696313Y0446913D01*
X0695264D01*
X0694739Y0446388D01*
Y0445338D01*
X0695264Y0444814D01*
X0723715Y0398031D02*
X0726864D01*
Y0399605D01*
X0726339Y0400130D01*
X0725290D01*
X0724765Y0399605D01*
Y0398031D01*
Y0399080D02*
X0723715Y0400130D01*
Y0401180D02*
Y0402229D01*
Y0401704D01*
X0726864D01*
X0726339Y0401180D01*
X0726864Y0403803D02*
Y0405902D01*
X0726339D01*
X0724240Y0403803D01*
X0723715D01*
X0759646Y0394959D02*
Y0398108D01*
X0758071D01*
X0757547Y0397583D01*
Y0396534D01*
X0758071Y0396009D01*
X0759646D01*
X0758596D02*
X0757547Y0394959D01*
X0756497Y0398108D02*
X0754398D01*
Y0397583D01*
X0756497Y0395484D01*
Y0394959D01*
X0769857Y0411154D02*
X0773006D01*
Y0412728D01*
X0772481Y0413253D01*
X0771431D01*
X0770907Y0412728D01*
Y0411154D01*
Y0412203D02*
X0769857Y0413253D01*
X0773006Y0416401D02*
X0772481Y0415352D01*
X0771431Y0414302D01*
X0770382D01*
X0769857Y0414827D01*
Y0415877D01*
X0770382Y0416401D01*
X0770907D01*
X0771431Y0415877D01*
Y0414302D01*
X0752087Y0433345D02*
Y0436494D01*
X0750512D01*
X0749988Y0435969D01*
Y0434919D01*
X0750512Y0434395D01*
X0752087D01*
X0751037D02*
X0749988Y0433345D01*
X0746839Y0436494D02*
X0748938D01*
Y0434919D01*
X0747889Y0435444D01*
X0747364D01*
X0746839Y0434919D01*
Y0433870D01*
X0747364Y0433345D01*
X0748413D01*
X0748938Y0433870D01*
X0767559Y0411180D02*
Y0414328D01*
X0765985D01*
X0765460Y0413804D01*
Y0412754D01*
X0765985Y0412229D01*
X0767559D01*
X0766510D02*
X0765460Y0411180D01*
X0762836D02*
Y0414328D01*
X0764410Y0412754D01*
X0762312D01*
X0752087Y0437676D02*
Y0440824D01*
X0750512D01*
X0749988Y0440300D01*
Y0439250D01*
X0750512Y0438725D01*
X0752087D01*
X0751037D02*
X0749988Y0437676D01*
X0748938Y0440300D02*
X0748413Y0440824D01*
X0747364D01*
X0746839Y0440300D01*
Y0439775D01*
X0747364Y0439250D01*
X0747889D01*
X0747364D01*
X0746839Y0438725D01*
Y0438201D01*
X0747364Y0437676D01*
X0748413D01*
X0748938Y0438201D01*
X0744488Y0446455D02*
Y0449604D01*
X0742914D01*
X0742389Y0449079D01*
Y0448030D01*
X0742914Y0447505D01*
X0744488D01*
X0743439D02*
X0742389Y0446455D01*
X0739241D02*
X0741340D01*
X0739241Y0448554D01*
Y0449079D01*
X0739765Y0449604D01*
X0740815D01*
X0741340Y0449079D01*
X0752704Y0446416D02*
Y0449565D01*
X0751129D01*
X0750605Y0449040D01*
Y0447990D01*
X0751129Y0447466D01*
X0752704D01*
X0751654D02*
X0750605Y0446416D01*
X0749555D02*
X0748505D01*
X0749030D01*
Y0449565D01*
X0749555Y0449040D01*
X0773885Y0519290D02*
Y0522439D01*
X0772310D01*
X0771786Y0521914D01*
Y0520864D01*
X0772310Y0520339D01*
X0773885D01*
X0770736Y0519290D02*
X0769687D01*
X0770211D01*
Y0522439D01*
X0770736Y0521914D01*
X0705394Y0446402D02*
X0705919Y0446927D01*
X0706968D01*
X0707493Y0446402D01*
Y0444303D01*
X0706968Y0443778D01*
X0705919D01*
X0705394Y0444303D01*
X0704345Y0443778D02*
X0703295D01*
X0703820D01*
Y0446927D01*
X0704345Y0446402D01*
X0701721D02*
X0701196Y0446927D01*
X0700146D01*
X0699622Y0446402D01*
Y0444303D01*
X0700146Y0443778D01*
X0701196D01*
X0701721Y0444303D01*
Y0446402D01*
X0734830Y0396756D02*
X0735355Y0397281D01*
X0736404D01*
X0736929Y0396756D01*
Y0394657D01*
X0736404Y0394132D01*
X0735355D01*
X0734830Y0394657D01*
X0731681Y0397281D02*
X0732731Y0396756D01*
X0733781Y0395707D01*
Y0394657D01*
X0733256Y0394132D01*
X0732206D01*
X0731681Y0394657D01*
Y0395182D01*
X0732206Y0395707D01*
X0733781D01*
X0756930Y0404513D02*
X0757454Y0403988D01*
Y0402938D01*
X0756930Y0402414D01*
X0754831D01*
X0754306Y0402938D01*
Y0403988D01*
X0754831Y0404513D01*
X0754306Y0407661D02*
Y0405562D01*
X0756405Y0407661D01*
X0756930D01*
X0757454Y0407136D01*
Y0406087D01*
X0756930Y0405562D01*
X0752875Y0405274D02*
X0753399Y0404749D01*
Y0403699D01*
X0752875Y0403175D01*
X0750775D01*
X0750251Y0403699D01*
Y0404749D01*
X0750775Y0405274D01*
X0750251Y0406323D02*
Y0407373D01*
Y0406848D01*
X0753399D01*
X0752875Y0406323D01*
D73*
X0403238Y0409191D02*
G03*
X0403238Y0409191I-0000492J0000000D01*
G01*
X0508751D02*
G03*
X0508751Y0409191I-0000492J0000000D01*
G01*
X0614265D02*
G03*
X0614265Y0409191I-0000492J0000000D01*
G01*
X0719778D02*
G03*
X0719778Y0409191I-0000492J0000000D01*
G01*
D74*
X0453357Y0400471D02*
G03*
X0453357Y0400471I-0000473J0000000D01*
G01*
X0558870D02*
G03*
X0558870Y0400471I-0000473J0000000D01*
G01*
X0664383D02*
G03*
X0664383Y0400471I-0000473J0000000D01*
G01*
X0769896D02*
G03*
X0769896Y0400471I-0000473J0000000D01*
G01*
M02*
