G04*
G04 #@! TF.GenerationSoftware,Altium Limited,Altium Designer,20.1.14 (287)*
G04*
G04 Layer_Color=8388736*
%FSAX25Y25*%
%MOIN*%
G70*
G04*
G04 #@! TF.SameCoordinates,1876172F-CBA1-4FB9-98D7-45F53F2F45AF*
G04*
G04*
G04 #@! TF.FilePolarity,Positive*
G04*
G01*
G75*
%ADD27C,0.01181*%
%ADD28C,0.00787*%
D27*
X0366073Y0309381D02*
X0370009D01*
X0371976Y0311349D01*
X0370009Y0313317D01*
X0366073D01*
X0369025Y0315285D02*
Y0319221D01*
X0367057Y0325124D02*
X0366073Y0324140D01*
Y0322173D01*
X0367057Y0321189D01*
X0370992D01*
X0371976Y0322173D01*
Y0324140D01*
X0370992Y0325124D01*
X0366073Y0327092D02*
X0370992D01*
X0371976Y0328076D01*
Y0330044D01*
X0370992Y0331028D01*
X0366073D01*
Y0332996D02*
Y0336932D01*
Y0334964D01*
X0371976D01*
X0561350Y0656509D02*
X0565286D01*
X0567254Y0658477D01*
X0565286Y0660445D01*
X0561350D01*
X0564302Y0662413D02*
Y0666348D01*
X0562334Y0672252D02*
X0561350Y0671268D01*
Y0669300D01*
X0562334Y0668316D01*
X0566270D01*
X0567254Y0669300D01*
Y0671268D01*
X0566270Y0672252D01*
X0561350Y0674220D02*
X0566270D01*
X0567254Y0675204D01*
Y0677172D01*
X0566270Y0678156D01*
X0561350D01*
Y0680123D02*
Y0684059D01*
Y0682091D01*
X0567254D01*
X0577099Y0309381D02*
X0581035D01*
X0583003Y0311349D01*
X0581035Y0313317D01*
X0577099D01*
X0580051Y0315285D02*
Y0319221D01*
X0578083Y0325124D02*
X0577099Y0324140D01*
Y0322173D01*
X0578083Y0321189D01*
X0582019D01*
X0583003Y0322173D01*
Y0324140D01*
X0582019Y0325124D01*
X0577099Y0327092D02*
X0582019D01*
X0583003Y0328076D01*
Y0330044D01*
X0582019Y0331028D01*
X0577099D01*
Y0332996D02*
Y0336932D01*
Y0334964D01*
X0583003D01*
X0577099Y0656509D02*
X0581035D01*
X0583003Y0658477D01*
X0581035Y0660445D01*
X0577099D01*
X0580051Y0662413D02*
Y0666348D01*
X0578083Y0672252D02*
X0577099Y0671268D01*
Y0669300D01*
X0578083Y0668316D01*
X0582019D01*
X0583003Y0669300D01*
Y0671268D01*
X0582019Y0672252D01*
X0577099Y0674220D02*
X0582019D01*
X0583003Y0675204D01*
Y0677172D01*
X0582019Y0678156D01*
X0577099D01*
Y0680123D02*
Y0684059D01*
Y0682091D01*
X0583003D01*
X0666863Y0309381D02*
X0670799D01*
X0672767Y0311349D01*
X0670799Y0313317D01*
X0666863D01*
X0669815Y0315285D02*
Y0319221D01*
X0667847Y0325124D02*
X0666863Y0324140D01*
Y0322173D01*
X0667847Y0321189D01*
X0671783D01*
X0672767Y0322173D01*
Y0324140D01*
X0671783Y0325124D01*
X0666863Y0327092D02*
X0671783D01*
X0672767Y0328076D01*
Y0330044D01*
X0671783Y0331028D01*
X0666863D01*
Y0332996D02*
Y0336932D01*
Y0334964D01*
X0672767D01*
X0471585Y0656509D02*
X0475520D01*
X0477488Y0658477D01*
X0475520Y0660445D01*
X0471585D01*
X0474536Y0662413D02*
Y0666348D01*
X0472569Y0672252D02*
X0471585Y0671268D01*
Y0669300D01*
X0472569Y0668316D01*
X0476504D01*
X0477488Y0669300D01*
Y0671268D01*
X0476504Y0672252D01*
X0471585Y0674220D02*
X0476504D01*
X0477488Y0675204D01*
Y0677172D01*
X0476504Y0678156D01*
X0471585D01*
Y0680123D02*
Y0684059D01*
Y0682091D01*
X0477488D01*
X0366073Y0656509D02*
X0370009D01*
X0371976Y0658477D01*
X0370009Y0660445D01*
X0366073D01*
X0369025Y0662413D02*
Y0666348D01*
X0367057Y0672252D02*
X0366073Y0671268D01*
Y0669300D01*
X0367057Y0668316D01*
X0370992D01*
X0371976Y0669300D01*
Y0671268D01*
X0370992Y0672252D01*
X0366073Y0674220D02*
X0370992D01*
X0371976Y0675204D01*
Y0677172D01*
X0370992Y0678156D01*
X0366073D01*
Y0680123D02*
Y0684059D01*
Y0682091D01*
X0371976D01*
X0300123Y0395746D02*
Y0391810D01*
X0302091Y0389842D01*
X0304059Y0391810D01*
Y0395746D01*
X0306027Y0392794D02*
X0309962D01*
X0315866Y0394762D02*
X0314882Y0395746D01*
X0312914D01*
X0311930Y0394762D01*
Y0390826D01*
X0312914Y0389842D01*
X0314882D01*
X0315866Y0390826D01*
X0317834Y0395746D02*
Y0390826D01*
X0318818Y0389842D01*
X0320785D01*
X0321769Y0390826D01*
Y0395746D01*
X0323737D02*
X0327673D01*
X0325705D01*
Y0389842D01*
X0666863Y0656509D02*
X0670799D01*
X0672767Y0658477D01*
X0670799Y0660445D01*
X0666863D01*
X0669815Y0662413D02*
Y0666348D01*
X0667847Y0672252D02*
X0666863Y0671268D01*
Y0669300D01*
X0667847Y0668316D01*
X0671783D01*
X0672767Y0669300D01*
Y0671268D01*
X0671783Y0672252D01*
X0666863Y0674220D02*
X0671783D01*
X0672767Y0675204D01*
Y0677172D01*
X0671783Y0678156D01*
X0666863D01*
Y0680123D02*
Y0684059D01*
Y0682091D01*
X0672767D01*
X0772376Y0656509D02*
X0776312D01*
X0778280Y0658477D01*
X0776312Y0660445D01*
X0772376D01*
X0775328Y0662413D02*
Y0666348D01*
X0773360Y0672252D02*
X0772376Y0671268D01*
Y0669300D01*
X0773360Y0668316D01*
X0777296D01*
X0778280Y0669300D01*
Y0671268D01*
X0777296Y0672252D01*
X0772376Y0674220D02*
X0777296D01*
X0778280Y0675204D01*
Y0677172D01*
X0777296Y0678156D01*
X0772376D01*
Y0680123D02*
Y0684059D01*
Y0682091D01*
X0778280D01*
X0817070Y0600470D02*
Y0596535D01*
X0819038Y0594567D01*
X0821006Y0596535D01*
Y0600470D01*
X0822974Y0597519D02*
X0826910D01*
X0832813Y0599486D02*
X0831829Y0600470D01*
X0829861D01*
X0828877Y0599486D01*
Y0595551D01*
X0829861Y0594567D01*
X0831829D01*
X0832813Y0595551D01*
X0834781Y0600470D02*
Y0595551D01*
X0835765Y0594567D01*
X0837733D01*
X0838717Y0595551D01*
Y0600470D01*
X0840685D02*
X0844620D01*
X0842652D01*
Y0594567D01*
X0455838Y0656509D02*
X0459773D01*
X0461741Y0658477D01*
X0459773Y0660445D01*
X0455838D01*
X0458789Y0662413D02*
Y0666348D01*
X0456821Y0672252D02*
X0455838Y0671268D01*
Y0669300D01*
X0456821Y0668316D01*
X0460757D01*
X0461741Y0669300D01*
Y0671268D01*
X0460757Y0672252D01*
X0455838Y0674220D02*
X0460757D01*
X0461741Y0675204D01*
Y0677172D01*
X0460757Y0678156D01*
X0455838D01*
Y0680123D02*
Y0684059D01*
Y0682091D01*
X0461741D01*
X0561350Y0309381D02*
X0565286D01*
X0567254Y0311349D01*
X0565286Y0313317D01*
X0561350D01*
X0564302Y0315285D02*
Y0319221D01*
X0562334Y0325124D02*
X0561350Y0324140D01*
Y0322173D01*
X0562334Y0321189D01*
X0566270D01*
X0567254Y0322173D01*
Y0324140D01*
X0566270Y0325124D01*
X0561350Y0327092D02*
X0566270D01*
X0567254Y0328076D01*
Y0330044D01*
X0566270Y0331028D01*
X0561350D01*
Y0332996D02*
Y0336932D01*
Y0334964D01*
X0567254D01*
X0682612Y0656509D02*
X0686548D01*
X0688516Y0658477D01*
X0686548Y0660445D01*
X0682612D01*
X0685564Y0662413D02*
Y0666348D01*
X0683596Y0672252D02*
X0682612Y0671268D01*
Y0669300D01*
X0683596Y0668316D01*
X0687532D01*
X0688516Y0669300D01*
Y0671268D01*
X0687532Y0672252D01*
X0682612Y0674220D02*
X0687532D01*
X0688516Y0675204D01*
Y0677172D01*
X0687532Y0678156D01*
X0682612D01*
Y0680123D02*
Y0684059D01*
Y0682091D01*
X0688516D01*
X0471585Y0309381D02*
X0475520D01*
X0477488Y0311349D01*
X0475520Y0313317D01*
X0471585D01*
X0474536Y0315285D02*
Y0319221D01*
X0472569Y0325124D02*
X0471585Y0324140D01*
Y0322173D01*
X0472569Y0321189D01*
X0476504D01*
X0477488Y0322173D01*
Y0324140D01*
X0476504Y0325124D01*
X0471585Y0327092D02*
X0476504D01*
X0477488Y0328076D01*
Y0330044D01*
X0476504Y0331028D01*
X0471585D01*
Y0332996D02*
Y0336932D01*
Y0334964D01*
X0477488D01*
X0772376Y0309381D02*
X0776312D01*
X0778280Y0311349D01*
X0776312Y0313317D01*
X0772376D01*
X0775328Y0315285D02*
Y0319221D01*
X0773360Y0325124D02*
X0772376Y0324140D01*
Y0322173D01*
X0773360Y0321189D01*
X0777296D01*
X0778280Y0322173D01*
Y0324140D01*
X0777296Y0325124D01*
X0772376Y0327092D02*
X0777296D01*
X0778280Y0328076D01*
Y0330044D01*
X0777296Y0331028D01*
X0772376D01*
Y0332996D02*
Y0336932D01*
Y0334964D01*
X0778280D01*
X0682612Y0309381D02*
X0686548D01*
X0688516Y0311349D01*
X0686548Y0313317D01*
X0682612D01*
X0685564Y0315285D02*
Y0319221D01*
X0683596Y0325124D02*
X0682612Y0324140D01*
Y0322173D01*
X0683596Y0321189D01*
X0687532D01*
X0688516Y0322173D01*
Y0324140D01*
X0687532Y0325124D01*
X0682612Y0327092D02*
X0687532D01*
X0688516Y0328076D01*
Y0330044D01*
X0687532Y0331028D01*
X0682612D01*
Y0332996D02*
Y0336932D01*
Y0334964D01*
X0688516D01*
X0300123Y0600470D02*
Y0596535D01*
X0302091Y0594567D01*
X0304059Y0596535D01*
Y0600470D01*
X0306027Y0597519D02*
X0309962D01*
X0315866Y0599486D02*
X0314882Y0600470D01*
X0312914D01*
X0311930Y0599486D01*
Y0595551D01*
X0312914Y0594567D01*
X0314882D01*
X0315866Y0595551D01*
X0317834Y0600470D02*
Y0595551D01*
X0318818Y0594567D01*
X0320785D01*
X0321769Y0595551D01*
Y0600470D01*
X0323737D02*
X0327673D01*
X0325705D01*
Y0594567D01*
X0455838Y0309381D02*
X0459773D01*
X0461741Y0311349D01*
X0459773Y0313317D01*
X0455838D01*
X0458789Y0315285D02*
Y0319221D01*
X0456821Y0325124D02*
X0455838Y0324140D01*
Y0322173D01*
X0456821Y0321189D01*
X0460757D01*
X0461741Y0322173D01*
Y0324140D01*
X0460757Y0325124D01*
X0455838Y0327092D02*
X0460757D01*
X0461741Y0328076D01*
Y0330044D01*
X0460757Y0331028D01*
X0455838D01*
Y0332996D02*
Y0336932D01*
Y0334964D01*
X0461741D01*
X0817070Y0395746D02*
Y0391810D01*
X0819038Y0389842D01*
X0821006Y0391810D01*
Y0395746D01*
X0822974Y0392794D02*
X0826910D01*
X0832813Y0394762D02*
X0831829Y0395746D01*
X0829861D01*
X0828877Y0394762D01*
Y0390826D01*
X0829861Y0389842D01*
X0831829D01*
X0832813Y0390826D01*
X0834781Y0395746D02*
Y0390826D01*
X0835765Y0389842D01*
X0837733D01*
X0838717Y0390826D01*
Y0395746D01*
X0840685D02*
X0844620D01*
X0842652D01*
Y0389842D01*
D28*
X0369025Y0339251D02*
Y0654212D01*
X0458789Y0339251D02*
Y0654212D01*
X0474536Y0339251D02*
Y0654212D01*
X0564302Y0339251D02*
Y0654212D01*
X0580051Y0339251D02*
Y0654212D01*
X0669815Y0339251D02*
Y0654212D01*
X0685564Y0339251D02*
Y0654212D01*
X0775328Y0339251D02*
Y0654212D01*
X0329655Y0597519D02*
X0814773D01*
X0329655Y0392794D02*
X0814773D01*
M02*
