G04*
G04 #@! TF.GenerationSoftware,Altium Limited,Altium Designer,20.1.14 (287)*
G04*
G04 Layer_Color=65535*
%FSAX25Y25*%
%MOIN*%
G70*
G04*
G04 #@! TF.SameCoordinates,1876172F-CBA1-4FB9-98D7-45F53F2F45AF*
G04*
G04*
G04 #@! TF.FilePolarity,Positive*
G04*
G01*
G75*
%ADD28C,0.00787*%
%ADD29C,0.03937*%
%ADD44C,0.00394*%
%ADD45C,0.00598*%
G36*
X0750955Y0527934D02*
X0751907D01*
Y0527847D01*
X0752340D01*
Y0527761D01*
X0752600D01*
Y0527674D01*
X0752859D01*
Y0527588D01*
X0753119D01*
Y0527501D01*
X0753292D01*
Y0527415D01*
X0753465D01*
Y0527328D01*
X0753638D01*
Y0527242D01*
X0753812D01*
Y0527155D01*
X0753985D01*
Y0527068D01*
X0754071D01*
Y0526982D01*
X0754244D01*
Y0526895D01*
X0754331D01*
Y0526809D01*
X0754504D01*
Y0526722D01*
X0754590D01*
Y0526636D01*
X0754677D01*
Y0526549D01*
X0754764D01*
Y0526463D01*
X0754850D01*
Y0526376D01*
X0754937D01*
Y0526290D01*
X0755023D01*
Y0526203D01*
X0755110D01*
Y0526116D01*
X0755196D01*
Y0526030D01*
X0755283D01*
Y0525943D01*
X0755369D01*
Y0525857D01*
X0755456D01*
Y0525770D01*
X0755542D01*
Y0525684D01*
X0755629D01*
Y0525511D01*
X0755716D01*
Y0525424D01*
X0755802D01*
Y0525251D01*
X0755889D01*
Y0525164D01*
X0755975D01*
Y0524991D01*
X0756062D01*
Y0524818D01*
X0756148D01*
Y0524645D01*
X0756235D01*
Y0524472D01*
X0756321D01*
Y0524299D01*
X0756408D01*
Y0524039D01*
X0756494D01*
Y0523780D01*
X0756581D01*
Y0523433D01*
X0756668D01*
Y0523087D01*
X0756754D01*
Y0521183D01*
X0756668D01*
Y0520751D01*
X0756581D01*
Y0520404D01*
X0756494D01*
Y0520145D01*
X0756408D01*
Y0519972D01*
X0756321D01*
Y0519712D01*
X0756235D01*
Y0519539D01*
X0756148D01*
Y0519366D01*
X0756062D01*
Y0519106D01*
X0755975D01*
Y0518933D01*
X0755889D01*
Y0518673D01*
X0755802D01*
Y0518414D01*
X0755716D01*
Y0518154D01*
X0755629D01*
Y0517635D01*
X0755542D01*
Y0516596D01*
X0755629D01*
Y0515990D01*
X0755716D01*
Y0515644D01*
X0755802D01*
Y0515385D01*
X0755889D01*
Y0515212D01*
X0755975D01*
Y0515038D01*
X0756062D01*
Y0514865D01*
X0756148D01*
Y0514692D01*
X0756235D01*
Y0514606D01*
X0756321D01*
Y0514433D01*
X0756408D01*
Y0514346D01*
X0756494D01*
Y0514173D01*
X0756581D01*
Y0514086D01*
X0756668D01*
Y0514000D01*
X0756754D01*
Y0513913D01*
X0756841D01*
Y0513827D01*
X0756927D01*
Y0513740D01*
X0757014D01*
Y0513654D01*
X0757187D01*
Y0513567D01*
X0757273D01*
Y0513481D01*
X0757360D01*
Y0513394D01*
X0757533D01*
Y0513308D01*
X0757619D01*
Y0513221D01*
X0757793D01*
Y0513134D01*
X0757966D01*
Y0513048D01*
X0758139D01*
Y0512961D01*
X0758312D01*
Y0512875D01*
X0758571D01*
Y0512788D01*
X0758831D01*
Y0512702D01*
X0759004D01*
Y0512615D01*
X0759177D01*
Y0512529D01*
X0759350D01*
Y0512442D01*
X0759523D01*
Y0512356D01*
X0759697D01*
Y0512269D01*
X0759783D01*
Y0512183D01*
X0759870D01*
Y0512096D01*
X0760043D01*
Y0512009D01*
X0760129D01*
Y0511923D01*
X0760216D01*
Y0511836D01*
X0760302D01*
Y0511750D01*
X0760389D01*
Y0511663D01*
X0760475D01*
Y0511490D01*
X0760562D01*
Y0511404D01*
X0760649D01*
Y0511317D01*
X0760735D01*
Y0511144D01*
X0760822D01*
Y0510971D01*
X0760908D01*
Y0510798D01*
X0760995D01*
Y0510625D01*
X0761081D01*
Y0510365D01*
X0761168D01*
Y0510105D01*
X0761254D01*
Y0509673D01*
X0761341D01*
Y0508807D01*
X0761254D01*
Y0508288D01*
X0761168D01*
Y0508028D01*
X0761081D01*
Y0507769D01*
X0760995D01*
Y0507595D01*
X0760908D01*
Y0507422D01*
X0760822D01*
Y0507249D01*
X0760735D01*
Y0507163D01*
X0760649D01*
Y0506990D01*
X0760562D01*
Y0506903D01*
X0760475D01*
Y0506817D01*
X0760389D01*
Y0506730D01*
X0760302D01*
Y0506643D01*
X0760216D01*
Y0506557D01*
X0760129D01*
Y0506470D01*
X0760043D01*
Y0506384D01*
X0759956D01*
Y0506297D01*
X0759870D01*
Y0506211D01*
X0759783D01*
Y0506124D01*
X0759610D01*
Y0506038D01*
X0759523D01*
Y0505951D01*
X0759350D01*
Y0505865D01*
X0759177D01*
Y0505778D01*
X0758918D01*
Y0505691D01*
X0758745D01*
Y0505605D01*
X0758398D01*
Y0505518D01*
X0757793D01*
Y0505432D01*
X0757446D01*
Y0505518D01*
X0756754D01*
Y0505605D01*
X0756062D01*
Y0505691D01*
X0754937D01*
Y0505605D01*
X0754331D01*
Y0505518D01*
X0753985D01*
Y0505432D01*
X0753725D01*
Y0505345D01*
X0753552D01*
Y0505259D01*
X0753292D01*
Y0505172D01*
X0753119D01*
Y0505086D01*
X0752946D01*
Y0504999D01*
X0752773D01*
Y0504913D01*
X0752600D01*
Y0504826D01*
X0752513D01*
Y0504740D01*
X0752340D01*
Y0504653D01*
X0752167D01*
Y0504566D01*
X0752081D01*
Y0504480D01*
X0751907D01*
Y0504393D01*
X0751821D01*
Y0504307D01*
X0751734D01*
Y0504220D01*
X0751648D01*
Y0504134D01*
X0751561D01*
Y0504047D01*
X0751475D01*
Y0503961D01*
X0751388D01*
Y0503874D01*
X0751302D01*
Y0503788D01*
X0751215D01*
Y0503614D01*
X0751128D01*
Y0503441D01*
X0751042D01*
Y0503355D01*
X0750955D01*
Y0503095D01*
X0750869D01*
Y0502922D01*
X0750782D01*
Y0502576D01*
X0750696D01*
Y0502057D01*
X0750609D01*
Y0501278D01*
X0750696D01*
Y0500845D01*
X0750782D01*
Y0500499D01*
X0750869D01*
Y0500326D01*
X0750955D01*
Y0500153D01*
X0751042D01*
Y0499979D01*
X0751128D01*
Y0499806D01*
X0751215D01*
Y0499720D01*
X0751302D01*
Y0499633D01*
X0751388D01*
Y0499460D01*
X0751475D01*
Y0499374D01*
X0751561D01*
Y0499287D01*
X0751648D01*
Y0499201D01*
X0751734D01*
Y0499114D01*
X0751821D01*
Y0499027D01*
X0751994D01*
Y0498941D01*
X0752081D01*
Y0498854D01*
X0752254D01*
Y0498768D01*
X0752427D01*
Y0498681D01*
X0752600D01*
Y0498595D01*
X0752773D01*
Y0498508D01*
X0753033D01*
Y0498422D01*
X0753379D01*
Y0498335D01*
X0754504D01*
Y0498422D01*
X0754937D01*
Y0498508D01*
X0755283D01*
Y0498595D01*
X0757014D01*
Y0498508D01*
X0757446D01*
Y0498422D01*
X0757706D01*
Y0498335D01*
X0757966D01*
Y0498249D01*
X0758225D01*
Y0498162D01*
X0758398D01*
Y0498075D01*
X0758571D01*
Y0497989D01*
X0758745D01*
Y0497902D01*
X0758831D01*
Y0497816D01*
X0759004D01*
Y0497729D01*
X0759091D01*
Y0497643D01*
X0759264D01*
Y0497556D01*
X0759350D01*
Y0497470D01*
X0759437D01*
Y0497383D01*
X0759523D01*
Y0497297D01*
X0759697D01*
Y0497210D01*
X0759783D01*
Y0497123D01*
X0759870D01*
Y0497037D01*
X0759956D01*
Y0496864D01*
X0760043D01*
Y0496777D01*
X0760129D01*
Y0496691D01*
X0760216D01*
Y0496604D01*
X0760302D01*
Y0496431D01*
X0760389D01*
Y0496345D01*
X0760475D01*
Y0496258D01*
X0760562D01*
Y0496085D01*
X0760649D01*
Y0495912D01*
X0760735D01*
Y0495739D01*
X0760822D01*
Y0495566D01*
X0760908D01*
Y0495393D01*
X0760995D01*
Y0495133D01*
X0761081D01*
Y0494873D01*
X0761168D01*
Y0494527D01*
X0761254D01*
Y0493921D01*
X0761341D01*
Y0492969D01*
X0761254D01*
Y0492450D01*
X0761168D01*
Y0492104D01*
X0761081D01*
Y0491844D01*
X0760995D01*
Y0491584D01*
X0760908D01*
Y0491411D01*
X0760822D01*
Y0491152D01*
X0760735D01*
Y0490979D01*
X0760649D01*
Y0490892D01*
X0760562D01*
Y0490719D01*
X0760475D01*
Y0490632D01*
X0760389D01*
Y0490459D01*
X0760302D01*
Y0490373D01*
X0760216D01*
Y0490200D01*
X0760129D01*
Y0490113D01*
X0760043D01*
Y0490027D01*
X0759956D01*
Y0489940D01*
X0759870D01*
Y0489854D01*
X0759783D01*
Y0489767D01*
X0759697D01*
Y0489680D01*
X0759610D01*
Y0489594D01*
X0759523D01*
Y0489507D01*
X0759350D01*
Y0489421D01*
X0759264D01*
Y0489334D01*
X0759177D01*
Y0489248D01*
X0759004D01*
Y0489161D01*
X0758918D01*
Y0489075D01*
X0758745D01*
Y0488988D01*
X0758571D01*
Y0488902D01*
X0758485D01*
Y0488815D01*
X0758225D01*
Y0488729D01*
X0758052D01*
Y0488642D01*
X0757793D01*
Y0488555D01*
X0757533D01*
Y0488469D01*
X0757187D01*
Y0488382D01*
X0756581D01*
Y0488296D01*
X0755716D01*
Y0488382D01*
X0755110D01*
Y0488469D01*
X0754764D01*
Y0488555D01*
X0754504D01*
Y0488642D01*
X0754244D01*
Y0488729D01*
X0754071D01*
Y0488815D01*
X0753898D01*
Y0488902D01*
X0753725D01*
Y0488988D01*
X0753552D01*
Y0489075D01*
X0753465D01*
Y0489161D01*
X0753292D01*
Y0489248D01*
X0753206D01*
Y0489334D01*
X0753033D01*
Y0489421D01*
X0752946D01*
Y0489507D01*
X0752859D01*
Y0489594D01*
X0752773D01*
Y0489680D01*
X0752686D01*
Y0489767D01*
X0752600D01*
Y0489854D01*
X0752513D01*
Y0489940D01*
X0752427D01*
Y0490027D01*
X0752340D01*
Y0490113D01*
X0752254D01*
Y0490200D01*
X0752167D01*
Y0490286D01*
X0752081D01*
Y0490459D01*
X0751994D01*
Y0490546D01*
X0751907D01*
Y0490719D01*
X0751821D01*
Y0490806D01*
X0751734D01*
Y0490979D01*
X0751648D01*
Y0491152D01*
X0751561D01*
Y0491325D01*
X0751475D01*
Y0491584D01*
X0751388D01*
Y0491758D01*
X0751302D01*
Y0492017D01*
X0751215D01*
Y0492364D01*
X0751128D01*
Y0492883D01*
X0751042D01*
Y0494441D01*
X0751128D01*
Y0495306D01*
X0751042D01*
Y0495739D01*
X0750955D01*
Y0495998D01*
X0750869D01*
Y0496172D01*
X0750782D01*
Y0496345D01*
X0750696D01*
Y0496518D01*
X0750609D01*
Y0496604D01*
X0750523D01*
Y0496777D01*
X0750436D01*
Y0496864D01*
X0750350D01*
Y0496950D01*
X0750263D01*
Y0497037D01*
X0750176D01*
Y0497123D01*
X0750090D01*
Y0497210D01*
X0750003D01*
Y0497297D01*
X0749830D01*
Y0497383D01*
X0749744D01*
Y0497470D01*
X0749657D01*
Y0497556D01*
X0749484D01*
Y0497643D01*
X0749398D01*
Y0497729D01*
X0749225D01*
Y0497816D01*
X0749052D01*
Y0497902D01*
X0748792D01*
Y0497989D01*
X0748359D01*
Y0498075D01*
X0747234D01*
Y0497989D01*
X0746801D01*
Y0497902D01*
X0745157D01*
Y0497989D01*
X0744811D01*
Y0498075D01*
X0744551D01*
Y0498162D01*
X0744291D01*
Y0498249D01*
X0744032D01*
Y0498335D01*
X0743859D01*
Y0498422D01*
X0743686D01*
Y0498508D01*
X0743599D01*
Y0498595D01*
X0743426D01*
Y0498681D01*
X0743339D01*
Y0498768D01*
X0743166D01*
Y0498854D01*
X0743080D01*
Y0498941D01*
X0742993D01*
Y0499027D01*
X0742907D01*
Y0499114D01*
X0742820D01*
Y0499201D01*
X0742734D01*
Y0499287D01*
X0742647D01*
Y0499374D01*
X0742560D01*
Y0499460D01*
X0742474D01*
Y0499547D01*
X0742387D01*
Y0499633D01*
X0742301D01*
Y0499720D01*
X0742214D01*
Y0499893D01*
X0742128D01*
Y0499979D01*
X0742041D01*
Y0500153D01*
X0741955D01*
Y0500239D01*
X0741868D01*
Y0500412D01*
X0741782D01*
Y0500585D01*
X0741695D01*
Y0500845D01*
X0741608D01*
Y0501018D01*
X0741522D01*
Y0501364D01*
X0741435D01*
Y0501710D01*
X0741349D01*
Y0503441D01*
X0741435D01*
Y0503788D01*
X0741522D01*
Y0504047D01*
X0741608D01*
Y0504307D01*
X0741695D01*
Y0504480D01*
X0741782D01*
Y0504653D01*
X0741868D01*
Y0504826D01*
X0741955D01*
Y0504999D01*
X0742041D01*
Y0505086D01*
X0742128D01*
Y0505259D01*
X0742214D01*
Y0505345D01*
X0742301D01*
Y0505518D01*
X0742387D01*
Y0505605D01*
X0742474D01*
Y0505691D01*
X0742560D01*
Y0505778D01*
X0742647D01*
Y0505865D01*
X0742734D01*
Y0505951D01*
X0742820D01*
Y0506038D01*
X0742907D01*
Y0506124D01*
X0742993D01*
Y0506211D01*
X0743166D01*
Y0506297D01*
X0743253D01*
Y0506384D01*
X0743339D01*
Y0506470D01*
X0743512D01*
Y0506557D01*
X0743599D01*
Y0506643D01*
X0743772D01*
Y0506730D01*
X0743945D01*
Y0506817D01*
X0744118D01*
Y0506903D01*
X0744378D01*
Y0506990D01*
X0744638D01*
Y0507076D01*
X0744897D01*
Y0507163D01*
X0745416D01*
Y0507249D01*
X0746542D01*
Y0507163D01*
X0747061D01*
Y0507076D01*
X0747321D01*
Y0506990D01*
X0747580D01*
Y0506903D01*
X0747840D01*
Y0506817D01*
X0748186D01*
Y0506730D01*
X0748705D01*
Y0506643D01*
X0749744D01*
Y0506730D01*
X0750263D01*
Y0506817D01*
X0750609D01*
Y0506903D01*
X0750869D01*
Y0506990D01*
X0751042D01*
Y0507076D01*
X0751215D01*
Y0507163D01*
X0751388D01*
Y0507249D01*
X0751561D01*
Y0507336D01*
X0751648D01*
Y0507422D01*
X0751821D01*
Y0507509D01*
X0751907D01*
Y0507595D01*
X0752081D01*
Y0507682D01*
X0752167D01*
Y0507769D01*
X0752254D01*
Y0507855D01*
X0752340D01*
Y0507942D01*
X0752427D01*
Y0508028D01*
X0752513D01*
Y0508115D01*
X0752600D01*
Y0508201D01*
X0752686D01*
Y0508288D01*
X0752773D01*
Y0508374D01*
X0752859D01*
Y0508461D01*
X0752946D01*
Y0508547D01*
X0753033D01*
Y0508721D01*
X0753119D01*
Y0508807D01*
X0753206D01*
Y0508894D01*
X0753292D01*
Y0509067D01*
X0753379D01*
Y0509153D01*
X0753465D01*
Y0509327D01*
X0753552D01*
Y0509413D01*
X0753638D01*
Y0509586D01*
X0753725D01*
Y0509759D01*
X0753812D01*
Y0510019D01*
X0753898D01*
Y0510192D01*
X0753985D01*
Y0510452D01*
X0754071D01*
Y0510798D01*
X0754158D01*
Y0511404D01*
X0754244D01*
Y0512096D01*
X0754158D01*
Y0512702D01*
X0754071D01*
Y0513048D01*
X0753985D01*
Y0513308D01*
X0753898D01*
Y0513567D01*
X0753812D01*
Y0513740D01*
X0753725D01*
Y0513913D01*
X0753638D01*
Y0514086D01*
X0753552D01*
Y0514173D01*
X0753465D01*
Y0514346D01*
X0753379D01*
Y0514433D01*
X0753292D01*
Y0514519D01*
X0753206D01*
Y0514692D01*
X0753119D01*
Y0514779D01*
X0753033D01*
Y0514865D01*
X0752946D01*
Y0514952D01*
X0752859D01*
Y0515038D01*
X0752773D01*
Y0515125D01*
X0752686D01*
Y0515212D01*
X0752600D01*
Y0515298D01*
X0752427D01*
Y0515385D01*
X0752340D01*
Y0515471D01*
X0752254D01*
Y0515558D01*
X0752081D01*
Y0515644D01*
X0751994D01*
Y0515731D01*
X0751821D01*
Y0515817D01*
X0751648D01*
Y0515904D01*
X0751388D01*
Y0515990D01*
X0751215D01*
Y0516077D01*
X0750869D01*
Y0516164D01*
X0750436D01*
Y0516250D01*
X0749917D01*
Y0516337D01*
X0749484D01*
Y0516423D01*
X0749225D01*
Y0516510D01*
X0748965D01*
Y0516596D01*
X0748705D01*
Y0516683D01*
X0748532D01*
Y0516769D01*
X0748273D01*
Y0516856D01*
X0748186D01*
Y0516943D01*
X0748013D01*
Y0517029D01*
X0747840D01*
Y0517116D01*
X0747667D01*
Y0517202D01*
X0747580D01*
Y0517289D01*
X0747494D01*
Y0517375D01*
X0747321D01*
Y0517462D01*
X0747234D01*
Y0517548D01*
X0747147D01*
Y0517635D01*
X0747061D01*
Y0517721D01*
X0746888D01*
Y0517808D01*
X0746801D01*
Y0517895D01*
X0746715D01*
Y0517981D01*
X0746628D01*
Y0518068D01*
X0746542D01*
Y0518154D01*
X0746455D01*
Y0518327D01*
X0746369D01*
Y0518414D01*
X0746282D01*
Y0518500D01*
X0746195D01*
Y0518587D01*
X0746109D01*
Y0518760D01*
X0746022D01*
Y0518847D01*
X0745936D01*
Y0519020D01*
X0745849D01*
Y0519193D01*
X0745763D01*
Y0519279D01*
X0745676D01*
Y0519452D01*
X0745590D01*
Y0519625D01*
X0745503D01*
Y0519885D01*
X0745416D01*
Y0520058D01*
X0745330D01*
Y0520318D01*
X0745243D01*
Y0520664D01*
X0745157D01*
Y0521010D01*
X0745070D01*
Y0521702D01*
X0744984D01*
Y0522481D01*
X0745070D01*
Y0523174D01*
X0745157D01*
Y0523520D01*
X0745243D01*
Y0523866D01*
X0745330D01*
Y0524126D01*
X0745416D01*
Y0524299D01*
X0745503D01*
Y0524559D01*
X0745590D01*
Y0524732D01*
X0745676D01*
Y0524905D01*
X0745763D01*
Y0524991D01*
X0745849D01*
Y0525164D01*
X0745936D01*
Y0525338D01*
X0746022D01*
Y0525424D01*
X0746109D01*
Y0525597D01*
X0746195D01*
Y0525684D01*
X0746282D01*
Y0525770D01*
X0746369D01*
Y0525857D01*
X0746455D01*
Y0525943D01*
X0746542D01*
Y0526116D01*
X0746628D01*
Y0526203D01*
X0746715D01*
Y0526290D01*
X0746801D01*
Y0526376D01*
X0746888D01*
Y0526463D01*
X0747061D01*
Y0526549D01*
X0747147D01*
Y0526636D01*
X0747234D01*
Y0526722D01*
X0747321D01*
Y0526809D01*
X0747494D01*
Y0526895D01*
X0747580D01*
Y0526982D01*
X0747667D01*
Y0527068D01*
X0747840D01*
Y0527155D01*
X0748013D01*
Y0527242D01*
X0748186D01*
Y0527328D01*
X0748359D01*
Y0527415D01*
X0748532D01*
Y0527501D01*
X0748705D01*
Y0527588D01*
X0748965D01*
Y0527674D01*
X0749225D01*
Y0527761D01*
X0749484D01*
Y0527847D01*
X0749917D01*
Y0527934D01*
X0750782D01*
Y0528020D01*
X0750955D01*
Y0527934D01*
D02*
G37*
G36*
X0645442D02*
X0646394D01*
Y0527847D01*
X0646827D01*
Y0527761D01*
X0647087D01*
Y0527674D01*
X0647346D01*
Y0527588D01*
X0647606D01*
Y0527501D01*
X0647779D01*
Y0527415D01*
X0647952D01*
Y0527328D01*
X0648125D01*
Y0527242D01*
X0648298D01*
Y0527155D01*
X0648471D01*
Y0527068D01*
X0648558D01*
Y0526982D01*
X0648731D01*
Y0526895D01*
X0648817D01*
Y0526809D01*
X0648991D01*
Y0526722D01*
X0649077D01*
Y0526636D01*
X0649164D01*
Y0526549D01*
X0649250D01*
Y0526463D01*
X0649337D01*
Y0526376D01*
X0649423D01*
Y0526290D01*
X0649510D01*
Y0526203D01*
X0649596D01*
Y0526116D01*
X0649683D01*
Y0526030D01*
X0649770D01*
Y0525943D01*
X0649856D01*
Y0525857D01*
X0649943D01*
Y0525770D01*
X0650029D01*
Y0525684D01*
X0650116D01*
Y0525511D01*
X0650202D01*
Y0525424D01*
X0650289D01*
Y0525251D01*
X0650375D01*
Y0525164D01*
X0650462D01*
Y0524991D01*
X0650548D01*
Y0524818D01*
X0650635D01*
Y0524645D01*
X0650722D01*
Y0524472D01*
X0650808D01*
Y0524299D01*
X0650895D01*
Y0524039D01*
X0650981D01*
Y0523780D01*
X0651068D01*
Y0523433D01*
X0651154D01*
Y0523087D01*
X0651241D01*
Y0521183D01*
X0651154D01*
Y0520751D01*
X0651068D01*
Y0520404D01*
X0650981D01*
Y0520145D01*
X0650895D01*
Y0519972D01*
X0650808D01*
Y0519712D01*
X0650722D01*
Y0519539D01*
X0650635D01*
Y0519366D01*
X0650548D01*
Y0519106D01*
X0650462D01*
Y0518933D01*
X0650375D01*
Y0518673D01*
X0650289D01*
Y0518414D01*
X0650202D01*
Y0518154D01*
X0650116D01*
Y0517635D01*
X0650029D01*
Y0516596D01*
X0650116D01*
Y0515990D01*
X0650202D01*
Y0515644D01*
X0650289D01*
Y0515385D01*
X0650375D01*
Y0515212D01*
X0650462D01*
Y0515038D01*
X0650548D01*
Y0514865D01*
X0650635D01*
Y0514692D01*
X0650722D01*
Y0514606D01*
X0650808D01*
Y0514433D01*
X0650895D01*
Y0514346D01*
X0650981D01*
Y0514173D01*
X0651068D01*
Y0514086D01*
X0651154D01*
Y0514000D01*
X0651241D01*
Y0513913D01*
X0651327D01*
Y0513827D01*
X0651414D01*
Y0513740D01*
X0651501D01*
Y0513654D01*
X0651674D01*
Y0513567D01*
X0651760D01*
Y0513481D01*
X0651847D01*
Y0513394D01*
X0652020D01*
Y0513308D01*
X0652106D01*
Y0513221D01*
X0652279D01*
Y0513134D01*
X0652453D01*
Y0513048D01*
X0652626D01*
Y0512961D01*
X0652799D01*
Y0512875D01*
X0653058D01*
Y0512788D01*
X0653318D01*
Y0512702D01*
X0653491D01*
Y0512615D01*
X0653664D01*
Y0512529D01*
X0653837D01*
Y0512442D01*
X0654010D01*
Y0512356D01*
X0654183D01*
Y0512269D01*
X0654270D01*
Y0512183D01*
X0654356D01*
Y0512096D01*
X0654530D01*
Y0512009D01*
X0654616D01*
Y0511923D01*
X0654703D01*
Y0511836D01*
X0654789D01*
Y0511750D01*
X0654876D01*
Y0511663D01*
X0654962D01*
Y0511490D01*
X0655049D01*
Y0511404D01*
X0655135D01*
Y0511317D01*
X0655222D01*
Y0511144D01*
X0655308D01*
Y0510971D01*
X0655395D01*
Y0510798D01*
X0655482D01*
Y0510625D01*
X0655568D01*
Y0510365D01*
X0655655D01*
Y0510105D01*
X0655741D01*
Y0509673D01*
X0655828D01*
Y0508807D01*
X0655741D01*
Y0508288D01*
X0655655D01*
Y0508028D01*
X0655568D01*
Y0507769D01*
X0655482D01*
Y0507595D01*
X0655395D01*
Y0507422D01*
X0655308D01*
Y0507249D01*
X0655222D01*
Y0507163D01*
X0655135D01*
Y0506990D01*
X0655049D01*
Y0506903D01*
X0654962D01*
Y0506817D01*
X0654876D01*
Y0506730D01*
X0654789D01*
Y0506643D01*
X0654703D01*
Y0506557D01*
X0654616D01*
Y0506470D01*
X0654530D01*
Y0506384D01*
X0654443D01*
Y0506297D01*
X0654356D01*
Y0506211D01*
X0654270D01*
Y0506124D01*
X0654097D01*
Y0506038D01*
X0654010D01*
Y0505951D01*
X0653837D01*
Y0505865D01*
X0653664D01*
Y0505778D01*
X0653405D01*
Y0505691D01*
X0653231D01*
Y0505605D01*
X0652885D01*
Y0505518D01*
X0652279D01*
Y0505432D01*
X0651933D01*
Y0505518D01*
X0651241D01*
Y0505605D01*
X0650548D01*
Y0505691D01*
X0649423D01*
Y0505605D01*
X0648817D01*
Y0505518D01*
X0648471D01*
Y0505432D01*
X0648212D01*
Y0505345D01*
X0648039D01*
Y0505259D01*
X0647779D01*
Y0505172D01*
X0647606D01*
Y0505086D01*
X0647433D01*
Y0504999D01*
X0647260D01*
Y0504913D01*
X0647087D01*
Y0504826D01*
X0647000D01*
Y0504740D01*
X0646827D01*
Y0504653D01*
X0646654D01*
Y0504566D01*
X0646567D01*
Y0504480D01*
X0646394D01*
Y0504393D01*
X0646308D01*
Y0504307D01*
X0646221D01*
Y0504220D01*
X0646135D01*
Y0504134D01*
X0646048D01*
Y0504047D01*
X0645962D01*
Y0503961D01*
X0645875D01*
Y0503874D01*
X0645788D01*
Y0503788D01*
X0645702D01*
Y0503614D01*
X0645615D01*
Y0503441D01*
X0645529D01*
Y0503355D01*
X0645442D01*
Y0503095D01*
X0645356D01*
Y0502922D01*
X0645269D01*
Y0502576D01*
X0645183D01*
Y0502057D01*
X0645096D01*
Y0501278D01*
X0645183D01*
Y0500845D01*
X0645269D01*
Y0500499D01*
X0645356D01*
Y0500326D01*
X0645442D01*
Y0500153D01*
X0645529D01*
Y0499979D01*
X0645615D01*
Y0499806D01*
X0645702D01*
Y0499720D01*
X0645788D01*
Y0499633D01*
X0645875D01*
Y0499460D01*
X0645962D01*
Y0499374D01*
X0646048D01*
Y0499287D01*
X0646135D01*
Y0499201D01*
X0646221D01*
Y0499114D01*
X0646308D01*
Y0499027D01*
X0646481D01*
Y0498941D01*
X0646567D01*
Y0498854D01*
X0646740D01*
Y0498768D01*
X0646913D01*
Y0498681D01*
X0647087D01*
Y0498595D01*
X0647260D01*
Y0498508D01*
X0647519D01*
Y0498422D01*
X0647865D01*
Y0498335D01*
X0648991D01*
Y0498422D01*
X0649423D01*
Y0498508D01*
X0649770D01*
Y0498595D01*
X0651501D01*
Y0498508D01*
X0651933D01*
Y0498422D01*
X0652193D01*
Y0498335D01*
X0652453D01*
Y0498249D01*
X0652712D01*
Y0498162D01*
X0652885D01*
Y0498075D01*
X0653058D01*
Y0497989D01*
X0653231D01*
Y0497902D01*
X0653318D01*
Y0497816D01*
X0653491D01*
Y0497729D01*
X0653578D01*
Y0497643D01*
X0653751D01*
Y0497556D01*
X0653837D01*
Y0497470D01*
X0653924D01*
Y0497383D01*
X0654010D01*
Y0497297D01*
X0654183D01*
Y0497210D01*
X0654270D01*
Y0497123D01*
X0654356D01*
Y0497037D01*
X0654443D01*
Y0496864D01*
X0654530D01*
Y0496777D01*
X0654616D01*
Y0496691D01*
X0654703D01*
Y0496604D01*
X0654789D01*
Y0496431D01*
X0654876D01*
Y0496345D01*
X0654962D01*
Y0496258D01*
X0655049D01*
Y0496085D01*
X0655135D01*
Y0495912D01*
X0655222D01*
Y0495739D01*
X0655308D01*
Y0495566D01*
X0655395D01*
Y0495393D01*
X0655482D01*
Y0495133D01*
X0655568D01*
Y0494873D01*
X0655655D01*
Y0494527D01*
X0655741D01*
Y0493921D01*
X0655828D01*
Y0492969D01*
X0655741D01*
Y0492450D01*
X0655655D01*
Y0492104D01*
X0655568D01*
Y0491844D01*
X0655482D01*
Y0491584D01*
X0655395D01*
Y0491411D01*
X0655308D01*
Y0491152D01*
X0655222D01*
Y0490979D01*
X0655135D01*
Y0490892D01*
X0655049D01*
Y0490719D01*
X0654962D01*
Y0490632D01*
X0654876D01*
Y0490459D01*
X0654789D01*
Y0490373D01*
X0654703D01*
Y0490200D01*
X0654616D01*
Y0490113D01*
X0654530D01*
Y0490027D01*
X0654443D01*
Y0489940D01*
X0654356D01*
Y0489854D01*
X0654270D01*
Y0489767D01*
X0654183D01*
Y0489680D01*
X0654097D01*
Y0489594D01*
X0654010D01*
Y0489507D01*
X0653837D01*
Y0489421D01*
X0653751D01*
Y0489334D01*
X0653664D01*
Y0489248D01*
X0653491D01*
Y0489161D01*
X0653405D01*
Y0489075D01*
X0653231D01*
Y0488988D01*
X0653058D01*
Y0488902D01*
X0652972D01*
Y0488815D01*
X0652712D01*
Y0488729D01*
X0652539D01*
Y0488642D01*
X0652279D01*
Y0488555D01*
X0652020D01*
Y0488469D01*
X0651674D01*
Y0488382D01*
X0651068D01*
Y0488296D01*
X0650202D01*
Y0488382D01*
X0649596D01*
Y0488469D01*
X0649250D01*
Y0488555D01*
X0648991D01*
Y0488642D01*
X0648731D01*
Y0488729D01*
X0648558D01*
Y0488815D01*
X0648385D01*
Y0488902D01*
X0648212D01*
Y0488988D01*
X0648039D01*
Y0489075D01*
X0647952D01*
Y0489161D01*
X0647779D01*
Y0489248D01*
X0647692D01*
Y0489334D01*
X0647519D01*
Y0489421D01*
X0647433D01*
Y0489507D01*
X0647346D01*
Y0489594D01*
X0647260D01*
Y0489680D01*
X0647173D01*
Y0489767D01*
X0647087D01*
Y0489854D01*
X0647000D01*
Y0489940D01*
X0646913D01*
Y0490027D01*
X0646827D01*
Y0490113D01*
X0646740D01*
Y0490200D01*
X0646654D01*
Y0490286D01*
X0646567D01*
Y0490459D01*
X0646481D01*
Y0490546D01*
X0646394D01*
Y0490719D01*
X0646308D01*
Y0490806D01*
X0646221D01*
Y0490979D01*
X0646135D01*
Y0491152D01*
X0646048D01*
Y0491325D01*
X0645962D01*
Y0491584D01*
X0645875D01*
Y0491758D01*
X0645788D01*
Y0492017D01*
X0645702D01*
Y0492364D01*
X0645615D01*
Y0492883D01*
X0645529D01*
Y0494441D01*
X0645615D01*
Y0495306D01*
X0645529D01*
Y0495739D01*
X0645442D01*
Y0495998D01*
X0645356D01*
Y0496172D01*
X0645269D01*
Y0496345D01*
X0645183D01*
Y0496518D01*
X0645096D01*
Y0496604D01*
X0645010D01*
Y0496777D01*
X0644923D01*
Y0496864D01*
X0644836D01*
Y0496950D01*
X0644750D01*
Y0497037D01*
X0644663D01*
Y0497123D01*
X0644577D01*
Y0497210D01*
X0644490D01*
Y0497297D01*
X0644317D01*
Y0497383D01*
X0644231D01*
Y0497470D01*
X0644144D01*
Y0497556D01*
X0643971D01*
Y0497643D01*
X0643884D01*
Y0497729D01*
X0643711D01*
Y0497816D01*
X0643538D01*
Y0497902D01*
X0643279D01*
Y0497989D01*
X0642846D01*
Y0498075D01*
X0641721D01*
Y0497989D01*
X0641288D01*
Y0497902D01*
X0639644D01*
Y0497989D01*
X0639297D01*
Y0498075D01*
X0639038D01*
Y0498162D01*
X0638778D01*
Y0498249D01*
X0638519D01*
Y0498335D01*
X0638345D01*
Y0498422D01*
X0638172D01*
Y0498508D01*
X0638086D01*
Y0498595D01*
X0637913D01*
Y0498681D01*
X0637826D01*
Y0498768D01*
X0637653D01*
Y0498854D01*
X0637567D01*
Y0498941D01*
X0637480D01*
Y0499027D01*
X0637394D01*
Y0499114D01*
X0637307D01*
Y0499201D01*
X0637220D01*
Y0499287D01*
X0637134D01*
Y0499374D01*
X0637047D01*
Y0499460D01*
X0636961D01*
Y0499547D01*
X0636874D01*
Y0499633D01*
X0636788D01*
Y0499720D01*
X0636701D01*
Y0499893D01*
X0636615D01*
Y0499979D01*
X0636528D01*
Y0500153D01*
X0636442D01*
Y0500239D01*
X0636355D01*
Y0500412D01*
X0636268D01*
Y0500585D01*
X0636182D01*
Y0500845D01*
X0636095D01*
Y0501018D01*
X0636009D01*
Y0501364D01*
X0635922D01*
Y0501710D01*
X0635836D01*
Y0503441D01*
X0635922D01*
Y0503788D01*
X0636009D01*
Y0504047D01*
X0636095D01*
Y0504307D01*
X0636182D01*
Y0504480D01*
X0636268D01*
Y0504653D01*
X0636355D01*
Y0504826D01*
X0636442D01*
Y0504999D01*
X0636528D01*
Y0505086D01*
X0636615D01*
Y0505259D01*
X0636701D01*
Y0505345D01*
X0636788D01*
Y0505518D01*
X0636874D01*
Y0505605D01*
X0636961D01*
Y0505691D01*
X0637047D01*
Y0505778D01*
X0637134D01*
Y0505865D01*
X0637220D01*
Y0505951D01*
X0637307D01*
Y0506038D01*
X0637394D01*
Y0506124D01*
X0637480D01*
Y0506211D01*
X0637653D01*
Y0506297D01*
X0637740D01*
Y0506384D01*
X0637826D01*
Y0506470D01*
X0637999D01*
Y0506557D01*
X0638086D01*
Y0506643D01*
X0638259D01*
Y0506730D01*
X0638432D01*
Y0506817D01*
X0638605D01*
Y0506903D01*
X0638865D01*
Y0506990D01*
X0639124D01*
Y0507076D01*
X0639384D01*
Y0507163D01*
X0639903D01*
Y0507249D01*
X0641028D01*
Y0507163D01*
X0641548D01*
Y0507076D01*
X0641807D01*
Y0506990D01*
X0642067D01*
Y0506903D01*
X0642327D01*
Y0506817D01*
X0642673D01*
Y0506730D01*
X0643192D01*
Y0506643D01*
X0644231D01*
Y0506730D01*
X0644750D01*
Y0506817D01*
X0645096D01*
Y0506903D01*
X0645356D01*
Y0506990D01*
X0645529D01*
Y0507076D01*
X0645702D01*
Y0507163D01*
X0645875D01*
Y0507249D01*
X0646048D01*
Y0507336D01*
X0646135D01*
Y0507422D01*
X0646308D01*
Y0507509D01*
X0646394D01*
Y0507595D01*
X0646567D01*
Y0507682D01*
X0646654D01*
Y0507769D01*
X0646740D01*
Y0507855D01*
X0646827D01*
Y0507942D01*
X0646913D01*
Y0508028D01*
X0647000D01*
Y0508115D01*
X0647087D01*
Y0508201D01*
X0647173D01*
Y0508288D01*
X0647260D01*
Y0508374D01*
X0647346D01*
Y0508461D01*
X0647433D01*
Y0508547D01*
X0647519D01*
Y0508721D01*
X0647606D01*
Y0508807D01*
X0647692D01*
Y0508894D01*
X0647779D01*
Y0509067D01*
X0647865D01*
Y0509153D01*
X0647952D01*
Y0509327D01*
X0648039D01*
Y0509413D01*
X0648125D01*
Y0509586D01*
X0648212D01*
Y0509759D01*
X0648298D01*
Y0510019D01*
X0648385D01*
Y0510192D01*
X0648471D01*
Y0510452D01*
X0648558D01*
Y0510798D01*
X0648644D01*
Y0511404D01*
X0648731D01*
Y0512096D01*
X0648644D01*
Y0512702D01*
X0648558D01*
Y0513048D01*
X0648471D01*
Y0513308D01*
X0648385D01*
Y0513567D01*
X0648298D01*
Y0513740D01*
X0648212D01*
Y0513913D01*
X0648125D01*
Y0514086D01*
X0648039D01*
Y0514173D01*
X0647952D01*
Y0514346D01*
X0647865D01*
Y0514433D01*
X0647779D01*
Y0514519D01*
X0647692D01*
Y0514692D01*
X0647606D01*
Y0514779D01*
X0647519D01*
Y0514865D01*
X0647433D01*
Y0514952D01*
X0647346D01*
Y0515038D01*
X0647260D01*
Y0515125D01*
X0647173D01*
Y0515212D01*
X0647087D01*
Y0515298D01*
X0646913D01*
Y0515385D01*
X0646827D01*
Y0515471D01*
X0646740D01*
Y0515558D01*
X0646567D01*
Y0515644D01*
X0646481D01*
Y0515731D01*
X0646308D01*
Y0515817D01*
X0646135D01*
Y0515904D01*
X0645875D01*
Y0515990D01*
X0645702D01*
Y0516077D01*
X0645356D01*
Y0516164D01*
X0644923D01*
Y0516250D01*
X0644404D01*
Y0516337D01*
X0643971D01*
Y0516423D01*
X0643711D01*
Y0516510D01*
X0643452D01*
Y0516596D01*
X0643192D01*
Y0516683D01*
X0643019D01*
Y0516769D01*
X0642759D01*
Y0516856D01*
X0642673D01*
Y0516943D01*
X0642500D01*
Y0517029D01*
X0642327D01*
Y0517116D01*
X0642154D01*
Y0517202D01*
X0642067D01*
Y0517289D01*
X0641980D01*
Y0517375D01*
X0641807D01*
Y0517462D01*
X0641721D01*
Y0517548D01*
X0641634D01*
Y0517635D01*
X0641548D01*
Y0517721D01*
X0641375D01*
Y0517808D01*
X0641288D01*
Y0517895D01*
X0641201D01*
Y0517981D01*
X0641115D01*
Y0518068D01*
X0641028D01*
Y0518154D01*
X0640942D01*
Y0518327D01*
X0640855D01*
Y0518414D01*
X0640769D01*
Y0518500D01*
X0640682D01*
Y0518587D01*
X0640596D01*
Y0518760D01*
X0640509D01*
Y0518847D01*
X0640423D01*
Y0519020D01*
X0640336D01*
Y0519193D01*
X0640249D01*
Y0519279D01*
X0640163D01*
Y0519452D01*
X0640076D01*
Y0519625D01*
X0639990D01*
Y0519885D01*
X0639903D01*
Y0520058D01*
X0639817D01*
Y0520318D01*
X0639730D01*
Y0520664D01*
X0639644D01*
Y0521010D01*
X0639557D01*
Y0521702D01*
X0639471D01*
Y0522481D01*
X0639557D01*
Y0523174D01*
X0639644D01*
Y0523520D01*
X0639730D01*
Y0523866D01*
X0639817D01*
Y0524126D01*
X0639903D01*
Y0524299D01*
X0639990D01*
Y0524559D01*
X0640076D01*
Y0524732D01*
X0640163D01*
Y0524905D01*
X0640249D01*
Y0524991D01*
X0640336D01*
Y0525164D01*
X0640423D01*
Y0525338D01*
X0640509D01*
Y0525424D01*
X0640596D01*
Y0525597D01*
X0640682D01*
Y0525684D01*
X0640769D01*
Y0525770D01*
X0640855D01*
Y0525857D01*
X0640942D01*
Y0525943D01*
X0641028D01*
Y0526116D01*
X0641115D01*
Y0526203D01*
X0641201D01*
Y0526290D01*
X0641288D01*
Y0526376D01*
X0641375D01*
Y0526463D01*
X0641548D01*
Y0526549D01*
X0641634D01*
Y0526636D01*
X0641721D01*
Y0526722D01*
X0641807D01*
Y0526809D01*
X0641980D01*
Y0526895D01*
X0642067D01*
Y0526982D01*
X0642154D01*
Y0527068D01*
X0642327D01*
Y0527155D01*
X0642500D01*
Y0527242D01*
X0642673D01*
Y0527328D01*
X0642846D01*
Y0527415D01*
X0643019D01*
Y0527501D01*
X0643192D01*
Y0527588D01*
X0643452D01*
Y0527674D01*
X0643711D01*
Y0527761D01*
X0643971D01*
Y0527847D01*
X0644404D01*
Y0527934D01*
X0645269D01*
Y0528020D01*
X0645442D01*
Y0527934D01*
D02*
G37*
G36*
X0539929D02*
X0540881D01*
Y0527847D01*
X0541314D01*
Y0527761D01*
X0541573D01*
Y0527674D01*
X0541833D01*
Y0527588D01*
X0542093D01*
Y0527501D01*
X0542266D01*
Y0527415D01*
X0542439D01*
Y0527328D01*
X0542612D01*
Y0527242D01*
X0542785D01*
Y0527155D01*
X0542958D01*
Y0527068D01*
X0543045D01*
Y0526982D01*
X0543218D01*
Y0526895D01*
X0543304D01*
Y0526809D01*
X0543477D01*
Y0526722D01*
X0543564D01*
Y0526636D01*
X0543650D01*
Y0526549D01*
X0543737D01*
Y0526463D01*
X0543824D01*
Y0526376D01*
X0543910D01*
Y0526290D01*
X0543997D01*
Y0526203D01*
X0544083D01*
Y0526116D01*
X0544170D01*
Y0526030D01*
X0544256D01*
Y0525943D01*
X0544343D01*
Y0525857D01*
X0544429D01*
Y0525770D01*
X0544516D01*
Y0525684D01*
X0544602D01*
Y0525511D01*
X0544689D01*
Y0525424D01*
X0544776D01*
Y0525251D01*
X0544862D01*
Y0525164D01*
X0544949D01*
Y0524991D01*
X0545035D01*
Y0524818D01*
X0545122D01*
Y0524645D01*
X0545208D01*
Y0524472D01*
X0545295D01*
Y0524299D01*
X0545381D01*
Y0524039D01*
X0545468D01*
Y0523780D01*
X0545554D01*
Y0523433D01*
X0545641D01*
Y0523087D01*
X0545728D01*
Y0521183D01*
X0545641D01*
Y0520751D01*
X0545554D01*
Y0520404D01*
X0545468D01*
Y0520145D01*
X0545381D01*
Y0519972D01*
X0545295D01*
Y0519712D01*
X0545208D01*
Y0519539D01*
X0545122D01*
Y0519366D01*
X0545035D01*
Y0519106D01*
X0544949D01*
Y0518933D01*
X0544862D01*
Y0518673D01*
X0544776D01*
Y0518414D01*
X0544689D01*
Y0518154D01*
X0544602D01*
Y0517635D01*
X0544516D01*
Y0516596D01*
X0544602D01*
Y0515990D01*
X0544689D01*
Y0515644D01*
X0544776D01*
Y0515385D01*
X0544862D01*
Y0515212D01*
X0544949D01*
Y0515038D01*
X0545035D01*
Y0514865D01*
X0545122D01*
Y0514692D01*
X0545208D01*
Y0514606D01*
X0545295D01*
Y0514433D01*
X0545381D01*
Y0514346D01*
X0545468D01*
Y0514173D01*
X0545554D01*
Y0514086D01*
X0545641D01*
Y0514000D01*
X0545728D01*
Y0513913D01*
X0545814D01*
Y0513827D01*
X0545901D01*
Y0513740D01*
X0545987D01*
Y0513654D01*
X0546160D01*
Y0513567D01*
X0546247D01*
Y0513481D01*
X0546333D01*
Y0513394D01*
X0546507D01*
Y0513308D01*
X0546593D01*
Y0513221D01*
X0546766D01*
Y0513134D01*
X0546939D01*
Y0513048D01*
X0547112D01*
Y0512961D01*
X0547285D01*
Y0512875D01*
X0547545D01*
Y0512788D01*
X0547805D01*
Y0512702D01*
X0547978D01*
Y0512615D01*
X0548151D01*
Y0512529D01*
X0548324D01*
Y0512442D01*
X0548497D01*
Y0512356D01*
X0548670D01*
Y0512269D01*
X0548757D01*
Y0512183D01*
X0548843D01*
Y0512096D01*
X0549016D01*
Y0512009D01*
X0549103D01*
Y0511923D01*
X0549189D01*
Y0511836D01*
X0549276D01*
Y0511750D01*
X0549363D01*
Y0511663D01*
X0549449D01*
Y0511490D01*
X0549536D01*
Y0511404D01*
X0549622D01*
Y0511317D01*
X0549709D01*
Y0511144D01*
X0549795D01*
Y0510971D01*
X0549882D01*
Y0510798D01*
X0549968D01*
Y0510625D01*
X0550055D01*
Y0510365D01*
X0550141D01*
Y0510105D01*
X0550228D01*
Y0509673D01*
X0550315D01*
Y0508807D01*
X0550228D01*
Y0508288D01*
X0550141D01*
Y0508028D01*
X0550055D01*
Y0507769D01*
X0549968D01*
Y0507595D01*
X0549882D01*
Y0507422D01*
X0549795D01*
Y0507249D01*
X0549709D01*
Y0507163D01*
X0549622D01*
Y0506990D01*
X0549536D01*
Y0506903D01*
X0549449D01*
Y0506817D01*
X0549363D01*
Y0506730D01*
X0549276D01*
Y0506643D01*
X0549189D01*
Y0506557D01*
X0549103D01*
Y0506470D01*
X0549016D01*
Y0506384D01*
X0548930D01*
Y0506297D01*
X0548843D01*
Y0506211D01*
X0548757D01*
Y0506124D01*
X0548584D01*
Y0506038D01*
X0548497D01*
Y0505951D01*
X0548324D01*
Y0505865D01*
X0548151D01*
Y0505778D01*
X0547891D01*
Y0505691D01*
X0547718D01*
Y0505605D01*
X0547372D01*
Y0505518D01*
X0546766D01*
Y0505432D01*
X0546420D01*
Y0505518D01*
X0545728D01*
Y0505605D01*
X0545035D01*
Y0505691D01*
X0543910D01*
Y0505605D01*
X0543304D01*
Y0505518D01*
X0542958D01*
Y0505432D01*
X0542698D01*
Y0505345D01*
X0542525D01*
Y0505259D01*
X0542266D01*
Y0505172D01*
X0542093D01*
Y0505086D01*
X0541920D01*
Y0504999D01*
X0541747D01*
Y0504913D01*
X0541573D01*
Y0504826D01*
X0541487D01*
Y0504740D01*
X0541314D01*
Y0504653D01*
X0541141D01*
Y0504566D01*
X0541054D01*
Y0504480D01*
X0540881D01*
Y0504393D01*
X0540795D01*
Y0504307D01*
X0540708D01*
Y0504220D01*
X0540621D01*
Y0504134D01*
X0540535D01*
Y0504047D01*
X0540448D01*
Y0503961D01*
X0540362D01*
Y0503874D01*
X0540275D01*
Y0503788D01*
X0540189D01*
Y0503614D01*
X0540102D01*
Y0503441D01*
X0540016D01*
Y0503355D01*
X0539929D01*
Y0503095D01*
X0539843D01*
Y0502922D01*
X0539756D01*
Y0502576D01*
X0539669D01*
Y0502057D01*
X0539583D01*
Y0501278D01*
X0539669D01*
Y0500845D01*
X0539756D01*
Y0500499D01*
X0539843D01*
Y0500326D01*
X0539929D01*
Y0500153D01*
X0540016D01*
Y0499979D01*
X0540102D01*
Y0499806D01*
X0540189D01*
Y0499720D01*
X0540275D01*
Y0499633D01*
X0540362D01*
Y0499460D01*
X0540448D01*
Y0499374D01*
X0540535D01*
Y0499287D01*
X0540621D01*
Y0499201D01*
X0540708D01*
Y0499114D01*
X0540795D01*
Y0499027D01*
X0540968D01*
Y0498941D01*
X0541054D01*
Y0498854D01*
X0541227D01*
Y0498768D01*
X0541400D01*
Y0498681D01*
X0541573D01*
Y0498595D01*
X0541747D01*
Y0498508D01*
X0542006D01*
Y0498422D01*
X0542352D01*
Y0498335D01*
X0543477D01*
Y0498422D01*
X0543910D01*
Y0498508D01*
X0544256D01*
Y0498595D01*
X0545987D01*
Y0498508D01*
X0546420D01*
Y0498422D01*
X0546680D01*
Y0498335D01*
X0546939D01*
Y0498249D01*
X0547199D01*
Y0498162D01*
X0547372D01*
Y0498075D01*
X0547545D01*
Y0497989D01*
X0547718D01*
Y0497902D01*
X0547805D01*
Y0497816D01*
X0547978D01*
Y0497729D01*
X0548064D01*
Y0497643D01*
X0548237D01*
Y0497556D01*
X0548324D01*
Y0497470D01*
X0548411D01*
Y0497383D01*
X0548497D01*
Y0497297D01*
X0548670D01*
Y0497210D01*
X0548757D01*
Y0497123D01*
X0548843D01*
Y0497037D01*
X0548930D01*
Y0496864D01*
X0549016D01*
Y0496777D01*
X0549103D01*
Y0496691D01*
X0549189D01*
Y0496604D01*
X0549276D01*
Y0496431D01*
X0549363D01*
Y0496345D01*
X0549449D01*
Y0496258D01*
X0549536D01*
Y0496085D01*
X0549622D01*
Y0495912D01*
X0549709D01*
Y0495739D01*
X0549795D01*
Y0495566D01*
X0549882D01*
Y0495393D01*
X0549968D01*
Y0495133D01*
X0550055D01*
Y0494873D01*
X0550141D01*
Y0494527D01*
X0550228D01*
Y0493921D01*
X0550315D01*
Y0492969D01*
X0550228D01*
Y0492450D01*
X0550141D01*
Y0492104D01*
X0550055D01*
Y0491844D01*
X0549968D01*
Y0491584D01*
X0549882D01*
Y0491411D01*
X0549795D01*
Y0491152D01*
X0549709D01*
Y0490979D01*
X0549622D01*
Y0490892D01*
X0549536D01*
Y0490719D01*
X0549449D01*
Y0490632D01*
X0549363D01*
Y0490459D01*
X0549276D01*
Y0490373D01*
X0549189D01*
Y0490200D01*
X0549103D01*
Y0490113D01*
X0549016D01*
Y0490027D01*
X0548930D01*
Y0489940D01*
X0548843D01*
Y0489854D01*
X0548757D01*
Y0489767D01*
X0548670D01*
Y0489680D01*
X0548584D01*
Y0489594D01*
X0548497D01*
Y0489507D01*
X0548324D01*
Y0489421D01*
X0548237D01*
Y0489334D01*
X0548151D01*
Y0489248D01*
X0547978D01*
Y0489161D01*
X0547891D01*
Y0489075D01*
X0547718D01*
Y0488988D01*
X0547545D01*
Y0488902D01*
X0547459D01*
Y0488815D01*
X0547199D01*
Y0488729D01*
X0547026D01*
Y0488642D01*
X0546766D01*
Y0488555D01*
X0546507D01*
Y0488469D01*
X0546160D01*
Y0488382D01*
X0545554D01*
Y0488296D01*
X0544689D01*
Y0488382D01*
X0544083D01*
Y0488469D01*
X0543737D01*
Y0488555D01*
X0543477D01*
Y0488642D01*
X0543218D01*
Y0488729D01*
X0543045D01*
Y0488815D01*
X0542872D01*
Y0488902D01*
X0542698D01*
Y0488988D01*
X0542525D01*
Y0489075D01*
X0542439D01*
Y0489161D01*
X0542266D01*
Y0489248D01*
X0542179D01*
Y0489334D01*
X0542006D01*
Y0489421D01*
X0541920D01*
Y0489507D01*
X0541833D01*
Y0489594D01*
X0541747D01*
Y0489680D01*
X0541660D01*
Y0489767D01*
X0541573D01*
Y0489854D01*
X0541487D01*
Y0489940D01*
X0541400D01*
Y0490027D01*
X0541314D01*
Y0490113D01*
X0541227D01*
Y0490200D01*
X0541141D01*
Y0490286D01*
X0541054D01*
Y0490459D01*
X0540968D01*
Y0490546D01*
X0540881D01*
Y0490719D01*
X0540795D01*
Y0490806D01*
X0540708D01*
Y0490979D01*
X0540621D01*
Y0491152D01*
X0540535D01*
Y0491325D01*
X0540448D01*
Y0491584D01*
X0540362D01*
Y0491758D01*
X0540275D01*
Y0492017D01*
X0540189D01*
Y0492364D01*
X0540102D01*
Y0492883D01*
X0540016D01*
Y0494441D01*
X0540102D01*
Y0495306D01*
X0540016D01*
Y0495739D01*
X0539929D01*
Y0495998D01*
X0539843D01*
Y0496172D01*
X0539756D01*
Y0496345D01*
X0539669D01*
Y0496518D01*
X0539583D01*
Y0496604D01*
X0539496D01*
Y0496777D01*
X0539410D01*
Y0496864D01*
X0539323D01*
Y0496950D01*
X0539237D01*
Y0497037D01*
X0539150D01*
Y0497123D01*
X0539064D01*
Y0497210D01*
X0538977D01*
Y0497297D01*
X0538804D01*
Y0497383D01*
X0538717D01*
Y0497470D01*
X0538631D01*
Y0497556D01*
X0538458D01*
Y0497643D01*
X0538371D01*
Y0497729D01*
X0538198D01*
Y0497816D01*
X0538025D01*
Y0497902D01*
X0537765D01*
Y0497989D01*
X0537333D01*
Y0498075D01*
X0536207D01*
Y0497989D01*
X0535775D01*
Y0497902D01*
X0534130D01*
Y0497989D01*
X0533784D01*
Y0498075D01*
X0533525D01*
Y0498162D01*
X0533265D01*
Y0498249D01*
X0533005D01*
Y0498335D01*
X0532832D01*
Y0498422D01*
X0532659D01*
Y0498508D01*
X0532573D01*
Y0498595D01*
X0532400D01*
Y0498681D01*
X0532313D01*
Y0498768D01*
X0532140D01*
Y0498854D01*
X0532053D01*
Y0498941D01*
X0531967D01*
Y0499027D01*
X0531880D01*
Y0499114D01*
X0531794D01*
Y0499201D01*
X0531707D01*
Y0499287D01*
X0531621D01*
Y0499374D01*
X0531534D01*
Y0499460D01*
X0531448D01*
Y0499547D01*
X0531361D01*
Y0499633D01*
X0531274D01*
Y0499720D01*
X0531188D01*
Y0499893D01*
X0531101D01*
Y0499979D01*
X0531015D01*
Y0500153D01*
X0530928D01*
Y0500239D01*
X0530842D01*
Y0500412D01*
X0530755D01*
Y0500585D01*
X0530669D01*
Y0500845D01*
X0530582D01*
Y0501018D01*
X0530496D01*
Y0501364D01*
X0530409D01*
Y0501710D01*
X0530322D01*
Y0503441D01*
X0530409D01*
Y0503788D01*
X0530496D01*
Y0504047D01*
X0530582D01*
Y0504307D01*
X0530669D01*
Y0504480D01*
X0530755D01*
Y0504653D01*
X0530842D01*
Y0504826D01*
X0530928D01*
Y0504999D01*
X0531015D01*
Y0505086D01*
X0531101D01*
Y0505259D01*
X0531188D01*
Y0505345D01*
X0531274D01*
Y0505518D01*
X0531361D01*
Y0505605D01*
X0531448D01*
Y0505691D01*
X0531534D01*
Y0505778D01*
X0531621D01*
Y0505865D01*
X0531707D01*
Y0505951D01*
X0531794D01*
Y0506038D01*
X0531880D01*
Y0506124D01*
X0531967D01*
Y0506211D01*
X0532140D01*
Y0506297D01*
X0532226D01*
Y0506384D01*
X0532313D01*
Y0506470D01*
X0532486D01*
Y0506557D01*
X0532573D01*
Y0506643D01*
X0532746D01*
Y0506730D01*
X0532919D01*
Y0506817D01*
X0533092D01*
Y0506903D01*
X0533352D01*
Y0506990D01*
X0533611D01*
Y0507076D01*
X0533871D01*
Y0507163D01*
X0534390D01*
Y0507249D01*
X0535515D01*
Y0507163D01*
X0536034D01*
Y0507076D01*
X0536294D01*
Y0506990D01*
X0536554D01*
Y0506903D01*
X0536813D01*
Y0506817D01*
X0537160D01*
Y0506730D01*
X0537679D01*
Y0506643D01*
X0538717D01*
Y0506730D01*
X0539237D01*
Y0506817D01*
X0539583D01*
Y0506903D01*
X0539843D01*
Y0506990D01*
X0540016D01*
Y0507076D01*
X0540189D01*
Y0507163D01*
X0540362D01*
Y0507249D01*
X0540535D01*
Y0507336D01*
X0540621D01*
Y0507422D01*
X0540795D01*
Y0507509D01*
X0540881D01*
Y0507595D01*
X0541054D01*
Y0507682D01*
X0541141D01*
Y0507769D01*
X0541227D01*
Y0507855D01*
X0541314D01*
Y0507942D01*
X0541400D01*
Y0508028D01*
X0541487D01*
Y0508115D01*
X0541573D01*
Y0508201D01*
X0541660D01*
Y0508288D01*
X0541747D01*
Y0508374D01*
X0541833D01*
Y0508461D01*
X0541920D01*
Y0508547D01*
X0542006D01*
Y0508721D01*
X0542093D01*
Y0508807D01*
X0542179D01*
Y0508894D01*
X0542266D01*
Y0509067D01*
X0542352D01*
Y0509153D01*
X0542439D01*
Y0509327D01*
X0542525D01*
Y0509413D01*
X0542612D01*
Y0509586D01*
X0542698D01*
Y0509759D01*
X0542785D01*
Y0510019D01*
X0542872D01*
Y0510192D01*
X0542958D01*
Y0510452D01*
X0543045D01*
Y0510798D01*
X0543131D01*
Y0511404D01*
X0543218D01*
Y0512096D01*
X0543131D01*
Y0512702D01*
X0543045D01*
Y0513048D01*
X0542958D01*
Y0513308D01*
X0542872D01*
Y0513567D01*
X0542785D01*
Y0513740D01*
X0542698D01*
Y0513913D01*
X0542612D01*
Y0514086D01*
X0542525D01*
Y0514173D01*
X0542439D01*
Y0514346D01*
X0542352D01*
Y0514433D01*
X0542266D01*
Y0514519D01*
X0542179D01*
Y0514692D01*
X0542093D01*
Y0514779D01*
X0542006D01*
Y0514865D01*
X0541920D01*
Y0514952D01*
X0541833D01*
Y0515038D01*
X0541747D01*
Y0515125D01*
X0541660D01*
Y0515212D01*
X0541573D01*
Y0515298D01*
X0541400D01*
Y0515385D01*
X0541314D01*
Y0515471D01*
X0541227D01*
Y0515558D01*
X0541054D01*
Y0515644D01*
X0540968D01*
Y0515731D01*
X0540795D01*
Y0515817D01*
X0540621D01*
Y0515904D01*
X0540362D01*
Y0515990D01*
X0540189D01*
Y0516077D01*
X0539843D01*
Y0516164D01*
X0539410D01*
Y0516250D01*
X0538891D01*
Y0516337D01*
X0538458D01*
Y0516423D01*
X0538198D01*
Y0516510D01*
X0537938D01*
Y0516596D01*
X0537679D01*
Y0516683D01*
X0537506D01*
Y0516769D01*
X0537246D01*
Y0516856D01*
X0537160D01*
Y0516943D01*
X0536986D01*
Y0517029D01*
X0536813D01*
Y0517116D01*
X0536640D01*
Y0517202D01*
X0536554D01*
Y0517289D01*
X0536467D01*
Y0517375D01*
X0536294D01*
Y0517462D01*
X0536207D01*
Y0517548D01*
X0536121D01*
Y0517635D01*
X0536034D01*
Y0517721D01*
X0535861D01*
Y0517808D01*
X0535775D01*
Y0517895D01*
X0535688D01*
Y0517981D01*
X0535602D01*
Y0518068D01*
X0535515D01*
Y0518154D01*
X0535429D01*
Y0518327D01*
X0535342D01*
Y0518414D01*
X0535255D01*
Y0518500D01*
X0535169D01*
Y0518587D01*
X0535082D01*
Y0518760D01*
X0534996D01*
Y0518847D01*
X0534909D01*
Y0519020D01*
X0534823D01*
Y0519193D01*
X0534736D01*
Y0519279D01*
X0534650D01*
Y0519452D01*
X0534563D01*
Y0519625D01*
X0534477D01*
Y0519885D01*
X0534390D01*
Y0520058D01*
X0534304D01*
Y0520318D01*
X0534217D01*
Y0520664D01*
X0534130D01*
Y0521010D01*
X0534044D01*
Y0521702D01*
X0533957D01*
Y0522481D01*
X0534044D01*
Y0523174D01*
X0534130D01*
Y0523520D01*
X0534217D01*
Y0523866D01*
X0534304D01*
Y0524126D01*
X0534390D01*
Y0524299D01*
X0534477D01*
Y0524559D01*
X0534563D01*
Y0524732D01*
X0534650D01*
Y0524905D01*
X0534736D01*
Y0524991D01*
X0534823D01*
Y0525164D01*
X0534909D01*
Y0525338D01*
X0534996D01*
Y0525424D01*
X0535082D01*
Y0525597D01*
X0535169D01*
Y0525684D01*
X0535255D01*
Y0525770D01*
X0535342D01*
Y0525857D01*
X0535429D01*
Y0525943D01*
X0535515D01*
Y0526116D01*
X0535602D01*
Y0526203D01*
X0535688D01*
Y0526290D01*
X0535775D01*
Y0526376D01*
X0535861D01*
Y0526463D01*
X0536034D01*
Y0526549D01*
X0536121D01*
Y0526636D01*
X0536207D01*
Y0526722D01*
X0536294D01*
Y0526809D01*
X0536467D01*
Y0526895D01*
X0536554D01*
Y0526982D01*
X0536640D01*
Y0527068D01*
X0536813D01*
Y0527155D01*
X0536986D01*
Y0527242D01*
X0537160D01*
Y0527328D01*
X0537333D01*
Y0527415D01*
X0537506D01*
Y0527501D01*
X0537679D01*
Y0527588D01*
X0537938D01*
Y0527674D01*
X0538198D01*
Y0527761D01*
X0538458D01*
Y0527847D01*
X0538891D01*
Y0527934D01*
X0539756D01*
Y0528020D01*
X0539929D01*
Y0527934D01*
D02*
G37*
G36*
X0434416D02*
X0435368D01*
Y0527847D01*
X0435801D01*
Y0527761D01*
X0436060D01*
Y0527674D01*
X0436320D01*
Y0527588D01*
X0436579D01*
Y0527501D01*
X0436753D01*
Y0527415D01*
X0436926D01*
Y0527328D01*
X0437099D01*
Y0527242D01*
X0437272D01*
Y0527155D01*
X0437445D01*
Y0527068D01*
X0437532D01*
Y0526982D01*
X0437705D01*
Y0526895D01*
X0437791D01*
Y0526809D01*
X0437964D01*
Y0526722D01*
X0438051D01*
Y0526636D01*
X0438137D01*
Y0526549D01*
X0438224D01*
Y0526463D01*
X0438310D01*
Y0526376D01*
X0438397D01*
Y0526290D01*
X0438483D01*
Y0526203D01*
X0438570D01*
Y0526116D01*
X0438657D01*
Y0526030D01*
X0438743D01*
Y0525943D01*
X0438830D01*
Y0525857D01*
X0438916D01*
Y0525770D01*
X0439003D01*
Y0525684D01*
X0439089D01*
Y0525511D01*
X0439176D01*
Y0525424D01*
X0439262D01*
Y0525251D01*
X0439349D01*
Y0525164D01*
X0439435D01*
Y0524991D01*
X0439522D01*
Y0524818D01*
X0439609D01*
Y0524645D01*
X0439695D01*
Y0524472D01*
X0439782D01*
Y0524299D01*
X0439868D01*
Y0524039D01*
X0439955D01*
Y0523780D01*
X0440041D01*
Y0523433D01*
X0440128D01*
Y0523087D01*
X0440214D01*
Y0521183D01*
X0440128D01*
Y0520751D01*
X0440041D01*
Y0520404D01*
X0439955D01*
Y0520145D01*
X0439868D01*
Y0519972D01*
X0439782D01*
Y0519712D01*
X0439695D01*
Y0519539D01*
X0439609D01*
Y0519366D01*
X0439522D01*
Y0519106D01*
X0439435D01*
Y0518933D01*
X0439349D01*
Y0518673D01*
X0439262D01*
Y0518414D01*
X0439176D01*
Y0518154D01*
X0439089D01*
Y0517635D01*
X0439003D01*
Y0516596D01*
X0439089D01*
Y0515990D01*
X0439176D01*
Y0515644D01*
X0439262D01*
Y0515385D01*
X0439349D01*
Y0515212D01*
X0439435D01*
Y0515038D01*
X0439522D01*
Y0514865D01*
X0439609D01*
Y0514692D01*
X0439695D01*
Y0514606D01*
X0439782D01*
Y0514433D01*
X0439868D01*
Y0514346D01*
X0439955D01*
Y0514173D01*
X0440041D01*
Y0514086D01*
X0440128D01*
Y0514000D01*
X0440214D01*
Y0513913D01*
X0440301D01*
Y0513827D01*
X0440387D01*
Y0513740D01*
X0440474D01*
Y0513654D01*
X0440647D01*
Y0513567D01*
X0440734D01*
Y0513481D01*
X0440820D01*
Y0513394D01*
X0440993D01*
Y0513308D01*
X0441080D01*
Y0513221D01*
X0441253D01*
Y0513134D01*
X0441426D01*
Y0513048D01*
X0441599D01*
Y0512961D01*
X0441772D01*
Y0512875D01*
X0442032D01*
Y0512788D01*
X0442291D01*
Y0512702D01*
X0442465D01*
Y0512615D01*
X0442638D01*
Y0512529D01*
X0442811D01*
Y0512442D01*
X0442984D01*
Y0512356D01*
X0443157D01*
Y0512269D01*
X0443244D01*
Y0512183D01*
X0443330D01*
Y0512096D01*
X0443503D01*
Y0512009D01*
X0443590D01*
Y0511923D01*
X0443676D01*
Y0511836D01*
X0443763D01*
Y0511750D01*
X0443849D01*
Y0511663D01*
X0443936D01*
Y0511490D01*
X0444022D01*
Y0511404D01*
X0444109D01*
Y0511317D01*
X0444196D01*
Y0511144D01*
X0444282D01*
Y0510971D01*
X0444369D01*
Y0510798D01*
X0444455D01*
Y0510625D01*
X0444542D01*
Y0510365D01*
X0444628D01*
Y0510105D01*
X0444715D01*
Y0509673D01*
X0444801D01*
Y0508807D01*
X0444715D01*
Y0508288D01*
X0444628D01*
Y0508028D01*
X0444542D01*
Y0507769D01*
X0444455D01*
Y0507595D01*
X0444369D01*
Y0507422D01*
X0444282D01*
Y0507249D01*
X0444196D01*
Y0507163D01*
X0444109D01*
Y0506990D01*
X0444022D01*
Y0506903D01*
X0443936D01*
Y0506817D01*
X0443849D01*
Y0506730D01*
X0443763D01*
Y0506643D01*
X0443676D01*
Y0506557D01*
X0443590D01*
Y0506470D01*
X0443503D01*
Y0506384D01*
X0443417D01*
Y0506297D01*
X0443330D01*
Y0506211D01*
X0443244D01*
Y0506124D01*
X0443070D01*
Y0506038D01*
X0442984D01*
Y0505951D01*
X0442811D01*
Y0505865D01*
X0442638D01*
Y0505778D01*
X0442378D01*
Y0505691D01*
X0442205D01*
Y0505605D01*
X0441859D01*
Y0505518D01*
X0441253D01*
Y0505432D01*
X0440907D01*
Y0505518D01*
X0440214D01*
Y0505605D01*
X0439522D01*
Y0505691D01*
X0438397D01*
Y0505605D01*
X0437791D01*
Y0505518D01*
X0437445D01*
Y0505432D01*
X0437185D01*
Y0505345D01*
X0437012D01*
Y0505259D01*
X0436753D01*
Y0505172D01*
X0436579D01*
Y0505086D01*
X0436406D01*
Y0504999D01*
X0436233D01*
Y0504913D01*
X0436060D01*
Y0504826D01*
X0435974D01*
Y0504740D01*
X0435801D01*
Y0504653D01*
X0435627D01*
Y0504566D01*
X0435541D01*
Y0504480D01*
X0435368D01*
Y0504393D01*
X0435281D01*
Y0504307D01*
X0435195D01*
Y0504220D01*
X0435108D01*
Y0504134D01*
X0435022D01*
Y0504047D01*
X0434935D01*
Y0503961D01*
X0434848D01*
Y0503874D01*
X0434762D01*
Y0503788D01*
X0434675D01*
Y0503614D01*
X0434589D01*
Y0503441D01*
X0434502D01*
Y0503355D01*
X0434416D01*
Y0503095D01*
X0434329D01*
Y0502922D01*
X0434243D01*
Y0502576D01*
X0434156D01*
Y0502057D01*
X0434070D01*
Y0501278D01*
X0434156D01*
Y0500845D01*
X0434243D01*
Y0500499D01*
X0434329D01*
Y0500326D01*
X0434416D01*
Y0500153D01*
X0434502D01*
Y0499979D01*
X0434589D01*
Y0499806D01*
X0434675D01*
Y0499720D01*
X0434762D01*
Y0499633D01*
X0434848D01*
Y0499460D01*
X0434935D01*
Y0499374D01*
X0435022D01*
Y0499287D01*
X0435108D01*
Y0499201D01*
X0435195D01*
Y0499114D01*
X0435281D01*
Y0499027D01*
X0435454D01*
Y0498941D01*
X0435541D01*
Y0498854D01*
X0435714D01*
Y0498768D01*
X0435887D01*
Y0498681D01*
X0436060D01*
Y0498595D01*
X0436233D01*
Y0498508D01*
X0436493D01*
Y0498422D01*
X0436839D01*
Y0498335D01*
X0437964D01*
Y0498422D01*
X0438397D01*
Y0498508D01*
X0438743D01*
Y0498595D01*
X0440474D01*
Y0498508D01*
X0440907D01*
Y0498422D01*
X0441166D01*
Y0498335D01*
X0441426D01*
Y0498249D01*
X0441686D01*
Y0498162D01*
X0441859D01*
Y0498075D01*
X0442032D01*
Y0497989D01*
X0442205D01*
Y0497902D01*
X0442291D01*
Y0497816D01*
X0442465D01*
Y0497729D01*
X0442551D01*
Y0497643D01*
X0442724D01*
Y0497556D01*
X0442811D01*
Y0497470D01*
X0442897D01*
Y0497383D01*
X0442984D01*
Y0497297D01*
X0443157D01*
Y0497210D01*
X0443244D01*
Y0497123D01*
X0443330D01*
Y0497037D01*
X0443417D01*
Y0496864D01*
X0443503D01*
Y0496777D01*
X0443590D01*
Y0496691D01*
X0443676D01*
Y0496604D01*
X0443763D01*
Y0496431D01*
X0443849D01*
Y0496345D01*
X0443936D01*
Y0496258D01*
X0444022D01*
Y0496085D01*
X0444109D01*
Y0495912D01*
X0444196D01*
Y0495739D01*
X0444282D01*
Y0495566D01*
X0444369D01*
Y0495393D01*
X0444455D01*
Y0495133D01*
X0444542D01*
Y0494873D01*
X0444628D01*
Y0494527D01*
X0444715D01*
Y0493921D01*
X0444801D01*
Y0492969D01*
X0444715D01*
Y0492450D01*
X0444628D01*
Y0492104D01*
X0444542D01*
Y0491844D01*
X0444455D01*
Y0491584D01*
X0444369D01*
Y0491411D01*
X0444282D01*
Y0491152D01*
X0444196D01*
Y0490979D01*
X0444109D01*
Y0490892D01*
X0444022D01*
Y0490719D01*
X0443936D01*
Y0490632D01*
X0443849D01*
Y0490459D01*
X0443763D01*
Y0490373D01*
X0443676D01*
Y0490200D01*
X0443590D01*
Y0490113D01*
X0443503D01*
Y0490027D01*
X0443417D01*
Y0489940D01*
X0443330D01*
Y0489854D01*
X0443244D01*
Y0489767D01*
X0443157D01*
Y0489680D01*
X0443070D01*
Y0489594D01*
X0442984D01*
Y0489507D01*
X0442811D01*
Y0489421D01*
X0442724D01*
Y0489334D01*
X0442638D01*
Y0489248D01*
X0442465D01*
Y0489161D01*
X0442378D01*
Y0489075D01*
X0442205D01*
Y0488988D01*
X0442032D01*
Y0488902D01*
X0441945D01*
Y0488815D01*
X0441686D01*
Y0488729D01*
X0441513D01*
Y0488642D01*
X0441253D01*
Y0488555D01*
X0440993D01*
Y0488469D01*
X0440647D01*
Y0488382D01*
X0440041D01*
Y0488296D01*
X0439176D01*
Y0488382D01*
X0438570D01*
Y0488469D01*
X0438224D01*
Y0488555D01*
X0437964D01*
Y0488642D01*
X0437705D01*
Y0488729D01*
X0437532D01*
Y0488815D01*
X0437358D01*
Y0488902D01*
X0437185D01*
Y0488988D01*
X0437012D01*
Y0489075D01*
X0436926D01*
Y0489161D01*
X0436753D01*
Y0489248D01*
X0436666D01*
Y0489334D01*
X0436493D01*
Y0489421D01*
X0436406D01*
Y0489507D01*
X0436320D01*
Y0489594D01*
X0436233D01*
Y0489680D01*
X0436147D01*
Y0489767D01*
X0436060D01*
Y0489854D01*
X0435974D01*
Y0489940D01*
X0435887D01*
Y0490027D01*
X0435801D01*
Y0490113D01*
X0435714D01*
Y0490200D01*
X0435627D01*
Y0490286D01*
X0435541D01*
Y0490459D01*
X0435454D01*
Y0490546D01*
X0435368D01*
Y0490719D01*
X0435281D01*
Y0490806D01*
X0435195D01*
Y0490979D01*
X0435108D01*
Y0491152D01*
X0435022D01*
Y0491325D01*
X0434935D01*
Y0491584D01*
X0434848D01*
Y0491758D01*
X0434762D01*
Y0492017D01*
X0434675D01*
Y0492364D01*
X0434589D01*
Y0492883D01*
X0434502D01*
Y0494441D01*
X0434589D01*
Y0495306D01*
X0434502D01*
Y0495739D01*
X0434416D01*
Y0495998D01*
X0434329D01*
Y0496172D01*
X0434243D01*
Y0496345D01*
X0434156D01*
Y0496518D01*
X0434070D01*
Y0496604D01*
X0433983D01*
Y0496777D01*
X0433896D01*
Y0496864D01*
X0433810D01*
Y0496950D01*
X0433723D01*
Y0497037D01*
X0433637D01*
Y0497123D01*
X0433550D01*
Y0497210D01*
X0433464D01*
Y0497297D01*
X0433291D01*
Y0497383D01*
X0433204D01*
Y0497470D01*
X0433118D01*
Y0497556D01*
X0432944D01*
Y0497643D01*
X0432858D01*
Y0497729D01*
X0432685D01*
Y0497816D01*
X0432512D01*
Y0497902D01*
X0432252D01*
Y0497989D01*
X0431819D01*
Y0498075D01*
X0430694D01*
Y0497989D01*
X0430262D01*
Y0497902D01*
X0428617D01*
Y0497989D01*
X0428271D01*
Y0498075D01*
X0428011D01*
Y0498162D01*
X0427752D01*
Y0498249D01*
X0427492D01*
Y0498335D01*
X0427319D01*
Y0498422D01*
X0427146D01*
Y0498508D01*
X0427059D01*
Y0498595D01*
X0426886D01*
Y0498681D01*
X0426800D01*
Y0498768D01*
X0426627D01*
Y0498854D01*
X0426540D01*
Y0498941D01*
X0426454D01*
Y0499027D01*
X0426367D01*
Y0499114D01*
X0426280D01*
Y0499201D01*
X0426194D01*
Y0499287D01*
X0426107D01*
Y0499374D01*
X0426021D01*
Y0499460D01*
X0425934D01*
Y0499547D01*
X0425848D01*
Y0499633D01*
X0425761D01*
Y0499720D01*
X0425675D01*
Y0499893D01*
X0425588D01*
Y0499979D01*
X0425502D01*
Y0500153D01*
X0425415D01*
Y0500239D01*
X0425328D01*
Y0500412D01*
X0425242D01*
Y0500585D01*
X0425155D01*
Y0500845D01*
X0425069D01*
Y0501018D01*
X0424982D01*
Y0501364D01*
X0424896D01*
Y0501710D01*
X0424809D01*
Y0503441D01*
X0424896D01*
Y0503788D01*
X0424982D01*
Y0504047D01*
X0425069D01*
Y0504307D01*
X0425155D01*
Y0504480D01*
X0425242D01*
Y0504653D01*
X0425328D01*
Y0504826D01*
X0425415D01*
Y0504999D01*
X0425502D01*
Y0505086D01*
X0425588D01*
Y0505259D01*
X0425675D01*
Y0505345D01*
X0425761D01*
Y0505518D01*
X0425848D01*
Y0505605D01*
X0425934D01*
Y0505691D01*
X0426021D01*
Y0505778D01*
X0426107D01*
Y0505865D01*
X0426194D01*
Y0505951D01*
X0426280D01*
Y0506038D01*
X0426367D01*
Y0506124D01*
X0426454D01*
Y0506211D01*
X0426627D01*
Y0506297D01*
X0426713D01*
Y0506384D01*
X0426800D01*
Y0506470D01*
X0426973D01*
Y0506557D01*
X0427059D01*
Y0506643D01*
X0427233D01*
Y0506730D01*
X0427406D01*
Y0506817D01*
X0427579D01*
Y0506903D01*
X0427838D01*
Y0506990D01*
X0428098D01*
Y0507076D01*
X0428358D01*
Y0507163D01*
X0428877D01*
Y0507249D01*
X0430002D01*
Y0507163D01*
X0430521D01*
Y0507076D01*
X0430781D01*
Y0506990D01*
X0431040D01*
Y0506903D01*
X0431300D01*
Y0506817D01*
X0431646D01*
Y0506730D01*
X0432166D01*
Y0506643D01*
X0433204D01*
Y0506730D01*
X0433723D01*
Y0506817D01*
X0434070D01*
Y0506903D01*
X0434329D01*
Y0506990D01*
X0434502D01*
Y0507076D01*
X0434675D01*
Y0507163D01*
X0434848D01*
Y0507249D01*
X0435022D01*
Y0507336D01*
X0435108D01*
Y0507422D01*
X0435281D01*
Y0507509D01*
X0435368D01*
Y0507595D01*
X0435541D01*
Y0507682D01*
X0435627D01*
Y0507769D01*
X0435714D01*
Y0507855D01*
X0435801D01*
Y0507942D01*
X0435887D01*
Y0508028D01*
X0435974D01*
Y0508115D01*
X0436060D01*
Y0508201D01*
X0436147D01*
Y0508288D01*
X0436233D01*
Y0508374D01*
X0436320D01*
Y0508461D01*
X0436406D01*
Y0508547D01*
X0436493D01*
Y0508721D01*
X0436579D01*
Y0508807D01*
X0436666D01*
Y0508894D01*
X0436753D01*
Y0509067D01*
X0436839D01*
Y0509153D01*
X0436926D01*
Y0509327D01*
X0437012D01*
Y0509413D01*
X0437099D01*
Y0509586D01*
X0437185D01*
Y0509759D01*
X0437272D01*
Y0510019D01*
X0437358D01*
Y0510192D01*
X0437445D01*
Y0510452D01*
X0437532D01*
Y0510798D01*
X0437618D01*
Y0511404D01*
X0437705D01*
Y0512096D01*
X0437618D01*
Y0512702D01*
X0437532D01*
Y0513048D01*
X0437445D01*
Y0513308D01*
X0437358D01*
Y0513567D01*
X0437272D01*
Y0513740D01*
X0437185D01*
Y0513913D01*
X0437099D01*
Y0514086D01*
X0437012D01*
Y0514173D01*
X0436926D01*
Y0514346D01*
X0436839D01*
Y0514433D01*
X0436753D01*
Y0514519D01*
X0436666D01*
Y0514692D01*
X0436579D01*
Y0514779D01*
X0436493D01*
Y0514865D01*
X0436406D01*
Y0514952D01*
X0436320D01*
Y0515038D01*
X0436233D01*
Y0515125D01*
X0436147D01*
Y0515212D01*
X0436060D01*
Y0515298D01*
X0435887D01*
Y0515385D01*
X0435801D01*
Y0515471D01*
X0435714D01*
Y0515558D01*
X0435541D01*
Y0515644D01*
X0435454D01*
Y0515731D01*
X0435281D01*
Y0515817D01*
X0435108D01*
Y0515904D01*
X0434848D01*
Y0515990D01*
X0434675D01*
Y0516077D01*
X0434329D01*
Y0516164D01*
X0433896D01*
Y0516250D01*
X0433377D01*
Y0516337D01*
X0432944D01*
Y0516423D01*
X0432685D01*
Y0516510D01*
X0432425D01*
Y0516596D01*
X0432166D01*
Y0516683D01*
X0431992D01*
Y0516769D01*
X0431733D01*
Y0516856D01*
X0431646D01*
Y0516943D01*
X0431473D01*
Y0517029D01*
X0431300D01*
Y0517116D01*
X0431127D01*
Y0517202D01*
X0431040D01*
Y0517289D01*
X0430954D01*
Y0517375D01*
X0430781D01*
Y0517462D01*
X0430694D01*
Y0517548D01*
X0430608D01*
Y0517635D01*
X0430521D01*
Y0517721D01*
X0430348D01*
Y0517808D01*
X0430262D01*
Y0517895D01*
X0430175D01*
Y0517981D01*
X0430089D01*
Y0518068D01*
X0430002D01*
Y0518154D01*
X0429915D01*
Y0518327D01*
X0429829D01*
Y0518414D01*
X0429742D01*
Y0518500D01*
X0429656D01*
Y0518587D01*
X0429569D01*
Y0518760D01*
X0429483D01*
Y0518847D01*
X0429396D01*
Y0519020D01*
X0429310D01*
Y0519193D01*
X0429223D01*
Y0519279D01*
X0429137D01*
Y0519452D01*
X0429050D01*
Y0519625D01*
X0428963D01*
Y0519885D01*
X0428877D01*
Y0520058D01*
X0428790D01*
Y0520318D01*
X0428704D01*
Y0520664D01*
X0428617D01*
Y0521010D01*
X0428531D01*
Y0521702D01*
X0428444D01*
Y0522481D01*
X0428531D01*
Y0523174D01*
X0428617D01*
Y0523520D01*
X0428704D01*
Y0523866D01*
X0428790D01*
Y0524126D01*
X0428877D01*
Y0524299D01*
X0428963D01*
Y0524559D01*
X0429050D01*
Y0524732D01*
X0429137D01*
Y0524905D01*
X0429223D01*
Y0524991D01*
X0429310D01*
Y0525164D01*
X0429396D01*
Y0525338D01*
X0429483D01*
Y0525424D01*
X0429569D01*
Y0525597D01*
X0429656D01*
Y0525684D01*
X0429742D01*
Y0525770D01*
X0429829D01*
Y0525857D01*
X0429915D01*
Y0525943D01*
X0430002D01*
Y0526116D01*
X0430089D01*
Y0526203D01*
X0430175D01*
Y0526290D01*
X0430262D01*
Y0526376D01*
X0430348D01*
Y0526463D01*
X0430521D01*
Y0526549D01*
X0430608D01*
Y0526636D01*
X0430694D01*
Y0526722D01*
X0430781D01*
Y0526809D01*
X0430954D01*
Y0526895D01*
X0431040D01*
Y0526982D01*
X0431127D01*
Y0527068D01*
X0431300D01*
Y0527155D01*
X0431473D01*
Y0527242D01*
X0431646D01*
Y0527328D01*
X0431819D01*
Y0527415D01*
X0431992D01*
Y0527501D01*
X0432166D01*
Y0527588D01*
X0432425D01*
Y0527674D01*
X0432685D01*
Y0527761D01*
X0432944D01*
Y0527847D01*
X0433377D01*
Y0527934D01*
X0434243D01*
Y0528020D01*
X0434416D01*
Y0527934D01*
D02*
G37*
D28*
X0406247Y0571944D02*
X0415635Y0571944D01*
X0415635Y0587626D02*
X0415635Y0571944D01*
X0386172Y0587626D02*
X0415635Y0587626D01*
X0386172Y0587626D02*
X0386172Y0571944D01*
X0406247Y0571944D01*
X0387756Y0558913D02*
Y0568300D01*
X0372074D02*
X0387756D01*
X0372074Y0538837D02*
Y0568300D01*
Y0538837D02*
X0387756D01*
Y0558913D01*
X0381124Y0449337D02*
X0392124D01*
X0381124Y0443337D02*
Y0449337D01*
Y0443337D02*
X0392124D01*
Y0449337D01*
X0379506Y0443711D02*
Y0454711D01*
X0373506D02*
X0379506D01*
X0373506Y0443711D02*
Y0454711D01*
Y0443711D02*
X0379506D01*
X0396281Y0469022D02*
X0407281D01*
X0396281Y0463022D02*
Y0469022D01*
Y0463022D02*
X0407281D01*
Y0469022D01*
X0408171D02*
X0419171D01*
X0408171Y0463022D02*
Y0469022D01*
Y0463022D02*
X0419171D01*
Y0469022D01*
X0425963Y0457766D02*
Y0468766D01*
X0419963D02*
X0425963D01*
X0419963Y0457766D02*
Y0468766D01*
Y0457766D02*
X0425963D01*
X0425713Y0445311D02*
Y0456811D01*
X0420213Y0445311D02*
X0425713D01*
X0420213D02*
Y0456811D01*
X0425713D01*
X0409821Y0426467D02*
Y0437467D01*
X0403821D02*
X0409821D01*
X0403821Y0426467D02*
Y0437467D01*
Y0426467D02*
X0409821D01*
X0397573Y0448410D02*
X0405351Y0440632D01*
X0393330Y0444168D02*
X0397573Y0448410D01*
X0393330Y0444168D02*
X0401108Y0436389D01*
X0405351Y0440632D01*
X0410764Y0437520D02*
X0416264D01*
X0410764Y0426020D02*
Y0437520D01*
Y0426020D02*
X0416264D01*
Y0437520D01*
X0434774Y0447124D02*
Y0454211D01*
X0440285Y0447124D02*
Y0454211D01*
X0434774Y0447124D02*
X0435463D01*
X0434774Y0454211D02*
X0435463D01*
X0439596Y0447124D02*
X0440285D01*
X0439596Y0454211D02*
X0440285D01*
X0427293Y0447124D02*
Y0454211D01*
X0432805Y0447124D02*
Y0454211D01*
X0427293Y0447124D02*
X0427982D01*
X0427293Y0454211D02*
X0427982D01*
X0432116Y0447124D02*
X0432805D01*
X0432116Y0454211D02*
X0432805D01*
X0447175Y0444270D02*
X0452490D01*
Y0448108D01*
Y0453227D02*
Y0457065D01*
X0447175D02*
X0452490D01*
X0457852Y0429888D02*
Y0442888D01*
X0451852D02*
X0457852D01*
X0451852Y0429888D02*
Y0442888D01*
Y0430888D02*
X0457852D01*
X0451852Y0429888D02*
X0457852D01*
X0387756Y0524740D02*
Y0534127D01*
X0372074D02*
X0387756D01*
X0372074Y0504664D02*
Y0534127D01*
Y0504664D02*
X0387756D01*
Y0524740D01*
X0425325Y0421140D02*
X0426014D01*
X0425325Y0428227D02*
X0426014D01*
X0430148Y0421140D02*
X0430837D01*
X0430148Y0428227D02*
X0430837D01*
X0425325Y0421140D02*
Y0428227D01*
X0430837Y0421140D02*
Y0428227D01*
X0423356Y0421140D02*
Y0428227D01*
X0417844Y0421140D02*
Y0428227D01*
X0422667D02*
X0423356D01*
X0422667Y0421140D02*
X0423356D01*
X0417844Y0428227D02*
X0418533D01*
X0417844Y0421140D02*
X0418533D01*
X0425226Y0406179D02*
Y0411494D01*
Y0406179D02*
X0429065D01*
X0434183D02*
X0438022D01*
Y0411494D01*
X0418876Y0397998D02*
Y0410998D01*
X0412876D02*
X0418876D01*
X0412876Y0397998D02*
Y0410998D01*
Y0398998D02*
X0418876D01*
X0412876Y0397998D02*
X0418876D01*
X0381317Y0470022D02*
X0395317D01*
X0381317Y0462022D02*
Y0470022D01*
Y0462022D02*
X0395317D01*
Y0470022D01*
X0380506Y0455557D02*
Y0469557D01*
X0372506D02*
X0380506D01*
X0372506Y0455557D02*
Y0469557D01*
Y0455557D02*
X0380506D01*
X0387756Y0490960D02*
Y0500348D01*
X0372074D02*
X0387756D01*
X0372074Y0470885D02*
Y0500348D01*
Y0470885D02*
X0387756D01*
Y0490960D01*
X0405799Y0488462D02*
Y0486100D01*
X0407570D01*
Y0487281D01*
Y0486100D01*
X0409341D01*
Y0491414D02*
Y0490233D01*
X0408751Y0489643D01*
X0407570D01*
X0406980Y0490233D01*
Y0491414D01*
X0407570Y0492004D01*
X0408161D01*
Y0489643D01*
X0409341Y0493185D02*
X0406980D01*
Y0494956D01*
X0407570Y0495546D01*
X0409341D01*
X0406980Y0499088D02*
Y0497317D01*
X0407570Y0496727D01*
X0408751D01*
X0409341Y0497317D01*
Y0499088D01*
Y0502040D02*
Y0500859D01*
X0408751Y0500269D01*
X0407570D01*
X0406980Y0500859D01*
Y0502040D01*
X0407570Y0502631D01*
X0408161D01*
Y0500269D01*
X0409341Y0507353D02*
X0406980D01*
Y0507944D01*
X0407570Y0508534D01*
X0409341D01*
X0407570D01*
X0406980Y0509125D01*
X0407570Y0509715D01*
X0409341D01*
Y0511486D02*
Y0512667D01*
X0408751Y0513257D01*
X0407570D01*
X0406980Y0512667D01*
Y0511486D01*
X0407570Y0510896D01*
X0408751D01*
X0409341Y0511486D01*
Y0514438D02*
X0406980D01*
Y0516209D01*
X0407570Y0516799D01*
X0409341D01*
Y0517980D02*
Y0519161D01*
Y0518570D01*
X0406980D01*
Y0517980D01*
X0406390Y0521522D02*
X0406980D01*
Y0520932D01*
Y0522112D01*
Y0521522D01*
X0408751D01*
X0409341Y0522112D01*
Y0524474D02*
Y0525655D01*
X0408751Y0526245D01*
X0407570D01*
X0406980Y0525655D01*
Y0524474D01*
X0407570Y0523883D01*
X0408751D01*
X0409341Y0524474D01*
X0406980Y0527426D02*
X0409341D01*
X0408161D01*
X0407570Y0528016D01*
X0406980Y0528606D01*
Y0529197D01*
X0411940Y0486100D02*
X0414301D01*
X0415482Y0487281D01*
X0414301Y0488462D01*
X0411940D01*
X0415482Y0489643D02*
Y0490823D01*
Y0490233D01*
X0411940D01*
X0412530Y0489643D01*
X0415482Y0492594D02*
X0414891D01*
Y0493185D01*
X0415482D01*
Y0492594D01*
Y0495546D02*
Y0496727D01*
Y0496137D01*
X0411940D01*
X0412530Y0495546D01*
Y0512667D02*
X0411940Y0513257D01*
Y0514438D01*
X0412530Y0515028D01*
X0413120D01*
X0413711Y0514438D01*
Y0513847D01*
Y0514438D01*
X0414301Y0515028D01*
X0414891D01*
X0415482Y0514438D01*
Y0513257D01*
X0414891Y0512667D01*
X0415482Y0516209D02*
Y0517390D01*
Y0516799D01*
X0411940D01*
X0412530Y0516209D01*
X0415482Y0519161D02*
X0413120Y0521522D01*
X0415482Y0525064D02*
Y0522703D01*
X0413120Y0525064D01*
X0412530D01*
X0411940Y0524474D01*
Y0523293D01*
X0412530Y0522703D01*
Y0526245D02*
X0411940Y0526835D01*
Y0528016D01*
X0412530Y0528606D01*
X0414891D01*
X0415482Y0528016D01*
Y0526835D01*
X0414891Y0526245D01*
X0412530D01*
X0418080Y0486100D02*
X0421622D01*
Y0487872D01*
X0421032Y0488462D01*
X0418670D01*
X0418080Y0487872D01*
Y0486100D01*
X0421622Y0491414D02*
Y0490233D01*
X0421032Y0489643D01*
X0419851D01*
X0419261Y0490233D01*
Y0491414D01*
X0419851Y0492004D01*
X0420441D01*
Y0489643D01*
X0421622Y0493185D02*
Y0494956D01*
X0421032Y0495546D01*
X0420441Y0494956D01*
Y0493775D01*
X0419851Y0493185D01*
X0419261Y0493775D01*
Y0495546D01*
X0421622Y0496727D02*
Y0497908D01*
Y0497317D01*
X0419261D01*
Y0496727D01*
X0422803Y0500859D02*
Y0501450D01*
X0422213Y0502040D01*
X0419261D01*
Y0500269D01*
X0419851Y0499679D01*
X0421032D01*
X0421622Y0500269D01*
Y0502040D01*
Y0503221D02*
X0419261D01*
Y0504992D01*
X0419851Y0505582D01*
X0421622D01*
Y0508534D02*
Y0507353D01*
X0421032Y0506763D01*
X0419851D01*
X0419261Y0507353D01*
Y0508534D01*
X0419851Y0509125D01*
X0420441D01*
Y0506763D01*
X0418080Y0512667D02*
X0421622D01*
Y0510896D01*
X0421032Y0510305D01*
X0419851D01*
X0419261Y0510896D01*
Y0512667D01*
X0418080Y0517390D02*
X0421622D01*
Y0519161D01*
X0421032Y0519751D01*
X0420441D01*
X0419851D01*
X0419261Y0519161D01*
Y0517390D01*
Y0520932D02*
X0421032D01*
X0421622Y0521522D01*
Y0523293D01*
X0422213D01*
X0422803Y0522703D01*
Y0522112D01*
X0421622Y0523293D02*
X0419261D01*
X0418080Y0528016D02*
Y0529197D01*
Y0528606D01*
X0421622D01*
Y0528016D01*
Y0529197D01*
Y0530968D02*
X0418080D01*
Y0532739D01*
X0418670Y0533329D01*
X0419851D01*
X0420441Y0532739D01*
Y0530968D01*
Y0532149D02*
X0421622Y0533329D01*
Y0534510D02*
X0418080D01*
X0421622Y0536871D01*
X0418080D01*
X0421622Y0538052D02*
X0419261D01*
X0418080Y0539233D01*
X0419261Y0540414D01*
X0421622D01*
X0419851D01*
Y0538052D01*
X0418670Y0543956D02*
X0418080Y0543365D01*
Y0542185D01*
X0418670Y0541594D01*
X0419261D01*
X0419851Y0542185D01*
Y0543365D01*
X0420441Y0543956D01*
X0421032D01*
X0421622Y0543365D01*
Y0542185D01*
X0421032Y0541594D01*
X0428623Y0541143D02*
Y0545079D01*
X0430591D01*
X0431247Y0544423D01*
Y0543111D01*
X0430591Y0542455D01*
X0428623D01*
X0433215Y0541143D02*
X0434527D01*
X0435183Y0541799D01*
Y0543111D01*
X0434527Y0543767D01*
X0433215D01*
X0432559Y0543111D01*
Y0541799D01*
X0433215Y0541143D01*
X0436494D02*
X0438462D01*
X0439118Y0541799D01*
X0438462Y0542455D01*
X0437150D01*
X0436494Y0543111D01*
X0437150Y0543767D01*
X0439118D01*
X0440430Y0541143D02*
X0441742D01*
X0441086D01*
Y0543767D01*
X0440430D01*
X0444366Y0544423D02*
Y0543767D01*
X0443710D01*
X0445022D01*
X0444366D01*
Y0541799D01*
X0445022Y0541143D01*
X0446990D02*
X0448302D01*
X0447646D01*
Y0543767D01*
X0446990D01*
X0450270D02*
X0451581Y0541143D01*
X0452893Y0543767D01*
X0456173Y0541143D02*
X0454861D01*
X0454205Y0541799D01*
Y0543111D01*
X0454861Y0543767D01*
X0456173D01*
X0456829Y0543111D01*
Y0542455D01*
X0454205D01*
X0429607Y0537810D02*
Y0537154D01*
X0428951D01*
X0430263D01*
X0429607D01*
Y0535186D01*
X0430263Y0534530D01*
X0434199D02*
X0432887D01*
X0432231Y0535186D01*
Y0536498D01*
X0432887Y0537154D01*
X0434199D01*
X0434855Y0536498D01*
Y0535842D01*
X0432231D01*
X0436166Y0537154D02*
Y0534530D01*
Y0535842D01*
X0436823Y0536498D01*
X0437478Y0537154D01*
X0438134D01*
X0440102Y0534530D02*
Y0537154D01*
X0440758D01*
X0441414Y0536498D01*
Y0534530D01*
Y0536498D01*
X0442070Y0537154D01*
X0442726Y0536498D01*
Y0534530D01*
X0444038D02*
X0445350D01*
X0444694D01*
Y0537154D01*
X0444038D01*
X0447318Y0534530D02*
Y0537154D01*
X0449286D01*
X0449942Y0536498D01*
Y0534530D01*
X0451909Y0537154D02*
X0453221D01*
X0453877Y0536498D01*
Y0534530D01*
X0451909D01*
X0451254Y0535186D01*
X0451909Y0535842D01*
X0453877D01*
X0455189Y0534530D02*
X0456501D01*
X0455845D01*
Y0538466D01*
X0455189D01*
X0370605Y0436966D02*
Y0440509D01*
X0372966Y0436966D01*
Y0440509D01*
X0375918Y0436966D02*
X0374737D01*
X0374147Y0437557D01*
Y0438737D01*
X0374737Y0439328D01*
X0375918D01*
X0376508Y0438737D01*
Y0438147D01*
X0374147D01*
X0378870Y0435786D02*
X0379460D01*
X0380050Y0436376D01*
Y0439328D01*
X0378279D01*
X0377689Y0438737D01*
Y0437557D01*
X0378279Y0436966D01*
X0380050D01*
X0381821Y0439328D02*
X0383002D01*
X0383593Y0438737D01*
Y0436966D01*
X0381821D01*
X0381231Y0437557D01*
X0381821Y0438147D01*
X0383593D01*
X0385364Y0439918D02*
Y0439328D01*
X0384773D01*
X0385954D01*
X0385364D01*
Y0437557D01*
X0385954Y0436966D01*
X0387725D02*
X0388906D01*
X0388315D01*
Y0439328D01*
X0387725D01*
X0390677D02*
X0391858Y0436966D01*
X0393038Y0439328D01*
X0395990Y0436966D02*
X0394809D01*
X0394219Y0437557D01*
Y0438737D01*
X0394809Y0439328D01*
X0395990D01*
X0396580Y0438737D01*
Y0438147D01*
X0394219D01*
X0371785Y0432597D02*
Y0432007D01*
X0371195D01*
X0372376D01*
X0371785D01*
Y0430236D01*
X0372376Y0429645D01*
X0375918D02*
X0374737D01*
X0374147Y0430236D01*
Y0431416D01*
X0374737Y0432007D01*
X0375918D01*
X0376508Y0431416D01*
Y0430826D01*
X0374147D01*
X0377689Y0432007D02*
Y0429645D01*
Y0430826D01*
X0378279Y0431416D01*
X0378870Y0432007D01*
X0379460D01*
X0381231Y0429645D02*
Y0432007D01*
X0381821D01*
X0382412Y0431416D01*
Y0429645D01*
Y0431416D01*
X0383002Y0432007D01*
X0383593Y0431416D01*
Y0429645D01*
X0384773D02*
X0385954D01*
X0385364D01*
Y0432007D01*
X0384773D01*
X0387725Y0429645D02*
Y0432007D01*
X0389496D01*
X0390086Y0431416D01*
Y0429645D01*
X0391858Y0432007D02*
X0393038D01*
X0393629Y0431416D01*
Y0429645D01*
X0391858D01*
X0391267Y0430236D01*
X0391858Y0430826D01*
X0393629D01*
X0394809Y0429645D02*
X0395990D01*
X0395400D01*
Y0433187D01*
X0394809D01*
X0511761Y0571944D02*
X0521148Y0571944D01*
X0521148Y0587626D02*
X0521148Y0571944D01*
X0491685Y0587626D02*
X0521148Y0587626D01*
X0491685Y0587626D02*
X0491685Y0571944D01*
X0511761Y0571944D01*
X0493269Y0558913D02*
Y0568300D01*
X0477587D02*
X0493269D01*
X0477587Y0538837D02*
Y0568300D01*
Y0538837D02*
X0493269D01*
Y0558913D01*
X0486637Y0449337D02*
X0497637D01*
X0486637Y0443337D02*
Y0449337D01*
Y0443337D02*
X0497637D01*
Y0449337D01*
X0485019Y0443711D02*
Y0454711D01*
X0479019D02*
X0485019D01*
X0479019Y0443711D02*
Y0454711D01*
Y0443711D02*
X0485019D01*
X0501795Y0469022D02*
X0512795D01*
X0501795Y0463022D02*
Y0469022D01*
Y0463022D02*
X0512795D01*
Y0469022D01*
X0513684D02*
X0524684D01*
X0513684Y0463022D02*
Y0469022D01*
Y0463022D02*
X0524684D01*
Y0469022D01*
X0531476Y0457766D02*
Y0468766D01*
X0525476D02*
X0531476D01*
X0525476Y0457766D02*
Y0468766D01*
Y0457766D02*
X0531476D01*
X0531226Y0445311D02*
Y0456811D01*
X0525726Y0445311D02*
X0531226D01*
X0525726D02*
Y0456811D01*
X0531226D01*
X0515334Y0426467D02*
Y0437467D01*
X0509334D02*
X0515334D01*
X0509334Y0426467D02*
Y0437467D01*
Y0426467D02*
X0515334D01*
X0503086Y0448410D02*
X0510864Y0440632D01*
X0498843Y0444168D02*
X0503086Y0448410D01*
X0498843Y0444168D02*
X0506622Y0436389D01*
X0510864Y0440632D01*
X0516277Y0437520D02*
X0521777D01*
X0516277Y0426020D02*
Y0437520D01*
Y0426020D02*
X0521777D01*
Y0437520D01*
X0540287Y0447124D02*
Y0454211D01*
X0545799Y0447124D02*
Y0454211D01*
X0540287Y0447124D02*
X0540976D01*
X0540287Y0454211D02*
X0540976D01*
X0545110Y0447124D02*
X0545799D01*
X0545110Y0454211D02*
X0545799D01*
X0532806Y0447124D02*
Y0454211D01*
X0538318Y0447124D02*
Y0454211D01*
X0532806Y0447124D02*
X0533496D01*
X0532806Y0454211D02*
X0533496D01*
X0537629Y0447124D02*
X0538318D01*
X0537629Y0454211D02*
X0538318D01*
X0552688Y0444270D02*
X0558003D01*
Y0448108D01*
Y0453227D02*
Y0457065D01*
X0552688D02*
X0558003D01*
X0563366Y0429888D02*
Y0442888D01*
X0557366D02*
X0563366D01*
X0557366Y0429888D02*
Y0442888D01*
Y0430888D02*
X0563366D01*
X0557366Y0429888D02*
X0563366D01*
X0493269Y0524740D02*
Y0534127D01*
X0477587D02*
X0493269D01*
X0477587Y0504664D02*
Y0534127D01*
Y0504664D02*
X0493269D01*
Y0524740D01*
X0530838Y0421140D02*
X0531527D01*
X0530838Y0428227D02*
X0531527D01*
X0535661Y0421140D02*
X0536350D01*
X0535661Y0428227D02*
X0536350D01*
X0530838Y0421140D02*
Y0428227D01*
X0536350Y0421140D02*
Y0428227D01*
X0528869Y0421140D02*
Y0428227D01*
X0523358Y0421140D02*
Y0428227D01*
X0528181D02*
X0528869D01*
X0528181Y0421140D02*
X0528869D01*
X0523358Y0428227D02*
X0524047D01*
X0523358Y0421140D02*
X0524047D01*
X0530740Y0406179D02*
Y0411494D01*
Y0406179D02*
X0534578D01*
X0539696D02*
X0543535D01*
Y0411494D01*
X0524389Y0397998D02*
Y0410998D01*
X0518389D02*
X0524389D01*
X0518389Y0397998D02*
Y0410998D01*
Y0398998D02*
X0524389D01*
X0518389Y0397998D02*
X0524389D01*
X0486830Y0470022D02*
X0500830D01*
X0486830Y0462022D02*
Y0470022D01*
Y0462022D02*
X0500830D01*
Y0470022D01*
X0486019Y0455557D02*
Y0469557D01*
X0478019D02*
X0486019D01*
X0478019Y0455557D02*
Y0469557D01*
Y0455557D02*
X0486019D01*
X0493269Y0490960D02*
Y0500348D01*
X0477587D02*
X0493269D01*
X0477587Y0470885D02*
Y0500348D01*
Y0470885D02*
X0493269D01*
Y0490960D01*
X0511313Y0488462D02*
Y0486100D01*
X0513084D01*
Y0487281D01*
Y0486100D01*
X0514855D01*
Y0491414D02*
Y0490233D01*
X0514264Y0489643D01*
X0513084D01*
X0512493Y0490233D01*
Y0491414D01*
X0513084Y0492004D01*
X0513674D01*
Y0489643D01*
X0514855Y0493185D02*
X0512493D01*
Y0494956D01*
X0513084Y0495546D01*
X0514855D01*
X0512493Y0499088D02*
Y0497317D01*
X0513084Y0496727D01*
X0514264D01*
X0514855Y0497317D01*
Y0499088D01*
Y0502040D02*
Y0500859D01*
X0514264Y0500269D01*
X0513084D01*
X0512493Y0500859D01*
Y0502040D01*
X0513084Y0502631D01*
X0513674D01*
Y0500269D01*
X0514855Y0507353D02*
X0512493D01*
Y0507944D01*
X0513084Y0508534D01*
X0514855D01*
X0513084D01*
X0512493Y0509125D01*
X0513084Y0509715D01*
X0514855D01*
Y0511486D02*
Y0512667D01*
X0514264Y0513257D01*
X0513084D01*
X0512493Y0512667D01*
Y0511486D01*
X0513084Y0510896D01*
X0514264D01*
X0514855Y0511486D01*
Y0514438D02*
X0512493D01*
Y0516209D01*
X0513084Y0516799D01*
X0514855D01*
Y0517980D02*
Y0519161D01*
Y0518570D01*
X0512493D01*
Y0517980D01*
X0511903Y0521522D02*
X0512493D01*
Y0520932D01*
Y0522112D01*
Y0521522D01*
X0514264D01*
X0514855Y0522112D01*
Y0524474D02*
Y0525655D01*
X0514264Y0526245D01*
X0513084D01*
X0512493Y0525655D01*
Y0524474D01*
X0513084Y0523883D01*
X0514264D01*
X0514855Y0524474D01*
X0512493Y0527426D02*
X0514855D01*
X0513674D01*
X0513084Y0528016D01*
X0512493Y0528606D01*
Y0529197D01*
X0517453Y0486100D02*
X0519814D01*
X0520995Y0487281D01*
X0519814Y0488462D01*
X0517453D01*
X0520995Y0489643D02*
Y0490823D01*
Y0490233D01*
X0517453D01*
X0518043Y0489643D01*
X0520995Y0492594D02*
X0520405D01*
Y0493185D01*
X0520995D01*
Y0492594D01*
Y0495546D02*
Y0496727D01*
Y0496137D01*
X0517453D01*
X0518043Y0495546D01*
Y0512667D02*
X0517453Y0513257D01*
Y0514438D01*
X0518043Y0515028D01*
X0518634D01*
X0519224Y0514438D01*
Y0513847D01*
Y0514438D01*
X0519814Y0515028D01*
X0520405D01*
X0520995Y0514438D01*
Y0513257D01*
X0520405Y0512667D01*
X0520995Y0516209D02*
Y0517390D01*
Y0516799D01*
X0517453D01*
X0518043Y0516209D01*
X0520995Y0519161D02*
X0518634Y0521522D01*
X0520995Y0525064D02*
Y0522703D01*
X0518634Y0525064D01*
X0518043D01*
X0517453Y0524474D01*
Y0523293D01*
X0518043Y0522703D01*
Y0526245D02*
X0517453Y0526835D01*
Y0528016D01*
X0518043Y0528606D01*
X0520405D01*
X0520995Y0528016D01*
Y0526835D01*
X0520405Y0526245D01*
X0518043D01*
X0523593Y0486100D02*
X0527135D01*
Y0487872D01*
X0526545Y0488462D01*
X0524184D01*
X0523593Y0487872D01*
Y0486100D01*
X0527135Y0491414D02*
Y0490233D01*
X0526545Y0489643D01*
X0525364D01*
X0524774Y0490233D01*
Y0491414D01*
X0525364Y0492004D01*
X0525955D01*
Y0489643D01*
X0527135Y0493185D02*
Y0494956D01*
X0526545Y0495546D01*
X0525955Y0494956D01*
Y0493775D01*
X0525364Y0493185D01*
X0524774Y0493775D01*
Y0495546D01*
X0527135Y0496727D02*
Y0497908D01*
Y0497317D01*
X0524774D01*
Y0496727D01*
X0528316Y0500859D02*
Y0501450D01*
X0527726Y0502040D01*
X0524774D01*
Y0500269D01*
X0525364Y0499679D01*
X0526545D01*
X0527135Y0500269D01*
Y0502040D01*
Y0503221D02*
X0524774D01*
Y0504992D01*
X0525364Y0505582D01*
X0527135D01*
Y0508534D02*
Y0507353D01*
X0526545Y0506763D01*
X0525364D01*
X0524774Y0507353D01*
Y0508534D01*
X0525364Y0509125D01*
X0525955D01*
Y0506763D01*
X0523593Y0512667D02*
X0527135D01*
Y0510896D01*
X0526545Y0510305D01*
X0525364D01*
X0524774Y0510896D01*
Y0512667D01*
X0523593Y0517390D02*
X0527135D01*
Y0519161D01*
X0526545Y0519751D01*
X0525955D01*
X0525364D01*
X0524774Y0519161D01*
Y0517390D01*
Y0520932D02*
X0526545D01*
X0527135Y0521522D01*
Y0523293D01*
X0527726D01*
X0528316Y0522703D01*
Y0522112D01*
X0527135Y0523293D02*
X0524774D01*
X0523593Y0528016D02*
Y0529197D01*
Y0528606D01*
X0527135D01*
Y0528016D01*
Y0529197D01*
Y0530968D02*
X0523593D01*
Y0532739D01*
X0524184Y0533329D01*
X0525364D01*
X0525955Y0532739D01*
Y0530968D01*
Y0532149D02*
X0527135Y0533329D01*
Y0534510D02*
X0523593D01*
X0527135Y0536871D01*
X0523593D01*
X0527135Y0538052D02*
X0524774D01*
X0523593Y0539233D01*
X0524774Y0540414D01*
X0527135D01*
X0525364D01*
Y0538052D01*
X0524184Y0543956D02*
X0523593Y0543365D01*
Y0542185D01*
X0524184Y0541594D01*
X0524774D01*
X0525364Y0542185D01*
Y0543365D01*
X0525955Y0543956D01*
X0526545D01*
X0527135Y0543365D01*
Y0542185D01*
X0526545Y0541594D01*
X0534136Y0541143D02*
Y0545079D01*
X0536104D01*
X0536760Y0544423D01*
Y0543111D01*
X0536104Y0542455D01*
X0534136D01*
X0538728Y0541143D02*
X0540040D01*
X0540696Y0541799D01*
Y0543111D01*
X0540040Y0543767D01*
X0538728D01*
X0538072Y0543111D01*
Y0541799D01*
X0538728Y0541143D01*
X0542008D02*
X0543976D01*
X0544631Y0541799D01*
X0543976Y0542455D01*
X0542664D01*
X0542008Y0543111D01*
X0542664Y0543767D01*
X0544631D01*
X0545943Y0541143D02*
X0547255D01*
X0546599D01*
Y0543767D01*
X0545943D01*
X0549879Y0544423D02*
Y0543767D01*
X0549223D01*
X0550535D01*
X0549879D01*
Y0541799D01*
X0550535Y0541143D01*
X0552503D02*
X0553815D01*
X0553159D01*
Y0543767D01*
X0552503D01*
X0555783D02*
X0557095Y0541143D01*
X0558407Y0543767D01*
X0561686Y0541143D02*
X0560374D01*
X0559719Y0541799D01*
Y0543111D01*
X0560374Y0543767D01*
X0561686D01*
X0562342Y0543111D01*
Y0542455D01*
X0559719D01*
X0535120Y0537810D02*
Y0537154D01*
X0534464D01*
X0535776D01*
X0535120D01*
Y0535186D01*
X0535776Y0534530D01*
X0539712D02*
X0538400D01*
X0537744Y0535186D01*
Y0536498D01*
X0538400Y0537154D01*
X0539712D01*
X0540368Y0536498D01*
Y0535842D01*
X0537744D01*
X0541680Y0537154D02*
Y0534530D01*
Y0535842D01*
X0542336Y0536498D01*
X0542992Y0537154D01*
X0543648D01*
X0545615Y0534530D02*
Y0537154D01*
X0546271D01*
X0546927Y0536498D01*
Y0534530D01*
Y0536498D01*
X0547583Y0537154D01*
X0548239Y0536498D01*
Y0534530D01*
X0549551D02*
X0550863D01*
X0550207D01*
Y0537154D01*
X0549551D01*
X0552831Y0534530D02*
Y0537154D01*
X0554799D01*
X0555455Y0536498D01*
Y0534530D01*
X0557423Y0537154D02*
X0558735D01*
X0559391Y0536498D01*
Y0534530D01*
X0557423D01*
X0556767Y0535186D01*
X0557423Y0535842D01*
X0559391D01*
X0560703Y0534530D02*
X0562014D01*
X0561358D01*
Y0538466D01*
X0560703D01*
X0476118Y0436966D02*
Y0440509D01*
X0478479Y0436966D01*
Y0440509D01*
X0481431Y0436966D02*
X0480250D01*
X0479660Y0437557D01*
Y0438737D01*
X0480250Y0439328D01*
X0481431D01*
X0482021Y0438737D01*
Y0438147D01*
X0479660D01*
X0484383Y0435786D02*
X0484973D01*
X0485564Y0436376D01*
Y0439328D01*
X0483792D01*
X0483202Y0438737D01*
Y0437557D01*
X0483792Y0436966D01*
X0485564D01*
X0487335Y0439328D02*
X0488515D01*
X0489106Y0438737D01*
Y0436966D01*
X0487335D01*
X0486744Y0437557D01*
X0487335Y0438147D01*
X0489106D01*
X0490877Y0439918D02*
Y0439328D01*
X0490286D01*
X0491467D01*
X0490877D01*
Y0437557D01*
X0491467Y0436966D01*
X0493238D02*
X0494419D01*
X0493829D01*
Y0439328D01*
X0493238D01*
X0496190D02*
X0497371Y0436966D01*
X0498552Y0439328D01*
X0501503Y0436966D02*
X0500322D01*
X0499732Y0437557D01*
Y0438737D01*
X0500322Y0439328D01*
X0501503D01*
X0502094Y0438737D01*
Y0438147D01*
X0499732D01*
X0477298Y0432597D02*
Y0432007D01*
X0476708D01*
X0477889D01*
X0477298D01*
Y0430236D01*
X0477889Y0429645D01*
X0481431D02*
X0480250D01*
X0479660Y0430236D01*
Y0431416D01*
X0480250Y0432007D01*
X0481431D01*
X0482021Y0431416D01*
Y0430826D01*
X0479660D01*
X0483202Y0432007D02*
Y0429645D01*
Y0430826D01*
X0483792Y0431416D01*
X0484383Y0432007D01*
X0484973D01*
X0486744Y0429645D02*
Y0432007D01*
X0487335D01*
X0487925Y0431416D01*
Y0429645D01*
Y0431416D01*
X0488515Y0432007D01*
X0489106Y0431416D01*
Y0429645D01*
X0490286D02*
X0491467D01*
X0490877D01*
Y0432007D01*
X0490286D01*
X0493238Y0429645D02*
Y0432007D01*
X0495009D01*
X0495600Y0431416D01*
Y0429645D01*
X0497371Y0432007D02*
X0498552D01*
X0499142Y0431416D01*
Y0429645D01*
X0497371D01*
X0496780Y0430236D01*
X0497371Y0430826D01*
X0499142D01*
X0500322Y0429645D02*
X0501503D01*
X0500913D01*
Y0433187D01*
X0500322D01*
X0617274Y0571944D02*
X0626661Y0571944D01*
X0626661Y0587626D02*
X0626661Y0571944D01*
X0597198Y0587626D02*
X0626661Y0587626D01*
X0597198Y0587626D02*
X0597198Y0571944D01*
X0617274Y0571944D01*
X0598782Y0558913D02*
Y0568300D01*
X0583101D02*
X0598782D01*
X0583101Y0538837D02*
Y0568300D01*
Y0538837D02*
X0598782D01*
Y0558913D01*
X0592150Y0449337D02*
X0603150D01*
X0592150Y0443337D02*
Y0449337D01*
Y0443337D02*
X0603150D01*
Y0449337D01*
X0590532Y0443711D02*
Y0454711D01*
X0584532D02*
X0590532D01*
X0584532Y0443711D02*
Y0454711D01*
Y0443711D02*
X0590532D01*
X0607308Y0469022D02*
X0618308D01*
X0607308Y0463022D02*
Y0469022D01*
Y0463022D02*
X0618308D01*
Y0469022D01*
X0619198D02*
X0630198D01*
X0619198Y0463022D02*
Y0469022D01*
Y0463022D02*
X0630198D01*
Y0469022D01*
X0636989Y0457766D02*
Y0468766D01*
X0630989D02*
X0636989D01*
X0630989Y0457766D02*
Y0468766D01*
Y0457766D02*
X0636989D01*
X0636739Y0445311D02*
Y0456811D01*
X0631239Y0445311D02*
X0636739D01*
X0631239D02*
Y0456811D01*
X0636739D01*
X0620847Y0426467D02*
Y0437467D01*
X0614847D02*
X0620847D01*
X0614847Y0426467D02*
Y0437467D01*
Y0426467D02*
X0620847D01*
X0608599Y0448410D02*
X0616377Y0440632D01*
X0604356Y0444168D02*
X0608599Y0448410D01*
X0604356Y0444168D02*
X0612135Y0436389D01*
X0616377Y0440632D01*
X0621790Y0437520D02*
X0627290D01*
X0621790Y0426020D02*
Y0437520D01*
Y0426020D02*
X0627290D01*
Y0437520D01*
X0645800Y0447124D02*
Y0454211D01*
X0651312Y0447124D02*
Y0454211D01*
X0645800Y0447124D02*
X0646489D01*
X0645800Y0454211D02*
X0646489D01*
X0650623Y0447124D02*
X0651312D01*
X0650623Y0454211D02*
X0651312D01*
X0638320Y0447124D02*
Y0454211D01*
X0643831Y0447124D02*
Y0454211D01*
X0638320Y0447124D02*
X0639009D01*
X0638320Y0454211D02*
X0639009D01*
X0643143Y0447124D02*
X0643831D01*
X0643143Y0454211D02*
X0643831D01*
X0658202Y0444270D02*
X0663517D01*
Y0448108D01*
Y0453227D02*
Y0457065D01*
X0658202D02*
X0663517D01*
X0668879Y0429888D02*
Y0442888D01*
X0662879D02*
X0668879D01*
X0662879Y0429888D02*
Y0442888D01*
Y0430888D02*
X0668879D01*
X0662879Y0429888D02*
X0668879D01*
X0598782Y0524740D02*
Y0534127D01*
X0583101D02*
X0598782D01*
X0583101Y0504664D02*
Y0534127D01*
Y0504664D02*
X0598782D01*
Y0524740D01*
X0636351Y0421140D02*
X0637040D01*
X0636351Y0428227D02*
X0637040D01*
X0641174Y0421140D02*
X0641863D01*
X0641174Y0428227D02*
X0641863D01*
X0636351Y0421140D02*
Y0428227D01*
X0641863Y0421140D02*
Y0428227D01*
X0634383Y0421140D02*
Y0428227D01*
X0628871Y0421140D02*
Y0428227D01*
X0633694D02*
X0634383D01*
X0633694Y0421140D02*
X0634383D01*
X0628871Y0428227D02*
X0629560D01*
X0628871Y0421140D02*
X0629560D01*
X0636253Y0406179D02*
Y0411494D01*
Y0406179D02*
X0640091D01*
X0645210D02*
X0649048D01*
Y0411494D01*
X0629902Y0397998D02*
Y0410998D01*
X0623902D02*
X0629902D01*
X0623902Y0397998D02*
Y0410998D01*
Y0398998D02*
X0629902D01*
X0623902Y0397998D02*
X0629902D01*
X0592343Y0470022D02*
X0606343D01*
X0592343Y0462022D02*
Y0470022D01*
Y0462022D02*
X0606343D01*
Y0470022D01*
X0591532Y0455557D02*
Y0469557D01*
X0583532D02*
X0591532D01*
X0583532Y0455557D02*
Y0469557D01*
Y0455557D02*
X0591532D01*
X0598782Y0490960D02*
Y0500348D01*
X0583101D02*
X0598782D01*
X0583101Y0470885D02*
Y0500348D01*
Y0470885D02*
X0598782D01*
Y0490960D01*
X0616826Y0488462D02*
Y0486100D01*
X0618597D01*
Y0487281D01*
Y0486100D01*
X0620368D01*
Y0491414D02*
Y0490233D01*
X0619778Y0489643D01*
X0618597D01*
X0618007Y0490233D01*
Y0491414D01*
X0618597Y0492004D01*
X0619187D01*
Y0489643D01*
X0620368Y0493185D02*
X0618007D01*
Y0494956D01*
X0618597Y0495546D01*
X0620368D01*
X0618007Y0499088D02*
Y0497317D01*
X0618597Y0496727D01*
X0619778D01*
X0620368Y0497317D01*
Y0499088D01*
Y0502040D02*
Y0500859D01*
X0619778Y0500269D01*
X0618597D01*
X0618007Y0500859D01*
Y0502040D01*
X0618597Y0502631D01*
X0619187D01*
Y0500269D01*
X0620368Y0507353D02*
X0618007D01*
Y0507944D01*
X0618597Y0508534D01*
X0620368D01*
X0618597D01*
X0618007Y0509125D01*
X0618597Y0509715D01*
X0620368D01*
Y0511486D02*
Y0512667D01*
X0619778Y0513257D01*
X0618597D01*
X0618007Y0512667D01*
Y0511486D01*
X0618597Y0510896D01*
X0619778D01*
X0620368Y0511486D01*
Y0514438D02*
X0618007D01*
Y0516209D01*
X0618597Y0516799D01*
X0620368D01*
Y0517980D02*
Y0519161D01*
Y0518570D01*
X0618007D01*
Y0517980D01*
X0617416Y0521522D02*
X0618007D01*
Y0520932D01*
Y0522112D01*
Y0521522D01*
X0619778D01*
X0620368Y0522112D01*
Y0524474D02*
Y0525655D01*
X0619778Y0526245D01*
X0618597D01*
X0618007Y0525655D01*
Y0524474D01*
X0618597Y0523883D01*
X0619778D01*
X0620368Y0524474D01*
X0618007Y0527426D02*
X0620368D01*
X0619187D01*
X0618597Y0528016D01*
X0618007Y0528606D01*
Y0529197D01*
X0622966Y0486100D02*
X0625328D01*
X0626508Y0487281D01*
X0625328Y0488462D01*
X0622966D01*
X0626508Y0489643D02*
Y0490823D01*
Y0490233D01*
X0622966D01*
X0623557Y0489643D01*
X0626508Y0492594D02*
X0625918D01*
Y0493185D01*
X0626508D01*
Y0492594D01*
Y0495546D02*
Y0496727D01*
Y0496137D01*
X0622966D01*
X0623557Y0495546D01*
Y0512667D02*
X0622966Y0513257D01*
Y0514438D01*
X0623557Y0515028D01*
X0624147D01*
X0624737Y0514438D01*
Y0513847D01*
Y0514438D01*
X0625328Y0515028D01*
X0625918D01*
X0626508Y0514438D01*
Y0513257D01*
X0625918Y0512667D01*
X0626508Y0516209D02*
Y0517390D01*
Y0516799D01*
X0622966D01*
X0623557Y0516209D01*
X0626508Y0519161D02*
X0624147Y0521522D01*
X0626508Y0525064D02*
Y0522703D01*
X0624147Y0525064D01*
X0623557D01*
X0622966Y0524474D01*
Y0523293D01*
X0623557Y0522703D01*
Y0526245D02*
X0622966Y0526835D01*
Y0528016D01*
X0623557Y0528606D01*
X0625918D01*
X0626508Y0528016D01*
Y0526835D01*
X0625918Y0526245D01*
X0623557D01*
X0629107Y0486100D02*
X0632649D01*
Y0487872D01*
X0632058Y0488462D01*
X0629697D01*
X0629107Y0487872D01*
Y0486100D01*
X0632649Y0491414D02*
Y0490233D01*
X0632058Y0489643D01*
X0630877D01*
X0630287Y0490233D01*
Y0491414D01*
X0630877Y0492004D01*
X0631468D01*
Y0489643D01*
X0632649Y0493185D02*
Y0494956D01*
X0632058Y0495546D01*
X0631468Y0494956D01*
Y0493775D01*
X0630877Y0493185D01*
X0630287Y0493775D01*
Y0495546D01*
X0632649Y0496727D02*
Y0497908D01*
Y0497317D01*
X0630287D01*
Y0496727D01*
X0633829Y0500859D02*
Y0501450D01*
X0633239Y0502040D01*
X0630287D01*
Y0500269D01*
X0630877Y0499679D01*
X0632058D01*
X0632649Y0500269D01*
Y0502040D01*
Y0503221D02*
X0630287D01*
Y0504992D01*
X0630877Y0505582D01*
X0632649D01*
Y0508534D02*
Y0507353D01*
X0632058Y0506763D01*
X0630877D01*
X0630287Y0507353D01*
Y0508534D01*
X0630877Y0509125D01*
X0631468D01*
Y0506763D01*
X0629107Y0512667D02*
X0632649D01*
Y0510896D01*
X0632058Y0510305D01*
X0630877D01*
X0630287Y0510896D01*
Y0512667D01*
X0629107Y0517390D02*
X0632649D01*
Y0519161D01*
X0632058Y0519751D01*
X0631468D01*
X0630877D01*
X0630287Y0519161D01*
Y0517390D01*
Y0520932D02*
X0632058D01*
X0632649Y0521522D01*
Y0523293D01*
X0633239D01*
X0633829Y0522703D01*
Y0522112D01*
X0632649Y0523293D02*
X0630287D01*
X0629107Y0528016D02*
Y0529197D01*
Y0528606D01*
X0632649D01*
Y0528016D01*
Y0529197D01*
Y0530968D02*
X0629107D01*
Y0532739D01*
X0629697Y0533329D01*
X0630877D01*
X0631468Y0532739D01*
Y0530968D01*
Y0532149D02*
X0632649Y0533329D01*
Y0534510D02*
X0629107D01*
X0632649Y0536871D01*
X0629107D01*
X0632649Y0538052D02*
X0630287D01*
X0629107Y0539233D01*
X0630287Y0540414D01*
X0632649D01*
X0630877D01*
Y0538052D01*
X0629697Y0543956D02*
X0629107Y0543365D01*
Y0542185D01*
X0629697Y0541594D01*
X0630287D01*
X0630877Y0542185D01*
Y0543365D01*
X0631468Y0543956D01*
X0632058D01*
X0632649Y0543365D01*
Y0542185D01*
X0632058Y0541594D01*
X0639649Y0541143D02*
Y0545079D01*
X0641617D01*
X0642273Y0544423D01*
Y0543111D01*
X0641617Y0542455D01*
X0639649D01*
X0644241Y0541143D02*
X0645553D01*
X0646209Y0541799D01*
Y0543111D01*
X0645553Y0543767D01*
X0644241D01*
X0643585Y0543111D01*
Y0541799D01*
X0644241Y0541143D01*
X0647521D02*
X0649489D01*
X0650145Y0541799D01*
X0649489Y0542455D01*
X0648177D01*
X0647521Y0543111D01*
X0648177Y0543767D01*
X0650145D01*
X0651457Y0541143D02*
X0652769D01*
X0652113D01*
Y0543767D01*
X0651457D01*
X0655392Y0544423D02*
Y0543767D01*
X0654737D01*
X0656048D01*
X0655392D01*
Y0541799D01*
X0656048Y0541143D01*
X0658016D02*
X0659328D01*
X0658672D01*
Y0543767D01*
X0658016D01*
X0661296D02*
X0662608Y0541143D01*
X0663920Y0543767D01*
X0667200Y0541143D02*
X0665888D01*
X0665232Y0541799D01*
Y0543111D01*
X0665888Y0543767D01*
X0667200D01*
X0667856Y0543111D01*
Y0542455D01*
X0665232D01*
X0640633Y0537810D02*
Y0537154D01*
X0639977D01*
X0641289D01*
X0640633D01*
Y0535186D01*
X0641289Y0534530D01*
X0645225D02*
X0643913D01*
X0643257Y0535186D01*
Y0536498D01*
X0643913Y0537154D01*
X0645225D01*
X0645881Y0536498D01*
Y0535842D01*
X0643257D01*
X0647193Y0537154D02*
Y0534530D01*
Y0535842D01*
X0647849Y0536498D01*
X0648505Y0537154D01*
X0649161D01*
X0651129Y0534530D02*
Y0537154D01*
X0651785D01*
X0652441Y0536498D01*
Y0534530D01*
Y0536498D01*
X0653097Y0537154D01*
X0653753Y0536498D01*
Y0534530D01*
X0655064D02*
X0656376D01*
X0655720D01*
Y0537154D01*
X0655064D01*
X0658344Y0534530D02*
Y0537154D01*
X0660312D01*
X0660968Y0536498D01*
Y0534530D01*
X0662936Y0537154D02*
X0664248D01*
X0664904Y0536498D01*
Y0534530D01*
X0662936D01*
X0662280Y0535186D01*
X0662936Y0535842D01*
X0664904D01*
X0666216Y0534530D02*
X0667528D01*
X0666872D01*
Y0538466D01*
X0666216D01*
X0581631Y0436966D02*
Y0440509D01*
X0583992Y0436966D01*
Y0440509D01*
X0586944Y0436966D02*
X0585764D01*
X0585173Y0437557D01*
Y0438737D01*
X0585764Y0439328D01*
X0586944D01*
X0587535Y0438737D01*
Y0438147D01*
X0585173D01*
X0589896Y0435786D02*
X0590486D01*
X0591077Y0436376D01*
Y0439328D01*
X0589306D01*
X0588715Y0438737D01*
Y0437557D01*
X0589306Y0436966D01*
X0591077D01*
X0592848Y0439328D02*
X0594029D01*
X0594619Y0438737D01*
Y0436966D01*
X0592848D01*
X0592257Y0437557D01*
X0592848Y0438147D01*
X0594619D01*
X0596390Y0439918D02*
Y0439328D01*
X0595800D01*
X0596980D01*
X0596390D01*
Y0437557D01*
X0596980Y0436966D01*
X0598751D02*
X0599932D01*
X0599342D01*
Y0439328D01*
X0598751D01*
X0601703D02*
X0602884Y0436966D01*
X0604065Y0439328D01*
X0607017Y0436966D02*
X0605836D01*
X0605245Y0437557D01*
Y0438737D01*
X0605836Y0439328D01*
X0607017D01*
X0607607Y0438737D01*
Y0438147D01*
X0605245D01*
X0582812Y0432597D02*
Y0432007D01*
X0582221D01*
X0583402D01*
X0582812D01*
Y0430236D01*
X0583402Y0429645D01*
X0586944D02*
X0585764D01*
X0585173Y0430236D01*
Y0431416D01*
X0585764Y0432007D01*
X0586944D01*
X0587535Y0431416D01*
Y0430826D01*
X0585173D01*
X0588715Y0432007D02*
Y0429645D01*
Y0430826D01*
X0589306Y0431416D01*
X0589896Y0432007D01*
X0590486D01*
X0592257Y0429645D02*
Y0432007D01*
X0592848D01*
X0593438Y0431416D01*
Y0429645D01*
Y0431416D01*
X0594029Y0432007D01*
X0594619Y0431416D01*
Y0429645D01*
X0595800D02*
X0596980D01*
X0596390D01*
Y0432007D01*
X0595800D01*
X0598751Y0429645D02*
Y0432007D01*
X0600523D01*
X0601113Y0431416D01*
Y0429645D01*
X0602884Y0432007D02*
X0604065D01*
X0604655Y0431416D01*
Y0429645D01*
X0602884D01*
X0602294Y0430236D01*
X0602884Y0430826D01*
X0604655D01*
X0605836Y0429645D02*
X0607017D01*
X0606426D01*
Y0433187D01*
X0605836D01*
X0722787Y0571944D02*
X0732175Y0571944D01*
X0732175Y0587626D02*
X0732175Y0571944D01*
X0702712Y0587626D02*
X0732175Y0587626D01*
X0702712Y0587626D02*
X0702712Y0571944D01*
X0722787Y0571944D01*
X0704296Y0558913D02*
Y0568300D01*
X0688614D02*
X0704296D01*
X0688614Y0538837D02*
Y0568300D01*
Y0538837D02*
X0704296D01*
Y0558913D01*
X0697664Y0449337D02*
X0708664D01*
X0697664Y0443337D02*
Y0449337D01*
Y0443337D02*
X0708664D01*
Y0449337D01*
X0696045Y0443711D02*
Y0454711D01*
X0690045D02*
X0696045D01*
X0690045Y0443711D02*
Y0454711D01*
Y0443711D02*
X0696045D01*
X0712821Y0469022D02*
X0723821D01*
X0712821Y0463022D02*
Y0469022D01*
Y0463022D02*
X0723821D01*
Y0469022D01*
X0724711D02*
X0735711D01*
X0724711Y0463022D02*
Y0469022D01*
Y0463022D02*
X0735711D01*
Y0469022D01*
X0742502Y0457766D02*
Y0468766D01*
X0736502D02*
X0742502D01*
X0736502Y0457766D02*
Y0468766D01*
Y0457766D02*
X0742502D01*
X0742252Y0445311D02*
Y0456811D01*
X0736752Y0445311D02*
X0742252D01*
X0736752D02*
Y0456811D01*
X0742252D01*
X0726361Y0426467D02*
Y0437467D01*
X0720361D02*
X0726361D01*
X0720361Y0426467D02*
Y0437467D01*
Y0426467D02*
X0726361D01*
X0714112Y0448410D02*
X0721891Y0440632D01*
X0709870Y0444168D02*
X0714112Y0448410D01*
X0709870Y0444168D02*
X0717648Y0436389D01*
X0721891Y0440632D01*
X0727303Y0437520D02*
X0732803D01*
X0727303Y0426020D02*
Y0437520D01*
Y0426020D02*
X0732803D01*
Y0437520D01*
X0751313Y0447124D02*
Y0454211D01*
X0756825Y0447124D02*
Y0454211D01*
X0751313Y0447124D02*
X0752002D01*
X0751313Y0454211D02*
X0752002D01*
X0756136Y0447124D02*
X0756825D01*
X0756136Y0454211D02*
X0756825D01*
X0743833Y0447124D02*
Y0454211D01*
X0749345Y0447124D02*
Y0454211D01*
X0743833Y0447124D02*
X0744522D01*
X0743833Y0454211D02*
X0744522D01*
X0748656Y0447124D02*
X0749345D01*
X0748656Y0454211D02*
X0749345D01*
X0763715Y0444270D02*
X0769030D01*
Y0448108D01*
Y0453227D02*
Y0457065D01*
X0763715D02*
X0769030D01*
X0774392Y0429888D02*
Y0442888D01*
X0768392D02*
X0774392D01*
X0768392Y0429888D02*
Y0442888D01*
Y0430888D02*
X0774392D01*
X0768392Y0429888D02*
X0774392D01*
X0704296Y0524740D02*
Y0534127D01*
X0688614D02*
X0704296D01*
X0688614Y0504664D02*
Y0534127D01*
Y0504664D02*
X0704296D01*
Y0524740D01*
X0741864Y0421140D02*
X0742553D01*
X0741864Y0428227D02*
X0742553D01*
X0746687Y0421140D02*
X0747376D01*
X0746687Y0428227D02*
X0747376D01*
X0741864Y0421140D02*
Y0428227D01*
X0747376Y0421140D02*
Y0428227D01*
X0739896Y0421140D02*
Y0428227D01*
X0734384Y0421140D02*
Y0428227D01*
X0739207D02*
X0739896D01*
X0739207Y0421140D02*
X0739896D01*
X0734384Y0428227D02*
X0735073D01*
X0734384Y0421140D02*
X0735073D01*
X0741766Y0406179D02*
Y0411494D01*
Y0406179D02*
X0745605D01*
X0750723D02*
X0754561D01*
Y0411494D01*
X0735416Y0397998D02*
Y0410998D01*
X0729416D02*
X0735416D01*
X0729416Y0397998D02*
Y0410998D01*
Y0398998D02*
X0735416D01*
X0729416Y0397998D02*
X0735416D01*
X0697857Y0470022D02*
X0711857D01*
X0697857Y0462022D02*
Y0470022D01*
Y0462022D02*
X0711857D01*
Y0470022D01*
X0697046Y0455557D02*
Y0469557D01*
X0689045D02*
X0697046D01*
X0689045Y0455557D02*
Y0469557D01*
Y0455557D02*
X0697046D01*
X0704296Y0490960D02*
Y0500348D01*
X0688614D02*
X0704296D01*
X0688614Y0470885D02*
Y0500348D01*
Y0470885D02*
X0704296D01*
Y0490960D01*
X0722339Y0488462D02*
Y0486100D01*
X0724110D01*
Y0487281D01*
Y0486100D01*
X0725881D01*
Y0491414D02*
Y0490233D01*
X0725291Y0489643D01*
X0724110D01*
X0723520Y0490233D01*
Y0491414D01*
X0724110Y0492004D01*
X0724700D01*
Y0489643D01*
X0725881Y0493185D02*
X0723520D01*
Y0494956D01*
X0724110Y0495546D01*
X0725881D01*
X0723520Y0499088D02*
Y0497317D01*
X0724110Y0496727D01*
X0725291D01*
X0725881Y0497317D01*
Y0499088D01*
Y0502040D02*
Y0500859D01*
X0725291Y0500269D01*
X0724110D01*
X0723520Y0500859D01*
Y0502040D01*
X0724110Y0502631D01*
X0724700D01*
Y0500269D01*
X0725881Y0507353D02*
X0723520D01*
Y0507944D01*
X0724110Y0508534D01*
X0725881D01*
X0724110D01*
X0723520Y0509125D01*
X0724110Y0509715D01*
X0725881D01*
Y0511486D02*
Y0512667D01*
X0725291Y0513257D01*
X0724110D01*
X0723520Y0512667D01*
Y0511486D01*
X0724110Y0510896D01*
X0725291D01*
X0725881Y0511486D01*
Y0514438D02*
X0723520D01*
Y0516209D01*
X0724110Y0516799D01*
X0725881D01*
Y0517980D02*
Y0519161D01*
Y0518570D01*
X0723520D01*
Y0517980D01*
X0722929Y0521522D02*
X0723520D01*
Y0520932D01*
Y0522112D01*
Y0521522D01*
X0725291D01*
X0725881Y0522112D01*
Y0524474D02*
Y0525655D01*
X0725291Y0526245D01*
X0724110D01*
X0723520Y0525655D01*
Y0524474D01*
X0724110Y0523883D01*
X0725291D01*
X0725881Y0524474D01*
X0723520Y0527426D02*
X0725881D01*
X0724700D01*
X0724110Y0528016D01*
X0723520Y0528606D01*
Y0529197D01*
X0728479Y0486100D02*
X0730841D01*
X0732022Y0487281D01*
X0730841Y0488462D01*
X0728479D01*
X0732022Y0489643D02*
Y0490823D01*
Y0490233D01*
X0728479D01*
X0729070Y0489643D01*
X0732022Y0492594D02*
X0731431D01*
Y0493185D01*
X0732022D01*
Y0492594D01*
Y0495546D02*
Y0496727D01*
Y0496137D01*
X0728479D01*
X0729070Y0495546D01*
Y0512667D02*
X0728479Y0513257D01*
Y0514438D01*
X0729070Y0515028D01*
X0729660D01*
X0730250Y0514438D01*
Y0513847D01*
Y0514438D01*
X0730841Y0515028D01*
X0731431D01*
X0732022Y0514438D01*
Y0513257D01*
X0731431Y0512667D01*
X0732022Y0516209D02*
Y0517390D01*
Y0516799D01*
X0728479D01*
X0729070Y0516209D01*
X0732022Y0519161D02*
X0729660Y0521522D01*
X0732022Y0525064D02*
Y0522703D01*
X0729660Y0525064D01*
X0729070D01*
X0728479Y0524474D01*
Y0523293D01*
X0729070Y0522703D01*
Y0526245D02*
X0728479Y0526835D01*
Y0528016D01*
X0729070Y0528606D01*
X0731431D01*
X0732022Y0528016D01*
Y0526835D01*
X0731431Y0526245D01*
X0729070D01*
X0734620Y0486100D02*
X0738162D01*
Y0487872D01*
X0737571Y0488462D01*
X0735210D01*
X0734620Y0487872D01*
Y0486100D01*
X0738162Y0491414D02*
Y0490233D01*
X0737571Y0489643D01*
X0736391D01*
X0735800Y0490233D01*
Y0491414D01*
X0736391Y0492004D01*
X0736981D01*
Y0489643D01*
X0738162Y0493185D02*
Y0494956D01*
X0737571Y0495546D01*
X0736981Y0494956D01*
Y0493775D01*
X0736391Y0493185D01*
X0735800Y0493775D01*
Y0495546D01*
X0738162Y0496727D02*
Y0497908D01*
Y0497317D01*
X0735800D01*
Y0496727D01*
X0739343Y0500859D02*
Y0501450D01*
X0738752Y0502040D01*
X0735800D01*
Y0500269D01*
X0736391Y0499679D01*
X0737571D01*
X0738162Y0500269D01*
Y0502040D01*
Y0503221D02*
X0735800D01*
Y0504992D01*
X0736391Y0505582D01*
X0738162D01*
Y0508534D02*
Y0507353D01*
X0737571Y0506763D01*
X0736391D01*
X0735800Y0507353D01*
Y0508534D01*
X0736391Y0509125D01*
X0736981D01*
Y0506763D01*
X0734620Y0512667D02*
X0738162D01*
Y0510896D01*
X0737571Y0510305D01*
X0736391D01*
X0735800Y0510896D01*
Y0512667D01*
X0734620Y0517390D02*
X0738162D01*
Y0519161D01*
X0737571Y0519751D01*
X0736981D01*
X0736391D01*
X0735800Y0519161D01*
Y0517390D01*
Y0520932D02*
X0737571D01*
X0738162Y0521522D01*
Y0523293D01*
X0738752D01*
X0739343Y0522703D01*
Y0522112D01*
X0738162Y0523293D02*
X0735800D01*
X0734620Y0528016D02*
Y0529197D01*
Y0528606D01*
X0738162D01*
Y0528016D01*
Y0529197D01*
Y0530968D02*
X0734620D01*
Y0532739D01*
X0735210Y0533329D01*
X0736391D01*
X0736981Y0532739D01*
Y0530968D01*
Y0532149D02*
X0738162Y0533329D01*
Y0534510D02*
X0734620D01*
X0738162Y0536871D01*
X0734620D01*
X0738162Y0538052D02*
X0735800D01*
X0734620Y0539233D01*
X0735800Y0540414D01*
X0738162D01*
X0736391D01*
Y0538052D01*
X0735210Y0543956D02*
X0734620Y0543365D01*
Y0542185D01*
X0735210Y0541594D01*
X0735800D01*
X0736391Y0542185D01*
Y0543365D01*
X0736981Y0543956D01*
X0737571D01*
X0738162Y0543365D01*
Y0542185D01*
X0737571Y0541594D01*
X0745163Y0541143D02*
Y0545079D01*
X0747131D01*
X0747787Y0544423D01*
Y0543111D01*
X0747131Y0542455D01*
X0745163D01*
X0749754Y0541143D02*
X0751066D01*
X0751722Y0541799D01*
Y0543111D01*
X0751066Y0543767D01*
X0749754D01*
X0749098Y0543111D01*
Y0541799D01*
X0749754Y0541143D01*
X0753034D02*
X0755002D01*
X0755658Y0541799D01*
X0755002Y0542455D01*
X0753690D01*
X0753034Y0543111D01*
X0753690Y0543767D01*
X0755658D01*
X0756970Y0541143D02*
X0758282D01*
X0757626D01*
Y0543767D01*
X0756970D01*
X0760906Y0544423D02*
Y0543767D01*
X0760250D01*
X0761562D01*
X0760906D01*
Y0541799D01*
X0761562Y0541143D01*
X0763529D02*
X0764841D01*
X0764185D01*
Y0543767D01*
X0763529D01*
X0766809D02*
X0768121Y0541143D01*
X0769433Y0543767D01*
X0772713Y0541143D02*
X0771401D01*
X0770745Y0541799D01*
Y0543111D01*
X0771401Y0543767D01*
X0772713D01*
X0773369Y0543111D01*
Y0542455D01*
X0770745D01*
X0746147Y0537810D02*
Y0537154D01*
X0745491D01*
X0746803D01*
X0746147D01*
Y0535186D01*
X0746803Y0534530D01*
X0750738D02*
X0749426D01*
X0748770Y0535186D01*
Y0536498D01*
X0749426Y0537154D01*
X0750738D01*
X0751394Y0536498D01*
Y0535842D01*
X0748770D01*
X0752706Y0537154D02*
Y0534530D01*
Y0535842D01*
X0753362Y0536498D01*
X0754018Y0537154D01*
X0754674D01*
X0756642Y0534530D02*
Y0537154D01*
X0757298D01*
X0757954Y0536498D01*
Y0534530D01*
Y0536498D01*
X0758610Y0537154D01*
X0759266Y0536498D01*
Y0534530D01*
X0760578D02*
X0761890D01*
X0761234D01*
Y0537154D01*
X0760578D01*
X0763857Y0534530D02*
Y0537154D01*
X0765825D01*
X0766481Y0536498D01*
Y0534530D01*
X0768449Y0537154D02*
X0769761D01*
X0770417Y0536498D01*
Y0534530D01*
X0768449D01*
X0767793Y0535186D01*
X0768449Y0535842D01*
X0770417D01*
X0771729Y0534530D02*
X0773041D01*
X0772385D01*
Y0538466D01*
X0771729D01*
X0687144Y0436966D02*
Y0440509D01*
X0689506Y0436966D01*
Y0440509D01*
X0692457Y0436966D02*
X0691277D01*
X0690686Y0437557D01*
Y0438737D01*
X0691277Y0439328D01*
X0692457D01*
X0693048Y0438737D01*
Y0438147D01*
X0690686D01*
X0695409Y0435786D02*
X0696000D01*
X0696590Y0436376D01*
Y0439328D01*
X0694819D01*
X0694229Y0438737D01*
Y0437557D01*
X0694819Y0436966D01*
X0696590D01*
X0698361Y0439328D02*
X0699542D01*
X0700132Y0438737D01*
Y0436966D01*
X0698361D01*
X0697771Y0437557D01*
X0698361Y0438147D01*
X0700132D01*
X0701903Y0439918D02*
Y0439328D01*
X0701313D01*
X0702494D01*
X0701903D01*
Y0437557D01*
X0702494Y0436966D01*
X0704265D02*
X0705445D01*
X0704855D01*
Y0439328D01*
X0704265D01*
X0707217D02*
X0708397Y0436966D01*
X0709578Y0439328D01*
X0712530Y0436966D02*
X0711349D01*
X0710759Y0437557D01*
Y0438737D01*
X0711349Y0439328D01*
X0712530D01*
X0713120Y0438737D01*
Y0438147D01*
X0710759D01*
X0688325Y0432597D02*
Y0432007D01*
X0687735D01*
X0688915D01*
X0688325D01*
Y0430236D01*
X0688915Y0429645D01*
X0692457D02*
X0691277D01*
X0690686Y0430236D01*
Y0431416D01*
X0691277Y0432007D01*
X0692457D01*
X0693048Y0431416D01*
Y0430826D01*
X0690686D01*
X0694229Y0432007D02*
Y0429645D01*
Y0430826D01*
X0694819Y0431416D01*
X0695409Y0432007D01*
X0696000D01*
X0697771Y0429645D02*
Y0432007D01*
X0698361D01*
X0698951Y0431416D01*
Y0429645D01*
Y0431416D01*
X0699542Y0432007D01*
X0700132Y0431416D01*
Y0429645D01*
X0701313D02*
X0702494D01*
X0701903D01*
Y0432007D01*
X0701313D01*
X0704265Y0429645D02*
Y0432007D01*
X0706036D01*
X0706626Y0431416D01*
Y0429645D01*
X0708397Y0432007D02*
X0709578D01*
X0710168Y0431416D01*
Y0429645D01*
X0708397D01*
X0707807Y0430236D01*
X0708397Y0430826D01*
X0710168D01*
X0711349Y0429645D02*
X0712530D01*
X0711939D01*
Y0433187D01*
X0711349D01*
D29*
X0359182Y0396338D02*
Y0463267D01*
X0353277Y0457361D02*
X0359182Y0463267D01*
X0365088Y0457361D01*
X0439891Y0366810D02*
X0447765Y0374684D01*
X0439891Y0382558D02*
X0447765Y0374684D01*
X0380836D02*
X0447765D01*
D44*
X0435659Y0444762D02*
G03*
X0435659Y0444762I-0000197J0000000D01*
G01*
X0428179D02*
G03*
X0428179Y0444762I-0000197J0000000D01*
G01*
X0422864Y0430589D02*
G03*
X0422864Y0430589I-0000197J0000000D01*
G01*
X0430344D02*
G03*
X0430344Y0430589I-0000197J0000000D01*
G01*
X0445207Y0462085D02*
X0452687D01*
Y0458148D02*
Y0462085D01*
X0445207Y0458148D02*
X0452687D01*
X0445207D02*
Y0462085D01*
X0442648Y0435904D02*
Y0443384D01*
X0446585D01*
Y0435904D02*
Y0443384D01*
X0442648Y0435904D02*
X0446585D01*
X0447091Y0435869D02*
Y0443349D01*
X0451028D01*
Y0435869D02*
Y0443349D01*
X0447091Y0435869D02*
X0451028D01*
X0419813Y0402833D02*
Y0410313D01*
X0423750D01*
Y0402833D02*
Y0410313D01*
X0419813Y0402833D02*
X0423750D01*
X0416073Y0415628D02*
X0423553D01*
Y0411691D02*
Y0415628D01*
X0416073Y0411691D02*
X0423553D01*
X0416073D02*
Y0415628D01*
X0541173Y0444762D02*
G03*
X0541173Y0444762I-0000197J0000000D01*
G01*
X0533692D02*
G03*
X0533692Y0444762I-0000197J0000000D01*
G01*
X0528377Y0430589D02*
G03*
X0528377Y0430589I-0000197J0000000D01*
G01*
X0535858D02*
G03*
X0535858Y0430589I-0000197J0000000D01*
G01*
X0550720Y0462085D02*
X0558200D01*
Y0458148D02*
Y0462085D01*
X0550720Y0458148D02*
X0558200D01*
X0550720D02*
Y0462085D01*
X0548161Y0435904D02*
Y0443384D01*
X0552098D01*
Y0435904D02*
Y0443384D01*
X0548161Y0435904D02*
X0552098D01*
X0552604Y0435869D02*
Y0443349D01*
X0556541D01*
Y0435869D02*
Y0443349D01*
X0552604Y0435869D02*
X0556541D01*
X0525326Y0402833D02*
Y0410313D01*
X0529263D01*
Y0402833D02*
Y0410313D01*
X0525326Y0402833D02*
X0529263D01*
X0521586Y0415628D02*
X0529066D01*
Y0411691D02*
Y0415628D01*
X0521586Y0411691D02*
X0529066D01*
X0521586D02*
Y0415628D01*
X0646686Y0444762D02*
G03*
X0646686Y0444762I-0000197J0000000D01*
G01*
X0639206D02*
G03*
X0639206Y0444762I-0000197J0000000D01*
G01*
X0633891Y0430589D02*
G03*
X0633891Y0430589I-0000197J0000000D01*
G01*
X0641371D02*
G03*
X0641371Y0430589I-0000197J0000000D01*
G01*
X0656233Y0462085D02*
X0663713D01*
Y0458148D02*
Y0462085D01*
X0656233Y0458148D02*
X0663713D01*
X0656233D02*
Y0462085D01*
X0653674Y0435904D02*
Y0443384D01*
X0657611D01*
Y0435904D02*
Y0443384D01*
X0653674Y0435904D02*
X0657611D01*
X0658117Y0435869D02*
Y0443349D01*
X0662054D01*
Y0435869D02*
Y0443349D01*
X0658117Y0435869D02*
X0662054D01*
X0630839Y0402833D02*
Y0410313D01*
X0634776D01*
Y0402833D02*
Y0410313D01*
X0630839Y0402833D02*
X0634776D01*
X0627099Y0415628D02*
X0634580D01*
Y0411691D02*
Y0415628D01*
X0627099Y0411691D02*
X0634580D01*
X0627099D02*
Y0415628D01*
X0752199Y0444762D02*
G03*
X0752199Y0444762I-0000197J0000000D01*
G01*
X0744719D02*
G03*
X0744719Y0444762I-0000197J0000000D01*
G01*
X0739404Y0430589D02*
G03*
X0739404Y0430589I-0000197J0000000D01*
G01*
X0746884D02*
G03*
X0746884Y0430589I-0000197J0000000D01*
G01*
X0761746Y0462085D02*
X0769227D01*
Y0458148D02*
Y0462085D01*
X0761746Y0458148D02*
X0769227D01*
X0761746D02*
Y0462085D01*
X0759187Y0435904D02*
Y0443384D01*
X0763124D01*
Y0435904D02*
Y0443384D01*
X0759187Y0435904D02*
X0763124D01*
X0763630Y0435869D02*
Y0443349D01*
X0767567D01*
Y0435869D02*
Y0443349D01*
X0763630Y0435869D02*
X0767567D01*
X0736353Y0402833D02*
Y0410313D01*
X0740290D01*
Y0402833D02*
Y0410313D01*
X0736353Y0402833D02*
X0740290D01*
X0732612Y0415628D02*
X0740093D01*
Y0411691D02*
Y0415628D01*
X0732612Y0411691D02*
X0740093D01*
X0732612D02*
Y0415628D01*
D45*
X0421763Y0440729D02*
X0421238Y0440204D01*
Y0439154D01*
X0421763Y0438630D01*
X0423862D01*
X0424387Y0439154D01*
Y0440204D01*
X0423862Y0440729D01*
X0421763Y0441778D02*
X0421238Y0442303D01*
Y0443353D01*
X0421763Y0443877D01*
X0422288D01*
X0422813Y0443353D01*
X0423337Y0443877D01*
X0423862D01*
X0424387Y0443353D01*
Y0442303D01*
X0423862Y0441778D01*
X0423337D01*
X0422813Y0442303D01*
X0422288Y0441778D01*
X0421763D01*
X0422813Y0442303D02*
Y0443353D01*
X0412096Y0439855D02*
X0408947D01*
Y0441429D01*
X0409472Y0441954D01*
X0410522D01*
X0411046Y0441429D01*
Y0439855D01*
Y0440905D02*
X0412096Y0441954D01*
Y0445103D02*
Y0443004D01*
X0409997Y0445103D01*
X0409472D01*
X0408947Y0444578D01*
Y0443529D01*
X0409472Y0443004D01*
X0411571Y0446152D02*
X0412096Y0446677D01*
Y0447727D01*
X0411571Y0448251D01*
X0409472D01*
X0408947Y0447727D01*
Y0446677D01*
X0409472Y0446152D01*
X0409997D01*
X0410522Y0446677D01*
Y0448251D01*
X0427136Y0467661D02*
X0430285D01*
Y0466086D01*
X0429760Y0465562D01*
X0428711D01*
X0428186Y0466086D01*
Y0467661D01*
Y0466611D02*
X0427136Y0465562D01*
Y0462413D02*
Y0464512D01*
X0429235Y0462413D01*
X0429760D01*
X0430285Y0462938D01*
Y0463987D01*
X0429760Y0464512D01*
Y0461364D02*
X0430285Y0460839D01*
Y0459789D01*
X0429760Y0459265D01*
X0429235D01*
X0428711Y0459789D01*
Y0460314D01*
Y0459789D01*
X0428186Y0459265D01*
X0427661D01*
X0427136Y0459789D01*
Y0460839D01*
X0427661Y0461364D01*
X0399708Y0448468D02*
X0401934Y0450694D01*
X0403047Y0449581D01*
Y0448839D01*
X0402305Y0448097D01*
X0401563Y0448097D01*
X0400450Y0449210D01*
X0401192Y0448468D02*
Y0446983D01*
X0403418Y0444757D02*
X0401934Y0446241D01*
X0404903D01*
X0405274Y0446612D01*
Y0447354D01*
X0404531Y0448097D01*
X0403789Y0448097D01*
X0405645Y0442531D02*
X0404160Y0444015D01*
X0407129D01*
X0407500Y0444386D01*
Y0445128D01*
X0406758Y0445870D01*
X0406016Y0445870D01*
X0372938Y0570117D02*
Y0573265D01*
X0374512D01*
X0375037Y0572741D01*
Y0571691D01*
X0374512Y0571166D01*
X0372938D01*
X0373987D02*
X0375037Y0570117D01*
X0377661D02*
Y0573265D01*
X0376086Y0571691D01*
X0378185D01*
X0379235Y0572741D02*
X0379760Y0573265D01*
X0380809D01*
X0381334Y0572741D01*
Y0570642D01*
X0380809Y0570117D01*
X0379760D01*
X0379235Y0570642D01*
Y0572741D01*
X0394237Y0589093D02*
Y0592242D01*
X0395811D01*
X0396336Y0591717D01*
Y0590667D01*
X0395811Y0590143D01*
X0394237D01*
X0395286D02*
X0396336Y0589093D01*
X0397386Y0591717D02*
X0397910Y0592242D01*
X0398960D01*
X0399484Y0591717D01*
Y0591192D01*
X0398960Y0590667D01*
X0398435D01*
X0398960D01*
X0399484Y0590143D01*
Y0589618D01*
X0398960Y0589093D01*
X0397910D01*
X0397386Y0589618D01*
X0400534D02*
X0401059Y0589093D01*
X0402108D01*
X0402633Y0589618D01*
Y0591717D01*
X0402108Y0592242D01*
X0401059D01*
X0400534Y0591717D01*
Y0591192D01*
X0401059Y0590667D01*
X0402633D01*
X0447569Y0435023D02*
X0450718D01*
Y0433449D01*
X0450193Y0432924D01*
X0449144D01*
X0448619Y0433449D01*
Y0435023D01*
Y0433974D02*
X0447569Y0432924D01*
X0450193Y0431874D02*
X0450718Y0431350D01*
Y0430300D01*
X0450193Y0429775D01*
X0449668D01*
X0449144Y0430300D01*
Y0430825D01*
Y0430300D01*
X0448619Y0429775D01*
X0448094D01*
X0447569Y0430300D01*
Y0431350D01*
X0448094Y0431874D01*
X0450718Y0426627D02*
X0450193Y0427676D01*
X0449144Y0428726D01*
X0448094D01*
X0447569Y0428201D01*
Y0427151D01*
X0448094Y0426627D01*
X0448619D01*
X0449144Y0427151D01*
Y0428726D01*
X0415206Y0412099D02*
X0412057D01*
Y0413673D01*
X0412582Y0414198D01*
X0413632D01*
X0414157Y0413673D01*
Y0412099D01*
Y0413149D02*
X0415206Y0414198D01*
X0412582Y0415248D02*
X0412057Y0415773D01*
Y0416822D01*
X0412582Y0417347D01*
X0413107D01*
X0413632Y0416822D01*
Y0416297D01*
Y0416822D01*
X0414157Y0417347D01*
X0414681D01*
X0415206Y0416822D01*
Y0415773D01*
X0414681Y0415248D01*
X0412057Y0420496D02*
Y0418396D01*
X0413632D01*
X0413107Y0419446D01*
Y0419971D01*
X0413632Y0420496D01*
X0414681D01*
X0415206Y0419971D01*
Y0418921D01*
X0414681Y0418396D01*
X0453199Y0423122D02*
X0456348D01*
Y0424697D01*
X0455823Y0425221D01*
X0453724D01*
X0453199Y0424697D01*
Y0423122D01*
Y0428370D02*
X0453724Y0427320D01*
X0454774Y0426271D01*
X0455823D01*
X0456348Y0426796D01*
Y0427845D01*
X0455823Y0428370D01*
X0455298D01*
X0454774Y0427845D01*
Y0426271D01*
X0413016Y0396730D02*
Y0393581D01*
X0414590D01*
X0415115Y0394106D01*
Y0396205D01*
X0414590Y0396730D01*
X0413016D01*
X0418264D02*
X0416164D01*
Y0395156D01*
X0417214Y0395680D01*
X0417739D01*
X0418264Y0395156D01*
Y0394106D01*
X0417739Y0393581D01*
X0416689D01*
X0416164Y0394106D01*
X0434197Y0404604D02*
X0436296D01*
X0435247D01*
Y0401455D01*
X0437346Y0404079D02*
X0437870Y0404604D01*
X0438920D01*
X0439445Y0404079D01*
Y0403554D01*
X0438920Y0403030D01*
X0438395D01*
X0438920D01*
X0439445Y0402505D01*
Y0401980D01*
X0438920Y0401455D01*
X0437870D01*
X0437346Y0401980D01*
X0423631Y0394632D02*
X0420483D01*
Y0396206D01*
X0421007Y0396731D01*
X0422057D01*
X0422582Y0396206D01*
Y0394632D01*
Y0395681D02*
X0423631Y0396731D01*
Y0399880D02*
Y0397780D01*
X0421532Y0399880D01*
X0421007D01*
X0420483Y0399355D01*
Y0398305D01*
X0421007Y0397780D01*
X0423631Y0400929D02*
Y0401979D01*
Y0401454D01*
X0420483D01*
X0421007Y0400929D01*
X0436152Y0459041D02*
X0439301D01*
Y0460615D01*
X0438776Y0461140D01*
X0436677D01*
X0436152Y0460615D01*
Y0459041D01*
X0439301Y0462189D02*
Y0463239D01*
Y0462714D01*
X0436152D01*
X0436677Y0462189D01*
X0414236Y0442741D02*
X0413711Y0442216D01*
Y0441167D01*
X0414236Y0440642D01*
X0416335D01*
X0416860Y0441167D01*
Y0442216D01*
X0416335Y0442741D01*
X0413711Y0443791D02*
Y0445890D01*
X0414236D01*
X0416335Y0443791D01*
X0416860D01*
X0527276Y0440729D02*
X0526752Y0440204D01*
Y0439154D01*
X0527276Y0438630D01*
X0529375D01*
X0529900Y0439154D01*
Y0440204D01*
X0529375Y0440729D01*
X0527276Y0441778D02*
X0526752Y0442303D01*
Y0443353D01*
X0527276Y0443877D01*
X0527801D01*
X0528326Y0443353D01*
X0528851Y0443877D01*
X0529375D01*
X0529900Y0443353D01*
Y0442303D01*
X0529375Y0441778D01*
X0528851D01*
X0528326Y0442303D01*
X0527801Y0441778D01*
X0527276D01*
X0528326Y0442303D02*
Y0443353D01*
X0517609Y0439855D02*
X0514461D01*
Y0441429D01*
X0514985Y0441954D01*
X0516035D01*
X0516560Y0441429D01*
Y0439855D01*
Y0440905D02*
X0517609Y0441954D01*
Y0445103D02*
Y0443004D01*
X0515510Y0445103D01*
X0514985D01*
X0514461Y0444578D01*
Y0443529D01*
X0514985Y0443004D01*
X0517084Y0446152D02*
X0517609Y0446677D01*
Y0447727D01*
X0517084Y0448251D01*
X0514985D01*
X0514461Y0447727D01*
Y0446677D01*
X0514985Y0446152D01*
X0515510D01*
X0516035Y0446677D01*
Y0448251D01*
X0532650Y0467661D02*
X0535798D01*
Y0466086D01*
X0535273Y0465562D01*
X0534224D01*
X0533699Y0466086D01*
Y0467661D01*
Y0466611D02*
X0532650Y0465562D01*
Y0462413D02*
Y0464512D01*
X0534749Y0462413D01*
X0535273D01*
X0535798Y0462938D01*
Y0463987D01*
X0535273Y0464512D01*
Y0461364D02*
X0535798Y0460839D01*
Y0459789D01*
X0535273Y0459265D01*
X0534749D01*
X0534224Y0459789D01*
Y0460314D01*
Y0459789D01*
X0533699Y0459265D01*
X0533174D01*
X0532650Y0459789D01*
Y0460839D01*
X0533174Y0461364D01*
X0505221Y0448468D02*
X0507447Y0450694D01*
X0508560Y0449581D01*
Y0448839D01*
X0507818Y0448097D01*
X0507076Y0448097D01*
X0505963Y0449210D01*
X0506705Y0448468D02*
Y0446983D01*
X0508931Y0444757D02*
X0507447Y0446241D01*
X0510416D01*
X0510787Y0446612D01*
Y0447354D01*
X0510045Y0448097D01*
X0509303Y0448097D01*
X0511158Y0442531D02*
X0509674Y0444015D01*
X0512642D01*
X0513013Y0444386D01*
Y0445128D01*
X0512271Y0445870D01*
X0511529Y0445870D01*
X0478451Y0570117D02*
Y0573265D01*
X0480025D01*
X0480550Y0572741D01*
Y0571691D01*
X0480025Y0571166D01*
X0478451D01*
X0479500D02*
X0480550Y0570117D01*
X0483174D02*
Y0573265D01*
X0481600Y0571691D01*
X0483699D01*
X0484748Y0572741D02*
X0485273Y0573265D01*
X0486322D01*
X0486847Y0572741D01*
Y0570642D01*
X0486322Y0570117D01*
X0485273D01*
X0484748Y0570642D01*
Y0572741D01*
X0499750Y0589093D02*
Y0592242D01*
X0501324D01*
X0501849Y0591717D01*
Y0590667D01*
X0501324Y0590143D01*
X0499750D01*
X0500800D02*
X0501849Y0589093D01*
X0502899Y0591717D02*
X0503424Y0592242D01*
X0504473D01*
X0504998Y0591717D01*
Y0591192D01*
X0504473Y0590667D01*
X0503948D01*
X0504473D01*
X0504998Y0590143D01*
Y0589618D01*
X0504473Y0589093D01*
X0503424D01*
X0502899Y0589618D01*
X0506047D02*
X0506572Y0589093D01*
X0507622D01*
X0508146Y0589618D01*
Y0591717D01*
X0507622Y0592242D01*
X0506572D01*
X0506047Y0591717D01*
Y0591192D01*
X0506572Y0590667D01*
X0508146D01*
X0553083Y0435023D02*
X0556231D01*
Y0433449D01*
X0555706Y0432924D01*
X0554657D01*
X0554132Y0433449D01*
Y0435023D01*
Y0433974D02*
X0553083Y0432924D01*
X0555706Y0431874D02*
X0556231Y0431350D01*
Y0430300D01*
X0555706Y0429775D01*
X0555182D01*
X0554657Y0430300D01*
Y0430825D01*
Y0430300D01*
X0554132Y0429775D01*
X0553607D01*
X0553083Y0430300D01*
Y0431350D01*
X0553607Y0431874D01*
X0556231Y0426627D02*
X0555706Y0427676D01*
X0554657Y0428726D01*
X0553607D01*
X0553083Y0428201D01*
Y0427151D01*
X0553607Y0426627D01*
X0554132D01*
X0554657Y0427151D01*
Y0428726D01*
X0520719Y0412099D02*
X0517571D01*
Y0413673D01*
X0518095Y0414198D01*
X0519145D01*
X0519670Y0413673D01*
Y0412099D01*
Y0413149D02*
X0520719Y0414198D01*
X0518095Y0415248D02*
X0517571Y0415773D01*
Y0416822D01*
X0518095Y0417347D01*
X0518620D01*
X0519145Y0416822D01*
Y0416297D01*
Y0416822D01*
X0519670Y0417347D01*
X0520195D01*
X0520719Y0416822D01*
Y0415773D01*
X0520195Y0415248D01*
X0517571Y0420496D02*
Y0418396D01*
X0519145D01*
X0518620Y0419446D01*
Y0419971D01*
X0519145Y0420496D01*
X0520195D01*
X0520719Y0419971D01*
Y0418921D01*
X0520195Y0418396D01*
X0558712Y0423122D02*
X0561861D01*
Y0424697D01*
X0561336Y0425221D01*
X0559237D01*
X0558712Y0424697D01*
Y0423122D01*
Y0428370D02*
X0559237Y0427320D01*
X0560287Y0426271D01*
X0561336D01*
X0561861Y0426796D01*
Y0427845D01*
X0561336Y0428370D01*
X0560812D01*
X0560287Y0427845D01*
Y0426271D01*
X0518529Y0396730D02*
Y0393581D01*
X0520103D01*
X0520628Y0394106D01*
Y0396205D01*
X0520103Y0396730D01*
X0518529D01*
X0523777D02*
X0521678D01*
Y0395156D01*
X0522727Y0395680D01*
X0523252D01*
X0523777Y0395156D01*
Y0394106D01*
X0523252Y0393581D01*
X0522202D01*
X0521678Y0394106D01*
X0539710Y0404604D02*
X0541809D01*
X0540760D01*
Y0401455D01*
X0542859Y0404079D02*
X0543384Y0404604D01*
X0544433D01*
X0544958Y0404079D01*
Y0403554D01*
X0544433Y0403030D01*
X0543908D01*
X0544433D01*
X0544958Y0402505D01*
Y0401980D01*
X0544433Y0401455D01*
X0543384D01*
X0542859Y0401980D01*
X0529145Y0394632D02*
X0525996D01*
Y0396206D01*
X0526521Y0396731D01*
X0527570D01*
X0528095Y0396206D01*
Y0394632D01*
Y0395681D02*
X0529145Y0396731D01*
Y0399880D02*
Y0397780D01*
X0527045Y0399880D01*
X0526521D01*
X0525996Y0399355D01*
Y0398305D01*
X0526521Y0397780D01*
X0529145Y0400929D02*
Y0401979D01*
Y0401454D01*
X0525996D01*
X0526521Y0400929D01*
X0541665Y0459041D02*
X0544814D01*
Y0460615D01*
X0544289Y0461140D01*
X0542190D01*
X0541665Y0460615D01*
Y0459041D01*
X0544814Y0462189D02*
Y0463239D01*
Y0462714D01*
X0541665D01*
X0542190Y0462189D01*
X0519749Y0442741D02*
X0519224Y0442216D01*
Y0441167D01*
X0519749Y0440642D01*
X0521848D01*
X0522373Y0441167D01*
Y0442216D01*
X0521848Y0442741D01*
X0519224Y0443791D02*
Y0445890D01*
X0519749D01*
X0521848Y0443791D01*
X0522373D01*
X0632790Y0440729D02*
X0632265Y0440204D01*
Y0439154D01*
X0632790Y0438630D01*
X0634889D01*
X0635413Y0439154D01*
Y0440204D01*
X0634889Y0440729D01*
X0632790Y0441778D02*
X0632265Y0442303D01*
Y0443353D01*
X0632790Y0443877D01*
X0633314D01*
X0633839Y0443353D01*
X0634364Y0443877D01*
X0634889D01*
X0635413Y0443353D01*
Y0442303D01*
X0634889Y0441778D01*
X0634364D01*
X0633839Y0442303D01*
X0633314Y0441778D01*
X0632790D01*
X0633839Y0442303D02*
Y0443353D01*
X0623122Y0439855D02*
X0619974D01*
Y0441429D01*
X0620499Y0441954D01*
X0621548D01*
X0622073Y0441429D01*
Y0439855D01*
Y0440905D02*
X0623122Y0441954D01*
Y0445103D02*
Y0443004D01*
X0621023Y0445103D01*
X0620499D01*
X0619974Y0444578D01*
Y0443529D01*
X0620499Y0443004D01*
X0622598Y0446152D02*
X0623122Y0446677D01*
Y0447727D01*
X0622598Y0448251D01*
X0620499D01*
X0619974Y0447727D01*
Y0446677D01*
X0620499Y0446152D01*
X0621023D01*
X0621548Y0446677D01*
Y0448251D01*
X0638163Y0467661D02*
X0641311D01*
Y0466086D01*
X0640787Y0465562D01*
X0639737D01*
X0639212Y0466086D01*
Y0467661D01*
Y0466611D02*
X0638163Y0465562D01*
Y0462413D02*
Y0464512D01*
X0640262Y0462413D01*
X0640787D01*
X0641311Y0462938D01*
Y0463987D01*
X0640787Y0464512D01*
Y0461364D02*
X0641311Y0460839D01*
Y0459789D01*
X0640787Y0459265D01*
X0640262D01*
X0639737Y0459789D01*
Y0460314D01*
Y0459789D01*
X0639212Y0459265D01*
X0638688D01*
X0638163Y0459789D01*
Y0460839D01*
X0638688Y0461364D01*
X0610734Y0448468D02*
X0612960Y0450694D01*
X0614074Y0449581D01*
Y0448839D01*
X0613332Y0448097D01*
X0612589Y0448097D01*
X0611476Y0449210D01*
X0612218Y0448468D02*
Y0446983D01*
X0614445Y0444757D02*
X0612960Y0446241D01*
X0615929D01*
X0616300Y0446612D01*
Y0447354D01*
X0615558Y0448097D01*
X0614816Y0448097D01*
X0616671Y0442531D02*
X0615187Y0444015D01*
X0618155D01*
X0618526Y0444386D01*
Y0445128D01*
X0617784Y0445870D01*
X0617042Y0445870D01*
X0583964Y0570117D02*
Y0573265D01*
X0585538D01*
X0586063Y0572741D01*
Y0571691D01*
X0585538Y0571166D01*
X0583964D01*
X0585014D02*
X0586063Y0570117D01*
X0588687D02*
Y0573265D01*
X0587113Y0571691D01*
X0589212D01*
X0590261Y0572741D02*
X0590786Y0573265D01*
X0591836D01*
X0592360Y0572741D01*
Y0570642D01*
X0591836Y0570117D01*
X0590786D01*
X0590261Y0570642D01*
Y0572741D01*
X0605263Y0589093D02*
Y0592242D01*
X0606838D01*
X0607362Y0591717D01*
Y0590667D01*
X0606838Y0590143D01*
X0605263D01*
X0606313D02*
X0607362Y0589093D01*
X0608412Y0591717D02*
X0608937Y0592242D01*
X0609986D01*
X0610511Y0591717D01*
Y0591192D01*
X0609986Y0590667D01*
X0609461D01*
X0609986D01*
X0610511Y0590143D01*
Y0589618D01*
X0609986Y0589093D01*
X0608937D01*
X0608412Y0589618D01*
X0611560D02*
X0612085Y0589093D01*
X0613135D01*
X0613660Y0589618D01*
Y0591717D01*
X0613135Y0592242D01*
X0612085D01*
X0611560Y0591717D01*
Y0591192D01*
X0612085Y0590667D01*
X0613660D01*
X0658596Y0435023D02*
X0661744D01*
Y0433449D01*
X0661220Y0432924D01*
X0660170D01*
X0659645Y0433449D01*
Y0435023D01*
Y0433974D02*
X0658596Y0432924D01*
X0661220Y0431874D02*
X0661744Y0431350D01*
Y0430300D01*
X0661220Y0429775D01*
X0660695D01*
X0660170Y0430300D01*
Y0430825D01*
Y0430300D01*
X0659645Y0429775D01*
X0659121D01*
X0658596Y0430300D01*
Y0431350D01*
X0659121Y0431874D01*
X0661744Y0426627D02*
X0661220Y0427676D01*
X0660170Y0428726D01*
X0659121D01*
X0658596Y0428201D01*
Y0427151D01*
X0659121Y0426627D01*
X0659645D01*
X0660170Y0427151D01*
Y0428726D01*
X0626233Y0412099D02*
X0623084D01*
Y0413673D01*
X0623609Y0414198D01*
X0624658D01*
X0625183Y0413673D01*
Y0412099D01*
Y0413149D02*
X0626233Y0414198D01*
X0623609Y0415248D02*
X0623084Y0415773D01*
Y0416822D01*
X0623609Y0417347D01*
X0624133D01*
X0624658Y0416822D01*
Y0416297D01*
Y0416822D01*
X0625183Y0417347D01*
X0625708D01*
X0626233Y0416822D01*
Y0415773D01*
X0625708Y0415248D01*
X0623084Y0420496D02*
Y0418396D01*
X0624658D01*
X0624133Y0419446D01*
Y0419971D01*
X0624658Y0420496D01*
X0625708D01*
X0626233Y0419971D01*
Y0418921D01*
X0625708Y0418396D01*
X0664226Y0423122D02*
X0667374D01*
Y0424697D01*
X0666850Y0425221D01*
X0664750D01*
X0664226Y0424697D01*
Y0423122D01*
Y0428370D02*
X0664750Y0427320D01*
X0665800Y0426271D01*
X0666850D01*
X0667374Y0426796D01*
Y0427845D01*
X0666850Y0428370D01*
X0666325D01*
X0665800Y0427845D01*
Y0426271D01*
X0624042Y0396730D02*
Y0393581D01*
X0625617D01*
X0626141Y0394106D01*
Y0396205D01*
X0625617Y0396730D01*
X0624042D01*
X0629290D02*
X0627191D01*
Y0395156D01*
X0628240Y0395680D01*
X0628765D01*
X0629290Y0395156D01*
Y0394106D01*
X0628765Y0393581D01*
X0627716D01*
X0627191Y0394106D01*
X0645223Y0404604D02*
X0647323D01*
X0646273D01*
Y0401455D01*
X0648372Y0404079D02*
X0648897Y0404604D01*
X0649946D01*
X0650471Y0404079D01*
Y0403554D01*
X0649946Y0403030D01*
X0649422D01*
X0649946D01*
X0650471Y0402505D01*
Y0401980D01*
X0649946Y0401455D01*
X0648897D01*
X0648372Y0401980D01*
X0634658Y0394632D02*
X0631509D01*
Y0396206D01*
X0632034Y0396731D01*
X0633083D01*
X0633608Y0396206D01*
Y0394632D01*
Y0395681D02*
X0634658Y0396731D01*
Y0399880D02*
Y0397780D01*
X0632559Y0399880D01*
X0632034D01*
X0631509Y0399355D01*
Y0398305D01*
X0632034Y0397780D01*
X0634658Y0400929D02*
Y0401979D01*
Y0401454D01*
X0631509D01*
X0632034Y0400929D01*
X0647179Y0459041D02*
X0650327D01*
Y0460615D01*
X0649802Y0461140D01*
X0647703D01*
X0647179Y0460615D01*
Y0459041D01*
X0650327Y0462189D02*
Y0463239D01*
Y0462714D01*
X0647179D01*
X0647703Y0462189D01*
X0625262Y0442741D02*
X0624738Y0442216D01*
Y0441167D01*
X0625262Y0440642D01*
X0627361D01*
X0627886Y0441167D01*
Y0442216D01*
X0627361Y0442741D01*
X0624738Y0443791D02*
Y0445890D01*
X0625262D01*
X0627361Y0443791D01*
X0627886D01*
X0738303Y0440729D02*
X0737778Y0440204D01*
Y0439154D01*
X0738303Y0438630D01*
X0740402D01*
X0740927Y0439154D01*
Y0440204D01*
X0740402Y0440729D01*
X0738303Y0441778D02*
X0737778Y0442303D01*
Y0443353D01*
X0738303Y0443877D01*
X0738828D01*
X0739352Y0443353D01*
X0739877Y0443877D01*
X0740402D01*
X0740927Y0443353D01*
Y0442303D01*
X0740402Y0441778D01*
X0739877D01*
X0739352Y0442303D01*
X0738828Y0441778D01*
X0738303D01*
X0739352Y0442303D02*
Y0443353D01*
X0728636Y0439855D02*
X0725487D01*
Y0441429D01*
X0726012Y0441954D01*
X0727061D01*
X0727586Y0441429D01*
Y0439855D01*
Y0440905D02*
X0728636Y0441954D01*
Y0445103D02*
Y0443004D01*
X0726537Y0445103D01*
X0726012D01*
X0725487Y0444578D01*
Y0443529D01*
X0726012Y0443004D01*
X0728111Y0446152D02*
X0728636Y0446677D01*
Y0447727D01*
X0728111Y0448251D01*
X0726012D01*
X0725487Y0447727D01*
Y0446677D01*
X0726012Y0446152D01*
X0726537D01*
X0727061Y0446677D01*
Y0448251D01*
X0743676Y0467661D02*
X0746825D01*
Y0466086D01*
X0746300Y0465562D01*
X0745250D01*
X0744726Y0466086D01*
Y0467661D01*
Y0466611D02*
X0743676Y0465562D01*
Y0462413D02*
Y0464512D01*
X0745775Y0462413D01*
X0746300D01*
X0746825Y0462938D01*
Y0463987D01*
X0746300Y0464512D01*
Y0461364D02*
X0746825Y0460839D01*
Y0459789D01*
X0746300Y0459265D01*
X0745775D01*
X0745250Y0459789D01*
Y0460314D01*
Y0459789D01*
X0744726Y0459265D01*
X0744201D01*
X0743676Y0459789D01*
Y0460839D01*
X0744201Y0461364D01*
X0716247Y0448468D02*
X0718474Y0450694D01*
X0719587Y0449581D01*
Y0448839D01*
X0718845Y0448097D01*
X0718103Y0448097D01*
X0716989Y0449210D01*
X0717732Y0448468D02*
Y0446983D01*
X0719958Y0444757D02*
X0718474Y0446241D01*
X0721442D01*
X0721813Y0446612D01*
Y0447354D01*
X0721071Y0448097D01*
X0720329Y0448097D01*
X0722184Y0442531D02*
X0720700Y0444015D01*
X0723669D01*
X0724040Y0444386D01*
Y0445128D01*
X0723298Y0445870D01*
X0722555Y0445870D01*
X0689477Y0570117D02*
Y0573265D01*
X0691052D01*
X0691576Y0572741D01*
Y0571691D01*
X0691052Y0571166D01*
X0689477D01*
X0690527D02*
X0691576Y0570117D01*
X0694200D02*
Y0573265D01*
X0692626Y0571691D01*
X0694725D01*
X0695775Y0572741D02*
X0696299Y0573265D01*
X0697349D01*
X0697874Y0572741D01*
Y0570642D01*
X0697349Y0570117D01*
X0696299D01*
X0695775Y0570642D01*
Y0572741D01*
X0710777Y0589093D02*
Y0592242D01*
X0712351D01*
X0712876Y0591717D01*
Y0590667D01*
X0712351Y0590143D01*
X0710777D01*
X0711826D02*
X0712876Y0589093D01*
X0713925Y0591717D02*
X0714450Y0592242D01*
X0715499D01*
X0716024Y0591717D01*
Y0591192D01*
X0715499Y0590667D01*
X0714975D01*
X0715499D01*
X0716024Y0590143D01*
Y0589618D01*
X0715499Y0589093D01*
X0714450D01*
X0713925Y0589618D01*
X0717074D02*
X0717598Y0589093D01*
X0718648D01*
X0719173Y0589618D01*
Y0591717D01*
X0718648Y0592242D01*
X0717598D01*
X0717074Y0591717D01*
Y0591192D01*
X0717598Y0590667D01*
X0719173D01*
X0764109Y0435023D02*
X0767258D01*
Y0433449D01*
X0766733Y0432924D01*
X0765683D01*
X0765159Y0433449D01*
Y0435023D01*
Y0433974D02*
X0764109Y0432924D01*
X0766733Y0431874D02*
X0767258Y0431350D01*
Y0430300D01*
X0766733Y0429775D01*
X0766208D01*
X0765683Y0430300D01*
Y0430825D01*
Y0430300D01*
X0765159Y0429775D01*
X0764634D01*
X0764109Y0430300D01*
Y0431350D01*
X0764634Y0431874D01*
X0767258Y0426627D02*
X0766733Y0427676D01*
X0765683Y0428726D01*
X0764634D01*
X0764109Y0428201D01*
Y0427151D01*
X0764634Y0426627D01*
X0765159D01*
X0765683Y0427151D01*
Y0428726D01*
X0731746Y0412099D02*
X0728597D01*
Y0413673D01*
X0729122Y0414198D01*
X0730171D01*
X0730696Y0413673D01*
Y0412099D01*
Y0413149D02*
X0731746Y0414198D01*
X0729122Y0415248D02*
X0728597Y0415773D01*
Y0416822D01*
X0729122Y0417347D01*
X0729647D01*
X0730171Y0416822D01*
Y0416297D01*
Y0416822D01*
X0730696Y0417347D01*
X0731221D01*
X0731746Y0416822D01*
Y0415773D01*
X0731221Y0415248D01*
X0728597Y0420496D02*
Y0418396D01*
X0730171D01*
X0729647Y0419446D01*
Y0419971D01*
X0730171Y0420496D01*
X0731221D01*
X0731746Y0419971D01*
Y0418921D01*
X0731221Y0418396D01*
X0769739Y0423122D02*
X0772888D01*
Y0424697D01*
X0772363Y0425221D01*
X0770264D01*
X0769739Y0424697D01*
Y0423122D01*
Y0428370D02*
X0770264Y0427320D01*
X0771313Y0426271D01*
X0772363D01*
X0772888Y0426796D01*
Y0427845D01*
X0772363Y0428370D01*
X0771838D01*
X0771313Y0427845D01*
Y0426271D01*
X0729556Y0396730D02*
Y0393581D01*
X0731130D01*
X0731655Y0394106D01*
Y0396205D01*
X0731130Y0396730D01*
X0729556D01*
X0734803D02*
X0732704D01*
Y0395156D01*
X0733754Y0395680D01*
X0734278D01*
X0734803Y0395156D01*
Y0394106D01*
X0734278Y0393581D01*
X0733229D01*
X0732704Y0394106D01*
X0750737Y0404604D02*
X0752836D01*
X0751786D01*
Y0401455D01*
X0753885Y0404079D02*
X0754410Y0404604D01*
X0755460D01*
X0755984Y0404079D01*
Y0403554D01*
X0755460Y0403030D01*
X0754935D01*
X0755460D01*
X0755984Y0402505D01*
Y0401980D01*
X0755460Y0401455D01*
X0754410D01*
X0753885Y0401980D01*
X0740171Y0394632D02*
X0737022D01*
Y0396206D01*
X0737547Y0396731D01*
X0738597D01*
X0739121Y0396206D01*
Y0394632D01*
Y0395681D02*
X0740171Y0396731D01*
Y0399880D02*
Y0397780D01*
X0738072Y0399880D01*
X0737547D01*
X0737022Y0399355D01*
Y0398305D01*
X0737547Y0397780D01*
X0740171Y0400929D02*
Y0401979D01*
Y0401454D01*
X0737022D01*
X0737547Y0400929D01*
X0752692Y0459041D02*
X0755840D01*
Y0460615D01*
X0755315Y0461140D01*
X0753216D01*
X0752692Y0460615D01*
Y0459041D01*
X0755840Y0462189D02*
Y0463239D01*
Y0462714D01*
X0752692D01*
X0753216Y0462189D01*
X0730775Y0442741D02*
X0730251Y0442216D01*
Y0441167D01*
X0730775Y0440642D01*
X0732875D01*
X0733399Y0441167D01*
Y0442216D01*
X0732875Y0442741D01*
X0730251Y0443791D02*
Y0445890D01*
X0730775D01*
X0732875Y0443791D01*
X0733399D01*
M02*
