G04*
G04 #@! TF.GenerationSoftware,Altium Limited,Altium Designer,20.1.14 (287)*
G04*
G04 Layer_Color=8388736*
%FSAX25Y25*%
%MOIN*%
G70*
G04*
G04 #@! TF.SameCoordinates,1876172F-CBA1-4FB9-98D7-45F53F2F45AF*
G04*
G04*
G04 #@! TF.FilePolarity,Negative*
G04*
G01*
G75*
%ADD46R,0.07099X0.14580*%
%ADD47R,0.14580X0.07099*%
%ADD48R,0.03162X0.04343*%
%ADD49R,0.04343X0.03162*%
%ADD50R,0.03950X0.03950*%
G04:AMPARAMS|DCode=51|XSize=31.62mil|YSize=43.43mil|CornerRadius=0mil|HoleSize=0mil|Usage=FLASHONLY|Rotation=135.000|XOffset=0mil|YOffset=0mil|HoleType=Round|Shape=Rectangle|*
%AMROTATEDRECTD51*
4,1,4,0.02654,0.00418,-0.00418,-0.02654,-0.02654,-0.00418,0.00418,0.02654,0.02654,0.00418,0.0*
%
%ADD51ROTATEDRECTD51*%

%ADD52R,0.02572X0.03556*%
%ADD53R,0.02769X0.03162*%
%ADD54R,0.04737X0.03950*%
%ADD55R,0.03162X0.02769*%
%ADD56R,0.03950X0.04737*%
%ADD57R,0.04343X0.05918*%
%ADD58R,0.05918X0.04343*%
%ADD59C,0.33084*%
%ADD60C,0.32296*%
%ADD61C,0.12611*%
%ADD62C,0.05524*%
D46*
X0411545Y0579801D02*
D03*
X0390285D02*
D03*
X0517058D02*
D03*
X0495799D02*
D03*
X0622572D02*
D03*
X0601312D02*
D03*
X0728085D02*
D03*
X0706825D02*
D03*
D47*
X0379899Y0564211D02*
D03*
Y0542951D02*
D03*
Y0530037D02*
D03*
Y0508778D02*
D03*
Y0496258D02*
D03*
Y0474998D02*
D03*
X0485412Y0564211D02*
D03*
Y0542951D02*
D03*
Y0530037D02*
D03*
Y0508778D02*
D03*
Y0496258D02*
D03*
Y0474998D02*
D03*
X0590926Y0564211D02*
D03*
Y0542951D02*
D03*
Y0530037D02*
D03*
Y0508778D02*
D03*
Y0496258D02*
D03*
Y0474998D02*
D03*
X0696439Y0564211D02*
D03*
Y0542951D02*
D03*
Y0530037D02*
D03*
Y0508778D02*
D03*
Y0496258D02*
D03*
Y0474998D02*
D03*
D48*
X0389577Y0446337D02*
D03*
X0383671D02*
D03*
X0404734Y0466022D02*
D03*
X0398829D02*
D03*
X0416624D02*
D03*
X0410718D02*
D03*
X0495090Y0446337D02*
D03*
X0489185D02*
D03*
X0510247Y0466022D02*
D03*
X0504342D02*
D03*
X0522137D02*
D03*
X0516232D02*
D03*
X0600603Y0446337D02*
D03*
X0594698D02*
D03*
X0615761Y0466022D02*
D03*
X0609855D02*
D03*
X0627650D02*
D03*
X0621745D02*
D03*
X0706116Y0446337D02*
D03*
X0700211D02*
D03*
X0721274Y0466022D02*
D03*
X0715368D02*
D03*
X0733164D02*
D03*
X0727258D02*
D03*
D49*
X0376506Y0446258D02*
D03*
Y0452164D02*
D03*
X0422963Y0460313D02*
D03*
Y0466219D02*
D03*
X0406821Y0429014D02*
D03*
Y0434919D02*
D03*
X0482019Y0446258D02*
D03*
Y0452164D02*
D03*
X0528476Y0460313D02*
D03*
Y0466219D02*
D03*
X0512334Y0429014D02*
D03*
Y0434919D02*
D03*
X0587532Y0446258D02*
D03*
Y0452164D02*
D03*
X0633989Y0460313D02*
D03*
Y0466219D02*
D03*
X0617847Y0429014D02*
D03*
Y0434919D02*
D03*
X0693046Y0446258D02*
D03*
Y0452164D02*
D03*
X0739502Y0460313D02*
D03*
Y0466219D02*
D03*
X0723360Y0429014D02*
D03*
Y0434919D02*
D03*
D50*
X0422963Y0454014D02*
D03*
Y0448108D02*
D03*
X0413514Y0428817D02*
D03*
Y0434723D02*
D03*
X0454852Y0433738D02*
D03*
Y0440037D02*
D03*
X0415876Y0401849D02*
D03*
Y0408148D02*
D03*
X0528476Y0454014D02*
D03*
Y0448108D02*
D03*
X0519027Y0428817D02*
D03*
Y0434723D02*
D03*
X0560365Y0433738D02*
D03*
Y0440037D02*
D03*
X0521389Y0401849D02*
D03*
Y0408148D02*
D03*
X0633989Y0454014D02*
D03*
Y0448108D02*
D03*
X0624540Y0428817D02*
D03*
Y0434723D02*
D03*
X0665879Y0433738D02*
D03*
Y0440037D02*
D03*
X0626902Y0401849D02*
D03*
Y0408148D02*
D03*
X0739502Y0454014D02*
D03*
Y0448108D02*
D03*
X0730053Y0428817D02*
D03*
Y0434723D02*
D03*
X0771392Y0433738D02*
D03*
Y0440037D02*
D03*
X0732416Y0401849D02*
D03*
Y0408148D02*
D03*
D51*
X0401428Y0440312D02*
D03*
X0397253Y0444488D02*
D03*
X0506942Y0440312D02*
D03*
X0502766Y0444488D02*
D03*
X0612455Y0440312D02*
D03*
X0608279Y0444488D02*
D03*
X0717968Y0440312D02*
D03*
X0713792Y0444488D02*
D03*
D52*
X0437530Y0445746D02*
D03*
Y0455589D02*
D03*
X0430049Y0445746D02*
D03*
Y0455589D02*
D03*
X0428081Y0419762D02*
D03*
Y0429604D02*
D03*
X0420600D02*
D03*
Y0419762D02*
D03*
X0543043Y0445746D02*
D03*
Y0455589D02*
D03*
X0535562Y0445746D02*
D03*
Y0455589D02*
D03*
X0533594Y0419762D02*
D03*
Y0429604D02*
D03*
X0526114D02*
D03*
Y0419762D02*
D03*
X0648556Y0445746D02*
D03*
Y0455589D02*
D03*
X0641076Y0445746D02*
D03*
Y0455589D02*
D03*
X0639107Y0419762D02*
D03*
Y0429604D02*
D03*
X0631627D02*
D03*
Y0419762D02*
D03*
X0754069Y0445746D02*
D03*
Y0455589D02*
D03*
X0746589Y0445746D02*
D03*
Y0455589D02*
D03*
X0744620Y0419762D02*
D03*
Y0429604D02*
D03*
X0737140D02*
D03*
Y0419762D02*
D03*
D53*
X0450915Y0460116D02*
D03*
X0446978D02*
D03*
X0421781Y0413659D02*
D03*
X0417844D02*
D03*
X0556428Y0460116D02*
D03*
X0552492D02*
D03*
X0527295Y0413659D02*
D03*
X0523358D02*
D03*
X0661942Y0460116D02*
D03*
X0658005D02*
D03*
X0632808Y0413659D02*
D03*
X0628871D02*
D03*
X0767455Y0460116D02*
D03*
X0763518D02*
D03*
X0738321Y0413659D02*
D03*
X0734384D02*
D03*
D54*
X0444616Y0454408D02*
D03*
Y0446927D02*
D03*
X0454065Y0450667D02*
D03*
X0550129Y0454408D02*
D03*
Y0446927D02*
D03*
X0559578Y0450667D02*
D03*
X0655643Y0454408D02*
D03*
Y0446927D02*
D03*
X0665091Y0450667D02*
D03*
X0761156Y0454408D02*
D03*
Y0446927D02*
D03*
X0770605Y0450667D02*
D03*
D55*
X0444616Y0441612D02*
D03*
Y0437675D02*
D03*
X0449059Y0441577D02*
D03*
Y0437640D02*
D03*
X0421781Y0408541D02*
D03*
Y0404604D02*
D03*
X0550129Y0441612D02*
D03*
Y0437675D02*
D03*
X0554573Y0441577D02*
D03*
Y0437640D02*
D03*
X0527295Y0408541D02*
D03*
Y0404604D02*
D03*
X0655643Y0441612D02*
D03*
Y0437675D02*
D03*
X0660086Y0441577D02*
D03*
Y0437640D02*
D03*
X0632808Y0408541D02*
D03*
Y0404604D02*
D03*
X0761156Y0441612D02*
D03*
Y0437675D02*
D03*
X0765599Y0441577D02*
D03*
Y0437640D02*
D03*
X0738321Y0408541D02*
D03*
Y0404604D02*
D03*
D56*
X0435364Y0414053D02*
D03*
X0427884D02*
D03*
X0431624Y0404604D02*
D03*
X0540877Y0414053D02*
D03*
X0533397D02*
D03*
X0537137Y0404604D02*
D03*
X0646391Y0414053D02*
D03*
X0638910D02*
D03*
X0642650Y0404604D02*
D03*
X0751904Y0414053D02*
D03*
X0744423D02*
D03*
X0748164Y0404604D02*
D03*
D57*
X0392057Y0466022D02*
D03*
X0384577D02*
D03*
X0497570D02*
D03*
X0490090D02*
D03*
X0603084D02*
D03*
X0595603D02*
D03*
X0708597D02*
D03*
X0701116D02*
D03*
D58*
X0376506Y0458817D02*
D03*
Y0466297D02*
D03*
X0482019Y0458817D02*
D03*
Y0466297D02*
D03*
X0587532Y0458817D02*
D03*
Y0466297D02*
D03*
X0693046Y0458817D02*
D03*
Y0466297D02*
D03*
D59*
X0391860Y0412478D02*
D03*
X0497373D02*
D03*
X0602887D02*
D03*
X0708400D02*
D03*
D60*
X0435167Y0579762D02*
D03*
X0540681D02*
D03*
X0646194D02*
D03*
X0751707D02*
D03*
D61*
X0785245Y0368778D02*
D03*
Y0624684D02*
D03*
X0359182D02*
D03*
Y0368778D02*
D03*
D62*
X0391860Y0412478D02*
D03*
X0435167Y0579762D02*
D03*
X0497373Y0412478D02*
D03*
X0540681Y0579762D02*
D03*
X0602887Y0412478D02*
D03*
X0646194Y0579762D02*
D03*
X0708400Y0412478D02*
D03*
X0751707Y0579762D02*
D03*
M02*
