G04*
G04 #@! TF.GenerationSoftware,Altium Limited,Altium Designer,20.1.14 (287)*
G04*
G04 Layer_Color=16711935*
%FSAX25Y25*%
%MOIN*%
G70*
G04*
G04 #@! TF.SameCoordinates,1876172F-CBA1-4FB9-98D7-45F53F2F45AF*
G04*
G04*
G04 #@! TF.FilePolarity,Positive*
G04*
G01*
G75*
%ADD28C,0.00787*%
%ADD74C,0.01000*%
D28*
X0349339Y0634526D02*
X0349339Y0358937D01*
X0349339Y0634526D02*
X0795088Y0634526D01*
X0795088Y0358937D01*
X0349339Y0358937D02*
X0795088Y0358937D01*
D74*
X0390679Y0562085D02*
X0458788D01*
Y0574685D01*
X0390679Y0471534D02*
X0402490D01*
X0402490Y0483345D02*
Y0550274D01*
X0380836Y0459723D02*
X0418238Y0459722D01*
X0418238Y0451849D01*
X0380836Y0451849D02*
X0418238Y0451849D01*
X0380836Y0459723D02*
X0380836Y0451849D01*
X0426112Y0471534D02*
Y0483345D01*
X0402490Y0471534D02*
X0426112D01*
X0402490Y0483345D02*
X0426112D01*
X0437451Y0597518D02*
X0440418Y0597127D01*
X0435954Y0597518D02*
X0437451Y0597518D01*
X0392648Y0597518D02*
X0435954Y0597518D01*
X0391487Y0597518D02*
X0392648Y0597518D01*
X0389177Y0597290D02*
X0391487Y0597518D01*
X0386901Y0596837D02*
X0389177Y0597290D01*
X0384680Y0596164D02*
X0386901Y0596837D01*
X0382535Y0595275D02*
X0384680Y0596164D01*
X0380488Y0594181D02*
X0382535Y0595275D01*
X0378558Y0592892D02*
X0380488Y0594181D01*
X0376764Y0591419D02*
X0378558Y0592892D01*
X0375123Y0589778D02*
X0376764Y0591419D01*
X0373651Y0587984D02*
X0375123Y0589778D01*
X0372361Y0586054D02*
X0373651Y0587984D01*
X0371267Y0584007D02*
X0372361Y0586054D01*
X0370379Y0581863D02*
X0371267Y0584007D01*
X0369705Y0579642D02*
X0370379Y0581863D01*
X0369252Y0577365D02*
X0369705Y0579642D01*
X0369025Y0575055D02*
X0369252Y0577365D01*
X0369025Y0575055D02*
X0369025Y0573895D01*
X0369025Y0466022D01*
X0369025Y0462085D02*
X0369025Y0466022D01*
X0369025Y0462085D02*
X0369025Y0404605D01*
Y0403831D02*
Y0404605D01*
Y0403831D02*
X0369227Y0402296D01*
X0369627Y0400801D01*
X0370220Y0399370D01*
X0370994Y0398029D01*
X0371937Y0396801D01*
X0373031Y0395706D01*
X0374260Y0394764D01*
X0375601Y0393990D01*
X0377031Y0393397D01*
X0378526Y0392996D01*
X0380062Y0392794D01*
X0380836D01*
X0446973Y0392794D01*
X0447747Y0392794D01*
X0449283Y0392996D01*
X0450779Y0393397D01*
X0452210Y0393990D01*
X0453552Y0394765D01*
X0454781Y0395708D01*
X0455876Y0396803D01*
X0456819Y0398032D01*
X0457593Y0399373D01*
X0458186Y0400804D01*
X0458587Y0402301D01*
X0458789Y0403836D01*
X0458789Y0404611D02*
X0458789Y0403836D01*
X0458789Y0462085D02*
X0458789Y0404611D01*
X0458789Y0462085D02*
X0458790Y0466022D01*
X0458789Y0481376D02*
X0458790Y0466022D01*
X0458789Y0481376D02*
X0458790Y0512872D01*
X0458789Y0550274D02*
X0458790Y0512872D01*
X0402490Y0550274D02*
X0458789Y0550274D01*
X0390679Y0471534D02*
Y0562085D01*
X0458788Y0576181D02*
X0458788Y0574685D01*
X0458397Y0579149D02*
X0458788Y0576181D01*
X0457622Y0582040D02*
X0458397Y0579149D01*
X0456477Y0584805D02*
X0457622Y0582040D01*
X0454980Y0587397D02*
X0456477Y0584805D01*
X0453158Y0589772D02*
X0454980Y0587397D01*
X0451042Y0591889D02*
X0453158Y0589772D01*
X0448667Y0593711D02*
X0451042Y0591889D01*
X0446075Y0595207D02*
X0448667Y0593711D01*
X0443309Y0596352D02*
X0446075Y0595207D01*
X0440418Y0597127D02*
X0443309Y0596352D01*
X0496192Y0562085D02*
X0564301D01*
Y0574685D01*
X0496192Y0471534D02*
X0508003D01*
X0508003Y0483345D02*
Y0550274D01*
X0486349Y0459723D02*
X0523751Y0459722D01*
X0523751Y0451849D01*
X0486349Y0451849D02*
X0523751Y0451849D01*
X0486349Y0459723D02*
X0486349Y0451849D01*
X0531625Y0471534D02*
Y0483345D01*
X0508003Y0471534D02*
X0531625D01*
X0508003Y0483345D02*
X0531625D01*
X0542964Y0597518D02*
X0545932Y0597127D01*
X0541468Y0597518D02*
X0542964Y0597518D01*
X0498161Y0597518D02*
X0541468Y0597518D01*
X0497000Y0597518D02*
X0498161Y0597518D01*
X0494690Y0597290D02*
X0497000Y0597518D01*
X0492414Y0596837D02*
X0494690Y0597290D01*
X0490193Y0596164D02*
X0492414Y0596837D01*
X0488048Y0595275D02*
X0490193Y0596164D01*
X0486001Y0594181D02*
X0488048Y0595275D01*
X0484072Y0592892D02*
X0486001Y0594181D01*
X0482277Y0591419D02*
X0484072Y0592892D01*
X0480636Y0589778D02*
X0482277Y0591419D01*
X0479164Y0587984D02*
X0480636Y0589778D01*
X0477874Y0586054D02*
X0479164Y0587984D01*
X0476780Y0584007D02*
X0477874Y0586054D01*
X0475892Y0581863D02*
X0476780Y0584007D01*
X0475218Y0579642D02*
X0475892Y0581863D01*
X0474765Y0577365D02*
X0475218Y0579642D01*
X0474538Y0575055D02*
X0474765Y0577365D01*
X0474538Y0575055D02*
X0474538Y0573895D01*
X0474538Y0466022D01*
X0474538Y0462085D02*
X0474538Y0466022D01*
X0474538Y0462085D02*
X0474538Y0404605D01*
Y0403831D02*
Y0404605D01*
Y0403831D02*
X0474740Y0402296D01*
X0475141Y0400801D01*
X0475733Y0399370D01*
X0476507Y0398029D01*
X0477450Y0396801D01*
X0478545Y0395706D01*
X0479773Y0394764D01*
X0481114Y0393990D01*
X0482544Y0393397D01*
X0484040Y0392996D01*
X0485575Y0392794D01*
X0486349D01*
X0552486Y0392794D01*
X0553260Y0392794D01*
X0554796Y0392996D01*
X0556292Y0393397D01*
X0557724Y0393990D01*
X0559065Y0394765D01*
X0560294Y0395708D01*
X0561389Y0396803D01*
X0562332Y0398032D01*
X0563107Y0399373D01*
X0563699Y0400804D01*
X0564100Y0402301D01*
X0564302Y0403836D01*
X0564302Y0404611D02*
X0564302Y0403836D01*
X0564302Y0462085D02*
X0564302Y0404611D01*
X0564302Y0462085D02*
X0564303Y0466022D01*
X0564303Y0481376D02*
X0564303Y0466022D01*
X0564303Y0481376D02*
X0564303Y0512872D01*
X0564302Y0550274D02*
X0564303Y0512872D01*
X0508003Y0550274D02*
X0564302Y0550274D01*
X0496192Y0471534D02*
Y0562085D01*
X0564301Y0576181D02*
X0564301Y0574685D01*
X0563910Y0579149D02*
X0564301Y0576181D01*
X0563136Y0582040D02*
X0563910Y0579149D01*
X0561990Y0584805D02*
X0563136Y0582040D01*
X0560494Y0587397D02*
X0561990Y0584805D01*
X0558671Y0589772D02*
X0560494Y0587397D01*
X0556555Y0591889D02*
X0558671Y0589772D01*
X0554180Y0593711D02*
X0556555Y0591889D01*
X0551588Y0595207D02*
X0554180Y0593711D01*
X0548823Y0596352D02*
X0551588Y0595207D01*
X0545932Y0597127D02*
X0548823Y0596352D01*
X0601706Y0562085D02*
X0669814D01*
Y0574685D01*
X0601706Y0471534D02*
X0613517D01*
X0613517Y0483345D02*
Y0550274D01*
X0591862Y0459723D02*
X0629265Y0459722D01*
X0629265Y0451849D01*
X0591862Y0451849D02*
X0629265Y0451849D01*
X0591862Y0459723D02*
X0591862Y0451849D01*
X0637139Y0471534D02*
Y0483345D01*
X0613517Y0471534D02*
X0637139D01*
X0613517Y0483345D02*
X0637139D01*
X0648477Y0597518D02*
X0651445Y0597127D01*
X0646981Y0597518D02*
X0648477Y0597518D01*
X0603674Y0597518D02*
X0646981Y0597518D01*
X0602513Y0597518D02*
X0603674Y0597518D01*
X0600204Y0597290D02*
X0602513Y0597518D01*
X0597927Y0596837D02*
X0600204Y0597290D01*
X0595706Y0596164D02*
X0597927Y0596837D01*
X0593562Y0595275D02*
X0595706Y0596164D01*
X0591515Y0594181D02*
X0593562Y0595275D01*
X0589585Y0592892D02*
X0591515Y0594181D01*
X0587791Y0591419D02*
X0589585Y0592892D01*
X0586149Y0589778D02*
X0587791Y0591419D01*
X0584677Y0587984D02*
X0586149Y0589778D01*
X0583388Y0586054D02*
X0584677Y0587984D01*
X0582293Y0584007D02*
X0583388Y0586054D01*
X0581405Y0581863D02*
X0582293Y0584007D01*
X0580731Y0579642D02*
X0581405Y0581863D01*
X0580279Y0577365D02*
X0580731Y0579642D01*
X0580051Y0575055D02*
X0580279Y0577365D01*
X0580051Y0575055D02*
X0580051Y0573895D01*
X0580051Y0466022D01*
X0580051Y0462085D02*
X0580051Y0466022D01*
X0580051Y0462085D02*
X0580051Y0404605D01*
Y0403831D02*
Y0404605D01*
Y0403831D02*
X0580253Y0402296D01*
X0580654Y0400801D01*
X0581246Y0399370D01*
X0582021Y0398029D01*
X0582963Y0396801D01*
X0584058Y0395706D01*
X0585286Y0394764D01*
X0586627Y0393990D01*
X0588057Y0393397D01*
X0589553Y0392996D01*
X0591088Y0392794D01*
X0591862D01*
X0657999Y0392794D01*
X0658774Y0392794D01*
X0660309Y0392996D01*
X0661806Y0393397D01*
X0663237Y0393990D01*
X0664578Y0394765D01*
X0665807Y0395708D01*
X0666902Y0396803D01*
X0667845Y0398032D01*
X0668620Y0399373D01*
X0669213Y0400804D01*
X0669614Y0402301D01*
X0669816Y0403836D01*
X0669816Y0404611D02*
X0669816Y0403836D01*
X0669816Y0462085D02*
X0669816Y0404611D01*
X0669816Y0462085D02*
X0669816Y0466022D01*
X0669816Y0481376D02*
X0669816Y0466022D01*
X0669816Y0481376D02*
X0669816Y0512872D01*
X0669815Y0550274D02*
X0669816Y0512872D01*
X0613517Y0550274D02*
X0669815Y0550274D01*
X0601706Y0471534D02*
Y0562085D01*
X0669814Y0576181D02*
X0669814Y0574685D01*
X0669424Y0579149D02*
X0669814Y0576181D01*
X0668649Y0582040D02*
X0669424Y0579149D01*
X0667503Y0584805D02*
X0668649Y0582040D01*
X0666007Y0587397D02*
X0667503Y0584805D01*
X0664185Y0589772D02*
X0666007Y0587397D01*
X0662068Y0591889D02*
X0664185Y0589772D01*
X0659693Y0593711D02*
X0662068Y0591889D01*
X0657101Y0595207D02*
X0659693Y0593711D01*
X0654336Y0596352D02*
X0657101Y0595207D01*
X0651445Y0597127D02*
X0654336Y0596352D01*
X0707219Y0562085D02*
X0775328D01*
Y0574685D01*
X0707219Y0471534D02*
X0719030D01*
X0719030Y0483345D02*
Y0550274D01*
X0697375Y0459723D02*
X0734778Y0459722D01*
X0734778Y0451849D01*
X0697375Y0451849D02*
X0734778Y0451849D01*
X0697375Y0459723D02*
X0697375Y0451849D01*
X0742652Y0471534D02*
Y0483345D01*
X0719030Y0471534D02*
X0742652D01*
X0719030Y0483345D02*
X0742652D01*
X0753991Y0597518D02*
X0756958Y0597127D01*
X0752494Y0597518D02*
X0753991Y0597518D01*
X0709187Y0597518D02*
X0752494Y0597518D01*
X0708027Y0597518D02*
X0709187Y0597518D01*
X0705717Y0597290D02*
X0708027Y0597518D01*
X0703440Y0596837D02*
X0705717Y0597290D01*
X0701219Y0596164D02*
X0703440Y0596837D01*
X0699075Y0595275D02*
X0701219Y0596164D01*
X0697028Y0594181D02*
X0699075Y0595275D01*
X0695098Y0592892D02*
X0697028Y0594181D01*
X0693304Y0591419D02*
X0695098Y0592892D01*
X0691663Y0589778D02*
X0693304Y0591419D01*
X0690190Y0587984D02*
X0691663Y0589778D01*
X0688901Y0586054D02*
X0690190Y0587984D01*
X0687807Y0584007D02*
X0688901Y0586054D01*
X0686918Y0581863D02*
X0687807Y0584007D01*
X0686245Y0579642D02*
X0686918Y0581863D01*
X0685792Y0577365D02*
X0686245Y0579642D01*
X0685564Y0575055D02*
X0685792Y0577365D01*
X0685564Y0575055D02*
X0685564Y0573895D01*
X0685564Y0466022D01*
X0685564Y0462085D02*
X0685564Y0466022D01*
X0685564Y0462085D02*
X0685564Y0404605D01*
Y0403831D02*
Y0404605D01*
Y0403831D02*
X0685766Y0402296D01*
X0686167Y0400801D01*
X0686760Y0399370D01*
X0687534Y0398029D01*
X0688476Y0396801D01*
X0689571Y0395706D01*
X0690799Y0394764D01*
X0692140Y0393990D01*
X0693571Y0393397D01*
X0695066Y0392996D01*
X0696601Y0392794D01*
X0697375D01*
X0763512Y0392794D01*
X0764287Y0392794D01*
X0765823Y0392996D01*
X0767319Y0393397D01*
X0768750Y0393990D01*
X0770091Y0394765D01*
X0771320Y0395708D01*
X0772416Y0396803D01*
X0773359Y0398032D01*
X0774133Y0399373D01*
X0774726Y0400804D01*
X0775127Y0402301D01*
X0775329Y0403836D01*
X0775329Y0404611D02*
X0775329Y0403836D01*
X0775329Y0462085D02*
X0775329Y0404611D01*
X0775329Y0462085D02*
X0775329Y0466022D01*
X0775329Y0481376D02*
X0775329Y0466022D01*
X0775329Y0481376D02*
X0775329Y0512872D01*
X0775328Y0550274D02*
X0775329Y0512872D01*
X0719030Y0550274D02*
X0775328Y0550274D01*
X0707219Y0471534D02*
Y0562085D01*
X0775327Y0576181D02*
X0775328Y0574685D01*
X0774937Y0579149D02*
X0775327Y0576181D01*
X0774162Y0582040D02*
X0774937Y0579149D01*
X0773017Y0584805D02*
X0774162Y0582040D01*
X0771520Y0587397D02*
X0773017Y0584805D01*
X0769698Y0589772D02*
X0771520Y0587397D01*
X0767581Y0591889D02*
X0769698Y0589772D01*
X0765207Y0593711D02*
X0767581Y0591889D01*
X0762614Y0595207D02*
X0765207Y0593711D01*
X0759849Y0596352D02*
X0762614Y0595207D01*
X0756958Y0597127D02*
X0759849Y0596352D01*
M02*
